%FSLAX44Y44*%
%MOMM*%
G71*
G01*
G75*
G04 Layer_Color=16711935*
%ADD10C,0.0508*%
D10*
X509000Y275000D02*
X508984Y277538D01*
X508937Y280076D01*
X508858Y282613D01*
X508747Y285148D01*
X508605Y287683D01*
X508432Y290215D01*
X508227Y292745D01*
X507990Y295272D01*
X507722Y297796D01*
X507423Y300316D01*
X507092Y302833D01*
X506730Y305345D01*
X506337Y307852D01*
X505913Y310355D01*
X505458Y312852D01*
X504971Y315343D01*
X504454Y317828D01*
X503905Y320306D01*
X503326Y322777D01*
X502717Y325241D01*
X502076Y327697D01*
X501405Y330145D01*
X500704Y332584D01*
X499972Y335014D01*
X499211Y337436D01*
X498419Y339847D01*
X497597Y342248D01*
X496745Y344640D01*
X495864Y347020D01*
X494953Y349389D01*
X494013Y351746D01*
X493044Y354092D01*
X492045Y356426D01*
X491018Y358746D01*
X489961Y361054D01*
X488876Y363349D01*
X487763Y365630D01*
X486621Y367897D01*
X485451Y370149D01*
X484254Y372387D01*
X483028Y374609D01*
X481775Y376817D01*
X480494Y379008D01*
X479187Y381184D01*
X477852Y383343D01*
X476491Y385485D01*
X475103Y387610D01*
X473689Y389717D01*
X472248Y391807D01*
X470782Y393879D01*
X469290Y395933D01*
X467773Y397967D01*
X466231Y399983D01*
X464663Y401979D01*
X463071Y403956D01*
X461454Y405913D01*
X459813Y407849D01*
X458148Y409765D01*
X456460Y411660D01*
X454748Y413534D01*
X453013Y415386D01*
X451255Y417217D01*
X449474Y419025D01*
X447671Y420812D01*
X445846Y422575D01*
X443999Y424316D01*
X442130Y426034D01*
X440241Y427729D01*
X438330Y429399D01*
X436399Y431046D01*
X434447Y432669D01*
X432475Y434267D01*
X430484Y435841D01*
X428473Y437390D01*
X426443Y438913D01*
X424394Y440412D01*
X422327Y441884D01*
X420242Y443331D01*
X418138Y444752D01*
X416018Y446146D01*
X413880Y447514D01*
X411725Y448856D01*
X409554Y450170D01*
X407366Y451457D01*
X405163Y452717D01*
X402944Y453950D01*
X400710Y455154D01*
X398461Y456331D01*
X396198Y457480D01*
X393920Y458601D01*
X391629Y459693D01*
X389325Y460756D01*
X387007Y461791D01*
X384677Y462797D01*
X382334Y463773D01*
X379979Y464721D01*
X377613Y465639D01*
X375236Y466528D01*
X372847Y467387D01*
X370448Y468216D01*
X368040Y469016D01*
X365621Y469785D01*
X363193Y470524D01*
X360756Y471233D01*
X358310Y471911D01*
X355856Y472559D01*
X353394Y473177D01*
X350924Y473764D01*
X348448Y474319D01*
X345965Y474845D01*
X343475Y475339D01*
X340980Y475802D01*
X338479Y476234D01*
X335973Y476635D01*
X333461Y477005D01*
X330946Y477343D01*
X328427Y477650D01*
X325903Y477926D01*
X323377Y478171D01*
X320848Y478383D01*
X318316Y478565D01*
X315783Y478715D01*
X313247Y478833D01*
X310711Y478920D01*
X308173Y478975D01*
X305635Y478999D01*
X303097Y478991D01*
X300559Y478952D01*
X298022Y478881D01*
X295486Y478778D01*
X292951Y478644D01*
X290418Y478478D01*
X287888Y478281D01*
X285360Y478052D01*
X282836Y477792D01*
X280314Y477501D01*
X277797Y477178D01*
X275283Y476824D01*
X272775Y476439D01*
X270271Y476022D01*
X267773Y475574D01*
X265280Y475096D01*
X262794Y474586D01*
X260314Y474045D01*
X257841Y473474D01*
X255375Y472872D01*
X252917Y472239D01*
X250467Y471576D01*
X248026Y470882D01*
X245593Y470158D01*
X243169Y469404D01*
X240756Y468620D01*
X238351Y467805D01*
X235958Y466961D01*
X233575Y466087D01*
X231203Y465184D01*
X228843Y464251D01*
X226494Y463289D01*
X224157Y462298D01*
X221833Y461277D01*
X219522Y460228D01*
X217224Y459151D01*
X214940Y458044D01*
X212670Y456909D01*
X210413Y455747D01*
X208172Y454556D01*
X205945Y453337D01*
X203734Y452091D01*
X201539Y450817D01*
X199359Y449517D01*
X197196Y448189D01*
X195050Y446834D01*
X192921Y445453D01*
X190809Y444045D01*
X188714Y442612D01*
X186638Y441152D01*
X184580Y439666D01*
X182540Y438155D01*
X180520Y436619D01*
X178519Y435058D01*
X176537Y433472D01*
X174576Y431861D01*
X172634Y430226D01*
X170713Y428568D01*
X168813Y426885D01*
X166934Y425179D01*
X165076Y423449D01*
X163240Y421697D01*
X161425Y419922D01*
X159634Y418124D01*
X157864Y416305D01*
X156117Y414463D01*
X154394Y412600D01*
X152693Y410715D01*
X151017Y408810D01*
X149364Y406884D01*
X147735Y404937D01*
X146131Y402971D01*
X144551Y400984D01*
X142996Y398978D01*
X141466Y396953D01*
X139961Y394909D01*
X138482Y392846D01*
X137029Y390765D01*
X135601Y388666D01*
X134200Y386550D01*
X132825Y384416D01*
X131477Y382266D01*
X130156Y380098D01*
X128862Y377915D01*
X127596Y375716D01*
X126356Y373501D01*
X125145Y371270D01*
X123961Y369025D01*
X122805Y366766D01*
X121677Y364492D01*
X120578Y362204D01*
X119507Y359902D01*
X118465Y357588D01*
X117452Y355261D01*
X116468Y352921D01*
X115513Y350570D01*
X114588Y348206D01*
X113692Y345831D01*
X112825Y343446D01*
X111988Y341049D01*
X111182Y338643D01*
X110405Y336227D01*
X109658Y333801D01*
X108942Y331366D01*
X108256Y328922D01*
X107600Y326470D01*
X106975Y324010D01*
X106380Y321543D01*
X105817Y319068D01*
X105284Y316586D01*
X104782Y314098D01*
X104311Y311604D01*
X103871Y309104D01*
X103462Y306599D01*
X103085Y304090D01*
X102738Y301575D01*
X102423Y299056D01*
X102140Y296534D01*
X101888Y294009D01*
X101667Y291480D01*
X101477Y288949D01*
X101320Y286416D01*
X101193Y283881D01*
X101099Y281344D01*
X101036Y278807D01*
X101004Y276269D01*
Y273731D01*
X101036Y271193D01*
X101099Y268656D01*
X101193Y266119D01*
X101320Y263584D01*
X101477Y261051D01*
X101667Y258520D01*
X101888Y255991D01*
X102140Y253466D01*
X102423Y250944D01*
X102738Y248425D01*
X103085Y245910D01*
X103462Y243401D01*
X103871Y240896D01*
X104311Y238396D01*
X104782Y235902D01*
X105284Y233414D01*
X105817Y230932D01*
X106380Y228457D01*
X106975Y225990D01*
X107600Y223530D01*
X108256Y221078D01*
X108942Y218634D01*
X109658Y216199D01*
X110405Y213773D01*
X111182Y211357D01*
X111988Y208951D01*
X112825Y206554D01*
X113692Y204168D01*
X114588Y201794D01*
X115513Y199430D01*
X116468Y197079D01*
X117452Y194739D01*
X118465Y192412D01*
X119507Y190098D01*
X120578Y187796D01*
X121677Y185508D01*
X122805Y183235D01*
X123961Y180975D01*
X125145Y178730D01*
X126356Y176499D01*
X127596Y174284D01*
X128862Y172085D01*
X130156Y169902D01*
X131477Y167734D01*
X132825Y165584D01*
X134200Y163450D01*
X135601Y161334D01*
X137029Y159235D01*
X138482Y157154D01*
X139961Y155091D01*
X141466Y153047D01*
X142996Y151022D01*
X144551Y149016D01*
X146131Y147029D01*
X147735Y145063D01*
X149364Y143116D01*
X151017Y141190D01*
X152693Y139284D01*
X154394Y137400D01*
X156117Y135537D01*
X157864Y133695D01*
X159634Y131876D01*
X161425Y130078D01*
X163240Y128303D01*
X165076Y126551D01*
X166934Y124821D01*
X168813Y123115D01*
X170713Y121432D01*
X172634Y119774D01*
X174576Y118139D01*
X176537Y116528D01*
X178519Y114942D01*
X180520Y113381D01*
X182540Y111845D01*
X184580Y110334D01*
X186638Y108848D01*
X188714Y107388D01*
X190809Y105955D01*
X192921Y104547D01*
X195050Y103166D01*
X197197Y101811D01*
X199360Y100483D01*
X201539Y99182D01*
X203735Y97909D01*
X205946Y96663D01*
X208172Y95444D01*
X210414Y94253D01*
X212670Y93090D01*
X214940Y91956D01*
X217225Y90849D01*
X219523Y89771D01*
X221834Y88722D01*
X224158Y87702D01*
X226494Y86711D01*
X228843Y85749D01*
X231204Y84816D01*
X233575Y83912D01*
X235958Y83038D01*
X238352Y82194D01*
X240756Y81380D01*
X243170Y80596D01*
X245594Y79841D01*
X248026Y79117D01*
X250468Y78424D01*
X252918Y77760D01*
X255376Y77128D01*
X257841Y76526D01*
X260315Y75954D01*
X262794Y75414D01*
X265281Y74904D01*
X267773Y74425D01*
X270272Y73978D01*
X272775Y73561D01*
X275284Y73176D01*
X277797Y72822D01*
X280315Y72499D01*
X282836Y72208D01*
X285361Y71947D01*
X287889Y71719D01*
X290419Y71522D01*
X292952Y71356D01*
X295486Y71222D01*
X298022Y71119D01*
X300559Y71048D01*
X303097Y71009D01*
X305635Y71001D01*
X308173Y71025D01*
X310711Y71080D01*
X313248Y71167D01*
X315783Y71285D01*
X318316Y71435D01*
X320848Y71617D01*
X323377Y71829D01*
X325904Y72074D01*
X328427Y72350D01*
X330946Y72657D01*
X333461Y72995D01*
X335973Y73365D01*
X338479Y73766D01*
X340980Y74198D01*
X343475Y74661D01*
X345965Y75155D01*
X348448Y75680D01*
X350924Y76236D01*
X353394Y76823D01*
X355856Y77441D01*
X358310Y78089D01*
X360755Y78767D01*
X363192Y79476D01*
X365621Y80215D01*
X368039Y80984D01*
X370448Y81784D01*
X372847Y82613D01*
X375235Y83472D01*
X377613Y84361D01*
X379979Y85279D01*
X382334Y86226D01*
X384676Y87203D01*
X387007Y88209D01*
X389324Y89244D01*
X391629Y90307D01*
X393920Y91399D01*
X396197Y92520D01*
X398461Y93668D01*
X400709Y94845D01*
X402943Y96050D01*
X405162Y97282D01*
X407365Y98542D01*
X409553Y99829D01*
X411724Y101144D01*
X413879Y102485D01*
X416017Y103853D01*
X418138Y105247D01*
X420241Y106668D01*
X422326Y108115D01*
X424393Y109588D01*
X426442Y111086D01*
X428472Y112609D01*
X430483Y114158D01*
X432474Y115732D01*
X434446Y117330D01*
X436397Y118953D01*
X438329Y120600D01*
X440239Y122270D01*
X442129Y123965D01*
X443997Y125683D01*
X445844Y127423D01*
X447670Y129187D01*
X449473Y130974D01*
X451254Y132782D01*
X453012Y134613D01*
X454747Y136465D01*
X456459Y138339D01*
X458147Y140234D01*
X459812Y142150D01*
X461453Y144086D01*
X463070Y146042D01*
X464662Y148019D01*
X466229Y150015D01*
X467772Y152031D01*
X469289Y154066D01*
X470781Y156119D01*
X472247Y158191D01*
X473688Y160281D01*
X475102Y162388D01*
X476490Y164513D01*
X477851Y166655D01*
X479185Y168814D01*
X480493Y170989D01*
X481774Y173181D01*
X483027Y175388D01*
X484252Y177611D01*
X485450Y179848D01*
X486620Y182101D01*
X487762Y184368D01*
X488875Y186649D01*
X489960Y188943D01*
X491016Y191251D01*
X492044Y193572D01*
X493042Y195905D01*
X494012Y198251D01*
X494952Y200608D01*
X495863Y202977D01*
X496744Y205357D01*
X497596Y207748D01*
X498418Y210150D01*
X499210Y212561D01*
X499972Y214982D01*
X500703Y217413D01*
X501404Y219852D01*
X502075Y222300D01*
X502716Y224756D01*
X503326Y227220D01*
X503905Y229691D01*
X504453Y232169D01*
X504970Y234654D01*
X505457Y237145D01*
X505912Y239641D01*
X506337Y242144D01*
X506730Y244651D01*
X507092Y247164D01*
X507423Y249680D01*
X507722Y252200D01*
X507990Y254724D01*
X508227Y257251D01*
X508432Y259781D01*
X508605Y262313D01*
X508747Y264848D01*
X508858Y267383D01*
X508937Y269920D01*
X508984Y272458D01*
X509000Y274996D01*
Y275000D01*
M02*
