%FSLAX44Y44*%
%MOMM*%
G71*
G01*
G75*
%ADD10R,1.5000X1.3000*%
%ADD11R,2.2000X0.6000*%
%ADD12R,2.2000X0.6000*%
%ADD13R,1.3000X1.5000*%
%ADD14C,0.7620*%
%ADD15C,0.6350*%
%ADD16C,0.8890*%
%ADD17C,0.8000*%
%ADD18C,2.0000*%
%ADD19C,1.7000*%
%ADD20R,1.7000X1.7000*%
%ADD21C,4.0000*%
D10*
X1051560Y599440D02*
D03*
Y618440D02*
D03*
X989330Y684530D02*
D03*
Y703530D02*
D03*
X1080770Y704850D02*
D03*
Y685850D02*
D03*
X1050290Y703530D02*
D03*
Y684530D02*
D03*
X1019810D02*
D03*
Y703530D02*
D03*
D11*
X964600Y623570D02*
D03*
D12*
X1016600Y585470D02*
D03*
Y598170D02*
D03*
Y610870D02*
D03*
Y623570D02*
D03*
X964600Y585470D02*
D03*
Y598170D02*
D03*
Y610870D02*
D03*
D13*
X934720Y650240D02*
D03*
X953720D02*
D03*
D14*
X989330Y703530D02*
Y704850D01*
X965200Y679450D02*
X970280Y684530D01*
X989330Y703530D02*
X1019810D01*
X1074370Y685850D02*
X1080770D01*
X1055370Y704850D02*
X1074370Y685850D01*
X1019810Y703530D02*
Y717550D01*
X1023620Y721360D01*
X1079500D01*
Y706120D02*
Y721360D01*
Y706120D02*
X1080770Y704850D01*
X934720Y650240D02*
Y678180D01*
X908050Y704850D02*
X933450D01*
X989330D01*
X908050Y679450D02*
X933450D01*
X965200D01*
X933450D02*
X934720Y678180D01*
X970280Y684530D02*
X989330D01*
X1019810D01*
X1050290D01*
D15*
X900430Y623570D02*
X964600D01*
X899160Y624840D02*
X900430Y623570D01*
X915670Y600710D02*
X918210Y598170D01*
X900430Y600710D02*
X915670D01*
X899160Y599440D02*
X900430Y600710D01*
X933450Y585470D02*
X964600D01*
X922020Y574040D02*
X933450Y585470D01*
X899160Y574040D02*
X922020D01*
X1016600Y610870D02*
X1031240D01*
X1037590Y617220D01*
X1050340D01*
X1051560Y618440D01*
X1016600Y598170D02*
X1050290D01*
X1051560Y599440D01*
X1016600Y623570D02*
X1031368D01*
X1065658Y657860D01*
X1098550D01*
X1111250Y670560D01*
Y693420D01*
X1101090Y703580D02*
X1111250Y693420D01*
X1082040Y703580D02*
X1101090D01*
X1080770Y704850D02*
X1082040Y703580D01*
X977900Y610870D02*
X982980Y615950D01*
Y646430D01*
X979170Y650240D02*
X982980Y646430D01*
X953720Y650240D02*
X979170D01*
X996950Y585470D02*
Y657860D01*
X990600Y664210D02*
X996950Y657860D01*
X990600Y664210D02*
Y683260D01*
X918210Y598170D02*
X958850D01*
X964600D01*
X970280D01*
X958850D02*
X960120Y599440D01*
X964600Y598170D02*
Y610870D01*
X970280Y598170D02*
Y610870D01*
X964600D02*
X970280D01*
X977900D01*
X960120Y599440D02*
Y610870D01*
X996950Y585470D02*
X1016600D01*
X989330Y684530D02*
X990600Y683260D01*
D16*
X1089660Y617220D02*
X1106170Y633730D01*
X1051560Y599440D02*
X1090930D01*
X1106170Y584200D01*
X1050340Y617220D02*
X1051560D01*
X1089660D01*
D17*
X869950Y703417D02*
X883279D01*
X876615Y710081D02*
Y696752D01*
X867410Y674207D02*
X880739D01*
X861060Y613410D02*
Y633404D01*
X871057D01*
X874389Y630071D01*
Y623407D01*
X871057Y620075D01*
X861060D01*
X867725D02*
X874389Y613410D01*
X861060Y585144D02*
X874389D01*
X867725D01*
Y565150D01*
X965200Y541020D02*
Y561014D01*
X978529Y541020D01*
Y561014D01*
X998523D02*
X991858D01*
X995190D01*
Y544352D01*
X991858Y541020D01*
X988526D01*
X985194Y544352D01*
X1005187Y561014D02*
X1011852D01*
X1008519D01*
Y541020D01*
X1005187D01*
X1011852D01*
X1021848Y561014D02*
X1035177D01*
X1028513D01*
Y541020D01*
D18*
X1106170Y633730D02*
D03*
Y584200D02*
D03*
D19*
X899160Y624840D02*
D03*
Y599440D02*
D03*
X933450Y679450D02*
D03*
X908050Y704850D02*
D03*
Y679450D02*
D03*
D20*
X899160Y574040D02*
D03*
X933450Y704850D02*
D03*
D21*
X876300Y737870D02*
D03*
X1132840Y539750D02*
D03*
X1139190Y735330D02*
D03*
X873760Y535940D02*
D03*
M02*
