%FSLAX44Y44*%
%MOMM*%
G71*
G01*
G75*
%ADD10R,1.5000X1.3000*%
%ADD11R,2.2000X0.6000*%
%ADD12R,2.2000X0.6000*%
%ADD13R,1.3000X1.5000*%
%ADD14C,0.7620*%
%ADD15C,0.6350*%
%ADD16C,0.8890*%
%ADD17C,0.8000*%
%ADD18C,2.0000*%
%ADD19C,1.7000*%
%ADD20R,1.7000X1.7000*%
%ADD21C,4.0000*%
%ADD22C,0.2000*%
%ADD23C,0.1693*%
D22*
X1101090Y628650D02*
Y638810D01*
X1111250D01*
Y628650D01*
X1101090D01*
Y579120D02*
Y589280D01*
X1111250D01*
Y579120D01*
X1101090D01*
D23*
X904240Y624840D02*
X903658Y627201D01*
X902046Y629021D01*
X899772Y629883D01*
X897359Y629590D01*
X895358Y628209D01*
X894228Y626056D01*
Y623624D01*
X895358Y621471D01*
X897359Y620090D01*
X899772Y619797D01*
X902046Y620659D01*
X903658Y622479D01*
X904240Y624840D01*
Y599440D02*
X903658Y601801D01*
X902046Y603621D01*
X899772Y604483D01*
X897359Y604190D01*
X895358Y602809D01*
X894228Y600656D01*
Y598224D01*
X895358Y596071D01*
X897359Y594690D01*
X899772Y594397D01*
X902046Y595259D01*
X903658Y597079D01*
X904240Y599440D01*
Y574040D02*
X903658Y576401D01*
X902046Y578221D01*
X899772Y579083D01*
X897359Y578790D01*
X895358Y577409D01*
X894228Y575256D01*
Y572824D01*
X895358Y570671D01*
X897359Y569290D01*
X899772Y568997D01*
X902046Y569859D01*
X903658Y571679D01*
X904240Y574040D01*
X938530Y704850D02*
X937948Y707211D01*
X936336Y709031D01*
X934062Y709893D01*
X931649Y709600D01*
X929648Y708219D01*
X928518Y706066D01*
Y703634D01*
X929648Y701481D01*
X931649Y700100D01*
X934062Y699807D01*
X936336Y700669D01*
X937948Y702489D01*
X938530Y704850D01*
Y679450D02*
X937948Y681811D01*
X936336Y683631D01*
X934062Y684493D01*
X931649Y684200D01*
X929648Y682819D01*
X928518Y680666D01*
Y678234D01*
X929648Y676081D01*
X931649Y674700D01*
X934062Y674407D01*
X936336Y675269D01*
X937948Y677089D01*
X938530Y679450D01*
X913130Y704850D02*
X912548Y707211D01*
X910936Y709031D01*
X908662Y709893D01*
X906249Y709600D01*
X904248Y708219D01*
X903118Y706066D01*
Y703634D01*
X904248Y701481D01*
X906249Y700100D01*
X908662Y699807D01*
X910936Y700669D01*
X912548Y702489D01*
X913130Y704850D01*
Y679450D02*
X912548Y681811D01*
X910936Y683631D01*
X908662Y684493D01*
X906249Y684200D01*
X904248Y682819D01*
X903118Y680666D01*
Y678234D01*
X904248Y676081D01*
X906249Y674700D01*
X908662Y674407D01*
X910936Y675269D01*
X912548Y677089D01*
X913130Y679450D01*
X876300Y732790D02*
X871220Y742950D01*
X881380D01*
X876300Y732790D01*
X1132840Y534670D02*
X1127760Y544830D01*
X1137920D01*
X1132840Y534670D01*
X1139190Y730250D02*
X1134110Y740410D01*
X1144270D01*
X1139190Y730250D01*
X873760Y530860D02*
X868680Y541020D01*
X878840D01*
X873760Y530860D01*
M02*
