M48
;Layer_Color=9474304
;FILE_FORMAT=4:4
METRIC,LZ
;TYPE=PLATED
T1F00S00C3.0000
T2F00S00C8.0000
%
T01
X0073306Y0067766
X0086514
X0099722
X011293
X0103822Y0048414
X0128322
X0136334
X0139346Y0067766
X0126138
X0152554
X0165762
X0179478
X0160834Y0048414
X0193194Y0067766
Y0092266
X0195453Y009906
X0210693
X0179705
X0179478Y0092266
X0165762
X0163957Y009906
X0148209
X0152554Y0092266
X0139346
X0126138
X0119761Y009906
X011293Y0092266
X0099722
X0103505Y009906
X0086741
X0086514Y0092266
X0073306
X0070993Y009906
X0055245
Y01319276
X0070993
X0086741
X0103505
X0119761
X0148209
X0163957
X0179705
X0195453
X0210693
T02
X0125222Y0029718
X0141224
X0227965Y0116459
X0038481
X0038608Y0132461
X0227838
X0141224Y0218948
X0125222Y0219075
M30
