%FSLAX44Y44*%
%MOMM*%
G71*
G01*
G75*
G04 Layer_Physical_Order=1*
G04 Layer_Color=255*
%ADD10C,8.0000*%
%ADD11C,3.0000*%
D10*
X2278380Y1324610D02*
D03*
X386080D02*
D03*
X1252220Y297180D02*
D03*
X1412240D02*
D03*
Y2189480D02*
D03*
X1252220Y2190750D02*
D03*
X384810Y1164590D02*
D03*
X2279650D02*
D03*
D11*
X865140Y677660D02*
D03*
Y922660D02*
D03*
X1393460D02*
D03*
Y677660D02*
D03*
X1261380D02*
D03*
Y922660D02*
D03*
X1129300D02*
D03*
Y677660D02*
D03*
X997220D02*
D03*
Y922660D02*
D03*
X733060D02*
D03*
Y677660D02*
D03*
X1283220Y484140D02*
D03*
X1038220D02*
D03*
X1931940Y922660D02*
D03*
Y677660D02*
D03*
X1608340Y484140D02*
D03*
X1363340D02*
D03*
X1794780Y922660D02*
D03*
Y677660D02*
D03*
X1657620D02*
D03*
Y922660D02*
D03*
X1525540D02*
D03*
Y677660D02*
D03*
X2106930Y990600D02*
D03*
Y1319276D02*
D03*
X867410Y990600D02*
D03*
Y1319276D02*
D03*
X1035050Y990600D02*
D03*
Y1319276D02*
D03*
X1197610Y990600D02*
D03*
Y1319276D02*
D03*
X1482090Y990600D02*
D03*
Y1319276D02*
D03*
X1639570Y990600D02*
D03*
Y1319276D02*
D03*
X1797050Y990600D02*
D03*
Y1319276D02*
D03*
X1954530Y990600D02*
D03*
Y1319276D02*
D03*
X552450Y990600D02*
D03*
Y1319276D02*
D03*
X709930Y990600D02*
D03*
Y1319276D02*
D03*
M02*
