M48
;Layer_Color=9474304
;FILE_FORMAT=4:4
METRIC,LZ
;TYPE=PLATED
T1F00S00C0.7112
T2F00S00C1.1430
T3F00S00C1.2000
%
T01
X0120904Y0057531
X0118364Y0058674
X0115824Y0060833
X0111379Y0061087
X0114046Y0056896
X0113284Y0067691
X0110744Y0067945
X0108204Y0068072
X0105664Y0068326
X0103124Y0068453
X0085217Y0067056
X0087884Y006223
X0084328Y0057912
X0081788Y0058166
X0078105Y0059436
Y0061976
Y0064516
Y0067056
X0096774Y0087249
X0107315Y0086995
T02
X0132334Y0059436
Y0061976
Y0064516
Y0067056
Y0069596
Y0072136
Y0074676
X0130048
X0129921Y0077216
X0132334
X0127254
Y0074676
Y0072136
X0115824Y0064516
X0113284
X0110744
X0108204
X0105664
X0103124
X0100584
X0098044
X0092964
Y0067056
X0090424
X0087884
Y0064516
X0090424
Y0069596
X0087884
X0085344
X0082804
Y0067056
Y0064516
X0080264
Y0061976
Y0059436
X0081788Y0055626
Y0053086
X0084328
X0086868
X0089408
X0091948
X0094488
Y0055372
X0097028
Y0053086
X0099568
Y0055499
Y0058166
X0097028
X0094488
X0089408Y0055626
X0086868
X0084328
X0080264Y0067056
Y0069596
Y0072136
X0082804
Y0074676
Y0077216
X0080264
Y0074676
X0085344
Y0077216
Y0072136
X0092964Y0069596
X0102743Y0058166
X0105283
X0107823
Y0055499
Y0053086
X0110363
X0105283
Y0055372
X0102743
Y0053086
X0075184Y0059436
Y0061976
Y0064516
Y0067056
X0080264Y0079756
X0082804
Y0082296
Y0084836
Y0087376
X0080264
Y0084836
Y0082296
X0085344
Y0079756
Y0084836
Y0087376
X0099695Y0089535
X0102235Y0088392
X0104775Y0089535
Y0091821
Y0094361
X0107315
X0109855
X0113411
X0115951
X0118491
Y0092075
Y0089281
X0107315Y0089535
Y0091821
X0102235Y0094361
Y0084201
X0099695
X0104775
X0107315
X0110109
X0104775Y008128
X0123571Y0084201
X0126111
Y0086741
Y0089281
X0123571
Y0086741
X0121031Y0089281
Y0092075
Y0094361
X0123571
Y0092075
X0126111
Y0094361
X0132334Y0087376
Y0084836
Y0082296
Y0079756
T03
X0120904Y0052959
X0125984
X0131064
X0115824
M30
