%FSLAX44Y44*%
%MOMM*%
G71*
G01*
G75*
G04 Layer_Color=16711935*
%ADD10C,0.1016*%
%ADD11C,0.7620*%
%ADD12C,1.2700*%
%ADD13C,2.5400*%
%ADD14C,2.1590*%
%ADD15R,2.1590X2.1590*%
%ADD16C,3.0000*%
%ADD17C,1.7780*%
%ADD18C,0.0762*%
D18*
X716280Y295910D02*
X773430D01*
X657860Y354330D02*
X716280Y295910D01*
X1245870Y684530D02*
X1271270Y709930D01*
Y1113790D01*
X1238250Y1146810D02*
X1271270Y1113790D01*
X1238250Y1146810D02*
Y1493520D01*
X1230630Y1501140D02*
X1238250Y1493520D01*
X716280Y1501140D02*
X1230630D01*
X708660Y1493520D02*
X716280Y1501140D01*
X708660Y1148080D02*
Y1493520D01*
X679450Y1118870D02*
X708660Y1148080D01*
X679450Y1010920D02*
Y1118870D01*
X666750Y998220D02*
X679450Y1010920D01*
X666750Y788670D02*
Y998220D01*
Y788670D02*
X680720Y774700D01*
Y699770D02*
Y774700D01*
Y699770D02*
X704850Y675640D01*
Y554990D02*
Y675640D01*
X657860Y508000D02*
X704850Y554990D01*
X657860Y354330D02*
Y508000D01*
X773430Y295910D02*
X812800Y256540D01*
X999490D01*
X1245870Y284480D02*
Y684530D01*
X1217930Y256540D02*
X1245870Y284480D01*
X999490Y256540D02*
X1217930D01*
M02*
