M48
;Layer_Color=9474304
;FILE_FORMAT=4:4
METRIC,LZ
;TYPE=PLATED
T1F00S00C0.8890
T2F00S00C0.9652
T3F00S00C1.1430
T4F00S00C1.2000
T5F00S00C3.0000
%
T01
X006858Y0039116
Y0047244
T02
X0121412Y00762
Y007874
X0073406Y0084328
Y0086868
Y0089408
Y0091948
Y0094488
Y0097028
Y0102108
Y0104648
Y0107188
Y0109728
Y0112268
Y0114808
Y0117348
X0121412Y0115316
Y0112776
Y0110236
Y0107696
Y0105156
Y0102616
Y0100076
Y0097536
Y009398
Y009144
Y00889
Y008636
Y008382
Y008128
Y0120396
Y0122936
Y0125476
Y0128016
Y0130556
Y0133096
Y0135636
Y0138176
Y0145288
Y0147828
X0118872
Y0145288
X0116332
Y0147828
X0113792
Y0145288
X0111252
Y0147828
X0108712
Y0145288
X0106172
Y0147828
X0103632
Y0145288
X0101092
Y0147828
X0098552
Y0145288
X0096012
Y0147828
X0093472
Y0145288
X0090932
Y0147828
X0088392
Y0145288
X0085852
Y0147828
X0083312
Y0145288
X0080772
Y0147828
X0078232
Y0145288
X0073406Y0142748
Y0140208
Y0137668
Y0135128
Y0132588
Y0130048
Y0127508
Y0124968
Y0119888
T03
X007366Y0039116
X007874
X008382
X00889Y0032512
X009144
X009398
X009652
X009906
X01016
X010414
X010668
X0110744Y0039116
X0115824
X0120904
Y0047244
X0115824
X0110744
X008382
X007874
X007366
T04
X009652Y0039624
X01016
Y0047752
X009652
T05
X0124841Y0070993
X006985
Y0110998
X012485
M30
