%FSLAX44Y44*%
%MOMM*%
G71*
G01*
G75*
%ADD10C,0.2032*%
%ADD11R,1.5000X1.3000*%
%ADD12R,1.3000X1.5000*%
%ADD13R,1.2000X1.8000*%
%ADD14R,3.2000X2.0000*%
%ADD15C,0.7620*%
%ADD16C,0.6350*%
%ADD17C,0.5080*%
%ADD18C,4.0000*%
%ADD19R,1.5000X1.5000*%
%ADD20C,1.5000*%
%ADD21C,0.2554*%
%ADD22C,0.1693*%
D22*
X1154670Y750570D02*
X1184670D01*
X1169670Y735570D02*
Y765570D01*
X881620Y885190D02*
X911620D01*
X896620Y870190D02*
Y900190D01*
X927680Y755650D02*
X936680D01*
X932180Y751150D02*
Y760150D01*
X927680Y781050D02*
X936680D01*
X932180Y776550D02*
Y785550D01*
X1102940Y775970D02*
X1111940D01*
X1107440Y771470D02*
Y780470D01*
X1102940Y801370D02*
X1111940D01*
X1107440Y796870D02*
Y805870D01*
X927680Y826770D02*
X936680D01*
X932180Y822270D02*
Y831270D01*
X927680Y852170D02*
X936680D01*
X932180Y847670D02*
Y856670D01*
X1102940Y836930D02*
X1111940D01*
X1107440Y832430D02*
Y841430D01*
X1102940Y862330D02*
X1111940D01*
X1107440Y857830D02*
Y866830D01*
X1102940Y598170D02*
X1111940D01*
X1107440Y593670D02*
Y602670D01*
X1102940Y572770D02*
X1111940D01*
X1107440Y568270D02*
Y577270D01*
X927680Y648970D02*
X936680D01*
X932180Y644470D02*
Y653470D01*
X927680Y623570D02*
X936680D01*
X932180Y619070D02*
Y628070D01*
X1102940Y659130D02*
X1111940D01*
X1107440Y654630D02*
Y663630D01*
X1102940Y633730D02*
X1111940D01*
X1107440Y629230D02*
Y638230D01*
X927680Y577850D02*
X936680D01*
X932180Y573350D02*
Y582350D01*
X927680Y552450D02*
X936680D01*
X932180Y547950D02*
Y556950D01*
X881620Y681990D02*
X911620D01*
X896620Y666990D02*
Y696990D01*
X1154670Y547370D02*
X1184670D01*
X1169670Y532370D02*
Y562370D01*
M02*
