%FSLAX44Y44*%
%MOMM*%
G71*
G01*
G75*
%ADD10C,0.2032*%
%ADD11R,1.5000X1.3000*%
%ADD12R,1.3000X1.5000*%
%ADD13R,1.2000X1.8000*%
%ADD14R,3.2000X2.0000*%
%ADD15C,0.7620*%
%ADD16C,0.6350*%
%ADD17C,0.5080*%
%ADD18C,4.0000*%
%ADD19R,1.5000X1.5000*%
%ADD20C,1.5000*%
%ADD21C,0.2554*%
%ADD22C,0.1693*%
D10*
X1164590Y745490D02*
Y755650D01*
X1174750D01*
Y745490D01*
X1164590D01*
X891540Y880110D02*
Y890270D01*
X901700D01*
Y880110D01*
X891540D01*
D22*
X937260Y755650D02*
X936678Y758011D01*
X935066Y759831D01*
X932792Y760693D01*
X930379Y760400D01*
X928378Y759019D01*
X927248Y756866D01*
Y754434D01*
X928378Y752281D01*
X930379Y750900D01*
X932792Y750607D01*
X935066Y751469D01*
X936678Y753289D01*
X937260Y755650D01*
Y781050D02*
X936678Y783411D01*
X935066Y785231D01*
X932792Y786093D01*
X930379Y785800D01*
X928378Y784419D01*
X927248Y782266D01*
Y779834D01*
X928378Y777681D01*
X930379Y776300D01*
X932792Y776007D01*
X935066Y776869D01*
X936678Y778689D01*
X937260Y781050D01*
X1112520Y775970D02*
X1111938Y778331D01*
X1110326Y780151D01*
X1108052Y781013D01*
X1105639Y780720D01*
X1103638Y779339D01*
X1102508Y777186D01*
Y774754D01*
X1103638Y772601D01*
X1105639Y771220D01*
X1108052Y770927D01*
X1110326Y771789D01*
X1111938Y773609D01*
X1112520Y775970D01*
Y801370D02*
X1111938Y803731D01*
X1110326Y805551D01*
X1108052Y806413D01*
X1105639Y806120D01*
X1103638Y804739D01*
X1102508Y802586D01*
Y800154D01*
X1103638Y798001D01*
X1105639Y796620D01*
X1108052Y796327D01*
X1110326Y797189D01*
X1111938Y799009D01*
X1112520Y801370D01*
X937260Y826770D02*
X936678Y829131D01*
X935066Y830951D01*
X932792Y831813D01*
X930379Y831520D01*
X928378Y830139D01*
X927248Y827986D01*
Y825554D01*
X928378Y823401D01*
X930379Y822020D01*
X932792Y821727D01*
X935066Y822589D01*
X936678Y824409D01*
X937260Y826770D01*
Y852170D02*
X936678Y854531D01*
X935066Y856351D01*
X932792Y857213D01*
X930379Y856920D01*
X928378Y855539D01*
X927248Y853386D01*
Y850954D01*
X928378Y848801D01*
X930379Y847420D01*
X932792Y847127D01*
X935066Y847989D01*
X936678Y849809D01*
X937260Y852170D01*
X1112520Y836930D02*
X1111938Y839291D01*
X1110326Y841111D01*
X1108052Y841973D01*
X1105639Y841680D01*
X1103638Y840299D01*
X1102508Y838146D01*
Y835714D01*
X1103638Y833561D01*
X1105639Y832180D01*
X1108052Y831887D01*
X1110326Y832749D01*
X1111938Y834569D01*
X1112520Y836930D01*
Y862330D02*
X1111938Y864691D01*
X1110326Y866511D01*
X1108052Y867373D01*
X1105639Y867080D01*
X1103638Y865699D01*
X1102508Y863546D01*
Y861114D01*
X1103638Y858961D01*
X1105639Y857580D01*
X1108052Y857287D01*
X1110326Y858149D01*
X1111938Y859969D01*
X1112520Y862330D01*
Y598170D02*
X1111938Y600531D01*
X1110326Y602351D01*
X1108052Y603213D01*
X1105639Y602920D01*
X1103638Y601539D01*
X1102508Y599386D01*
Y596954D01*
X1103638Y594801D01*
X1105639Y593420D01*
X1108052Y593127D01*
X1110326Y593989D01*
X1111938Y595809D01*
X1112520Y598170D01*
Y572770D02*
X1111938Y575131D01*
X1110326Y576951D01*
X1108052Y577813D01*
X1105639Y577520D01*
X1103638Y576139D01*
X1102508Y573986D01*
Y571554D01*
X1103638Y569401D01*
X1105639Y568020D01*
X1108052Y567727D01*
X1110326Y568589D01*
X1111938Y570409D01*
X1112520Y572770D01*
X937260Y648970D02*
X936678Y651331D01*
X935066Y653151D01*
X932792Y654013D01*
X930379Y653720D01*
X928378Y652339D01*
X927248Y650186D01*
Y647754D01*
X928378Y645601D01*
X930379Y644220D01*
X932792Y643927D01*
X935066Y644789D01*
X936678Y646609D01*
X937260Y648970D01*
Y623570D02*
X936678Y625931D01*
X935066Y627751D01*
X932792Y628613D01*
X930379Y628320D01*
X928378Y626939D01*
X927248Y624786D01*
Y622354D01*
X928378Y620201D01*
X930379Y618820D01*
X932792Y618527D01*
X935066Y619389D01*
X936678Y621209D01*
X937260Y623570D01*
X1112520Y659130D02*
X1111938Y661491D01*
X1110326Y663311D01*
X1108052Y664173D01*
X1105639Y663880D01*
X1103638Y662499D01*
X1102508Y660346D01*
Y657914D01*
X1103638Y655761D01*
X1105639Y654380D01*
X1108052Y654087D01*
X1110326Y654949D01*
X1111938Y656769D01*
X1112520Y659130D01*
Y633730D02*
X1111938Y636091D01*
X1110326Y637911D01*
X1108052Y638773D01*
X1105639Y638480D01*
X1103638Y637099D01*
X1102508Y634946D01*
Y632514D01*
X1103638Y630361D01*
X1105639Y628980D01*
X1108052Y628687D01*
X1110326Y629549D01*
X1111938Y631369D01*
X1112520Y633730D01*
X937260Y577850D02*
X936678Y580211D01*
X935066Y582031D01*
X932792Y582893D01*
X930379Y582600D01*
X928378Y581219D01*
X927248Y579066D01*
Y576634D01*
X928378Y574481D01*
X930379Y573100D01*
X932792Y572807D01*
X935066Y573669D01*
X936678Y575489D01*
X937260Y577850D01*
Y552450D02*
X936678Y554811D01*
X935066Y556631D01*
X932792Y557493D01*
X930379Y557200D01*
X928378Y555819D01*
X927248Y553666D01*
Y551234D01*
X928378Y549081D01*
X930379Y547700D01*
X932792Y547407D01*
X935066Y548269D01*
X936678Y550089D01*
X937260Y552450D01*
X891540Y676910D02*
Y687070D01*
X901700D01*
Y676910D01*
X891540D01*
X1164590Y542290D02*
Y552450D01*
X1174750D01*
Y542290D01*
X1164590D01*
M02*
