M71
M48
T1F00S00C3.0000
T2F00S00C0.9000
%
T01
X0089662Y0068199
X0116967Y0075057
Y0054737
X0089662Y0088519
T02
X0093218Y0055245
Y0057785
Y0062357
Y0064897
Y0075565
Y0078105
X0110744Y0077597
Y0065913
Y0063373
Y0059817
Y0057277
Y0080137
Y0083693
Y0086233
X0093218Y0085217
Y0082677
M30
