%FSLAX44Y44*%
%MOMM*%
G71*
G01*
G75*
%ADD10C,0.2032*%
%ADD11R,1.5000X1.3000*%
%ADD12R,1.3000X1.5000*%
%ADD13R,1.2000X1.8000*%
%ADD14R,3.2000X2.0000*%
%ADD15C,0.7620*%
%ADD16C,0.6350*%
%ADD17C,0.5080*%
%ADD18C,4.0000*%
%ADD19R,1.5000X1.5000*%
%ADD20C,1.5000*%
D10*
X1202443Y913130D02*
X1202020Y915801D01*
X1200792Y918210D01*
X1198880Y920122D01*
X1196471Y921350D01*
X1193800Y921773D01*
X1202443Y913130D02*
X1202020Y915801D01*
X1200792Y918210D01*
X1198880Y920122D01*
X1196471Y921350D01*
X1193800Y921773D01*
X1149731Y852170D02*
X1149370Y854903D01*
X1148314Y857449D01*
X1146633Y859634D01*
X1136484Y869784D02*
X1134301Y871459D01*
X1131758Y872512D01*
X1129030Y872871D01*
X1149731Y852170D02*
X1149372Y854898D01*
X1148319Y857440D01*
X1146644Y859624D01*
X1136495Y869773D02*
X1134309Y871454D01*
X1131763Y872511D01*
X1129030Y872871D01*
X1128649Y846801D02*
X1127760Y846836D01*
X1128649Y846801D02*
X1127760Y846836D01*
X1185157Y773132D02*
X1182958Y774493D01*
X1180641Y775640D01*
X1178226Y776564D01*
X1175734Y777256D01*
X1173189Y777709D01*
X1170612Y777920D01*
X1168026Y777887D01*
X1165455Y777609D01*
X1162922Y777091D01*
X1160449Y776336D01*
X1158058Y775350D01*
X1155771Y774144D01*
X1153609Y772727D01*
X1151589Y771112D01*
X1149731Y769314D01*
X1199663Y716280D02*
X1201168Y718111D01*
X1202118Y720282D01*
X1202443Y722630D01*
X1199663Y716280D02*
X1201168Y718111D01*
X1202118Y720282D01*
X1202443Y722630D01*
Y709930D02*
X1202118Y712278D01*
X1201168Y714449D01*
X1199663Y716280D01*
X1142304Y750590D02*
X1142433Y747914D01*
X1142823Y745264D01*
X1143471Y742665D01*
X1144369Y740142D01*
X1145509Y737718D01*
X1146882Y735418D01*
X1148472Y733262D01*
X1150266Y731273D01*
X1134110Y747014D02*
X1136393Y747250D01*
X1138580Y747947D01*
X1140579Y749076D01*
X1142304Y750590D01*
X1117923Y872871D02*
X1115947Y874521D01*
X1113717Y875806D01*
X1111299Y876687D01*
X1108764Y877137D01*
X1106190Y877143D01*
X1103654Y876706D01*
X1101231Y875837D01*
X1098994Y874564D01*
X1097011Y872924D01*
X1095340Y870966D01*
X1042289Y872490D02*
X1042032Y874871D01*
X1041275Y877142D01*
X1040050Y879200D01*
X1038416Y880950D01*
X1036446Y882312D01*
X1034231Y883222D01*
X1031873Y883640D01*
X1042289Y872490D02*
X1042032Y874871D01*
X1041275Y877142D01*
X1040050Y879200D01*
X1038416Y880950D01*
X1036446Y882312D01*
X1034231Y883222D01*
X1031873Y883640D01*
X1116584Y813091D02*
X1114526Y814438D01*
X1112275Y815428D01*
X1109891Y816033D01*
X1107440Y816236D01*
X1104989Y816033D01*
X1102605Y815428D01*
X1100354Y814438D01*
X1098296Y813091D01*
X1082936Y791007D02*
X1084989Y790399D01*
X1087120Y790194D01*
X1082936Y791007D02*
X1084989Y790399D01*
X1087120Y790194D01*
X1053204Y835830D02*
X1050971Y837396D01*
X1048425Y838375D01*
X1045718Y838708D01*
X1053204Y835830D02*
X1050971Y837396D01*
X1048425Y838375D01*
X1045718Y838708D01*
X1036600Y811156D02*
X1035705Y812185D01*
X1036600Y811156D02*
X1035705Y812185D01*
X997204Y782320D02*
X997585Y779427D01*
X998701Y776732D01*
X1000477Y774417D01*
X997204Y782320D02*
X997585Y779427D01*
X998701Y776732D01*
X1000477Y774417D01*
X1202443Y709930D02*
X1202118Y712278D01*
X1201168Y714449D01*
X1199663Y716280D01*
X1136484Y666584D02*
X1134301Y668259D01*
X1131758Y669312D01*
X1129030Y669671D01*
X1136495Y666573D02*
X1134309Y668254D01*
X1131763Y669311D01*
X1129030Y669671D01*
X1149731Y648970D02*
X1149370Y651703D01*
X1148314Y654249D01*
X1146633Y656434D01*
X1149731Y648970D02*
X1149372Y651698D01*
X1148319Y654240D01*
X1146644Y656424D01*
X1128649Y643601D02*
X1127760Y643636D01*
X1128649Y643601D02*
X1127760Y643636D01*
X1193800Y510787D02*
X1196471Y511210D01*
X1198880Y512438D01*
X1200792Y514350D01*
X1202020Y516759D01*
X1202443Y519430D01*
X1193800Y510787D02*
X1196471Y511210D01*
X1198880Y512438D01*
X1200792Y514350D01*
X1202020Y516759D01*
X1202443Y519430D01*
X1185157Y569932D02*
X1182958Y571293D01*
X1180641Y572440D01*
X1178226Y573364D01*
X1175734Y574056D01*
X1173189Y574509D01*
X1170612Y574720D01*
X1168026Y574687D01*
X1165455Y574409D01*
X1162922Y573891D01*
X1160449Y573136D01*
X1158058Y572150D01*
X1155771Y570944D01*
X1153609Y569527D01*
X1151589Y567912D01*
X1149731Y566114D01*
X1142304Y547390D02*
X1142433Y544714D01*
X1142823Y542064D01*
X1143471Y539465D01*
X1144369Y536942D01*
X1145509Y534518D01*
X1146882Y532218D01*
X1148472Y530062D01*
X1150266Y528073D01*
X1134110Y543814D02*
X1136393Y544050D01*
X1138580Y544747D01*
X1140579Y545876D01*
X1142304Y547390D01*
X1117923Y669671D02*
X1115947Y671321D01*
X1113717Y672606D01*
X1111299Y673487D01*
X1108764Y673937D01*
X1106190Y673943D01*
X1103654Y673506D01*
X1101231Y672637D01*
X1098994Y671364D01*
X1097011Y669724D01*
X1095340Y667766D01*
X1116584Y609891D02*
X1114526Y611238D01*
X1112275Y612228D01*
X1109891Y612833D01*
X1107440Y613036D01*
X1104989Y612833D01*
X1102605Y612228D01*
X1100354Y611238D01*
X1098296Y609891D01*
X1082936Y587807D02*
X1084989Y587199D01*
X1087120Y586994D01*
X1082936Y587807D02*
X1084989Y587199D01*
X1087120Y586994D01*
X1042289Y669290D02*
X1042032Y671671D01*
X1041275Y673942D01*
X1040050Y676000D01*
X1038416Y677750D01*
X1036446Y679112D01*
X1034231Y680022D01*
X1031873Y680440D01*
X1042289Y669290D02*
X1042032Y671671D01*
X1041275Y673942D01*
X1040050Y676000D01*
X1038416Y677750D01*
X1036446Y679112D01*
X1034231Y680022D01*
X1031873Y680440D01*
X1053204Y632630D02*
X1050971Y634197D01*
X1048425Y635175D01*
X1045718Y635508D01*
X1053204Y632630D02*
X1050971Y634197D01*
X1048425Y635175D01*
X1045718Y635508D01*
X1036600Y607956D02*
X1035705Y608985D01*
X1036600Y607956D02*
X1035705Y608985D01*
X997204Y579120D02*
X997585Y576227D01*
X998701Y573532D01*
X1000477Y571217D01*
X997204Y579120D02*
X997585Y576227D01*
X998701Y573532D01*
X1000477Y571217D01*
X988060Y861314D02*
X986358Y860401D01*
X984865Y859175D01*
X988060Y861314D02*
X986358Y860401D01*
X984865Y859175D01*
X981055Y855365D02*
X979481Y853313D01*
X978492Y850924D01*
X978154Y848360D01*
X981055Y855365D02*
X979481Y853313D01*
X978492Y850924D01*
X978154Y848360D01*
X957580Y883666D02*
X954687Y883285D01*
X951992Y882169D01*
X949677Y880393D01*
X957580Y883666D02*
X954687Y883285D01*
X951992Y882169D01*
X949677Y880393D01*
X923986Y885190D02*
X923855Y887863D01*
X923464Y890510D01*
X922816Y893107D01*
X921917Y895628D01*
X920777Y898048D01*
X919406Y900346D01*
X917816Y902499D01*
X916024Y904487D01*
X873513Y870528D02*
X874958Y868467D01*
X876586Y866548D01*
X878383Y864786D01*
X880335Y863197D01*
X882425Y861794D01*
X884634Y860588D01*
X886945Y859591D01*
X889338Y858811D01*
X891793Y858253D01*
X894288Y857924D01*
X896803Y857825D01*
X899316Y857957D01*
X901807Y858320D01*
X904254Y858910D01*
X906636Y859723D01*
X908933Y860751D01*
X911127Y861985D01*
X913197Y863417D01*
X915128Y865032D01*
X916902Y866817D01*
X918504Y868758D01*
X919921Y870838D01*
X921141Y873040D01*
X922154Y875344D01*
X922950Y877732D01*
X923524Y880183D01*
X923870Y882676D01*
X923986Y885190D01*
X935859Y866574D02*
X933492Y866978D01*
X931091Y866996D01*
X928719Y866627D01*
X926436Y865882D01*
X924304Y864778D01*
X922377Y863346D01*
X944178Y843393D02*
X945163Y844267D01*
X942670Y841636D02*
X944178Y843393D01*
X936244Y795350D02*
X933877Y795819D01*
X931466Y795899D01*
X929073Y795588D01*
X926762Y794894D01*
X924594Y793835D01*
X922626Y792439D01*
X947420Y744474D02*
X949959Y744766D01*
X952366Y745628D01*
X954514Y747014D01*
X947420Y744474D02*
X949959Y744766D01*
X952366Y745628D01*
X954514Y747014D01*
X877216Y904487D02*
X875238Y902270D01*
X873513Y899852D01*
X916940Y863346D02*
X914047Y862965D01*
X911352Y861849D01*
X909037Y860073D01*
X916940Y863346D02*
X914047Y862965D01*
X911352Y861849D01*
X909037Y860073D01*
X901417Y852453D02*
X899855Y850492D01*
X898768Y848232D01*
X898213Y845787D01*
X898216Y843280D01*
X898144Y842010D01*
X864870Y921773D02*
X862199Y921350D01*
X859790Y920122D01*
X857878Y918210D01*
X856650Y915801D01*
X856227Y913130D01*
X864870Y921773D02*
X862199Y921350D01*
X859790Y920122D01*
X857878Y918210D01*
X856650Y915801D01*
X856227Y913130D01*
X898144Y789940D02*
X898525Y787047D01*
X899641Y784352D01*
X901417Y782037D01*
X898144Y789940D02*
X898525Y787047D01*
X899641Y784352D01*
X901417Y782037D01*
X917314Y769910D02*
X918210Y769874D01*
X917314Y769910D02*
X918210Y769874D01*
X910307Y773147D02*
X912365Y771524D01*
X914744Y770425D01*
X917314Y769910D01*
X910307Y773147D02*
X912365Y771524D01*
X914744Y770425D01*
X917314Y769910D01*
X856227Y723900D02*
X856522Y721663D01*
X857385Y719578D01*
X858758Y717788D01*
X856227Y723900D02*
X856522Y721663D01*
X857385Y719578D01*
X858758Y717788D01*
X859695Y716852D02*
X857832Y714946D01*
X856638Y712563D01*
X856227Y709930D01*
X859695Y716852D02*
X857832Y714946D01*
X856638Y712563D01*
X856227Y709930D01*
X988060Y658114D02*
X986358Y657201D01*
X984865Y655975D01*
X988060Y658114D02*
X986358Y657201D01*
X984865Y655975D01*
X981055Y652165D02*
X979481Y650113D01*
X978492Y647724D01*
X978154Y645160D01*
X981055Y652165D02*
X979481Y650113D01*
X978492Y647724D01*
X978154Y645160D01*
X957580Y680466D02*
X954687Y680085D01*
X951992Y678969D01*
X949677Y677193D01*
X957580Y680466D02*
X954687Y680085D01*
X951992Y678969D01*
X949677Y677193D01*
X923986Y681990D02*
X923855Y684663D01*
X923464Y687310D01*
X922816Y689907D01*
X921917Y692428D01*
X920777Y694848D01*
X919406Y697146D01*
X917816Y699299D01*
X916024Y701287D01*
X944178Y640193D02*
X945163Y641067D01*
X942670Y638436D02*
X944178Y640193D01*
X935859Y663374D02*
X933492Y663778D01*
X931091Y663796D01*
X928719Y663427D01*
X926436Y662682D01*
X924304Y661578D01*
X922377Y660146D01*
X873513Y667328D02*
X874958Y665267D01*
X876586Y663348D01*
X878383Y661586D01*
X880335Y659997D01*
X882425Y658594D01*
X884634Y657388D01*
X886945Y656391D01*
X889338Y655611D01*
X891793Y655053D01*
X894288Y654724D01*
X896803Y654625D01*
X899316Y654757D01*
X901807Y655120D01*
X904254Y655710D01*
X906636Y656523D01*
X908933Y657551D01*
X911127Y658785D01*
X913197Y660217D01*
X915128Y661832D01*
X916902Y663617D01*
X918504Y665558D01*
X919921Y667638D01*
X921141Y669840D01*
X922154Y672144D01*
X922950Y674532D01*
X923524Y676983D01*
X923870Y679476D01*
X923986Y681990D01*
X947420Y541274D02*
X949959Y541566D01*
X952366Y542428D01*
X954514Y543814D01*
X947420Y541274D02*
X949959Y541566D01*
X952366Y542428D01*
X954514Y543814D01*
X936244Y592150D02*
X933877Y592619D01*
X931466Y592699D01*
X929073Y592388D01*
X926762Y591694D01*
X924594Y590635D01*
X922626Y589239D01*
X916940Y660146D02*
X914047Y659765D01*
X911352Y658649D01*
X909037Y656873D01*
X916940Y660146D02*
X914047Y659765D01*
X911352Y658649D01*
X909037Y656873D01*
X901417Y649253D02*
X899855Y647292D01*
X898768Y645032D01*
X898213Y642587D01*
X898216Y640080D01*
X877216Y701287D02*
X875238Y699070D01*
X873513Y696652D01*
X898216Y640080D02*
X898144Y638810D01*
X917314Y566710D02*
X918210Y566674D01*
X917314Y566710D02*
X918210Y566674D01*
X910307Y569947D02*
X912365Y568324D01*
X914744Y567225D01*
X917314Y566710D01*
X910307Y569947D02*
X912365Y568324D01*
X914744Y567225D01*
X917314Y566710D01*
X898144Y586740D02*
X898525Y583847D01*
X899641Y581152D01*
X901417Y578837D01*
X898144Y586740D02*
X898525Y583847D01*
X899641Y581152D01*
X901417Y578837D01*
X860029Y513318D02*
X861818Y511945D01*
X863903Y511082D01*
X866140Y510787D01*
X860029Y513318D02*
X861818Y511945D01*
X863903Y511082D01*
X866140Y510787D01*
X856227Y520700D02*
X856522Y518463D01*
X857385Y516379D01*
X858758Y514589D01*
X856227Y520700D02*
X856522Y518463D01*
X857385Y516379D01*
X858758Y514589D01*
X1200912Y918041D02*
Y939800D01*
X1200601Y918464D02*
X1216660D01*
X1198880Y920123D02*
Y939800D01*
X1201787Y916432D02*
X1216660D01*
X1202349Y914400D02*
X1216660D01*
X1198321Y920496D02*
X1216660D01*
X1196848Y921218D02*
Y939800D01*
X1202443Y912368D02*
X1216660D01*
X1202443Y910336D02*
X1216660D01*
X1202443Y908304D02*
X1216660D01*
X1202443Y906272D02*
X1216660D01*
X1202443Y904240D02*
X1216660D01*
X1202443Y902208D02*
X1216660D01*
X1202443Y900176D02*
X1216660D01*
X1202443Y898144D02*
X1216660D01*
X1202443Y896112D02*
X1216660D01*
X1194816Y921713D02*
Y939800D01*
X1192784Y921773D02*
Y939800D01*
X1190752Y921773D02*
Y939800D01*
X1188720Y921773D02*
Y939800D01*
X1186688Y921773D02*
Y939800D01*
X1184656Y921773D02*
Y939800D01*
X1182624Y921773D02*
Y939800D01*
X1180592Y921773D02*
Y939800D01*
X1178560Y921773D02*
Y939800D01*
X1176528Y921773D02*
Y939800D01*
X1174496Y921773D02*
Y939800D01*
X1172464Y921773D02*
Y939800D01*
X1170432Y921773D02*
Y939800D01*
X1168400Y921773D02*
Y939800D01*
X1166368Y921773D02*
Y939800D01*
X1164336Y921773D02*
Y939800D01*
X1162304Y921773D02*
Y939800D01*
X1202443Y894080D02*
X1216660D01*
X1202443Y892048D02*
X1216660D01*
X1202443Y890016D02*
X1216660D01*
X1202443Y887984D02*
X1216660D01*
X1202443Y885952D02*
X1216660D01*
X1202443Y883920D02*
X1216660D01*
X1202443Y881888D02*
X1216660D01*
X1202443Y879856D02*
X1216660D01*
X1202443Y877824D02*
X1216660D01*
X1202443Y875792D02*
X1216660D01*
X1202443Y873760D02*
X1216660D01*
X1202443Y871728D02*
X1216660D01*
X1202443Y869696D02*
X1216660D01*
X1202443Y867664D02*
X1216660D01*
X1202443Y865632D02*
X1216660D01*
X1202443Y863600D02*
X1216660D01*
X1202443Y861568D02*
X1216660D01*
X1202443Y859536D02*
X1216660D01*
X1185157Y773132D02*
Y904487D01*
X1182624Y774676D02*
Y904487D01*
X1180592Y775662D02*
Y904487D01*
X1202443Y722630D02*
Y913130D01*
X1184656Y773468D02*
Y904487D01*
X1176528Y777063D02*
Y904487D01*
X1172464Y777793D02*
Y904487D01*
X1178560Y776452D02*
Y904487D01*
X1174496Y777507D02*
Y904487D01*
X1202443Y857504D02*
X1216660D01*
X1202443Y855472D02*
X1216660D01*
X1202443Y853440D02*
X1216660D01*
X1170432Y777925D02*
Y904487D01*
X1168400Y777906D02*
Y904487D01*
X1166368Y777736D02*
Y904487D01*
X1164336Y777411D02*
Y904487D01*
X1162304Y776926D02*
Y904487D01*
X1031873D02*
X1185157D01*
X1031873Y904240D02*
X1185157D01*
X1160272Y921773D02*
Y939800D01*
X1031873Y902208D02*
X1185157D01*
X1031873Y900176D02*
X1185157D01*
X1031873Y898144D02*
X1185157D01*
X1031873Y896112D02*
X1185157D01*
X1031873Y894080D02*
X1185157D01*
X1031873Y892048D02*
X1185157D01*
X1037161Y881888D02*
X1185157D01*
X1039518Y879856D02*
X1185157D01*
X1040934Y877824D02*
X1185157D01*
X1113747Y875792D02*
X1185157D01*
X1116945Y873760D02*
X1185157D01*
X1031873Y890016D02*
X1185157D01*
X1031873Y887984D02*
X1185157D01*
X1031873Y885952D02*
X1185157D01*
X1031873Y883920D02*
X1185157D01*
X1158240Y921773D02*
Y939800D01*
X1156208Y921773D02*
Y939800D01*
X1154176Y921773D02*
Y939800D01*
X1152144Y921773D02*
Y939800D01*
X1150112Y921773D02*
Y939800D01*
X1148080Y921773D02*
Y939800D01*
X1146048Y921773D02*
Y939800D01*
X1144016Y921773D02*
Y939800D01*
X1141984Y921773D02*
Y939800D01*
X1139952Y921773D02*
Y939800D01*
X1137920Y921773D02*
Y939800D01*
X1135888Y921773D02*
Y939800D01*
X1133856Y921773D02*
Y939800D01*
X1131824Y921773D02*
Y939800D01*
X1129792Y921773D02*
Y939800D01*
X1131824Y872494D02*
Y904487D01*
X1127760Y921773D02*
Y939800D01*
X1160272Y776272D02*
Y904487D01*
X1158240Y775435D02*
Y904487D01*
X1156208Y774396D02*
Y904487D01*
X1154176Y773127D02*
Y904487D01*
X1152144Y771588D02*
Y904487D01*
X1133804Y871728D02*
X1185157D01*
X1136571Y869696D02*
X1185157D01*
X1138603Y867664D02*
X1185157D01*
X1150112Y769711D02*
Y904487D01*
X1146730Y859536D02*
X1185157D01*
X1148282Y857504D02*
X1185157D01*
X1149201Y855472D02*
X1185157D01*
X1149654Y853440D02*
X1185157D01*
X1140635Y865632D02*
X1185157D01*
X1142667Y863600D02*
X1185157D01*
X1144699Y861568D02*
X1185157D01*
X1144016Y862251D02*
Y904487D01*
X1141984Y864283D02*
Y904487D01*
X1139952Y866315D02*
Y904487D01*
X1148080Y857834D02*
Y904487D01*
X1146048Y860219D02*
Y904487D01*
X1133856Y871701D02*
Y904487D01*
X1129792Y872843D02*
Y904487D01*
X1137920Y868347D02*
Y904487D01*
X1135888Y870335D02*
Y904487D01*
X1136495Y869773D02*
X1146633Y859634D01*
X1149731Y769314D02*
Y852170D01*
X1117923Y872871D02*
X1129030D01*
X1127760D02*
Y904487D01*
X1124664Y851789D02*
X1128649Y847804D01*
X1202443Y851408D02*
X1216660D01*
X1202443Y849376D02*
X1216660D01*
X1202443Y847344D02*
X1216660D01*
X1202443Y845312D02*
X1216660D01*
X1202443Y843280D02*
X1216660D01*
X1202443Y841248D02*
X1216660D01*
X1202443Y839216D02*
X1216660D01*
X1202443Y837184D02*
X1216660D01*
X1202443Y835152D02*
X1216660D01*
X1202443Y833120D02*
X1216660D01*
X1202443Y831088D02*
X1216660D01*
X1202443Y829056D02*
X1216660D01*
X1202443Y827024D02*
X1216660D01*
X1202443Y824992D02*
X1216660D01*
X1202443Y822960D02*
X1216660D01*
X1202443Y820928D02*
X1216660D01*
X1202443Y818896D02*
X1216660D01*
X1202443Y816864D02*
X1216660D01*
X1202443Y814832D02*
X1216660D01*
X1202443Y812800D02*
X1216660D01*
X1202443Y810768D02*
X1216660D01*
X1202443Y808736D02*
X1216660D01*
X1202443Y806704D02*
X1216660D01*
X1202443Y804672D02*
X1216660D01*
X1202443Y802640D02*
X1216660D01*
X1202443Y800608D02*
X1216660D01*
X1202443Y798576D02*
X1216660D01*
X1202443Y796544D02*
X1216660D01*
X1202443Y794512D02*
X1216660D01*
X1202443Y792480D02*
X1216660D01*
X1202443Y790448D02*
X1216660D01*
X1202443Y788416D02*
X1216660D01*
X1202443Y786384D02*
X1216660D01*
X1202443Y784352D02*
X1216660D01*
X1202443Y782320D02*
X1216660D01*
X1202443Y780288D02*
X1216660D01*
X1202443Y778256D02*
X1216660D01*
X1202443Y776224D02*
X1216660D01*
X1202443Y774192D02*
X1216660D01*
X1202443Y772160D02*
X1216660D01*
X1202443Y770128D02*
X1216660D01*
X1202443Y768096D02*
X1216660D01*
X1202443Y766064D02*
X1216660D01*
X1202443Y764032D02*
X1216660D01*
X1202443Y762000D02*
X1216660D01*
X1202443Y759968D02*
X1216660D01*
X1202443Y757936D02*
X1216660D01*
X1202443Y755904D02*
X1216660D01*
X1202443Y753872D02*
X1216660D01*
X1202443Y751840D02*
X1216660D01*
X1202443Y749808D02*
X1216660D01*
X1202443Y747776D02*
X1216660D01*
X1202443Y745744D02*
X1216660D01*
X1202443Y743712D02*
X1216660D01*
X1202443Y741680D02*
X1216660D01*
X1202443Y739648D02*
X1216660D01*
X1202443Y737616D02*
X1216660D01*
X1202443Y735584D02*
X1216660D01*
X1202443Y733552D02*
X1216660D01*
X1202443Y731520D02*
X1216660D01*
X1202443Y729488D02*
X1216660D01*
X1202443Y727456D02*
X1216660D01*
X1202443Y725424D02*
X1216660D01*
X1202443Y723392D02*
X1216660D01*
X1202349Y721360D02*
X1216660D01*
X1201787Y719328D02*
X1216660D01*
X1200912Y714841D02*
Y717719D01*
X1201787Y713232D02*
X1216660D01*
X1202349Y711200D02*
X1216660D01*
X1149731Y851408D02*
X1185157D01*
X1149731Y849376D02*
X1185157D01*
X1149731Y847344D02*
X1185157D01*
X1149731Y845312D02*
X1185157D01*
X1149731Y843280D02*
X1185157D01*
X1149731Y841248D02*
X1185157D01*
X1149731Y839216D02*
X1185157D01*
X1149731Y837184D02*
X1185157D01*
X1149731Y835152D02*
X1185157D01*
X1149731Y833120D02*
X1185157D01*
X1149731Y831088D02*
X1185157D01*
X1149731Y829056D02*
X1185157D01*
X1149731Y827024D02*
X1185157D01*
X1149731Y824992D02*
X1185157D01*
X1149731Y822960D02*
X1185157D01*
X1149731Y820928D02*
X1185157D01*
X1149731Y818896D02*
X1185157D01*
X1149731Y816864D02*
X1185157D01*
X1128649Y846801D02*
Y847804D01*
X1149731Y814832D02*
X1185157D01*
X1127760Y846836D02*
Y848693D01*
X1149731Y812800D02*
X1185157D01*
X1149731Y810768D02*
X1185157D01*
X1122306Y847344D02*
X1128649D01*
X1122306Y846836D02*
X1127760D01*
X1149731Y808736D02*
X1185157D01*
X1149731Y806704D02*
X1185157D01*
X1149731Y804672D02*
X1185157D01*
X1149731Y802640D02*
X1185157D01*
X1149731Y800608D02*
X1185157D01*
X1149731Y798576D02*
X1185157D01*
X1149731Y796544D02*
X1185157D01*
X1149731Y794512D02*
X1185157D01*
X1149731Y792480D02*
X1185157D01*
X1149731Y790448D02*
X1185157D01*
X1149731Y788416D02*
X1185157D01*
X1149731Y786384D02*
X1185157D01*
X1149731Y784352D02*
X1185157D01*
X1149731Y782320D02*
X1185157D01*
X1149731Y780288D02*
X1185157D01*
X1149731Y778256D02*
X1185157D01*
X1200601Y717296D02*
X1216660D01*
X1200601Y715264D02*
X1216660D01*
X1179197Y776224D02*
X1185157D01*
X1149731D02*
X1160143D01*
X1183487Y774192D02*
X1185157D01*
X1149731D02*
X1155853D01*
X1149731Y772160D02*
X1152854D01*
X1149731Y770128D02*
X1150529D01*
X1141984Y731273D02*
Y750259D01*
X1138166Y747776D02*
X1142447D01*
X1141502Y749808D02*
X1142315D01*
X1139952Y731273D02*
Y748662D01*
X1148080Y731273D02*
Y733754D01*
X1146048Y731273D02*
Y736753D01*
X1144016Y731273D02*
Y741043D01*
X1137920Y731273D02*
Y747683D01*
X1135888Y731273D02*
Y747156D01*
X1133856Y731273D02*
Y747014D01*
X1131824Y731273D02*
Y747014D01*
X1129792Y731273D02*
Y747014D01*
X1125728Y921773D02*
Y939800D01*
X1123696Y921773D02*
Y939800D01*
X1121664Y921773D02*
Y939800D01*
X1119632Y921773D02*
Y939800D01*
X1117600Y921773D02*
Y939800D01*
X1115568Y921773D02*
Y939800D01*
X1113536Y921773D02*
Y939800D01*
X1111504Y921773D02*
Y939800D01*
X1109472Y921773D02*
Y939800D01*
X1107440Y921773D02*
Y939800D01*
X1109472Y877057D02*
Y904487D01*
X1105408Y921773D02*
Y939800D01*
X1107440Y877196D02*
Y904487D01*
X1105408Y877057D02*
Y904487D01*
X1103376Y921773D02*
Y939800D01*
X1101344Y921773D02*
Y939800D01*
X1099312Y921773D02*
Y939800D01*
X1097280Y921773D02*
Y939800D01*
X1095248Y921773D02*
Y939800D01*
X1093216Y921773D02*
Y939800D01*
X1091184Y921773D02*
Y939800D01*
X1089152Y921773D02*
Y939800D01*
X1087120Y921773D02*
Y939800D01*
X1085088Y921773D02*
Y939800D01*
X1083056Y921773D02*
Y939800D01*
X1081024Y921773D02*
Y939800D01*
X1078992Y921773D02*
Y939800D01*
X1076960Y921773D02*
Y939800D01*
X1074928Y921773D02*
Y939800D01*
X1072896Y921773D02*
Y939800D01*
X1070864Y921773D02*
Y939800D01*
X1068832Y921773D02*
Y939800D01*
X1066800Y921773D02*
Y939800D01*
X1064768Y921773D02*
Y939800D01*
X1062736Y921773D02*
Y939800D01*
X1125728Y872871D02*
Y904487D01*
X1123696Y872871D02*
Y904487D01*
X1117600Y873182D02*
Y904487D01*
X1121664Y872871D02*
Y904487D01*
X1119632Y872871D02*
Y904487D01*
X1111504Y876630D02*
Y904487D01*
X1103376Y876630D02*
Y904487D01*
X1115568Y874777D02*
Y904487D01*
X1113536Y875889D02*
Y904487D01*
X1122306Y851789D02*
X1124664D01*
X1117923D02*
X1122306D01*
X1101344Y875889D02*
Y904487D01*
X1123696Y846836D02*
Y851789D01*
X1122306Y846836D02*
Y851789D01*
X1099312Y874777D02*
Y904487D01*
X1097280Y873182D02*
Y904487D01*
X1095248Y870966D02*
Y904487D01*
X1093216Y870966D02*
Y904487D01*
X1091184Y870966D02*
Y904487D01*
X1089152Y870966D02*
Y904487D01*
X1087120Y870966D02*
Y904487D01*
X1085088Y870966D02*
Y904487D01*
X1083056Y870966D02*
Y904487D01*
X1081024Y871116D02*
Y904487D01*
X1078992Y871116D02*
Y904487D01*
X1076960Y871116D02*
Y904487D01*
X1087120Y870966D02*
X1095340D01*
X1082936D02*
X1087120D01*
X1074928Y871116D02*
Y904487D01*
X1072896Y871116D02*
Y904487D01*
X1070864Y871116D02*
Y904487D01*
X1068832Y871116D02*
Y904487D01*
X1066800Y871116D02*
Y904487D01*
X1064768Y871116D02*
Y904487D01*
X1060704Y921773D02*
Y939800D01*
X1058672Y921773D02*
Y939800D01*
X1056640Y921773D02*
Y939800D01*
X1054608Y921773D02*
Y939800D01*
X1052576Y921773D02*
Y939800D01*
X1050544Y921773D02*
Y939800D01*
X1048512Y921773D02*
Y939800D01*
X1046480Y921773D02*
Y939800D01*
X1044448Y921773D02*
Y939800D01*
X1042416Y921773D02*
Y939800D01*
X1040384Y921773D02*
Y939800D01*
X1038352Y921773D02*
Y939800D01*
X1036320Y921773D02*
Y939800D01*
X1034288Y921773D02*
Y939800D01*
X1032256Y921773D02*
Y939800D01*
X1030224Y921773D02*
Y939800D01*
X1034288Y883205D02*
Y904487D01*
X1028192Y921773D02*
Y939800D01*
X1026160Y921773D02*
Y939800D01*
X1024128Y921773D02*
Y939800D01*
X1022096Y921773D02*
Y939800D01*
X1020064Y921773D02*
Y939800D01*
X1018032Y921773D02*
Y939800D01*
X1016000Y921773D02*
Y939800D01*
X1013968Y921773D02*
Y939800D01*
X1011936Y921773D02*
Y939800D01*
X1009904Y921773D02*
Y939800D01*
X1007872Y921773D02*
Y939800D01*
X1005840Y921773D02*
Y939800D01*
X1003808Y921773D02*
Y939800D01*
X1001776Y921773D02*
Y939800D01*
X999744Y921773D02*
Y939800D01*
X997712Y921773D02*
Y939800D01*
X995680Y921773D02*
Y939800D01*
X993648Y921773D02*
Y939800D01*
X1062736Y871116D02*
Y904487D01*
X1060704Y871116D02*
Y904487D01*
X1058672Y871116D02*
Y904487D01*
X1056640Y871116D02*
Y904487D01*
X1054608Y871116D02*
Y904487D01*
X1041790Y875792D02*
X1101133D01*
X1042217Y873760D02*
X1097935D01*
X1042289Y871728D02*
X1095921D01*
X1053204Y871116D02*
X1082936D01*
X1042289Y869696D02*
X1053204D01*
X1042289Y867664D02*
X1053204D01*
X1042289Y865632D02*
X1053204D01*
X1042289Y863600D02*
X1053204D01*
X1042289Y861568D02*
X1053204D01*
X1042289Y859536D02*
X1053204D01*
X1042289Y857504D02*
X1053204D01*
X1042289Y855472D02*
X1053204D01*
X1048512Y838353D02*
Y904487D01*
X1046480Y838682D02*
Y904487D01*
X1044448Y845295D02*
Y904487D01*
X1052576Y836356D02*
Y904487D01*
X1050544Y837612D02*
Y904487D01*
X1038352Y881005D02*
Y904487D01*
X1036320Y882379D02*
Y904487D01*
X1042416Y845295D02*
Y904487D01*
X1040384Y878731D02*
Y904487D01*
X1042289Y853440D02*
X1053204D01*
Y852116D02*
Y871116D01*
Y843384D02*
Y852116D01*
X1042289Y845295D02*
Y872490D01*
X1032256Y883607D02*
Y904487D01*
X1031873Y883640D02*
Y904487D01*
X1125728Y846836D02*
Y850725D01*
X1122306Y849376D02*
X1127077D01*
X1122306Y851408D02*
X1125045D01*
X1116584Y813091D02*
Y822064D01*
X1115568Y813817D02*
Y822064D01*
X1098296D02*
X1116584D01*
X1109472Y816096D02*
Y822064D01*
X1113536Y814929D02*
Y822064D01*
X1111504Y815670D02*
Y822064D01*
X1107440Y816236D02*
Y822064D01*
X1105408Y816096D02*
Y822064D01*
X1103376Y815670D02*
Y822064D01*
X1127760Y731273D02*
Y747014D01*
X1113747Y814832D02*
X1116584D01*
X1098296Y820928D02*
X1116584D01*
X1098296Y818896D02*
X1116584D01*
X1098296Y816864D02*
X1116584D01*
X1101344Y814929D02*
Y822064D01*
X1098296Y814832D02*
X1101133D01*
X1099312Y813817D02*
Y822064D01*
X1098296Y813091D02*
Y822064D01*
X1082936Y790448D02*
X1084751D01*
X1082936Y787146D02*
Y791007D01*
X1083056Y787146D02*
Y790959D01*
X1087120Y790194D02*
X1092574D01*
Y787146D02*
Y790194D01*
X1091184Y787146D02*
Y790194D01*
X1089152Y787146D02*
Y790194D01*
X1082936Y788416D02*
X1092574D01*
X1087120Y787146D02*
Y790194D01*
X1082936Y787146D02*
X1092574D01*
X1085088D02*
Y790380D01*
X1125728Y731273D02*
Y747014D01*
X1123696Y731273D02*
Y747014D01*
X1121664Y731273D02*
Y747014D01*
X1119632Y731273D02*
Y747014D01*
X1117600Y731273D02*
Y747014D01*
X1115568Y731273D02*
Y747014D01*
X1113536Y731273D02*
Y747014D01*
X1111504Y731273D02*
Y747014D01*
X1109472Y731273D02*
Y747014D01*
X1107440Y731273D02*
Y747014D01*
X1105408Y731273D02*
Y747014D01*
X1103376Y731273D02*
Y747014D01*
X1101344Y731273D02*
Y747014D01*
X1099312Y731273D02*
Y747014D01*
X1097280Y731273D02*
Y747014D01*
X1095248Y731273D02*
Y747014D01*
X1093216Y731273D02*
Y747014D01*
X1091184Y731273D02*
Y747014D01*
X1089152Y731273D02*
Y747014D01*
X1087120Y731273D02*
Y747014D01*
X1085088Y731273D02*
Y747014D01*
X1083056Y731273D02*
Y747014D01*
X1081024Y731273D02*
Y747014D01*
X1078992Y731273D02*
Y747014D01*
X1076960Y731273D02*
Y747014D01*
X1074928Y731273D02*
Y747014D01*
X1072896Y731273D02*
Y747014D01*
X1070864Y731273D02*
Y747014D01*
X1068832Y731273D02*
Y747014D01*
X1066800Y731273D02*
Y747014D01*
X1064768Y731273D02*
Y747014D01*
X1062736Y731273D02*
Y747014D01*
X1060704Y731273D02*
Y747014D01*
X1058672Y731273D02*
Y747014D01*
X1053204Y843384D02*
Y852116D01*
X1042289Y851408D02*
X1053204D01*
X1044479Y843280D02*
X1053204D01*
Y835830D02*
Y843384D01*
X1044479Y838708D02*
Y845295D01*
X1042289Y849376D02*
X1053204D01*
X1042289Y847344D02*
X1053204D01*
X1042289Y845312D02*
X1053204D01*
X1042289Y845295D02*
X1044479D01*
Y841248D02*
X1053204D01*
X1044479Y839216D02*
X1053204D01*
X1051352Y837184D02*
X1053204D01*
X1044479Y838708D02*
X1045718D01*
X1035326Y812563D02*
X1037844D01*
Y811156D02*
Y812563D01*
X1036600Y811156D02*
X1037844D01*
X1036320Y811510D02*
Y812563D01*
X1036600Y811156D02*
X1037844D01*
X995426Y812563D02*
X997204D01*
X995426Y812426D02*
X997204D01*
X995426D02*
X997204D01*
X995426Y812563D02*
X997204D01*
X991924Y782694D02*
X997204D01*
X1003808Y769366D02*
Y771087D01*
X1001776Y769366D02*
Y773119D01*
X1000477Y774417D02*
X1005529Y769366D01*
X999744D02*
Y775226D01*
X991924Y782694D02*
X997204D01*
X997712Y769366D02*
Y778989D01*
X1056640Y731273D02*
Y747014D01*
X1054608Y731273D02*
Y747014D01*
X1052576Y731273D02*
Y747014D01*
X1050544Y731273D02*
Y747014D01*
X1048512Y731273D02*
Y747014D01*
X1046480Y731273D02*
Y747014D01*
X1044448Y731273D02*
Y747014D01*
X1042416Y731273D02*
Y747014D01*
X1040384Y731273D02*
Y747014D01*
X1038352Y731273D02*
Y747014D01*
X1036320Y731273D02*
Y747014D01*
X1034288Y731273D02*
Y747014D01*
X1032256Y731273D02*
Y747014D01*
X1030224Y731273D02*
Y747014D01*
X1028192Y731273D02*
Y747014D01*
X1026160Y731273D02*
Y747014D01*
X1024128Y731273D02*
Y747014D01*
X1022096Y731273D02*
Y747014D01*
X1020064Y731273D02*
Y747014D01*
X1018032Y731273D02*
Y747014D01*
X1016000Y731273D02*
Y747014D01*
X1013968Y731273D02*
Y747014D01*
X995680Y769366D02*
Y782694D01*
X993648Y769366D02*
Y782694D01*
X1011936Y731273D02*
Y747014D01*
X1009904Y731273D02*
Y747014D01*
X1007872Y731273D02*
Y747014D01*
X1005840Y731273D02*
Y747014D01*
X1003808Y731273D02*
Y747014D01*
X1001776Y731273D02*
Y747014D01*
X999744Y731273D02*
Y747014D01*
X997712Y731273D02*
Y747014D01*
X995680Y731273D02*
Y747014D01*
X993648Y731273D02*
Y747014D01*
X1202443Y709168D02*
X1216660D01*
X1202443Y707136D02*
X1216660D01*
X1202443Y705104D02*
X1216660D01*
X1202443Y703072D02*
X1216660D01*
X1202443Y701040D02*
X1216660D01*
X1202443Y699008D02*
X1216660D01*
X1202443Y696976D02*
X1216660D01*
X1202443Y694944D02*
X1216660D01*
X1202443Y692912D02*
X1216660D01*
X1202443Y690880D02*
X1216660D01*
X1202443Y688848D02*
X1216660D01*
X1202443Y686816D02*
X1216660D01*
X1202443Y684784D02*
X1216660D01*
X1202443Y682752D02*
X1216660D01*
X1202443Y680720D02*
X1216660D01*
X1202443Y678688D02*
X1216660D01*
X1202443Y676656D02*
X1216660D01*
X1202443Y674624D02*
X1216660D01*
X1202443Y672592D02*
X1216660D01*
X1202443Y670560D02*
X1216660D01*
X1202443Y668528D02*
X1216660D01*
X1202443Y666496D02*
X1216660D01*
X1202443Y664464D02*
X1216660D01*
X1202443Y662432D02*
X1216660D01*
X1202443Y660400D02*
X1216660D01*
X1202443Y658368D02*
X1216660D01*
X1202443Y656336D02*
X1216660D01*
X1202443Y654304D02*
X1216660D01*
X1202443Y652272D02*
X1216660D01*
X1202443Y650240D02*
X1216660D01*
X1202443Y648208D02*
X1216660D01*
X1202443Y646176D02*
X1216660D01*
X1202443Y644144D02*
X1216660D01*
X1202443Y642112D02*
X1216660D01*
Y482600D02*
Y939800D01*
X1215136Y482600D02*
Y939800D01*
X1213104Y482600D02*
Y939800D01*
X1211072Y482600D02*
Y939800D01*
X1209040Y482600D02*
Y939800D01*
X1202443Y640080D02*
X1216660D01*
X1207008Y482600D02*
Y939800D01*
X1204976Y482600D02*
Y939800D01*
X1202944Y482600D02*
Y939800D01*
X1202443Y638048D02*
X1216660D01*
X1202443Y636016D02*
X1216660D01*
X1202443Y633984D02*
X1216660D01*
X1202443Y631952D02*
X1216660D01*
X1202443Y629920D02*
X1216660D01*
X1202443Y627888D02*
X1216660D01*
X1202443Y625856D02*
X1216660D01*
X1202443Y623824D02*
X1216660D01*
X1202443Y621792D02*
X1216660D01*
X1184656Y570268D02*
Y701287D01*
X1182624Y571476D02*
Y701287D01*
X1180592Y572462D02*
Y701287D01*
X1202443Y519430D02*
Y709930D01*
X1185157Y569932D02*
Y701287D01*
X1176528Y573863D02*
Y701287D01*
X1174496Y574307D02*
Y701287D01*
X1178560Y573252D02*
Y701287D01*
X1172464Y574593D02*
Y701287D01*
X1170432Y574725D02*
Y701287D01*
X1168400Y574706D02*
Y701287D01*
X1166368Y574536D02*
Y701287D01*
X1164336Y574211D02*
Y701287D01*
X1162304Y573726D02*
Y701287D01*
X1160272Y573072D02*
Y701287D01*
X1158240Y572235D02*
Y701287D01*
X1156208Y571196D02*
Y701287D01*
X1031873D02*
X1185157D01*
X1031873Y701040D02*
X1185157D01*
X1031873Y699008D02*
X1185157D01*
X1031873Y696976D02*
X1185157D01*
X1031873Y694944D02*
X1185157D01*
X1031873Y692912D02*
X1185157D01*
X1031873Y690880D02*
X1185157D01*
X1031873Y688848D02*
X1185157D01*
X1031873Y686816D02*
X1185157D01*
X1039518Y676656D02*
X1185157D01*
X1040934Y674624D02*
X1185157D01*
X1113747Y672592D02*
X1185157D01*
X1116945Y670560D02*
X1185157D01*
X1133804Y668528D02*
X1185157D01*
X1031873Y684784D02*
X1185157D01*
X1031873Y682752D02*
X1185157D01*
X1031873Y680720D02*
X1185157D01*
X1037161Y678688D02*
X1185157D01*
X1139952Y663115D02*
Y701287D01*
X1137920Y665147D02*
Y701287D01*
X1135888Y667135D02*
Y701287D01*
X1144016Y659051D02*
Y701287D01*
X1141984Y661083D02*
Y701287D01*
X1131824Y669294D02*
Y701287D01*
X1129792Y669643D02*
Y701287D01*
X1133856Y668501D02*
Y701287D01*
X1127760Y669671D02*
Y701287D01*
X1138603Y664464D02*
X1185157D01*
X1140635Y662432D02*
X1185157D01*
X1142667Y660400D02*
X1185157D01*
X1144699Y658368D02*
X1185157D01*
X1136571Y666496D02*
X1185157D01*
X1117923Y669671D02*
X1129030D01*
X1149201Y652272D02*
X1185157D01*
X1149654Y650240D02*
X1185157D01*
X1149731Y648208D02*
X1185157D01*
X1149731Y646176D02*
X1185157D01*
X1149731Y644144D02*
X1185157D01*
X1146730Y656336D02*
X1185157D01*
X1148282Y654304D02*
X1185157D01*
X1149731Y642112D02*
X1185157D01*
X1149731Y640080D02*
X1185157D01*
X1149731Y638048D02*
X1185157D01*
X1149731Y636016D02*
X1185157D01*
X1149731Y633984D02*
X1185157D01*
X1149731Y631952D02*
X1185157D01*
X1149731Y629920D02*
X1185157D01*
X1149731Y627888D02*
X1185157D01*
X1149731Y625856D02*
X1185157D01*
X1149731Y623824D02*
X1185157D01*
X1154176Y569927D02*
Y701287D01*
X1152144Y568388D02*
Y701287D01*
X1148080Y654634D02*
Y701287D01*
X1150112Y566511D02*
Y701287D01*
X1149731Y566114D02*
Y648970D01*
X1136495Y666573D02*
X1146633Y656434D01*
X1146048Y657019D02*
Y701287D01*
X1128649Y643601D02*
Y644604D01*
X1127760Y643636D02*
Y645493D01*
X1149731Y621792D02*
X1185157D01*
X1124664Y648589D02*
X1128649Y644604D01*
X1122306Y644144D02*
X1128649D01*
X1122306Y643636D02*
X1127760D01*
X1202443Y619760D02*
X1216660D01*
X1202443Y617728D02*
X1216660D01*
X1202443Y615696D02*
X1216660D01*
X1202443Y613664D02*
X1216660D01*
X1202443Y611632D02*
X1216660D01*
X1202443Y609600D02*
X1216660D01*
X1202443Y607568D02*
X1216660D01*
X1202443Y605536D02*
X1216660D01*
X1202443Y603504D02*
X1216660D01*
X1202443Y601472D02*
X1216660D01*
X1202443Y599440D02*
X1216660D01*
X1202443Y597408D02*
X1216660D01*
X1202443Y595376D02*
X1216660D01*
X1202443Y593344D02*
X1216660D01*
X1202443Y591312D02*
X1216660D01*
X1202443Y589280D02*
X1216660D01*
X1202443Y587248D02*
X1216660D01*
X1202443Y585216D02*
X1216660D01*
X1202443Y583184D02*
X1216660D01*
X1202443Y581152D02*
X1216660D01*
X1202443Y579120D02*
X1216660D01*
X1202443Y577088D02*
X1216660D01*
X1202443Y575056D02*
X1216660D01*
X1202443Y573024D02*
X1216660D01*
X1179197D02*
X1185157D01*
X1202443Y570992D02*
X1216660D01*
X1183487D02*
X1185157D01*
X1202443Y568960D02*
X1216660D01*
X1202443Y566928D02*
X1216660D01*
X1202443Y564896D02*
X1216660D01*
X1202443Y562864D02*
X1216660D01*
X1202443Y560832D02*
X1216660D01*
X1202443Y558800D02*
X1216660D01*
X1202443Y556768D02*
X1216660D01*
X1202443Y554736D02*
X1216660D01*
X1202443Y552704D02*
X1216660D01*
X1202443Y550672D02*
X1216660D01*
X1202443Y548640D02*
X1216660D01*
X1202443Y546608D02*
X1216660D01*
X1202443Y544576D02*
X1216660D01*
X1202443Y542544D02*
X1216660D01*
X1202443Y540512D02*
X1216660D01*
X1202443Y538480D02*
X1216660D01*
X1202443Y536448D02*
X1216660D01*
X1202443Y534416D02*
X1216660D01*
X1202443Y532384D02*
X1216660D01*
X1202443Y530352D02*
X1216660D01*
X1202443Y528320D02*
X1216660D01*
X1202443Y526288D02*
X1216660D01*
X1202443Y524256D02*
X1216660D01*
X1202443Y522224D02*
X1216660D01*
X1202443Y520192D02*
X1216660D01*
X1202349Y518160D02*
X1216660D01*
X1201787Y516128D02*
X1216660D01*
X1200601Y514096D02*
X1216660D01*
X1200912Y482600D02*
Y514519D01*
X1198880Y482600D02*
Y512438D01*
X1198321Y512064D02*
X1216660D01*
X1196848Y482600D02*
Y511342D01*
X1194816Y482600D02*
Y510847D01*
X1192784Y482600D02*
Y510787D01*
X1190752Y482600D02*
Y510787D01*
X1188720Y482600D02*
Y510787D01*
X1186688Y482600D02*
Y510787D01*
X1184656Y482600D02*
Y510787D01*
X1182624Y482600D02*
Y510787D01*
X1180592Y482600D02*
Y510787D01*
X1149731Y619760D02*
X1185157D01*
X1149731Y617728D02*
X1185157D01*
X1149731Y615696D02*
X1185157D01*
X1149731Y613664D02*
X1185157D01*
X1149731Y611632D02*
X1185157D01*
X1149731Y609600D02*
X1185157D01*
X1149731Y607568D02*
X1185157D01*
X1149731Y605536D02*
X1185157D01*
X1149731Y603504D02*
X1185157D01*
X1149731Y601472D02*
X1185157D01*
X1149731Y599440D02*
X1185157D01*
X1149731Y597408D02*
X1185157D01*
X1149731Y595376D02*
X1185157D01*
X1149731Y593344D02*
X1185157D01*
X1149731Y591312D02*
X1185157D01*
X1149731Y589280D02*
X1185157D01*
X1149731Y587248D02*
X1185157D01*
X1149731Y585216D02*
X1185157D01*
X1149731Y583184D02*
X1185157D01*
X1149731Y581152D02*
X1185157D01*
X1149731Y579120D02*
X1185157D01*
X1149731Y577088D02*
X1185157D01*
X1149731Y575056D02*
X1185157D01*
X1149731Y573024D02*
X1160143D01*
X1149731Y570992D02*
X1155853D01*
X1149731Y568960D02*
X1152854D01*
X1149731Y566928D02*
X1150529D01*
X1148080Y528073D02*
Y530554D01*
X1146048Y528073D02*
Y533553D01*
X1144016Y528073D02*
Y537843D01*
X1138166Y544576D02*
X1142447D01*
X1141502Y546608D02*
X1142315D01*
X1178560Y482600D02*
Y510787D01*
X1176528Y482600D02*
Y510787D01*
X1174496Y482600D02*
Y510787D01*
X1172464Y482600D02*
Y510787D01*
X1170432Y482600D02*
Y510787D01*
X1168400Y482600D02*
Y510787D01*
X1166368Y482600D02*
Y510787D01*
X1164336Y482600D02*
Y510787D01*
X1162304Y482600D02*
Y510787D01*
X1160272Y482600D02*
Y510787D01*
X1158240Y482600D02*
Y510787D01*
X1156208Y482600D02*
Y510787D01*
X1154176Y482600D02*
Y510787D01*
X1152144Y482600D02*
Y510787D01*
X1150112Y482600D02*
Y510787D01*
X1148080Y482600D02*
Y510787D01*
X1146048Y482600D02*
Y510787D01*
X1141984Y528073D02*
Y547059D01*
X1139952Y528073D02*
Y545462D01*
X1137920Y528073D02*
Y544483D01*
X1144016Y482600D02*
Y510787D01*
X1135888Y528073D02*
Y543956D01*
X1133856Y528073D02*
Y543814D01*
X1131824Y528073D02*
Y543814D01*
X1129792Y528073D02*
Y543814D01*
X1127760Y528073D02*
Y543814D01*
X1141984Y482600D02*
Y510787D01*
X1139952Y482600D02*
Y510787D01*
X1137920Y482600D02*
Y510787D01*
X1135888Y482600D02*
Y510787D01*
X1133856Y482600D02*
Y510787D01*
X1131824Y482600D02*
Y510787D01*
X1129792Y482600D02*
Y510787D01*
X1127760Y482600D02*
Y510787D01*
X1125728Y669671D02*
Y701287D01*
X1123696Y669671D02*
Y701287D01*
X1117600Y669982D02*
Y701287D01*
X1121664Y669671D02*
Y701287D01*
X1119632Y669671D02*
Y701287D01*
X1111504Y673430D02*
Y701287D01*
X1109472Y673857D02*
Y701287D01*
X1115568Y671577D02*
Y701287D01*
X1113536Y672689D02*
Y701287D01*
X1107440Y673996D02*
Y701287D01*
X1122306Y648589D02*
X1124664D01*
X1105408Y673857D02*
Y701287D01*
X1122306Y648208D02*
X1125045D01*
X1117923Y648589D02*
X1122306D01*
X1103376Y673430D02*
Y701287D01*
X1101344Y672689D02*
Y701287D01*
X1099312Y671577D02*
Y701287D01*
X1097280Y669982D02*
Y701287D01*
X1095248Y667766D02*
Y701287D01*
X1093216Y667766D02*
Y701287D01*
X1091184Y667766D02*
Y701287D01*
X1089152Y667766D02*
Y701287D01*
X1087120Y667766D02*
Y701287D01*
X1085088Y667766D02*
Y701287D01*
X1083056Y667766D02*
Y701287D01*
X1081024Y667916D02*
Y701287D01*
X1087120Y667766D02*
X1095340D01*
X1082936D02*
X1087120D01*
X1078992Y667916D02*
Y701287D01*
X1076960Y667916D02*
Y701287D01*
X1074928Y667916D02*
Y701287D01*
X1072896Y667916D02*
Y701287D01*
X1070864Y667916D02*
Y701287D01*
X1068832Y667916D02*
Y701287D01*
X1125728Y643636D02*
Y647525D01*
X1122306Y646176D02*
X1127077D01*
X1123696Y643636D02*
Y648589D01*
X1122306Y643636D02*
Y648589D01*
X1116584Y609891D02*
Y618864D01*
X1098296D02*
X1116584D01*
X1111504Y612470D02*
Y618864D01*
X1115568Y610617D02*
Y618864D01*
X1113536Y611729D02*
Y618864D01*
X1109472Y612896D02*
Y618864D01*
X1107440Y613036D02*
Y618864D01*
X1105408Y612896D02*
Y618864D01*
X1113747Y611632D02*
X1116584D01*
X1103376Y612470D02*
Y618864D01*
X1098296Y617728D02*
X1116584D01*
X1098296Y615696D02*
X1116584D01*
X1098296Y613664D02*
X1116584D01*
X1101344Y611729D02*
Y618864D01*
X1098296Y611632D02*
X1101133D01*
X1099312Y610617D02*
Y618864D01*
X1098296Y609891D02*
Y618864D01*
X1087120Y586994D02*
X1092574D01*
X1082936Y583946D02*
Y587807D01*
X1083056Y583946D02*
Y587759D01*
X1092574Y583946D02*
Y586994D01*
X1091184Y583946D02*
Y586994D01*
X1089152Y583946D02*
Y586994D01*
X1087120Y583946D02*
Y586994D01*
X1082936Y585216D02*
X1092574D01*
X1082936Y587248D02*
X1084751D01*
X1082936Y583946D02*
X1092574D01*
X1085088D02*
Y587180D01*
X1066800Y667916D02*
Y701287D01*
X1064768Y667916D02*
Y701287D01*
X1062736Y667916D02*
Y701287D01*
X1060704Y667916D02*
Y701287D01*
X1058672Y667916D02*
Y701287D01*
X1041790Y672592D02*
X1101133D01*
X1042217Y670560D02*
X1097935D01*
X1056640Y667916D02*
Y701287D01*
X1054608Y667916D02*
Y701287D01*
X1042289Y668528D02*
X1095921D01*
X1053204Y667916D02*
X1082936D01*
X1042289Y666496D02*
X1053204D01*
X1042289Y664464D02*
X1053204D01*
X1042289Y662432D02*
X1053204D01*
X1042289Y660400D02*
X1053204D01*
X1042289Y658368D02*
X1053204D01*
X1042289Y656336D02*
X1053204D01*
X1042289Y654304D02*
X1053204D01*
X1040384Y675531D02*
Y701287D01*
X1038352Y677805D02*
Y701287D01*
X1036320Y679179D02*
Y701287D01*
X1044448Y642095D02*
Y701287D01*
X1042416Y642095D02*
Y701287D01*
X1032256Y680407D02*
Y701287D01*
X1031873Y680440D02*
Y701287D01*
X1034288Y680005D02*
Y701287D01*
X1042289Y652272D02*
X1053204D01*
X1042289Y650240D02*
X1053204D01*
Y648916D02*
Y667916D01*
X1042289Y642095D02*
Y669290D01*
Y648208D02*
X1053204D01*
X1042289Y646176D02*
X1053204D01*
X1042289Y644144D02*
X1053204D01*
Y640184D02*
Y648916D01*
Y640184D02*
Y648916D01*
X1048512Y635153D02*
Y701287D01*
X1052576Y633156D02*
Y701287D01*
X1050544Y634412D02*
Y701287D01*
X1042289Y642112D02*
X1053204D01*
X1042289Y642095D02*
X1044479D01*
X1046480Y635482D02*
Y701287D01*
X1044479Y635508D02*
Y642095D01*
X1051352Y633984D02*
X1053204D01*
Y632630D02*
Y640184D01*
X1044479Y640080D02*
X1053204D01*
X1044479Y638048D02*
X1053204D01*
X1044479Y636016D02*
X1053204D01*
X1044479Y635508D02*
X1045718D01*
X1035326Y609363D02*
X1037844D01*
Y607956D02*
Y609363D01*
X1036320Y608310D02*
Y609363D01*
X995426Y609226D02*
X997204D01*
X995426D02*
X997204D01*
X995426Y609363D02*
X997204D01*
X995426D02*
X997204D01*
X1036600Y607956D02*
X1037844D01*
X1036600D02*
X1037844D01*
X991924Y579494D02*
X997204D01*
X991924D02*
X997204D01*
X995680Y566166D02*
Y579494D01*
X993648Y566166D02*
Y579494D01*
X1125728Y528073D02*
Y543814D01*
X1123696Y528073D02*
Y543814D01*
X1121664Y528073D02*
Y543814D01*
X1119632Y528073D02*
Y543814D01*
X1117600Y528073D02*
Y543814D01*
X1115568Y528073D02*
Y543814D01*
X1113536Y528073D02*
Y543814D01*
X1111504Y528073D02*
Y543814D01*
X1109472Y528073D02*
Y543814D01*
X1107440Y528073D02*
Y543814D01*
X1105408Y528073D02*
Y543814D01*
X1103376Y528073D02*
Y543814D01*
X1101344Y528073D02*
Y543814D01*
X1099312Y528073D02*
Y543814D01*
X1097280Y528073D02*
Y543814D01*
X1095248Y528073D02*
Y543814D01*
X1093216Y528073D02*
Y543814D01*
X1091184Y528073D02*
Y543814D01*
X1089152Y528073D02*
Y543814D01*
X1087120Y528073D02*
Y543814D01*
X1085088Y528073D02*
Y543814D01*
X1083056Y528073D02*
Y543814D01*
X1081024Y528073D02*
Y543814D01*
X1078992Y528073D02*
Y543814D01*
X1076960Y528073D02*
Y543814D01*
X1074928Y528073D02*
Y543814D01*
X1072896Y528073D02*
Y543814D01*
X1070864Y528073D02*
Y543814D01*
X1068832Y528073D02*
Y543814D01*
X1066800Y528073D02*
Y543814D01*
X1064768Y528073D02*
Y543814D01*
X1062736Y528073D02*
Y543814D01*
X1060704Y528073D02*
Y543814D01*
X1058672Y528073D02*
Y543814D01*
X1056640Y528073D02*
Y543814D01*
X1125728Y482600D02*
Y510787D01*
X1123696Y482600D02*
Y510787D01*
X1121664Y482600D02*
Y510787D01*
X1119632Y482600D02*
Y510787D01*
X1117600Y482600D02*
Y510787D01*
X1115568Y482600D02*
Y510787D01*
X1113536Y482600D02*
Y510787D01*
X1111504Y482600D02*
Y510787D01*
X1109472Y482600D02*
Y510787D01*
X1107440Y482600D02*
Y510787D01*
X1105408Y482600D02*
Y510787D01*
X1103376Y482600D02*
Y510787D01*
X1101344Y482600D02*
Y510787D01*
X1099312Y482600D02*
Y510787D01*
X1097280Y482600D02*
Y510787D01*
X1095248Y482600D02*
Y510787D01*
X1093216Y482600D02*
Y510787D01*
X1091184Y482600D02*
Y510787D01*
X1089152Y482600D02*
Y510787D01*
X1087120Y482600D02*
Y510787D01*
X1085088Y482600D02*
Y510787D01*
X1083056Y482600D02*
Y510787D01*
X1081024Y482600D02*
Y510787D01*
X1078992Y482600D02*
Y510787D01*
X1076960Y482600D02*
Y510787D01*
X1074928Y482600D02*
Y510787D01*
X1072896Y482600D02*
Y510787D01*
X1070864Y482600D02*
Y510787D01*
X1068832Y482600D02*
Y510787D01*
X1066800Y482600D02*
Y510787D01*
X1064768Y482600D02*
Y510787D01*
X1062736Y482600D02*
Y510787D01*
X1060704Y482600D02*
Y510787D01*
X1058672Y482600D02*
Y510787D01*
X1054608Y528073D02*
Y543814D01*
X1052576Y528073D02*
Y543814D01*
X1050544Y528073D02*
Y543814D01*
X1048512Y528073D02*
Y543814D01*
X1046480Y528073D02*
Y543814D01*
X1044448Y528073D02*
Y543814D01*
X1042416Y528073D02*
Y543814D01*
X1040384Y528073D02*
Y543814D01*
X1038352Y528073D02*
Y543814D01*
X1036320Y528073D02*
Y543814D01*
X1034288Y528073D02*
Y543814D01*
X1032256Y528073D02*
Y543814D01*
X1030224Y528073D02*
Y543814D01*
X1028192Y528073D02*
Y543814D01*
X1026160Y528073D02*
Y543814D01*
X1024128Y528073D02*
Y543814D01*
X1022096Y528073D02*
Y543814D01*
X1020064Y528073D02*
Y543814D01*
X1018032Y528073D02*
Y543814D01*
X1016000Y528073D02*
Y543814D01*
X1003808Y566166D02*
Y567887D01*
X1013968Y528073D02*
Y543814D01*
X1011936Y528073D02*
Y543814D01*
X1000477Y571217D02*
X1005529Y566166D01*
X1001776D02*
Y569919D01*
X999744Y566166D02*
Y572026D01*
X997712Y566166D02*
Y575789D01*
X1009904Y528073D02*
Y543814D01*
X1007872Y528073D02*
Y543814D01*
X1005840Y528073D02*
Y543814D01*
X1003808Y528073D02*
Y543814D01*
X1001776Y528073D02*
Y543814D01*
X999744Y528073D02*
Y543814D01*
X997712Y528073D02*
Y543814D01*
X995680Y528073D02*
Y543814D01*
X1056640Y482600D02*
Y510787D01*
X1054608Y482600D02*
Y510787D01*
X1052576Y482600D02*
Y510787D01*
X1050544Y482600D02*
Y510787D01*
X1048512Y482600D02*
Y510787D01*
X1046480Y482600D02*
Y510787D01*
X1044448Y482600D02*
Y510787D01*
X1042416Y482600D02*
Y510787D01*
X1040384Y482600D02*
Y510787D01*
X1038352Y482600D02*
Y510787D01*
X1036320Y482600D02*
Y510787D01*
X1034288Y482600D02*
Y510787D01*
X1032256Y482600D02*
Y510787D01*
X1030224Y482600D02*
Y510787D01*
X1028192Y482600D02*
Y510787D01*
X1026160Y482600D02*
Y510787D01*
X1024128Y482600D02*
Y510787D01*
X1022096Y482600D02*
Y510787D01*
X1020064Y482600D02*
Y510787D01*
X1018032Y482600D02*
Y510787D01*
X1016000Y482600D02*
Y510787D01*
X1013968Y482600D02*
Y510787D01*
X1011936Y482600D02*
Y510787D01*
X993648Y528073D02*
Y543814D01*
X1009904Y482600D02*
Y510787D01*
X1007872Y482600D02*
Y510787D01*
X1005840Y482600D02*
Y510787D01*
X1003808Y482600D02*
Y510787D01*
X1001776Y482600D02*
Y510787D01*
X999744Y482600D02*
Y510787D01*
X997712Y482600D02*
Y510787D01*
X995680Y482600D02*
Y510787D01*
X993648Y482600D02*
Y510787D01*
X991616Y482600D02*
Y510787D01*
Y921773D02*
Y939800D01*
X989584Y921773D02*
Y939800D01*
X987552Y921773D02*
Y939800D01*
X985520Y921773D02*
Y939800D01*
X983488Y921773D02*
Y939800D01*
X981456Y921773D02*
Y939800D01*
X979424Y921773D02*
Y939800D01*
X977392Y921773D02*
Y939800D01*
X975360Y921773D02*
Y939800D01*
X985141Y883666D02*
Y904487D01*
X983488Y883666D02*
Y904487D01*
X981456Y883666D02*
Y904487D01*
X979424Y883666D02*
Y904487D01*
X977392Y883666D02*
Y904487D01*
X973328Y921773D02*
Y939800D01*
X971296Y921773D02*
Y939800D01*
X975360Y883666D02*
Y904487D01*
X973328Y883666D02*
Y904487D01*
X969264Y921773D02*
Y939800D01*
X967232Y921773D02*
Y939800D01*
X965200Y921773D02*
Y939800D01*
X963168Y921773D02*
Y939800D01*
X961136Y921773D02*
Y939800D01*
X959104Y921773D02*
Y939800D01*
X957072Y921773D02*
Y939800D01*
X955040Y921773D02*
Y939800D01*
X953008Y921773D02*
Y939800D01*
X971296Y883666D02*
Y904487D01*
X969264Y883666D02*
Y904487D01*
X967232Y883666D02*
Y904487D01*
X965200Y883666D02*
Y904487D01*
X950976Y921773D02*
Y939800D01*
X948944Y921773D02*
Y939800D01*
X963168Y883666D02*
Y904487D01*
X961136Y883666D02*
Y904487D01*
X985520Y859773D02*
Y861314D01*
X983488Y857797D02*
Y861314D01*
X981456Y855765D02*
Y861314D01*
X962209D02*
X988060D01*
X957580Y883666D02*
X985141D01*
X979424Y853213D02*
Y861314D01*
X977392Y845295D02*
Y861314D01*
X981055Y855365D02*
X984865Y859175D01*
X975360Y845295D02*
Y861314D01*
X973328Y845295D02*
Y861314D01*
X960431Y859536D02*
X985247D01*
X958399Y857504D02*
X983195D01*
X956367Y855472D02*
X981163D01*
X954335Y853440D02*
X979556D01*
X959104Y883666D02*
Y904487D01*
X957072Y883654D02*
Y904487D01*
X955040Y883373D02*
Y904487D01*
X971296Y840105D02*
Y861314D01*
X953008Y882688D02*
Y904487D01*
X950976Y881506D02*
Y904487D01*
X948944Y879659D02*
Y904487D01*
X969264Y840105D02*
Y861314D01*
X967232Y840105D02*
Y861314D01*
X965200Y840105D02*
Y861314D01*
X963168Y840105D02*
Y861314D01*
X961136Y840105D02*
Y860241D01*
X959104Y840105D02*
Y858209D01*
X957072Y840105D02*
Y856177D01*
X955040Y840105D02*
Y854145D01*
X838200Y939800D02*
X1216660D01*
X812800Y938784D02*
X1216660D01*
X812800Y936752D02*
X1216660D01*
X812800Y934720D02*
X1216660D01*
X812800Y932688D02*
X1216660D01*
X812800Y930656D02*
X1216660D01*
X812800Y928624D02*
X1216660D01*
X812800Y926592D02*
X1216660D01*
X812800Y924560D02*
X1216660D01*
X918051Y902208D02*
X985141D01*
X919518Y900176D02*
X985141D01*
X920726Y898144D02*
X985141D01*
X921712Y896112D02*
X985141D01*
X922502Y894080D02*
X985141D01*
X812800Y922528D02*
X1216660D01*
X876300Y921773D02*
X1193800D01*
X916024Y904487D02*
X985141D01*
X916267Y904240D02*
X985141D01*
X946912Y921773D02*
Y939800D01*
X944880Y921773D02*
Y939800D01*
X942848Y921773D02*
Y939800D01*
X940816Y921773D02*
Y939800D01*
X938784Y921773D02*
Y939800D01*
X936752Y921773D02*
Y939800D01*
X934720Y921773D02*
Y939800D01*
X932688Y921773D02*
Y939800D01*
X930656Y921773D02*
Y939800D01*
X928624Y921773D02*
Y939800D01*
X926592Y921773D02*
Y939800D01*
X923113Y892048D02*
X985141D01*
X924560Y921773D02*
Y939800D01*
X922528Y921773D02*
Y939800D01*
X920496Y921773D02*
Y939800D01*
X922528Y894003D02*
Y904487D01*
X920496Y898563D02*
Y904487D01*
X946912Y877627D02*
Y904487D01*
X944880Y875595D02*
Y904487D01*
X942848Y873563D02*
Y904487D01*
X940816Y871531D02*
Y904487D01*
X938784Y869499D02*
Y904487D01*
X923557Y890016D02*
X985141D01*
X923843Y887984D02*
X985141D01*
X923975Y885952D02*
X985141D01*
X923957Y883920D02*
X985141D01*
X923786Y881888D02*
X951532D01*
X923461Y879856D02*
X949141D01*
X945163Y844267D02*
X962209Y861314D01*
X935859Y866574D02*
X949677Y880393D01*
X922976Y877824D02*
X947109D01*
X922322Y875792D02*
X945077D01*
X921485Y873760D02*
X943045D01*
X920446Y871728D02*
X941013D01*
X936752Y867467D02*
Y904487D01*
X932688Y867027D02*
Y904487D01*
X930656Y866958D02*
Y904487D01*
X934720Y866817D02*
Y904487D01*
X928624Y866604D02*
Y904487D01*
X926592Y865946D02*
Y904487D01*
X924560Y864935D02*
Y904487D01*
X919177Y869696D02*
X938981D01*
X922528Y863476D02*
Y876377D01*
X920496Y863346D02*
Y871817D01*
X917638Y867664D02*
X936949D01*
X915761Y865632D02*
X925873D01*
X916940Y863346D02*
X922377D01*
X913436Y863600D02*
X922675D01*
X978154Y845295D02*
Y848360D01*
X972281Y845295D02*
X978154D01*
X972281Y812563D02*
X973074D01*
X972924Y782694D02*
X991924D01*
X991616Y769366D02*
Y782694D01*
X958596Y810768D02*
X972924D01*
X958596Y808736D02*
X972924D01*
X958596Y806704D02*
X972924D01*
X958596Y804672D02*
X972924D01*
X958596Y780288D02*
X997390D01*
X958596Y778256D02*
X997969D01*
X958596Y782320D02*
X997204D01*
X989584Y769366D02*
Y782694D01*
X987552Y769366D02*
Y782694D01*
X958596Y774192D02*
X1000703D01*
X958596Y776224D02*
X999013D01*
X958596Y770128D02*
X1004767D01*
X958596Y772160D02*
X1002735D01*
X972281Y840105D02*
Y845295D01*
X958596Y817753D02*
X972281D01*
X958596Y816864D02*
X972281D01*
X972924Y782694D02*
Y812426D01*
X972281Y812563D02*
Y817753D01*
X958596Y814832D02*
X972281D01*
X958596Y812800D02*
X972281D01*
X958596Y802640D02*
X972924D01*
X958596Y800608D02*
X972924D01*
X958596Y798576D02*
X972924D01*
X958596Y796544D02*
X972924D01*
X958596Y794512D02*
X972924D01*
X958596Y792480D02*
X972924D01*
X958596Y790448D02*
X972924D01*
X958596Y788416D02*
X972924D01*
X958596Y786384D02*
X972924D01*
X958596Y784352D02*
X972924D01*
X985520Y769366D02*
Y782694D01*
X983488Y769366D02*
Y782694D01*
X981456Y769366D02*
Y782694D01*
X991616Y731273D02*
Y747014D01*
X979424Y769366D02*
Y782694D01*
X977392Y769366D02*
Y782694D01*
X975360Y769366D02*
Y782694D01*
X958596Y769366D02*
X1005529D01*
X973328D02*
Y782694D01*
X989584Y731273D02*
Y747014D01*
X987552Y731273D02*
Y747014D01*
X985520Y731273D02*
Y747014D01*
X983488Y731273D02*
Y747014D01*
X981456Y731273D02*
Y747014D01*
X979424Y731273D02*
Y747014D01*
X977392Y731273D02*
Y747014D01*
X975360Y731273D02*
Y747014D01*
X971296Y769366D02*
Y817753D01*
X969264Y769366D02*
Y817753D01*
X967232Y769366D02*
Y817753D01*
X973328Y731273D02*
Y747014D01*
X965200Y769366D02*
Y817753D01*
X963168Y769366D02*
Y817753D01*
X961136Y769366D02*
Y817753D01*
X959104Y769366D02*
Y817753D01*
X958596Y769366D02*
Y817753D01*
X971296Y731273D02*
Y747014D01*
X969264Y731273D02*
Y747014D01*
X967232Y731273D02*
Y747014D01*
X965200Y731273D02*
Y747014D01*
X963168Y731273D02*
Y747014D01*
X961136Y731273D02*
Y747014D01*
X959104Y731273D02*
Y747014D01*
X957072Y731273D02*
Y747014D01*
X952303Y851408D02*
X978635D01*
X950271Y849376D02*
X978206D01*
X953008Y840105D02*
Y852113D01*
X950976Y840105D02*
Y850081D01*
X948944Y840105D02*
Y848049D01*
X948239Y847344D02*
X978154D01*
X946207Y845312D02*
X978154D01*
X946912Y841636D02*
Y846017D01*
X944095Y843280D02*
X972281D01*
X947046Y841248D02*
X972281D01*
X944880Y841636D02*
Y843995D01*
X947420Y840105D02*
X972281D01*
X947046D02*
Y841636D01*
X942670D02*
X947046D01*
X920496Y811904D02*
X936244D01*
X920496Y810768D02*
X936244D01*
X934720Y795697D02*
Y811904D01*
X932688Y795907D02*
Y811904D01*
X930656Y795838D02*
Y811904D01*
X936244Y795350D02*
Y811904D01*
X928624Y795484D02*
Y811904D01*
X920496Y808736D02*
X936244D01*
X926592Y794826D02*
Y811904D01*
X924560Y793815D02*
Y811904D01*
X922528Y792537D02*
Y811904D01*
X920496Y806704D02*
X936244D01*
X920496Y804672D02*
X936244D01*
X920496Y802640D02*
X936244D01*
X920496Y800608D02*
X936244D01*
X920496Y798576D02*
X936244D01*
X920496Y796544D02*
X936244D01*
X920553Y794512D02*
X925873D01*
X954514Y747014D02*
X1134110D01*
X952594Y745744D02*
X1142733D01*
X955040Y731273D02*
Y747014D01*
X953008Y731273D02*
Y745971D01*
X950976Y731273D02*
Y745055D01*
X947046Y743712D02*
X1143177D01*
X947046Y741680D02*
X1143788D01*
X873513Y737616D02*
X1145564D01*
X873513Y739648D02*
X1144578D01*
X916024Y701287D02*
X985141D01*
X916267Y701040D02*
X985141D01*
X873513Y733552D02*
X1148239D01*
X873513Y735584D02*
X1146772D01*
X873513Y731273D02*
X1150266D01*
X873513Y731520D02*
X1150023D01*
X948944Y731273D02*
Y744578D01*
X947046Y740784D02*
Y744474D01*
X946912Y731273D02*
Y740784D01*
X944880Y731273D02*
Y740784D01*
X942848Y731273D02*
Y740784D01*
X917314D02*
X947046D01*
X920496Y794569D02*
X922626Y792439D01*
X940816Y731273D02*
Y740784D01*
X938784Y731273D02*
Y740784D01*
X936752Y731273D02*
Y740784D01*
X934720Y731273D02*
Y740784D01*
X932688Y731273D02*
Y740784D01*
X930656Y731273D02*
Y740784D01*
X928624Y731273D02*
Y740784D01*
X926592Y731273D02*
Y740784D01*
X924560Y731273D02*
Y740784D01*
X922528Y731273D02*
Y740784D01*
X918464Y921773D02*
Y939800D01*
X916432Y921773D02*
Y939800D01*
X914400Y921773D02*
Y939800D01*
X912368Y921773D02*
Y939800D01*
X910336Y921773D02*
Y939800D01*
X908304Y921773D02*
Y939800D01*
X906272Y921773D02*
Y939800D01*
X904240Y921773D02*
Y939800D01*
X902208Y921773D02*
Y939800D01*
X900176Y921773D02*
Y939800D01*
X898144Y921773D02*
Y939800D01*
X896112Y921773D02*
Y939800D01*
X918464Y901674D02*
Y904487D01*
Y863346D02*
Y868706D01*
X894080Y921773D02*
Y939800D01*
X892048Y921773D02*
Y939800D01*
X890016Y921773D02*
Y939800D01*
X887984Y921773D02*
Y939800D01*
X885952Y921773D02*
Y939800D01*
X883920Y921773D02*
Y939800D01*
X881888Y921773D02*
Y939800D01*
X879856Y921773D02*
Y939800D01*
X877824Y921773D02*
Y939800D01*
X875792Y921773D02*
Y939800D01*
X873760Y921773D02*
Y939800D01*
X876300Y904487D02*
X877216D01*
X873513D02*
X876300D01*
X875792Y902941D02*
Y904487D01*
X873760Y900234D02*
Y904487D01*
X873513Y899852D02*
Y904487D01*
Y904240D02*
X876973D01*
X873513Y902208D02*
X875189D01*
X873513Y865632D02*
X877479D01*
X873513Y867664D02*
X875602D01*
X916432Y863334D02*
Y866312D01*
X914400Y863054D02*
Y864387D01*
X908304Y859339D02*
Y860444D01*
X906147Y859536D02*
X908501D01*
X906272Y857307D02*
Y859583D01*
X901417Y852453D02*
X909037Y860073D01*
X904240Y855275D02*
Y858906D01*
X902208Y853243D02*
Y858401D01*
X900176Y850976D02*
Y858056D01*
X898144Y844550D02*
Y857867D01*
Y842010D02*
Y844550D01*
X873513Y857504D02*
X906469D01*
X873513Y855472D02*
X904437D01*
X898144Y789940D02*
Y842010D01*
X881888Y731273D02*
Y862128D01*
X883920Y731273D02*
Y860949D01*
X879856Y731273D02*
Y863560D01*
X877824Y731273D02*
Y865300D01*
X875792Y731273D02*
Y867439D01*
X873513Y861568D02*
X882803D01*
X873513Y863600D02*
X879804D01*
X873513Y731273D02*
Y870528D01*
X873760Y731273D02*
Y870146D01*
X898144Y789940D02*
Y842010D01*
X896112Y731273D02*
Y857829D01*
X894080Y731273D02*
Y857942D01*
X892048Y731273D02*
Y858209D01*
X890016Y731273D02*
Y858633D01*
X873513Y859536D02*
X887093D01*
X887984Y731273D02*
Y859222D01*
X885952Y731273D02*
Y859989D01*
X871728Y921773D02*
Y939800D01*
X869696Y921773D02*
Y939800D01*
X867664Y921773D02*
Y939800D01*
X864870Y921773D02*
X876300D01*
X865632D02*
Y939800D01*
X863600Y921679D02*
Y939800D01*
X861568Y921117D02*
Y939800D01*
X859536Y919931D02*
Y939800D01*
X857504Y917651D02*
Y939800D01*
X812800Y920496D02*
X860349D01*
X812800Y918464D02*
X858069D01*
X812800Y916432D02*
X856883D01*
X812800Y914400D02*
X856321D01*
X812800Y912368D02*
X856227D01*
X812800Y910336D02*
X856227D01*
X812800Y908304D02*
X856227D01*
X812800Y906272D02*
X856227D01*
X812800Y904240D02*
X856227D01*
X812800Y939800D02*
X838200D01*
X812800Y902208D02*
X856227D01*
X812800Y900176D02*
X856227D01*
X812800Y898144D02*
X856227D01*
X812800Y896112D02*
X856227D01*
X812800Y894080D02*
X856227D01*
X812800Y892048D02*
X856227D01*
X812800Y890016D02*
X856227D01*
X812800Y887984D02*
X856227D01*
X812800Y885952D02*
X856227D01*
X812800Y883920D02*
X856227D01*
X812800Y881888D02*
X856227D01*
X812800Y879856D02*
X856227D01*
X812800Y877824D02*
X856227D01*
X812800Y875792D02*
X856227D01*
X873513Y853440D02*
X902405D01*
X873513Y851408D02*
X900496D01*
X812800Y873760D02*
X856227D01*
X873513Y849376D02*
X899240D01*
X873513Y847344D02*
X898499D01*
X812800Y871728D02*
X856227D01*
X812800Y869696D02*
X856227D01*
X812800Y867664D02*
X856227D01*
X812800Y865632D02*
X856227D01*
X873513Y845312D02*
X898170D01*
X873513Y843280D02*
X898216D01*
X873513Y841248D02*
X898144D01*
X873513Y839216D02*
X898144D01*
X873513Y837184D02*
X898144D01*
X873513Y835152D02*
X898144D01*
X873513Y833120D02*
X898144D01*
X873513Y831088D02*
X898144D01*
X812800Y863600D02*
X856227D01*
X812800Y861568D02*
X856227D01*
X812800Y859536D02*
X856227D01*
X812800Y857504D02*
X856227D01*
Y723900D02*
Y913130D01*
X812800Y855472D02*
X856227D01*
X812800Y853440D02*
X856227D01*
X812800Y851408D02*
X856227D01*
X812800Y849376D02*
X856227D01*
X812800Y847344D02*
X856227D01*
X812800Y845312D02*
X856227D01*
X812800Y843280D02*
X856227D01*
X812800Y841248D02*
X856227D01*
X812800Y839216D02*
X856227D01*
X812800Y837184D02*
X856227D01*
X812800Y835152D02*
X856227D01*
X812800Y833120D02*
X856227D01*
X920496Y794569D02*
Y811904D01*
Y794569D02*
Y811904D01*
X873513Y829056D02*
X898144D01*
X873513Y827024D02*
X898144D01*
X873513Y824992D02*
X898144D01*
X873513Y788416D02*
X898248D01*
X873513Y786384D02*
X898725D01*
X873513Y782320D02*
X901144D01*
X873513Y780288D02*
X903167D01*
X873513Y784352D02*
X899641D01*
X901417Y782037D02*
X910307Y773147D01*
X873513Y778256D02*
X905199D01*
X873513Y774192D02*
X909263D01*
X873513Y776224D02*
X907231D01*
X873513Y770128D02*
X915841D01*
X873513Y772160D02*
X911437D01*
X873513Y822960D02*
X898144D01*
X873513Y820928D02*
X898144D01*
X873513Y818896D02*
X898144D01*
X873513Y816864D02*
X898144D01*
X873513Y814832D02*
X898144D01*
X873513Y812800D02*
X898144D01*
X873513Y810768D02*
X898144D01*
X873513Y808736D02*
X898144D01*
X873513Y806704D02*
X898144D01*
X873513Y804672D02*
X898144D01*
X873513Y802640D02*
X898144D01*
X873513Y800608D02*
X898144D01*
X873513Y798576D02*
X898144D01*
X873513Y796544D02*
X898144D01*
X873513Y794512D02*
X898144D01*
X873513Y792480D02*
X898144D01*
X873513Y790448D02*
X898144D01*
X873513Y768096D02*
X917314D01*
X873513Y766064D02*
X917314D01*
X873513Y764032D02*
X917314D01*
X873513Y762000D02*
X917314D01*
X873513Y759968D02*
X917314D01*
X873513Y757936D02*
X917314D01*
X873513Y755904D02*
X917314D01*
X920496Y731273D02*
Y740784D01*
X918464Y731273D02*
Y740784D01*
X873513Y753872D02*
X917314D01*
X873513Y751840D02*
X917314D01*
X873513Y749808D02*
X917314D01*
X873513Y747776D02*
X917314D01*
X912368Y731273D02*
Y771523D01*
X914400Y731273D02*
Y770544D01*
X910336Y731273D02*
Y773119D01*
X908304Y731273D02*
Y775151D01*
X906272Y731273D02*
Y777183D01*
X904240Y731273D02*
Y779215D01*
X902208Y731273D02*
Y781247D01*
X900176Y731273D02*
Y783514D01*
X898144Y731273D02*
Y789940D01*
X873513Y745744D02*
X917314D01*
Y740784D02*
Y769910D01*
X916432Y731273D02*
Y770016D01*
X876300Y701287D02*
X877216D01*
X873513Y743712D02*
X917314D01*
X873513Y741680D02*
X917314D01*
X873513Y701287D02*
X876300D01*
X858758Y717788D02*
X859695Y716852D01*
X812800Y831088D02*
X856227D01*
X812800Y829056D02*
X856227D01*
X812800Y827024D02*
X856227D01*
X812800Y824992D02*
X856227D01*
X812800Y822960D02*
X856227D01*
X812800Y820928D02*
X856227D01*
X812800Y818896D02*
X856227D01*
X812800Y816864D02*
X856227D01*
X812800Y814832D02*
X856227D01*
X812800Y812800D02*
X856227D01*
X812800Y810768D02*
X856227D01*
X812800Y808736D02*
X856227D01*
X812800Y806704D02*
X856227D01*
X812800Y804672D02*
X856227D01*
X812800Y802640D02*
X856227D01*
X812800Y800608D02*
X856227D01*
X812800Y798576D02*
X856227D01*
X812800Y796544D02*
X856227D01*
X812800Y794512D02*
X856227D01*
X812800Y792480D02*
X856227D01*
X812800Y790448D02*
X856227D01*
X812800Y788416D02*
X856227D01*
X812800Y786384D02*
X856227D01*
X812800Y784352D02*
X856227D01*
X812800Y782320D02*
X856227D01*
X812800Y780288D02*
X856227D01*
X812800Y778256D02*
X856227D01*
X812800Y776224D02*
X856227D01*
X812800Y774192D02*
X856227D01*
X812800Y772160D02*
X856227D01*
X812800Y770128D02*
X856227D01*
X812800Y768096D02*
X856227D01*
X812800Y766064D02*
X856227D01*
X812800Y764032D02*
X856227D01*
X812800Y762000D02*
X856227D01*
X812800Y759968D02*
X856227D01*
X812800Y757936D02*
X856227D01*
X812800Y755904D02*
X856227D01*
X812800Y753872D02*
X856227D01*
X812800Y751840D02*
X856227D01*
X812800Y721360D02*
X856609D01*
X812800Y749808D02*
X856227D01*
X812800Y719328D02*
X857535D01*
X857504Y714451D02*
Y719379D01*
X812800Y717296D02*
X859251D01*
X812800Y715264D02*
X858069D01*
X812800Y713232D02*
X856883D01*
X812800Y711200D02*
X856321D01*
X812800Y747776D02*
X856227D01*
X812800Y745744D02*
X856227D01*
X812800Y743712D02*
X856227D01*
X812800Y741680D02*
X856227D01*
X812800Y739648D02*
X856227D01*
X812800Y737616D02*
X856227D01*
X812800Y735584D02*
X856227D01*
X812800Y733552D02*
X856227D01*
X812800Y731520D02*
X856227D01*
X812800Y729488D02*
X856227D01*
X812800Y727456D02*
X856227D01*
X812800Y725424D02*
X856227D01*
X812800Y723392D02*
X856242D01*
X812800Y709168D02*
X856227D01*
X812800Y707136D02*
X856227D01*
X812800Y705104D02*
X856227D01*
X812800Y703072D02*
X856227D01*
X985141Y680466D02*
Y701287D01*
X985520Y656573D02*
Y658114D01*
X983488Y680466D02*
Y701287D01*
X981456Y680466D02*
Y701287D01*
X979424Y680466D02*
Y701287D01*
X962209Y658114D02*
X988060D01*
X957580Y680466D02*
X985141D01*
X983488Y654597D02*
Y658114D01*
X981055Y652165D02*
X984865Y655975D01*
X981456Y652565D02*
Y658114D01*
X979424Y650013D02*
Y658114D01*
X960431Y656336D02*
X985247D01*
X958399Y654304D02*
X983195D01*
X956367Y652272D02*
X981163D01*
X977392Y680466D02*
Y701287D01*
X975360Y680466D02*
Y701287D01*
X973328Y680466D02*
Y701287D01*
X971296Y680466D02*
Y701287D01*
X969264Y680466D02*
Y701287D01*
X967232Y680466D02*
Y701287D01*
X965200Y680466D02*
Y701287D01*
X963168Y680466D02*
Y701287D01*
X961136Y680466D02*
Y701287D01*
X959104Y680466D02*
Y701287D01*
X957072Y680454D02*
Y701287D01*
X954335Y650240D02*
X979556D01*
X955040Y680173D02*
Y701287D01*
X953008Y679488D02*
Y701287D01*
X950976Y678306D02*
Y701287D01*
X952303Y648208D02*
X978635D01*
X950271Y646176D02*
X978206D01*
X977392Y642095D02*
Y658114D01*
X978154Y642095D02*
Y645160D01*
X975360Y642095D02*
Y658114D01*
X972281Y642095D02*
X978154D01*
X973328D02*
Y658114D01*
X972281Y636905D02*
Y642095D01*
X971296Y636905D02*
Y658114D01*
X958596Y614553D02*
X972281D01*
Y609363D02*
Y614553D01*
X958596Y613664D02*
X972281D01*
Y609363D02*
X973074D01*
X958596Y611632D02*
X972281D01*
X972924Y579494D02*
Y609226D01*
X971296Y566166D02*
Y614553D01*
X958596Y607568D02*
X972924D01*
X958596Y609600D02*
X972281D01*
X958596Y605536D02*
X972924D01*
X958596Y603504D02*
X972924D01*
X969264Y636905D02*
Y658114D01*
X967232Y636905D02*
Y658114D01*
X965200Y636905D02*
Y658114D01*
X963168Y636905D02*
Y658114D01*
X961136Y636905D02*
Y657041D01*
X959104Y636905D02*
Y655009D01*
X957072Y636905D02*
Y652977D01*
X955040Y636905D02*
Y650945D01*
X953008Y636905D02*
Y648913D01*
X969264Y566166D02*
Y614553D01*
X967232Y566166D02*
Y614553D01*
X965200Y566166D02*
Y614553D01*
X963168Y566166D02*
Y614553D01*
X961136Y566166D02*
Y614553D01*
X950976Y636905D02*
Y646881D01*
X959104Y566166D02*
Y614553D01*
X958596Y566166D02*
Y614553D01*
X922502Y690880D02*
X985141D01*
X923113Y688848D02*
X985141D01*
X923557Y686816D02*
X985141D01*
X948944Y676459D02*
Y701287D01*
X946912Y674427D02*
Y701287D01*
X918051Y699008D02*
X985141D01*
X919518Y696976D02*
X985141D01*
X920726Y694944D02*
X985141D01*
X921712Y692912D02*
X985141D01*
X923843Y684784D02*
X985141D01*
X923975Y682752D02*
X985141D01*
X935859Y663374D02*
X949677Y677193D01*
X923957Y680720D02*
X985141D01*
X923786Y678688D02*
X951532D01*
X923461Y676656D02*
X949141D01*
X922976Y674624D02*
X947109D01*
X944880Y672395D02*
Y701287D01*
X942848Y670363D02*
Y701287D01*
X940816Y668331D02*
Y701287D01*
X938784Y666299D02*
Y701287D01*
X936752Y664267D02*
Y701287D01*
X934720Y663617D02*
Y701287D01*
X932688Y663827D02*
Y701287D01*
X930656Y663758D02*
Y701287D01*
X928624Y663404D02*
Y701287D01*
X922528Y690803D02*
Y701287D01*
X920496Y695363D02*
Y701287D01*
X922322Y672592D02*
X945077D01*
X921485Y670560D02*
X943045D01*
X920446Y668528D02*
X941013D01*
X919177Y666496D02*
X938981D01*
X917638Y664464D02*
X936949D01*
X948239Y644144D02*
X978154D01*
X946207Y642112D02*
X978154D01*
X945163Y641067D02*
X962209Y658114D01*
X948944Y636905D02*
Y644849D01*
X946912Y638436D02*
Y642817D01*
X944095Y640080D02*
X972281D01*
X944880Y638436D02*
Y640795D01*
X947046Y638048D02*
X972281D01*
X942670Y638436D02*
X947046D01*
X947420Y636905D02*
X972281D01*
X947046D02*
Y638436D01*
X920496Y608704D02*
X936244D01*
X920496Y607568D02*
X936244D01*
X920496Y605536D02*
X936244D01*
Y592150D02*
Y608704D01*
X926592Y662746D02*
Y701287D01*
X924560Y661735D02*
Y701287D01*
X922528Y660276D02*
Y673177D01*
X920496Y660146D02*
Y668617D01*
X915761Y662432D02*
X925873D01*
X916940Y660146D02*
X922377D01*
X913436Y660400D02*
X922675D01*
X934720Y592497D02*
Y608704D01*
X932688Y592707D02*
Y608704D01*
X930656Y592638D02*
Y608704D01*
X928624Y592284D02*
Y608704D01*
X926592Y591626D02*
Y608704D01*
X920496Y591369D02*
Y608704D01*
X924560Y590615D02*
Y608704D01*
X922528Y589337D02*
Y608704D01*
X972924Y579494D02*
X991924D01*
X991616Y566166D02*
Y579494D01*
X989584Y566166D02*
Y579494D01*
X987552Y566166D02*
Y579494D01*
X985520Y566166D02*
Y579494D01*
X958596Y577088D02*
X997390D01*
X958596Y579120D02*
X997204D01*
X958596Y573024D02*
X999013D01*
X958596Y575056D02*
X997969D01*
X958596Y570992D02*
X1000703D01*
X991616Y528073D02*
Y543814D01*
X989584Y528073D02*
Y543814D01*
X987552Y528073D02*
Y543814D01*
X985520Y528073D02*
Y543814D01*
X958596Y566928D02*
X1004767D01*
X958596Y568960D02*
X1002735D01*
X954514Y543814D02*
X1134110D01*
X958596Y566166D02*
X1005529D01*
X958596Y601472D02*
X972924D01*
X958596Y599440D02*
X972924D01*
X958596Y597408D02*
X972924D01*
X958596Y595376D02*
X972924D01*
X958596Y593344D02*
X972924D01*
X958596Y591312D02*
X972924D01*
X958596Y589280D02*
X972924D01*
X958596Y587248D02*
X972924D01*
X958596Y585216D02*
X972924D01*
X983488Y566166D02*
Y579494D01*
X981456Y566166D02*
Y579494D01*
X979424Y566166D02*
Y579494D01*
X977392Y566166D02*
Y579494D01*
X958596Y583184D02*
X972924D01*
X958596Y581152D02*
X972924D01*
X975360Y566166D02*
Y579494D01*
X973328Y566166D02*
Y579494D01*
X983488Y528073D02*
Y543814D01*
X981456Y528073D02*
Y543814D01*
X979424Y528073D02*
Y543814D01*
X989584Y482600D02*
Y510787D01*
X987552Y482600D02*
Y510787D01*
X977392Y528073D02*
Y543814D01*
X975360Y528073D02*
Y543814D01*
X973328Y528073D02*
Y543814D01*
X971296Y528073D02*
Y543814D01*
X985520Y482600D02*
Y510787D01*
X983488Y482600D02*
Y510787D01*
X981456Y482600D02*
Y510787D01*
X979424Y482600D02*
Y510787D01*
X977392Y482600D02*
Y510787D01*
X975360Y482600D02*
Y510787D01*
X973328Y482600D02*
Y510787D01*
X971296Y482600D02*
Y510787D01*
X969264Y528073D02*
Y543814D01*
X967232Y528073D02*
Y543814D01*
X965200Y528073D02*
Y543814D01*
X963168Y528073D02*
Y543814D01*
X961136Y528073D02*
Y543814D01*
X959104Y528073D02*
Y543814D01*
X957072Y528073D02*
Y543814D01*
X955040Y528073D02*
Y543814D01*
X953008Y528073D02*
Y542771D01*
X969264Y482600D02*
Y510787D01*
X967232Y482600D02*
Y510787D01*
X965200Y482600D02*
Y510787D01*
X963168Y482600D02*
Y510787D01*
X961136Y482600D02*
Y510787D01*
X959104Y482600D02*
Y510787D01*
X957072Y482600D02*
Y510787D01*
X955040Y482600D02*
Y510787D01*
X952594Y542544D02*
X1142733D01*
X950976Y528073D02*
Y541855D01*
X948944Y528073D02*
Y541378D01*
X947046Y540512D02*
X1143177D01*
X947046Y538480D02*
X1143788D01*
X947046Y537584D02*
Y541274D01*
X917314Y537584D02*
X947046D01*
X946912Y528073D02*
Y537584D01*
X873513Y536448D02*
X1144578D01*
X944880Y528073D02*
Y537584D01*
X942848Y528073D02*
Y537584D01*
X940816Y528073D02*
Y537584D01*
X873513Y532384D02*
X1146772D01*
X873513Y534416D02*
X1145564D01*
X873513Y528320D02*
X1150023D01*
X873513Y530352D02*
X1148239D01*
X920496Y603504D02*
X936244D01*
X920496Y601472D02*
X936244D01*
X920496Y599440D02*
X936244D01*
X920496Y597408D02*
X936244D01*
X920496Y595376D02*
X936244D01*
X920496Y593344D02*
X936244D01*
X920553Y591312D02*
X925873D01*
X920496Y591369D02*
X922626Y589239D01*
X938784Y528073D02*
Y537584D01*
X936752Y528073D02*
Y537584D01*
X934720Y528073D02*
Y537584D01*
X932688Y528073D02*
Y537584D01*
X930656Y528073D02*
Y537584D01*
X928624Y528073D02*
Y537584D01*
X926592Y528073D02*
Y537584D01*
X924560Y528073D02*
Y537584D01*
X866140Y510787D02*
X1193800D01*
X812800Y510032D02*
X1216660D01*
X873513Y528073D02*
X1150266D01*
X812800Y508000D02*
X1216660D01*
X812800Y505968D02*
X1216660D01*
X812800Y503936D02*
X1216660D01*
X812800Y501904D02*
X1216660D01*
X812800Y499872D02*
X1216660D01*
X812800Y497840D02*
X1216660D01*
X812800Y495808D02*
X1216660D01*
X812800Y493776D02*
X1216660D01*
X812800Y491744D02*
X1216660D01*
X812800Y489712D02*
X1216660D01*
X812800Y487680D02*
X1216660D01*
X812800Y485648D02*
X1216660D01*
X812800Y483616D02*
X1216660D01*
X812800Y482600D02*
X1216660D01*
X953008D02*
Y510787D01*
X950976Y482600D02*
Y510787D01*
X948944Y482600D02*
Y510787D01*
X946912Y482600D02*
Y510787D01*
X944880Y482600D02*
Y510787D01*
X942848Y482600D02*
Y510787D01*
X922528Y528073D02*
Y537584D01*
X940816Y482600D02*
Y510787D01*
X938784Y482600D02*
Y510787D01*
X936752Y482600D02*
Y510787D01*
X934720Y482600D02*
Y510787D01*
X932688Y482600D02*
Y510787D01*
X930656Y482600D02*
Y510787D01*
X928624Y482600D02*
Y510787D01*
X926592Y482600D02*
Y510787D01*
X924560Y482600D02*
Y510787D01*
X922528Y482600D02*
Y510787D01*
X918464Y698475D02*
Y701287D01*
Y660146D02*
Y665506D01*
X916432Y660134D02*
Y663112D01*
X914400Y659854D02*
Y661187D01*
X908304Y656139D02*
Y657244D01*
X901417Y649253D02*
X909037Y656873D01*
X906147Y656336D02*
X908501D01*
X906272Y654107D02*
Y656383D01*
X904240Y652075D02*
Y655706D01*
X902208Y650043D02*
Y655201D01*
X900176Y647776D02*
Y654856D01*
X873513Y654304D02*
X906469D01*
X873513Y652272D02*
X904437D01*
X873513Y650240D02*
X902405D01*
X873513Y648208D02*
X900496D01*
X873513Y701040D02*
X876973D01*
X875792Y699741D02*
Y701287D01*
X873513Y696652D02*
Y701287D01*
X873760Y697034D02*
Y701287D01*
X873513Y699008D02*
X875189D01*
X873513Y664464D02*
X875602D01*
X873513Y660400D02*
X879804D01*
X873513Y662432D02*
X877479D01*
X873513Y656336D02*
X887093D01*
X873513Y658368D02*
X882803D01*
X898144Y641350D02*
Y654667D01*
Y638810D02*
Y641350D01*
X873513Y646176D02*
X899240D01*
X873513Y644144D02*
X898499D01*
X873513Y642112D02*
X898170D01*
X873513Y640080D02*
X898216D01*
X873513Y638048D02*
X898144D01*
X873513Y636016D02*
X898144D01*
X873513Y633984D02*
X898144D01*
X873513Y631952D02*
X898144D01*
X873513Y629920D02*
X898144D01*
X873513Y627888D02*
X898144D01*
X873513Y625856D02*
X898144D01*
X873513Y623824D02*
X898144D01*
X873513Y621792D02*
X898144D01*
X873513Y619760D02*
X898144D01*
X873513Y617728D02*
X898144D01*
X920496Y591369D02*
Y608704D01*
X873513Y615696D02*
X898144D01*
X873513Y613664D02*
X898144D01*
X873513Y611632D02*
X898144D01*
X873513Y609600D02*
X898144D01*
X873513Y607568D02*
X898144D01*
X881888Y528073D02*
Y658928D01*
X883920Y528073D02*
Y657749D01*
X879856Y528073D02*
Y660360D01*
X877824Y528073D02*
Y662100D01*
X875792Y528073D02*
Y664239D01*
X873513Y528073D02*
Y667328D01*
X873760Y528073D02*
Y666946D01*
X856227Y520700D02*
Y709930D01*
X855472Y482600D02*
Y939800D01*
X898144Y586740D02*
Y638810D01*
Y586740D02*
Y638810D01*
X896112Y528073D02*
Y654629D01*
X894080Y528073D02*
Y654742D01*
X892048Y528073D02*
Y655009D01*
X890016Y528073D02*
Y655433D01*
X887984Y528073D02*
Y656022D01*
X885952Y528073D02*
Y656789D01*
X812800Y701040D02*
X856227D01*
X812800Y699008D02*
X856227D01*
X812800Y696976D02*
X856227D01*
X812800Y694944D02*
X856227D01*
X812800Y692912D02*
X856227D01*
X812800Y690880D02*
X856227D01*
X812800Y688848D02*
X856227D01*
X812800Y686816D02*
X856227D01*
X812800Y684784D02*
X856227D01*
X812800Y682752D02*
X856227D01*
X812800Y680720D02*
X856227D01*
X812800Y678688D02*
X856227D01*
X812800Y676656D02*
X856227D01*
X812800Y674624D02*
X856227D01*
X812800Y672592D02*
X856227D01*
X812800Y670560D02*
X856227D01*
X812800Y668528D02*
X856227D01*
X812800Y666496D02*
X856227D01*
X812800Y664464D02*
X856227D01*
X812800Y662432D02*
X856227D01*
X812800Y660400D02*
X856227D01*
X812800Y658368D02*
X856227D01*
X812800Y656336D02*
X856227D01*
X812800Y654304D02*
X856227D01*
X812800Y652272D02*
X856227D01*
X812800Y650240D02*
X856227D01*
X812800Y648208D02*
X856227D01*
X812800Y646176D02*
X856227D01*
X812800Y644144D02*
X856227D01*
X812800Y642112D02*
X856227D01*
X812800Y640080D02*
X856227D01*
X812800Y638048D02*
X856227D01*
X812800Y636016D02*
X856227D01*
X812800Y633984D02*
X856227D01*
X812800Y631952D02*
X856227D01*
X853440Y482600D02*
Y939800D01*
X851408Y482600D02*
Y939800D01*
X849376Y482600D02*
Y939800D01*
X847344Y482600D02*
Y939800D01*
X845312Y482600D02*
Y939800D01*
X812800Y629920D02*
X856227D01*
X812800Y627888D02*
X856227D01*
X812800Y625856D02*
X856227D01*
X812800Y623824D02*
X856227D01*
X812800Y621792D02*
X856227D01*
X812800Y619760D02*
X856227D01*
X812800Y617728D02*
X856227D01*
X812800Y615696D02*
X856227D01*
X812800Y613664D02*
X856227D01*
X812800Y611632D02*
X856227D01*
X812800Y609600D02*
X856227D01*
X812800Y607568D02*
X856227D01*
X843280Y482600D02*
Y939800D01*
X841248Y482600D02*
Y939800D01*
X839216Y482600D02*
Y939800D01*
X837184Y482600D02*
Y939800D01*
X835152Y482600D02*
Y939800D01*
X833120Y482600D02*
Y939800D01*
X831088Y482600D02*
Y939800D01*
X829056Y482600D02*
Y939800D01*
X827024Y482600D02*
Y939800D01*
X824992Y482600D02*
Y939800D01*
X822960Y482600D02*
Y939800D01*
X820928Y482600D02*
Y939800D01*
X818896Y482600D02*
Y939800D01*
X816864Y482600D02*
Y939800D01*
X814832Y482600D02*
Y939800D01*
X812800Y482600D02*
Y939800D01*
Y482600D02*
Y939800D01*
X901417Y578837D02*
X910307Y569947D01*
X873513Y573024D02*
X907231D01*
X873513Y575056D02*
X905199D01*
X873513Y568960D02*
X911437D01*
X873513Y570992D02*
X909263D01*
X873513Y564896D02*
X917314D01*
X873513Y562864D02*
X917314D01*
X873513Y566928D02*
X915841D01*
X920496Y528073D02*
Y537584D01*
X917314D02*
Y566710D01*
X873513Y560832D02*
X917314D01*
X873513Y558800D02*
X917314D01*
X873513Y556768D02*
X917314D01*
X873513Y554736D02*
X917314D01*
X873513Y605536D02*
X898144D01*
X873513Y603504D02*
X898144D01*
X873513Y601472D02*
X898144D01*
X873513Y599440D02*
X898144D01*
X873513Y597408D02*
X898144D01*
X873513Y595376D02*
X898144D01*
X873513Y593344D02*
X898144D01*
X873513Y591312D02*
X898144D01*
X873513Y589280D02*
X898144D01*
X873513Y585216D02*
X898248D01*
X873513Y587248D02*
X898144D01*
X873513Y581152D02*
X899641D01*
X873513Y583184D02*
X898725D01*
X873513Y577088D02*
X903167D01*
X873513Y579120D02*
X901144D01*
X916432Y528073D02*
Y566816D01*
X918464Y528073D02*
Y537584D01*
X914400Y528073D02*
Y567343D01*
X920496Y482600D02*
Y510787D01*
X912368Y528073D02*
Y568322D01*
X910336Y528073D02*
Y569919D01*
X908304Y528073D02*
Y571951D01*
X906272Y528073D02*
Y573983D01*
X904240Y528073D02*
Y576015D01*
X918464Y482600D02*
Y510787D01*
X916432Y482600D02*
Y510787D01*
X914400Y482600D02*
Y510787D01*
X912368Y482600D02*
Y510787D01*
X910336Y482600D02*
Y510787D01*
X908304Y482600D02*
Y510787D01*
X906272Y482600D02*
Y510787D01*
X904240Y482600D02*
Y510787D01*
X900176Y528073D02*
Y580314D01*
X902208Y528073D02*
Y578047D01*
X898144Y528073D02*
Y586740D01*
X902208Y482600D02*
Y510787D01*
X900176Y482600D02*
Y510787D01*
X898144Y482600D02*
Y510787D01*
X896112Y482600D02*
Y510787D01*
X894080Y482600D02*
Y510787D01*
X892048Y482600D02*
Y510787D01*
X890016Y482600D02*
Y510787D01*
X887984Y482600D02*
Y510787D01*
X885952Y482600D02*
Y510787D01*
X883920Y482600D02*
Y510787D01*
X881888Y482600D02*
Y510787D01*
X879856Y482600D02*
Y510787D01*
X877824Y482600D02*
Y510787D01*
X875792Y482600D02*
Y510787D01*
X812800Y605536D02*
X856227D01*
X812800Y603504D02*
X856227D01*
X812800Y601472D02*
X856227D01*
X812800Y599440D02*
X856227D01*
X812800Y597408D02*
X856227D01*
X812800Y595376D02*
X856227D01*
X812800Y593344D02*
X856227D01*
X812800Y591312D02*
X856227D01*
X812800Y589280D02*
X856227D01*
X873513Y552704D02*
X917314D01*
X873513Y550672D02*
X917314D01*
X873513Y548640D02*
X917314D01*
X873513Y546608D02*
X917314D01*
X873513Y544576D02*
X917314D01*
X812800Y587248D02*
X856227D01*
X812800Y585216D02*
X856227D01*
X812800Y583184D02*
X856227D01*
X812800Y581152D02*
X856227D01*
X812800Y579120D02*
X856227D01*
X812800Y577088D02*
X856227D01*
X812800Y575056D02*
X856227D01*
X812800Y573024D02*
X856227D01*
X812800Y570992D02*
X856227D01*
X812800Y568960D02*
X856227D01*
X812800Y566928D02*
X856227D01*
X812800Y564896D02*
X856227D01*
X812800Y562864D02*
X856227D01*
X812800Y560832D02*
X856227D01*
X812800Y558800D02*
X856227D01*
X812800Y556768D02*
X856227D01*
X812800Y554736D02*
X856227D01*
X812800Y552704D02*
X856227D01*
X812800Y550672D02*
X856227D01*
X812800Y548640D02*
X856227D01*
X812800Y546608D02*
X856227D01*
X873513Y542544D02*
X917314D01*
X873513Y540512D02*
X917314D01*
X873513Y538480D02*
X917314D01*
X858758Y514589D02*
X860029Y513318D01*
X859536Y482600D02*
Y513811D01*
X873760Y482600D02*
Y510787D01*
X871728Y482600D02*
Y510787D01*
X869696Y482600D02*
Y510787D01*
X867664Y482600D02*
Y510787D01*
X865632Y482600D02*
Y510802D01*
X812800Y512064D02*
X861619D01*
X863600Y482600D02*
Y511169D01*
X861568Y482600D02*
Y512095D01*
X812800Y544576D02*
X856227D01*
X812800Y542544D02*
X856227D01*
X812800Y540512D02*
X856227D01*
X812800Y538480D02*
X856227D01*
X812800Y536448D02*
X856227D01*
X812800Y534416D02*
X856227D01*
X812800Y532384D02*
X856227D01*
X812800Y530352D02*
X856227D01*
X812800Y528320D02*
X856227D01*
X812800Y526288D02*
X856227D01*
X812800Y524256D02*
X856227D01*
X857504Y482600D02*
Y516179D01*
X812800Y522224D02*
X856227D01*
X812800Y518160D02*
X856609D01*
X812800Y520192D02*
X856242D01*
X812800Y514096D02*
X859251D01*
X812800Y516128D02*
X857535D01*
D11*
X1068070Y811530D02*
D03*
Y792530D02*
D03*
Y857250D02*
D03*
Y838250D02*
D03*
Y589330D02*
D03*
Y608330D02*
D03*
Y635050D02*
D03*
Y654050D02*
D03*
D12*
X1005790Y797560D02*
D03*
X986790D02*
D03*
X1047700Y796290D02*
D03*
X1028700D02*
D03*
Y593090D02*
D03*
X1047700D02*
D03*
X986790Y594360D02*
D03*
X1005790D02*
D03*
D13*
X1031113Y828929D02*
D03*
X1007999D02*
D03*
X985647D02*
D03*
Y625729D02*
D03*
X1007999D02*
D03*
X1031113D02*
D03*
D14*
X1008507Y895731D02*
D03*
Y692531D02*
D03*
D15*
X1107440Y835660D02*
X1127760D01*
X1107440Y775970D02*
X1127760D01*
X1068070D02*
X1107440D01*
X1014730D02*
X1068070D01*
Y792530D01*
X1007110Y797560D02*
Y800100D01*
X1008380Y797560D02*
Y828548D01*
Y782320D02*
Y797560D01*
X1007110D02*
X1008380D01*
X1005790D02*
X1007110D01*
X1087120Y859790D02*
X1106170D01*
X1069340D02*
X1087120D01*
Y801370D02*
Y859790D01*
X985647Y830580D02*
X986790D01*
X985520D02*
X985647D01*
X986790Y828929D02*
Y830580D01*
X947420Y828929D02*
X985647D01*
X937260D02*
X947420D01*
X937260Y826770D02*
Y828929D01*
X984250Y797560D02*
Y825500D01*
Y797560D02*
X985520Y796290D01*
X947420Y758190D02*
X1134110D01*
X947420D02*
Y828929D01*
Y755650D02*
Y758190D01*
X932180Y755650D02*
X947420D01*
X1008380Y782320D02*
X1014730Y775970D01*
X1049020Y797560D02*
X1050290Y796290D01*
X1049020Y797560D02*
Y824230D01*
X1045718Y827532D02*
X1049020Y824230D01*
X1032510Y827532D02*
X1045718D01*
X1005840Y801370D02*
X1007110Y800100D01*
X1007999Y828929D02*
X1008380Y828548D01*
X937260Y852170D02*
X957580Y872490D01*
X1031113Y828929D02*
X1032510Y827532D01*
X1031113Y828929D02*
Y872490D01*
X929640Y849630D02*
X932180Y852170D01*
X916940D02*
X929640D01*
X909320Y844550D02*
X916940Y852170D01*
X909320Y789940D02*
Y842010D01*
Y789940D02*
X918210Y781050D01*
X932180D01*
X1107440Y835660D02*
Y836930D01*
X1127760Y775970D02*
Y835660D01*
X1087120Y801370D02*
X1107440D01*
X1068070Y811530D02*
Y838250D01*
X957580Y872490D02*
X1031113D01*
X957580Y669290D02*
X1031113D01*
X1068070Y608330D02*
Y635050D01*
X1087120Y598170D02*
X1107440D01*
X1127760Y572770D02*
Y632460D01*
X1107440D02*
Y633730D01*
X918210Y577850D02*
X932180D01*
X909320Y586740D02*
X918210Y577850D01*
X909320Y586740D02*
Y638810D01*
Y641350D02*
X916940Y648970D01*
X929640D01*
Y646430D02*
X932180Y648970D01*
X1031113Y625729D02*
Y669290D01*
Y625729D02*
X1032510Y624332D01*
X937260Y648970D02*
X957580Y669290D01*
X1007999Y625729D02*
X1008380Y625348D01*
X1005840Y598170D02*
X1007110Y596900D01*
X1032510Y624332D02*
X1045718D01*
X1049020Y621030D01*
Y594360D02*
Y621030D01*
Y594360D02*
X1050290Y593090D01*
X1008380Y579120D02*
X1014730Y572770D01*
X932180Y552450D02*
X947420D01*
Y554990D01*
Y625729D01*
Y554990D02*
X1134110D01*
X984250Y594360D02*
X985520Y593090D01*
X984250Y594360D02*
Y622300D01*
X937260Y623570D02*
Y625729D01*
X947420D01*
X985647D01*
X986790D02*
Y627380D01*
X985520D02*
X985647D01*
X986790D01*
X1087120Y598170D02*
Y656590D01*
X1069340D02*
X1087120D01*
X1106170D01*
X1005790Y594360D02*
X1007110D01*
X1008380D01*
Y579120D02*
Y594360D01*
Y625348D01*
X1007110Y594360D02*
Y596900D01*
X1068070Y572770D02*
Y589330D01*
X1014730Y572770D02*
X1068070D01*
X1107440D01*
X1127760D01*
X1107440Y632460D02*
X1127760D01*
D16*
X1134110Y758190D02*
X1139190Y763270D01*
Y852170D01*
X1129030Y862330D02*
X1139190Y852170D01*
X1107440Y862330D02*
X1129030D01*
X1107440Y659130D02*
X1129030D01*
X1139190Y648970D01*
Y560070D02*
Y648970D01*
X1134110Y554990D02*
X1139190Y560070D01*
D17*
X988060Y848360D02*
X991870Y852170D01*
X986790Y828929D02*
X988060Y830199D01*
Y848360D01*
X991870Y852170D02*
X1018540D01*
X1019810Y850900D01*
Y814070D02*
Y850900D01*
Y814070D02*
X1028700Y805180D01*
Y796290D02*
Y805180D01*
Y593090D02*
Y601980D01*
X1019810Y610870D02*
X1028700Y601980D01*
X1019810Y610870D02*
Y647700D01*
X1018540Y648970D02*
X1019810Y647700D01*
X991870Y648970D02*
X1018540D01*
X988060Y626999D02*
Y645160D01*
X986790Y625729D02*
X988060Y626999D01*
Y645160D02*
X991870Y648970D01*
D18*
X1169670Y750570D02*
D03*
X896620Y885190D02*
D03*
Y681990D02*
D03*
X1169670Y547370D02*
D03*
D19*
X932180Y755650D02*
D03*
X1107440Y775970D02*
D03*
X932180Y826770D02*
D03*
X1107440Y836930D02*
D03*
Y572770D02*
D03*
X932180Y623570D02*
D03*
X1107440Y633730D02*
D03*
X932180Y552450D02*
D03*
D20*
Y781050D02*
D03*
X1107440Y801370D02*
D03*
X932180Y852170D02*
D03*
X1107440Y862330D02*
D03*
Y598170D02*
D03*
X932180Y648970D02*
D03*
X1107440Y659130D02*
D03*
X932180Y577850D02*
D03*
M02*
