%FSLAX44Y44*%
%MOMM*%
G71*
G01*
G75*
G04 Layer_Physical_Order=1*
G04 Layer_Color=255*
%ADD10R,1.9050X2.1590*%
%ADD11C,0.7620*%
%ADD12C,1.2700*%
%ADD13C,3.0480*%
%ADD14C,0.5080*%
%ADD15C,3.0000*%
%ADD16O,3.0000X6.0000*%
%ADD17O,6.0000X3.0000*%
%ADD18O,5.0000X3.0000*%
%ADD19R,2.1590X2.1590*%
%ADD20C,2.1590*%
%ADD21R,2.1590X2.1590*%
%ADD22R,3.0000X3.0000*%
%ADD23C,3.0480*%
%ADD24C,3.5000*%
%ADD25O,20.0000X3.0000*%
%ADD26C,1.2700*%
%ADD27C,1.7780*%
D10*
X2509266Y1894078D02*
D03*
X2483866D02*
D03*
X2510536Y1842008D02*
D03*
X2485136D02*
D03*
Y1789938D02*
D03*
X2510536D02*
D03*
X1857756Y1894078D02*
D03*
X1832356D02*
D03*
X1857756Y1841754D02*
D03*
X1832356D02*
D03*
X1833372Y1789938D02*
D03*
X1858772D02*
D03*
X2020316Y1895348D02*
D03*
X1994916D02*
D03*
X2020316Y1842008D02*
D03*
X1994916D02*
D03*
Y1789938D02*
D03*
X2020316D02*
D03*
X2173986Y1896618D02*
D03*
X2148586D02*
D03*
X2173986Y1842008D02*
D03*
X2148586D02*
D03*
Y1789938D02*
D03*
X2173986D02*
D03*
X2342896Y1896618D02*
D03*
X2317496D02*
D03*
X2344166Y1842008D02*
D03*
X2318766D02*
D03*
Y1789938D02*
D03*
X2344166D02*
D03*
X2657856Y1894078D02*
D03*
X2632456D02*
D03*
X2657856Y1842008D02*
D03*
X2632456D02*
D03*
Y1789938D02*
D03*
X2657856D02*
D03*
X2795016Y1894078D02*
D03*
X2769616D02*
D03*
X2795016Y1842008D02*
D03*
X2769616D02*
D03*
Y1789938D02*
D03*
X2795016D02*
D03*
X2943606Y1894078D02*
D03*
X2918206D02*
D03*
X2943606Y1842008D02*
D03*
X2918206D02*
D03*
Y1789938D02*
D03*
X2943606D02*
D03*
X1691386Y1894078D02*
D03*
X1665986D02*
D03*
X1691386Y1842008D02*
D03*
X1665986D02*
D03*
Y1789938D02*
D03*
X1691386D02*
D03*
X2429256Y1894078D02*
D03*
X2454656D02*
D03*
X2430526Y1842008D02*
D03*
X2455926D02*
D03*
X2430526Y1789938D02*
D03*
X2455926D02*
D03*
X1777746Y1894078D02*
D03*
X1803146D02*
D03*
X1777746Y1841754D02*
D03*
X1803146D02*
D03*
X1778762Y1789938D02*
D03*
X1804162D02*
D03*
X1940306Y1895348D02*
D03*
X1965706D02*
D03*
X1940306Y1842008D02*
D03*
X1965706D02*
D03*
X1939036Y1789938D02*
D03*
X1964436D02*
D03*
X2093976Y1896618D02*
D03*
X2119376D02*
D03*
X2093976Y1842008D02*
D03*
X2119376D02*
D03*
X2093976Y1789938D02*
D03*
X2119376D02*
D03*
X2262886Y1896618D02*
D03*
X2288286D02*
D03*
X2264156Y1842008D02*
D03*
X2289556D02*
D03*
X2264156Y1789938D02*
D03*
X2289556D02*
D03*
X2577846Y1894078D02*
D03*
X2603246D02*
D03*
X2577846Y1842008D02*
D03*
X2603246D02*
D03*
X2577846Y1789938D02*
D03*
X2603246D02*
D03*
X2715006Y1894078D02*
D03*
X2740406D02*
D03*
X2715006Y1842008D02*
D03*
X2740406D02*
D03*
X2715006Y1789938D02*
D03*
X2740406D02*
D03*
X2863596Y1894078D02*
D03*
X2888996D02*
D03*
X2863596Y1842008D02*
D03*
X2888996D02*
D03*
X2863596Y1789938D02*
D03*
X2888996D02*
D03*
X1611376Y1894078D02*
D03*
X1636776D02*
D03*
X1611376Y1842008D02*
D03*
X1636776D02*
D03*
X1611376Y1789938D02*
D03*
X1636776D02*
D03*
D11*
X1508506Y808228D02*
X1567942Y867664D01*
Y1004316D01*
X1337056Y687578D02*
X2986786D01*
X1311656Y712978D02*
X1337056Y687578D01*
X1311656Y712978D02*
Y809498D01*
X1329436Y790448D02*
X1347216Y808228D01*
X1490726Y847598D02*
Y1002538D01*
X1471676Y828548D02*
X1490726Y847598D01*
X1330706Y828548D02*
X1471676D01*
X1311656Y809498D02*
X1330706Y828548D01*
X1691386Y1842008D02*
X1723136D01*
X1691386Y1894078D02*
X1739646D01*
X1691386Y1789938D02*
Y1842008D01*
X2943606D02*
X2966466D01*
X2888996D02*
X2918206D01*
X2943606Y1789938D02*
Y1842008D01*
X2888996Y1789938D02*
X2918206D01*
X2795016Y1894078D02*
X2817876D01*
X2795016Y1842008D02*
X2817876D01*
X2795016Y1789938D02*
Y1842008D01*
X2740406D02*
X2769616D01*
X2740406Y1789938D02*
X2769616D01*
X2740406Y1894078D02*
X2769616D01*
X2509266D02*
X2529586D01*
X2510536Y1842008D02*
X2530856D01*
X2455926D02*
X2485136D01*
X2455926Y1789938D02*
X2485136D01*
X2454656Y1894078D02*
X2483866D01*
X2603246D02*
X2632456D01*
X2603246Y1842008D02*
X2632456D01*
X2603246Y1789938D02*
X2632456D01*
X2657856D02*
Y1842008D01*
X2510536Y1789938D02*
Y1842008D01*
X2657856D02*
X2680716D01*
X2657856Y1894078D02*
X2680716D01*
X2342896Y1896618D02*
X2365756D01*
X2344166Y1842008D02*
X2368296D01*
X2288286Y1896618D02*
X2317496D01*
X2289556Y1842008D02*
X2318766D01*
X2289556Y1789938D02*
X2318766D01*
X2344166D02*
Y1842008D01*
X2173986Y1789938D02*
Y1842008D01*
X2119376D02*
X2148586D01*
X2119376Y1789938D02*
X2148586D01*
X2119376Y1896618D02*
X2148586D01*
X2173986D02*
X2195576D01*
X2173986Y1842008D02*
X2200656D01*
X1965706Y1895348D02*
X1994916D01*
X1965706Y1842008D02*
X1994916D01*
X1964436Y1789938D02*
X1994916D01*
X2020316D02*
Y1842008D01*
Y1895348D02*
X2045716D01*
X2020316Y1842008D02*
X2049526D01*
X1857756Y1894078D02*
X1878076D01*
X1858010Y1842008D02*
X1884426D01*
X1857756Y1790954D02*
Y1841754D01*
X1804162Y1789938D02*
X1833372D01*
X1803146Y1841754D02*
X1832356D01*
X1803146Y1894078D02*
X1832356D01*
X2529586Y1119378D02*
X2567686D01*
X2568956Y1120648D01*
X2534666Y1373378D02*
X2584196D01*
X2537206Y1170178D02*
X2590546D01*
X2529586Y1220978D02*
X2636266D01*
X2529586Y1271778D02*
X2678176D01*
X2039366Y1203198D02*
Y1346708D01*
X2020316Y1425448D02*
X2095246Y1500378D01*
X2020316Y1270508D02*
Y1271778D01*
Y1425448D01*
X2133346Y1318768D02*
Y1463548D01*
X2119376Y1304798D02*
X2133346Y1318768D01*
X2055876Y1304798D02*
X2119376D01*
X2220976Y1750568D02*
Y1784858D01*
X2163826Y1331468D02*
Y1417828D01*
X2148586Y1295908D02*
Y1397508D01*
X2466086Y1246378D02*
Y1364488D01*
X1829816Y560578D02*
X1831086Y559308D01*
Y481838D02*
Y559308D01*
X1256411Y1368816D02*
X1304036Y1321191D01*
X1256411Y1368816D02*
Y1383655D01*
X1257046Y1384290D01*
X1304036Y1133348D02*
Y1321191D01*
X1256411Y1383655D02*
Y1414653D01*
X1269746Y1427988D01*
X1311656D01*
X1326896Y1370838D02*
Y1412748D01*
X1311656Y1427988D02*
X1326896Y1412748D01*
X2909316Y1671828D02*
X2937256Y1643888D01*
Y1448308D02*
Y1643888D01*
Y1448308D02*
X2952496Y1433068D01*
X3000756D01*
X3017266Y1449578D01*
Y1648968D01*
X3042666Y1674368D01*
X3125216D01*
X3144266Y1461008D02*
Y1655318D01*
X3125216Y1674368D02*
X3144266Y1655318D01*
X1754886Y1350518D02*
Y1425448D01*
X2001266Y1671828D01*
X2909316D01*
X1776476Y1320038D02*
Y1401318D01*
X2013966Y1638808D01*
X2882646D01*
X2909316Y1612138D01*
Y1436878D02*
Y1612138D01*
Y1436878D02*
X2933446Y1412748D01*
X3019806D01*
X3032506Y1425448D01*
Y1636268D01*
X3049016Y1652778D01*
X3129026Y1433068D02*
X3148076Y1414018D01*
X3049016Y1652778D02*
X3112516D01*
X3129026Y1636268D01*
Y1433068D02*
Y1636268D01*
X1347216Y808228D02*
X1508506D01*
X3182366Y730758D02*
Y1045718D01*
X3162046Y1066038D02*
X3182366Y1045718D01*
X2986786Y752348D02*
Y1057148D01*
X2994406Y1064768D01*
X3017266D01*
X1409192Y731520D02*
Y755318D01*
Y731520D02*
X1415796Y724916D01*
X1486408Y725170D02*
X1486662Y724916D01*
X1486408Y725170D02*
Y725678D01*
Y672338D02*
X1506220Y652526D01*
Y601218D02*
Y652526D01*
X1453642Y548640D02*
X1506220Y601218D01*
X1168146Y548640D02*
X1453642D01*
X1147826Y568960D02*
X1168146Y548640D01*
X1147826Y568960D02*
Y830580D01*
X1178814Y861568D01*
X1271016D01*
X1415796Y724916D02*
X1486662D01*
X1167892Y886968D02*
X1271016D01*
X1121156Y840232D02*
X1167892Y886968D01*
X1121156Y538988D02*
Y840232D01*
Y538988D02*
X1166876Y493268D01*
X3150616Y699008D02*
X3182366Y730758D01*
X2976664Y699008D02*
X2980473Y702818D01*
X2993098D01*
X2996909Y699008D01*
X3150616D01*
X1329436Y717804D02*
Y790448D01*
Y717804D02*
X1348232Y699008D01*
X2976664D01*
X1383792Y711708D02*
Y755318D01*
X1393444Y564388D02*
Y671068D01*
Y564388D02*
X1395476Y562356D01*
Y561340D02*
Y562356D01*
X1166876Y493268D02*
X1333754D01*
D12*
X1570736Y1749298D02*
X2151126D01*
X1562481Y1741043D02*
Y1950593D01*
X1570736Y1749298D02*
X1611376Y1789938D01*
X1562481Y1741043D02*
X1570736Y1749298D01*
X1546098Y1724660D02*
X1562481Y1741043D01*
X1546098Y1610868D02*
Y1724660D01*
X1467358Y1532128D02*
X1546098Y1610868D01*
X1004316Y1578610D02*
Y1696974D01*
X1047800Y1740458D01*
Y1794510D01*
X2182876Y753618D02*
X2228596Y799338D01*
X1856486Y753618D02*
X2182876D01*
X1812036Y798068D02*
X1856486Y753618D01*
X1812036Y798068D02*
Y808228D01*
X1779016Y841248D02*
X1812036Y808228D01*
X2228596Y799338D02*
Y968248D01*
X2152396Y886968D02*
X2203196Y937768D01*
X1931416Y1007618D02*
X2052066Y886968D01*
X1636776Y1894078D02*
X1665986D01*
X1636776Y1842008D02*
X1665986D01*
X1636776Y1789938D02*
X1665986D01*
X1611376Y1842008D02*
Y1894078D01*
Y1918208D01*
X2888996Y1894078D02*
X2918206D01*
X2943606D02*
X2962656D01*
X2863596Y1842008D02*
Y1894078D01*
Y1916938D01*
X2715006Y1842008D02*
Y1894078D01*
Y1915668D01*
X2577846Y1842008D02*
Y1894078D01*
Y1915668D01*
X2264156Y1842008D02*
Y1895348D01*
X2262886Y1896618D02*
X2264156Y1895348D01*
X2262886Y1896618D02*
Y1918208D01*
X1940306Y1842008D02*
Y1895348D01*
Y1916938D01*
X1777746Y1841754D02*
Y1894078D01*
Y1918208D01*
X1323086Y1532128D02*
X1467358D01*
X2966466Y1947418D02*
Y1960118D01*
X2948686Y1977898D02*
X2966466Y1960118D01*
X2819146Y1947418D02*
Y1976628D01*
X2679446Y1947418D02*
Y1976628D01*
X2537206Y1977898D02*
X2948686D01*
X2537206Y1947418D02*
Y1977898D01*
X2373376Y1947418D02*
Y1977898D01*
X2537206D01*
X2050796Y1947418D02*
Y1976628D01*
X2203196Y1977898D02*
X2373376D01*
X2203196Y1947418D02*
Y1977898D01*
X1886966Y1947418D02*
Y1977898D01*
X2203196D01*
X1721866Y1947418D02*
Y1976628D01*
X1562481Y1950593D02*
X1589786Y1977898D01*
X1886966D01*
X2430526Y1842008D02*
Y1914398D01*
X2093976Y1842008D02*
Y1896618D01*
Y1916938D01*
X2151126Y1749298D02*
X2179066Y1721358D01*
X2253996D01*
X2848356Y1746758D02*
X2863596Y1761998D01*
Y1789938D01*
X2715006Y1748028D02*
Y1789938D01*
X2577846Y1748028D02*
Y1789938D01*
X2430526Y1749298D02*
Y1789938D01*
X2279396Y1746758D02*
X2848356D01*
X2264156Y1734971D02*
Y1789938D01*
X2253996Y1721358D02*
X2279396Y1746758D01*
X2093976Y1751838D02*
Y1789938D01*
X1939036Y1750568D02*
Y1789938D01*
X1778762Y1752092D02*
Y1789938D01*
X2966466Y1947418D02*
X2994406D01*
X3019806Y1922018D01*
Y1701038D02*
Y1922018D01*
X2979166Y1660398D02*
X3019806Y1701038D01*
X2979166Y1462278D02*
Y1660398D01*
X1273556Y1375918D02*
X1321816Y1327658D01*
Y1182878D02*
Y1327658D01*
X1320546Y1181608D02*
X1321816Y1182878D01*
X1216152Y1448308D02*
X1330706D01*
X1768856Y1007618D02*
X1931416D01*
X2203196Y937768D02*
Y956818D01*
X1895856Y1203198D02*
X1933702D01*
X1941604Y1195296D01*
X1978328D01*
X1271016Y912368D02*
X1273455D01*
X1297940Y887883D01*
Y649224D02*
Y887883D01*
Y649224D02*
X1307846Y639318D01*
X1209802Y603758D02*
X1257046D01*
X1201420Y612140D02*
X1209802Y603758D01*
X1215390Y1449070D02*
X1216152Y1448308D01*
X1295908Y1504950D02*
X1323086Y1532128D01*
X1219200Y1504950D02*
X1295908D01*
X1209040Y570230D02*
X1292098D01*
X1307846Y585978D01*
Y592328D01*
X1272032Y1532128D02*
X1273556D01*
X2033270Y1619250D02*
X2766060D01*
X1993900Y1579880D02*
X2033270Y1619250D01*
X1587500Y1675130D02*
X1944370D01*
X1570990Y1658620D02*
X1587500Y1675130D01*
X1196340Y1557020D02*
X1328420D01*
X1374140Y1602740D01*
X1696720Y1499870D02*
X1781810D01*
X1824990Y1543050D01*
X1913890Y1498600D02*
X2002790D01*
X2073910Y1569720D01*
X2626360D01*
X2713990Y1482090D01*
Y1386840D02*
Y1482090D01*
Y1386840D02*
X2762522D01*
X2766314Y1383048D01*
X1255522Y1260348D02*
X1273556D01*
X1153414Y1362456D02*
X1255522Y1260348D01*
X1264158Y1522730D02*
X1273556Y1532128D01*
X1004316Y1578610D02*
X1060196Y1522730D01*
X1153414D01*
X1264158D01*
X1153414Y1362456D02*
Y1522730D01*
X2052066Y886968D02*
X2152396D01*
D13*
X2669286Y752348D02*
Y1074928D01*
X2981706Y1243838D02*
Y1383538D01*
X3356356D01*
D14*
X1695404Y574248D02*
X1696974Y572678D01*
D15*
X1049342Y1661092D02*
D03*
X1519342D02*
D03*
X1173480Y650240D02*
D03*
X3186176Y1988058D02*
D03*
X3236976D02*
D03*
X3287776D02*
D03*
X3338576D02*
D03*
X3389376D02*
D03*
X3490976D02*
D03*
X3440176D02*
D03*
X3188716Y1703578D02*
D03*
X3239516D02*
D03*
X3290316D02*
D03*
X3341116D02*
D03*
X3391916D02*
D03*
X3493516D02*
D03*
X3442716D02*
D03*
X3539490Y1845310D02*
D03*
X3488690D02*
D03*
X3437890D02*
D03*
X3387090D02*
D03*
X3336290D02*
D03*
X3234690D02*
D03*
X3285490D02*
D03*
X2766314Y1501848D02*
D03*
Y1462248D02*
D03*
Y1422648D02*
D03*
Y1383048D02*
D03*
Y1343448D02*
D03*
Y1303848D02*
D03*
Y1264248D02*
D03*
Y1224648D02*
D03*
Y1185048D02*
D03*
Y1145448D02*
D03*
Y1105848D02*
D03*
Y1066248D02*
D03*
Y1026648D02*
D03*
Y987048D02*
D03*
Y947448D02*
D03*
Y907848D02*
D03*
Y868248D02*
D03*
X2806314Y1541448D02*
D03*
Y1501848D02*
D03*
Y1462248D02*
D03*
Y1422648D02*
D03*
Y1383048D02*
D03*
Y1343448D02*
D03*
Y1303848D02*
D03*
Y1264248D02*
D03*
Y1224648D02*
D03*
Y1185048D02*
D03*
Y1145448D02*
D03*
Y1105848D02*
D03*
Y1066248D02*
D03*
Y1026648D02*
D03*
Y987048D02*
D03*
Y947448D02*
D03*
Y907848D02*
D03*
Y868248D02*
D03*
X3060532Y1501804D02*
D03*
Y1462204D02*
D03*
Y1422604D02*
D03*
Y1383004D02*
D03*
Y1343404D02*
D03*
Y1303804D02*
D03*
Y1264204D02*
D03*
Y1224604D02*
D03*
Y1185004D02*
D03*
Y1145404D02*
D03*
Y1105804D02*
D03*
Y1066204D02*
D03*
Y1026604D02*
D03*
Y987004D02*
D03*
Y947404D02*
D03*
Y907804D02*
D03*
Y868204D02*
D03*
X3100532Y1541404D02*
D03*
Y1501804D02*
D03*
Y1462204D02*
D03*
Y1422604D02*
D03*
Y1383004D02*
D03*
Y1343404D02*
D03*
Y1303804D02*
D03*
Y1264204D02*
D03*
Y1224604D02*
D03*
Y1185004D02*
D03*
Y1145404D02*
D03*
Y1105804D02*
D03*
Y1066204D02*
D03*
Y1026604D02*
D03*
Y987004D02*
D03*
Y947404D02*
D03*
Y907804D02*
D03*
Y868204D02*
D03*
X1196340Y1607820D02*
D03*
Y1557020D02*
D03*
X1954276Y785848D02*
D03*
Y922048D02*
D03*
D16*
X1049342Y1006092D02*
D03*
X1519342D02*
D03*
X1173480Y1701800D02*
D03*
X1004570Y2024634D02*
D03*
Y407416D02*
D03*
X3689858Y401828D02*
D03*
X3688334Y2029714D02*
D03*
D17*
X2430780Y650240D02*
D03*
Y1701800D02*
D03*
D18*
X964946Y1077722D02*
D03*
Y1351534D02*
D03*
X652946Y1351788D02*
D03*
X653288Y1077722D02*
D03*
X2135276Y921512D02*
D03*
Y785848D02*
D03*
D19*
X2274316Y1507998D02*
D03*
X1779016Y1947418D02*
D03*
X1941576D02*
D03*
X2093976D02*
D03*
X2261616D02*
D03*
X2429256D02*
D03*
X2577846D02*
D03*
X2715006D02*
D03*
X2863596D02*
D03*
X2382266Y1507998D02*
D03*
X1611376Y1947418D02*
D03*
D20*
X2248916Y1507998D02*
D03*
X2223516D02*
D03*
X1954276Y892048D02*
D03*
Y866648D02*
D03*
Y841248D02*
D03*
X1855216Y1947418D02*
D03*
X1829816D02*
D03*
X1804416D02*
D03*
X2017776D02*
D03*
X1992376D02*
D03*
X1966976D02*
D03*
X2170176D02*
D03*
X2144776D02*
D03*
X2119376D02*
D03*
X2337816D02*
D03*
X2312416D02*
D03*
X2287016D02*
D03*
X2505456D02*
D03*
X2480056D02*
D03*
X2454656D02*
D03*
X2654046D02*
D03*
X2628646D02*
D03*
X2603246D02*
D03*
X2791206D02*
D03*
X2765806D02*
D03*
X2740406D02*
D03*
X2939796D02*
D03*
X2914396D02*
D03*
X2888996D02*
D03*
X2306066Y1507998D02*
D03*
X2331466D02*
D03*
X2356866D02*
D03*
X1687576Y1947418D02*
D03*
X1662176D02*
D03*
X1636776D02*
D03*
X1271016Y836168D02*
D03*
Y759968D02*
D03*
Y785368D02*
D03*
Y810768D02*
D03*
Y861568D02*
D03*
Y886968D02*
D03*
Y912368D02*
D03*
Y937768D02*
D03*
X1273556Y1481328D02*
D03*
Y1532128D02*
D03*
Y1582928D02*
D03*
Y1209548D02*
D03*
Y1260348D02*
D03*
Y1311148D02*
D03*
X1359916Y527558D02*
D03*
X1309116D02*
D03*
X1258316D02*
D03*
X1257046Y639318D02*
D03*
X1307846D02*
D03*
X1358646D02*
D03*
X1427226D02*
D03*
X1478026D02*
D03*
X1528826D02*
D03*
X1358392Y1471598D02*
D03*
Y1446198D02*
D03*
Y1420798D02*
D03*
Y1395398D02*
D03*
Y1369998D02*
D03*
Y1344598D02*
D03*
Y1319198D02*
D03*
Y1293798D02*
D03*
Y1258238D02*
D03*
Y1232838D02*
D03*
Y1207438D02*
D03*
Y1182038D02*
D03*
Y1156638D02*
D03*
Y1131238D02*
D03*
Y1105838D02*
D03*
Y1080438D02*
D03*
Y1029638D02*
D03*
Y1004238D02*
D03*
Y978838D02*
D03*
Y953438D02*
D03*
Y928038D02*
D03*
Y902638D02*
D03*
Y877238D02*
D03*
Y851838D02*
D03*
X1790192Y755318D02*
D03*
Y780718D02*
D03*
X1764792Y755318D02*
D03*
Y780718D02*
D03*
X1739392Y755318D02*
D03*
Y780718D02*
D03*
X1713992Y755318D02*
D03*
Y780718D02*
D03*
X1688592Y755318D02*
D03*
Y780718D02*
D03*
X1663192Y755318D02*
D03*
Y780718D02*
D03*
X1637792Y755318D02*
D03*
Y780718D02*
D03*
X1612392Y755318D02*
D03*
Y780718D02*
D03*
X1586992Y755318D02*
D03*
Y780718D02*
D03*
X1561592Y755318D02*
D03*
Y780718D02*
D03*
X1536192Y755318D02*
D03*
Y780718D02*
D03*
X1510792Y755318D02*
D03*
Y780718D02*
D03*
X1485392Y755318D02*
D03*
Y780718D02*
D03*
X1459992Y755318D02*
D03*
Y780718D02*
D03*
X1434592Y755318D02*
D03*
Y780718D02*
D03*
X1409192Y755318D02*
D03*
Y780718D02*
D03*
X1383792Y755318D02*
D03*
Y780718D02*
D03*
X1358392Y755318D02*
D03*
Y780718D02*
D03*
X1838452Y831518D02*
D03*
Y856918D02*
D03*
Y882318D02*
D03*
Y907718D02*
D03*
Y933118D02*
D03*
Y958518D02*
D03*
Y983918D02*
D03*
Y1034718D02*
D03*
Y1060118D02*
D03*
Y1085518D02*
D03*
Y1110918D02*
D03*
Y1136318D02*
D03*
Y1161718D02*
D03*
Y1187118D02*
D03*
Y1212518D02*
D03*
Y1263318D02*
D03*
Y1288718D02*
D03*
Y1314118D02*
D03*
Y1339518D02*
D03*
Y1364918D02*
D03*
Y806118D02*
D03*
X2198038Y1436596D02*
D03*
X2223438D02*
D03*
X2248838D02*
D03*
X2274238D02*
D03*
X2305988D02*
D03*
X2331388D02*
D03*
X2356788D02*
D03*
X2382188D02*
D03*
X2407588D02*
D03*
X2432988D02*
D03*
X2458388D02*
D03*
X2483788D02*
D03*
X2407588Y1411196D02*
D03*
X2432988D02*
D03*
X2458388D02*
D03*
X2483788D02*
D03*
X2499028Y1373096D02*
D03*
Y1347696D02*
D03*
Y1322296D02*
D03*
Y1296896D02*
D03*
Y1271496D02*
D03*
Y1246096D02*
D03*
Y1220696D02*
D03*
Y1195296D02*
D03*
Y1169896D02*
D03*
Y1144496D02*
D03*
Y1119096D02*
D03*
X1978328Y1373096D02*
D03*
Y1347696D02*
D03*
Y1322296D02*
D03*
Y1296896D02*
D03*
Y1271496D02*
D03*
Y1246096D02*
D03*
Y1220696D02*
D03*
Y1195296D02*
D03*
Y1169896D02*
D03*
Y1144496D02*
D03*
Y1119096D02*
D03*
X2065958Y1023846D02*
D03*
X2040558D02*
D03*
X2091358D02*
D03*
X2116758D02*
D03*
X2142158D02*
D03*
X2167558D02*
D03*
X2203118D02*
D03*
X2228518D02*
D03*
X2253918D02*
D03*
X2279318D02*
D03*
X2228518Y1049246D02*
D03*
X2253918D02*
D03*
X1273556Y1375918D02*
D03*
D21*
X1954276Y815848D02*
D03*
X1838452Y1390318D02*
D03*
X1978328Y1093696D02*
D03*
X2499028D02*
D03*
D22*
X3541776Y1988058D02*
D03*
X3544316Y1703578D02*
D03*
X3183890Y1845310D02*
D03*
X2766314Y1541448D02*
D03*
X3060532Y1541404D02*
D03*
D23*
X1047800Y1964510D02*
D03*
Y1794510D02*
D03*
X1447800Y1964510D02*
D03*
Y1794510D02*
D03*
X2981706Y1243838D02*
D03*
X3356356Y1383538D02*
D03*
X2669286Y752348D02*
D03*
Y1074928D02*
D03*
X1831086Y481838D02*
D03*
X1829816Y560578D02*
D03*
D24*
X1402800Y1794510D02*
D03*
X1092800Y1964510D02*
D03*
D25*
X2356104Y922020D02*
D03*
Y785876D02*
D03*
D26*
X1567942Y1004316D02*
D03*
X2678176Y1271778D02*
D03*
X2529586D02*
D03*
X1383792Y711708D02*
D03*
X1393444Y671068D02*
D03*
X1395476Y561340D02*
D03*
X1333754Y493268D02*
D03*
D27*
X3017012Y1064768D02*
D03*
X1723136Y1842008D02*
D03*
X1739646Y1894078D02*
D03*
X1611376Y1918208D02*
D03*
X2962656Y1894078D02*
D03*
X2966466Y1842008D02*
D03*
X2863596Y1916938D02*
D03*
X2817876Y1894078D02*
D03*
Y1842008D02*
D03*
X2715006Y1915668D02*
D03*
X2529586Y1894078D02*
D03*
X2530856Y1842008D02*
D03*
X2430526Y1914398D02*
D03*
X2577846Y1915668D02*
D03*
X2680716Y1842008D02*
D03*
Y1894078D02*
D03*
X2365756Y1896618D02*
D03*
X2368296Y1842008D02*
D03*
X2262886Y1918208D02*
D03*
X2195576Y1896618D02*
D03*
X2200656Y1842008D02*
D03*
X1940306Y1916938D02*
D03*
X2045716Y1895348D02*
D03*
X2049526Y1842008D02*
D03*
X1878076Y1894078D02*
D03*
X1884426Y1842008D02*
D03*
X1777746Y1918208D02*
D03*
X2529586Y1119378D02*
D03*
X2568956Y1120648D02*
D03*
X2584196Y1373378D02*
D03*
X2534666D02*
D03*
X2590546Y1170178D02*
D03*
X2537206D02*
D03*
X2636266Y1220978D02*
D03*
X2529586D02*
D03*
X2039366Y1203198D02*
D03*
X2095246Y1500378D02*
D03*
X2039366Y1346708D02*
D03*
X2020316Y1271778D02*
D03*
X2133346Y1463548D02*
D03*
X2055876Y1304798D02*
D03*
X2220976Y1784858D02*
D03*
Y1750568D02*
D03*
X2163826Y1417828D02*
D03*
Y1331468D02*
D03*
X2148586Y1397508D02*
D03*
Y1295908D02*
D03*
X2466086Y1364488D02*
D03*
Y1246378D02*
D03*
X2966466Y1947418D02*
D03*
X2819146D02*
D03*
X2679446D02*
D03*
X2537206D02*
D03*
X2373376D02*
D03*
X2203196D02*
D03*
X2050796D02*
D03*
X1886966D02*
D03*
X1721866D02*
D03*
X2093976Y1916938D02*
D03*
X1778762Y1752092D02*
D03*
X2979166Y1462278D02*
D03*
X1320546Y1181608D02*
D03*
X1304036Y1133348D02*
D03*
X1326896Y1370838D02*
D03*
X1257046Y603758D02*
D03*
X1330706Y1448308D02*
D03*
X1307846Y592328D02*
D03*
X1779016Y841248D02*
D03*
X2228596Y968248D02*
D03*
X1768856Y1007618D02*
D03*
X2203196Y956818D02*
D03*
X1754886Y1350518D02*
D03*
X3144266Y1461008D02*
D03*
X1776476Y1320038D02*
D03*
X3148076Y1414018D02*
D03*
X3162046Y1066038D02*
D03*
X1490726Y1002538D02*
D03*
X2986786Y687578D02*
D03*
Y752348D02*
D03*
X1895856Y1203198D02*
D03*
X1201420Y612140D02*
D03*
X1215390Y1449070D02*
D03*
X1219200Y1504950D02*
D03*
X1209040Y570230D02*
D03*
X2766060Y1619250D02*
D03*
X1993900Y1579880D02*
D03*
X1944370Y1675130D02*
D03*
X1570990Y1658620D02*
D03*
X1374140Y1602740D02*
D03*
X1696720Y1499870D02*
D03*
X1824990Y1543050D02*
D03*
X1913890Y1498600D02*
D03*
X1486408Y725678D02*
D03*
Y672338D02*
D03*
M02*
