M48
;Layer_Color=9474304
;FILE_FORMAT=4:4
METRIC,LZ
;TYPE=PLATED
T9F00S00C3.0000
%
G90
G05
T09
G00X03689858Y00416828
M15
G01Y00386828
M16
G00X0100457Y00422416
M15
G01Y00392416
M16
G00X01049342Y01021092
M15
G01Y00991092
M16
G00X01519342Y01021092
M15
G01Y00991092
M16
G00X02145276Y00921512
M15
G01X02125276
M16
G00X02145276Y00785848
M15
G01X02125276
M16
G00X02441104Y00785876
M15
G01X02271104
M16
G00X02441104Y0092202
M15
G01X02271104
M16
G00X0244578Y0065024
M15
G01X0241578
M16
G00X00974946Y01077722
M15
G01X00954946
M16
G00X00974946Y01351534
M15
G01X00954946
M16
G00X00662946Y01351788
M15
G01X00642946
M16
G00X00663288Y01077722
M15
G01X00643288
M16
G00X0117348Y017168
M15
G01Y016868
M16
G00X0244578Y017018
M15
G01X0241578
M16
G00X03688334Y02044714
M15
G01Y02014714
M16
G00X0100457Y02039634
M15
G01Y02009634
M16
M17
M30
