M48
;Layer_Color=9474304
;FILE_FORMAT=4:4
METRIC,LZ
;TYPE=PLATED
T1F00S00C0.5080
T2F00S00C0.7112
T3F00S00C0.8382
T4F00S00C1.1430
T5F00S00C1.2000
T6F00S00C1.3970
T7F00S00C2.0000
T8F00S00C3.0000
%
T01
X01333754Y00493268
X01395476Y0056134
X01393444Y00671068
X01383792Y00711708
T02
X02529586Y01271778
X02678176
T03
X0120904Y0057023
X0120142Y0061214
X01257046Y00603758
X01307846Y00592328
X01486408Y00672338
Y00725678
X01490726Y01002538
X01528826Y01003808
X01768856Y01007618
X01779016Y00841248
X02203196Y00956818
X02228596Y00968248
X02986786Y00752348
Y00687578
X03017012Y01064768
X03162046Y01066038
X03148076Y01414018
X02584196Y01373378
X02534666
X02529586Y01220978
X02537206Y01170178
X02590546
X02568956Y01120648
X02529586Y01119378
X02636266Y01220978
X02466086Y01246378
Y01364488
X02163826Y01331468
X02148586Y01295908
Y01397508
X02163826Y01417828
X02039366Y01346708
X02055876Y01304798
X02020316Y01271778
X02039366Y01203198
X01895856
X01776476Y01320038
X01754886Y01350518
X01326896Y01370838
X01273556Y01375918
X01320546Y01181608
X01304036Y01133348
X01330706Y01448308
X0121539Y0144907
X012192Y0150495
X0137414Y0160274
X0157099Y0165862
X0169672Y0149987
X0182499Y0154305
X0191389Y014986
X019939Y0157988
X0194437Y0167513
X01778762Y01752092
X02095246Y01500378
X02133346Y01463548
X02220976Y01750568
Y01784858
X0276606Y0161925
X02979166Y01462278
X03144266Y01461008
X02966466Y01842008
X02962656Y01894078
X02966466Y01947418
X02863596Y01916938
X02817876Y01894078
Y01842008
X02819146Y01947418
X02715006Y01915668
X02680716Y01894078
Y01842008
X02679446Y01947418
X02577846Y01915668
X02529586Y01894078
X02530856Y01842008
X02537206Y01947418
X02430526Y01914398
X02365756Y01896618
X02368296Y01842008
X02373376Y01947418
X02262886Y01918208
X02203196Y01947418
X02195576Y01896618
X02200656Y01842008
X02049526
X02045716Y01895348
X02050796Y01947418
X02093976Y01916938
X01940306
X01886966Y01947418
X01878076Y01894078
X01884426Y01842008
X01777746Y01918208
X01739646Y01894078
X01723136Y01842008
X01721866Y01947418
X01611376Y01918208
T04
X01359916Y00527558
X01309116
X01258316
X01257046Y00639318
X01307846
X01271016Y00759968
Y00785368
Y00810768
Y00836168
Y00861568
Y00886968
Y00912368
Y00937768
X01358392Y00928038
Y00902638
Y00877238
Y00851838
Y00780718
Y00755318
X01383792
Y00780718
X01409192
Y00755318
X01434592
Y00780718
X01459992
Y00755318
X01485392
Y00780718
X01510792
Y00755318
X01536192
Y00780718
X01561592
Y00755318
X01586992
Y00780718
X01612392
Y00755318
X01637792
Y00780718
X01663192
Y00755318
X01688592
Y00780718
X01713992
Y00755318
X01528826Y00639318
X01478026
X01427226
X01358646
X01358392Y00953438
Y00978838
Y01004238
X01838452Y00983918
Y00958518
Y00933118
Y00907718
Y00882318
Y00856918
Y00831518
Y00806118
X01790192Y00780718
X01764792
X01739392
Y00755318
X01764792
X01790192
X01954276Y00815848
Y00841248
Y00866648
Y00892048
X02040558Y01023846
X02065958
X02091358
X02116758
X02142158
X02167558
X02203118
X02228518
X02253918
X02279318
X02253918Y01049246
X02228518
X02499028Y01093696
Y01119096
Y01144496
Y01169896
Y01195296
Y01220696
Y01246096
Y01271496
Y01296896
Y01322296
Y01347696
Y01373096
X02483788Y01411196
X02458388
X02432988
X02407588
X01978328Y01373096
Y01347696
Y01322296
Y01296896
Y01271496
Y01246096
Y01220696
Y01195296
Y01169896
Y01144496
Y01119096
Y01093696
X01838452Y01085518
Y01110918
Y01136318
Y01161718
Y01187118
Y01212518
Y01263318
Y01288718
Y01314118
Y01339518
Y01364918
Y01390318
Y01060118
Y01034718
X01358392Y01029638
Y01080438
Y01105838
Y01131238
Y01156638
Y01182038
Y01207438
Y01232838
Y01258238
Y01293798
Y01319198
Y01344598
Y01369998
Y01395398
Y01420798
X01273556Y01311148
Y01260348
Y01209548
Y01481328
Y01532128
Y01582928
X010478Y0179451
X014478
X01358392Y01471598
Y01446198
X02198038Y01436596
X02223438
X02248838
X02274238
X02305988
X02331388
X02356788
X02382188
X02407588
X02432988
X02458388
X02483788
X02382266Y01507998
X02356866
X02331466
X02306066
X02274316
X02248916
X02223516
X02939796Y01947418
X02914396
X02888996
X02863596
X02791206
X02765806
X02740406
X02715006
X02654046
X02628646
X02603246
X02577846
X02505456
X02480056
X02454656
X02429256
X02337816
X02312416
X02287016
X02261616
X02170176
X02144776
X02119376
X02093976
X02017776
X01992376
X01966976
X01941576
X01855216
X01829816
X01804416
X01779016
X01687576
X01662176
X01636776
X01611376
X014478Y0196451
X010478
T05
X02766314Y00868248
Y00907848
Y00947448
Y00987048
Y01026648
X02806314
Y00987048
Y00947448
Y00907848
Y00868248
X03060532Y00868204
Y00907804
Y00947404
Y00987004
Y01026604
X03100532
Y00987004
Y00947404
Y00907804
Y00868204
Y01066204
Y01105804
Y01145404
Y01185004
Y01224604
Y01264204
Y01303804
Y01343404
Y01383004
Y01422604
X03060532
Y01383004
Y01343404
Y01303804
Y01264204
Y01224604
Y01185004
Y01145404
Y01105804
Y01066204
X02806314Y01066248
Y01105848
Y01145448
Y01185048
Y01224648
Y01264248
Y01303848
Y01343448
Y01383048
Y01422648
X02766314
Y01383048
Y01343448
Y01303848
Y01264248
Y01224648
Y01185048
Y01145448
Y01105848
Y01066248
X0119634Y0155702
Y0160782
X02766314Y01541448
Y01501848
Y01462248
X02806314
Y01501848
Y01541448
X03060532Y01541404
Y01501804
Y01462204
X03100532
Y01501804
Y01541404
T06
X01831086Y00481838
X01829816Y00560578
X02669286Y00752348
X03356356Y01383538
X02981706Y01243838
X02669286Y01074928
T07
X03188716Y01703578
X03239516
X03290316
X03341116
X03391916
X03442716
X03493516
X03544316
X0353949Y0184531
X0348869
X0343789
X0338709
X0333629
X03338576Y01988058
X03389376
X03440176
X03490976
X03541776
X03287776
X03236976
X03186176
X0318389Y0184531
X0323469
X0328549
T08
X0368935Y0039116
X0100457Y00407416
X0117348Y0065024
X01954276Y00785848
Y00922048
X02135276Y00921512
Y00785848
X02335276Y0078613
X02442944Y00785622
Y00922048
X0233553
X0243078Y0065024
X00964946Y01077722
Y01351534
X00652946Y01351788
X00653288Y01077722
X0117348Y017018
X014028Y0179451
X0243078Y017018
X0368935Y0204216
X010928Y0196451
X0100457Y02024634
M30
