M48
;Layer_Color=9474304
;FILE_FORMAT=4:4
METRIC,LZ
;TYPE=PLATED
T1F00S00C1.1430
T2F00S00C1.2000
T3F00S00C1.5000
T4F00S00C2.0320
T5F00S00C2.1590
T6F00S00C3.0000
T7F00S00C4.0000
T8F00S00C5.0000
%
T01
X0206756Y018542
X0234315Y0187706
X0241935Y0186563
X0246253Y0186944
X025019Y018923
Y0179832
X0261747Y0178054
X0265303Y0176911
X0264795Y0187325
X0282829Y0190373
X0286004Y0193548
X0338582Y0186436
X0347726Y0185039
X0352679Y0184785
X0383032Y01708785
X0402209Y0190881
X0399542Y0230886
X0390271Y0219329
X0381381
X0380365Y0208153
X0377952Y0204851
X0384048Y0205613
X0366903Y0219329
X0356489Y0209423
X0344297Y020701
X0341122Y020193
X0321945Y0199136
X0319913Y0214249
X0328168Y0228219
X0316357Y0209423
X0302387Y0202946
X0289814Y0207391
X0289433Y0217932
X0297053Y0218821
X02962656Y02281936
X02937256
X02911856
X02880106Y0228219
X02854706
X02829306
X02803906
X02778506
X02778252Y0225679
X02803652
Y0223139
Y02206244
X02778252
Y0223139
X0280289Y0217043
X02752852Y02206244
Y0223139
Y0225679
X02753106Y0228219
X027686Y023368
X0263652Y0237998
Y0216154
X0258826Y0215773
X0253873Y0216662
X0254508Y0211328
X0260731Y0210947
X0268224Y0208407
X026797Y0217424
X0270383Y0220599
X0277749Y0208407
X0277622Y0202565
X0247523Y020955
X0195199Y0224028
X0190246Y0228346
X0195199Y0244094
X0192659Y0252222
X0189103Y0263398
Y0275717
X0210439Y0263779
X021082Y0244094
X0232134Y0266087
X0244348Y0263017
X0247142Y0258953
X02636266Y0249682
Y0247142
Y0244602
Y0242062
X0275336Y0242824
X0276352Y02471674
Y02497074
Y0252222
X02737866Y02522728
Y02548128
Y02573528
Y02598928
Y02624328
Y02649728
Y02675128
Y02700528
X0277241Y025527
X0280543Y0254762
X0281432Y0252222
Y02497074
X0278892
Y0252222
Y02471674
X0281432
X02864866Y02472182
X02890266
X02915666
X02941066
X02966466
X02991866
X03017266
X03042666
X0303403Y0250444
X0303657Y0239522
X0307975Y0239141
X0308356Y0242697
X02962656Y02408428
X02937256
X02911856
X0288036Y0240792
X0285496
X0282956
X0286512Y0243332
X0279908Y0258445
X02880106Y0266446
X02905506
X02930906
X02956306
X0312039Y0266827
X0314579
Y0269367
Y0271907
X0312039
Y0269367
X0309499Y0271907
X0306959
X03156966Y02598166
Y02572766
Y02547366
X0318008Y0257302
X03254248Y02575306
Y02600706
Y02626106
Y02651506
X0320802Y0265049
X0333375Y0274193
X03334004Y02767838
X03359404
X03405124Y02768092
X03430524
X03455924
X0343027Y0274066
X0348488Y0269875
X03308604Y02767838
X0327279Y0246126
X0330581Y0242824
X0375666Y0246761
X0381127Y0254762
X0383413Y0269113
X0380619Y027686
X0376682Y0274193
X0395732Y0262636
X0396748Y0242443
X0399542Y0268097
X0398018Y0282067
X0399288Y0286512
X03853576Y02802494
X038608Y0297307
X0309499Y0282448
X0306832
X0298323Y02831592
X0295783
X0293243
X0290703
X0285115Y0297688
X030226Y0306451
X0249555Y029718
X0217043Y0299085
X0210439Y0283718
X0195453Y0283591
X0217043Y03175
X0213233Y0332105
X020574Y0337058
X0252984Y0319786
X0269494Y032258
X0269367Y0327279
X0278638Y0319786
X028702Y0332105
X02921
X0314833Y0320421
T02
X0198501Y0192659
X0202461
X0206421
X0210381
X0214341
X0218301
X0222261
X0226221
X0230181
X0234141
X0238101
Y0196659
X0234141
X0230181
X0226221
X0222261
X0218301
X0214341
X0210381
X0206421
X0202461
X0198501
X0242061
X0246021
X0249981
X0253941
X0257901
X0261861
X0265821
Y0192659
X0261861
X0257901
X0253941
X0249981
X0246021
X0242061
X02944114Y01925066
X02983714
X03023314
X03062914
X03102514
X03142114
Y01965066
X03102514
X03062914
X03023314
X02983714
X02944114
X03181714
X03221314
X03260914
X03300514
X03340114
X03379714
X03419314
X03458914
X03498514
X03538114
Y01925066
X03498514
X03458914
X03419314
X03379714
X03340114
X03300514
X03260914
X03221314
X03181714
X03577714
X03617314
Y01965066
X03577714
X03880104Y02230274
Y02269874
Y02309474
Y02349074
X03920104
Y02309474
Y02269874
Y02230274
X0240792Y0222527
Y0226487
Y0230447
Y0234407
Y0218567
X0236792
Y0222527
Y0226487
Y0230447
Y0234407
X02058792Y02361774
Y02322174
Y02282574
Y02242974
X02018792
Y02282574
Y02322174
Y02361774
Y02401374
Y02440974
Y02480574
Y02520174
Y02559774
Y02599374
Y02638974
Y02678574
Y02718174
Y02757774
X02058792
Y02718174
Y02678574
Y02638974
Y02599374
Y02559774
Y02520174
Y02480574
Y02440974
Y02401374
X0221869Y02543302
Y02594102
Y02674366
Y02725166
X0236792Y0274007
Y0270047
Y0266087
Y0262127
Y0258167
Y0254207
Y0250247
Y0246287
Y0242327
Y0238367
X0240792
Y0242327
Y0246287
Y0250247
Y0254207
Y0258167
Y0262127
Y0266087
Y0270047
Y0274007
X03880104Y02745074
Y02705474
Y02665874
Y02626274
Y02586674
Y02547074
Y02507474
Y02467874
Y02428274
Y02388674
X03920104
Y02428274
Y02467874
Y02507474
Y02547074
Y02586674
Y02626274
Y02665874
Y02705474
Y02745074
Y02784674
Y02824274
Y02863874
Y02903474
X03880104
Y02863874
Y02824274
Y02784674
X03490976Y03092704
X03440176
X03261106Y03111124
X03221506
X03181906
Y03151124
X03221506
X03261106
X03142306
X03102706
X03063106
X03023506
X02983906
X02944306
X02904706
X02865106
X02825506
X02785906
Y03111124
X02825506
X02865106
X02904706
X02944306
X02983906
X03023506
X03063106
X03102706
X03142306
X02746306
X02706706
X02667106
X02627506
X02587906
Y03151124
X02627506
X02667106
X02706706
X02746306
X0240792Y0285887
Y0281927
Y0277967
X0236792
Y0281927
Y0285887
X02058792Y02876574
Y02836974
Y02797374
X02018792
Y02836974
Y02876574
Y02916174
X02058792
T03
X0347599Y01799082
X0352679
X0357759
X0362839
X0367919
X0372999
X0378079
X0383159
X03650234Y023749
X03599434
X03548634
X03497834
X03447034
X03396234
X03345434
X03294634
X03576828Y0283337
X03646678Y02845562
X03697478
X03751072Y02845816
X03801872
X03576828Y0293243
X03526028
X03475228
X03424428
X03373628
X03322828
X03272028
X03221228
Y0283337
X03272028
X03322828
X03373628
X03424428
X03475228
X03526028
X03071876Y02906014
X03021076
X02967736Y02906522
X02916936
X02850896Y02913634
X02800096
X02749296
X02698496
X02647696
X02596896
X02546096
X02495296
X02767838Y03272282
X02818638
X02869438
X02920238
X02971038
X03021838
X03072638
X03123438
T04
X03099816Y029972
X0254635Y0285115
T05
X02667508Y03043682
T06
X0322072Y0184023
X026797Y0202311
X0213868Y024892
Y0258953
X03301492Y026924
X03302Y02692908
X03650488Y02532888
X03650996Y02533396
X03576828Y02881376
X03526028Y02881122
X03475228Y02881376
X03424428Y02881122
X0337439Y0287782
X0332232Y0287528
X0327152Y0287782
X0322326Y0287655
X0213868Y0324104
X0322072
T07
X0213868Y0184023
T08
X0348107Y02997
M30
