%FSLAX44Y44*%
%MOMM*%
G71*
G01*
G75*
G04 Layer_Color=16711935*
%ADD10C,0.0254*%
D10*
X327000Y190000D02*
X326977Y192539D01*
X326906Y195077D01*
X326788Y197614D01*
X326624Y200148D01*
X326412Y202678D01*
X326154Y205204D01*
X325849Y207725D01*
X325497Y210239D01*
X325098Y212747D01*
X324654Y215247D01*
X324163Y217738D01*
X323625Y220220D01*
X323042Y222691D01*
X322414Y225152D01*
X321739Y227600D01*
X321020Y230035D01*
X320256Y232456D01*
X319446Y234863D01*
X318593Y237254D01*
X317695Y239629D01*
X316753Y241987D01*
X315768Y244328D01*
X314739Y246649D01*
X313668Y248951D01*
X312554Y251233D01*
X311398Y253494D01*
X310201Y255733D01*
X308962Y257950D01*
X307682Y260143D01*
X306362Y262312D01*
X305002Y264456D01*
X303602Y266574D01*
X302163Y268667D01*
X300686Y270732D01*
X299171Y272769D01*
X297618Y274778D01*
X296028Y276758D01*
X294402Y278709D01*
X292740Y280628D01*
X291043Y282517D01*
X289311Y284374D01*
X287545Y286198D01*
X285745Y287989D01*
X283913Y289747D01*
X282048Y291470D01*
X280151Y293159D01*
X278224Y294812D01*
X276266Y296429D01*
X274279Y298010D01*
X272263Y299553D01*
X270218Y301059D01*
X268146Y302526D01*
X266047Y303955D01*
X263922Y305345D01*
X261772Y306695D01*
X259597Y308006D01*
X257398Y309275D01*
X255175Y310504D01*
X252931Y311691D01*
X250665Y312836D01*
X248378Y313940D01*
X246071Y315000D01*
X243744Y316018D01*
X241400Y316992D01*
X239037Y317923D01*
X236658Y318810D01*
X234263Y319653D01*
X231852Y320451D01*
X229427Y321204D01*
X226989Y321912D01*
X224538Y322575D01*
X222075Y323192D01*
X219601Y323764D01*
X217116Y324290D01*
X214623Y324769D01*
X212121Y325202D01*
X209611Y325589D01*
X207095Y325929D01*
X204573Y326223D01*
X202046Y326469D01*
X199514Y326669D01*
X196980Y326822D01*
X194443Y326928D01*
X191904Y326987D01*
X189365Y326998D01*
X186826Y326963D01*
X184288Y326881D01*
X181752Y326752D01*
X179219Y326575D01*
X176690Y326352D01*
X174165Y326082D01*
X171646Y325765D01*
X169133Y325401D01*
X166627Y324991D01*
X164129Y324535D01*
X161640Y324033D01*
X159161Y323484D01*
X156692Y322889D01*
X154235Y322249D01*
X151790Y321564D01*
X149358Y320833D01*
X146940Y320057D01*
X144537Y319237D01*
X142150Y318372D01*
X139779Y317463D01*
X137425Y316511D01*
X135090Y315514D01*
X132773Y314475D01*
X130476Y313393D01*
X128199Y312269D01*
X125944Y311102D01*
X123710Y309894D01*
X121500Y308645D01*
X119312Y307355D01*
X117150Y306025D01*
X115012Y304655D01*
X112900Y303246D01*
X110814Y301797D01*
X108756Y300310D01*
X106725Y298786D01*
X104723Y297224D01*
X102751Y295625D01*
X100808Y293990D01*
X98896Y292319D01*
X97016Y290613D01*
X95167Y288872D01*
X93351Y287097D01*
X91568Y285289D01*
X89819Y283449D01*
X88104Y281576D01*
X86424Y279672D01*
X84780Y277737D01*
X83172Y275772D01*
X81601Y273777D01*
X80067Y271754D01*
X78570Y269702D01*
X77112Y267623D01*
X75693Y265518D01*
X74313Y263386D01*
X72973Y261230D01*
X71673Y259048D01*
X70413Y256843D01*
X69195Y254616D01*
X68018Y252366D01*
X66884Y250094D01*
X65791Y247802D01*
X64741Y245490D01*
X63734Y243159D01*
X62771Y240810D01*
X61851Y238443D01*
X60975Y236060D01*
X60143Y233661D01*
X59356Y231246D01*
X58615Y228818D01*
X57918Y226376D01*
X57266Y223922D01*
X56660Y221456D01*
X56100Y218980D01*
X55586Y216493D01*
X55118Y213997D01*
X54696Y211493D01*
X54321Y208982D01*
X53993Y206464D01*
X53711Y203941D01*
X53476Y201412D01*
X53288Y198880D01*
X53147Y196345D01*
X53053Y193807D01*
X53006Y191269D01*
X53006Y188729D01*
X53053Y186191D01*
X53147Y183653D01*
X53288Y181118D01*
X53476Y178586D01*
X53711Y176057D01*
X53993Y173534D01*
X54322Y171016D01*
X54697Y168505D01*
X55118Y166001D01*
X55586Y163505D01*
X56101Y161019D01*
X56661Y158542D01*
X57267Y156076D01*
X57918Y153622D01*
X58615Y151180D01*
X59357Y148752D01*
X60144Y146338D01*
X60975Y143938D01*
X61851Y141555D01*
X62771Y139188D01*
X63735Y136839D01*
X64742Y134508D01*
X65792Y132196D01*
X66884Y129904D01*
X68019Y127633D01*
X69196Y125383D01*
X70414Y123155D01*
X71674Y120950D01*
X72974Y118769D01*
X74314Y116612D01*
X75694Y114481D01*
X77113Y112375D01*
X78572Y110296D01*
X80068Y108245D01*
X81602Y106221D01*
X83173Y104227D01*
X84781Y102262D01*
X86425Y100327D01*
X88105Y98422D01*
X89820Y96550D01*
X91569Y94709D01*
X93352Y92901D01*
X95168Y91127D01*
X97017Y89386D01*
X98898Y87680D01*
X100810Y86009D01*
X102752Y84374D01*
X104725Y82775D01*
X106727Y81213D01*
X108757Y79689D01*
X110816Y78202D01*
X112901Y76753D01*
X115013Y75344D01*
X117151Y73974D01*
X119314Y72644D01*
X121501Y71354D01*
X123712Y70105D01*
X125946Y68897D01*
X128201Y67730D01*
X130478Y66606D01*
X132775Y65524D01*
X135092Y64485D01*
X137427Y63489D01*
X139781Y62536D01*
X142152Y61627D01*
X144539Y60763D01*
X146942Y59942D01*
X149360Y59166D01*
X151792Y58436D01*
X154237Y57750D01*
X156694Y57110D01*
X159163Y56516D01*
X161642Y55967D01*
X164131Y55465D01*
X166629Y55008D01*
X169135Y54598D01*
X171648Y54235D01*
X174167Y53918D01*
X176692Y53648D01*
X179221Y53425D01*
X181754Y53248D01*
X184290Y53119D01*
X186828Y53037D01*
X189367Y53001D01*
X191906Y53013D01*
X194445Y53072D01*
X196982Y53178D01*
X199516Y53331D01*
X202048Y53531D01*
X204575Y53777D01*
X207097Y54071D01*
X209613Y54411D01*
X212123Y54798D01*
X214625Y55231D01*
X217118Y55711D01*
X219602Y56236D01*
X222076Y56808D01*
X224539Y57425D01*
X226991Y58088D01*
X229429Y58797D01*
X231854Y59550D01*
X234264Y60348D01*
X236660Y61191D01*
X239039Y62077D01*
X241401Y63008D01*
X243746Y63983D01*
X246072Y65001D01*
X248379Y66061D01*
X250667Y67164D01*
X252933Y68310D01*
X255177Y69497D01*
X257399Y70726D01*
X259598Y71995D01*
X261773Y73306D01*
X263924Y74656D01*
X266049Y76046D01*
X268148Y77475D01*
X270220Y78942D01*
X272264Y80448D01*
X274281Y81992D01*
X276268Y83572D01*
X278225Y85189D01*
X280153Y86842D01*
X282049Y88531D01*
X283914Y90254D01*
X285746Y92012D01*
X287546Y93804D01*
X289312Y95628D01*
X291044Y97485D01*
X292742Y99373D01*
X294403Y101293D01*
X296030Y103243D01*
X297619Y105223D01*
X299172Y107232D01*
X300687Y109270D01*
X302164Y111335D01*
X303603Y113427D01*
X305003Y115546D01*
X306363Y117690D01*
X307683Y119859D01*
X308963Y122052D01*
X310202Y124269D01*
X311399Y126508D01*
X312555Y128769D01*
X313669Y131051D01*
X314740Y133353D01*
X315769Y135674D01*
X316754Y138015D01*
X317696Y140373D01*
X318593Y142748D01*
X319447Y145139D01*
X320256Y147546D01*
X321021Y149967D01*
X321740Y152403D01*
X322414Y154851D01*
X323043Y157311D01*
X323626Y159782D01*
X324163Y162264D01*
X324654Y164755D01*
X325099Y167255D01*
X325497Y169763D01*
X325849Y172278D01*
X326154Y174799D01*
X326412Y177325D01*
X326624Y179855D01*
X326788Y182389D01*
X326906Y184925D01*
X326977Y187463D01*
X327000Y190000D01*
M02*
