%FSLAX44Y44*%
%MOMM*%
G71*
G01*
G75*
G04 Layer_Color=16711935*
%ADD10C,0.1016*%
%ADD11R,1.9050X2.1590*%
%ADD12C,0.7620*%
%ADD13C,1.2700*%
%ADD14C,3.0480*%
%ADD15C,3.0000*%
%ADD16R,3.0000X3.0000*%
%ADD17C,2.1590*%
%ADD18R,2.1590X2.1590*%
%ADD19C,2.5400*%
%ADD20R,2.5400X2.5400*%
%ADD21R,2.1590X2.1590*%
%ADD22C,1.7780*%
%ADD23C,1.2700*%
%ADD24C,3.0480*%
%ADD25C,2.5400*%
%ADD26C,0.0508*%
%ADD27C,0.0762*%
D26*
X736346Y2081508D02*
X1280436D01*
X1358900Y2003044D01*
X1472692D01*
Y2081508D02*
X1535176D01*
Y2003044D02*
X1640332D01*
Y2081254D02*
X1696720D01*
Y2003044D02*
X1802384D01*
X1852168D02*
X1955546D01*
X1802384Y2081254D02*
X1852168D01*
X1955546D02*
X2018770D01*
X2018792Y2003044D02*
X2122170D01*
X2185670D02*
X2290572D01*
X2122170Y2081508D02*
X2185416D01*
X2290572D02*
X2335530D01*
X2438654D02*
X2473198D01*
X2335530Y2003044D02*
X2438654D01*
X2473198D02*
X2576576D01*
X2577084Y2081508D02*
X2620772D01*
X1535176Y2003044D02*
Y2081508D01*
X1472692Y2003044D02*
Y2081508D01*
X1696720Y2003044D02*
Y2081254D01*
X1640332Y2003044D02*
Y2081254D01*
X1852168Y2003044D02*
Y2081254D01*
X1802384Y2003044D02*
Y2081254D01*
X2018792Y2003044D02*
Y2081254D01*
X1955546Y2080492D02*
Y2081254D01*
Y2003044D02*
Y2080492D01*
X2185670Y2003044D02*
Y2081254D01*
X2122170Y2003044D02*
Y2081508D01*
X2335530Y2003044D02*
Y2081508D01*
X2290572Y2003044D02*
Y2081508D01*
X2438654Y2003044D02*
Y2081508D01*
X2473198Y2003044D02*
Y2081508D01*
X2576576Y2081000D02*
Y2081508D01*
Y2003044D02*
Y2081000D01*
X2620772Y2043176D02*
Y2081508D01*
Y2003044D02*
Y2043176D01*
Y2003044D02*
X2621026Y2002790D01*
X2729992D01*
X2808710Y2081508D01*
X3484880D01*
X736346Y2079222D02*
Y2081508D01*
Y1489964D02*
Y2079222D01*
Y381508D02*
Y973074D01*
X496570Y1388364D02*
X598170Y1489964D01*
X736346D01*
X496570Y1231392D02*
Y1388364D01*
X598170Y973074D02*
X736346D01*
X496570Y1074674D02*
X598170Y973074D01*
X496570Y1074674D02*
Y1231392D01*
D27*
X736346Y381508D02*
X896346D01*
X3484880D02*
Y2081508D01*
X736346Y381508D02*
X3484880D01*
M02*
