M48
;Layer_Color=9474304
;FILE_FORMAT=4:4
METRIC,LZ
;TYPE=PLATED
T1F00S00C0.7112
T2F00S00C0.8382
T3F00S00C1.0998
T4F00S00C1.1000
T5F00S00C1.1430
T6F00S00C1.2000
T7F00S00C1.3970
T8F00S00C3.0000
%
T01
X02300986Y01287018
X02449576
T02
X01028446Y00618998
X01079246Y00607568
X01262126Y01017778
X01300226Y01019048
X01540256Y01022858
X01550416Y00856488
X01974596Y00972058
X01999996Y00983488
X02758186Y00767588
Y00702818
X02933446Y01081278
X02788412Y01080008
X02340356Y01135888
X02300986Y01134618
X02308606Y01185418
X02361946
X02407666Y01236218
X02300986
X02237486Y01261618
Y01379728
X02306066Y01388618
X02355596
X01919986Y01412748
X01935226Y01346708
X01919986Y01311148
X01827276Y01320038
X01810766Y01361948
X01791716Y01287018
X01810766Y01218438
X01547876Y01335278
X01526286Y01365758
X01098296Y01386078
X01044956Y01391158
X01091946Y01196848
X01075436Y01148588
X01102106Y01463548
X01094486Y01547368
X01550162Y01767332
X01992376Y01765808
Y01800098
X01904746Y01478788
X01866646Y01515618
X01935226Y01433068
X02750566Y01477518
X02915666Y01476248
X02919476Y01429258
X02737866Y01857248
X02734056Y01909318
X02737866Y01962658
X02634996Y01932178
X02589276Y01909318
Y01857248
X02590546Y01962658
X02486406Y01930908
X02452116Y01909318
Y01857248
X02450846Y01962658
X02349246Y01930908
X02300986Y01909318
X02302256Y01857248
X02308606Y01962658
X02201926Y01929638
X02137156Y01911858
X02139696Y01857248
X02144776Y01962658
X02034286Y01933448
X01966976Y01911858
X01974596Y01962658
X01972056Y01857248
X01820926
X01817116Y01910588
X01822196Y01962658
X01865376Y01932178
X01711706
X01658366Y01962658
X01649476Y01909318
X01655826Y01857248
X01494536
X01511046Y01909318
X01549146Y01933448
X01493266Y01962658
X01382776Y01933448
T03
X02960116Y01718818
X03010916
X03061716
X03112516
X03163316
X03214116
X03264916
X0326009Y0186055
X0320929
X0315849
X0310769
X0305689
X0300609
X03008376Y02003298
X03059176
X03109976
X03160776
X03211576
X03262376
X0331089Y0186055
X02957576Y02003298
T04
X03315716Y01718818
X03313176Y02003298
X0295529Y0186055
T05
X01029716Y00542798
X01080516
X01131316
X01130046Y00654558
X01079246
X01028446
X01042416Y00775208
Y00800608
Y00826008
Y00851408
Y00876808
Y00902208
Y00927608
Y00953008
X01129792Y00943278
Y00917878
Y00892478
Y00867078
Y00795958
Y00770558
X01155192
Y00795958
X01180592
Y00770558
X01205992
Y00795958
X01231392
Y00770558
X01256792
Y00795958
X01282192
Y00770558
X01307592
Y00795958
X01300226Y00654558
X01249426
X01198626
X01129792Y00968678
Y00994078
Y01019478
X01332992Y00795958
Y00770558
X01358392
Y00795958
X01383792
Y00770558
X01409192
Y00795958
X01434592
Y00770558
X01459992
Y00795958
X01485392
Y00770558
X01510792
Y00795958
X01536192
Y00770558
X01561592
Y00795958
X01609852Y00821358
Y00846758
Y00872158
Y00897558
Y00922958
Y00948358
Y00973758
Y00999158
X01725676Y00907288
Y00881888
Y00856488
Y00831088
X02270428Y01108936
Y01134336
Y01159736
Y01185136
Y01210536
Y01235936
Y01261336
Y01286736
Y01312136
Y01337536
Y01362936
Y01388336
X01749728
Y01362936
Y01337536
Y01312136
Y01286736
Y01261336
Y01235936
Y01210536
Y01185136
Y01159736
Y01134336
Y01108936
X01811958Y01039086
X01837358
X01862758
X01888158
X01913558
X01938958
X01974518
X01999918
X02025318
X02050718
X02025318Y01064486
X01999918
X01609852Y01075358
Y01100758
Y01126158
Y01151558
Y01176958
Y01202358
Y01227758
Y01278558
Y01303958
Y01329358
Y01354758
Y01380158
Y01405558
Y01049958
X01129792Y01044878
Y01095678
Y01121078
Y01146478
Y01171878
Y01197278
Y01222678
Y01248078
Y01273478
Y01309038
Y01334438
Y01359838
Y01385238
Y01410638
X01044956Y01326388
Y01275588
Y01224788
Y01496568
Y01547368
Y01598168
X01129792Y01486838
Y01461438
Y01436038
X01969438Y01451836
X01994838
X02020238
X02045638
X02077388
X02102788
X02102866Y01523238
X02077466
X02045716
X02020316
X01994916
X02128266
X02153666
X02153588Y01451836
X02128188
X02178988
X02204388
X02229788
X02255188
Y01426436
X02229788
X02204388
X02178988
X02537206Y01962658
X02562606
X02634996
X02660396
X02685796
X02711196
X02511806
X02486406
X02425446
X02400046
X02374646
X02349246
X02276856
X02251456
X02226056
X02200656
X02109216
X02083816
X02058416
X02033016
X01941576
X01916176
X01890776
X01865376
X01789176
X01763776
X01738376
X01712976
X01626616
X01601216
X01575816
X01550416
X01458976
X01433576
X01408176
X01382776
T06
X00934446Y00883488
Y00923088
Y00962688
Y01002288
X00974446
Y00962688
Y00923088
Y00883488
X02537714
Y00923088
Y00962688
Y01002288
X02577714
Y00962688
Y00923088
Y00883488
X02831932Y00883444
Y00923044
Y00962644
Y01002244
X02871932
Y00962644
Y00923044
Y00883444
Y01041844
Y01081444
Y01121044
Y01160644
Y01200244
Y01239844
Y01279444
Y01319044
Y01358644
Y01398244
X02831932
Y01358644
Y01319044
Y01279444
Y01239844
Y01200244
Y01160644
Y01121044
Y01081444
Y01041844
X02577714Y01041888
Y01081488
Y01121088
Y01160688
Y01200288
Y01239888
Y01279488
Y01319088
Y01358688
Y01398288
X02537714
Y01358688
Y01319088
Y01279488
Y01239888
Y01200288
Y01160688
Y01121088
Y01081488
Y01041888
X00974446
Y01081488
Y01121088
Y01160688
Y01200288
Y01239888
Y01279488
Y01319088
Y01358688
Y01398288
X00934446
Y01358688
Y01319088
Y01279488
Y01239888
Y01200288
Y01160688
Y01121088
Y01081488
Y01041888
Y01437888
Y01477488
Y01517088
Y01556688
X00974446
Y01517088
Y01477488
Y01437888
X02537714
Y01477488
Y01517088
Y01556688
X02577714
Y01517088
Y01477488
Y01437888
X02831932Y01437844
Y01477444
Y01517044
Y01556644
X02871932
Y01517044
Y01477444
Y01437844
T07
X01602486Y00497078
X01601216Y00575818
X02440686Y00767588
X03127756Y01398778
X02753106Y01259078
X02440686Y01090168
T08
X0346075Y004064
X0077597Y00422656
X0094488Y0066548
X0220218
X00704596Y01117854
X00703072Y01239774
X0070231Y01349248
X00577596Y01347724
X0058039Y01239774
Y01118616
X0094488Y0171704
X0220218
X0346075Y020574
X0077597Y02039874
M30
