%FSLAX44Y44*%
%MOMM*%
G71*
G01*
G75*
G04 Layer_Physical_Order=2*
G04 Layer_Color=16711680*
%ADD10C,0.1016*%
%ADD11C,0.7620*%
%ADD12C,1.2700*%
%ADD13C,2.1590*%
%ADD14R,2.1590X2.1590*%
%ADD15R,2.1590X2.1590*%
%ADD16C,1.5240*%
%ADD17C,1.7780*%
%ADD18C,2.0320*%
D10*
X827659Y558292D02*
X827398Y560943D01*
X826625Y563492D01*
X825369Y565842D01*
X823679Y567901D01*
X827659Y558292D02*
X827397Y560946D01*
X826622Y563498D01*
X825364Y565849D01*
X823671Y567909D01*
X881520Y531000D02*
X883444Y529314D01*
X885571Y527892D01*
X887866Y526761D01*
X890288Y525938D01*
X892797Y525439D01*
X895350Y525272D01*
X881508Y531013D02*
X883432Y529323D01*
X885561Y527898D01*
X887857Y526764D01*
X890282Y525940D01*
X892794Y525440D01*
X895350Y525272D01*
X807829Y660010D02*
X808870Y660808D01*
X820643Y778903D02*
X817753Y778430D01*
X808870Y660808D02*
X810990Y659381D01*
X813253Y658194D01*
X815632Y657261D01*
X818098Y656593D01*
X820623Y656199D01*
X823176Y656083D01*
X825726Y656246D01*
X828243Y656687D01*
X830697Y657400D01*
X833058Y658377D01*
X824182Y793750D02*
X822933Y791484D01*
X821936Y789096D01*
X821201Y786615D01*
X820738Y784070D01*
X820551Y781489D01*
X820643Y778903D01*
X824182Y819150D02*
X823001Y817024D01*
X822042Y814789D01*
X821314Y812468D01*
X820824Y810086D01*
X820578Y807666D01*
Y805234D01*
X820824Y802814D01*
X821314Y800432D01*
X822042Y798111D01*
X823001Y795876D01*
X824182Y793750D01*
X833058Y658377D02*
X835357Y657277D01*
X837760Y656428D01*
X840239Y655837D01*
X840232Y655265D02*
X838859Y653099D01*
X837725Y650798D01*
X836843Y648390D01*
X836223Y645901D01*
X835871Y643361D01*
X835793Y640797D01*
X835989Y638240D01*
X836457Y635718D01*
X837191Y633261D01*
X838183Y630896D01*
X839422Y628650D01*
X866336Y689525D02*
X864918Y692150D01*
X866205Y694495D01*
X867222Y696969D01*
X867959Y699541D01*
X868404Y702179D01*
X868553Y704850D01*
X868404Y707521D01*
X867959Y710159D01*
X867222Y712731D01*
X866205Y715205D01*
X864918Y717550D01*
X866205Y719895D01*
X867222Y722369D01*
X867959Y724941D01*
X868404Y727579D01*
X868553Y730250D01*
X868404Y732921D01*
X867959Y735559D01*
X867222Y738131D01*
X866205Y740605D01*
X864918Y742950D01*
X866205Y745295D01*
X867222Y747769D01*
X867959Y750341D01*
X868404Y752979D01*
X868553Y755650D01*
X868463Y757729D01*
X868463D02*
X870831Y757699D01*
X873190Y757908D01*
X875516Y758354D01*
X877785Y759034D01*
X879973Y759940D01*
X882058Y761063D01*
X884279Y759752D01*
X886629Y758687D01*
X889079Y757881D01*
X891602Y757342D01*
X894167Y757076D01*
X896747Y757088D01*
X934775Y525272D02*
X936941Y523899D01*
X939242Y522765D01*
X941650Y521883D01*
X944138Y521263D01*
X946679Y520911D01*
X949243Y520833D01*
X951800Y521029D01*
X954322Y521497D01*
X956779Y522231D01*
X959144Y523223D01*
X961390Y524462D01*
X938741Y566674D02*
X936703Y565626D01*
X934775Y564388D01*
X959993Y641350D02*
X959863Y643841D01*
X959476Y646306D01*
X958835Y648716D01*
X957947Y651048D01*
X956822Y653274D01*
X955472Y655372D01*
X953911Y657318D01*
X952157Y659092D01*
X950228Y660674D01*
X948146Y662047D01*
X945932Y663197D01*
X943611Y664111D01*
X941207Y664779D01*
X938747Y665194D01*
X940319Y667104D01*
X941680Y669170D01*
X942814Y671368D01*
X943710Y673674D01*
X944358Y676061D01*
X944749Y678504D01*
X944880Y680974D01*
X961390Y565198D02*
X958639Y566674D01*
X964141D02*
X961390Y565198D01*
Y524462D02*
X963516Y523281D01*
X965751Y522322D01*
X968072Y521594D01*
X970454Y521104D01*
X972874Y520858D01*
X975306D01*
X977726Y521104D01*
X980108Y521594D01*
X982429Y522322D01*
X984664Y523281D01*
X986790Y524462D01*
Y565198D02*
X984039Y566674D01*
X986790Y524462D02*
X988916Y523281D01*
X991151Y522322D01*
X993472Y521594D01*
X995854Y521104D01*
X998274Y520858D01*
X1000706D01*
X1003126Y521104D01*
X1005508Y521594D01*
X1007829Y522322D01*
X1010064Y523281D01*
X1012190Y524462D01*
X959950Y639910D02*
X959993Y641350D01*
X963446Y639865D02*
X959950Y639910D01*
X989541Y566674D02*
X986790Y565198D01*
X963756Y642747D02*
X963446Y639865D01*
X944880Y680974D02*
X944753Y683406D01*
X944374Y685812D01*
X943746Y688165D01*
X942877Y690440D01*
X941776Y692612D01*
X940454Y694658D01*
X938927Y696555D01*
X937211Y698283D01*
X935324Y699823D01*
X933287Y701158D01*
X922427Y757047D02*
X922274Y754440D01*
X922413Y751833D01*
X922842Y749257D01*
X923556Y746746D01*
X958850Y801418D02*
X956696Y802612D01*
X954432Y803579D01*
X952080Y804309D01*
X949666Y804794D01*
X947215Y805029D01*
X944753Y805012D01*
X959459Y727330D02*
X961149Y729254D01*
X962574Y731383D01*
X963708Y733679D01*
X964532Y736104D01*
X965032Y738616D01*
X965200Y741172D01*
X959472Y727342D02*
X961158Y729266D01*
X962580Y731393D01*
X963711Y733688D01*
X964534Y736110D01*
X965033Y738619D01*
X965200Y741172D01*
Y741591D02*
X966547Y743937D01*
X967614Y746423D01*
X968386Y749015D01*
X968853Y751680D01*
X969010Y754380D01*
X968839Y757200D01*
Y757201D02*
X971360Y757048D01*
X973882Y757161D01*
X976379Y757538D01*
X978822Y758175D01*
X981185Y759066D01*
X983441Y760200D01*
X985566Y761564D01*
X987536Y763145D01*
X989328Y764923D01*
X990924Y766880D01*
X992305Y768994D01*
X993457Y771241D01*
X994366Y773596D01*
X995023Y776035D01*
X995420Y778529D01*
X995553Y781050D01*
X995417Y783599D01*
X995011Y786120D01*
X994340Y788584D01*
X993411Y790962D01*
X992235Y793227D01*
X990824Y795356D01*
X989196Y797322D01*
X987367Y799104D01*
X985360Y800682D01*
X983197Y802038D01*
X980902Y803156D01*
X978501Y804025D01*
X976021Y804633D01*
X973491Y804974D01*
X970939Y805045D01*
X968394Y804845D01*
X965884Y804375D01*
X963439Y803641D01*
X961085Y802652D01*
X958850Y801418D01*
X919353Y806450D02*
X919204Y809121D01*
X918759Y811759D01*
X918022Y814331D01*
X917005Y816805D01*
X915718Y819150D01*
X917005Y821495D01*
X918022Y823969D01*
X918759Y826541D01*
X919204Y829179D01*
X919353Y831850D01*
X824182Y844550D02*
X823001Y842424D01*
X822042Y840189D01*
X821314Y837868D01*
X820824Y835486D01*
X820578Y833066D01*
Y830634D01*
X820824Y828214D01*
X821314Y825832D01*
X822042Y823511D01*
X823001Y821276D01*
X824182Y819150D01*
X915718Y844550D02*
X917005Y846895D01*
X918022Y849369D01*
X918759Y851941D01*
X919204Y854579D01*
X919353Y857250D01*
Y831850D02*
X919204Y834521D01*
X918759Y837159D01*
X918022Y839731D01*
X917005Y842205D01*
X915718Y844550D01*
X919312Y805053D02*
X919353Y806450D01*
X824182Y869950D02*
X823001Y867824D01*
X822042Y865589D01*
X821314Y863268D01*
X820824Y860886D01*
X820578Y858466D01*
Y856034D01*
X820824Y853614D01*
X821314Y851232D01*
X822042Y848911D01*
X823001Y846676D01*
X824182Y844550D01*
X919353Y857250D02*
X919204Y859921D01*
X918759Y862559D01*
X918022Y865131D01*
X917005Y867605D01*
X915718Y869950D01*
X824182Y895350D02*
X823001Y893224D01*
X822042Y890989D01*
X821314Y888668D01*
X820824Y886286D01*
X820578Y883866D01*
Y881434D01*
X820824Y879014D01*
X821314Y876632D01*
X822042Y874311D01*
X823001Y872076D01*
X824182Y869950D01*
X824182Y920750D02*
X823001Y918624D01*
X822042Y916389D01*
X821314Y914068D01*
X820824Y911686D01*
X820578Y909266D01*
Y906834D01*
X820824Y904414D01*
X821314Y902032D01*
X822042Y899711D01*
X823001Y897476D01*
X824182Y895350D01*
X915718Y869950D02*
X917005Y872295D01*
X918022Y874769D01*
X918759Y877341D01*
X919204Y879979D01*
X919353Y882650D01*
Y908050D02*
X919204Y910721D01*
X918759Y913359D01*
X918022Y915931D01*
X917005Y918405D01*
X915718Y920750D01*
X919353Y882650D02*
X919204Y885321D01*
X918759Y887959D01*
X918022Y890531D01*
X917005Y893005D01*
X915718Y895350D01*
X917005Y897695D01*
X918022Y900169D01*
X918759Y902741D01*
X919204Y905379D01*
X919353Y908050D01*
X820588Y934847D02*
X820571Y932385D01*
X820806Y929934D01*
X821291Y927520D01*
X822021Y925168D01*
X822988Y922904D01*
X824182Y920750D01*
X915718Y920750D02*
X917005Y923095D01*
X918022Y925569D01*
X918759Y928141D01*
X919204Y930779D01*
X919353Y933450D01*
X919204Y936121D01*
X918759Y938759D01*
X918022Y941331D01*
X917005Y943805D01*
X915718Y946150D01*
X917005Y948495D01*
X918022Y950969D01*
X918759Y953541D01*
X919204Y956179D01*
X919353Y958850D01*
X799846Y1019810D02*
X797290Y1019642D01*
X794778Y1019142D01*
X792353Y1018318D01*
X790057Y1017184D01*
X787928Y1015760D01*
X786004Y1014069D01*
X799846Y1019810D02*
X797293Y1019643D01*
X794784Y1019144D01*
X792362Y1018321D01*
X790067Y1017190D01*
X787940Y1015768D01*
X786016Y1014082D01*
X882058Y978837D02*
X880197Y979852D01*
X878251Y980694D01*
X885401D02*
X883692Y979832D01*
X882058Y978837D01*
X919353Y958850D02*
X919223Y961340D01*
X918836Y963804D01*
X918195Y966214D01*
X917308Y968545D01*
X916183Y970771D01*
X914834Y972868D01*
X913274Y974814D01*
X911521Y976588D01*
X909593Y978170D01*
X907512Y979544D01*
X905299Y980694D01*
X933958Y914981D02*
X932684Y912767D01*
X931659Y910427D01*
X930896Y907990D01*
X930403Y905483D01*
X930187Y902938D01*
X930250Y900385D01*
X930591Y897853D01*
X931207Y895374D01*
X932089Y892977D01*
X933228Y890690D01*
X934610Y888542D01*
X936218Y886557D01*
X938033Y884760D01*
X940033Y883171D01*
X942195Y881810D01*
X944492Y880693D01*
X946898Y879834D01*
X949383Y879242D01*
X951917Y878925D01*
X954471Y878887D01*
X957014Y879128D01*
X959516Y879644D01*
X961946Y880431D01*
X964276Y881479D01*
X966478Y882774D01*
X968525Y884302D01*
X970393Y886044D01*
X972059Y887980D01*
X973505Y890086D01*
X974712Y892337D01*
X975666Y894706D01*
X976356Y897166D01*
X976773Y899686D01*
X976913Y902237D01*
X976755Y904947D01*
X976284Y907622D01*
X975506Y910223D01*
X974431Y912717D01*
X973074Y915069D01*
X964818Y1014069D02*
X962894Y1015760D01*
X960765Y1017184D01*
X958469Y1018318D01*
X956044Y1019142D01*
X953532Y1019642D01*
X950976Y1019810D01*
X964806Y1014082D02*
X962882Y1015768D01*
X960755Y1017190D01*
X958460Y1018321D01*
X956038Y1019144D01*
X953529Y1019643D01*
X950976Y1019810D01*
X973074Y997712D02*
X972907Y1000265D01*
X972408Y1002774D01*
X971585Y1005197D01*
X970454Y1007491D01*
X969032Y1009618D01*
X967346Y1011542D01*
X973074Y997712D02*
X972906Y1000268D01*
X972406Y1002780D01*
X971582Y1005205D01*
X970448Y1007501D01*
X969024Y1009630D01*
X967333Y1011554D01*
X1012190Y565198D02*
X1009439Y566674D01*
X1012190Y524462D02*
X1014316Y523281D01*
X1016551Y522322D01*
X1018872Y521594D01*
X1021254Y521104D01*
X1023674Y520858D01*
X1026106D01*
X1028526Y521104D01*
X1030908Y521594D01*
X1033229Y522322D01*
X1035464Y523281D01*
X1037590Y524462D01*
X1014941Y566674D02*
X1012190Y565198D01*
X1037590Y524462D02*
X1039721Y523279D01*
X1041961Y522318D01*
X1044287Y521590D01*
X1046675Y521101D01*
X1049100Y520857D01*
X1051537Y520859D01*
X1053962Y521110D01*
X1056348Y521604D01*
X1058673Y522338D01*
X1058899Y519706D01*
X1059531Y517140D01*
X1060552Y514702D01*
X1061939Y512453D01*
X1063656Y510444D01*
X1058673Y522338D02*
X1058899Y519706D01*
X1059531Y517140D01*
X1060552Y514702D01*
X1061939Y512453D01*
X1063656Y510444D01*
X1056894Y572262D02*
X1056727Y574815D01*
X1056228Y577324D01*
X1055405Y579747D01*
X1054274Y582041D01*
X1052852Y584168D01*
X1051166Y586092D01*
X1056894Y572262D02*
X1056726Y574818D01*
X1056226Y577330D01*
X1055402Y579755D01*
X1054268Y582051D01*
X1052843Y584180D01*
X1051153Y586104D01*
X1062990Y565198D02*
X1061045Y566289D01*
X1059007Y567194D01*
X1056894Y567907D01*
X1088390Y565198D02*
X1086264Y566379D01*
X1084029Y567338D01*
X1081708Y568066D01*
X1079326Y568556D01*
X1076906Y568802D01*
X1074474D01*
X1072054Y568556D01*
X1069672Y568066D01*
X1067351Y567338D01*
X1065116Y566379D01*
X1062990Y565198D01*
X1113790D02*
X1111664Y566379D01*
X1109429Y567338D01*
X1107108Y568066D01*
X1104726Y568556D01*
X1102306Y568802D01*
X1099874D01*
X1097454Y568556D01*
X1095072Y568066D01*
X1092751Y567338D01*
X1090516Y566379D01*
X1088390Y565198D01*
X1143417Y561848D02*
X1141576Y563500D01*
X1139575Y564953D01*
X1137434Y566193D01*
X1135177Y567206D01*
X1132828Y567981D01*
X1130412Y568510D01*
X1127954Y568788D01*
X1125481Y568812D01*
X1123018Y568581D01*
X1120592Y568097D01*
X1118229Y567367D01*
X1115954Y566397D01*
X1113790Y565198D01*
X1006704Y712047D02*
X1004865Y710193D01*
X1003244Y708144D01*
X1001862Y705928D01*
X1000736Y703571D01*
X999879Y701104D01*
X999304Y698556D01*
X999016Y695960D01*
X999021Y693348D01*
X999316Y690753D01*
X1044341Y592916D02*
X1046815Y593791D01*
X1049179Y594930D01*
X1051405Y596321D01*
X1053465Y597946D01*
X1055472Y596358D01*
X1057637Y594993D01*
X1059935Y593866D01*
X1062340Y592990D01*
X1064825Y592375D01*
X1067361Y592029D01*
X1069919Y591954D01*
X1072471Y592152D01*
X1074987Y592621D01*
X1077439Y593355D01*
X1079799Y594346D01*
X1082040Y595582D01*
X1082040Y595582D02*
X1084166Y594401D01*
X1086401Y593442D01*
X1088722Y592714D01*
X1091104Y592224D01*
X1093524Y591978D01*
X1095956D01*
X1098376Y592224D01*
X1100758Y592714D01*
X1103079Y593442D01*
X1105314Y594401D01*
X1107440Y595582D01*
X1109566Y594401D01*
X1111801Y593442D01*
X1114122Y592714D01*
X1116504Y592224D01*
X1118924Y591978D01*
X1121356D01*
X1123776Y592224D01*
X1126158Y592714D01*
X1128479Y593442D01*
X1130714Y594401D01*
X1132840Y595582D01*
X1135075Y594348D01*
X1137429Y593359D01*
X1139874Y592625D01*
X1142384Y592155D01*
X1144929Y591955D01*
X1147481Y592026D01*
X1150011Y592367D01*
X1152491Y592976D01*
X1154892Y593844D01*
X1157187Y594962D01*
X1159350Y596318D01*
X1161357Y597896D01*
X1163186Y599678D01*
X1164814Y601644D01*
X1166225Y603773D01*
X1167401Y606038D01*
X1168330Y608416D01*
X1169001Y610880D01*
X1169407Y613400D01*
X1169543Y615950D01*
X1143508Y640080D02*
X1143352Y642776D01*
X1142886Y645436D01*
X1142116Y648025D01*
X1141052Y650508D01*
X1139709Y652851D01*
X1141034Y654935D01*
X1142137Y657145D01*
X1143008Y659456D01*
X1143636Y661844D01*
X1144016Y664284D01*
X1144143Y666750D01*
X1035050Y750618D02*
X1032807Y751855D01*
X1030446Y752847D01*
X1027992Y753580D01*
X1025474Y754049D01*
X1022920Y754246D01*
X1020360Y754170D01*
X1017823Y753822D01*
X1015337Y753206D01*
X1012931Y752328D01*
X1010632Y751198D01*
X1008467Y749831D01*
X1006459Y748240D01*
X1004633Y746444D01*
X1003008Y744464D01*
X1001604Y742322D01*
X1000436Y740043D01*
X999517Y737652D01*
X998858Y735177D01*
X998467Y732646D01*
X998348Y730088D01*
X998502Y727531D01*
X998927Y725006D01*
X999619Y722540D01*
X1000570Y720162D01*
X1001769Y717898D01*
X1003202Y715776D01*
X1004854Y713818D01*
X1006704Y712047D01*
X1060450Y750618D02*
X1058324Y751799D01*
X1056089Y752758D01*
X1053768Y753486D01*
X1051386Y753976D01*
X1048966Y754222D01*
X1046534D01*
X1044114Y753976D01*
X1041732Y753486D01*
X1039411Y752758D01*
X1037176Y751799D01*
X1035050Y750618D01*
X1085850D02*
X1083724Y751799D01*
X1081489Y752758D01*
X1079168Y753486D01*
X1076786Y753976D01*
X1074366Y754222D01*
X1071934D01*
X1069514Y753976D01*
X1067132Y753486D01*
X1064811Y752758D01*
X1062576Y751799D01*
X1060450Y750618D01*
X1111250D02*
X1109124Y751799D01*
X1106889Y752758D01*
X1104568Y753486D01*
X1102186Y753976D01*
X1099766Y754222D01*
X1097334D01*
X1094914Y753976D01*
X1092532Y753486D01*
X1090211Y752758D01*
X1087976Y751799D01*
X1085850Y750618D01*
X1162050D02*
X1159924Y751799D01*
X1157689Y752758D01*
X1155368Y753486D01*
X1152986Y753976D01*
X1150566Y754222D01*
X1148134D01*
X1145714Y753976D01*
X1143332Y753486D01*
X1141011Y752758D01*
X1138776Y751799D01*
X1136650Y750618D01*
X1134524Y751799D01*
X1132289Y752758D01*
X1129968Y753486D01*
X1127586Y753976D01*
X1125166Y754222D01*
X1122734D01*
X1120314Y753976D01*
X1117932Y753486D01*
X1115611Y752758D01*
X1113376Y751799D01*
X1111250Y750618D01*
X1169543Y615950D02*
X1169415Y618429D01*
X1169031Y620882D01*
X1168396Y623282D01*
X1167516Y625604D01*
X1166402Y627822D01*
X1165064Y629913D01*
X1163517Y631855D01*
X1161778Y633627D01*
X1159865Y635210D01*
X1157799Y636586D01*
X1155602Y637742D01*
X1153298Y638665D01*
X1150910Y639345D01*
X1148465Y639774D01*
X1145988Y639949D01*
X1143507Y639867D01*
X1176824Y666877D02*
X1176808Y664385D01*
X1177057Y661906D01*
X1177569Y659467D01*
X1178337Y657097D01*
X1179354Y654822D01*
X1180607Y652668D01*
X1182082Y650660D01*
X1183763Y648821D01*
X1185630Y647171D01*
X1187662Y645729D01*
X1189836Y644511D01*
X1192128Y643532D01*
X1194510Y642803D01*
X1196957Y642331D01*
X1199440Y642123D01*
X1187450Y750618D02*
X1185324Y751799D01*
X1183089Y752758D01*
X1180768Y753486D01*
X1178386Y753976D01*
X1175966Y754222D01*
X1173534D01*
X1171114Y753976D01*
X1168732Y753486D01*
X1166411Y752758D01*
X1164176Y751799D01*
X1162050Y750618D01*
X1390142Y601780D02*
X1387637Y601974D01*
X1385126Y601897D01*
X1382638Y601551D01*
X1380201Y600940D01*
X1377844Y600071D01*
X1375594Y598955D01*
X1373477Y597602D01*
X1371517Y596031D01*
X1369737Y594258D01*
X1368158Y592304D01*
X1366797Y590192D01*
X1365672Y587947D01*
X1364793Y585593D01*
X1364173Y583159D01*
X1363817Y580672D01*
X1205896Y635666D02*
X1207927Y633932D01*
X1210204Y632537D01*
X1212671Y631515D01*
X1215268Y630891D01*
X1217930Y630682D01*
X1205896Y635666D02*
X1207927Y633932D01*
X1210204Y632537D01*
X1212671Y631515D01*
X1215268Y630891D01*
X1217930Y630682D01*
X1223507Y666190D02*
X1223447Y667305D01*
X1224260Y667512D01*
X1223447Y667305D02*
X1224260Y667512D01*
X1237754D02*
X1237831Y664718D01*
X1223075Y723138D02*
X1223672Y725469D01*
X1224032Y727847D01*
X1224153Y730250D01*
Y730250D02*
X1224017Y732800D01*
X1223611Y735320D01*
X1222940Y737784D01*
X1222011Y740162D01*
X1220835Y742427D01*
X1219424Y744556D01*
X1217796Y746522D01*
X1215967Y748304D01*
X1213960Y749882D01*
X1211797Y751238D01*
X1209502Y752356D01*
X1207101Y753224D01*
X1204621Y753833D01*
X1202091Y754174D01*
X1199539Y754245D01*
X1196994Y754045D01*
X1194484Y753575D01*
X1192039Y752841D01*
X1189685Y751852D01*
X1187450Y750618D01*
X1384300Y630682D02*
X1387266Y630942D01*
X1390142Y631716D01*
X1384300Y630682D02*
X1387266Y630942D01*
X1390142Y631716D01*
X1246536Y743616D02*
X1248567Y741882D01*
X1250844Y740487D01*
X1253311Y739465D01*
X1255908Y738841D01*
X1258570Y738632D01*
X1246536Y743616D02*
X1248567Y741882D01*
X1250844Y740487D01*
X1253311Y739465D01*
X1255908Y738841D01*
X1258570Y738632D01*
X1100704Y815749D02*
X1098188Y815845D01*
X1095676Y815671D01*
X1093197Y815227D01*
X1090781Y814519D01*
X1088455Y813555D01*
X1086245Y812346D01*
X1084179Y810907D01*
X1082280Y809254D01*
X1080570Y807405D01*
X1079068Y805384D01*
X1077793Y803213D01*
X1076758Y800917D01*
X1075977Y798523D01*
X1075458Y796059D01*
X1075207Y793554D01*
X1075227Y791036D01*
X1075517Y788535D01*
X1076076Y786079D01*
X1076895Y783698D01*
X1077965Y781419D01*
X1079275Y779269D01*
X1080809Y777271D01*
X1082548Y775451D01*
X1084473Y773828D01*
X1086562Y772421D01*
X1088790Y771248D01*
X1091131Y770321D01*
X1093559Y769651D01*
X1096044Y769247D01*
X1098558Y769112D01*
X1101073Y769249D01*
X1103558Y769655D01*
X1105985Y770326D01*
X1108325Y771255D01*
X1110552Y772430D01*
X1112640Y773838D01*
X1114564Y775462D01*
X1125986Y841413D02*
X1123418Y841496D01*
X1120856Y841296D01*
X1118331Y840816D01*
X1115875Y840062D01*
X1113516Y839043D01*
X1111283Y837771D01*
X1109204Y836262D01*
X1107303Y834533D01*
X1105603Y832606D01*
X1104125Y830504D01*
X1102886Y828252D01*
X1101903Y825879D01*
X1101186Y823411D01*
X1100744Y820880D01*
X1100583Y818315D01*
X1100704Y815749D01*
X1165364Y858012D02*
X1163401Y859666D01*
X1161268Y861094D01*
X1158992Y862280D01*
X1156599Y863209D01*
X1154119Y863870D01*
X1151581Y864255D01*
X1149016Y864360D01*
X1146456Y864182D01*
X1143930Y863725D01*
X1141470Y862993D01*
X1139104Y861996D01*
X1136863Y860746D01*
X1134772Y859257D01*
X1132857Y857548D01*
X1131141Y855639D01*
X1129644Y853553D01*
X1128385Y851317D01*
X1127380Y848955D01*
X1126639Y846497D01*
X1126173Y843973D01*
X1125986Y841413D01*
X1065700Y1004740D02*
X1065680Y1002240D01*
X1065921Y999752D01*
X1066419Y997301D01*
X1067169Y994916D01*
X1068163Y992622D01*
X1069390Y990444D01*
X1070837Y988405D01*
X1072489Y986528D01*
X1074326Y984833D01*
X1076331Y983338D01*
X1078479Y982060D01*
X1080749Y981012D01*
X1083116Y980206D01*
X1085554Y979651D01*
X1088036Y979352D01*
X1090536Y979313D01*
X1093026Y979534D01*
X1095480Y980013D01*
X1097871Y980745D01*
X1100173Y981721D01*
X1102360Y982932D01*
X1076960Y1049068D02*
X1074768Y1050281D01*
X1072461Y1051258D01*
X1070065Y1051990D01*
X1067606Y1052469D01*
X1065110Y1052688D01*
X1062605Y1052646D01*
X1060118Y1052343D01*
X1057677Y1051783D01*
X1055307Y1050971D01*
X1053034Y1049916D01*
X1050884Y1048630D01*
X1048879Y1047128D01*
X1047042Y1045424D01*
X1045393Y1043538D01*
X1043949Y1041491D01*
X1042727Y1039304D01*
X1041739Y1037002D01*
X1040996Y1034609D01*
X1040507Y1032152D01*
X1040276Y1029658D01*
X1040307Y1027152D01*
X1040599Y1024664D01*
X1041148Y1022220D01*
X1041950Y1019846D01*
X1042994Y1017569D01*
X1044270Y1015413D01*
X1045764Y1013402D01*
X1047459Y1011557D01*
X1049337Y1009900D01*
X1051378Y1008447D01*
X1053559Y1007214D01*
X1055857Y1006216D01*
X1058247Y1005462D01*
X1060702Y1004962D01*
X1063195Y1004721D01*
X1065700Y1004740D01*
X1098042Y1051192D02*
X1095718Y1051926D01*
X1093331Y1052421D01*
X1090907Y1052671D01*
X1088470Y1052673D01*
X1086044Y1052429D01*
X1083657Y1051940D01*
X1081331Y1051212D01*
X1079091Y1050251D01*
X1076960Y1049068D01*
X1102360Y982932D02*
X1104595Y981698D01*
X1106949Y980709D01*
X1109394Y979975D01*
X1111904Y979505D01*
X1114449Y979305D01*
X1117001Y979376D01*
X1119531Y979717D01*
X1122011Y980325D01*
X1124412Y981194D01*
X1126707Y982312D01*
X1128870Y983668D01*
X1130878Y985246D01*
X1132706Y987028D01*
X1134334Y988994D01*
X1135745Y991123D01*
X1136921Y993388D01*
X1137850Y995767D01*
X1138521Y998230D01*
X1138927Y1000750D01*
X1139063Y1003300D01*
Y1003300D02*
X1139020Y1004740D01*
X1139020Y1004740D02*
X1141701Y1004729D01*
X1144367Y1005017D01*
X1146985Y1005601D01*
X1149520Y1006473D01*
X1151943Y1007622D01*
X1154223Y1009035D01*
X1156330Y1010692D01*
X1158240Y1012575D01*
X1099123Y1057529D02*
X1098315Y1054593D01*
X1098042Y1051560D01*
X1099123Y1057529D02*
X1098315Y1054593D01*
X1098042Y1051560D01*
X1158240Y1012575D02*
X1160065Y1010768D01*
X1162072Y1009165D01*
X1164239Y1007787D01*
X1166541Y1006648D01*
X1168952Y1005761D01*
X1171443Y1005137D01*
X1173987Y1004783D01*
X1176554Y1004703D01*
X1179115Y1004897D01*
X1181641Y1005365D01*
X1184102Y1006099D01*
X1186471Y1007092D01*
X1188720Y1008332D01*
X1203807Y1004816D02*
X1203480Y1001903D01*
X1188720Y1008332D02*
X1191022Y1007066D01*
X1193449Y1006059D01*
X1195972Y1005323D01*
X1198560Y1004868D01*
X1201182Y1004698D01*
X1203807Y1004816D01*
X1236060Y853028D02*
X1234029Y854762D01*
X1231752Y856157D01*
X1229285Y857179D01*
X1226688Y857803D01*
X1224026Y858012D01*
X1236060Y853028D02*
X1234029Y854762D01*
X1231752Y856157D01*
X1229285Y857179D01*
X1226688Y857803D01*
X1224026Y858012D01*
X1338453Y808524D02*
X1339409Y808486D01*
X1294082Y844550D02*
X1292888Y842396D01*
X1291921Y840132D01*
X1291191Y837780D01*
X1290706Y835366D01*
X1290471Y832915D01*
X1290488Y830453D01*
X1327138Y877625D02*
X1324881Y878868D01*
X1322503Y879862D01*
X1320033Y880595D01*
X1317498Y881059D01*
X1314928Y881248D01*
X1312352Y881161D01*
X1309801Y880798D01*
X1307303Y880164D01*
X1304888Y879266D01*
X1302583Y878114D01*
X1300414Y876722D01*
X1298408Y875105D01*
X1296586Y873282D01*
X1294970Y871274D01*
X1293579Y869105D01*
X1292428Y866799D01*
X1291532Y864384D01*
X1290899Y861886D01*
X1290538Y859334D01*
X1290452Y856758D01*
X1290643Y854189D01*
X1291108Y851654D01*
X1291843Y849184D01*
X1292838Y846807D01*
X1294082Y844550D01*
X1341348Y880453D02*
X1338899Y880616D01*
X1336447Y880520D01*
X1334018Y880168D01*
X1331640Y879564D01*
X1329338Y878713D01*
X1327138Y877625D01*
X1344882Y895350D02*
X1343630Y893076D01*
X1342630Y890681D01*
X1341895Y888191D01*
X1341434Y885637D01*
X1341250Y883047D01*
X1341348Y880453D01*
X1344882Y920750D02*
X1343701Y918624D01*
X1342742Y916389D01*
X1342014Y914068D01*
X1341524Y911686D01*
X1341278Y909266D01*
Y906834D01*
X1341524Y904414D01*
X1342014Y902032D01*
X1342742Y899711D01*
X1343701Y897476D01*
X1344882Y895350D01*
X1390142Y924946D02*
X1388110Y925068D01*
X1390142Y924946D02*
X1388110Y925068D01*
X1387742D02*
X1388577Y927795D01*
X1389084Y930603D01*
X1389253Y933450D01*
X1341288Y934847D02*
X1341271Y932385D01*
X1341506Y929934D01*
X1341991Y927520D01*
X1342721Y925168D01*
X1343688Y922904D01*
X1344882Y920750D01*
X1389253Y933450D02*
X1389212Y934847D01*
X1275588Y1002030D02*
X1275424Y1004798D01*
X1278018Y1004700D01*
X1280607Y1004883D01*
X1283161Y1005345D01*
X1285651Y1006080D01*
X1288046Y1007080D01*
X1290320Y1008332D01*
X1292555Y1007098D01*
X1294909Y1006109D01*
X1297354Y1005375D01*
X1299864Y1004905D01*
X1302409Y1004705D01*
X1304961Y1004776D01*
X1307491Y1005117D01*
X1309971Y1005725D01*
X1312372Y1006594D01*
X1314667Y1007712D01*
X1316830Y1009068D01*
X1318837Y1010646D01*
X1320666Y1012428D01*
X1322294Y1014394D01*
X1323705Y1016523D01*
X1324881Y1018788D01*
X1325810Y1021167D01*
X1326481Y1023630D01*
X1326887Y1026150D01*
X1327023Y1028700D01*
Y1028700D02*
X1326925Y1030868D01*
X1326631Y1033018D01*
X819318Y572262D02*
X840259D01*
X818556Y573024D02*
X839497D01*
X820842Y570738D02*
X841783D01*
X820080Y571500D02*
X841021D01*
X815508Y576072D02*
X836449D01*
X814746Y576834D02*
X835687D01*
X817794Y573786D02*
X838735D01*
X816270Y575310D02*
X837211D01*
X817032Y574548D02*
X837973D01*
X827659Y527345D02*
Y558292D01*
X825145Y566166D02*
X846355D01*
X822366Y569214D02*
X843307D01*
X821604Y569976D02*
X842545D01*
X824562Y566928D02*
X845593D01*
X823128Y568452D02*
X844069D01*
X823885Y567690D02*
X844831D01*
X819912Y571668D02*
Y592609D01*
X819150Y572430D02*
Y593371D01*
X820674Y570906D02*
Y591847D01*
X797179Y594401D02*
X823671Y567909D01*
X816102Y575478D02*
Y596419D01*
X815340Y576240D02*
Y597181D01*
X818388Y573192D02*
Y594133D01*
X816864Y574716D02*
Y595657D01*
X817626Y573954D02*
Y594895D01*
X826008Y564784D02*
Y586513D01*
X825246Y566022D02*
Y587275D01*
X827532Y560145D02*
Y584989D01*
X826770Y563126D02*
Y585751D01*
X822198Y569382D02*
Y590323D01*
X821436Y570144D02*
Y591085D01*
X824484Y567022D02*
Y588037D01*
X822960Y568620D02*
Y589561D01*
X823722Y567858D02*
Y588799D01*
X827659Y535686D02*
X876835D01*
X827659Y536448D02*
X876073D01*
X827659Y534162D02*
X878359D01*
X827659Y534924D02*
X877597D01*
X827659Y544068D02*
X868453D01*
X827659Y546354D02*
X866167D01*
X827659Y540258D02*
X872263D01*
X827659Y543306D02*
X869215D01*
X827659Y541020D02*
X871501D01*
X827659Y527345D02*
X849925Y505079D01*
X827659Y529590D02*
X883092D01*
X827659Y528066D02*
X885276D01*
X827659Y528828D02*
X884105D01*
X827659Y532638D02*
X879883D01*
X827659Y533400D02*
X879121D01*
X827659Y530352D02*
X882201D01*
X827659Y531876D02*
X880645D01*
X827659Y531114D02*
X881407D01*
X827420Y560832D02*
X851689D01*
X827252Y561594D02*
X850927D01*
X827542Y560070D02*
X852451D01*
X797179Y615342D02*
X881508Y531013D01*
X826084Y564642D02*
X847879D01*
X825649Y565404D02*
X847117D01*
X827037Y562356D02*
X850165D01*
X826457Y563880D02*
X848641D01*
X826773Y563118D02*
X849403D01*
X827659Y553212D02*
X859309D01*
X827659Y553974D02*
X858547D01*
X827659Y548640D02*
X863881D01*
X827659Y550164D02*
X862357D01*
X827659Y549402D02*
X863119D01*
X827657Y558546D02*
X853975D01*
X827621Y559308D02*
X853213D01*
X827659Y554736D02*
X857785D01*
X827659Y557784D02*
X854737D01*
X827659Y557022D02*
X855499D01*
X797179Y603504D02*
X809017D01*
X797179Y604266D02*
X808255D01*
X797179Y601980D02*
X810541D01*
X797179Y602742D02*
X809779D01*
X797179Y607314D02*
X805207D01*
X797179Y608076D02*
X804445D01*
X797179Y605028D02*
X807493D01*
X797179Y606552D02*
X805969D01*
X797179Y605790D02*
X806731D01*
X809244Y582336D02*
Y603277D01*
X808482Y583098D02*
Y604039D01*
X810768Y580812D02*
Y601753D01*
X810006Y581574D02*
Y602515D01*
X805434Y586146D02*
Y607087D01*
X804672Y586908D02*
Y607849D01*
X807720Y583860D02*
Y604801D01*
X806196Y585384D02*
Y606325D01*
X806958Y584622D02*
Y605563D01*
X797179Y610362D02*
X802159D01*
X797179Y594401D02*
Y615342D01*
Y608838D02*
X803683D01*
X797179Y609600D02*
X802921D01*
X797179Y613410D02*
X799111D01*
X797179Y614172D02*
X798349D01*
X797179Y611124D02*
X801397D01*
X797179Y612648D02*
X799873D01*
X797179Y611886D02*
X800635D01*
X802386Y589194D02*
Y610135D01*
X801624Y589956D02*
Y610897D01*
X803910Y587670D02*
Y608611D01*
X803148Y588432D02*
Y609373D01*
X798576Y593004D02*
Y613945D01*
X797814Y593766D02*
Y614707D01*
X800862Y590718D02*
Y611659D01*
X799338Y592242D02*
Y613183D01*
X800100Y591480D02*
Y612421D01*
X805602Y585978D02*
X826543D01*
X804840Y586740D02*
X825781D01*
X807126Y584454D02*
X828067D01*
X806364Y585216D02*
X827305D01*
X801792Y589788D02*
X822733D01*
X801030Y590550D02*
X821971D01*
X804078Y587502D02*
X825019D01*
X802554Y589026D02*
X823495D01*
X803316Y588264D02*
X824257D01*
X812460Y579120D02*
X833401D01*
X811698Y579882D02*
X832639D01*
X813984Y577596D02*
X834925D01*
X813222Y578358D02*
X834163D01*
X808650Y582930D02*
X829591D01*
X807888Y583692D02*
X828829D01*
X810936Y580644D02*
X831877D01*
X809412Y582168D02*
X830353D01*
X810174Y581406D02*
X831115D01*
X797179Y596646D02*
X815875D01*
X797179Y597408D02*
X815113D01*
X797179Y595122D02*
X817399D01*
X797179Y595884D02*
X816637D01*
X797179Y600456D02*
X812065D01*
X797179Y601218D02*
X811303D01*
X797179Y598170D02*
X814351D01*
X797179Y599694D02*
X812827D01*
X797179Y598932D02*
X813589D01*
X812292Y579288D02*
Y600229D01*
X811530Y580050D02*
Y600991D01*
X814578Y577002D02*
Y597943D01*
X813054Y578526D02*
Y599467D01*
X813816Y577764D02*
Y598705D01*
X797982Y593598D02*
X818923D01*
X797220Y594360D02*
X818161D01*
X800268Y591312D02*
X821209D01*
X798744Y592836D02*
X819685D01*
X799506Y592074D02*
X820447D01*
X868680Y505079D02*
Y543841D01*
X867918Y505079D02*
Y544603D01*
X870204Y505079D02*
Y542317D01*
X869442Y505079D02*
Y543079D01*
X864870Y505079D02*
Y547651D01*
X864108Y505079D02*
Y548413D01*
X867156Y505079D02*
Y545365D01*
X865632Y505079D02*
Y546889D01*
X866394Y505079D02*
Y546127D01*
X875538Y505079D02*
Y536983D01*
X874776Y505079D02*
Y537745D01*
X877062Y505079D02*
Y535459D01*
X876300Y505079D02*
Y536221D01*
X871728Y505079D02*
Y540793D01*
X870966Y505079D02*
Y541555D01*
X874014Y505079D02*
Y538507D01*
X872490Y505079D02*
Y540031D01*
X873252Y505079D02*
Y539269D01*
X854964Y505079D02*
Y557557D01*
X854202Y505079D02*
Y558319D01*
X856488Y505079D02*
Y556033D01*
X855726Y505079D02*
Y556795D01*
X851154Y505079D02*
Y561367D01*
X850392Y505079D02*
Y562129D01*
X853440Y505079D02*
Y559081D01*
X851916Y505079D02*
Y560605D01*
X852678Y505079D02*
Y559843D01*
X861822Y505079D02*
Y550699D01*
X861060Y505079D02*
Y551461D01*
X863346Y505079D02*
Y549175D01*
X862584Y505079D02*
Y549937D01*
X858012Y505079D02*
Y554509D01*
X857250Y505079D02*
Y555271D01*
X860298Y505079D02*
Y552223D01*
X858774Y505079D02*
Y553747D01*
X859536Y505079D02*
Y552985D01*
X899160Y505079D02*
Y525272D01*
X898398Y505079D02*
Y525272D01*
X900684Y505079D02*
Y525272D01*
X899922Y505079D02*
Y525272D01*
X895350Y505079D02*
Y525272D01*
X894588Y505079D02*
Y525287D01*
X897636Y505079D02*
Y525272D01*
X896112Y505079D02*
Y525272D01*
X896874Y505079D02*
Y525272D01*
X906018Y505079D02*
Y525272D01*
X905256Y505079D02*
Y525272D01*
X907542Y505079D02*
Y525272D01*
X906780Y505079D02*
Y525272D01*
X902208Y505079D02*
Y525272D01*
X901446Y505079D02*
Y525272D01*
X904494Y505079D02*
Y525272D01*
X902970Y505079D02*
Y525272D01*
X903732Y505079D02*
Y525272D01*
X882396Y505079D02*
Y530177D01*
X881634Y505079D02*
Y530888D01*
X883920Y505079D02*
Y528960D01*
X883158Y505079D02*
Y529537D01*
X878586Y505079D02*
Y533935D01*
X877824Y505079D02*
Y534697D01*
X880872Y505079D02*
Y531649D01*
X879348Y505079D02*
Y533173D01*
X880110Y505079D02*
Y532411D01*
X891540Y505079D02*
Y525647D01*
X888492Y505079D02*
Y526514D01*
X893826Y505079D02*
Y525331D01*
X892302Y505079D02*
Y525511D01*
X893064Y505079D02*
Y525406D01*
X885444Y505079D02*
Y527966D01*
X884682Y505079D02*
Y528438D01*
X887730Y505079D02*
Y526818D01*
X886206Y505079D02*
Y527541D01*
X886968Y505079D02*
Y527159D01*
X837438Y517566D02*
Y575083D01*
X836676Y518328D02*
Y575845D01*
X838962Y516042D02*
Y573559D01*
X838200Y516804D02*
Y574321D01*
X833628Y521376D02*
Y578893D01*
X832866Y522138D02*
Y579655D01*
X835914Y519090D02*
Y576607D01*
X834390Y520614D02*
Y578131D01*
X835152Y519852D02*
Y577369D01*
X844296Y510708D02*
Y568225D01*
X843534Y511470D02*
Y568987D01*
X845820Y509184D02*
Y566701D01*
X845058Y509946D02*
Y567463D01*
X840486Y514518D02*
Y572035D01*
X839724Y515280D02*
Y572797D01*
X842772Y512232D02*
Y569749D01*
X841248Y513756D02*
Y571273D01*
X842010Y512994D02*
Y570511D01*
X830580Y524424D02*
Y581941D01*
X829818Y525186D02*
Y582703D01*
X832104Y522900D02*
Y580417D01*
X831342Y523662D02*
Y581179D01*
X829056Y525948D02*
Y583465D01*
X828294Y526710D02*
Y584227D01*
X832331Y635508D02*
X836509D01*
X830807Y637032D02*
X836179D01*
X831569Y636270D02*
X836331D01*
X837438Y630401D02*
Y632602D01*
X836676Y631163D02*
Y634878D01*
X837665Y630174D02*
X838548D01*
X836903Y630936D02*
X838164D01*
X838200Y629639D02*
Y630861D01*
X833855Y633984D02*
X836945D01*
X833093Y634746D02*
X836713D01*
X836141Y631698D02*
X837813D01*
X834617Y633222D02*
X837205D01*
X835379Y632460D02*
X837494D01*
X827659Y538734D02*
X873787D01*
X827659Y539496D02*
X873025D01*
X827659Y537210D02*
X875311D01*
X827659Y537972D02*
X874549D01*
X827659Y547116D02*
X865405D01*
X827659Y547878D02*
X864643D01*
X827659Y541782D02*
X870739D01*
X827659Y545592D02*
X866929D01*
X827659Y542544D02*
X869977D01*
X890016Y505079D02*
Y526013D01*
X889254Y505079D02*
Y526246D01*
X890778Y505079D02*
Y525814D01*
X827700Y527304D02*
X886669D01*
X827659Y544830D02*
X867691D01*
X829224Y525780D02*
X890921D01*
X828462Y526542D02*
X888417D01*
X847344Y507660D02*
Y565177D01*
X846582Y508422D02*
Y565939D01*
X848868Y506136D02*
Y563653D01*
X848106Y506898D02*
Y564415D01*
X827659Y555498D02*
X857023D01*
X827659Y556260D02*
X856261D01*
X827659Y550926D02*
X861595D01*
X827659Y552450D02*
X860071D01*
X827659Y551688D02*
X860833D01*
X849630Y505374D02*
Y562891D01*
X901165Y566674D02*
X903451Y564388D01*
X907542D02*
Y566674D01*
X903732Y564388D02*
Y566674D01*
X904494Y564388D02*
Y566674D01*
X902970Y564869D02*
Y566674D01*
X902208Y565631D02*
Y566674D01*
X906780Y564388D02*
Y566674D01*
X905256Y564388D02*
Y566674D01*
X906018Y564388D02*
Y566674D01*
X814578Y653261D02*
Y657637D01*
X813816Y654023D02*
Y657945D01*
X816102Y651737D02*
Y657111D01*
X815340Y652499D02*
Y657359D01*
X813054Y654785D02*
Y658286D01*
X809471Y658368D02*
X812880D01*
X811757Y656082D02*
X822960D01*
X810233Y657606D02*
X814659D01*
X810995Y656844D02*
X817041D01*
X821436Y646403D02*
Y656132D01*
X820674Y647165D02*
Y656194D01*
X822960Y644879D02*
Y656082D01*
X822198Y645641D02*
Y656094D01*
X817626Y650213D02*
Y656699D01*
X816864Y650975D02*
Y656891D01*
X819912Y647927D02*
Y656282D01*
X818388Y649451D02*
Y656534D01*
X819150Y648689D02*
Y656395D01*
X810006Y657833D02*
Y660001D01*
X809244Y658595D02*
Y660531D01*
X808709Y659130D02*
X811420D01*
X810768Y657071D02*
Y659515D01*
X794004Y779653D02*
Y966751D01*
X794766Y779653D02*
Y967513D01*
X807947Y659892D02*
X810171D01*
X808482Y659357D02*
Y660500D01*
X812292Y655547D02*
Y658659D01*
X811530Y656309D02*
Y659068D01*
X817753Y778430D02*
Y779653D01*
X819150Y778705D02*
Y980694D01*
X818388Y778566D02*
Y980694D01*
X817753Y778764D02*
X819524D01*
X817753Y779526D02*
X820595D01*
X819912Y778818D02*
Y980694D01*
X823187Y644652D02*
X836015D01*
X822425Y645414D02*
X836133D01*
X821663Y646176D02*
X836277D01*
X820901Y646938D02*
X836447D01*
X820139Y647700D02*
X836642D01*
X819377Y648462D02*
X836865D01*
X818615Y649224D02*
X837115D01*
X817091Y650748D02*
X837703D01*
X817853Y649986D02*
X837394D01*
X828521Y639318D02*
X835873D01*
X827759Y640080D02*
X835821D01*
X830045Y637794D02*
X836052D01*
X829283Y638556D02*
X835950D01*
X826997Y640842D02*
X835792D01*
X826235Y641604D02*
X835788D01*
X825473Y642366D02*
X835808D01*
X823949Y643890D02*
X835922D01*
X824711Y643128D02*
X835853D01*
X816329Y651510D02*
X838043D01*
X815567Y652272D02*
X838416D01*
X814805Y653034D02*
X838823D01*
X807829Y660010D02*
X839333Y628506D01*
X814043Y653796D02*
X839266D01*
X813281Y654558D02*
X839748D01*
X822960Y656082D02*
X839065D01*
X826770Y641069D02*
Y656395D01*
X827532Y640307D02*
Y656534D01*
X828294Y639545D02*
Y656699D01*
X829056Y638783D02*
Y656891D01*
X829818Y638021D02*
Y657111D01*
X823722Y644117D02*
Y656094D01*
X824484Y643355D02*
Y656132D01*
X825246Y642593D02*
Y656194D01*
X826008Y641831D02*
Y656282D01*
X828879Y656844D02*
X836481D01*
X792480Y779653D02*
Y965227D01*
Y779653D02*
Y965227D01*
Y779653D02*
X817753D01*
X793242D02*
Y965989D01*
X795528Y779653D02*
Y968275D01*
X796290Y779653D02*
Y969037D01*
X792480Y780288D02*
X820559D01*
X792480Y781050D02*
X820547D01*
X797052Y779653D02*
Y969799D01*
X801624Y779653D02*
Y974371D01*
X802386Y779653D02*
Y975133D01*
X803148Y779653D02*
Y975895D01*
X803910Y779653D02*
Y976657D01*
X797814Y779653D02*
Y970561D01*
X798576Y779653D02*
Y971323D01*
X799338Y779653D02*
Y972085D01*
X800100Y779653D02*
Y972847D01*
X800862Y779653D02*
Y973609D01*
X809244Y779653D02*
Y980694D01*
X808482Y779653D02*
Y980694D01*
X810768Y779653D02*
Y980694D01*
X810006Y779653D02*
Y980694D01*
X804672Y779653D02*
Y977419D01*
X805434Y779653D02*
Y978181D01*
X806196Y779653D02*
Y978943D01*
X806958Y779653D02*
Y979705D01*
X807720Y779653D02*
Y980467D01*
X816102Y779653D02*
Y980694D01*
X815340Y779653D02*
Y980694D01*
X817626Y779653D02*
Y980694D01*
X816864Y779653D02*
Y980694D01*
X812292Y779653D02*
Y980694D01*
X811530Y779653D02*
Y980694D01*
X814578Y779653D02*
Y980694D01*
X813054Y779653D02*
Y980694D01*
X813816Y779653D02*
Y980694D01*
X792480Y781812D02*
X820559D01*
X792480Y782574D02*
X820595D01*
X792480Y783336D02*
X820656D01*
X792480Y784098D02*
X820741D01*
X792480Y784860D02*
X820851D01*
X792480Y785622D02*
X820986D01*
X792480Y786384D02*
X821147D01*
X792480Y787908D02*
X821548D01*
X792480Y787146D02*
X821334D01*
X792480Y788670D02*
X821789D01*
X792480Y789432D02*
X822058D01*
X792480Y790194D02*
X822357D01*
X792480Y790956D02*
X822686D01*
X792480Y791718D02*
X823048D01*
X792480Y792480D02*
X823443D01*
X792480Y793242D02*
X823874D01*
X792480Y794004D02*
X824026D01*
X823722Y792981D02*
Y794519D01*
X792480Y796290D02*
X822803D01*
X792480Y797052D02*
X822463D01*
X792480Y794766D02*
X823583D01*
X792480Y795528D02*
X823176D01*
X792480Y800100D02*
X821402D01*
X792480Y803148D02*
X820775D01*
X792480Y797814D02*
X822154D01*
X792480Y799338D02*
X821625D01*
X792480Y798576D02*
X821875D01*
X821436Y787522D02*
Y799978D01*
X820674Y783516D02*
Y803984D01*
X822960Y791539D02*
Y795961D01*
X822198Y789798D02*
Y797702D01*
X792480Y803910D02*
X820682D01*
X792480Y804672D02*
X820613D01*
X792480Y800862D02*
X821207D01*
X792480Y802386D02*
X820893D01*
X792480Y801624D02*
X821037D01*
X833628Y634211D02*
Y658076D01*
X832866Y634973D02*
Y658286D01*
X835152Y632687D02*
Y657363D01*
X834390Y633449D02*
Y657703D01*
X830580Y637259D02*
Y657359D01*
X831342Y636497D02*
Y657637D01*
X831261Y657606D02*
X834601D01*
X832104Y635735D02*
Y657945D01*
X835914Y631925D02*
Y638884D01*
Y643816D02*
Y657054D01*
X836676Y647822D02*
Y656775D01*
X838200Y651839D02*
Y656302D01*
X837438Y650098D02*
Y656525D01*
X839724Y654522D02*
Y655937D01*
X838962Y653281D02*
Y656106D01*
X865924Y690372D02*
X867183D01*
X865632Y690926D02*
Y693374D01*
X865517Y691134D02*
X867945D01*
X865074Y691896D02*
X868707D01*
X865226Y692658D02*
X869469D01*
X865657Y693420D02*
X870231D01*
X866052Y694182D02*
X870993D01*
X866394Y689583D02*
Y694901D01*
X867156Y690345D02*
Y696781D01*
X867918Y691107D02*
Y699365D01*
X868680Y691869D02*
Y757717D01*
X870204Y693393D02*
Y757683D01*
X869442Y692631D02*
Y757688D01*
X866414Y694944D02*
X871755D01*
X870966Y694155D02*
Y757704D01*
X871728Y694917D02*
Y757750D01*
X866743Y695706D02*
X872517D01*
X867042Y696468D02*
X873279D01*
X867311Y697230D02*
X874041D01*
X867552Y697992D02*
X874803D01*
X867766Y698754D02*
X875565D01*
X867953Y699516D02*
X876327D01*
X868114Y700278D02*
X877089D01*
X868249Y708660D02*
X885471D01*
X868249Y701040D02*
X877851D01*
X868359Y701802D02*
X878613D01*
X868444Y702564D02*
X879375D01*
X868505Y703326D02*
X880137D01*
X868541Y704088D02*
X880899D01*
X868553Y704850D02*
X881661D01*
X868541Y705612D02*
X882423D01*
X868505Y706374D02*
X883185D01*
X868359Y707898D02*
X884709D01*
X868444Y707136D02*
X883947D01*
X872490Y695679D02*
Y757821D01*
X873252Y696441D02*
Y757916D01*
X874014Y697203D02*
Y758038D01*
X874776Y697965D02*
Y758186D01*
X875538Y698727D02*
Y758360D01*
X876300Y699489D02*
Y758561D01*
X877062Y700251D02*
Y758791D01*
X877824Y701013D02*
Y759048D01*
X878586Y701775D02*
Y759336D01*
X879348Y702537D02*
Y759655D01*
X880110Y703299D02*
Y760006D01*
X880872Y704061D02*
Y760391D01*
X881634Y704823D02*
Y760813D01*
X882396Y705585D02*
Y760843D01*
X883920Y707109D02*
Y759943D01*
X883158Y706347D02*
Y760374D01*
X886206Y709395D02*
Y758857D01*
X884682Y707871D02*
Y759548D01*
X885444Y708633D02*
Y759186D01*
X866414Y714756D02*
X891567D01*
X866394Y714799D02*
Y720301D01*
X866052Y715518D02*
X892329D01*
X865657Y716280D02*
X893091D01*
X865632Y716326D02*
Y718774D01*
Y741726D02*
Y744174D01*
X866394Y740199D02*
Y745701D01*
X868114Y709422D02*
X886233D01*
X867918Y710335D02*
Y724765D01*
X867953Y710184D02*
X886995D01*
X867766Y710946D02*
X887757D01*
X867552Y711708D02*
X888519D01*
X867156Y712919D02*
Y722181D01*
X867311Y712470D02*
X889281D01*
X866743Y713994D02*
X890805D01*
X867042Y713232D02*
X890043D01*
X867156Y738319D02*
Y747581D01*
X867918Y735735D02*
Y750165D01*
X879481Y759714D02*
X884354D01*
X868487Y757428D02*
X891090D01*
X874796Y758190D02*
X888031D01*
X877549Y758952D02*
X885979D01*
X887730Y710919D02*
Y758289D01*
X886968Y710157D02*
Y758558D01*
X890016Y713205D02*
Y757647D01*
X888492Y711681D02*
Y758048D01*
X889254Y712443D02*
Y757834D01*
X890778Y713967D02*
Y757486D01*
X881030Y760476D02*
X882987D01*
X893064Y716253D02*
Y757156D01*
X891540Y714729D02*
Y757351D01*
X892302Y715491D02*
Y757241D01*
X865226Y717042D02*
X893853D01*
X865074Y717804D02*
X894615D01*
X865517Y718566D02*
X895377D01*
X865924Y719328D02*
X896139D01*
X866297Y720090D02*
X896901D01*
X866637Y720852D02*
X897663D01*
X866946Y721614D02*
X898425D01*
X867225Y722376D02*
X899187D01*
X867475Y723138D02*
X899949D01*
X867698Y723900D02*
X900711D01*
X867894Y724662D02*
X901473D01*
X868063Y725424D02*
X902235D01*
X868206Y726186D02*
X902997D01*
X868325Y726948D02*
X903759D01*
X868418Y727710D02*
X904521D01*
X868487Y728472D02*
X905283D01*
X868531Y729234D02*
X906045D01*
X868552Y729996D02*
X906807D01*
X894588Y717777D02*
Y757059D01*
X893826Y717015D02*
Y757095D01*
X895350Y718539D02*
Y757047D01*
X896112Y719301D02*
Y757059D01*
X896874Y720063D02*
Y757047D01*
X899160Y722349D02*
Y757047D01*
X897636Y720825D02*
Y757047D01*
X898398Y721587D02*
Y757047D01*
X900684Y723873D02*
Y757047D01*
X899922Y723111D02*
Y757047D01*
X902970Y726159D02*
Y757047D01*
X901446Y724635D02*
Y757047D01*
X902208Y725397D02*
Y757047D01*
X904494Y727683D02*
Y757047D01*
X903732Y726921D02*
Y757047D01*
X906780Y729969D02*
Y757047D01*
X905256Y728445D02*
Y757047D01*
X906018Y729207D02*
Y757047D01*
X912114Y505079D02*
Y525272D01*
X911352Y505079D02*
Y525272D01*
X913638Y505079D02*
Y525272D01*
X912876Y505079D02*
Y525272D01*
X909066Y505079D02*
Y525272D01*
X908304Y505079D02*
Y525272D01*
X849925Y505079D02*
X915670D01*
X909828D02*
Y525272D01*
X910590Y505079D02*
Y525272D01*
X918972Y505079D02*
Y525272D01*
X918210Y505079D02*
Y525272D01*
X920496Y505079D02*
Y525272D01*
X919734Y505079D02*
Y525272D01*
X915162Y505079D02*
Y525272D01*
X914400Y505079D02*
Y525272D01*
X917448Y505079D02*
Y525272D01*
X915924Y505079D02*
Y525272D01*
X916686Y505079D02*
Y525272D01*
X925830Y505079D02*
Y525272D01*
X925068Y505079D02*
Y525272D01*
X927354Y505079D02*
Y525272D01*
X926592Y505079D02*
Y525272D01*
X922020Y505079D02*
Y525272D01*
X921258Y505079D02*
Y525272D01*
X924306Y505079D02*
Y525272D01*
X922782Y505079D02*
Y525272D01*
X923544Y505079D02*
Y525272D01*
X932688Y505079D02*
Y525272D01*
X931926Y505079D02*
Y525272D01*
X934212Y505079D02*
Y525272D01*
X933450Y505079D02*
Y525272D01*
X928878Y505079D02*
Y525272D01*
X928116Y505079D02*
Y525272D01*
X931164Y505079D02*
Y525272D01*
X929640Y505079D02*
Y525272D01*
X930402Y505079D02*
Y525272D01*
X842178Y512826D02*
X1061674D01*
X841416Y513588D02*
X1061179D01*
X843702Y511302D02*
X1062856D01*
X842940Y512064D02*
X1062230D01*
X838368Y516636D02*
X1059706D01*
X837606Y517398D02*
X1059448D01*
X840654Y514350D02*
X1060739D01*
X839130Y515874D02*
X1060006D01*
X839892Y515112D02*
X1060349D01*
X849036Y505968D02*
X1068133D01*
X848274Y506730D02*
X1067371D01*
X915670Y505079D02*
X1069022D01*
X849798Y505206D02*
X1068895D01*
X845226Y509778D02*
X1064323D01*
X844464Y510540D02*
X1063562D01*
X847512Y507492D02*
X1066609D01*
X845988Y509016D02*
X1065085D01*
X846750Y508254D02*
X1065847D01*
X835320Y519684D02*
X1058903D01*
X934974Y505079D02*
Y525132D01*
X836844Y518160D02*
X1059229D01*
X836082Y518922D02*
X1059048D01*
X833034Y521970D02*
X941371D01*
X832272Y522732D02*
X939319D01*
X834558Y520446D02*
X1058794D01*
X833796Y521208D02*
X944430D01*
X940308Y505079D02*
Y522338D01*
X939546Y505079D02*
Y522637D01*
X942594Y505079D02*
Y521614D01*
X941070Y505079D02*
Y522069D01*
X941832Y505079D02*
Y521828D01*
X936498Y505079D02*
Y524154D01*
X935736Y505079D02*
Y524623D01*
X938784Y505079D02*
Y522966D01*
X937260Y505079D02*
Y523723D01*
X938022Y505079D02*
Y523328D01*
X925830Y564388D02*
Y566674D01*
X925068Y564388D02*
Y566674D01*
X927354Y564388D02*
Y566674D01*
X926592Y564388D02*
Y566674D01*
X922782Y564388D02*
Y566674D01*
X922020Y564388D02*
Y566674D01*
X903451Y564388D02*
X934775D01*
X923544D02*
Y566674D01*
X924306Y564388D02*
Y566674D01*
X932688Y564388D02*
Y566674D01*
X931926Y564388D02*
Y566674D01*
X934212Y564388D02*
Y566674D01*
X933450Y564388D02*
Y566674D01*
X928878Y564388D02*
Y566674D01*
X928116Y564388D02*
Y566674D01*
X931164Y564388D02*
Y566674D01*
X929640Y564388D02*
Y566674D01*
X930402Y564388D02*
Y566674D01*
X912876Y564388D02*
Y566674D01*
X912114Y564388D02*
Y566674D01*
X914400Y564388D02*
Y566674D01*
X913638Y564388D02*
Y566674D01*
X909066Y564388D02*
Y566674D01*
X908304Y564388D02*
Y566674D01*
X911352Y564388D02*
Y566674D01*
X909828Y564388D02*
Y566674D01*
X910590Y564388D02*
Y566674D01*
X919734Y564388D02*
Y566674D01*
X918972Y564388D02*
Y566674D01*
X921258Y564388D02*
Y566674D01*
X920496Y564388D02*
Y566674D01*
X915924Y564388D02*
Y566674D01*
X915162Y564388D02*
Y566674D01*
X918210Y564388D02*
Y566674D01*
X916686Y564388D02*
Y566674D01*
X917448Y564388D02*
Y566674D01*
X829986Y525018D02*
X935139D01*
X895350Y525272D02*
X934775D01*
X831510Y523494D02*
X937694D01*
X830748Y524256D02*
X936327D01*
X903197Y564642D02*
X935139D01*
X902435Y565404D02*
X936327D01*
X901673Y566166D02*
X937694D01*
X901165Y566674D02*
X938741D01*
X935736Y565037D02*
Y566674D01*
X934974Y564528D02*
Y566674D01*
X936498Y565506D02*
Y566674D01*
X942462Y664464D02*
X962787D01*
X939546Y665088D02*
Y666113D01*
X938776Y665226D02*
X962787D01*
X939442Y665988D02*
X962787D01*
X940052Y666750D02*
X962787D01*
X940308Y664961D02*
Y667090D01*
X941070Y664809D02*
Y668185D01*
X940613Y667512D02*
X962787D01*
X941128Y668274D02*
X962787D01*
X941600Y669036D02*
X962787D01*
X941749Y692658D02*
X999071D01*
X940789Y694182D02*
X998988D01*
X941290Y693420D02*
X999016D01*
X941832Y664631D02*
Y669434D01*
X942594Y664427D02*
Y670894D01*
X942034Y669798D02*
X962787D01*
X942431Y670560D02*
X962787D01*
X942794Y671322D02*
X962787D01*
X943123Y672084D02*
X962787D01*
X943226Y689610D02*
X962787D01*
X942907Y690372D02*
X962787D01*
X942170Y691896D02*
X999150D01*
X942556Y691134D02*
X999254D01*
X947928Y505079D02*
Y520839D01*
X947166Y505079D02*
Y520875D01*
X948690Y505079D02*
Y520827D01*
X949452Y505079D02*
Y520839D01*
X944118Y505079D02*
Y521266D01*
X943356Y505079D02*
Y521427D01*
X946404Y505079D02*
Y520936D01*
X944880Y505079D02*
Y521131D01*
X945642Y505079D02*
Y521021D01*
X950214Y505079D02*
Y520875D01*
X950976Y505079D02*
Y520936D01*
X951738Y505079D02*
Y521021D01*
X952500Y505079D02*
Y521131D01*
X953262Y505079D02*
Y521266D01*
X954024Y505079D02*
Y521427D01*
X954786Y505079D02*
Y521614D01*
X955548Y505079D02*
Y521828D01*
X956009Y521970D02*
X966771D01*
X956310Y505079D02*
Y522069D01*
X957072Y505079D02*
Y522338D01*
X957834Y505079D02*
Y522637D01*
X958596Y505079D02*
Y522966D01*
X959358Y505079D02*
Y523328D01*
X960120Y505079D02*
Y523723D01*
X958061Y522732D02*
X964719D01*
X959686Y523494D02*
X963094D01*
X960882Y505079D02*
Y524154D01*
X961644Y505079D02*
Y524306D01*
X963168Y505079D02*
Y523456D01*
X962406Y505079D02*
Y523863D01*
X963930Y505079D02*
Y523083D01*
X966216Y505079D02*
Y522155D01*
X964692Y505079D02*
Y522743D01*
X965454Y505079D02*
Y522434D01*
X972312Y505079D02*
Y520893D01*
X971550Y505079D02*
Y520962D01*
X973836Y505079D02*
Y520828D01*
X973074Y505079D02*
Y520849D01*
X969264Y505079D02*
Y521317D01*
X968502Y505079D02*
Y521487D01*
X970788Y505079D02*
Y521055D01*
X952950Y521208D02*
X969830D01*
X970026Y505079D02*
Y521174D01*
X974598Y505079D02*
Y520832D01*
X975360Y505079D02*
Y520861D01*
X976122Y505079D02*
Y520913D01*
X976884Y505079D02*
Y520990D01*
X977646Y505079D02*
Y521092D01*
X978408Y505079D02*
Y521219D01*
X978350Y521208D02*
X995230D01*
X979170Y505079D02*
Y521371D01*
X979932Y505079D02*
Y521549D01*
X967740Y505079D02*
Y521682D01*
X966978Y505079D02*
Y521905D01*
X980694Y505079D02*
Y521753D01*
X981456Y505079D02*
Y521985D01*
X982218Y505079D02*
Y522245D01*
X982980Y505079D02*
Y522534D01*
X981409Y521970D02*
X992171D01*
X983461Y522732D02*
X990119D01*
X983742Y505079D02*
Y522853D01*
X984504Y505079D02*
Y523204D01*
X985266Y505079D02*
Y523588D01*
X986028Y505079D02*
Y524006D01*
X987552Y505079D02*
Y524006D01*
X986790Y505079D02*
Y524462D01*
X985086Y523494D02*
X988494D01*
X986790Y565198D02*
Y566674D01*
X958915Y648462D02*
X962787D01*
X958665Y649224D02*
X962787D01*
X959333Y646938D02*
X962787D01*
X959138Y647700D02*
X962787D01*
X957364Y652272D02*
X962787D01*
X956957Y653034D02*
X962787D01*
X958386Y649986D02*
X962787D01*
X957737Y651510D02*
X962787D01*
X958077Y650748D02*
X962787D01*
X960882Y565506D02*
Y566674D01*
X962406Y565797D02*
Y566674D01*
X961644Y565354D02*
Y566674D01*
X959647Y645414D02*
X962787D01*
X959503Y646176D02*
X962787D01*
X959927Y643128D02*
X962787D01*
X959765Y644652D02*
X962787D01*
X959858Y643890D02*
X962787D01*
X943356Y664195D02*
Y672673D01*
X944118Y663935D02*
Y675055D01*
X944846Y679704D02*
X962787D01*
X944880Y663646D02*
Y680974D01*
X944812Y682752D02*
X962787D01*
X944742Y683514D02*
X962787D01*
X944874Y680466D02*
X962787D01*
X944858Y681990D02*
X962787D01*
X944879Y681228D02*
X962787D01*
X955509Y655320D02*
X962787D01*
X954940Y656082D02*
X962787D01*
X956514Y653796D02*
X962787D01*
X956032Y654558D02*
X962787D01*
Y642747D02*
Y690753D01*
X952115Y659130D02*
X962787D01*
X951233Y659892D02*
X962787D01*
X954323Y656844D02*
X962787D01*
X952917Y658368D02*
X962787D01*
X953650Y657606D02*
X962787D01*
X959686Y566166D02*
X963094D01*
X958639Y566674D02*
X964141D01*
X959959Y640080D02*
X963456D01*
X950255Y660654D02*
X962787D01*
X949162Y661416D02*
X962787D01*
X959988Y640842D02*
X963511D01*
X947921Y662178D02*
X962787D01*
X959971Y642366D02*
X963694D01*
X987552Y565654D02*
Y566674D01*
X986028Y565654D02*
Y566674D01*
X985086Y566166D02*
X988494D01*
X959992Y641604D02*
X963590D01*
X963168Y639887D02*
Y642747D01*
X984039Y566674D02*
X989541D01*
X962787Y642747D02*
X963756D01*
X943927Y674370D02*
X962787D01*
X944138Y675132D02*
X962787D01*
X943421Y672846D02*
X962787D01*
X943689Y673608D02*
X962787D01*
X943771Y688086D02*
X962787D01*
X943513Y688848D02*
X962787D01*
X944321Y675894D02*
X962787D01*
X944001Y687324D02*
X962787D01*
X944202Y686562D02*
X962787D01*
X944608Y677418D02*
X962787D01*
X944712Y678180D02*
X962787D01*
X946479Y662940D02*
X962787D01*
X944478Y676656D02*
X962787D01*
X944738Y663702D02*
X962787D01*
X944791Y678942D02*
X962787D01*
X944645Y684276D02*
X962787D01*
X944524Y685038D02*
X962787D01*
X944376Y685800D02*
X962787D01*
Y690753D02*
X999316D01*
X938022Y697511D02*
Y705893D01*
X938784Y696714D02*
Y706655D01*
X939546Y695835D02*
Y707417D01*
X934212Y700590D02*
Y702083D01*
X934974Y700075D02*
Y702845D01*
X935736Y699514D02*
Y703607D01*
X936498Y698904D02*
Y704369D01*
X937260Y698239D02*
Y705131D01*
X942594Y691054D02*
Y710465D01*
X943356Y689275D02*
Y711227D01*
X944118Y686893D02*
Y711989D01*
X944880Y680974D02*
Y712751D01*
X940308Y694858D02*
Y708179D01*
X941070Y693763D02*
Y708941D01*
X940244Y694944D02*
X998983D01*
X939651Y695706D02*
X999004D01*
X941832Y692514D02*
Y709703D01*
X946404Y662976D02*
Y714275D01*
X947166Y662592D02*
Y715037D01*
X947928Y662174D02*
Y715799D01*
X948690Y661718D02*
Y716561D01*
X868548Y730758D02*
X907569D01*
X907542Y730731D02*
Y757047D01*
X945642Y663327D02*
Y713513D01*
X866336Y689525D02*
X923556Y746746D01*
X933287Y701158D02*
X959459Y727330D01*
X953262Y658018D02*
Y721133D01*
X954024Y657190D02*
Y721895D01*
X954786Y656278D02*
Y722657D01*
X955548Y655265D02*
Y723419D01*
X949452Y661223D02*
Y717323D01*
X950214Y660685D02*
Y718085D01*
X950976Y660100D02*
Y718847D01*
X951738Y659465D02*
Y719609D01*
X952500Y658773D02*
Y720371D01*
X936676Y698754D02*
X999338D01*
X935734Y699516D02*
X999486D01*
X934681Y700278D02*
X999660D01*
X933488Y701040D02*
X999861D01*
X933931Y701802D02*
X1000091D01*
X934693Y702564D02*
X1000349D01*
X935455Y703326D02*
X1000636D01*
X936217Y704088D02*
X1000955D01*
X936979Y704850D02*
X1001306D01*
X939005Y696468D02*
X999050D01*
X938299Y697230D02*
X999120D01*
X937526Y697992D02*
X999217D01*
X937741Y705612D02*
X1001692D01*
X938503Y706374D02*
X1002113D01*
X939265Y707136D02*
X1002572D01*
X940027Y707898D02*
X1003073D01*
X940789Y708660D02*
X1003618D01*
X941551Y709422D02*
X1004211D01*
X942313Y710184D02*
X1004857D01*
X943075Y710946D02*
X1005563D01*
X943837Y711708D02*
X1006336D01*
X944599Y712470D02*
X1006225D01*
X947647Y715518D02*
X1003400D01*
X948409Y716280D02*
X1002831D01*
X945361Y713232D02*
X1005423D01*
X946123Y713994D02*
X1004690D01*
X946885Y714756D02*
X1004017D01*
X951457Y719328D02*
X1000976D01*
X952219Y720090D02*
X1000603D01*
X949171Y717042D02*
X1002308D01*
X949933Y717804D02*
X1001826D01*
X950695Y718566D02*
X1001383D01*
X955267Y723138D02*
X999425D01*
X956029Y723900D02*
X999202D01*
X952981Y720852D02*
X1000263D01*
X953743Y721614D02*
X999954D01*
X954505Y722376D02*
X999675D01*
X867135Y738378D02*
X915189D01*
X866846Y739140D02*
X915951D01*
X866527Y739902D02*
X916713D01*
X866176Y740664D02*
X917475D01*
X865792Y741426D02*
X918237D01*
X865374Y742188D02*
X918999D01*
X864918Y742950D02*
X919761D01*
X865374Y743712D02*
X920523D01*
X865792Y744474D02*
X921285D01*
X868519Y731520D02*
X908331D01*
X868467Y732282D02*
X909093D01*
X868390Y733044D02*
X909855D01*
X868288Y733806D02*
X910617D01*
X868161Y734568D02*
X911379D01*
X868009Y735330D02*
X912141D01*
X867831Y736092D02*
X912903D01*
X867395Y737616D02*
X914427D01*
X867627Y736854D02*
X913665D01*
X909066Y732255D02*
Y757047D01*
X908304Y731493D02*
Y757047D01*
X910590Y733779D02*
Y757047D01*
X909828Y733017D02*
Y757047D01*
X912114Y735303D02*
Y757047D01*
X911352Y734541D02*
Y757047D01*
X914400Y737589D02*
Y757047D01*
X912876Y736065D02*
Y757047D01*
X913638Y736827D02*
Y757047D01*
X915924Y739113D02*
Y757047D01*
X915162Y738351D02*
Y757047D01*
X917448Y740637D02*
Y757047D01*
X916686Y739875D02*
Y757047D01*
X918972Y742161D02*
Y757047D01*
X918210Y741399D02*
Y757047D01*
X921258Y744447D02*
Y757047D01*
X919734Y742923D02*
Y757047D01*
X920496Y743685D02*
Y757047D01*
X866176Y745236D02*
X922047D01*
X866527Y745998D02*
X922809D01*
X866846Y746760D02*
X923551D01*
X867135Y747522D02*
X923303D01*
X868009Y750570D02*
X922587D01*
X868161Y751332D02*
X922474D01*
X867395Y748284D02*
X923083D01*
X867627Y749046D02*
X922891D01*
X867831Y749808D02*
X922726D01*
X868390Y752856D02*
X922324D01*
X868467Y753618D02*
X922286D01*
X922782Y745971D02*
Y749534D01*
X868288Y752094D02*
X922386D01*
X868519Y754380D02*
X922274D01*
X868548Y755142D02*
X922286D01*
X868552Y755904D02*
X922324D01*
X868531Y756666D02*
X922386D01*
X896747Y757047D02*
X922427D01*
X922020Y745209D02*
Y757047D01*
X950214Y804706D02*
Y879107D01*
X947166Y805032D02*
Y879756D01*
X944880Y805019D02*
Y880534D01*
X949452Y804825D02*
Y879230D01*
X947928Y804987D02*
Y879554D01*
X948690Y804918D02*
Y879378D01*
X954024Y803725D02*
Y878874D01*
X954786Y803446D02*
Y878902D01*
X955521Y803148D02*
X962179D01*
X953469Y803910D02*
X964231D01*
X955548Y803137D02*
Y878955D01*
X951738Y804393D02*
Y878939D01*
X950976Y804563D02*
Y879010D01*
X950410Y804672D02*
X967290D01*
X952500Y804198D02*
Y878892D01*
X953262Y803975D02*
Y878870D01*
X958596Y649419D02*
Y726467D01*
X959358Y646835D02*
Y727229D01*
X960120Y639919D02*
Y728023D01*
X960882Y639948D02*
Y728914D01*
X956310Y654127D02*
Y724181D01*
X957072Y652826D02*
Y724943D01*
X957834Y651299D02*
Y725705D01*
X961644Y639952D02*
Y729927D01*
X962406Y639931D02*
Y731098D01*
X963168Y690753D02*
Y732491D01*
X963930Y690753D02*
Y734239D01*
X964692Y690753D02*
Y736743D01*
X965454Y690753D02*
Y741989D01*
X966216Y690753D02*
Y743300D01*
X966978Y690753D02*
Y744849D01*
X967740Y690753D02*
Y746781D01*
X971550Y690753D02*
Y757047D01*
X972312Y690753D02*
Y757059D01*
X973074Y690753D02*
Y757095D01*
X973836Y690753D02*
Y757156D01*
X968502Y690753D02*
Y749534D01*
X970788Y690753D02*
Y757059D01*
X969264Y690753D02*
Y757156D01*
X970026Y690753D02*
Y757095D01*
X978408Y690753D02*
Y758048D01*
X979170Y690753D02*
Y758289D01*
X979932Y690753D02*
Y758558D01*
X980694Y690753D02*
Y758857D01*
X974598Y690753D02*
Y757241D01*
X975360Y690753D02*
Y757351D01*
X976122Y690753D02*
Y757486D01*
X976884Y690753D02*
Y757647D01*
X977646Y690753D02*
Y757834D01*
X958315Y726186D02*
X998693D01*
X959077Y726948D02*
X998575D01*
X956791Y724662D02*
X999007D01*
X957553Y725424D02*
X998837D01*
X961692Y729996D02*
X998348D01*
X962197Y730758D02*
X998352D01*
X959830Y727710D02*
X998482D01*
X960516Y728472D02*
X998413D01*
X961134Y729234D02*
X998369D01*
X962652Y731520D02*
X998381D01*
X963063Y732282D02*
X998433D01*
X963431Y733044D02*
X998510D01*
X963760Y733806D02*
X998612D01*
X964051Y734568D02*
X998739D01*
X964307Y735330D02*
X998891D01*
X964529Y736092D02*
X999069D01*
X964717Y736854D02*
X999273D01*
X964874Y737616D02*
X999505D01*
X964999Y738378D02*
X999765D01*
X965094Y739140D02*
X1000054D01*
X965159Y739902D02*
X1000373D01*
X965193Y740664D02*
X1000724D01*
X965577Y742188D02*
X1001526D01*
X966024Y742950D02*
X1001982D01*
X966433Y743712D02*
X1002477D01*
X966806Y744474D02*
X1003016D01*
X967147Y745236D02*
X1003600D01*
X984504Y690753D02*
Y760843D01*
X985266Y690753D02*
Y761352D01*
X986028Y690753D02*
Y761905D01*
X986790Y690753D02*
Y762506D01*
X987552Y690753D02*
Y763159D01*
X981456Y690753D02*
Y759186D01*
X982218Y690753D02*
Y759548D01*
X967455Y745998D02*
X1004235D01*
X982980Y690753D02*
Y759943D01*
X983742Y690753D02*
Y760374D01*
X957834Y802017D02*
Y879266D01*
X958596Y801574D02*
Y879421D01*
X959358Y801726D02*
Y879603D01*
X960120Y802157D02*
Y879813D01*
X956310Y802797D02*
Y879033D01*
X957072Y802424D02*
Y879136D01*
X957146Y802386D02*
X960554D01*
X960882Y802552D02*
Y880050D01*
X961644Y802914D02*
Y880317D01*
X962406Y803243D02*
Y880614D01*
X963168Y803542D02*
Y880942D01*
X963930Y803811D02*
Y881303D01*
X964692Y804052D02*
Y881699D01*
X965454Y804266D02*
Y882131D01*
X966216Y804453D02*
Y882602D01*
X966978Y804614D02*
Y883116D01*
X967740Y804749D02*
Y883674D01*
X968502Y804859D02*
Y884283D01*
X975360Y804749D02*
Y893861D01*
X976122Y804614D02*
Y896210D01*
X976884Y804453D02*
Y901081D01*
X969264Y804944D02*
Y884946D01*
X970026Y805005D02*
Y885671D01*
X973074Y805005D02*
Y889404D01*
X973836Y804944D02*
Y890647D01*
X974598Y804859D02*
Y892097D01*
X982218Y802552D02*
Y1057529D01*
X981456Y802914D02*
Y1057529D01*
X984504Y801257D02*
Y1057529D01*
X982980Y802157D02*
Y1057529D01*
X983742Y801726D02*
Y1057529D01*
X978408Y804052D02*
Y1057529D01*
X977646Y804266D02*
Y1057529D01*
X980694Y803243D02*
Y1057529D01*
X979170Y803811D02*
Y1057529D01*
X979932Y803542D02*
Y1057529D01*
X967733Y746760D02*
X1004927D01*
X967981Y747522D02*
X1005682D01*
X968201Y748284D02*
X1006510D01*
X968393Y749046D02*
X1007422D01*
X968558Y749808D02*
X1008435D01*
X968697Y750570D02*
X1009573D01*
X968810Y751332D02*
X1010874D01*
X968898Y756666D02*
X1233487D01*
X968898Y752094D02*
X1012401D01*
X968960Y752856D02*
X1014281D01*
X968998Y753618D02*
X1016865D01*
X969010Y754380D02*
X1235773D01*
X968998Y755142D02*
X1235011D01*
X980921Y758952D02*
X1231201D01*
X982546Y759714D02*
X1230439D01*
X968960Y755904D02*
X1234249D01*
X975810Y757428D02*
X1232725D01*
X978869Y758190D02*
X1231963D01*
X983913Y760476D02*
X1229677D01*
X985101Y800862D02*
X1076737D01*
X983913Y801624D02*
X1077045D01*
X982546Y802386D02*
X1077385D01*
X980921Y803148D02*
X1077759D01*
X975810Y804672D02*
X1078615D01*
X978869Y803910D02*
X1078168D01*
X987951Y798576D02*
X1075991D01*
X987552Y798941D02*
Y1057529D01*
X985101Y761238D02*
X1228915D01*
X986153Y762000D02*
X1228153D01*
X987096Y762762D02*
X1227391D01*
X986028Y800195D02*
Y1057529D01*
X985266Y800748D02*
Y1057529D01*
X987096Y799338D02*
X1076211D01*
X986153Y800100D02*
X1076459D01*
X986790Y799594D02*
Y1057529D01*
X792480Y828294D02*
X820812D01*
X792480Y829056D02*
X820710D01*
X792480Y826770D02*
X821091D01*
X792480Y827532D02*
X820939D01*
X792480Y831342D02*
X820552D01*
X792480Y832104D02*
X820548D01*
X792480Y829818D02*
X820633D01*
X792480Y832866D02*
X820568D01*
X792480Y830580D02*
X820581D01*
X792480Y806196D02*
X820548D01*
X792480Y806958D02*
X820552D01*
X792480Y805434D02*
X820568D01*
X792480Y807720D02*
X820581D01*
X792480Y808482D02*
X820633D01*
X792480Y809244D02*
X820710D01*
X792480Y810006D02*
X820812D01*
X792480Y811530D02*
X821091D01*
X792480Y810768D02*
X820939D01*
X792480Y855726D02*
X820595D01*
X792480Y856488D02*
X820559D01*
X792480Y854202D02*
X820741D01*
X792480Y854964D02*
X820656D01*
X792480Y857250D02*
X820547D01*
X792480Y858012D02*
X820559D01*
X792480Y858774D02*
X820595D01*
X792480Y860298D02*
X820741D01*
X792480Y859536D02*
X820656D01*
X792480Y833628D02*
X820613D01*
X792480Y834390D02*
X820682D01*
X792480Y835152D02*
X820775D01*
X792480Y835914D02*
X820893D01*
X792480Y852678D02*
X820986D01*
X792480Y853440D02*
X820851D01*
X792480Y836676D02*
X821037D01*
X792480Y851916D02*
X821147D01*
X792480Y837438D02*
X821207D01*
X792480Y820674D02*
X823308D01*
X792480Y821436D02*
X822924D01*
X792480Y819150D02*
X824182D01*
X792480Y819912D02*
X823726D01*
X792480Y824484D02*
X821705D01*
X792480Y825246D02*
X821473D01*
X792480Y822198D02*
X822573D01*
X792480Y823722D02*
X821965D01*
X792480Y822960D02*
X822254D01*
X792480Y812292D02*
X821269D01*
X792480Y813054D02*
X821473D01*
X792480Y813816D02*
X821705D01*
X792480Y814578D02*
X821965D01*
X792480Y815340D02*
X822254D01*
X792480Y816102D02*
X822573D01*
X792480Y816864D02*
X822924D01*
X792480Y818388D02*
X823726D01*
X792480Y817626D02*
X823308D01*
X792480Y846582D02*
X823048D01*
X792480Y847344D02*
X822686D01*
X792480Y845058D02*
X823874D01*
X792480Y845820D02*
X823443D01*
X792480Y850392D02*
X821548D01*
X792480Y851154D02*
X821334D01*
X792480Y848106D02*
X822357D01*
X792480Y849630D02*
X821789D01*
X792480Y848868D02*
X822058D01*
X792480Y826008D02*
X821269D01*
X792480Y838200D02*
X821402D01*
X792480Y838962D02*
X821625D01*
X792480Y840486D02*
X822154D01*
X792480Y839724D02*
X821875D01*
X792480Y841248D02*
X822463D01*
X792480Y842010D02*
X822803D01*
X792480Y842772D02*
X823176D01*
X792480Y844296D02*
X824026D01*
X792480Y843534D02*
X823583D01*
X792480Y881634D02*
X820568D01*
X792480Y882396D02*
X820548D01*
X792480Y880110D02*
X820682D01*
X792480Y880872D02*
X820613D01*
X792480Y883158D02*
X820552D01*
X792480Y883920D02*
X820581D01*
X792480Y884682D02*
X820633D01*
X792480Y886206D02*
X820812D01*
X792480Y885444D02*
X820710D01*
X792480Y861060D02*
X820851D01*
X792480Y861822D02*
X820986D01*
X792480Y862584D02*
X821147D01*
X792480Y863346D02*
X821334D01*
X792480Y878586D02*
X820893D01*
X792480Y879348D02*
X820775D01*
X792480Y876300D02*
X821402D01*
X792480Y877824D02*
X821037D01*
X792480Y877062D02*
X821207D01*
X792480Y952500D02*
X820547D01*
X792480Y953262D02*
X820547D01*
X792480Y931926D02*
X820595D01*
X792480Y932688D02*
X820559D01*
X792480Y957834D02*
X820547D01*
X792480Y958596D02*
X820547D01*
X792480Y954024D02*
X820547D01*
X792480Y957072D02*
X820547D01*
X792480Y956310D02*
X820547D01*
X792480Y886968D02*
X820939D01*
X792480Y887730D02*
X821091D01*
X792480Y888492D02*
X821269D01*
X792480Y927354D02*
X821334D01*
X792480Y930402D02*
X820741D01*
X792480Y931164D02*
X820656D01*
X792480Y928116D02*
X821147D01*
X792480Y929640D02*
X820851D01*
X792480Y928878D02*
X820986D01*
X792480Y872490D02*
X822803D01*
X792480Y873252D02*
X822463D01*
X792480Y870966D02*
X823583D01*
X792480Y871728D02*
X823176D01*
X792480Y875538D02*
X821625D01*
X792480Y889254D02*
X821473D01*
X792480Y874014D02*
X822154D01*
X792480Y890016D02*
X821705D01*
X792480Y874776D02*
X821875D01*
X792480Y864108D02*
X821548D01*
X792480Y864870D02*
X821789D01*
X792480Y865632D02*
X822058D01*
X792480Y866394D02*
X822357D01*
X792480Y867156D02*
X822686D01*
X792480Y867918D02*
X823048D01*
X792480Y868680D02*
X823443D01*
X792480Y870204D02*
X824026D01*
X792480Y869442D02*
X823874D01*
X792480Y899160D02*
X822254D01*
X792480Y899922D02*
X821965D01*
X792480Y898398D02*
X822573D01*
X792480Y922020D02*
X823443D01*
X792480Y925830D02*
X821789D01*
X792480Y926592D02*
X821548D01*
X792480Y922782D02*
X823048D01*
X792480Y925068D02*
X822058D01*
X792480Y924306D02*
X822357D01*
X792480Y890778D02*
X821965D01*
X792480Y891540D02*
X822254D01*
X792480Y892302D02*
X822573D01*
X792480Y893826D02*
X823308D01*
X792480Y893064D02*
X822924D01*
X792480Y896874D02*
X823308D01*
X792480Y897636D02*
X822924D01*
X792480Y894588D02*
X823726D01*
X792480Y896112D02*
X823726D01*
X792480Y895350D02*
X824182D01*
X820674Y808916D02*
Y829384D01*
Y834316D02*
Y854784D01*
Y859716D02*
Y880184D01*
X821436Y889122D02*
Y901578D01*
X792480Y902970D02*
X821091D01*
X792480Y903732D02*
X820939D01*
X792480Y900684D02*
X821705D01*
X792480Y902208D02*
X821269D01*
X792480Y901446D02*
X821473D01*
X821436Y812922D02*
Y825378D01*
Y838322D02*
Y850778D01*
X822198Y815198D02*
Y823102D01*
Y840598D02*
Y848502D01*
Y865998D02*
Y873902D01*
X821436Y863722D02*
Y876178D01*
X822960Y867739D02*
Y872161D01*
X822198Y891398D02*
Y899302D01*
X822960Y893139D02*
Y897561D01*
X792480Y906018D02*
X820633D01*
X792480Y906780D02*
X820581D01*
X792480Y904494D02*
X820812D01*
X792480Y905256D02*
X820710D01*
X792480Y907542D02*
X820552D01*
X792480Y908304D02*
X820548D01*
X792480Y909066D02*
X820568D01*
X792480Y910590D02*
X820682D01*
X792480Y909828D02*
X820613D01*
X820674Y885116D02*
Y905584D01*
Y910516D02*
Y930984D01*
X792480Y911352D02*
X820775D01*
X792480Y912114D02*
X820893D01*
X792480Y912876D02*
X821037D01*
X792480Y913638D02*
X821207D01*
X792480Y914400D02*
X821402D01*
X792480Y915162D02*
X821625D01*
X821436Y914522D02*
Y926978D01*
X823722Y818381D02*
Y819919D01*
X822960Y816939D02*
Y821361D01*
X823722Y843781D02*
Y845319D01*
X822960Y842339D02*
Y846761D01*
X917448Y815821D02*
Y822479D01*
X918210Y813769D02*
Y824531D01*
X918972Y810710D02*
Y827590D01*
X916686Y817446D02*
Y820854D01*
Y842846D02*
Y846254D01*
X917448Y841221D02*
Y847879D01*
X918210Y839169D02*
Y849931D01*
X918972Y836110D02*
Y852990D01*
X823722Y869181D02*
Y870719D01*
Y894581D02*
Y896119D01*
X916686Y868246D02*
Y871654D01*
X917448Y866621D02*
Y873279D01*
X918210Y864569D02*
Y875331D01*
X918972Y886910D02*
Y903790D01*
Y861510D02*
Y878390D01*
X916686Y893646D02*
Y897054D01*
X917448Y892021D02*
Y898679D01*
X918210Y889969D02*
Y900731D01*
X918972Y912310D02*
Y929190D01*
X792480Y942594D02*
X820547D01*
X792480Y943356D02*
X820547D01*
X792480Y941070D02*
X820547D01*
X792480Y941832D02*
X820547D01*
X792480Y946404D02*
X820547D01*
X792480Y947166D02*
X820547D01*
X792480Y944118D02*
X820547D01*
X792480Y945642D02*
X820547D01*
X792480Y944880D02*
X820547D01*
X792480Y935736D02*
X820547D01*
X792480Y936498D02*
X820547D01*
X792480Y933450D02*
X820547D01*
X792480Y934974D02*
X820547D01*
X792480Y939546D02*
X820547D01*
X792480Y940308D02*
X820547D01*
X792480Y937260D02*
X820547D01*
X792480Y938784D02*
X820547D01*
X792480Y938022D02*
X820547D01*
X792480Y949452D02*
X820547D01*
X792480Y950214D02*
X820547D01*
X792480Y947928D02*
X820547D01*
X792480Y948690D02*
X820547D01*
X794993Y967740D02*
X820547D01*
X795755Y968502D02*
X820547D01*
X792480Y950976D02*
X820547D01*
X792480Y954786D02*
X820547D01*
X792480Y951738D02*
X820547D01*
X798803Y971550D02*
X820547D01*
X799565Y972312D02*
X820547D01*
X796517Y969264D02*
X820547D01*
X797279Y970026D02*
X820547D01*
X798041Y970788D02*
X820547D01*
X803375Y976122D02*
X820547D01*
X804137Y976884D02*
X820547D01*
X800327Y973074D02*
X820547D01*
X801089Y973836D02*
X820547D01*
X802613Y975360D02*
X820547D01*
X792480Y915924D02*
X821875D01*
X792480Y917448D02*
X822463D01*
X792480Y918210D02*
X822803D01*
X792480Y918972D02*
X823176D01*
X792480Y923544D02*
X822686D01*
X792480Y934212D02*
X820559D01*
X792480Y919734D02*
X823583D01*
X792480Y921258D02*
X823874D01*
X792480Y920496D02*
X824026D01*
X792480Y916686D02*
X822154D01*
X822198Y916798D02*
Y924702D01*
X917448Y917421D02*
Y924079D01*
X918210Y915369D02*
Y926131D01*
X823722Y919981D02*
Y921519D01*
X822960Y918539D02*
Y922961D01*
X916686Y919046D02*
Y922454D01*
X792480Y960120D02*
X820547D01*
X792480Y960882D02*
X820547D01*
X792480Y955548D02*
X820547D01*
X792480Y959358D02*
X820547D01*
X792480Y963930D02*
X820547D01*
X792480Y964692D02*
X820547D01*
X792480Y961644D02*
X820547D01*
X792480Y963168D02*
X820547D01*
X792480Y962406D02*
X820547D01*
X916686Y944446D02*
Y947854D01*
X917448Y942821D02*
Y949479D01*
X918210Y940769D02*
Y951531D01*
X918972Y937710D02*
Y954590D01*
X794231Y966978D02*
X820547D01*
X801851Y974598D02*
X820547D01*
X792707Y965454D02*
X820547D01*
X793469Y966216D02*
X820547D01*
X763397Y999744D02*
X771679D01*
X763397Y991462D02*
Y1049741D01*
Y1000506D02*
X772441D01*
X763397Y1001268D02*
X773203D01*
X763397Y1002030D02*
X773965D01*
X763397Y1002792D02*
X774727D01*
X763397Y1003554D02*
X775489D01*
X763397Y1005078D02*
X777013D01*
X763397Y1004316D02*
X776251D01*
X763397Y992886D02*
X764821D01*
X763397Y993648D02*
X765583D01*
X763397Y994410D02*
X766345D01*
X763397Y995172D02*
X767107D01*
X763397Y995934D02*
X767869D01*
X763397Y996696D02*
X768631D01*
X763397Y997458D02*
X769393D01*
X763397Y998982D02*
X770917D01*
X763397Y998220D02*
X770155D01*
X763524Y991589D02*
Y1049868D01*
X764286Y992351D02*
Y1050630D01*
X765048Y993113D02*
Y1051392D01*
X765810Y993875D02*
Y1052154D01*
X766572Y994637D02*
Y1052916D01*
X767334Y995399D02*
Y1053678D01*
X768096Y996161D02*
Y1054440D01*
X768858Y996923D02*
Y1055202D01*
X769620Y997685D02*
Y1055964D01*
X770382Y998447D02*
Y1056726D01*
X771144Y999209D02*
Y1057488D01*
X772668Y1000733D02*
Y1057529D01*
X771906Y999971D02*
Y1057529D01*
X774192Y1002257D02*
Y1057529D01*
X773430Y1001495D02*
Y1057529D01*
X776478Y1004543D02*
Y1057529D01*
X774954Y1003019D02*
Y1057529D01*
X775716Y1003781D02*
Y1057529D01*
X763397Y1005840D02*
X777775D01*
X763397Y1006602D02*
X778537D01*
X763397Y1007364D02*
X779299D01*
X763397Y1008126D02*
X780061D01*
X763397Y1008888D02*
X780823D01*
X763397Y1009650D02*
X781585D01*
X763397Y1011174D02*
X783109D01*
X763397Y1012698D02*
X784633D01*
X763397Y1011936D02*
X783871D01*
X820547Y934847D02*
Y980694D01*
X792480Y965227D02*
X807947Y980694D01*
X804899Y977646D02*
X820547D01*
X805661Y978408D02*
X820547D01*
X807947Y980694D02*
X820547D01*
X763397Y1010412D02*
X782347D01*
X806423Y979170D02*
X820547D01*
X807185Y979932D02*
X820547D01*
X807947Y980694D02*
X820547D01*
X778002Y1006067D02*
Y1057529D01*
X777240Y1005305D02*
Y1057529D01*
X763397Y991462D02*
X786004Y1014069D01*
X778764Y1006829D02*
Y1057529D01*
X780288Y1008353D02*
Y1057529D01*
X779526Y1007591D02*
Y1057529D01*
X763397Y1013460D02*
X785395D01*
X763397Y1014984D02*
X786982D01*
X763397Y1014222D02*
X786158D01*
X781812Y1009877D02*
Y1057529D01*
X781050Y1009115D02*
Y1057529D01*
X784098Y1012163D02*
Y1057529D01*
X782574Y1010639D02*
Y1057529D01*
X783336Y1011401D02*
Y1057529D01*
X785622Y1013687D02*
Y1057529D01*
X784860Y1012925D02*
Y1057529D01*
X786384Y1014440D02*
Y1057529D01*
X787908Y1015744D02*
Y1057529D01*
X787146Y1015126D02*
Y1057529D01*
X763397Y1015746D02*
X787911D01*
X763397Y1016508D02*
X788971D01*
X763397Y1017270D02*
X790207D01*
X763397Y1049741D02*
X771185Y1057529D01*
X763397Y1018032D02*
X791698D01*
X763397Y1019556D02*
X796704D01*
X763397Y1018794D02*
X793624D01*
X789432Y1016807D02*
Y1057529D01*
X788670Y1016302D02*
Y1057529D01*
X790956Y1017673D02*
Y1057529D01*
X790194Y1017262D02*
Y1057529D01*
X792480Y1018370D02*
Y1057529D01*
X791718Y1018041D02*
Y1057529D01*
X794766Y1019139D02*
Y1057529D01*
X793242Y1018661D02*
Y1057529D01*
X794004Y1018917D02*
Y1057529D01*
X796290Y1019484D02*
Y1057529D01*
X795528Y1019327D02*
Y1057529D01*
X797814Y1019704D02*
Y1057529D01*
X797052Y1019609D02*
Y1057529D01*
X799338Y1019803D02*
Y1057529D01*
X798576Y1019769D02*
Y1057529D01*
X801624Y1019810D02*
Y1057529D01*
X800100Y1019810D02*
Y1057529D01*
X800862Y1019810D02*
Y1057529D01*
X806958Y1019810D02*
Y1057529D01*
X806196Y1019810D02*
Y1057529D01*
X808482Y1019810D02*
Y1057529D01*
X807720Y1019810D02*
Y1057529D01*
X803148Y1019810D02*
Y1057529D01*
X802386Y1019810D02*
Y1057529D01*
X805434Y1019810D02*
Y1057529D01*
X803910Y1019810D02*
Y1057529D01*
X804672Y1019810D02*
Y1057529D01*
X828294Y1019810D02*
Y1057529D01*
X827532Y1019810D02*
Y1057529D01*
X829818Y1019810D02*
Y1057529D01*
X829056Y1019810D02*
Y1057529D01*
X824484Y1019810D02*
Y1057529D01*
X823722Y1019810D02*
Y1057529D01*
X826770Y1019810D02*
Y1057529D01*
X825246Y1019810D02*
Y1057529D01*
X826008Y1019810D02*
Y1057529D01*
X835152Y1019810D02*
Y1057529D01*
X834390Y1019810D02*
Y1057529D01*
X836676Y1019810D02*
Y1057529D01*
X835914Y1019810D02*
Y1057529D01*
X831342Y1019810D02*
Y1057529D01*
X830580Y1019810D02*
Y1057529D01*
X833628Y1019810D02*
Y1057529D01*
X832104Y1019810D02*
Y1057529D01*
X832866Y1019810D02*
Y1057529D01*
X813816Y1019810D02*
Y1057529D01*
X813054Y1019810D02*
Y1057529D01*
X815340Y1019810D02*
Y1057529D01*
X814578Y1019810D02*
Y1057529D01*
X810006Y1019810D02*
Y1057529D01*
X809244Y1019810D02*
Y1057529D01*
X812292Y1019810D02*
Y1057529D01*
X810768Y1019810D02*
Y1057529D01*
X811530Y1019810D02*
Y1057529D01*
X820674Y1019810D02*
Y1057529D01*
X819912Y1019810D02*
Y1057529D01*
X822960Y1019810D02*
Y1057529D01*
X821436Y1019810D02*
Y1057529D01*
X822198Y1019810D02*
Y1057529D01*
X816864Y1019810D02*
Y1057529D01*
X816102Y1019810D02*
Y1057529D01*
X819150Y1019810D02*
Y1057529D01*
X817626Y1019810D02*
Y1057529D01*
X818388Y1019810D02*
Y1057529D01*
X867918Y1019810D02*
Y1057529D01*
X867156Y1019810D02*
Y1057529D01*
X869442Y1019810D02*
Y1057529D01*
X868680Y1019810D02*
Y1057529D01*
X864108Y1019810D02*
Y1057529D01*
X863346Y1019810D02*
Y1057529D01*
X866394Y1019810D02*
Y1057529D01*
X864870Y1019810D02*
Y1057529D01*
X865632Y1019810D02*
Y1057529D01*
X874776Y1019810D02*
Y1057529D01*
X874014Y1019810D02*
Y1057529D01*
X876300Y1019810D02*
Y1057529D01*
X875538Y1019810D02*
Y1057529D01*
X870966Y1019810D02*
Y1057529D01*
X870204Y1019810D02*
Y1057529D01*
X873252Y1019810D02*
Y1057529D01*
X871728Y1019810D02*
Y1057529D01*
X872490Y1019810D02*
Y1057529D01*
X842010Y1019810D02*
Y1057529D01*
X841248Y1019810D02*
Y1057529D01*
X843534Y1019810D02*
Y1057529D01*
X842772Y1019810D02*
Y1057529D01*
X838200Y1019810D02*
Y1057529D01*
X837438Y1019810D02*
Y1057529D01*
X840486Y1019810D02*
Y1057529D01*
X838962Y1019810D02*
Y1057529D01*
X839724Y1019810D02*
Y1057529D01*
X848868Y1019810D02*
Y1057529D01*
X848106Y1019810D02*
Y1057529D01*
X862584Y1019810D02*
Y1057529D01*
X849630Y1019810D02*
Y1057529D01*
X845058Y1019810D02*
Y1057529D01*
X844296Y1019810D02*
Y1057529D01*
X847344Y1019810D02*
Y1057529D01*
X845820Y1019810D02*
Y1057529D01*
X846582Y1019810D02*
Y1057529D01*
X881634Y979087D02*
Y980694D01*
X881490Y979170D02*
X882573D01*
X880872Y979509D02*
Y980694D01*
X880110Y979894D02*
Y980694D01*
X880030Y979932D02*
X883874D01*
X878251Y980694D02*
X885401D01*
X878251D02*
X885401D01*
X910590Y977394D02*
Y980694D01*
X909828Y977995D02*
Y980694D01*
X919734Y805053D02*
Y980694D01*
X911352Y976741D02*
Y980694D01*
X883158Y979526D02*
Y980694D01*
X882396Y979057D02*
Y980694D01*
X909066Y978548D02*
Y980694D01*
X907542Y979526D02*
Y980694D01*
X908304Y979057D02*
Y980694D01*
X914400Y973453D02*
Y980694D01*
X913638Y974397D02*
Y980694D01*
X915162Y972401D02*
Y980694D01*
X877824Y1019810D02*
Y1057529D01*
X877062Y1019810D02*
Y1057529D01*
X912876Y975251D02*
Y980694D01*
X878586Y1019810D02*
Y1057529D01*
X912114Y976029D02*
Y980694D01*
X921258Y805053D02*
Y980694D01*
X920496Y805053D02*
Y980694D01*
X923544Y805053D02*
Y980694D01*
X922020Y805053D02*
Y980694D01*
X922782Y805053D02*
Y980694D01*
X916686Y969846D02*
Y980694D01*
X915924Y971213D02*
Y980694D01*
X918972Y963110D02*
Y980694D01*
X917448Y968221D02*
Y980694D01*
X918210Y966169D02*
Y980694D01*
X886206Y1019810D02*
Y1057529D01*
X885444Y1019810D02*
Y1057529D01*
X887730Y1019810D02*
Y1057529D01*
X886968Y1019810D02*
Y1057529D01*
X882396Y1019810D02*
Y1057529D01*
X881634Y1019810D02*
Y1057529D01*
X884682Y1019810D02*
Y1057529D01*
X883158Y1019810D02*
Y1057529D01*
X883920Y1019810D02*
Y1057529D01*
X893064Y1019810D02*
Y1057529D01*
X892302Y1019810D02*
Y1057529D01*
X894588Y1019810D02*
Y1057529D01*
X893826Y1019810D02*
Y1057529D01*
X889254Y1019810D02*
Y1057529D01*
X888492Y1019810D02*
Y1057529D01*
X891540Y1019810D02*
Y1057529D01*
X890016Y1019810D02*
Y1057529D01*
X890778Y1019810D02*
Y1057529D01*
X854964Y1019810D02*
Y1057529D01*
X854202Y1019810D02*
Y1057529D01*
X856488Y1019810D02*
Y1057529D01*
X855726Y1019810D02*
Y1057529D01*
X851154Y1019810D02*
Y1057529D01*
X850392Y1019810D02*
Y1057529D01*
X853440Y1019810D02*
Y1057529D01*
X851916Y1019810D02*
Y1057529D01*
X852678Y1019810D02*
Y1057529D01*
X861822Y1019810D02*
Y1057529D01*
X861060Y1019810D02*
Y1057529D01*
X880872Y1019810D02*
Y1057529D01*
X879348Y1019810D02*
Y1057529D01*
X880110Y1019810D02*
Y1057529D01*
X858012Y1019810D02*
Y1057529D01*
X857250Y1019810D02*
Y1057529D01*
X860298Y1019810D02*
Y1057529D01*
X858774Y1019810D02*
Y1057529D01*
X859536Y1019810D02*
Y1057529D01*
X914400Y1019810D02*
Y1057529D01*
X913638Y1019810D02*
Y1057529D01*
X915924Y1019810D02*
Y1057529D01*
X915162Y1019810D02*
Y1057529D01*
X910590Y1019810D02*
Y1057529D01*
X909828Y1019810D02*
Y1057529D01*
X912876Y1019810D02*
Y1057529D01*
X911352Y1019810D02*
Y1057529D01*
X912114Y1019810D02*
Y1057529D01*
X921258Y1019810D02*
Y1057529D01*
X920496Y1019810D02*
Y1057529D01*
X922782Y1019810D02*
Y1057529D01*
X922020Y1019810D02*
Y1057529D01*
X917448Y1019810D02*
Y1057529D01*
X916686Y1019810D02*
Y1057529D01*
X919734Y1019810D02*
Y1057529D01*
X918210Y1019810D02*
Y1057529D01*
X918972Y1019810D02*
Y1057529D01*
X899922Y1019810D02*
Y1057529D01*
X899160Y1019810D02*
Y1057529D01*
X901446Y1019810D02*
Y1057529D01*
X900684Y1019810D02*
Y1057529D01*
X896112Y1019810D02*
Y1057529D01*
X895350Y1019810D02*
Y1057529D01*
X898398Y1019810D02*
Y1057529D01*
X896874Y1019810D02*
Y1057529D01*
X897636Y1019810D02*
Y1057529D01*
X906780Y1019810D02*
Y1057529D01*
X906018Y1019810D02*
Y1057529D01*
X909066Y1019810D02*
Y1057529D01*
X907542Y1019810D02*
Y1057529D01*
X908304Y1019810D02*
Y1057529D01*
X902970Y1019810D02*
Y1057529D01*
X902208Y1019810D02*
Y1057529D01*
X905256Y1019810D02*
Y1057529D01*
X903732Y1019810D02*
Y1057529D01*
X904494Y1019810D02*
Y1057529D01*
X916592Y817626D02*
X1100587D01*
X916174Y818388D02*
X1100583D01*
X917327Y816102D02*
X1100670D01*
X916976Y816864D02*
X1100617D01*
X915718Y819150D02*
X1100604D01*
X916174Y819912D02*
X1100650D01*
X916592Y820674D02*
X1100721D01*
X916976Y821436D02*
X1100816D01*
X917327Y822198D02*
X1100938D01*
X919190Y809244D02*
X1082270D01*
X919088Y810006D02*
X1083093D01*
X918961Y810768D02*
X1084003D01*
X918809Y811530D02*
X1085016D01*
X918631Y812292D02*
X1086159D01*
X918427Y813054D02*
X1087470D01*
X918195Y813816D02*
X1089019D01*
X917646Y815340D02*
X1093704D01*
X917935Y814578D02*
X1090951D01*
X917646Y822960D02*
X1101086D01*
X917935Y823722D02*
X1101260D01*
X918195Y824484D02*
X1101461D01*
X918427Y825246D02*
X1101691D01*
X918631Y826008D02*
X1101948D01*
X918498Y838200D02*
X1111974D01*
X918275Y838962D02*
X1113355D01*
X917746Y840486D02*
X1117134D01*
X918025Y839724D02*
X1115009D01*
X918809Y826770D02*
X1102236D01*
X918961Y827532D02*
X1102555D01*
X919088Y828294D02*
X1102906D01*
X919190Y829056D02*
X1103291D01*
X919218Y834390D02*
X1107163D01*
X919125Y835152D02*
X1107936D01*
X919007Y835914D02*
X1108786D01*
X918693Y837438D02*
X1110781D01*
X918863Y836676D02*
X1109728D01*
X917437Y841248D02*
X1120514D01*
X917097Y842010D02*
X1126004D01*
X916724Y842772D02*
X1126050D01*
X916317Y843534D02*
X1126121D01*
X915874Y844296D02*
X1126217D01*
X916026Y845058D02*
X1126338D01*
X916457Y845820D02*
X1126486D01*
X916852Y846582D02*
X1126660D01*
X917214Y847344D02*
X1126861D01*
X917543Y848106D02*
X1127091D01*
X917842Y848868D02*
X1127348D01*
X918111Y849630D02*
X1127636D01*
X918352Y850392D02*
X1127955D01*
X918566Y851154D02*
X1128306D01*
X918753Y851916D02*
X1128691D01*
X918914Y852678D02*
X1129113D01*
X919049Y853440D02*
X1129572D01*
X919159Y854202D02*
X1130073D01*
X917214Y867156D02*
X1292586D01*
X916852Y867918D02*
X1292948D01*
X916457Y868680D02*
X1293343D01*
X916026Y869442D02*
X1293774D01*
X915874Y870204D02*
X1294243D01*
X916317Y870966D02*
X1294752D01*
X916724Y871728D02*
X1295305D01*
X917097Y872490D02*
X1295906D01*
X917437Y873252D02*
X1296559D01*
X919244Y854964D02*
X1130618D01*
X919159Y860298D02*
X1136181D01*
X919049Y861060D02*
X1137374D01*
X918753Y862584D02*
X1140409D01*
X918914Y861822D02*
X1138755D01*
X918566Y863346D02*
X1142534D01*
X918352Y864108D02*
X1145914D01*
X918111Y864870D02*
X1291689D01*
X917543Y866394D02*
X1292257D01*
X917842Y865632D02*
X1291958D01*
X916592Y893826D02*
X931743D01*
X916174Y894588D02*
X931464D01*
X917327Y892302D02*
X932393D01*
X916976Y893064D02*
X932052D01*
X916976Y897636D02*
X930634D01*
X917327Y898398D02*
X930494D01*
X915718Y895350D02*
X931214D01*
X916174Y896112D02*
X930993D01*
X916592Y896874D02*
X930800D01*
X917646Y891540D02*
X932768D01*
X917646Y899160D02*
X930380D01*
X918195Y890016D02*
X933627D01*
X917935Y890778D02*
X933179D01*
X918631Y902208D02*
X930177D01*
X918809Y902970D02*
X930188D01*
X917935Y899922D02*
X930292D01*
X918195Y900684D02*
X930228D01*
X918427Y901446D02*
X930190D01*
X918961Y903732D02*
X930225D01*
X918863Y912876D02*
X932739D01*
X918693Y913638D02*
X933147D01*
X918498Y914400D02*
X933592D01*
X917543Y942594D02*
X933958D01*
X917214Y943356D02*
X933958D01*
X918753Y938784D02*
X933958D01*
X917842Y941832D02*
X933958D01*
X918111Y941070D02*
X933958D01*
X919088Y904494D02*
X930286D01*
X919190Y905256D02*
X930372D01*
X919218Y910590D02*
X931721D01*
X919125Y911352D02*
X932028D01*
X919007Y912114D02*
X932367D01*
X919049Y929640D02*
X933958D01*
X919159Y930402D02*
X933958D01*
X919049Y937260D02*
X933958D01*
X919159Y936498D02*
X933958D01*
X917746Y874014D02*
X1297271D01*
X918025Y874776D02*
X1298049D01*
X918275Y875538D02*
X1298904D01*
X918498Y876300D02*
X1299847D01*
X918025Y915924D02*
X933958D01*
X917746Y916686D02*
X933958D01*
X918631Y888492D02*
X934646D01*
X918275Y915162D02*
X933958D01*
X918427Y889254D02*
X934115D01*
X918693Y877062D02*
X1300899D01*
X919125Y879348D02*
X948836D01*
X918863Y877824D02*
X1302087D01*
X919007Y878586D02*
X1303454D01*
X918961Y886968D02*
X935855D01*
X918809Y887730D02*
X935225D01*
X919218Y880110D02*
X946030D01*
X919088Y886206D02*
X936542D01*
X919190Y885444D02*
X937294D01*
X916724Y918972D02*
X933958D01*
X916317Y919734D02*
X933958D01*
X917437Y917448D02*
X933958D01*
X917097Y918210D02*
X933958D01*
X916852Y922782D02*
X933958D01*
X917214Y923544D02*
X933958D01*
X915874Y920496D02*
X933958D01*
X916026Y921258D02*
X933958D01*
X916457Y922020D02*
X933958D01*
X918352Y926592D02*
X933958D01*
X918566Y927354D02*
X933958D01*
X917543Y924306D02*
X933958D01*
X917842Y925068D02*
X933958D01*
X918111Y925830D02*
X933958D01*
X918566Y939546D02*
X933958D01*
X918352Y940308D02*
X933958D01*
X918753Y928116D02*
X933958D01*
X918914Y938022D02*
X933958D01*
X918914Y928878D02*
X933958D01*
X919312Y805053D02*
X944753D01*
X919332Y805434D02*
X1079101D01*
X919352Y806196D02*
X1079631D01*
X919348Y806958D02*
X1080207D01*
X919352Y882396D02*
X941199D01*
X919348Y883158D02*
X940051D01*
X919319Y807720D02*
X1080835D01*
X919287Y880872D02*
X944078D01*
X919332Y881634D02*
X942517D01*
X941070Y805053D02*
Y882477D01*
X940308Y805053D02*
Y882979D01*
X946404Y805052D02*
Y879986D01*
X945642Y805048D02*
Y880245D01*
X941832Y805053D02*
Y882016D01*
X939546Y805053D02*
Y883526D01*
X944118Y805053D02*
Y880854D01*
X942594Y805053D02*
Y881593D01*
X943356Y805053D02*
Y881207D01*
X932688Y805053D02*
Y891698D01*
X931926Y805053D02*
Y893365D01*
X934212Y805053D02*
Y889110D01*
X933450Y805053D02*
Y890309D01*
X931164Y805053D02*
Y895516D01*
X930402Y805053D02*
Y898999D01*
X919319Y883920D02*
X939034D01*
X919267Y884682D02*
X938121D01*
X936498Y805053D02*
Y886253D01*
X935736Y805053D02*
Y887107D01*
X970788Y805041D02*
Y886466D01*
X972312Y805041D02*
Y888314D01*
X937260Y805053D02*
Y885477D01*
X934974Y805053D02*
Y888052D01*
X938784Y805053D02*
Y884121D01*
X938022Y805053D02*
Y884769D01*
X971550Y805053D02*
Y887341D01*
X919267Y808482D02*
X1081521D01*
X919267Y829818D02*
X1103713D01*
X919319Y830580D02*
X1104172D01*
X919332Y832866D02*
X1105811D01*
X919287Y833628D02*
X1106457D01*
X919305Y855726D02*
X1131211D01*
X919341Y856488D02*
X1131857D01*
X919244Y859536D02*
X1135128D01*
X919305Y858774D02*
X1134186D01*
X919348Y831342D02*
X1104673D01*
X919352Y832104D02*
X1105218D01*
X919353Y857250D02*
X1132563D01*
X919341Y858012D02*
X1133336D01*
X958254Y879348D02*
X1305079D01*
X961060Y880110D02*
X1307131D01*
X963011Y880872D02*
X1310190D01*
X964572Y881634D02*
X1341268D01*
X965890Y882396D02*
X1341248D01*
X967038Y883158D02*
X1341252D01*
X968055Y883920D02*
X1341281D01*
X968969Y884682D02*
X1341333D01*
X969795Y885444D02*
X1341410D01*
X970547Y886206D02*
X1341512D01*
X971235Y886968D02*
X1341639D01*
X971865Y887730D02*
X1341791D01*
X972443Y888492D02*
X1341969D01*
X972974Y889254D02*
X1342173D01*
X973462Y890016D02*
X1342405D01*
X973910Y890778D02*
X1342665D01*
X974321Y891540D02*
X1342954D01*
X974696Y892302D02*
X1343273D01*
X975037Y893064D02*
X1343624D01*
X975347Y893826D02*
X1344008D01*
X976289Y896874D02*
X1344008D01*
X975625Y894588D02*
X1344426D01*
X975875Y895350D02*
X1344882D01*
X976096Y896112D02*
X1344426D01*
X919267Y906018D02*
X930485D01*
X919319Y906780D02*
X930622D01*
X919348Y907542D02*
X930787D01*
X919352Y908304D02*
X930978D01*
X919332Y909066D02*
X931197D01*
X919287Y909828D02*
X931444D01*
X919244Y931164D02*
X933958D01*
X919305Y931926D02*
X933958D01*
X973074D02*
X1341295D01*
X976302Y907542D02*
X1341252D01*
X976605Y906018D02*
X1341333D01*
X976467Y906780D02*
X1341281D01*
X976111Y908304D02*
X1341248D01*
X975892Y909066D02*
X1341268D01*
X975645Y909828D02*
X1341313D01*
X973074Y931164D02*
X1341356D01*
X975368Y910590D02*
X1341382D01*
X919341Y932688D02*
X933958D01*
X919353Y933450D02*
X933958D01*
X973074Y932688D02*
X1341259D01*
X973074Y933450D02*
X1341247D01*
X919305Y934974D02*
X933958D01*
X919244Y935736D02*
X933958D01*
X919341Y934212D02*
X933958D01*
X973074Y935736D02*
X1341247D01*
X973074Y934974D02*
X1341247D01*
X973074Y938022D02*
X1341247D01*
X973074Y938784D02*
X1341247D01*
X973074Y934212D02*
X1341259D01*
X973074Y937260D02*
X1341247D01*
X973074Y936498D02*
X1341247D01*
X973074Y941832D02*
X1341247D01*
X973074Y942594D02*
X1341247D01*
X973074Y939546D02*
X1341247D01*
X973074Y941070D02*
X1341247D01*
X973074Y940308D02*
X1341247D01*
X975061Y911352D02*
X1341475D01*
X974722Y912114D02*
X1341593D01*
X976455Y897636D02*
X1343624D01*
X976595Y898398D02*
X1343273D01*
X974350Y912876D02*
X1341737D01*
X973942Y913638D02*
X1341906D01*
X973497Y914400D02*
X1342102D01*
X973074Y915924D02*
X1342575D01*
X973074Y915162D02*
X1342325D01*
X976861Y900684D02*
X1342405D01*
X976899Y901446D02*
X1342173D01*
X976709Y899160D02*
X1342954D01*
X976798Y899922D02*
X1342665D01*
X976803Y904494D02*
X1341512D01*
X976717Y905256D02*
X1341410D01*
X976913Y902208D02*
X1341969D01*
X976865Y903732D02*
X1341639D01*
X976901Y902970D02*
X1341791D01*
X973074Y925830D02*
X1342489D01*
X973074Y926592D02*
X1342248D01*
X973074Y924306D02*
X1343057D01*
X973074Y925068D02*
X1342758D01*
X973074Y929640D02*
X1341551D01*
X973074Y930402D02*
X1341441D01*
X973074Y927354D02*
X1342034D01*
X973074Y928878D02*
X1341686D01*
X973074Y928116D02*
X1341847D01*
X973074Y916686D02*
X1342854D01*
X973074Y917448D02*
X1343163D01*
X973074Y918210D02*
X1343503D01*
X973074Y919734D02*
X1344283D01*
X973074Y918972D02*
X1343876D01*
X973074Y922782D02*
X1343748D01*
X973074Y923544D02*
X1343386D01*
X973074Y920496D02*
X1344726D01*
X973074Y922020D02*
X1344143D01*
X973074Y921258D02*
X1344574D01*
X916026Y945642D02*
X933958D01*
X915874Y946404D02*
X933958D01*
X916852Y944118D02*
X933958D01*
X916457Y944880D02*
X933958D01*
X918498Y952500D02*
X933958D01*
X918693Y953262D02*
X933958D01*
X917437Y949452D02*
X933958D01*
X918025Y950976D02*
X933958D01*
X918275Y951738D02*
X933958D01*
X928116Y805053D02*
Y980694D01*
X927354Y805053D02*
Y980694D01*
X918863Y954024D02*
X933958D01*
X929640Y805053D02*
Y980694D01*
X919287Y957072D02*
X933958D01*
X919332Y957834D02*
X933958D01*
X919007Y954786D02*
X933958D01*
X919125Y955548D02*
X933958D01*
X919218Y956310D02*
X933958D01*
X925068Y805053D02*
Y980694D01*
X924306Y805053D02*
Y980694D01*
X926592Y805053D02*
Y980694D01*
X925830Y805053D02*
Y980694D01*
X924306Y1019810D02*
Y1057529D01*
X923544Y1019810D02*
Y1057529D01*
X926592Y1019810D02*
Y1057529D01*
X925068Y1019810D02*
Y1057529D01*
X925830Y1019810D02*
Y1057529D01*
X930402Y905474D02*
Y980694D01*
X928878Y805053D02*
Y980694D01*
X931926Y911108D02*
Y980694D01*
X931164Y908958D02*
Y980694D01*
X931926Y1019810D02*
Y1057529D01*
X930402Y1019810D02*
Y1057529D01*
X933958Y914981D02*
Y980694D01*
X932688Y912775D02*
Y980694D01*
X933450Y914164D02*
Y980694D01*
X917097Y948690D02*
X933958D01*
X917746Y950214D02*
X933958D01*
X916317Y947166D02*
X933958D01*
X916724Y947928D02*
X933958D01*
X917646Y967740D02*
X933958D01*
X917327Y968502D02*
X933958D01*
X918427Y965454D02*
X933958D01*
X917935Y966978D02*
X933958D01*
X918195Y966216D02*
X933958D01*
X919319Y960120D02*
X933958D01*
X919267Y960882D02*
X933958D01*
X919352Y958596D02*
X933958D01*
X919348Y959358D02*
X933958D01*
X918809Y963930D02*
X933958D01*
X918631Y964692D02*
X933958D01*
X919190Y961644D02*
X933958D01*
X918961Y963168D02*
X933958D01*
X919088Y962406D02*
X933958D01*
X911190Y976884D02*
X933958D01*
X910278Y977646D02*
X933958D01*
X912773Y975360D02*
X933958D01*
X912018Y976122D02*
X933958D01*
X905299Y980694D02*
X933958D01*
X905299D02*
X933958D01*
X909265Y978408D02*
X933958D01*
X906826Y979932D02*
X933958D01*
X908127Y979170D02*
X933958D01*
X915718Y971550D02*
X933958D01*
X915223Y972312D02*
X933958D01*
X916976Y969264D02*
X933958D01*
X916174Y970788D02*
X933958D01*
X916592Y970026D02*
X933958D01*
X914685Y973074D02*
X933958D01*
X914100Y973836D02*
X933958D01*
X913465Y974598D02*
X933958D01*
X945642Y1019810D02*
Y1057529D01*
X946404Y1019810D02*
Y1057529D01*
X763397Y1025652D02*
X1040451D01*
X763397Y1026414D02*
X1040366D01*
X763397Y1024128D02*
X1040696D01*
X763397Y1024890D02*
X1040561D01*
X763397Y1027938D02*
X1040269D01*
X763397Y1028700D02*
X1040257D01*
X763397Y1027176D02*
X1040305D01*
X763397Y1030224D02*
X1040305D01*
X763397Y1029462D02*
X1040269D01*
X934212Y1019810D02*
Y1057529D01*
X933450Y1019810D02*
Y1057529D01*
X799846Y1019810D02*
X950976D01*
X936498D02*
Y1057529D01*
X763397Y1030986D02*
X1040366D01*
X934974Y1019810D02*
Y1057529D01*
X763397Y1031748D02*
X1040451D01*
X763397Y1033272D02*
X1040696D01*
X763397Y1032510D02*
X1040561D01*
X935736Y1019810D02*
Y1057529D01*
X932688Y1019810D02*
Y1057529D01*
X938022Y1019810D02*
Y1057529D01*
X937260Y1019810D02*
Y1057529D01*
X928116Y1019810D02*
Y1057529D01*
X927354Y1019810D02*
Y1057529D01*
X931164Y1019810D02*
Y1057529D01*
X928878Y1019810D02*
Y1057529D01*
X929640Y1019810D02*
Y1057529D01*
X943356Y1019810D02*
Y1057529D01*
X942594Y1019810D02*
Y1057529D01*
X944880Y1019810D02*
Y1057529D01*
X944118Y1019810D02*
Y1057529D01*
X939546Y1019810D02*
Y1057529D01*
X938784Y1019810D02*
Y1057529D01*
X941832Y1019810D02*
Y1057529D01*
X940308Y1019810D02*
Y1057529D01*
X941070Y1019810D02*
Y1057529D01*
X763397Y1037082D02*
X1041768D01*
X763397Y1037844D02*
X1042067D01*
X763397Y1038606D02*
X1042396D01*
X763397Y1039368D02*
X1042758D01*
X763397Y1040130D02*
X1043153D01*
X763397Y1040892D02*
X1043584D01*
X763397Y1041654D02*
X1044053D01*
X763397Y1043178D02*
X1045115D01*
X763397Y1042416D02*
X1044562D01*
X763397Y1021842D02*
X1041258D01*
X763397Y1022604D02*
X1041044D01*
X763397Y1020318D02*
X1041768D01*
X763397Y1021080D02*
X1041499D01*
X763397Y1023366D02*
X1040857D01*
X763397Y1034034D02*
X1040857D01*
X763397Y1034796D02*
X1041044D01*
X763397Y1036320D02*
X1041499D01*
X763397Y1035558D02*
X1041258D01*
X763397Y1043940D02*
X1045716D01*
X763397Y1044702D02*
X1046369D01*
X763397Y1045464D02*
X1047081D01*
X763397Y1046226D02*
X1047859D01*
X763397Y1046988D02*
X1048714D01*
X763397Y1047750D02*
X1049657D01*
X763397Y1048512D02*
X1050709D01*
X763397Y1049274D02*
X1051897D01*
X763692Y1050036D02*
X1053264D01*
X764454Y1050798D02*
X1054889D01*
X765216Y1051560D02*
X1056941D01*
X765978Y1052322D02*
X1060000D01*
X766740Y1053084D02*
X1098110D01*
X767502Y1053846D02*
X1098196D01*
X768264Y1054608D02*
X1098317D01*
X769026Y1055370D02*
X1098474D01*
X769788Y1056132D02*
X1098668D01*
X770550Y1056894D02*
X1098900D01*
X771185Y1057529D02*
X1099123D01*
X973074Y979932D02*
X1084175D01*
X973074Y980694D02*
X1081591D01*
X973074Y962406D02*
X1202817D01*
X973074Y963168D02*
X1202817D01*
X973074Y983742D02*
X1075745D01*
X973074Y984504D02*
X1074732D01*
X973074Y981456D02*
X1079711D01*
X973074Y982980D02*
X1076883D01*
X973074Y982218D02*
X1078184D01*
X973074Y955548D02*
X1202817D01*
X973074Y957834D02*
X1202817D01*
X973074Y954024D02*
X1202817D01*
X973074Y954786D02*
X1202817D01*
X973074Y960882D02*
X1202817D01*
X973074Y961644D02*
X1202817D01*
X973074Y958596D02*
X1202817D01*
X973074Y960120D02*
X1202817D01*
X973074Y959358D02*
X1202817D01*
X973074Y986790D02*
X1072237D01*
X973074Y987552D02*
X1071545D01*
X973074Y985266D02*
X1073820D01*
X973074Y986028D02*
X1072992D01*
X973074Y990600D02*
X1069292D01*
X973074Y991362D02*
X1068836D01*
X973074Y988314D02*
X1070910D01*
X973074Y989838D02*
X1069787D01*
X973074Y989076D02*
X1070325D01*
X975360Y910612D02*
Y1057529D01*
X974598Y912376D02*
Y1057529D01*
X976884Y903392D02*
Y1057529D01*
X976122Y908264D02*
Y1057529D01*
X973074Y915069D02*
Y997712D01*
Y915069D02*
Y1057529D01*
Y992124D02*
X1068418D01*
X973074Y992886D02*
X1068034D01*
X973836Y913826D02*
Y1057529D01*
X973074Y951738D02*
X1341247D01*
X973074Y952500D02*
X1341247D01*
X973074Y950214D02*
X1341247D01*
X973074Y950976D02*
X1341247D01*
X973074Y963930D02*
X1202817D01*
X973074Y964692D02*
X1202817D01*
X973074Y953262D02*
X1341247D01*
X973074Y957072D02*
X1202817D01*
X973074Y956310D02*
X1202817D01*
X973074Y944880D02*
X1341247D01*
X973074Y945642D02*
X1341247D01*
X973074Y943356D02*
X1341247D01*
X973074Y944118D02*
X1341247D01*
X973074Y948690D02*
X1341247D01*
X973074Y949452D02*
X1341247D01*
X973074Y946404D02*
X1341247D01*
X973074Y947928D02*
X1341247D01*
X973074Y947166D02*
X1341247D01*
X973074Y974598D02*
X1202817D01*
X973074Y975360D02*
X1202817D01*
X973074Y973074D02*
X1202817D01*
X973074Y973836D02*
X1202817D01*
X973074Y978408D02*
X1202817D01*
X973074Y979170D02*
X1202817D01*
X973074Y976122D02*
X1202817D01*
X973074Y977646D02*
X1202817D01*
X973074Y976884D02*
X1202817D01*
X973074Y967740D02*
X1202817D01*
X973074Y968502D02*
X1202817D01*
X973074Y965454D02*
X1202817D01*
X973074Y966978D02*
X1202817D01*
X973074Y966216D02*
X1202817D01*
X973074Y971550D02*
X1202817D01*
X973074Y972312D02*
X1202817D01*
X973074Y969264D02*
X1202817D01*
X973074Y970788D02*
X1202817D01*
X973074Y970026D02*
X1202817D01*
X953262Y1019676D02*
Y1057529D01*
X952500Y1019751D02*
Y1057529D01*
X947928Y1019810D02*
Y1057529D01*
X947166Y1019810D02*
Y1057529D01*
X950214Y1019810D02*
Y1057529D01*
X948690Y1019810D02*
Y1057529D01*
X949452Y1019810D02*
Y1057529D01*
X958596Y1018264D02*
Y1057529D01*
X957834Y1018568D02*
Y1057529D01*
X964818Y1014069D02*
X967333Y1011554D01*
X959358Y1017923D02*
Y1057529D01*
X954786Y1019435D02*
Y1057529D01*
X954024Y1019571D02*
Y1057529D01*
X957072Y1018836D02*
Y1057529D01*
X955548Y1019268D02*
Y1057529D01*
X956310Y1019069D02*
Y1057529D01*
X963168Y1015545D02*
Y1057529D01*
X962406Y1016122D02*
Y1057529D01*
X964692Y1014194D02*
Y1057529D01*
X963930Y1014905D02*
Y1057529D01*
X951738Y1019795D02*
Y1057529D01*
X950976Y1019810D02*
Y1057529D01*
X961644Y1016644D02*
Y1057529D01*
X960120Y1017541D02*
Y1057529D01*
X960882Y1017116D02*
Y1057529D01*
X970026Y1008197D02*
Y1057529D01*
X969264Y1009310D02*
Y1057529D01*
X972312Y1003118D02*
Y1057529D01*
X970788Y1006888D02*
Y1057529D01*
X971550Y1005281D02*
Y1057529D01*
X966216Y1012671D02*
Y1057529D01*
X965454Y1013433D02*
Y1057529D01*
X968502Y1010279D02*
Y1057529D01*
X966978Y1011909D02*
Y1057529D01*
X967740Y1011136D02*
Y1057529D01*
X972591Y1002030D02*
X1065691D01*
X972403Y1002792D02*
X1065662D01*
X972873Y1000506D02*
X1065820D01*
X972748Y1001268D02*
X1065743D01*
X971305Y1005840D02*
X1056941D01*
X970937Y1006602D02*
X1054889D01*
X972181Y1003554D02*
X1065658D01*
X971634Y1005078D02*
X1060000D01*
X971925Y1004316D02*
X1065678D01*
X973074Y995172D02*
X1067075D01*
X973074Y995934D02*
X1066815D01*
X973074Y993648D02*
X1067683D01*
X973074Y994410D02*
X1067364D01*
X973033Y998982D02*
X1066049D01*
X972968Y999744D02*
X1065922D01*
X973074Y996696D02*
X1066583D01*
X973067Y998220D02*
X1066201D01*
X973074Y997458D02*
X1066379D01*
X963840Y1014984D02*
X1044562D01*
X962911Y1015746D02*
X1044053D01*
X965427Y1013460D02*
X1045716D01*
X964664Y1014222D02*
X1045115D01*
X957198Y1018794D02*
X1042396D01*
X954118Y1019556D02*
X1042067D01*
X961851Y1016508D02*
X1043584D01*
X959124Y1018032D02*
X1042758D01*
X960615Y1017270D02*
X1043153D01*
X970526Y1007364D02*
X1053264D01*
X969566Y1008888D02*
X1050709D01*
X970071Y1008126D02*
X1051897D01*
X966951Y1011936D02*
X1047081D01*
X966189Y1012698D02*
X1046369D01*
X969008Y1009650D02*
X1049657D01*
X967704Y1011174D02*
X1047859D01*
X968390Y1010412D02*
X1048714D01*
X997458Y505079D02*
Y520913D01*
X996696Y505079D02*
Y520990D01*
X998982Y505079D02*
Y520832D01*
X998220Y505079D02*
Y520861D01*
X993648Y505079D02*
Y521549D01*
X992886Y505079D02*
Y521753D01*
X995934Y505079D02*
Y521092D01*
X994410Y505079D02*
Y521371D01*
X995172Y505079D02*
Y521219D01*
X1003554Y505079D02*
Y521174D01*
X1004316Y505079D02*
Y521317D01*
X1005078Y505079D02*
Y521487D01*
X1005840Y505079D02*
Y521682D01*
X999744Y505079D02*
Y520828D01*
X1000506Y505079D02*
Y520849D01*
X1001268Y505079D02*
Y520893D01*
X1002030Y505079D02*
Y520962D01*
X1002792Y505079D02*
Y521055D01*
X1006602Y505079D02*
Y521905D01*
X992124Y505079D02*
Y521985D01*
X1007364Y505079D02*
Y522155D01*
X1008126Y505079D02*
Y522434D01*
X989076Y505079D02*
Y523204D01*
X988314Y505079D02*
Y523588D01*
X991362Y505079D02*
Y522245D01*
X989838Y505079D02*
Y522853D01*
X990600Y505079D02*
Y522534D01*
X1013460Y505079D02*
Y523723D01*
X1012698Y505079D02*
Y524154D01*
X1014984Y505079D02*
Y522966D01*
X1014222Y505079D02*
Y523328D01*
X1008888Y505079D02*
Y522743D01*
X1009650Y505079D02*
Y523083D01*
X1010412Y505079D02*
Y523456D01*
X1011174Y505079D02*
Y523863D01*
X1011936Y505079D02*
Y524306D01*
X1024890Y505079D02*
Y520827D01*
X1024128Y505079D02*
Y520839D01*
X1025652Y505079D02*
Y520839D01*
X1026414Y505079D02*
Y520875D01*
X1021080Y505079D02*
Y521131D01*
X1020318Y505079D02*
Y521266D01*
X1023366Y505079D02*
Y520875D01*
X1021842Y505079D02*
Y521021D01*
X1022604Y505079D02*
Y520936D01*
X1059180Y505079D02*
Y518351D01*
X1051560Y505079D02*
Y520861D01*
X1060704Y505079D02*
Y514414D01*
X1059942Y505079D02*
Y516027D01*
X1027176Y505079D02*
Y520936D01*
X1027938Y505079D02*
Y521021D01*
X1046988Y505079D02*
Y521055D01*
X1028700Y505079D02*
Y521131D01*
X1046226Y505079D02*
Y521174D01*
X1029462Y505079D02*
Y521266D01*
X1019556Y505079D02*
Y521427D01*
X1030224Y505079D02*
Y521427D01*
X1030986Y505079D02*
Y521614D01*
X1016508Y505079D02*
Y522338D01*
X1015746Y505079D02*
Y522637D01*
X1018794Y505079D02*
Y521614D01*
X1017270Y505079D02*
Y522069D01*
X1018032Y505079D02*
Y521828D01*
X1035558Y505079D02*
Y523328D01*
X1036320Y505079D02*
Y523723D01*
X1045464Y505079D02*
Y521317D01*
X1037082Y505079D02*
Y524154D01*
X1056132Y505079D02*
Y521549D01*
X1031748Y505079D02*
Y521828D01*
X1032510Y505079D02*
Y522069D01*
X1033272Y505079D02*
Y522338D01*
X1034034Y505079D02*
Y522637D01*
X1034796Y505079D02*
Y522966D01*
X1040130Y505079D02*
Y523083D01*
X1039368Y505079D02*
Y523456D01*
X1029150Y521208D02*
X1046030D01*
X1040892Y505079D02*
Y522743D01*
X1006809Y521970D02*
X1017571D01*
X1008861Y522732D02*
X1015519D01*
X1003750Y521208D02*
X1020630D01*
X1032209Y521970D02*
X1042971D01*
X1034261Y522732D02*
X1040919D01*
X1048512Y505079D02*
Y520893D01*
X1047750Y505079D02*
Y520962D01*
X1050036Y505079D02*
Y520828D01*
X1049274Y505079D02*
Y520849D01*
X1042416Y505079D02*
Y522155D01*
X1041654Y505079D02*
Y522434D01*
X1044702Y505079D02*
Y521487D01*
X1043178Y505079D02*
Y521905D01*
X1043940Y505079D02*
Y521682D01*
X1010486Y523494D02*
X1013894D01*
X1011936Y565354D02*
Y566674D01*
X1011174Y565797D02*
Y566674D01*
X1010486Y566166D02*
X1013894D01*
X1009439Y566674D02*
X1014941D01*
X1012698Y565506D02*
Y566674D01*
X1038606Y505079D02*
Y523863D01*
X1037844Y505079D02*
Y524306D01*
X1035886Y523494D02*
X1039294D01*
X1049274Y587983D02*
Y594983D01*
X1045464Y591793D02*
Y593275D01*
X1046226Y591031D02*
Y593554D01*
X1046988Y590269D02*
Y593863D01*
X1047750Y589507D02*
Y594203D01*
X1048512Y588745D02*
Y594576D01*
X1050798Y505079D02*
Y520832D01*
X1052322Y505079D02*
Y520913D01*
X1053084Y505079D02*
Y520990D01*
X1053846Y505079D02*
Y521092D01*
X1054608Y505079D02*
Y521219D01*
X1055370Y505079D02*
Y521371D01*
X1054550Y521208D02*
X1058719D01*
X1056894Y505079D02*
Y521753D01*
X1057656Y505079D02*
Y521985D01*
X1058418Y505079D02*
Y522245D01*
X1062228Y505079D02*
Y512067D01*
X1061466Y505079D02*
Y513135D01*
X1057609Y521970D02*
X1058680D01*
X1059661Y566928D02*
X1066319D01*
X1061286Y566166D02*
X1064694D01*
X1056894Y567907D02*
Y572262D01*
X1044341Y592916D02*
X1051153Y586104D01*
X1048079Y594360D02*
X1058851D01*
X1045183Y592074D02*
X1066874D01*
X1044421Y592836D02*
X1062868D01*
X1046338Y593598D02*
X1060592D01*
X1059942Y566807D02*
Y593863D01*
X1059180Y567126D02*
Y594203D01*
X1062228Y565654D02*
Y593025D01*
X1060704Y566456D02*
Y593554D01*
X1061466Y566072D02*
Y593275D01*
X1056894Y567907D02*
Y572262D01*
X1057656Y567675D02*
Y594983D01*
X1057609Y567690D02*
X1068371D01*
X1056894Y568452D02*
X1071430D01*
X1058418Y567415D02*
Y594576D01*
X1063752Y505079D02*
Y510349D01*
X1062990Y505079D02*
Y511150D01*
X1064514Y505079D02*
Y509587D01*
X1063656Y510444D02*
X1069022Y505079D01*
X1065276D02*
Y508825D01*
Y566456D02*
Y592294D01*
X1066038Y505079D02*
Y508063D01*
Y566807D02*
Y592175D01*
X1067562Y505079D02*
Y506539D01*
X1066800Y505079D02*
Y507301D01*
X1086686Y566166D02*
X1090094D01*
X1066800Y567126D02*
Y592082D01*
X1091184Y566694D02*
Y592212D01*
X1085061Y566928D02*
X1091719D01*
X1091946Y567023D02*
Y592110D01*
X1092708Y567322D02*
Y592033D01*
X1063752Y565654D02*
Y592607D01*
X1062990Y565198D02*
Y592802D01*
X1088136Y565354D02*
Y592873D01*
X1087374Y565797D02*
Y593105D01*
X1064514Y566072D02*
Y592437D01*
X1084326Y567226D02*
Y594324D01*
X1086612Y566204D02*
Y593365D01*
X1085088Y566917D02*
Y593973D01*
X1085850Y566577D02*
Y593654D01*
X1089660Y565937D02*
Y592491D01*
X1088898Y565506D02*
Y592669D01*
X1114044Y565354D02*
Y592734D01*
X1113282Y565506D02*
Y592948D01*
X1090422Y566332D02*
Y592339D01*
X1110234Y567023D02*
Y594086D01*
X1112520Y565937D02*
Y593189D01*
X1110996Y566694D02*
Y593757D01*
X1111758Y566332D02*
Y593458D01*
X1142238Y562945D02*
Y592175D01*
X1141476Y563580D02*
Y592294D01*
X1143000Y562253D02*
Y592082D01*
X1112086Y566166D02*
X1115494D01*
X1116330Y566577D02*
Y592251D01*
X1110461Y566928D02*
X1117119D01*
X1117092Y566917D02*
Y592141D01*
X1117854Y567226D02*
Y592056D01*
X1147572Y561848D02*
Y592033D01*
X1148334Y561848D02*
Y592110D01*
X1149096Y561848D02*
Y592212D01*
X1149858Y561848D02*
Y592339D01*
X1144524Y561848D02*
Y591968D01*
X1143762Y561848D02*
Y592013D01*
X1145286Y561848D02*
Y591948D01*
X1146048Y561848D02*
Y591952D01*
X1146810Y561848D02*
Y591981D01*
X1114806Y565797D02*
Y592547D01*
X1138428Y565654D02*
Y593025D01*
X1139952Y564703D02*
Y592607D01*
X1139190Y565198D02*
Y592802D01*
X1115568Y566204D02*
Y592386D01*
X1135380Y567126D02*
Y594203D01*
X1137666Y566072D02*
Y593275D01*
X1136142Y566807D02*
Y593863D01*
X1136904Y566456D02*
Y593554D01*
X1153668Y561848D02*
Y593365D01*
X1154430Y561848D02*
Y593654D01*
X1155192Y561848D02*
Y593973D01*
X1155954Y561848D02*
Y594324D01*
X1156716Y561848D02*
Y594708D01*
X1140714Y564165D02*
Y592437D01*
X1150620Y561848D02*
Y592491D01*
X1151382Y561848D02*
Y592669D01*
X1152144Y561848D02*
Y592873D01*
X1152906Y561848D02*
Y593105D01*
X1068324Y567675D02*
Y591968D01*
X1067562Y567415D02*
Y592013D01*
X1069086Y567907D02*
Y591948D01*
X1069848Y568111D02*
Y591952D01*
X1070610Y568289D02*
Y591981D01*
X1071372Y568441D02*
Y592033D01*
X1071806Y592074D02*
X1092274D01*
X1072134Y568568D02*
Y592110D01*
X1072896Y568670D02*
Y592212D01*
X1083009Y567690D02*
X1093771D01*
X1093470Y567591D02*
Y591981D01*
X1094994Y568046D02*
Y591948D01*
X1094232Y567832D02*
Y591952D01*
X1095756Y568233D02*
Y591968D01*
X1096518Y568394D02*
Y592013D01*
X1079950Y568452D02*
X1096830D01*
X1097280Y568529D02*
Y592082D01*
X1098042Y568639D02*
Y592175D01*
X1073658Y568747D02*
Y592339D01*
X1074420Y568799D02*
Y592491D01*
X1077468Y568767D02*
Y593365D01*
X1078230Y568698D02*
Y593654D01*
X1075182Y568828D02*
Y592669D01*
X1075944Y568832D02*
Y592873D01*
X1075812Y592836D02*
X1088268D01*
X1076706Y568811D02*
Y593105D01*
X1078088Y593598D02*
X1085992D01*
X1078992Y568605D02*
Y593973D01*
X1079754Y568487D02*
Y594324D01*
X1098804Y568724D02*
Y592294D01*
X1080516Y568343D02*
Y594708D01*
X1083564Y567505D02*
Y594708D01*
X1099566Y568785D02*
Y592437D01*
X1079829Y594360D02*
X1084251D01*
X1100328Y568821D02*
Y592607D01*
X1101090Y568833D02*
Y592802D01*
X1101852Y568821D02*
Y593025D01*
X1108409Y567690D02*
X1119171D01*
X1118616Y567505D02*
Y591995D01*
X1120140Y567978D02*
Y591947D01*
X1119378Y567755D02*
Y591959D01*
X1097206Y592074D02*
X1117674D01*
X1101212Y592836D02*
X1113668D01*
X1105350Y568452D02*
X1122230D01*
X1120902Y568173D02*
Y591959D01*
X1121664Y568343D02*
Y591995D01*
X1122426Y568487D02*
Y592056D01*
X1123188Y568605D02*
Y592141D01*
X1123950Y568698D02*
Y592251D01*
X1124712Y568767D02*
Y592386D01*
X1125474Y568811D02*
Y592547D01*
X1126236Y568832D02*
Y592734D01*
X1122606Y592074D02*
X1143074D01*
X1126612Y592836D02*
X1139068D01*
X1126998Y568828D02*
Y592948D01*
X1104900Y568529D02*
Y594203D01*
X1105662Y568394D02*
Y594576D01*
X1109472Y567322D02*
Y594448D01*
X1108710Y567591D02*
Y594843D01*
X1102614Y568785D02*
Y593275D01*
X1103376Y568724D02*
Y593554D01*
X1103488Y593598D02*
X1111392D01*
X1104138Y568639D02*
Y593863D01*
X1105229Y594360D02*
X1109651D01*
X1130046Y568568D02*
Y594086D01*
X1130808Y568441D02*
Y594448D01*
X1134618Y567415D02*
Y594576D01*
X1131570Y568289D02*
Y594843D01*
X1133856Y567675D02*
Y594983D01*
X1127760Y568799D02*
Y593189D01*
X1128522Y568747D02*
Y593458D01*
X1128888Y593598D02*
X1136792D01*
X1129284Y568670D02*
Y593757D01*
X1130629Y594360D02*
X1135051D01*
X1050036Y587221D02*
Y595426D01*
X1050798Y586459D02*
Y595908D01*
X998982Y690753D02*
Y694690D01*
X1002030Y706230D02*
Y717473D01*
X1004316Y709551D02*
Y714410D01*
X1002792Y707479D02*
Y716335D01*
X1003554Y708574D02*
Y715322D01*
X1054608Y581438D02*
Y597000D01*
X1053846Y582747D02*
Y597617D01*
X1056132Y577668D02*
Y595908D01*
X1055370Y579831D02*
Y596431D01*
X1051560Y585686D02*
Y596431D01*
X1052322Y584829D02*
Y597000D01*
X1051855Y596646D02*
X1055075D01*
X1052833Y597408D02*
X1054097D01*
X1053084Y583860D02*
Y597617D01*
X992124Y690753D02*
Y768687D01*
X992886Y690753D02*
Y770054D01*
X993648Y690753D02*
Y771679D01*
X994410Y690753D02*
Y773731D01*
X988314Y690753D02*
Y763871D01*
X989076Y690753D02*
Y764649D01*
X989838Y690753D02*
Y765503D01*
X990600Y690753D02*
Y766447D01*
X991362Y690753D02*
Y767499D01*
X995172Y690753D02*
Y776790D01*
X995934Y690753D02*
Y1057529D01*
X997458Y690753D02*
Y1057529D01*
X996696Y690753D02*
Y1057529D01*
X998982Y694690D02*
Y724765D01*
X998220Y690753D02*
Y1057529D01*
X1001268Y704770D02*
Y718774D01*
X999744Y700609D02*
Y722181D01*
X1000506Y702991D02*
Y720301D01*
X1081278Y568173D02*
Y595126D01*
X1056894Y572262D02*
Y595426D01*
X1082802Y567755D02*
Y595126D01*
X1082040Y567978D02*
Y595582D01*
X1049521Y595122D02*
X1057409D01*
X1050762Y595884D02*
X1056168D01*
X1081271Y595122D02*
X1082809D01*
X1107948Y567832D02*
Y595274D01*
X1107186Y568046D02*
Y595426D01*
X1132332Y568111D02*
Y595274D01*
X1133094Y567907D02*
Y595426D01*
X1106424Y568233D02*
Y594983D01*
X1106671Y595122D02*
X1108209D01*
X1132071D02*
X1133609D01*
X1140714Y651160D02*
Y654387D01*
X1140931Y650748D02*
X1182011D01*
X1140522Y651510D02*
X1181418D01*
X1140816Y654558D02*
X1179492D01*
X1140075Y652272D02*
X1180873D01*
X1139838Y653034D02*
X1180372D01*
X1140347Y653796D02*
X1179913D01*
X1141476Y649611D02*
Y655754D01*
X1142238Y647679D02*
Y657379D01*
X1142231Y647700D02*
X1184986D01*
X1141645Y649224D02*
X1183363D01*
X1141953Y648462D02*
X1184136D01*
X1142004Y656844D02*
X1178436D01*
X1142333Y657606D02*
X1178148D01*
X1141304Y649986D02*
X1182657D01*
X1141247Y655320D02*
X1179106D01*
X1141642Y656082D02*
X1178755D01*
X1005078Y710430D02*
Y713582D01*
X998982Y735735D02*
Y1057529D01*
X1005840Y711227D02*
Y712827D01*
X1000506Y740199D02*
Y1057529D01*
X999744Y738319D02*
Y1057529D01*
X1005840Y747673D02*
Y1057529D01*
X1004316Y746090D02*
Y1057529D01*
X1005078Y746918D02*
Y1057529D01*
X1007364Y749000D02*
Y1057529D01*
X1006602Y748365D02*
Y1057529D01*
X1060704Y750774D02*
Y1004962D01*
X1033826Y751332D02*
X1036274D01*
X1032299Y752094D02*
X1037801D01*
X1059942Y750926D02*
Y1005089D01*
X1058418Y751752D02*
Y1005419D01*
X1059180Y751357D02*
Y1005241D01*
X1002030Y743027D02*
Y1057529D01*
X1001268Y741726D02*
Y1057529D01*
X1003554Y745178D02*
Y1057529D01*
X1002792Y744165D02*
Y1057529D01*
X1008888Y750123D02*
Y1057529D01*
X1008126Y749585D02*
Y1057529D01*
X1011174Y751492D02*
Y1057529D01*
X1009650Y750618D02*
Y1057529D01*
X1010412Y751074D02*
Y1057529D01*
X1034796Y750774D02*
Y1057529D01*
X1034034Y751217D02*
Y1057529D01*
X1036320Y751357D02*
Y1057529D01*
X1035558Y750926D02*
Y1057529D01*
X1032510Y751997D02*
Y1057529D01*
X1011936Y751876D02*
Y1057529D01*
X1037844Y752114D02*
Y1057529D01*
X1033272Y751624D02*
Y1057529D01*
X1037082Y751752D02*
Y1057529D01*
X1059226Y751332D02*
X1061674D01*
X1086612Y751074D02*
Y772392D01*
X1084626Y751332D02*
X1087074D01*
X1057699Y752094D02*
X1063201D01*
X1083099D02*
X1088601D01*
X1087374Y751492D02*
Y771958D01*
X1088136Y751876D02*
Y771561D01*
X1110026Y751332D02*
X1112474D01*
X1110234Y751217D02*
Y772243D01*
X1108710Y751997D02*
Y771436D01*
X1109472Y751624D02*
Y771822D01*
X1135426Y751332D02*
X1137874D01*
X1108499Y752094D02*
X1114001D01*
X1133899D02*
X1139401D01*
X1085850Y750618D02*
Y772864D01*
X1085088Y751074D02*
Y773379D01*
X1110996Y750774D02*
Y772702D01*
X1111758Y750926D02*
Y773203D01*
X1062228Y751624D02*
Y1004783D01*
X1061466Y751217D02*
Y1004860D01*
X1084326Y751492D02*
Y773940D01*
X1062990Y751997D02*
Y1004731D01*
X1083564Y751876D02*
Y774550D01*
X1112520Y751357D02*
Y773748D01*
X1135380Y751357D02*
Y775462D01*
X1137666Y751217D02*
Y775462D01*
X1136142Y750926D02*
Y775462D01*
X1136904Y750774D02*
Y775462D01*
X1113282Y751752D02*
Y774341D01*
X1114044Y752114D02*
Y774987D01*
X1139190Y751997D02*
Y775462D01*
X1134618Y751752D02*
Y775462D01*
X1138428Y751624D02*
Y775462D01*
X1160526Y561848D02*
Y597200D01*
X1161288Y561848D02*
Y597835D01*
X1162050Y561848D02*
Y598527D01*
X1162812Y561848D02*
Y599282D01*
X1157478Y561848D02*
Y595126D01*
X1158240Y561848D02*
Y595582D01*
X1159002Y561848D02*
Y596077D01*
X1159764Y561848D02*
Y596615D01*
X1163574Y561848D02*
Y600110D01*
X1164336Y561848D02*
Y601022D01*
X1165098Y561848D02*
Y602035D01*
X1165860Y561848D02*
Y603173D01*
X1166622Y561848D02*
Y604474D01*
X1165098Y629865D02*
Y666877D01*
X1167384Y561848D02*
Y606001D01*
X1168146Y561848D02*
Y607881D01*
X1168908Y561848D02*
Y610465D01*
X1168146Y624019D02*
Y666877D01*
X1167384Y625899D02*
Y666877D01*
X1169670Y561848D02*
Y666877D01*
X1168908Y621435D02*
Y666877D01*
X1163574Y631790D02*
Y666877D01*
X1162812Y632618D02*
Y666877D01*
X1166622Y627426D02*
Y666877D01*
X1164336Y630878D02*
Y666877D01*
X1165860Y628727D02*
Y666877D01*
X1175004Y561848D02*
Y666877D01*
X1174242Y561848D02*
Y666877D01*
X1176528Y561848D02*
Y666877D01*
X1175766Y561848D02*
Y666877D01*
X1171194Y561848D02*
Y666877D01*
X1170432Y561848D02*
Y666877D01*
X1173480Y561848D02*
Y666877D01*
X1171956Y561848D02*
Y666877D01*
X1172718Y561848D02*
Y666877D01*
X1196340Y561848D02*
Y642425D01*
X1195578Y561848D02*
Y642564D01*
X1197864Y561848D02*
Y642224D01*
X1197102Y561848D02*
Y642312D01*
X1192530Y561848D02*
Y643389D01*
X1191768Y561848D02*
Y643667D01*
X1194816Y561848D02*
Y642729D01*
X1193292Y561848D02*
Y643141D01*
X1194054Y561848D02*
Y642921D01*
X1203198Y561848D02*
Y638365D01*
X1202436Y561848D02*
Y639127D01*
X1204722Y561848D02*
Y636841D01*
X1203960Y561848D02*
Y637603D01*
X1199388Y561848D02*
Y642124D01*
X1198626Y561848D02*
Y642162D01*
X1201674Y561848D02*
Y639889D01*
X1200150Y561848D02*
Y641413D01*
X1200912Y561848D02*
Y640651D01*
X1181862Y561848D02*
Y650933D01*
X1181100Y561848D02*
Y651946D01*
X1183386Y561848D02*
Y649200D01*
X1182624Y561848D02*
Y650023D01*
X1178052Y561848D02*
Y657881D01*
X1177290Y561848D02*
Y660634D01*
X1180338Y561848D02*
Y653089D01*
X1178814Y561848D02*
Y655949D01*
X1179576Y561848D02*
Y654400D01*
X1188720Y561848D02*
Y645098D01*
X1187958Y561848D02*
Y645545D01*
X1191006Y561848D02*
Y643975D01*
X1189482Y561848D02*
Y644689D01*
X1190244Y561848D02*
Y644315D01*
X1184910Y561848D02*
Y647765D01*
X1184148Y561848D02*
Y648451D01*
X1187196Y561848D02*
Y646031D01*
X1185672Y561848D02*
Y647137D01*
X1186434Y561848D02*
Y646561D01*
X1143762Y639887D02*
Y662490D01*
X1144524Y639931D02*
Y666877D01*
X1148334Y639790D02*
Y666877D01*
X1146810Y639919D02*
Y666877D01*
X1143000Y644926D02*
Y659431D01*
X1145286Y639952D02*
Y666877D01*
X1144095Y665226D02*
X1176783D01*
X1144131Y665988D02*
X1176787D01*
X1146048Y639948D02*
Y666877D01*
X1153668Y638535D02*
Y666877D01*
X1152906Y638795D02*
Y666877D01*
X1155192Y637927D02*
Y666877D01*
X1154430Y638246D02*
Y666877D01*
X1149858Y639561D02*
Y666877D01*
X1149096Y639688D02*
Y666877D01*
X1152144Y639027D02*
Y666877D01*
X1150620Y639409D02*
Y666877D01*
X1151382Y639231D02*
Y666877D01*
X1158240Y636318D02*
Y666877D01*
X1157478Y636774D02*
Y666877D01*
X1159764Y635285D02*
Y666877D01*
X1159002Y635823D02*
Y666877D01*
X1155954Y637576D02*
Y666877D01*
X1147572Y639867D02*
Y666877D01*
X1156716Y637192D02*
Y666877D01*
X1159299Y752094D02*
X1164801D01*
X1159764Y751876D02*
Y775462D01*
X1161288Y634065D02*
Y666877D01*
X1160526Y634700D02*
Y666877D01*
X1162050Y633373D02*
Y666877D01*
X1161288Y751074D02*
Y775462D01*
X1162050Y750618D02*
Y775462D01*
X1162812Y751074D02*
Y775462D01*
X1160526Y751492D02*
Y775462D01*
X1160826Y751332D02*
X1163274D01*
X1163574Y751492D02*
Y775462D01*
X1164336Y751876D02*
Y775462D01*
X1143056Y644652D02*
X1189555D01*
X1142891Y645414D02*
X1188174D01*
X1143308Y643128D02*
X1193335D01*
X1143195Y643890D02*
X1191209D01*
X1142901Y659130D02*
X1177661D01*
X1143142Y659892D02*
X1177460D01*
X1142699Y646176D02*
X1186981D01*
X1142479Y646938D02*
X1185928D01*
X1142632Y658368D02*
X1177891D01*
X1155489Y637794D02*
X1203769D01*
X1153609Y638556D02*
X1203007D01*
X1158317Y636270D02*
X1205293D01*
X1157016Y637032D02*
X1204531D01*
X1143458Y641604D02*
X1199959D01*
X1143396Y642366D02*
X1196714D01*
X1151025Y639318D02*
X1202245D01*
X1143496Y640842D02*
X1200721D01*
X1143508Y640080D02*
X1201483D01*
X1143543Y661416D02*
X1177138D01*
X1143704Y662178D02*
X1177017D01*
X1143356Y660654D02*
X1177286D01*
X1144034Y664464D02*
X1176804D01*
X1144143Y666877D02*
X1176824D01*
X1143839Y662940D02*
X1176920D01*
X1143949Y663702D02*
X1176850D01*
X1187196Y750774D02*
Y775462D01*
X1186434Y751217D02*
Y775462D01*
X1186226Y751332D02*
X1188674D01*
X1187958Y750926D02*
Y775462D01*
X1188720Y751357D02*
Y775462D01*
X1185672Y751624D02*
Y775462D01*
X1184910Y751997D02*
Y775462D01*
X1184699Y752094D02*
X1190201D01*
X1189482Y751752D02*
Y775462D01*
X1190244Y752114D02*
Y775462D01*
X1236726Y561848D02*
Y630682D01*
X1235964Y561848D02*
Y630682D01*
X1238250Y561848D02*
Y630682D01*
X1237488Y561848D02*
Y630682D01*
X1232916Y561848D02*
Y630682D01*
X1232154Y561848D02*
Y630682D01*
X1235202Y561848D02*
Y630682D01*
X1233678Y561848D02*
Y630682D01*
X1234440Y561848D02*
Y630682D01*
X1243584Y561848D02*
Y630682D01*
X1242822Y561848D02*
Y630682D01*
X1245108Y561848D02*
Y630682D01*
X1244346Y561848D02*
Y630682D01*
X1239774Y561848D02*
Y630682D01*
X1239012Y561848D02*
Y630682D01*
X1242060Y561848D02*
Y630682D01*
X1240536Y561848D02*
Y630682D01*
X1241298Y561848D02*
Y630682D01*
X1223010Y561848D02*
Y630682D01*
X1222248Y561848D02*
Y630682D01*
X1224534Y561848D02*
Y630682D01*
X1223772Y561848D02*
Y630682D01*
X1219200Y561848D02*
Y630682D01*
X1218438Y561848D02*
Y630682D01*
X1221486Y561848D02*
Y630682D01*
X1219962Y561848D02*
Y630682D01*
X1220724Y561848D02*
Y630682D01*
X1229868Y561848D02*
Y630682D01*
X1229106Y561848D02*
Y630682D01*
X1231392Y561848D02*
Y630682D01*
X1230630Y561848D02*
Y630682D01*
X1226058Y561848D02*
Y630682D01*
X1225296Y561848D02*
Y630682D01*
X1228344Y561848D02*
Y630682D01*
X1226820Y561848D02*
Y630682D01*
X1227582Y561848D02*
Y630682D01*
X1130750Y568452D02*
X1351597D01*
X1056894Y569214D02*
X1352359D01*
X1056894Y569976D02*
X1353121D01*
X1056894Y570738D02*
X1353883D01*
X1056894Y571500D02*
X1354645D01*
X1056894Y572262D02*
X1355407D01*
X1056879Y573024D02*
X1356169D01*
X1056760Y574548D02*
X1357693D01*
X1056834Y573786D02*
X1356931D01*
X1143417Y561848D02*
X1344993D01*
X1142891Y562356D02*
X1345501D01*
X1142037Y563118D02*
X1346263D01*
X1141093Y563880D02*
X1347025D01*
X1140041Y564642D02*
X1347787D01*
X1138853Y565404D02*
X1348549D01*
X1137486Y566166D02*
X1349311D01*
X1133809Y567690D02*
X1350835D01*
X1135861Y566928D02*
X1350073D01*
X1249680Y561848D02*
Y630682D01*
X1248918Y561848D02*
Y630682D01*
X1251204Y561848D02*
Y630682D01*
X1250442Y561848D02*
Y630682D01*
X1246632Y561848D02*
Y630682D01*
X1245870Y561848D02*
Y630682D01*
X1056655Y575310D02*
X1358455D01*
X1247394Y561848D02*
Y630682D01*
X1248156Y561848D02*
Y630682D01*
X1256538Y561848D02*
Y630682D01*
X1255776Y561848D02*
Y630682D01*
X1258824Y561848D02*
Y630682D01*
X1257300Y561848D02*
Y630682D01*
X1258062Y561848D02*
Y630682D01*
X1252728Y561848D02*
Y630682D01*
X1251966Y561848D02*
Y630682D01*
X1255014Y561848D02*
Y630682D01*
X1253490Y561848D02*
Y630682D01*
X1254252Y561848D02*
Y630682D01*
X1053728Y582930D02*
X1364128D01*
X1053206Y583692D02*
X1364285D01*
X1052629Y584454D02*
X1364468D01*
X1051989Y585216D02*
X1364679D01*
X1051278Y585978D02*
X1364917D01*
X1050517Y586740D02*
X1365185D01*
X1049755Y587502D02*
X1365483D01*
X1048231Y589026D02*
X1366175D01*
X1048993Y588264D02*
X1365813D01*
X1056519Y576072D02*
X1359217D01*
X1056352Y576834D02*
X1359979D01*
X1056153Y577596D02*
X1360741D01*
X1055920Y578358D02*
X1361503D01*
X1055652Y579120D02*
X1362265D01*
X1055349Y579882D02*
X1363027D01*
X1055007Y580644D02*
X1363789D01*
X1054200Y582168D02*
X1363998D01*
X1054625Y581406D02*
X1363894D01*
X1047469Y589788D02*
X1366572D01*
X1046707Y590550D02*
X1367005D01*
X1045945Y591312D02*
X1367478D01*
X1148006Y592074D02*
X1367993D01*
X1152012Y592836D02*
X1368554D01*
X1154288Y593598D02*
X1369164D01*
X1156029Y594360D02*
X1369830D01*
X1157471Y595122D02*
X1370557D01*
X1158712Y595884D02*
X1371354D01*
X1159805Y596646D02*
X1372233D01*
X1160783Y597408D02*
X1373210D01*
X1161665Y598170D02*
X1374305D01*
X1162467Y598932D02*
X1375554D01*
X1163200Y599694D02*
X1377014D01*
X1163873Y600456D02*
X1378793D01*
X1164490Y601218D02*
X1381175D01*
X1165059Y601980D02*
X1387094D01*
X1217930Y630682D02*
X1384300D01*
X1166507Y604266D02*
X1390142D01*
X1166914Y605028D02*
X1390142D01*
X1165582Y602742D02*
X1390142D01*
X1166064Y603504D02*
X1390142D01*
X1168215Y608076D02*
X1390142D01*
X1168465Y608838D02*
X1390142D01*
X1167287Y605790D02*
X1390142D01*
X1167627Y606552D02*
X1390142D01*
X1167936Y607314D02*
X1390142D01*
X1169053Y611124D02*
X1390142D01*
X1169196Y611886D02*
X1390142D01*
X1168688Y609600D02*
X1390142D01*
X1168884Y610362D02*
X1390142D01*
X1169521Y614934D02*
X1390142D01*
X1169542Y615696D02*
X1390142D01*
X1169315Y612648D02*
X1390142D01*
X1169408Y613410D02*
X1390142D01*
X1169477Y614172D02*
X1390142D01*
X1167517Y625602D02*
X1390142D01*
X1167166Y626364D02*
X1390142D01*
X1168125Y624078D02*
X1390142D01*
X1167836Y624840D02*
X1390142D01*
X1165413Y629412D02*
X1390142D01*
X1164874Y630174D02*
X1390142D01*
X1166782Y627126D02*
X1390142D01*
X1165908Y628650D02*
X1390142D01*
X1166364Y627888D02*
X1390142D01*
X1169380Y618744D02*
X1390142D01*
X1169278Y619506D02*
X1390142D01*
X1169538Y616458D02*
X1390142D01*
X1169457Y617982D02*
X1390142D01*
X1169509Y617220D02*
X1390142D01*
X1168617Y622554D02*
X1390142D01*
X1168385Y623316D02*
X1390142D01*
X1169151Y620268D02*
X1390142D01*
X1168821Y621792D02*
X1390142D01*
X1168999Y621030D02*
X1390142D01*
X1277874Y561848D02*
Y630682D01*
X1277112Y561848D02*
Y630682D01*
X1279398Y561848D02*
Y630682D01*
X1278636Y561848D02*
Y630682D01*
X1274064Y561848D02*
Y630682D01*
X1273302Y561848D02*
Y630682D01*
X1276350Y561848D02*
Y630682D01*
X1274826Y561848D02*
Y630682D01*
X1275588Y561848D02*
Y630682D01*
X1284732Y561848D02*
Y630682D01*
X1283970Y561848D02*
Y630682D01*
X1286256Y561848D02*
Y630682D01*
X1285494Y561848D02*
Y630682D01*
X1280922Y561848D02*
Y630682D01*
X1280160Y561848D02*
Y630682D01*
X1283208Y561848D02*
Y630682D01*
X1281684Y561848D02*
Y630682D01*
X1282446Y561848D02*
Y630682D01*
X1264158Y561848D02*
Y630682D01*
X1263396Y561848D02*
Y630682D01*
X1265682Y561848D02*
Y630682D01*
X1264920Y561848D02*
Y630682D01*
X1260348Y561848D02*
Y630682D01*
X1259586Y561848D02*
Y630682D01*
X1262634Y561848D02*
Y630682D01*
X1261110Y561848D02*
Y630682D01*
X1261872Y561848D02*
Y630682D01*
X1271016Y561848D02*
Y630682D01*
X1270254Y561848D02*
Y630682D01*
X1272540Y561848D02*
Y630682D01*
X1271778Y561848D02*
Y630682D01*
X1267206Y561848D02*
Y630682D01*
X1266444Y561848D02*
Y630682D01*
X1269492Y561848D02*
Y630682D01*
X1267968Y561848D02*
Y630682D01*
X1268730Y561848D02*
Y630682D01*
X1306068Y561848D02*
Y630682D01*
X1305306Y561848D02*
Y630682D01*
X1307592Y561848D02*
Y630682D01*
X1306830Y561848D02*
Y630682D01*
X1302258Y561848D02*
Y630682D01*
X1301496Y561848D02*
Y630682D01*
X1304544Y561848D02*
Y630682D01*
X1303020Y561848D02*
Y630682D01*
X1303782Y561848D02*
Y630682D01*
X1312926Y561848D02*
Y630682D01*
X1312164Y561848D02*
Y630682D01*
X1314450Y561848D02*
Y630682D01*
X1313688Y561848D02*
Y630682D01*
X1309116Y561848D02*
Y630682D01*
X1308354Y561848D02*
Y630682D01*
X1311402Y561848D02*
Y630682D01*
X1309878Y561848D02*
Y630682D01*
X1310640Y561848D02*
Y630682D01*
X1291590Y561848D02*
Y630682D01*
X1290828Y561848D02*
Y630682D01*
X1293114Y561848D02*
Y630682D01*
X1292352Y561848D02*
Y630682D01*
X1287780Y561848D02*
Y630682D01*
X1287018Y561848D02*
Y630682D01*
X1290066Y561848D02*
Y630682D01*
X1288542Y561848D02*
Y630682D01*
X1289304Y561848D02*
Y630682D01*
X1298448Y561848D02*
Y630682D01*
X1297686Y561848D02*
Y630682D01*
X1300734Y561848D02*
Y630682D01*
X1299210Y561848D02*
Y630682D01*
X1299972Y561848D02*
Y630682D01*
X1294638Y561848D02*
Y630682D01*
X1293876Y561848D02*
Y630682D01*
X1296924Y561848D02*
Y630682D01*
X1295400Y561848D02*
Y630682D01*
X1296162Y561848D02*
Y630682D01*
X1343406Y561848D02*
Y630682D01*
X1342644Y561848D02*
Y630682D01*
X1344930Y561848D02*
Y630682D01*
X1344168Y561848D02*
Y630682D01*
X1339596Y561848D02*
Y630682D01*
X1338834Y561848D02*
Y630682D01*
X1341882Y561848D02*
Y630682D01*
X1340358Y561848D02*
Y630682D01*
X1341120Y561848D02*
Y630682D01*
X1346454Y563309D02*
Y630682D01*
X1345692Y562547D02*
Y630682D01*
X1347978Y564833D02*
Y630682D01*
X1347216Y564071D02*
Y630682D01*
X1349502Y566357D02*
Y630682D01*
X1348740Y565595D02*
Y630682D01*
X1351788Y568643D02*
Y630682D01*
X1350264Y567119D02*
Y630682D01*
X1351026Y567881D02*
Y630682D01*
X1328928Y561848D02*
Y630682D01*
X1328166Y561848D02*
Y630682D01*
X1330452Y561848D02*
Y630682D01*
X1329690Y561848D02*
Y630682D01*
X1315974Y561848D02*
Y630682D01*
X1315212Y561848D02*
Y630682D01*
X1327404Y561848D02*
Y630682D01*
X1316736Y561848D02*
Y630682D01*
X1317498Y561848D02*
Y630682D01*
X1335786Y561848D02*
Y630682D01*
X1335024Y561848D02*
Y630682D01*
X1338072Y561848D02*
Y630682D01*
X1336548Y561848D02*
Y630682D01*
X1337310Y561848D02*
Y630682D01*
X1331976Y561848D02*
Y630682D01*
X1331214Y561848D02*
Y630682D01*
X1334262Y561848D02*
Y630682D01*
X1332738Y561848D02*
Y630682D01*
X1333500Y561848D02*
Y630682D01*
X1353312Y570167D02*
Y630682D01*
X1352550Y569405D02*
Y630682D01*
X1344993Y561848D02*
X1363817Y580672D01*
X1354074Y570929D02*
Y630682D01*
X1355598Y572453D02*
Y630682D01*
X1354836Y571691D02*
Y630682D01*
X1358646Y575501D02*
Y630682D01*
X1357122Y573977D02*
Y630682D01*
X1357884Y574739D02*
Y630682D01*
X1360170Y577025D02*
Y630682D01*
X1359408Y576263D02*
Y630682D01*
X1361694Y578549D02*
Y630682D01*
X1360932Y577787D02*
Y630682D01*
X1363218Y580073D02*
Y630682D01*
X1362456Y579311D02*
Y630682D01*
X1368552Y592834D02*
Y630682D01*
X1387094Y601980D02*
X1390142D01*
X1370838Y595399D02*
Y630682D01*
X1356360Y573215D02*
Y630682D01*
X1372362Y596751D02*
Y630682D01*
X1371600Y596105D02*
Y630682D01*
X1373886Y597889D02*
Y630682D01*
X1373124Y597344D02*
Y630682D01*
X1376172Y599271D02*
Y630682D01*
X1374648Y598390D02*
Y630682D01*
X1375410Y598849D02*
Y630682D01*
X1377696Y600007D02*
Y630682D01*
X1376934Y599656D02*
Y630682D01*
X1379982Y600871D02*
Y630682D01*
X1378458Y600326D02*
Y630682D01*
X1379220Y600614D02*
Y630682D01*
X1381506Y601302D02*
Y630682D01*
X1380744Y601101D02*
Y630682D01*
X1383792Y601745D02*
Y630682D01*
X1382268Y601476D02*
Y630682D01*
X1383030Y601624D02*
Y630682D01*
X1209294Y561848D02*
Y633036D01*
X1208532Y561848D02*
Y633512D01*
X1210818Y561848D02*
Y632239D01*
X1210056Y561848D02*
Y632613D01*
X1162208Y633222D02*
X1208986D01*
X1161380Y633984D02*
X1207856D01*
X1164290Y630936D02*
X1215001D01*
X1162963Y632460D02*
X1210357D01*
X1163655Y631698D02*
X1212138D01*
X1216152Y561848D02*
Y630775D01*
X1215390Y561848D02*
Y630873D01*
X1217676Y561848D02*
Y630684D01*
X1216914Y561848D02*
Y630712D01*
X1212342Y561848D02*
Y631626D01*
X1211580Y561848D02*
Y631911D01*
X1214628Y561848D02*
Y631005D01*
X1213104Y561848D02*
Y631381D01*
X1213866Y561848D02*
Y631174D01*
X1206246Y561848D02*
Y635327D01*
X1205484Y561848D02*
Y636079D01*
X1207770Y561848D02*
Y634048D01*
X1207008Y561848D02*
Y634649D01*
X1159455Y635508D02*
X1206057D01*
X1199440Y642123D02*
X1205896Y635666D01*
X1160468Y634746D02*
X1206893D01*
X1223507Y666190D02*
X1224979Y664718D01*
X1224534Y665163D02*
Y667512D01*
X1226058Y664718D02*
Y667512D01*
X1225296Y664718D02*
Y667512D01*
X1223772Y665925D02*
Y667383D01*
X1225296Y723138D02*
Y764857D01*
X1227582Y664718D02*
Y667512D01*
X1226820Y664718D02*
Y667512D01*
X1224979Y664718D02*
X1237831D01*
X1229106D02*
Y667512D01*
X1223484Y666750D02*
X1237742D01*
X1228344Y664718D02*
Y667512D01*
X1224471Y665226D02*
X1237792D01*
X1223709Y665988D02*
X1237754D01*
X1224260Y667512D02*
X1237754D01*
X1234440Y664718D02*
Y667512D01*
X1233678Y664718D02*
Y667512D01*
X1237488Y664718D02*
Y667512D01*
X1235202Y664718D02*
Y667512D01*
X1230630Y664718D02*
Y667512D01*
X1229868Y664718D02*
Y667512D01*
X1232916Y664718D02*
Y667512D01*
X1231392Y664718D02*
Y667512D01*
X1232154Y664718D02*
Y667512D01*
X1228344Y723138D02*
Y761809D01*
X1226820Y723138D02*
Y763333D01*
X1224260Y667512D02*
X1237754D01*
X1229868Y723138D02*
Y760285D01*
X1231392Y723138D02*
Y758761D01*
X1230630Y723138D02*
Y759523D01*
X1235202Y723138D02*
Y754951D01*
X1232154Y723138D02*
Y757999D01*
X1232916Y723138D02*
Y757237D01*
X1235964Y664718D02*
Y667512D01*
Y723138D02*
Y754189D01*
X1236726Y664718D02*
Y667512D01*
X1240536Y723138D02*
Y749617D01*
X1237488Y723138D02*
Y752665D01*
X1236726Y723138D02*
Y753427D01*
X1241298Y723138D02*
Y748855D01*
X1238250Y723138D02*
Y751903D01*
X1239012Y723138D02*
Y751141D01*
X1223772Y723138D02*
Y725990D01*
X1215990Y748284D02*
X1241869D01*
X1211626Y751332D02*
X1238821D01*
X1210099Y752094D02*
X1238059D01*
X1215078Y749046D02*
X1241107D01*
X1212927Y750570D02*
X1239583D01*
X1214065Y749808D02*
X1240345D01*
X1234440Y723138D02*
Y755713D01*
X1233678Y723138D02*
Y756475D01*
X1242060Y723138D02*
Y748093D01*
X1239774Y723138D02*
Y750379D01*
X1224534Y723138D02*
Y765619D01*
X1223772Y734510D02*
Y766381D01*
X1229106Y723138D02*
Y761047D01*
X1226058Y723138D02*
Y764095D01*
X1227582Y723138D02*
Y762571D01*
X1214628Y749395D02*
Y775462D01*
X1213866Y749948D02*
Y775462D01*
X1216152Y748141D02*
Y774001D01*
X1215390Y748794D02*
Y774763D01*
X1210818Y751752D02*
Y775462D01*
X1210056Y752114D02*
Y775462D01*
X1213104Y750457D02*
Y775462D01*
X1211580Y751357D02*
Y775462D01*
X1212342Y750926D02*
Y775462D01*
X1221486Y741246D02*
Y768667D01*
X1220724Y742613D02*
Y769429D01*
X1223010Y737569D02*
Y767143D01*
X1222248Y739621D02*
Y767905D01*
X1217676Y746651D02*
Y772477D01*
X1216914Y747429D02*
Y773239D01*
X1219962Y743801D02*
Y770191D01*
X1218438Y745797D02*
Y771715D01*
X1219200Y744853D02*
Y770953D01*
X1223075Y723138D02*
X1313751D01*
X1223075D02*
X1313751D01*
X1223298Y723900D02*
X1314513D01*
X1223493Y724662D02*
X1315275D01*
X1223663Y725424D02*
X1316037D01*
X1223807Y726186D02*
X1316799D01*
X1223888Y733806D02*
X1324419D01*
X1223609Y735330D02*
X1325943D01*
X1223761Y734568D02*
X1325181D01*
X1223925Y726948D02*
X1317561D01*
X1224018Y727710D02*
X1318323D01*
X1224087Y728472D02*
X1319085D01*
X1224131Y729234D02*
X1319847D01*
X1224152Y729996D02*
X1320609D01*
X1224148Y730758D02*
X1321371D01*
X1224119Y731520D02*
X1322133D01*
X1223990Y733044D02*
X1323657D01*
X1224067Y732282D02*
X1322895D01*
X1220023Y743712D02*
X1246441D01*
X1214691Y775462D02*
X1246536Y743616D01*
X1220974Y742188D02*
X1248159D01*
X1220518Y742950D02*
X1247242D01*
X1217573Y746760D02*
X1243393D01*
X1216818Y747522D02*
X1242631D01*
X1219484Y744474D02*
X1245679D01*
X1218265Y745998D02*
X1244155D01*
X1218900Y745236D02*
X1244917D01*
X1243584Y723138D02*
Y746569D01*
X1242822Y723138D02*
Y747331D01*
X1223431Y736092D02*
X1326705D01*
X1222995Y737616D02*
X1328229D01*
X1223227Y736854D02*
X1327467D01*
X1221776Y740664D02*
X1250506D01*
X1221392Y741426D02*
X1249227D01*
X1222735Y738378D02*
X1328991D01*
X1222127Y739902D02*
X1252119D01*
X1222446Y739140D02*
X1254443D01*
X1274064Y723138D02*
Y738632D01*
X1273302Y723138D02*
Y738632D01*
X1275588Y723138D02*
Y738632D01*
X1274826Y723138D02*
Y738632D01*
X1270254Y723138D02*
Y738632D01*
X1269492Y723138D02*
Y738632D01*
X1272540Y723138D02*
Y738632D01*
X1271016Y723138D02*
Y738632D01*
X1271778Y723138D02*
Y738632D01*
X1280922Y723138D02*
Y738632D01*
X1280160Y723138D02*
Y738632D01*
X1282446Y723138D02*
Y738632D01*
X1281684Y723138D02*
Y738632D01*
X1277112Y723138D02*
Y738632D01*
X1276350Y723138D02*
Y738632D01*
X1279398Y723138D02*
Y738632D01*
X1277874Y723138D02*
Y738632D01*
X1278636Y723138D02*
Y738632D01*
X1249680Y723138D02*
Y741139D01*
X1248918Y723138D02*
Y741634D01*
X1251204Y723138D02*
Y740309D01*
X1250442Y723138D02*
Y740698D01*
X1245108Y723138D02*
Y745045D01*
X1244346Y723138D02*
Y745807D01*
X1248156Y723138D02*
Y742190D01*
X1245870Y723138D02*
Y744283D01*
X1246632Y723138D02*
Y743522D01*
X1267206Y723138D02*
Y738632D01*
X1266444Y723138D02*
Y738632D01*
X1268730Y723138D02*
Y738632D01*
X1267968Y723138D02*
Y738632D01*
X1252728Y723138D02*
Y739666D01*
X1251966Y723138D02*
Y739966D01*
X1265682Y723138D02*
Y738632D01*
X1253490Y723138D02*
Y739408D01*
X1254252Y723138D02*
Y739189D01*
X1322832Y561848D02*
Y630682D01*
X1322070Y561848D02*
Y630682D01*
X1324356Y561848D02*
Y630682D01*
X1323594Y561848D02*
Y630682D01*
X1319022Y561848D02*
Y630682D01*
X1318260Y561848D02*
Y630682D01*
X1321308Y561848D02*
Y630682D01*
X1319784Y561848D02*
Y630682D01*
X1320546Y561848D02*
Y630682D01*
X1325880Y561848D02*
Y630682D01*
X1325118Y561848D02*
Y630682D01*
X1363980Y582048D02*
Y630682D01*
X1326642Y561848D02*
Y630682D01*
X1365504Y587553D02*
Y630682D01*
X1364742Y585428D02*
Y630682D01*
X1370076Y594626D02*
Y630682D01*
X1366266Y589207D02*
Y630682D01*
X1369314Y593776D02*
Y630682D01*
X1367790Y591781D02*
Y630682D01*
X1367028Y590588D02*
Y630682D01*
X1283970Y723138D02*
Y738632D01*
X1283208Y723138D02*
Y738632D01*
X1286256Y723138D02*
Y738632D01*
X1284732Y723138D02*
Y738632D01*
X1285494Y723138D02*
Y738632D01*
X1384554Y601842D02*
Y630684D01*
X1385316Y601912D02*
Y630712D01*
X1389126Y601892D02*
Y631381D01*
X1389888Y601812D02*
Y631626D01*
X1390142Y601780D02*
Y631716D01*
X1386078Y601958D02*
Y630775D01*
X1386840Y601979D02*
Y630873D01*
X1387229Y630936D02*
X1390142D01*
X1387602Y601974D02*
Y631005D01*
X1388364Y601945D02*
Y631174D01*
X1263396Y723138D02*
Y738632D01*
X1262634Y723138D02*
Y738632D01*
X1264920Y723138D02*
Y738632D01*
X1264158Y723138D02*
Y738632D01*
X1259586Y723138D02*
Y738632D01*
X1258824Y723138D02*
Y738632D01*
X1261872Y723138D02*
Y738632D01*
X1260348Y723138D02*
Y738632D01*
X1261110Y723138D02*
Y738632D01*
X1296924Y723138D02*
Y738632D01*
X1290828Y723138D02*
Y738632D01*
X1298448Y723138D02*
Y738632D01*
X1297686Y723138D02*
Y738632D01*
X1287780Y723138D02*
Y738632D01*
X1287018Y723138D02*
Y738632D01*
X1290066Y723138D02*
Y738632D01*
X1288542Y723138D02*
Y738632D01*
X1289304Y723138D02*
Y738632D01*
X1257300Y723138D02*
Y738679D01*
X1256538Y723138D02*
Y738754D01*
X1291590Y723138D02*
Y738632D01*
X1258062Y723138D02*
Y738640D01*
X1255014Y723138D02*
Y739008D01*
X1247394Y723138D02*
Y742816D01*
X1255776Y723138D02*
Y738863D01*
X1299210Y723138D02*
Y738632D01*
X1296162Y723138D02*
Y738632D01*
X1301496Y723138D02*
Y738632D01*
X1299972Y723138D02*
Y738632D01*
X1300734Y723138D02*
Y738632D01*
X1293114Y723138D02*
Y738632D01*
X1292352Y723138D02*
Y738632D01*
X1295400Y723138D02*
Y738632D01*
X1293876Y723138D02*
Y738632D01*
X1294638Y723138D02*
Y738632D01*
X1317498Y726885D02*
Y738632D01*
X1316736Y726123D02*
Y738632D01*
X1313751Y723138D02*
X1329245Y738632D01*
X1318260Y727647D02*
Y738632D01*
X1319784Y729171D02*
Y738632D01*
X1319022Y728409D02*
Y738632D01*
X1258570D02*
X1329245D01*
X1320546Y729933D02*
Y738632D01*
X1321308Y730695D02*
Y738632D01*
X1322832Y732219D02*
Y738632D01*
X1322070Y731457D02*
Y738632D01*
X1324356Y733743D02*
Y738632D01*
X1323594Y732981D02*
Y738632D01*
X1325880Y735267D02*
Y738632D01*
X1325118Y734505D02*
Y738632D01*
X1328166Y737553D02*
Y738632D01*
X1326642Y736029D02*
Y738632D01*
X1327404Y736791D02*
Y738632D01*
X1306830Y723138D02*
Y738632D01*
X1306068Y723138D02*
Y738632D01*
X1308354Y723138D02*
Y738632D01*
X1307592Y723138D02*
Y738632D01*
X1303020Y723138D02*
Y738632D01*
X1302258Y723138D02*
Y738632D01*
X1305306Y723138D02*
Y738632D01*
X1303782Y723138D02*
Y738632D01*
X1304544Y723138D02*
Y738632D01*
X1309878Y723138D02*
Y738632D01*
X1309116Y723138D02*
Y738632D01*
X1312164Y723138D02*
Y738632D01*
X1310640Y723138D02*
Y738632D01*
X1311402Y723138D02*
Y738632D01*
X1313688Y723138D02*
Y738632D01*
X1312926Y723138D02*
Y738632D01*
X1315974Y725361D02*
Y738632D01*
X1314450Y723837D02*
Y738632D01*
X1315212Y724599D02*
Y738632D01*
X1027835Y753618D02*
X1042265D01*
X994953Y775716D02*
X1082270D01*
X994552Y774192D02*
X1084003D01*
X994766Y774954D02*
X1083093D01*
X995444Y778764D02*
X1079631D01*
X995505Y779526D02*
X1079101D01*
X995114Y776478D02*
X1081521D01*
X995249Y777240D02*
X1080835D01*
X995359Y778002D02*
X1080207D01*
X1055819Y752856D02*
X1065081D01*
X1081278Y752835D02*
Y776740D01*
X1082802Y752227D02*
Y775216D01*
X1082040Y752546D02*
Y775943D01*
X1030419Y752856D02*
X1039681D01*
X1053235Y753618D02*
X1067665D01*
X1080516Y753095D02*
Y777619D01*
X1078992Y753531D02*
Y779691D01*
X1079754Y753327D02*
Y778596D01*
X995541Y781812D02*
X1077759D01*
X1071372Y754187D02*
Y987754D01*
X995541Y780288D02*
X1078615D01*
X995553Y781050D02*
X1078168D01*
X995249Y784860D02*
X1076459D01*
X995114Y785622D02*
X1076211D01*
X995505Y782574D02*
X1077385D01*
X995359Y784098D02*
X1076737D01*
X995444Y783336D02*
X1077045D01*
X1076706Y753988D02*
Y784179D01*
X1075944Y754090D02*
Y786561D01*
X1078230Y753709D02*
Y780940D01*
X1077468Y753861D02*
Y782400D01*
X1072896Y754252D02*
Y986121D01*
X1072134Y754231D02*
Y986899D01*
X1075182Y754167D02*
Y792480D01*
X1073658Y754248D02*
Y985409D01*
X1074420Y754219D02*
Y984756D01*
X1081219Y752856D02*
X1090481D01*
X1078635Y753618D02*
X1093065D01*
X1094994Y753988D02*
Y769384D01*
X1094232Y753861D02*
Y769514D01*
X1095756Y754090D02*
Y769280D01*
X992657Y769620D02*
X1093704D01*
X1098042Y754248D02*
Y769118D01*
X1096518Y754167D02*
Y769201D01*
X1097280Y754219D02*
Y769146D01*
X1102614Y753906D02*
Y769468D01*
X1103376Y753763D02*
Y769616D01*
X1106619Y752856D02*
X1115881D01*
X1104035Y753618D02*
X1118465D01*
X1098804Y754252D02*
Y769113D01*
X1099566Y754231D02*
Y769134D01*
X1100328Y754187D02*
Y769180D01*
X1101090Y754118D02*
Y769250D01*
X1101852Y754025D02*
Y769346D01*
X1089660Y752546D02*
Y770869D01*
X1088898Y752227D02*
Y771199D01*
X1090422Y752835D02*
Y770571D01*
X994042Y772668D02*
X1086159D01*
X994311Y773430D02*
X1085016D01*
X993052Y770382D02*
X1090951D01*
X993414Y771144D02*
X1089019D01*
X993743Y771906D02*
X1087470D01*
X1105662Y753175D02*
Y770221D01*
X1091184Y753095D02*
Y770303D01*
X1106424Y752925D02*
Y770479D01*
X1107186Y752646D02*
Y770766D01*
X1107948Y752337D02*
Y771085D01*
X1092708Y753531D02*
Y769854D01*
X1091946Y753327D02*
Y770065D01*
X1093470Y753709D02*
Y769671D01*
X1104138Y753594D02*
Y769790D01*
X1104900Y753398D02*
Y769991D01*
X993052Y791718D02*
X1075194D01*
X992657Y792480D02*
X1075182D01*
X992226Y793242D02*
X1075194D01*
X991757Y794004D02*
X1075232D01*
X991248Y794766D02*
X1075294D01*
X990695Y795528D02*
X1075382D01*
X990094Y796290D02*
X1075495D01*
X988729Y797814D02*
X1075799D01*
X989441Y797052D02*
X1075634D01*
X994552Y787908D02*
X1075634D01*
X994311Y788670D02*
X1075495D01*
X994953Y786384D02*
X1075991D01*
X994766Y787146D02*
X1075799D01*
X993743Y790194D02*
X1075294D01*
X993414Y790956D02*
X1075232D01*
X994042Y789432D02*
X1075382D01*
X1088898Y813762D02*
Y979309D01*
X1089660Y814091D02*
Y979297D01*
X1075944Y798399D02*
Y983602D01*
X1075182Y792480D02*
Y984155D01*
X1077468Y802560D02*
Y982624D01*
X1076706Y800781D02*
Y983093D01*
X1078992Y805269D02*
Y981798D01*
X1078230Y804020D02*
Y982193D01*
X1081278Y808220D02*
Y980808D01*
X1079754Y806364D02*
Y981436D01*
X1080516Y807341D02*
Y981107D01*
X1082802Y809744D02*
Y980298D01*
X1082040Y809017D02*
Y980539D01*
X1084326Y811020D02*
Y979897D01*
X1083564Y810410D02*
Y980084D01*
X1085850Y812096D02*
Y979601D01*
X1085088Y811581D02*
Y979736D01*
X1088136Y813399D02*
Y979345D01*
X1086612Y812569D02*
Y979491D01*
X1087374Y813002D02*
Y979406D01*
X1090422Y814389D02*
Y979309D01*
X1091184Y814657D02*
Y979345D01*
X1091946Y814895D02*
Y979406D01*
X1092708Y815106D02*
Y979491D01*
X1093470Y815289D02*
Y979601D01*
X1094232Y815446D02*
Y979736D01*
X1094994Y815576D02*
Y979897D01*
X1095145Y979932D02*
X1109575D01*
X1095756Y815680D02*
Y980084D01*
X1109472Y836477D02*
Y979957D01*
X1108710Y835849D02*
Y980152D01*
X1110234Y837053D02*
Y979787D01*
X1111758Y838069D02*
Y979525D01*
X1110996Y837583D02*
Y979643D01*
X1114044Y839298D02*
Y979318D01*
X1112520Y838516D02*
Y979432D01*
X1113282Y838925D02*
Y979363D01*
X1096518Y815760D02*
Y980298D01*
X1097280Y815814D02*
Y980539D01*
X1099566Y815826D02*
Y981436D01*
X1100328Y815780D02*
Y981798D01*
X1098042Y815843D02*
Y980808D01*
X1098804Y815847D02*
Y981107D01*
X1097729Y980694D02*
X1106991D01*
X1099609Y981456D02*
X1105111D01*
X1101090Y822980D02*
Y982193D01*
X1101852Y825733D02*
Y982624D01*
X1102614Y827665D02*
Y982776D01*
X1104900Y831668D02*
Y981553D01*
X1103376Y829214D02*
Y982333D01*
X1104138Y830525D02*
Y981926D01*
X1105662Y832681D02*
Y981213D01*
X1101136Y982218D02*
X1103584D01*
X1107948Y835163D02*
Y980375D01*
X1106424Y833590D02*
Y980904D01*
X1107186Y834414D02*
Y980625D01*
X1115568Y752742D02*
Y775462D01*
X1114806Y752443D02*
Y775462D01*
X1117092Y753252D02*
Y775462D01*
X1116330Y753011D02*
Y775462D01*
X1118616Y753653D02*
Y775462D01*
X1117854Y753466D02*
Y775462D01*
X1128522Y753814D02*
Y775462D01*
X1120140Y753949D02*
Y775462D01*
X1127760Y753949D02*
Y775462D01*
X1133094Y752443D02*
Y775462D01*
X1132332Y752742D02*
Y775462D01*
X1132019Y752856D02*
X1141281D01*
X1133856Y752114D02*
Y775462D01*
X1130046Y753466D02*
Y775462D01*
X1129284Y753653D02*
Y775462D01*
X1129435Y753618D02*
X1143865D01*
X1130808Y753252D02*
Y775462D01*
X1131570Y753011D02*
Y775462D01*
X1140714Y752646D02*
Y775462D01*
X1139952Y752337D02*
Y775462D01*
X1142238Y753175D02*
Y775462D01*
X1141476Y752925D02*
Y775462D01*
X1143000Y753398D02*
Y775462D01*
X1119378Y753814D02*
Y775462D01*
X1145286Y753906D02*
Y775462D01*
X1143762Y753594D02*
Y775462D01*
X1144524Y753763D02*
Y775462D01*
X1156716Y753095D02*
Y775462D01*
X1155954Y753327D02*
Y775462D01*
X1158240Y752546D02*
Y775462D01*
X1157478Y752835D02*
Y775462D01*
X1152906Y753988D02*
Y775462D01*
X1146048Y754025D02*
Y775462D01*
X1155192Y753531D02*
Y775462D01*
X1153668Y753861D02*
Y775462D01*
X1154430Y753709D02*
Y775462D01*
X1165098Y752227D02*
Y775462D01*
X1159002Y752227D02*
Y775462D01*
X1157419Y752856D02*
X1166681D01*
X1166622Y752835D02*
Y775462D01*
X1168146Y753327D02*
Y775462D01*
X1167384Y753095D02*
Y775462D01*
X1154835Y753618D02*
X1169265D01*
X1168908Y753531D02*
Y775462D01*
X1169670Y753709D02*
Y775462D01*
X1181100Y753398D02*
Y775462D01*
X1180338Y753594D02*
Y775462D01*
X1182819Y752856D02*
X1192081D01*
X1180235Y753618D02*
X1194665D01*
X1171194Y753988D02*
Y775462D01*
X1170432Y753861D02*
Y775462D01*
X1179576Y753763D02*
Y775462D01*
X1178052Y754025D02*
Y775462D01*
X1178814Y753906D02*
Y775462D01*
X1183386Y752646D02*
Y775462D01*
X1165860Y752546D02*
Y775462D01*
X1191006Y752443D02*
Y775462D01*
X1184148Y752337D02*
Y775462D01*
X1182624Y752925D02*
Y775462D01*
X1181862Y753175D02*
Y775462D01*
X1193292Y753252D02*
Y775462D01*
X1191768Y752742D02*
Y775462D01*
X1192530Y753011D02*
Y775462D01*
X1194816Y753653D02*
Y775462D01*
X1194054Y753466D02*
Y775462D01*
X1206246Y753466D02*
Y775462D01*
X1204722Y753814D02*
Y775462D01*
X1205484Y753653D02*
Y775462D01*
X1196340Y753949D02*
Y775462D01*
X1195578Y753814D02*
Y775462D01*
X1203960Y753949D02*
Y775462D01*
X1197102Y754059D02*
Y775462D01*
X1203198Y754059D02*
Y775462D01*
X1120902Y754059D02*
Y775462D01*
X1114806Y839639D02*
Y979298D01*
X1122426Y754205D02*
Y775462D01*
X1121664Y754144D02*
Y775462D01*
X1115568Y839947D02*
Y979302D01*
X1116330Y840225D02*
Y979331D01*
X1117092Y840473D02*
Y979383D01*
X1117854Y840693D02*
Y979460D01*
X1118616Y840885D02*
Y979562D01*
X1126998Y754059D02*
Y775462D01*
X1126236Y754144D02*
Y775462D01*
X1147572Y754187D02*
Y775462D01*
X1146810Y754118D02*
Y775462D01*
X1123950Y754253D02*
Y775462D01*
X1123188Y754241D02*
Y775462D01*
X1148334Y754231D02*
Y775462D01*
X1124712Y754241D02*
Y775462D01*
X1125474Y754205D02*
Y775462D01*
X1119378Y841050D02*
Y979689D01*
X1120140Y841189D02*
Y979841D01*
X1120902Y841302D02*
Y980019D01*
X1121664Y841390D02*
Y980223D01*
X1122426Y841452D02*
Y980455D01*
X1123188Y841490D02*
Y980715D01*
X1123950Y841502D02*
Y981004D01*
X1124712Y841490D02*
Y981323D01*
X1125474Y841452D02*
Y981674D01*
X1126236Y844430D02*
Y982058D01*
X1126998Y847810D02*
Y982476D01*
X1127760Y849935D02*
Y982932D01*
X1128522Y851589D02*
Y983427D01*
X1129284Y852970D02*
Y983966D01*
X1130046Y854163D02*
Y984550D01*
X1130808Y855216D02*
Y985185D01*
X1131570Y856158D02*
Y985877D01*
X1132332Y857008D02*
Y986632D01*
X1133094Y857781D02*
Y987460D01*
X1152144Y754090D02*
Y775462D01*
X1151382Y754167D02*
Y775462D01*
X1172718Y754167D02*
Y775462D01*
X1171956Y754090D02*
Y775462D01*
X1149858Y754248D02*
Y775462D01*
X1149096Y754252D02*
Y775462D01*
X1174242Y754248D02*
Y775462D01*
X1150620Y754219D02*
Y775462D01*
X1173480Y754219D02*
Y775462D01*
X1177290Y754118D02*
Y775462D01*
X1176528Y754187D02*
Y775462D01*
X1198626Y754205D02*
Y775462D01*
X1197864Y754144D02*
Y775462D01*
X1175766Y754231D02*
Y775462D01*
X1175004Y754252D02*
Y775462D01*
X1200912Y754241D02*
Y775462D01*
X1199388Y754241D02*
Y775462D01*
X1200150Y754253D02*
Y775462D01*
X1120545Y979932D02*
X1202817D01*
X1123129Y980694D02*
X1202817D01*
X1125009Y981456D02*
X1202817D01*
X1129988Y984504D02*
X1202817D01*
X1130900Y985266D02*
X1202817D01*
X1126536Y982218D02*
X1202817D01*
X1127837Y982980D02*
X1202817D01*
X1128975Y983742D02*
X1202817D01*
X1202436Y754144D02*
Y775462D01*
X1201674Y754205D02*
Y775462D01*
X1205484Y858012D02*
Y953897D01*
X1203960Y858012D02*
Y953897D01*
X1204722Y858012D02*
Y953897D01*
X1133175Y987552D02*
X1202817D01*
X1133810Y988314D02*
X1202817D01*
X1203198Y858012D02*
Y953897D01*
X1131728Y986028D02*
X1202817D01*
X1132483Y986790D02*
X1202817D01*
X1019556Y754090D02*
Y1057529D01*
X1018794Y753988D02*
Y1057529D01*
X1024890Y754118D02*
Y1057529D01*
X1020318Y754167D02*
Y1057529D01*
X1021842Y754248D02*
Y1057529D01*
X1021080Y754219D02*
Y1057529D01*
X1024128Y754187D02*
Y1057529D01*
X1022604Y754252D02*
Y1057529D01*
X1023366Y754231D02*
Y1057529D01*
X1030224Y752925D02*
Y1057529D01*
X1029462Y753175D02*
Y1057529D01*
X1031748Y752337D02*
Y1057529D01*
X1030986Y752646D02*
Y1057529D01*
X1026414Y753906D02*
Y1057529D01*
X1025652Y754025D02*
Y1057529D01*
X1028700Y753398D02*
Y1057529D01*
X1027176Y753763D02*
Y1057529D01*
X1027938Y753594D02*
Y1057529D01*
X992886Y792046D02*
Y1057529D01*
X992124Y793413D02*
Y1057529D01*
X994410Y788369D02*
Y1057529D01*
X993648Y790421D02*
Y1057529D01*
X989076Y797451D02*
Y1057529D01*
X988314Y798229D02*
Y1057529D01*
X991362Y794601D02*
Y1057529D01*
X989838Y796597D02*
Y1057529D01*
X990600Y795653D02*
Y1057529D01*
X1013460Y752546D02*
Y1057529D01*
X1012698Y752227D02*
Y1057529D01*
X1014984Y753095D02*
Y1057529D01*
X1014222Y752835D02*
Y1057529D01*
X1015746Y753327D02*
Y1057529D01*
X995172Y785310D02*
Y1057529D01*
X1018032Y753861D02*
Y1057529D01*
X1016508Y753531D02*
Y1057529D01*
X1017270Y753709D02*
Y1057529D01*
X1057656Y752114D02*
Y1005623D01*
X1056894Y752443D02*
Y1005855D01*
X1064514Y752646D02*
Y1004698D01*
X1063752Y752337D02*
Y1004702D01*
X1053846Y753466D02*
Y1007074D01*
X1053084Y753653D02*
Y1007458D01*
X1056132Y752742D02*
Y1006115D01*
X1054608Y753252D02*
Y1006723D01*
X1055370Y753011D02*
Y1006404D01*
X1066038Y753175D02*
Y999040D01*
X1065276Y752925D02*
Y1004718D01*
X1067562Y753594D02*
Y993929D01*
X1066800Y753398D02*
Y995981D01*
X1069086Y753906D02*
Y990937D01*
X1068324Y753763D02*
Y992304D01*
X1070610Y754118D02*
Y988697D01*
X1069848Y754025D02*
Y989749D01*
X1039368Y752742D02*
Y1057529D01*
X1038606Y752443D02*
Y1057529D01*
X1040892Y753252D02*
Y1023215D01*
X1040130Y753011D02*
Y1057529D01*
X1042416Y753653D02*
Y1018751D01*
X1041654Y753466D02*
Y1020631D01*
X1044702Y754059D02*
Y1014785D01*
X1043178Y753814D02*
Y1017224D01*
X1043940Y753949D02*
Y1015923D01*
X1050036Y754144D02*
Y1009365D01*
X1045464Y754144D02*
Y1013772D01*
X1052322Y753814D02*
Y1007876D01*
X1050798Y754059D02*
Y1008827D01*
X1051560Y753949D02*
Y1008332D01*
X1046988Y754241D02*
Y1012032D01*
X1046226Y754205D02*
Y1012860D01*
X1049274Y754205D02*
Y1009950D01*
X1047750Y754253D02*
Y1011277D01*
X1048512Y754241D02*
Y1010585D01*
X1055370Y1050996D02*
Y1057529D01*
X1054608Y1050677D02*
Y1057529D01*
X1056894Y1051545D02*
Y1057529D01*
X1056132Y1051285D02*
Y1057529D01*
X1058418Y1051981D02*
Y1057529D01*
X1057656Y1051777D02*
Y1057529D01*
X1060704Y1052438D02*
Y1057529D01*
X1059180Y1052159D02*
Y1057529D01*
X1059942Y1052311D02*
Y1057529D01*
X1062228Y1052617D02*
Y1057529D01*
X1061466Y1052540D02*
Y1057529D01*
X1067562Y1052475D02*
Y1057529D01*
X1066800Y1052568D02*
Y1057529D01*
X1063752Y1052698D02*
Y1057529D01*
X1062990Y1052669D02*
Y1057529D01*
X1066038Y1052637D02*
Y1057529D01*
X1064514Y1052702D02*
Y1057529D01*
X1065276Y1052682D02*
Y1057529D01*
X1041654Y1036769D02*
Y1057529D01*
X1040892Y1034185D02*
Y1057529D01*
X1043178Y1040176D02*
Y1057529D01*
X1042416Y1038649D02*
Y1057529D01*
X1044702Y1042615D02*
Y1057529D01*
X1043940Y1041477D02*
Y1057529D01*
X1046988Y1045368D02*
Y1057529D01*
X1045464Y1043628D02*
Y1057529D01*
X1046226Y1044540D02*
Y1057529D01*
X1048512Y1046815D02*
Y1057529D01*
X1047750Y1046123D02*
Y1057529D01*
X1050036Y1048035D02*
Y1057529D01*
X1049274Y1047450D02*
Y1057529D01*
X1051560Y1049068D02*
Y1057529D01*
X1050798Y1048573D02*
Y1057529D01*
X1053846Y1050326D02*
Y1057529D01*
X1052322Y1049524D02*
Y1057529D01*
X1053084Y1049942D02*
Y1057529D01*
X1072896Y1051096D02*
Y1057529D01*
X1073631Y1050798D02*
X1080289D01*
X1071579Y1051560D02*
X1082341D01*
X1069086Y1052213D02*
Y1057529D01*
X1068324Y1052356D02*
Y1057529D01*
X1068520Y1052322D02*
X1085400D01*
X1069848Y1052044D02*
Y1057529D01*
X1070610Y1051848D02*
Y1057529D01*
X1076706Y1049224D02*
Y1057529D01*
X1075944Y1049667D02*
Y1057529D01*
X1077468Y1049376D02*
Y1057529D01*
X1074420Y1050447D02*
Y1057529D01*
X1073658Y1050787D02*
Y1057529D01*
X1075256Y1050036D02*
X1078664D01*
X1075182Y1050074D02*
Y1057529D01*
X1078230Y1049807D02*
Y1057529D01*
X1079754Y1050564D02*
Y1057529D01*
X1078992Y1050202D02*
Y1057529D01*
X1081278Y1051192D02*
Y1057529D01*
X1080516Y1050893D02*
Y1057529D01*
X1072134Y1051375D02*
Y1057529D01*
X1071372Y1051625D02*
Y1057529D01*
X1083564Y1051916D02*
Y1057529D01*
X1082040Y1051461D02*
Y1057529D01*
X1082802Y1051702D02*
Y1057529D01*
X1085088Y1052264D02*
Y1057529D01*
X1084326Y1052103D02*
Y1057529D01*
X1087374Y1052594D02*
Y1057529D01*
X1085850Y1052399D02*
Y1057529D01*
X1086612Y1052509D02*
Y1057529D01*
X1088898Y1052691D02*
Y1057529D01*
X1088136Y1052655D02*
Y1057529D01*
X1091184Y1052655D02*
Y1057529D01*
X1089660Y1052703D02*
Y1057529D01*
X1090422Y1052691D02*
Y1057529D01*
X1133856Y858487D02*
Y988372D01*
X1134618Y859133D02*
Y989385D01*
X1135380Y859726D02*
Y990523D01*
X1136142Y860271D02*
Y991824D01*
X1136904Y860772D02*
Y993351D01*
X1137666Y861231D02*
Y995231D01*
X1138428Y861653D02*
Y997815D01*
X1139190Y862038D02*
Y1004731D01*
X1139952Y862389D02*
Y1004702D01*
X1171194Y858012D02*
Y1005187D01*
X1170432Y858012D02*
Y1005357D01*
X1174242Y858012D02*
Y1004763D01*
X1171956Y858012D02*
Y1005043D01*
X1140714Y862708D02*
Y1004698D01*
X1141476Y862996D02*
Y1004718D01*
X1142238Y863253D02*
Y1004763D01*
X1172718Y858012D02*
Y1004925D01*
X1173480Y858012D02*
Y1004832D01*
X1161288Y861083D02*
Y1009750D01*
X1160526Y861516D02*
Y1010368D01*
X1162812Y860095D02*
Y1008658D01*
X1162050Y860610D02*
Y1009181D01*
X1156716Y863171D02*
Y1011040D01*
X1157478Y862903D02*
Y1011773D01*
X1159764Y861913D02*
Y1011040D01*
X1158240Y862605D02*
Y1012575D01*
X1159002Y862275D02*
Y1011773D01*
X1168146Y858012D02*
Y1006025D01*
X1167384Y858012D02*
Y1006304D01*
X1169670Y858012D02*
Y1005552D01*
X1168908Y858012D02*
Y1005775D01*
X1164336Y858924D02*
Y1007733D01*
X1163574Y859534D02*
Y1008176D01*
X1166622Y858012D02*
Y1006613D01*
X1165098Y858259D02*
Y1007326D01*
X1165860Y858012D02*
Y1006953D01*
X1178814Y858012D02*
Y1004860D01*
X1179576Y858012D02*
Y1004962D01*
X1180338Y858012D02*
Y1005089D01*
X1181100Y858012D02*
Y1005241D01*
X1175766Y858012D02*
Y1004698D01*
X1175004Y858012D02*
Y1004718D01*
X1176528Y858012D02*
Y1004702D01*
X1177290Y858012D02*
Y1004731D01*
X1178052Y858012D02*
Y1004783D01*
X1200912Y858012D02*
Y1004702D01*
X1200150Y858012D02*
Y1004731D01*
X1201674Y858012D02*
Y1004698D01*
X1202436Y858012D02*
Y1004718D01*
X1197102Y858012D02*
Y1005089D01*
X1196340Y858012D02*
Y1005241D01*
X1199388Y858012D02*
Y1004783D01*
X1197864Y858012D02*
Y1004962D01*
X1198626Y858012D02*
Y1004860D01*
X1185672Y858012D02*
Y1006723D01*
X1186434Y858012D02*
Y1007074D01*
X1187196Y858012D02*
Y1007458D01*
X1187958Y858012D02*
Y1007876D01*
X1181862Y858012D02*
Y1005419D01*
X1182624Y858012D02*
Y1005623D01*
X1183386Y858012D02*
Y1005855D01*
X1184148Y858012D02*
Y1006115D01*
X1184910Y858012D02*
Y1006404D01*
X1193292Y858012D02*
Y1006115D01*
X1192530Y858012D02*
Y1006404D01*
X1195578Y858012D02*
Y1005419D01*
X1194054Y858012D02*
Y1005855D01*
X1194816Y858012D02*
Y1005623D01*
X1189482Y858012D02*
Y1007876D01*
X1188720Y858012D02*
Y1008332D01*
X1191768Y858012D02*
Y1006723D01*
X1190244Y858012D02*
Y1007458D01*
X1191006Y858012D02*
Y1007074D01*
X1143000Y863483D02*
Y1004832D01*
X1143762Y863684D02*
Y1004925D01*
X1144524Y863858D02*
Y1005043D01*
X1145286Y864006D02*
Y1005187D01*
X1146048Y864128D02*
Y1005357D01*
X1146810Y864223D02*
Y1005552D01*
X1147572Y864294D02*
Y1005775D01*
X1152144Y864194D02*
Y1007733D01*
X1152906Y864090D02*
Y1008176D01*
X1153668Y863960D02*
Y1008658D01*
X1154430Y863803D02*
Y1009181D01*
X1148334Y864340D02*
Y1006025D01*
X1149096Y864361D02*
Y1006304D01*
X1149858Y864357D02*
Y1006613D01*
X1150620Y864327D02*
Y1006953D01*
X1151382Y864274D02*
Y1007326D01*
X1095756Y1051916D02*
Y1057529D01*
X1094994Y1052103D02*
Y1057529D01*
X1096979Y1051560D02*
X1098042D01*
X1096518Y1051702D02*
Y1057529D01*
X1092708Y1052509D02*
Y1057529D01*
X1091946Y1052594D02*
Y1057529D01*
X1093920Y1052322D02*
X1098059D01*
X1093470Y1052399D02*
Y1057529D01*
X1094232Y1052264D02*
Y1057529D01*
X1155192Y863620D02*
Y1009750D01*
X1155954Y863409D02*
Y1010368D01*
X1156861Y1011174D02*
X1159619D01*
X1157639Y1011936D02*
X1158841D01*
X1098042Y1051560D02*
Y1057529D01*
X1097280Y1051461D02*
Y1057529D01*
X1098804Y1056595D02*
Y1057529D01*
X1135428Y990600D02*
X1202817D01*
X1135884Y991362D02*
X1202817D01*
X1134395Y989076D02*
X1202817D01*
X1134933Y989838D02*
X1202817D01*
X1137356Y994410D02*
X1202817D01*
X1137645Y995172D02*
X1202817D01*
X1136302Y992124D02*
X1202817D01*
X1136686Y992886D02*
X1202817D01*
X1137037Y993648D02*
X1202817D01*
X1138137Y996696D02*
X1202817D01*
X1138341Y997458D02*
X1202817D01*
X1137905Y995934D02*
X1202817D01*
Y953897D02*
Y1001903D01*
X1138900Y1000506D02*
X1202817D01*
X1138977Y1001268D02*
X1202817D01*
X1138519Y998220D02*
X1202817D01*
X1138671Y998982D02*
X1202817D01*
X1138798Y999744D02*
X1202817D01*
X1139029Y1002030D02*
X1203486D01*
X1139058Y1002792D02*
X1203540D01*
X1139062Y1003554D02*
X1203620D01*
X1139042Y1004316D02*
X1203724D01*
X1151456Y1007364D02*
X1165024D01*
X1152823Y1008126D02*
X1163657D01*
X1144720Y1005078D02*
X1171760D01*
X1147779Y1005840D02*
X1168701D01*
X1149831Y1006602D02*
X1166649D01*
X1183339Y1005840D02*
X1194101D01*
X1180280Y1005078D02*
X1197160D01*
X1155063Y1009650D02*
X1161417D01*
X1156006Y1010412D02*
X1160473D01*
X1185391Y1006602D02*
X1192049D01*
X1154011Y1008888D02*
X1162469D01*
X1187016Y1007364D02*
X1190424D01*
X989441Y765048D02*
X1225105D01*
X990094Y765810D02*
X1224343D01*
X987951Y763524D02*
X1226629D01*
X988729Y764286D02*
X1225867D01*
X992226Y768858D02*
X1221295D01*
X1103396Y769620D02*
X1220533D01*
X990695Y766572D02*
X1223581D01*
X991248Y767334D02*
X1222819D01*
X991757Y768096D02*
X1222057D01*
X1106149Y770382D02*
X1219771D01*
X1108081Y771144D02*
X1219009D01*
X1208219Y752856D02*
X1237297D01*
X1205635Y753618D02*
X1236535D01*
X1113097Y774192D02*
X1215961D01*
X1114007Y774954D02*
X1215199D01*
X1109630Y771906D02*
X1218247D01*
X1110941Y772668D02*
X1217485D01*
X1112084Y773430D02*
X1216723D01*
X1207770Y753011D02*
Y775462D01*
X1207008Y753252D02*
Y775462D01*
X1209294Y752443D02*
Y775462D01*
X1208532Y752742D02*
Y775462D01*
X1114564D02*
X1214691D01*
X1240536Y848551D02*
Y953897D01*
X1242822Y846265D02*
Y953897D01*
X1241298Y847789D02*
Y953897D01*
X1242060Y847027D02*
Y953897D01*
X1248156Y840931D02*
Y953897D01*
X1247394Y841693D02*
Y953897D01*
X1249680Y839407D02*
Y953897D01*
X1248918Y840169D02*
Y953897D01*
X1244346Y844741D02*
Y953897D01*
X1243584Y845503D02*
Y953897D01*
X1246632Y842455D02*
Y953897D01*
X1245108Y843979D02*
Y953897D01*
X1245870Y843217D02*
Y953897D01*
X1251649Y837438D02*
X1291107D01*
X1250887Y838200D02*
X1291302D01*
X1250125Y838962D02*
X1291525D01*
X1249363Y839724D02*
X1291775D01*
X1248601Y840486D02*
X1292054D01*
X1247839Y841248D02*
X1292363D01*
X1247077Y842010D02*
X1292703D01*
X1245553Y843534D02*
X1293483D01*
X1246315Y842772D02*
X1293076D01*
X1257745Y831342D02*
X1290452D01*
X1256983Y832104D02*
X1290448D01*
X1258507Y830580D02*
X1290481D01*
X1256221Y832866D02*
X1290468D01*
X1255459Y833628D02*
X1290513D01*
X1254697Y834390D02*
X1290582D01*
X1253935Y835152D02*
X1290675D01*
X1252411Y836676D02*
X1290937D01*
X1253173Y835914D02*
X1290793D01*
X1236060Y853028D02*
X1290447Y798640D01*
X1250442Y838645D02*
Y953897D01*
X1244791Y844296D02*
X1293926D01*
X1244029Y845058D02*
X1293774D01*
X1240981Y848106D02*
X1292257D01*
X1240219Y848868D02*
X1291958D01*
X1243267Y845820D02*
X1293343D01*
X1241743Y847344D02*
X1292586D01*
X1242505Y846582D02*
X1292948D01*
X1255776Y833311D02*
Y953897D01*
X1255014Y834073D02*
Y953897D01*
X1258062Y831025D02*
Y953897D01*
X1256538Y832549D02*
Y953897D01*
X1257300Y831787D02*
Y953897D01*
X1251966Y837121D02*
Y953897D01*
X1251204Y837883D02*
Y953897D01*
X1254252Y834835D02*
Y953897D01*
X1252728Y836359D02*
Y953897D01*
X1253490Y835597D02*
Y953897D01*
X1209294Y858012D02*
Y953897D01*
X1208532Y858012D02*
Y953897D01*
X1211580Y858012D02*
Y953897D01*
X1210056Y858012D02*
Y953897D01*
X1207008Y858012D02*
Y953897D01*
X1206246Y858012D02*
Y953897D01*
X1165364Y858012D02*
X1224026D01*
X1165364D02*
X1224026D01*
X1207770D02*
Y953897D01*
X1216914Y858012D02*
Y953897D01*
X1216152Y858012D02*
Y953897D01*
X1218438Y858012D02*
Y953897D01*
X1217676Y858012D02*
Y953897D01*
X1213104Y858012D02*
Y953897D01*
X1212342Y858012D02*
Y953897D01*
X1215390Y858012D02*
Y953897D01*
X1213866Y858012D02*
Y953897D01*
X1214628Y858012D02*
Y953897D01*
X1222248Y858012D02*
Y953897D01*
X1221486Y858012D02*
Y953897D01*
X1223772Y858012D02*
Y953897D01*
X1223010Y858012D02*
Y953897D01*
X1219200Y858012D02*
Y953897D01*
X1210818Y858012D02*
Y953897D01*
X1202817D02*
X1228217D01*
X1219962Y858012D02*
Y953897D01*
X1220724Y858012D02*
Y953897D01*
X1229106Y857236D02*
Y953897D01*
X1228344Y857455D02*
Y953897D01*
X1230630Y856678D02*
Y953897D01*
X1229868Y856978D02*
Y953897D01*
X1225296Y857965D02*
Y953897D01*
X1224534Y858004D02*
Y953897D01*
X1227582Y857636D02*
Y953897D01*
X1226058Y857890D02*
Y953897D01*
X1226820Y857781D02*
Y953897D01*
X1231065Y856488D02*
X1290459D01*
X1229061Y857250D02*
X1290447D01*
X1224026Y858012D02*
X1290459D01*
X1164514Y858774D02*
X1290495D01*
X1163572Y859536D02*
X1290556D01*
X1161326Y861060D02*
X1290751D01*
X1162519Y860298D02*
X1290641D01*
X1237933Y851154D02*
X1291234D01*
X1237171Y851916D02*
X1291047D01*
X1239457Y849630D02*
X1291689D01*
X1238695Y850392D02*
X1291448D01*
X1233745Y854964D02*
X1290556D01*
X1232545Y855726D02*
X1290495D01*
X1236409Y852678D02*
X1290886D01*
X1234757Y854202D02*
X1290641D01*
X1235632Y853440D02*
X1290751D01*
X1232154Y855946D02*
Y953897D01*
X1231392Y856335D02*
Y953897D01*
X1159945Y861822D02*
X1290886D01*
X1232916Y855505D02*
Y953897D01*
X1228217D02*
X1250823D01*
X1228217D02*
X1250823D01*
X1158291Y862584D02*
X1291047D01*
X1152786Y864108D02*
X1291448D01*
X1156165Y863346D02*
X1291234D01*
X1237488Y851599D02*
Y953897D01*
X1236726Y852361D02*
Y953897D01*
X1239774Y849313D02*
Y953897D01*
X1238250Y850837D02*
Y953897D01*
X1239012Y850075D02*
Y953897D01*
X1234440Y854454D02*
Y953897D01*
X1233678Y855010D02*
Y953897D01*
X1250823D02*
X1276223D01*
X1235202Y853828D02*
Y953897D01*
X1235964Y853122D02*
Y953897D01*
X1275271Y813816D02*
X1290447D01*
X1274509Y814578D02*
X1290447D01*
X1276795Y812292D02*
X1290447D01*
X1276033Y813054D02*
X1290447D01*
X1264158Y824929D02*
Y953897D01*
X1263396Y825691D02*
Y953897D01*
X1266444Y822643D02*
Y953897D01*
X1264920Y824167D02*
Y953897D01*
X1265682Y823405D02*
Y953897D01*
X1285939Y803148D02*
X1290447D01*
X1285177Y803910D02*
X1290447D01*
X1287463Y801624D02*
X1290447D01*
X1286701Y802386D02*
X1290447D01*
X1282129Y806958D02*
X1290447D01*
X1277557Y811530D02*
X1290447D01*
X1284415Y804672D02*
X1290447D01*
X1282891Y806196D02*
X1290447D01*
X1283653Y805434D02*
X1290447D01*
X1267206Y821881D02*
Y953897D01*
X1262634Y826453D02*
Y953897D01*
X1268730Y820357D02*
Y953897D01*
X1267968Y821119D02*
Y953897D01*
X1259586Y829501D02*
Y953897D01*
X1258824Y830263D02*
Y953897D01*
X1261872Y827215D02*
Y953897D01*
X1260348Y828739D02*
Y953897D01*
X1261110Y827977D02*
Y953897D01*
X1274064Y815023D02*
Y953897D01*
X1273302Y815785D02*
Y953897D01*
X1275588Y813499D02*
Y953897D01*
X1274826Y814261D02*
Y953897D01*
X1270254Y818833D02*
Y953897D01*
X1269492Y819595D02*
Y953897D01*
X1272540Y816547D02*
Y953897D01*
X1271016Y818071D02*
Y953897D01*
X1271778Y817309D02*
Y953897D01*
X1273747Y815340D02*
X1290447D01*
X1272985Y816102D02*
X1290447D01*
X1279081Y810006D02*
X1290447D01*
X1278319Y810768D02*
X1290447D01*
X1269937Y819150D02*
X1290447D01*
X1269175Y819912D02*
X1290447D01*
X1272223Y816864D02*
X1290447D01*
X1270699Y818388D02*
X1290447D01*
X1271461Y817626D02*
X1290447D01*
X1288987Y800100D02*
X1290447D01*
X1288225Y800862D02*
X1290447D01*
X1338453Y807530D02*
X1339409Y808486D01*
X1338453Y807530D02*
Y808524D01*
X1281367Y807720D02*
X1290447D01*
X1280605Y808482D02*
X1290447D01*
X1338453D02*
X1339405D01*
X1279843Y809244D02*
X1290447D01*
X1263841Y825246D02*
X1290447D01*
X1263079Y826008D02*
X1290447D01*
X1265365Y823722D02*
X1290447D01*
X1264603Y824484D02*
X1290447D01*
X1260031Y829056D02*
X1290447D01*
X1259269Y829818D02*
X1290447D01*
X1262317Y826770D02*
X1290447D01*
X1260793Y828294D02*
X1290447D01*
X1261555Y827532D02*
X1290447D01*
X1266889Y822198D02*
X1290447D01*
X1266127Y822960D02*
X1290447D01*
X1268413Y820674D02*
X1290447D01*
X1267651Y821436D02*
X1290447D01*
Y798640D02*
Y830453D01*
X1291590Y839169D02*
Y849931D01*
X1290828Y836110D02*
Y852990D01*
X1292352Y841221D02*
Y847879D01*
X1293114Y842846D02*
Y846254D01*
X1325446Y878586D02*
X1329049D01*
X1323821Y879348D02*
X1330981D01*
X1321769Y880110D02*
X1333734D01*
X1318710Y880872D02*
X1341313D01*
X1341882Y888135D02*
Y902565D01*
X1342644Y890719D02*
Y899981D01*
Y916119D02*
Y925381D01*
X1344168Y894126D02*
Y896574D01*
X1343406Y892599D02*
Y898101D01*
X1344168Y919526D02*
Y921974D01*
X1343406Y917999D02*
Y923501D01*
X1388110Y925068D02*
X1390142D01*
X1341882Y913535D02*
Y927965D01*
X1276223Y954024D02*
X1341247D01*
X1276223Y957072D02*
X1341247D01*
X1276223Y957834D02*
X1341247D01*
X1276223Y954786D02*
X1341247D01*
X1276223Y956310D02*
X1341247D01*
X1276223Y955548D02*
X1341247D01*
X1388364Y925066D02*
Y926978D01*
X1389126Y925038D02*
Y930984D01*
X1388011Y925830D02*
X1390142D01*
X1388814Y928878D02*
X1390142D01*
X1388949Y929640D02*
X1390142D01*
X1389241Y932688D02*
X1390142D01*
X1389059Y930402D02*
X1390142D01*
X1389144Y931164D02*
X1390142D01*
X1389205Y931926D02*
X1390142D01*
X1388653Y928116D02*
X1390142D01*
X1389253Y933450D02*
X1390142D01*
X1388252Y926592D02*
X1390142D01*
X1388466Y927354D02*
X1390142D01*
X1389253Y936498D02*
X1390142D01*
X1389253Y937260D02*
X1390142D01*
X1389241Y934212D02*
X1390142D01*
X1389253Y935736D02*
X1390142D01*
X1389253Y934974D02*
X1390142D01*
X1389253Y939546D02*
X1390142D01*
X1389253Y940308D02*
X1390142D01*
X1389253Y938022D02*
X1390142D01*
X1389253Y938784D02*
X1390142D01*
X1389253Y943356D02*
X1390142D01*
X1389253Y944118D02*
X1390142D01*
X1389253Y941070D02*
X1390142D01*
X1389253Y942594D02*
X1390142D01*
X1389253Y941832D02*
X1390142D01*
X1389253Y954024D02*
X1390142D01*
X1389253Y954786D02*
X1390142D01*
X1389253Y952500D02*
X1390142D01*
X1389253Y953262D02*
X1390142D01*
X1389253Y957834D02*
X1390142D01*
X1389253Y958596D02*
X1390142D01*
X1389253Y955548D02*
X1390142D01*
X1389253Y957072D02*
X1390142D01*
X1389253Y956310D02*
X1390142D01*
X1389253Y947166D02*
X1390142D01*
X1389253Y947928D02*
X1390142D01*
X1389253Y944880D02*
X1390142D01*
X1389253Y946404D02*
X1390142D01*
X1389253Y945642D02*
X1390142D01*
X1389253Y950976D02*
X1390142D01*
X1389253Y951738D02*
X1390142D01*
X1389253Y948690D02*
X1390142D01*
X1389253Y950214D02*
X1390142D01*
X1389253Y949452D02*
X1390142D01*
X1279398Y809689D02*
Y1004763D01*
X1280160Y808927D02*
Y1004832D01*
X1280922Y808165D02*
Y1004925D01*
X1281684Y807403D02*
Y1005043D01*
X1276223Y953897D02*
Y1001903D01*
X1276350Y812737D02*
Y1004731D01*
X1277874Y811213D02*
Y1004698D01*
X1277112Y811975D02*
Y1004702D01*
X1278636Y810451D02*
Y1004718D01*
X1282446Y806641D02*
Y1005187D01*
X1283208Y805879D02*
Y1005357D01*
X1298448Y875141D02*
Y1005136D01*
X1297686Y874429D02*
Y1005297D01*
X1299972Y876395D02*
Y1004891D01*
X1299210Y875794D02*
Y1005001D01*
X1302258Y877926D02*
Y1004709D01*
X1300734Y876948D02*
Y1004806D01*
X1301496Y877457D02*
Y1004745D01*
X1287780Y801307D02*
Y1006953D01*
X1288542Y800545D02*
Y1007326D01*
X1289304Y799783D02*
Y1007733D01*
X1290066Y799021D02*
Y1008176D01*
X1283970Y805117D02*
Y1005552D01*
X1284732Y804355D02*
Y1005775D01*
X1285494Y803593D02*
Y1006025D01*
X1286256Y802831D02*
Y1006304D01*
X1287018Y802069D02*
Y1006613D01*
X1291590Y864569D02*
Y1007593D01*
X1290828Y861510D02*
Y1008024D01*
X1293114Y868246D02*
Y1006836D01*
X1292352Y866621D02*
Y1007198D01*
X1294638Y870801D02*
Y1006208D01*
X1293876Y869613D02*
Y1006507D01*
X1296924Y873651D02*
Y1005484D01*
X1295400Y871853D02*
Y1005939D01*
X1296162Y872796D02*
Y1005698D01*
X1276223Y960120D02*
X1341247D01*
X1276223Y960882D02*
X1341247D01*
X1276223Y958596D02*
X1341247D01*
X1276223Y959358D02*
X1341247D01*
X1276223Y963930D02*
X1341247D01*
X1276223Y964692D02*
X1341247D01*
X1276223Y961644D02*
X1341247D01*
X1276223Y963168D02*
X1341247D01*
X1276223Y962406D02*
X1341247D01*
X1303020Y878357D02*
Y1004697D01*
X1303782Y878752D02*
Y1004709D01*
X1304544Y879114D02*
Y1004745D01*
X1305306Y879443D02*
Y1004806D01*
X1306068Y879742D02*
Y1004891D01*
X1306830Y880011D02*
Y1005001D01*
X1307592Y880252D02*
Y1005136D01*
X1308354Y880466D02*
Y1005297D01*
X1309116Y880653D02*
Y1005484D01*
X1309878Y880814D02*
Y1005698D01*
X1310640Y880949D02*
Y1005939D01*
X1311402Y881059D02*
Y1006208D01*
X1312164Y881144D02*
Y1006507D01*
X1312926Y881205D02*
Y1006836D01*
X1313688Y881241D02*
Y1007198D01*
X1314450Y881253D02*
Y1007593D01*
X1315212Y881241D02*
Y1008024D01*
X1315974Y881205D02*
Y1008493D01*
X1320546Y880466D02*
Y1012299D01*
X1321308Y880252D02*
Y1013154D01*
X1322070Y880011D02*
Y1014097D01*
X1322832Y879742D02*
Y1015149D01*
X1323594Y879443D02*
Y1016337D01*
X1316736Y881144D02*
Y1009002D01*
X1317498Y881059D02*
Y1009555D01*
X1318260Y880949D02*
Y1010156D01*
X1319022Y880814D02*
Y1010809D01*
X1319784Y880653D02*
Y1011521D01*
X1276223Y973836D02*
X1341247D01*
X1276223Y974598D02*
X1341247D01*
X1276223Y972312D02*
X1341247D01*
X1276223Y973074D02*
X1341247D01*
X1276223Y977646D02*
X1341247D01*
X1276223Y978408D02*
X1341247D01*
X1276223Y975360D02*
X1341247D01*
X1276223Y976884D02*
X1341247D01*
X1276223Y976122D02*
X1341247D01*
X1276223Y966978D02*
X1341247D01*
X1276223Y967740D02*
X1341247D01*
X1276223Y965454D02*
X1341247D01*
X1276223Y966216D02*
X1341247D01*
X1276223Y970788D02*
X1341247D01*
X1276223Y971550D02*
X1341247D01*
X1276223Y968502D02*
X1341247D01*
X1276223Y970026D02*
X1341247D01*
X1276223Y969264D02*
X1341247D01*
X1276223Y981456D02*
X1341247D01*
X1276223Y982218D02*
X1341247D01*
X1276223Y979170D02*
X1341247D01*
X1276223Y979932D02*
X1341247D01*
X1276223Y986790D02*
X1390142D01*
X1276223Y988314D02*
X1390142D01*
X1276223Y987552D02*
X1390142D01*
X1281880Y1005078D02*
X1298760D01*
X1284939Y1005840D02*
X1295701D01*
X1276223Y980694D02*
X1341247D01*
X1276223Y989076D02*
X1390142D01*
X1286991Y1006602D02*
X1293649D01*
X1288616Y1007364D02*
X1292024D01*
X1322165Y1014222D02*
X1389951D01*
X1322718Y1014984D02*
X1389189D01*
X1323227Y1015746D02*
X1388427D01*
X1276223Y994410D02*
X1390142D01*
X1276223Y995172D02*
X1390142D01*
X1276223Y992886D02*
X1390142D01*
X1276223Y993648D02*
X1390142D01*
X1276223Y998220D02*
X1390142D01*
X1276223Y998982D02*
X1390142D01*
X1276223Y995934D02*
X1390142D01*
X1276223Y997458D02*
X1390142D01*
X1276223Y996696D02*
X1390142D01*
X1276223Y984504D02*
X1390142D01*
X1276223Y985266D02*
X1390142D01*
X1276223Y982980D02*
X1390142D01*
X1276223Y983742D02*
X1390142D01*
X1276223Y991362D02*
X1390142D01*
X1276223Y992124D02*
X1390142D01*
X1276223Y986028D02*
X1390142D01*
X1276223Y990600D02*
X1390142D01*
X1276223Y989838D02*
X1390142D01*
X1276223Y1001268D02*
X1390142D01*
X1275588Y1002030D02*
X1390142D01*
X1276223Y999744D02*
X1390142D01*
X1276223Y1000506D02*
X1390142D01*
X1307280Y1005078D02*
X1390142D01*
X1310339Y1005840D02*
X1390142D01*
X1275576Y1002792D02*
X1390142D01*
X1275476Y1004316D02*
X1390142D01*
X1275538Y1003554D02*
X1390142D01*
X1316571Y1008888D02*
X1390142D01*
X1317623Y1009650D02*
X1390142D01*
X1312391Y1006602D02*
X1390142D01*
X1314016Y1007364D02*
X1390142D01*
X1315383Y1008126D02*
X1390142D01*
X1320911Y1012698D02*
X1390142D01*
X1321564Y1013460D02*
X1390142D01*
X1318566Y1010412D02*
X1390142D01*
X1319421Y1011174D02*
X1390142D01*
X1320199Y1011936D02*
X1390142D01*
X1325880Y878357D02*
Y1021381D01*
X1326642Y877926D02*
Y1024440D01*
X1328166Y878169D02*
Y1033018D01*
X1327404Y877772D02*
Y1033018D01*
X1324356Y879114D02*
Y1017704D01*
X1325118Y878752D02*
Y1019329D01*
X1330452Y879159D02*
Y1033018D01*
X1328928Y878531D02*
Y1033018D01*
X1329690Y878861D02*
Y1033018D01*
X1331976Y879665D02*
Y1033018D01*
X1331214Y879427D02*
Y1033018D01*
X1333500Y880059D02*
Y1033018D01*
X1332738Y879876D02*
Y1033018D01*
X1335024Y880346D02*
Y1033018D01*
X1334262Y880216D02*
Y1033018D01*
X1341247Y934847D02*
Y982853D01*
X1335786Y880450D02*
Y1033018D01*
X1336548Y880529D02*
Y1033018D01*
X1339596Y880596D02*
Y1033018D01*
X1337310Y880583D02*
Y1033018D01*
X1341120Y880480D02*
Y1033018D01*
X1340358Y880550D02*
Y1033018D01*
X1338834Y880617D02*
Y1033018D01*
X1338072Y880612D02*
Y1033018D01*
X1343406Y982853D02*
Y1033018D01*
X1341882Y982853D02*
Y1033018D01*
X1342644Y982853D02*
Y1033018D01*
X1352550Y982853D02*
Y1033018D01*
X1351788Y982853D02*
Y1033018D01*
X1354074Y982853D02*
Y1033018D01*
X1353312Y982853D02*
Y1033018D01*
X1348740Y982853D02*
Y1033018D01*
X1344168Y982853D02*
Y1033018D01*
X1351026Y982853D02*
Y1033018D01*
X1349502Y982853D02*
Y1033018D01*
X1350264Y982853D02*
Y1033018D01*
X1389253Y967740D02*
X1390142D01*
X1389253Y968502D02*
X1390142D01*
X1389253Y966216D02*
X1390142D01*
X1389253Y966978D02*
X1390142D01*
X1389253Y971550D02*
X1390142D01*
X1389253Y972312D02*
X1390142D01*
X1389253Y969264D02*
X1390142D01*
X1389253Y970788D02*
X1390142D01*
X1389253Y970026D02*
X1390142D01*
X1389253Y960882D02*
X1390142D01*
X1389253Y961644D02*
X1390142D01*
X1389253Y959358D02*
X1390142D01*
X1389253Y960120D02*
X1390142D01*
X1389253Y964692D02*
X1390142D01*
X1389253Y965454D02*
X1390142D01*
X1389253Y962406D02*
X1390142D01*
X1389253Y963930D02*
X1390142D01*
X1389253Y963168D02*
X1390142D01*
X1389253Y976122D02*
X1390142D01*
X1389253Y976884D02*
X1390142D01*
X1389253Y973836D02*
X1390142D01*
X1389253Y974598D02*
X1390142D01*
X1355598Y982853D02*
Y1033018D01*
X1354836Y982853D02*
Y1033018D01*
X1389253Y977646D02*
X1390142D01*
X1341247Y982853D02*
X1389253D01*
Y978408D02*
X1390142D01*
X1389253Y934847D02*
Y982853D01*
X1389888Y924975D02*
Y1014285D01*
X1389253Y973074D02*
X1390142D01*
X1389253Y975360D02*
X1390142D01*
Y924946D02*
Y1014031D01*
X1389253Y981456D02*
X1390142D01*
X1389253Y982218D02*
X1390142D01*
X1389253Y979170D02*
X1390142D01*
X1389253Y980694D02*
X1390142D01*
X1389253Y979932D02*
X1390142D01*
X1367028Y982853D02*
Y1033018D01*
X1366266Y982853D02*
Y1033018D01*
X1327011Y1029462D02*
X1374711D01*
X1367790Y982853D02*
Y1033018D01*
X1326719Y1032510D02*
X1371663D01*
X1326631Y1033018D02*
X1371155D01*
X1326975Y1030224D02*
X1373949D01*
X1326829Y1031748D02*
X1372425D01*
X1326914Y1030986D02*
X1373187D01*
X1373124Y982853D02*
Y1031049D01*
X1372362Y982853D02*
Y1031811D01*
X1374648Y982853D02*
Y1029525D01*
X1373886Y982853D02*
Y1030287D01*
X1369314Y982853D02*
Y1033018D01*
X1368552Y982853D02*
Y1033018D01*
X1371600Y982853D02*
Y1032573D01*
X1370076Y982853D02*
Y1033018D01*
X1370838Y982853D02*
Y1033018D01*
X1356360Y982853D02*
Y1033018D01*
X1347978Y982853D02*
Y1033018D01*
X1357884Y982853D02*
Y1033018D01*
X1357122Y982853D02*
Y1033018D01*
X1344930Y982853D02*
Y1033018D01*
X1347216Y982853D02*
Y1033018D01*
X1345692Y982853D02*
Y1033018D01*
X1346454Y982853D02*
Y1033018D01*
X1363218Y982853D02*
Y1033018D01*
X1362456Y982853D02*
Y1033018D01*
X1365504Y982853D02*
Y1033018D01*
X1363980Y982853D02*
Y1033018D01*
X1364742Y982853D02*
Y1033018D01*
X1359408Y982853D02*
Y1033018D01*
X1358646Y982853D02*
Y1033018D01*
X1361694Y982853D02*
Y1033018D01*
X1360170Y982853D02*
Y1033018D01*
X1360932Y982853D02*
Y1033018D01*
X1324522Y1018032D02*
X1386141D01*
X1382268Y982853D02*
Y1021905D01*
X1323696Y1016508D02*
X1387665D01*
X1324127Y1017270D02*
X1386903D01*
X1325781Y1021080D02*
X1383093D01*
X1326022Y1021842D02*
X1382331D01*
X1324884Y1018794D02*
X1385379D01*
X1325213Y1019556D02*
X1384617D01*
X1325512Y1020318D02*
X1383855D01*
X1387602Y982853D02*
Y1016571D01*
X1386840Y982853D02*
Y1017333D01*
X1389126Y982853D02*
Y1015047D01*
X1388364Y982853D02*
Y1015809D01*
X1383792Y982853D02*
Y1020381D01*
X1383030Y982853D02*
Y1021143D01*
X1386078Y982853D02*
Y1018095D01*
X1384554Y982853D02*
Y1019619D01*
X1385316Y982853D02*
Y1018857D01*
X1326584Y1024128D02*
X1380045D01*
X1326719Y1024890D02*
X1379283D01*
X1326236Y1022604D02*
X1381569D01*
X1326423Y1023366D02*
X1380807D01*
X1327011Y1027938D02*
X1376235D01*
X1327023Y1028700D02*
X1375473D01*
X1326829Y1025652D02*
X1378521D01*
X1326914Y1026414D02*
X1377759D01*
X1326975Y1027176D02*
X1376997D01*
X1379220Y982853D02*
Y1024953D01*
X1378458Y982853D02*
Y1025715D01*
X1381506Y982853D02*
Y1022667D01*
X1379982Y982853D02*
Y1024191D01*
X1380744Y982853D02*
Y1023429D01*
X1376172Y982853D02*
Y1028001D01*
X1375410Y982853D02*
Y1028763D01*
X1377696Y982853D02*
Y1026477D01*
X1371155Y1033018D02*
X1390142Y1014031D01*
X1376934Y982853D02*
Y1027239D01*
D11*
X1285240Y779780D02*
X1334770D01*
X1361440Y806450D01*
X1365250D01*
X1271270Y767080D02*
X1341120D01*
X1355090Y781050D01*
X1365250D01*
X1258570Y755650D02*
X1365250D01*
X1073150Y709930D02*
X1076960Y706120D01*
X1320800D01*
X1344930Y730250D01*
X1365250D01*
X1050290Y699770D02*
X1054100Y695960D01*
X1327150D01*
X1336040Y704850D01*
X1365250D01*
X1022350Y694690D02*
X1033145Y683895D01*
X1219654D01*
X1220290Y684530D01*
X1351043D01*
X1356123Y679450D01*
X1365250D01*
Y882650D02*
X1385570D01*
X1224026Y840994D02*
X1285240Y779780D01*
X1219962Y818388D02*
X1271270Y767080D01*
X1098550Y792480D02*
X1221740D01*
X1258570Y755650D01*
X1365250Y908050D02*
X1388110D01*
X1217930Y647700D02*
X1384300D01*
X1200150Y665480D02*
X1217930Y647700D01*
X1265555Y662305D02*
X1381125D01*
X1261110Y666750D02*
X1265555Y662305D01*
X1126490Y544830D02*
X1352042D01*
X1381125Y662305D02*
X1385570Y666750D01*
Y882650D01*
X1384300Y647700D02*
X1396238Y659638D01*
Y899922D01*
X1388110Y908050D02*
X1396238Y899922D01*
X1101090Y530098D02*
Y544830D01*
X1075690Y522478D02*
Y544830D01*
X1126236Y1062736D02*
X1390904D01*
X1115060Y1051560D02*
X1126236Y1062736D01*
X1115060Y1028700D02*
Y1051560D01*
X1140460Y1028700D02*
Y1041654D01*
X1148842Y1050036D01*
X1378204D01*
X1149350Y840994D02*
X1224026D01*
X1124204Y818388D02*
X1219962D01*
X1123950Y818134D02*
X1124204Y818388D01*
X1352042Y544830D02*
X1386586Y579374D01*
X1101090Y530098D02*
X1103884Y527304D01*
X1366266D01*
X1075690Y522478D02*
X1085596Y512572D01*
X1378458D01*
X1366266Y527304D02*
X1407160Y568198D01*
Y1021080D01*
X1378204Y1050036D02*
X1407160Y1021080D01*
X1378458Y512572D02*
X1419606Y553720D01*
Y1034034D01*
X1390904Y1062736D02*
X1419606Y1034034D01*
D12*
X844550Y781050D02*
X869950D01*
X844550Y806450D02*
X869950D01*
X844550Y831850D02*
X869950D01*
X844550Y857250D02*
X869950D01*
X844550Y882650D02*
X869950D01*
X844550Y908050D02*
X869950D01*
X844550Y933450D02*
X869950D01*
X844550Y958850D02*
X869950D01*
X986790Y615950D02*
Y638810D01*
X1012190Y615950D02*
Y638810D01*
X1037590Y615950D02*
Y640080D01*
X1069340Y615950D02*
Y638810D01*
X1094740Y615950D02*
Y638810D01*
X1120140Y615950D02*
Y640080D01*
X885190Y613511D02*
Y615950D01*
Y641350D01*
X859790Y615950D02*
Y641350D01*
X822960Y755650D02*
X844550D01*
X822960Y730250D02*
X844550D01*
X822960Y704850D02*
X844550D01*
X822960Y679450D02*
X844550D01*
X1338580Y857250D02*
X1365250D01*
X1339850Y831850D02*
X1365250D01*
X859790Y641350D02*
Y655320D01*
X945642Y741172D01*
Y754380D01*
X885190Y641350D02*
Y644652D01*
X921512Y680974D01*
X1226820Y1000760D02*
Y1028700D01*
X1252220Y1002030D02*
Y1028700D01*
X772922Y973328D02*
X799846Y1000252D01*
X950976D01*
X953516Y997712D01*
X885190Y597916D02*
Y615950D01*
Y597916D02*
X896874Y586232D01*
X1024890Y544830D02*
X1037336D01*
X1050290D01*
X896874Y586232D02*
X1023366D01*
X1037336Y572262D01*
Y544830D02*
Y572262D01*
X953516Y902208D02*
Y997712D01*
X772922Y667258D02*
Y973328D01*
Y667258D02*
X895350Y544830D01*
X948690D01*
D13*
X1314450Y857250D02*
D03*
Y831850D02*
D03*
X895350Y958850D02*
D03*
Y933450D02*
D03*
Y908050D02*
D03*
Y882650D02*
D03*
Y831850D02*
D03*
Y806450D02*
D03*
Y781050D02*
D03*
Y857250D02*
D03*
X1037590Y666750D02*
D03*
X1012190D02*
D03*
X1120140D02*
D03*
X1094740D02*
D03*
X971550Y781050D02*
D03*
X946150D02*
D03*
X793750Y730250D02*
D03*
Y704850D02*
D03*
Y679450D02*
D03*
X1022350Y730250D02*
D03*
X1047750D02*
D03*
X1073150D02*
D03*
X1098550D02*
D03*
X1149350D02*
D03*
X1174750D02*
D03*
X1200150D02*
D03*
X1123950D02*
D03*
X1145540Y615950D02*
D03*
X1120140D02*
D03*
X1094740D02*
D03*
X1069340D02*
D03*
X1037590D02*
D03*
X1012190D02*
D03*
X986790D02*
D03*
X961390D02*
D03*
X935990D02*
D03*
X910590D02*
D03*
X885190D02*
D03*
X859790D02*
D03*
X935990Y641350D02*
D03*
X910590D02*
D03*
X885190D02*
D03*
X859790D02*
D03*
X844550Y679450D02*
D03*
Y704850D02*
D03*
Y730250D02*
D03*
Y755650D02*
D03*
Y781050D02*
D03*
Y806450D02*
D03*
Y831850D02*
D03*
Y857250D02*
D03*
Y882650D02*
D03*
Y908050D02*
D03*
Y933450D02*
D03*
X1365250Y679450D02*
D03*
Y704850D02*
D03*
Y730250D02*
D03*
Y755650D02*
D03*
Y781050D02*
D03*
Y806450D02*
D03*
Y831850D02*
D03*
Y857250D02*
D03*
Y882650D02*
D03*
Y908050D02*
D03*
Y933450D02*
D03*
X1277620Y1028700D02*
D03*
X1303020D02*
D03*
X1252220D02*
D03*
X1226820D02*
D03*
X1201420D02*
D03*
X1176020D02*
D03*
X1140460D02*
D03*
X1115060D02*
D03*
X1089660D02*
D03*
X1064260D02*
D03*
X1115060Y1003300D02*
D03*
X1089660D02*
D03*
X1126490Y544830D02*
D03*
X1101090D02*
D03*
X1075690D02*
D03*
X1050290D02*
D03*
X999490D02*
D03*
X974090D02*
D03*
X948690D02*
D03*
X1024890D02*
D03*
D14*
X1314450Y806450D02*
D03*
X793750Y755650D02*
D03*
X1365250Y958850D02*
D03*
X844550D02*
D03*
X1226820Y977900D02*
D03*
X1252220D02*
D03*
D15*
X986790Y666750D02*
D03*
X1069340D02*
D03*
X920750Y781050D02*
D03*
D16*
X1073150Y709930D02*
D03*
D17*
X1050290Y699770D02*
D03*
D18*
X1022350Y694690D02*
D03*
X869950Y958850D02*
D03*
Y933450D02*
D03*
Y908050D02*
D03*
Y882650D02*
D03*
Y857250D02*
D03*
Y831850D02*
D03*
Y806450D02*
D03*
Y781050D02*
D03*
X986790Y638810D02*
D03*
X1012190D02*
D03*
X1037590Y640080D02*
D03*
X1069340Y638810D02*
D03*
X1094740D02*
D03*
X1120140Y640080D02*
D03*
X822960Y755650D02*
D03*
Y730250D02*
D03*
Y704850D02*
D03*
Y679450D02*
D03*
X1338580Y857250D02*
D03*
X1339850Y831850D02*
D03*
X1098550Y792480D02*
D03*
X1200150Y665480D02*
D03*
X1261110Y666750D02*
D03*
X945642Y754380D02*
D03*
X921512Y680974D02*
D03*
X1226820Y1000760D02*
D03*
X1252220Y1002030D02*
D03*
X1387094Y578612D02*
D03*
X953545Y902237D02*
D03*
X1123950Y818134D02*
D03*
X1149350Y840994D02*
D03*
M02*
