M48
;Layer_Color=9474304
;FILE_FORMAT=4:4
METRIC,LZ
;TYPE=PLATED
T1F00S00C0.9652
T2F00S00C1.1430
%
T01
X0120015Y0066548
X0126111Y0066675
X01387094Y00578612
X0107315Y0070993
X0105029Y0069977
X0102235Y0069469
X00921512Y00680974
X00945642Y0075438
X0082296Y0075565
Y0073025
Y0070485
Y0067945
X0109855Y0079248
X0112395Y00818134
X0114935Y00840994
X00953545Y00902237
X0122682Y0100076
X0125222Y0100203
X0133858Y0085725
X0133985Y0083185
T02
X0120015Y0073025
X0136525
Y0075565
Y0078105
Y0070485
Y0067945
X0117475Y0073025
X0114935
X0112395
X0109855
X0107315
X0104775
X0102235
X0101219Y0066675
X0098679
Y0063881
Y0061595
X0096139
X0093599
Y0064135
X0091059
X0088519
X0085979
Y0061595
X0088519
X0091059
X0101219
Y0063881
X0103759Y0064008
Y0061595
X0106934
Y0063881
X0109474
Y0061595
X0112014
Y0064008
Y0066675
X0109474
X0106934
X0103759
X0102489Y0054483
X0099949
X0097409
X0094869
X0105029
X0107569
X0110109
X0112649
X0114554Y0061595
X0097155Y0078105
X0094615
X0092075
X0089535
X0086995
X0084455
Y0075565
Y0073025
Y0070485
Y0067945
X0079375
Y0070485
Y0073025
Y0075565
X0084455Y0080645
X0086995
Y0083185
Y0085725
Y0088265
Y0090805
Y0093345
Y0095885
X0084455
Y0093345
Y0090805
Y0088265
Y0085725
Y0083185
X0089535
Y0085725
Y0088265
Y0090805
Y0093345
Y0095885
Y0080645
X0108966Y010033
X0111506
Y010287
X0108966
X0106426
X0114046
X0117602
X0120142
X0122682
X0125222
X0127762
X0130302
X0125222Y009779
X0122682
X0136525Y0095885
Y0093345
Y0090805
Y0088265
Y0085725
Y0083185
Y0080645
X0131445
Y0083185
Y0085725
M30
