%FSLAX44Y44*%
%MOMM*%
G71*
G01*
G75*
G04 Layer_Color=16711935*
%ADD10C,0.2540*%
D10*
X2159000Y1168400D02*
X2158997Y1170939D01*
X2158987Y1173479D01*
X2158971Y1176018D01*
X2158948Y1178558D01*
X2158919Y1181097D01*
X2158884Y1183636D01*
X2158842Y1186176D01*
X2158793Y1188715D01*
X2158738Y1191254D01*
X2158677Y1193792D01*
X2158609Y1196331D01*
X2158535Y1198869D01*
X2158454Y1201407D01*
X2158367Y1203945D01*
X2158273Y1206483D01*
X2158173Y1209021D01*
X2158066Y1211558D01*
X2157953Y1214095D01*
X2157833Y1216632D01*
X2157707Y1219168D01*
X2157575Y1221704D01*
X2157436Y1224240D01*
X2157290Y1226775D01*
X2157139Y1229310D01*
X2156980Y1231845D01*
X2156815Y1234379D01*
X2156644Y1236912D01*
X2156467Y1239446D01*
X2156283Y1241979D01*
X2156092Y1244511D01*
X2155895Y1247043D01*
X2155692Y1249574D01*
X2155482Y1252105D01*
X2155265Y1254635D01*
X2155043Y1257165D01*
X2154814Y1259694D01*
X2154578Y1262222D01*
X2154336Y1264750D01*
X2154087Y1267278D01*
X2153832Y1269804D01*
X2153571Y1272330D01*
X2153303Y1274856D01*
X2153029Y1277380D01*
X2152748Y1279904D01*
X2152461Y1282428D01*
X2152168Y1284950D01*
X2151868Y1287472D01*
X2151561Y1289993D01*
X2151249Y1292513D01*
X2150929Y1295032D01*
X2150604Y1297551D01*
X2150272Y1300068D01*
X2149933Y1302585D01*
X2149589Y1305101D01*
X2149237Y1307616D01*
X2148880Y1310130D01*
X2148516Y1312644D01*
X2148145Y1315156D01*
X2147769Y1317667D01*
X2147385Y1320178D01*
X2146996Y1322687D01*
X2146600Y1325196D01*
X2146197Y1327703D01*
X2145789Y1330210D01*
X2145373Y1332715D01*
X2144952Y1335219D01*
X2144524Y1337722D01*
X2144090Y1340224D01*
X2143649Y1342725D01*
X2143202Y1345225D01*
X2142749Y1347724D01*
X2142289Y1350222D01*
X2141823Y1352718D01*
X2141351Y1355213D01*
X2140872Y1357707D01*
X2140387Y1360200D01*
X2139895Y1362691D01*
X2139397Y1365181D01*
X2138893Y1367670D01*
X2138383Y1370158D01*
X2137866Y1372644D01*
X2137343Y1375130D01*
X2136813Y1377613D01*
X2136277Y1380096D01*
X2135735Y1382576D01*
X2135187Y1385056D01*
X2134632Y1387534D01*
X2134071Y1390011D01*
X2133504Y1392486D01*
X2132930Y1394960D01*
X2132350Y1397433D01*
X2131764Y1399903D01*
X2131172Y1402373D01*
X2130573Y1404841D01*
X2129968Y1407307D01*
X2129356Y1409772D01*
X2128739Y1412235D01*
X2128115Y1414697D01*
X2127485Y1417157D01*
X2126848Y1419615D01*
X2126205Y1422072D01*
X2125556Y1424527D01*
X2124901Y1426981D01*
X2124240Y1429433D01*
X2123572Y1431883D01*
X2122898Y1434331D01*
X2122218Y1436778D01*
X2121532Y1439223D01*
X2120839Y1441666D01*
X2120140Y1444108D01*
X2119435Y1446547D01*
X2118724Y1448985D01*
X2118007Y1451421D01*
X2117283Y1453855D01*
X2116553Y1456288D01*
X2115817Y1458718D01*
X2115075Y1461147D01*
X2114327Y1463574D01*
X2113572Y1465998D01*
X2112811Y1468421D01*
X2112045Y1470842D01*
X2111272Y1473261D01*
X2110492Y1475678D01*
X2109707Y1478093D01*
X2108915Y1480506D01*
X2108118Y1482917D01*
X2107314Y1485326D01*
X2106504Y1487733D01*
X2105688Y1490138D01*
X2104866Y1492540D01*
X2104038Y1494941D01*
X2103203Y1497339D01*
X2102363Y1499736D01*
X2101516Y1502130D01*
X2100663Y1504522D01*
X2099805Y1506912D01*
X2098940Y1509300D01*
X2098069Y1511685D01*
X2097192Y1514068D01*
X2096309Y1516449D01*
X2095420Y1518828D01*
X2094525Y1521205D01*
X2093624Y1523579D01*
X2092716Y1525951D01*
X2091803Y1528320D01*
X2090884Y1530688D01*
X2089958Y1533053D01*
X2089027Y1535415D01*
X2088090Y1537775D01*
X2087146Y1540133D01*
X2086197Y1542488D01*
X2085241Y1544841D01*
X2084280Y1547192D01*
X2083313Y1549540D01*
X2082339Y1551885D01*
X2081360Y1554228D01*
X2080375Y1556569D01*
X2079384Y1558907D01*
X2078387Y1561243D01*
X2077384Y1563575D01*
X2076375Y1565906D01*
X2075359Y1568234D01*
X2074339Y1570559D01*
X2073312Y1572882D01*
X2072279Y1575202D01*
X2071241Y1577519D01*
X2070196Y1579834D01*
X2069146Y1582146D01*
X2068089Y1584455D01*
X2067027Y1586762D01*
X2065959Y1589066D01*
X2064885Y1591367D01*
X2063806Y1593666D01*
X2062720Y1595961D01*
X2061629Y1598254D01*
X2060531Y1600545D01*
X2059428Y1602832D01*
X2058319Y1605117D01*
X2057205Y1607398D01*
X2056084Y1609677D01*
X2054958Y1611953D01*
X2053826Y1614226D01*
X2052688Y1616497D01*
X2051544Y1618764D01*
X2050395Y1621028D01*
X2049239Y1623290D01*
X2048078Y1625549D01*
X2046912Y1627804D01*
X2045739Y1630057D01*
X2044561Y1632307D01*
X2043377Y1634553D01*
X2042188Y1636797D01*
X2040992Y1639037D01*
X2039791Y1641275D01*
X2038585Y1643509D01*
X2037372Y1645741D01*
X2036154Y1647969D01*
X2034930Y1650194D01*
X2033701Y1652416D01*
X2032466Y1654635D01*
X2031225Y1656851D01*
X2029979Y1659064D01*
X2028727Y1661273D01*
X2027469Y1663479D01*
X2026206Y1665682D01*
X2024937Y1667882D01*
X2023663Y1670078D01*
X2022383Y1672272D01*
X2021097Y1674462D01*
X2019806Y1676649D01*
X2018510Y1678832D01*
X2017207Y1681012D01*
X2015899Y1683189D01*
X2014586Y1685363D01*
X2013267Y1687533D01*
X2011943Y1689700D01*
X2010613Y1691863D01*
X2009277Y1694023D01*
X2007937Y1696180D01*
X2006590Y1698333D01*
X2005238Y1700482D01*
X2003881Y1702629D01*
X2002518Y1704772D01*
X2001150Y1706911D01*
X1999776Y1709047D01*
X1998397Y1711179D01*
X1997013Y1713308D01*
X1995623Y1715434D01*
X1994227Y1717555D01*
X1992827Y1719673D01*
X1991420Y1721788D01*
X1990009Y1723899D01*
X1988592Y1726007D01*
X1987170Y1728111D01*
X1985742Y1730211D01*
X1984309Y1732307D01*
X1982871Y1734400D01*
X1981427Y1736489D01*
X1979978Y1738575D01*
X1978524Y1740657D01*
X1977065Y1742735D01*
X1975600Y1744810D01*
X1974130Y1746880D01*
X1972654Y1748947D01*
X1971174Y1751010D01*
X1969688Y1753070D01*
X1968197Y1755125D01*
X1966700Y1757177D01*
X1965199Y1759225D01*
X1963692Y1761269D01*
X1962180Y1763310D01*
X1960663Y1765346D01*
X1959141Y1767379D01*
X1957613Y1769408D01*
X1956080Y1771432D01*
X1954543Y1773453D01*
X1953000Y1775470D01*
X1951452Y1777483D01*
X1949899Y1779492D01*
X1948340Y1781498D01*
X1946777Y1783499D01*
X1945208Y1785496D01*
X1943635Y1787489D01*
X1942056Y1789478D01*
X1940472Y1791464D01*
X1938884Y1793445D01*
X1937290Y1795422D01*
X1935691Y1797395D01*
X1934087Y1799364D01*
X1932478Y1801329D01*
X1930865Y1803289D01*
X1929246Y1805246D01*
X1927622Y1807198D01*
X1925993Y1809147D01*
X1924359Y1811091D01*
X1922721Y1813031D01*
X1921077Y1814967D01*
X1919429Y1816899D01*
X1917775Y1818826D01*
X1916117Y1820749D01*
X1914454Y1822668D01*
X1912786Y1824583D01*
X1911113Y1826494D01*
X1909435Y1828400D01*
X1907752Y1830302D01*
X1906065Y1832200D01*
X1904372Y1834093D01*
X1902675Y1835982D01*
X1900973Y1837867D01*
X1899266Y1839747D01*
X1897555Y1841623D01*
X1895838Y1843495D01*
X1894117Y1845362D01*
X1892392Y1847225D01*
X1890661Y1849084D01*
X1888926Y1850938D01*
X1887186Y1852788D01*
X1885441Y1854633D01*
X1883692Y1856474D01*
X1881938Y1858310D01*
X1880179Y1860142D01*
X1878416Y1861969D01*
X1876647Y1863792D01*
X1874875Y1865611D01*
X1873097Y1867424D01*
X1871315Y1869234D01*
X1869529Y1871039D01*
X1867738Y1872839D01*
X1865942Y1874635D01*
X1864142Y1876426D01*
X1862337Y1878212D01*
X1860528Y1879994D01*
X1858714Y1881772D01*
X1856896Y1883544D01*
X1855073Y1885312D01*
X1853245Y1887076D01*
X1851413Y1888834D01*
X1849577Y1890589D01*
X1847736Y1892338D01*
X1845891Y1894083D01*
X1844041Y1895823D01*
X1842187Y1897558D01*
X1840329Y1899288D01*
X1838466Y1901014D01*
X1836598Y1902735D01*
X1834727Y1904452D01*
X1832851Y1906163D01*
X1830970Y1907870D01*
X1829086Y1909572D01*
X1827196Y1911269D01*
X1825303Y1912961D01*
X1823405Y1914649D01*
X1821503Y1916332D01*
X1819597Y1918009D01*
X1817687Y1919682D01*
X1815772Y1921351D01*
X1813853Y1923014D01*
X1811929Y1924672D01*
X1810002Y1926326D01*
X1808070Y1927974D01*
X1806135Y1929618D01*
X1804194Y1931257D01*
X1802250Y1932890D01*
X1800302Y1934519D01*
X1798349Y1936143D01*
X1796393Y1937762D01*
X1794432Y1939375D01*
X1792467Y1940984D01*
X1790498Y1942588D01*
X1788525Y1944187D01*
X1786548Y1945781D01*
X1784567Y1947370D01*
X1782582Y1948953D01*
X1780593Y1950532D01*
X1778600Y1952106D01*
X1776602Y1953674D01*
X1774601Y1955237D01*
X1772596Y1956796D01*
X1770587Y1958349D01*
X1768574Y1959897D01*
X1766557Y1961440D01*
X1764536Y1962978D01*
X1762511Y1964510D01*
X1760482Y1966038D01*
X1758450Y1967560D01*
X1756413Y1969077D01*
X1754373Y1970589D01*
X1752329Y1972096D01*
X1750281Y1973598D01*
X1748229Y1975094D01*
X1746174Y1976585D01*
X1744114Y1978071D01*
X1742051Y1979552D01*
X1739984Y1981027D01*
X1737913Y1982497D01*
X1735839Y1983962D01*
X1733761Y1985421D01*
X1731679Y1986876D01*
X1729593Y1988325D01*
X1727504Y1989768D01*
X1725411Y1991207D01*
X1723315Y1992639D01*
X1721214Y1994067D01*
X1719111Y1995489D01*
X1717003Y1996906D01*
X1714892Y1998318D01*
X1712777Y1999724D01*
X1710659Y2001125D01*
X1708537Y2002520D01*
X1706412Y2003910D01*
X1704283Y2005295D01*
X1702151Y2006674D01*
X1700015Y2008047D01*
X1697876Y2009416D01*
X1695733Y2010779D01*
X1693586Y2012136D01*
X1691437Y2013488D01*
X1689283Y2014834D01*
X1687127Y2016175D01*
X1684967Y2017511D01*
X1682803Y2018840D01*
X1680637Y2020165D01*
X1678467Y2021484D01*
X1676293Y2022797D01*
X1674116Y2024105D01*
X1671936Y2025407D01*
X1669753Y2026704D01*
X1667566Y2027995D01*
X1665376Y2029281D01*
X1663183Y2030561D01*
X1660986Y2031835D01*
X1658786Y2033104D01*
X1656583Y2034367D01*
X1654377Y2035625D01*
X1652168Y2036877D01*
X1649955Y2038123D01*
X1647739Y2039364D01*
X1645520Y2040599D01*
X1643298Y2041828D01*
X1641073Y2043052D01*
X1638845Y2044270D01*
X1636613Y2045482D01*
X1634379Y2046689D01*
X1632141Y2047890D01*
X1629901Y2049086D01*
X1627657Y2050275D01*
X1625411Y2051459D01*
X1623161Y2052637D01*
X1620908Y2053810D01*
X1618653Y2054976D01*
X1616394Y2056137D01*
X1614133Y2057292D01*
X1611868Y2058442D01*
X1609601Y2059586D01*
X1607331Y2060724D01*
X1605057Y2061856D01*
X1602781Y2062982D01*
X1600502Y2064103D01*
X1598221Y2065217D01*
X1595936Y2066326D01*
X1593649Y2067429D01*
X1591359Y2068527D01*
X1589066Y2069618D01*
X1586770Y2070704D01*
X1584471Y2071783D01*
X1582170Y2072857D01*
X1579866Y2073925D01*
X1577559Y2074987D01*
X1575250Y2076044D01*
X1572938Y2077094D01*
X1570623Y2078139D01*
X1568306Y2079177D01*
X1565986Y2080210D01*
X1563663Y2081237D01*
X1561338Y2082258D01*
X1559010Y2083273D01*
X1556680Y2084282D01*
X1554347Y2085285D01*
X1552011Y2086282D01*
X1549673Y2087273D01*
X1547333Y2088258D01*
X1544989Y2089238D01*
X1542644Y2090211D01*
X1540296Y2091178D01*
X1537946Y2092140D01*
X1535593Y2093095D01*
X1533237Y2094044D01*
X1530880Y2094988D01*
X1528519Y2095925D01*
X1526157Y2096857D01*
X1523792Y2097782D01*
X1521425Y2098701D01*
X1519055Y2099615D01*
X1516683Y2100522D01*
X1514309Y2101423D01*
X1511933Y2102318D01*
X1509554Y2103207D01*
X1507173Y2104090D01*
X1504789Y2104967D01*
X1502404Y2105838D01*
X1500016Y2106703D01*
X1497626Y2107562D01*
X1495235Y2108415D01*
X1492840Y2109261D01*
X1490444Y2110102D01*
X1488045Y2110936D01*
X1485645Y2111764D01*
X1483242Y2112587D01*
X1480837Y2113403D01*
X1478430Y2114212D01*
X1476022Y2115016D01*
X1473611Y2115814D01*
X1471198Y2116606D01*
X1468783Y2117391D01*
X1466366Y2118170D01*
X1463947Y2118943D01*
X1461526Y2119710D01*
X1459103Y2120471D01*
X1456678Y2121225D01*
X1454251Y2121974D01*
X1451823Y2122716D01*
X1449392Y2123452D01*
X1446960Y2124182D01*
X1444526Y2124906D01*
X1442090Y2125623D01*
X1439652Y2126334D01*
X1437212Y2127039D01*
X1434771Y2127738D01*
X1432328Y2128431D01*
X1429883Y2129117D01*
X1427436Y2129797D01*
X1424987Y2130471D01*
X1422537Y2131139D01*
X1420085Y2131800D01*
X1417632Y2132455D01*
X1415177Y2133104D01*
X1412720Y2133747D01*
X1410262Y2134383D01*
X1407802Y2135014D01*
X1405340Y2135638D01*
X1402877Y2136255D01*
X1400412Y2136866D01*
X1397946Y2137472D01*
X1395478Y2138070D01*
X1393008Y2138663D01*
X1390537Y2139249D01*
X1388065Y2139829D01*
X1385591Y2140403D01*
X1383116Y2140970D01*
X1380639Y2141531D01*
X1378161Y2142086D01*
X1375681Y2142634D01*
X1373200Y2143177D01*
X1370718Y2143712D01*
X1368234Y2144242D01*
X1365749Y2144765D01*
X1363263Y2145282D01*
X1360775Y2145792D01*
X1358286Y2146296D01*
X1355796Y2146794D01*
X1353305Y2147286D01*
X1350812Y2147771D01*
X1348318Y2148250D01*
X1345823Y2148722D01*
X1343327Y2149188D01*
X1340829Y2149648D01*
X1338331Y2150101D01*
X1335831Y2150548D01*
X1333330Y2150989D01*
X1330828Y2151423D01*
X1328324Y2151851D01*
X1325820Y2152272D01*
X1323315Y2152688D01*
X1320809Y2153096D01*
X1318301Y2153499D01*
X1315793Y2153895D01*
X1313283Y2154284D01*
X1310773Y2154668D01*
X1308262Y2155045D01*
X1305749Y2155415D01*
X1303236Y2155779D01*
X1300722Y2156137D01*
X1298207Y2156488D01*
X1295691Y2156833D01*
X1293174Y2157171D01*
X1290656Y2157503D01*
X1288138Y2157829D01*
X1285618Y2158148D01*
X1283098Y2158461D01*
X1280577Y2158767D01*
X1278055Y2159067D01*
X1275533Y2159361D01*
X1273010Y2159648D01*
X1270486Y2159928D01*
X1267961Y2160202D01*
X1265436Y2160470D01*
X1262910Y2160732D01*
X1260383Y2160987D01*
X1257856Y2161235D01*
X1255328Y2161477D01*
X1252800Y2161713D01*
X1250270Y2161942D01*
X1247741Y2162165D01*
X1245210Y2162381D01*
X1242680Y2162591D01*
X1240148Y2162795D01*
X1237617Y2162992D01*
X1235084Y2163182D01*
X1232551Y2163366D01*
X1230018Y2163544D01*
X1227485Y2163715D01*
X1224950Y2163880D01*
X1222416Y2164038D01*
X1219881Y2164190D01*
X1217346Y2164335D01*
X1214810Y2164474D01*
X1212274Y2164607D01*
X1209737Y2164733D01*
X1207201Y2164853D01*
X1204664Y2164966D01*
X1202127Y2165072D01*
X1199589Y2165172D01*
X1197051Y2165266D01*
X1194513Y2165354D01*
X1191975Y2165434D01*
X1189437Y2165509D01*
X1186898Y2165577D01*
X1184360Y2165638D01*
X1181821Y2165693D01*
X1179281Y2165741D01*
X1176742Y2165784D01*
X1174203Y2165819D01*
X1171664Y2165848D01*
X1169125Y2165871D01*
X1166585Y2165887D01*
X1164046Y2165897D01*
X1161506Y2165900D01*
X1158967Y2165897D01*
X1156427Y2165887D01*
X1153888Y2165871D01*
X1151348Y2165848D01*
X1148809Y2165819D01*
X1146270Y2165784D01*
X1143731Y2165742D01*
X1141192Y2165693D01*
X1138653Y2165638D01*
X1136114Y2165577D01*
X1133575Y2165509D01*
X1131037Y2165435D01*
X1128499Y2165354D01*
X1125961Y2165267D01*
X1123423Y2165173D01*
X1120886Y2165073D01*
X1118348Y2164966D01*
X1115811Y2164853D01*
X1113275Y2164734D01*
X1110738Y2164608D01*
X1108202Y2164475D01*
X1105667Y2164336D01*
X1103131Y2164191D01*
X1100596Y2164039D01*
X1098062Y2163881D01*
X1095528Y2163716D01*
X1092994Y2163545D01*
X1090461Y2163367D01*
X1087928Y2163183D01*
X1085396Y2162993D01*
X1082864Y2162796D01*
X1080332Y2162592D01*
X1077802Y2162382D01*
X1075271Y2162166D01*
X1072742Y2161943D01*
X1070213Y2161714D01*
X1067684Y2161478D01*
X1065156Y2161236D01*
X1062629Y2160988D01*
X1060102Y2160733D01*
X1057576Y2160472D01*
X1055051Y2160204D01*
X1052526Y2159930D01*
X1050002Y2159649D01*
X1047479Y2159362D01*
X1044957Y2159068D01*
X1042435Y2158768D01*
X1039914Y2158462D01*
X1037394Y2158149D01*
X1034874Y2157830D01*
X1032356Y2157505D01*
X1029838Y2157173D01*
X1027321Y2156834D01*
X1024805Y2156490D01*
X1022290Y2156138D01*
X1019776Y2155781D01*
X1017263Y2155417D01*
X1014751Y2155046D01*
X1012239Y2154669D01*
X1009729Y2154286D01*
X1007219Y2153897D01*
X1004711Y2153501D01*
X1002204Y2153098D01*
X999697Y2152690D01*
X997192Y2152274D01*
X994688Y2151853D01*
X992184Y2151425D01*
X989682Y2150991D01*
X987181Y2150550D01*
X984681Y2150103D01*
X982183Y2149650D01*
X979685Y2149190D01*
X977189Y2148724D01*
X974694Y2148252D01*
X972200Y2147773D01*
X969707Y2147288D01*
X967216Y2146797D01*
X964725Y2146299D01*
X962236Y2145795D01*
X959749Y2145284D01*
X957262Y2144767D01*
X954778Y2144244D01*
X952294Y2143715D01*
X949811Y2143179D01*
X947330Y2142637D01*
X944851Y2142089D01*
X942373Y2141534D01*
X939896Y2140973D01*
X937421Y2140405D01*
X934947Y2139832D01*
X932475Y2139252D01*
X930004Y2138666D01*
X927534Y2138073D01*
X925066Y2137475D01*
X922600Y2136869D01*
X920135Y2136258D01*
X917672Y2135641D01*
X915210Y2135017D01*
X912750Y2134386D01*
X910292Y2133750D01*
X907835Y2133107D01*
X905380Y2132458D01*
X902926Y2131803D01*
X900474Y2131142D01*
X898024Y2130474D01*
X895576Y2129800D01*
X893129Y2129120D01*
X890684Y2128434D01*
X888241Y2127741D01*
X885799Y2127043D01*
X883360Y2126338D01*
X880922Y2125626D01*
X878486Y2124909D01*
X876052Y2124185D01*
X873619Y2123456D01*
X871189Y2122720D01*
X868760Y2121977D01*
X866334Y2121229D01*
X863909Y2120474D01*
X861486Y2119714D01*
X859065Y2118947D01*
X856646Y2118174D01*
X854229Y2117395D01*
X851814Y2116609D01*
X849401Y2115818D01*
X846990Y2115020D01*
X844581Y2114216D01*
X842174Y2113407D01*
X839769Y2112590D01*
X837367Y2111768D01*
X834966Y2110940D01*
X832568Y2110106D01*
X830171Y2109265D01*
X827777Y2108419D01*
X825385Y2107566D01*
X822995Y2106707D01*
X820607Y2105842D01*
X818222Y2104972D01*
X815839Y2104095D01*
X813458Y2103212D01*
X811079Y2102323D01*
X808702Y2101427D01*
X806328Y2100526D01*
X803956Y2099619D01*
X801587Y2098706D01*
X799220Y2097786D01*
X796854Y2096861D01*
X794492Y2095930D01*
X792132Y2094992D01*
X789774Y2094049D01*
X787419Y2093100D01*
X785066Y2092144D01*
X782715Y2091183D01*
X780367Y2090216D01*
X778022Y2089242D01*
X775679Y2088263D01*
X773338Y2087278D01*
X771000Y2086287D01*
X768664Y2085290D01*
X766331Y2084286D01*
X764001Y2083277D01*
X761673Y2082263D01*
X759348Y2081242D01*
X757025Y2080215D01*
X754705Y2079182D01*
X752388Y2078144D01*
X750073Y2077099D01*
X747761Y2076049D01*
X745452Y2074993D01*
X743145Y2073930D01*
X740841Y2072862D01*
X738540Y2071788D01*
X736241Y2070709D01*
X733945Y2069623D01*
X731652Y2068532D01*
X729362Y2067435D01*
X727075Y2066332D01*
X724790Y2065223D01*
X722508Y2064108D01*
X720230Y2062987D01*
X717953Y2061861D01*
X715680Y2060729D01*
X713410Y2059591D01*
X711143Y2058448D01*
X708878Y2057298D01*
X706617Y2056143D01*
X704358Y2054982D01*
X702103Y2053815D01*
X699850Y2052643D01*
X697600Y2051465D01*
X695353Y2050281D01*
X693110Y2049091D01*
X690869Y2047896D01*
X688632Y2046695D01*
X686397Y2045488D01*
X684166Y2044276D01*
X681938Y2043058D01*
X679713Y2041834D01*
X677490Y2040605D01*
X675271Y2039370D01*
X673056Y2038129D01*
X670843Y2036883D01*
X668634Y2035631D01*
X666427Y2034373D01*
X664224Y2033110D01*
X662025Y2031841D01*
X659828Y2030567D01*
X657635Y2029287D01*
X655445Y2028001D01*
X653258Y2026710D01*
X651074Y2025413D01*
X648894Y2024111D01*
X646717Y2022803D01*
X644544Y2021490D01*
X642374Y2020171D01*
X640207Y2018847D01*
X638044Y2017517D01*
X635883Y2016181D01*
X633727Y2014841D01*
X631574Y2013494D01*
X629424Y2012142D01*
X627277Y2010785D01*
X625135Y2009422D01*
X622995Y2008054D01*
X620859Y2006680D01*
X618727Y2005301D01*
X616598Y2003917D01*
X614473Y2002527D01*
X612351Y2001131D01*
X610233Y1999731D01*
X608118Y1998325D01*
X606007Y1996913D01*
X603900Y1995496D01*
X601796Y1994074D01*
X599696Y1992646D01*
X597599Y1991213D01*
X595506Y1989775D01*
X593417Y1988332D01*
X591331Y1986883D01*
X589249Y1985428D01*
X587171Y1983969D01*
X585097Y1982504D01*
X583026Y1981034D01*
X580959Y1979559D01*
X578896Y1978078D01*
X576836Y1976592D01*
X574781Y1975101D01*
X572729Y1973605D01*
X570681Y1972103D01*
X568637Y1970597D01*
X566596Y1969085D01*
X564560Y1967567D01*
X562527Y1966045D01*
X560499Y1964518D01*
X558474Y1962985D01*
X556453Y1961447D01*
X554436Y1959904D01*
X552423Y1958356D01*
X550414Y1956803D01*
X548408Y1955245D01*
X546407Y1953681D01*
X544410Y1952113D01*
X542416Y1950539D01*
X540427Y1948961D01*
X538442Y1947377D01*
X536461Y1945788D01*
X534483Y1944194D01*
X532510Y1942595D01*
X530541Y1940991D01*
X528576Y1939382D01*
X526615Y1937769D01*
X524659Y1936150D01*
X522706Y1934526D01*
X520758Y1932897D01*
X518813Y1931263D01*
X516873Y1929624D01*
X514937Y1927981D01*
X513005Y1926332D01*
X511078Y1924678D01*
X509154Y1923020D01*
X507235Y1921357D01*
X505320Y1919689D01*
X503410Y1918016D01*
X501503Y1916338D01*
X499601Y1914655D01*
X497704Y1912967D01*
X495810Y1911275D01*
X493921Y1909578D01*
X492036Y1907876D01*
X490155Y1906169D01*
X488279Y1904457D01*
X486407Y1902741D01*
X484540Y1901020D01*
X482677Y1899294D01*
X480818Y1897563D01*
X478964Y1895828D01*
X477114Y1894088D01*
X475269Y1892343D01*
X473428Y1890593D01*
X471592Y1888839D01*
X469760Y1887080D01*
X467932Y1885317D01*
X466109Y1883549D01*
X464291Y1881776D01*
X462477Y1879999D01*
X460667Y1878217D01*
X458862Y1876430D01*
X457062Y1874639D01*
X455266Y1872843D01*
X453475Y1871043D01*
X451688Y1869238D01*
X449906Y1867428D01*
X448129Y1865614D01*
X446356Y1863796D01*
X444588Y1861973D01*
X442824Y1860145D01*
X441066Y1858313D01*
X439311Y1856477D01*
X437562Y1854636D01*
X435817Y1852791D01*
X434077Y1850941D01*
X432342Y1849087D01*
X430611Y1847228D01*
X428885Y1845365D01*
X427164Y1843498D01*
X425448Y1841626D01*
X423736Y1839750D01*
X422029Y1837869D01*
X420327Y1835984D01*
X418630Y1834095D01*
X416937Y1832202D01*
X415250Y1830304D01*
X413567Y1828402D01*
X411889Y1826495D01*
X410216Y1824585D01*
X408548Y1822670D01*
X406884Y1820751D01*
X405226Y1818828D01*
X403572Y1816900D01*
X401924Y1814968D01*
X400280Y1813032D01*
X398641Y1811092D01*
X397008Y1809148D01*
X395379Y1807199D01*
X393755Y1805247D01*
X392136Y1803290D01*
X390522Y1801329D01*
X388913Y1799364D01*
X387309Y1797395D01*
X385710Y1795422D01*
X384116Y1793445D01*
X382528Y1791464D01*
X380944Y1789478D01*
X379365Y1787489D01*
X377791Y1785496D01*
X376223Y1783498D01*
X374659Y1781497D01*
X373101Y1779492D01*
X371548Y1777483D01*
X370000Y1775469D01*
X368456Y1773452D01*
X366919Y1771431D01*
X365386Y1769406D01*
X363858Y1767377D01*
X362336Y1765345D01*
X360819Y1763308D01*
X359307Y1761268D01*
X357800Y1759223D01*
X356298Y1757175D01*
X354802Y1755123D01*
X353311Y1753068D01*
X351825Y1751008D01*
X350344Y1748945D01*
X348869Y1746878D01*
X347398Y1744807D01*
X345934Y1742732D01*
X344474Y1740654D01*
X343020Y1738572D01*
X341571Y1736487D01*
X340127Y1734397D01*
X338689Y1732304D01*
X337256Y1730207D01*
X335828Y1728107D01*
X334406Y1726003D01*
X332989Y1723896D01*
X331577Y1721784D01*
X330171Y1719670D01*
X328770Y1717551D01*
X327375Y1715429D01*
X325985Y1713304D01*
X324600Y1711175D01*
X323221Y1709043D01*
X321847Y1706906D01*
X320479Y1704767D01*
X319116Y1702624D01*
X317759Y1700478D01*
X316407Y1698328D01*
X315060Y1696174D01*
X313719Y1694018D01*
X312384Y1691858D01*
X311054Y1689694D01*
X309729Y1687527D01*
X308410Y1685357D01*
X307097Y1683183D01*
X305789Y1681006D01*
X304487Y1678826D01*
X303190Y1676642D01*
X301899Y1674456D01*
X300613Y1672265D01*
X299333Y1670072D01*
X298059Y1667875D01*
X296790Y1665675D01*
X295527Y1663472D01*
X294269Y1661266D01*
X293017Y1659056D01*
X291771Y1656844D01*
X290530Y1654628D01*
X289295Y1652409D01*
X288065Y1650186D01*
X286842Y1647961D01*
X285623Y1645733D01*
X284411Y1643501D01*
X283204Y1641266D01*
X282003Y1639029D01*
X280808Y1636788D01*
X279618Y1634545D01*
X278434Y1632298D01*
X277256Y1630048D01*
X276084Y1627795D01*
X274917Y1625539D01*
X273756Y1623281D01*
X272600Y1621019D01*
X271451Y1618754D01*
X270307Y1616487D01*
X269169Y1614217D01*
X268037Y1611943D01*
X266911Y1609667D01*
X265790Y1607388D01*
X264676Y1605106D01*
X263567Y1602822D01*
X262463Y1600534D01*
X261366Y1598244D01*
X260275Y1595950D01*
X259189Y1593655D01*
X258109Y1591356D01*
X257036Y1589055D01*
X255968Y1586750D01*
X254905Y1584444D01*
X253849Y1582134D01*
X252799Y1579822D01*
X251754Y1577507D01*
X250715Y1575190D01*
X249683Y1572869D01*
X248656Y1570547D01*
X247635Y1568221D01*
X246620Y1565893D01*
X245611Y1563563D01*
X244608Y1561230D01*
X243611Y1558894D01*
X242619Y1556556D01*
X241634Y1554215D01*
X240655Y1551872D01*
X239682Y1549526D01*
X238714Y1547178D01*
X237753Y1544827D01*
X236798Y1542474D01*
X235848Y1540119D01*
X234905Y1537761D01*
X233967Y1535401D01*
X233036Y1533038D01*
X232111Y1530673D01*
X231191Y1528306D01*
X230278Y1525936D01*
X229371Y1523564D01*
X228470Y1521189D01*
X227574Y1518813D01*
X226685Y1516434D01*
X225802Y1514053D01*
X224925Y1511669D01*
X224054Y1509284D01*
X223189Y1506896D01*
X222331Y1504506D01*
X221478Y1502114D01*
X220631Y1499719D01*
X219791Y1497323D01*
X218957Y1494924D01*
X218128Y1492523D01*
X217306Y1490121D01*
X216490Y1487716D01*
X215680Y1485309D01*
X214876Y1482900D01*
X214079Y1480488D01*
X213287Y1478075D01*
X212502Y1475660D01*
X211723Y1473243D01*
X210950Y1470824D01*
X210183Y1468403D01*
X209422Y1465980D01*
X208668Y1463555D01*
X207919Y1461128D01*
X207177Y1458699D01*
X206441Y1456269D01*
X205711Y1453836D01*
X204988Y1451402D01*
X204270Y1448966D01*
X203559Y1446528D01*
X202854Y1444088D01*
X202155Y1441646D01*
X201462Y1439203D01*
X200776Y1436758D01*
X200096Y1434311D01*
X199422Y1431862D01*
X198755Y1429412D01*
X198093Y1426960D01*
X197438Y1424507D01*
X196789Y1422051D01*
X196146Y1419594D01*
X195510Y1417136D01*
X194880Y1414675D01*
X194256Y1412214D01*
X193638Y1409750D01*
X193027Y1407285D01*
X192422Y1404819D01*
X191823Y1402351D01*
X191231Y1399881D01*
X190644Y1397410D01*
X190065Y1394938D01*
X189491Y1392464D01*
X188924Y1389988D01*
X188363Y1387511D01*
X187808Y1385033D01*
X187260Y1382554D01*
X186717Y1380072D01*
X186182Y1377590D01*
X185652Y1375106D01*
X185129Y1372621D01*
X184612Y1370134D01*
X184102Y1367647D01*
X183598Y1365158D01*
X183100Y1362667D01*
X182609Y1360176D01*
X182124Y1357683D01*
X181645Y1355189D01*
X181172Y1352693D01*
X180706Y1350197D01*
X180247Y1347699D01*
X179793Y1345200D01*
X179346Y1342700D01*
X178906Y1340199D01*
X178472Y1337697D01*
X178044Y1335194D01*
X177622Y1332689D01*
X177207Y1330184D01*
X176798Y1327677D01*
X176396Y1325170D01*
X176000Y1322661D01*
X175611Y1320152D01*
X175228Y1317641D01*
X174851Y1315130D01*
X174480Y1312617D01*
X174116Y1310104D01*
X173759Y1307590D01*
X173408Y1305074D01*
X173063Y1302558D01*
X172724Y1300041D01*
X172393Y1297523D01*
X172067Y1295005D01*
X171748Y1292485D01*
X171435Y1289965D01*
X171129Y1287444D01*
X170829Y1284922D01*
X170536Y1282399D01*
X170249Y1279876D01*
X169968Y1277352D01*
X169694Y1274827D01*
X169426Y1272302D01*
X169165Y1269776D01*
X168910Y1267249D01*
X168661Y1264721D01*
X168419Y1262193D01*
X168184Y1259665D01*
X167955Y1257135D01*
X167732Y1254606D01*
X167516Y1252075D01*
X167306Y1249544D01*
X167103Y1247013D01*
X166906Y1244481D01*
X166715Y1241948D01*
X166531Y1239415D01*
X166353Y1236882D01*
X166182Y1234348D01*
X166018Y1231814D01*
X165860Y1229279D01*
X165708Y1226744D01*
X165562Y1224209D01*
X165424Y1221673D01*
X165291Y1219137D01*
X165165Y1216600D01*
X165046Y1214063D01*
X164933Y1211526D01*
X164826Y1208989D01*
X164726Y1206451D01*
X164632Y1203913D01*
X164545Y1201375D01*
X164464Y1198837D01*
X164390Y1196298D01*
X164322Y1193760D01*
X164261Y1191221D01*
X164206Y1188682D01*
X164158Y1186143D01*
X164116Y1183603D01*
X164080Y1181064D01*
X164051Y1178525D01*
X164029Y1175985D01*
X164013Y1173446D01*
X164003Y1170906D01*
X164000Y1168366D01*
X164003Y1165827D01*
X164013Y1163287D01*
X164029Y1160748D01*
X164052Y1158208D01*
X164081Y1155668D01*
X164117Y1153129D01*
X164159Y1150590D01*
X164208Y1148051D01*
X164263Y1145512D01*
X164324Y1142973D01*
X164392Y1140434D01*
X164466Y1137896D01*
X164547Y1135357D01*
X164635Y1132819D01*
X164729Y1130281D01*
X164829Y1127744D01*
X164936Y1125206D01*
X165049Y1122669D01*
X165168Y1120132D01*
X165295Y1117596D01*
X165427Y1115060D01*
X165566Y1112524D01*
X165712Y1109988D01*
X165864Y1107453D01*
X166022Y1104919D01*
X166187Y1102384D01*
X166358Y1099851D01*
X166536Y1097317D01*
X166720Y1094784D01*
X166911Y1092252D01*
X167108Y1089720D01*
X167311Y1087188D01*
X167521Y1084658D01*
X167738Y1082127D01*
X167961Y1079597D01*
X168190Y1077068D01*
X168426Y1074539D01*
X168668Y1072011D01*
X168916Y1069484D01*
X169172Y1066957D01*
X169433Y1064431D01*
X169701Y1061906D01*
X169975Y1059381D01*
X170256Y1056857D01*
X170543Y1054334D01*
X170837Y1051811D01*
X171137Y1049289D01*
X171443Y1046768D01*
X171756Y1044248D01*
X172076Y1041728D01*
X172401Y1039210D01*
X172733Y1036692D01*
X173072Y1034175D01*
X173417Y1031659D01*
X173768Y1029144D01*
X174126Y1026629D01*
X174490Y1024116D01*
X174861Y1021604D01*
X175238Y1019092D01*
X175621Y1016582D01*
X176011Y1014072D01*
X176407Y1011563D01*
X176809Y1009056D01*
X177218Y1006550D01*
X177633Y1004044D01*
X178055Y1001540D01*
X178483Y999036D01*
X178918Y996534D01*
X179358Y994033D01*
X179805Y991533D01*
X180259Y989034D01*
X180719Y986537D01*
X181185Y984040D01*
X181657Y981545D01*
X182136Y979051D01*
X182622Y976558D01*
X183113Y974067D01*
X183611Y971576D01*
X184115Y969087D01*
X184626Y966599D01*
X185143Y964113D01*
X185666Y961628D01*
X186196Y959144D01*
X186732Y956662D01*
X187274Y954181D01*
X187822Y951701D01*
X188377Y949223D01*
X188939Y946746D01*
X189506Y944270D01*
X190080Y941796D01*
X190660Y939324D01*
X191246Y936853D01*
X191839Y934383D01*
X192438Y931916D01*
X193043Y929449D01*
X193655Y926984D01*
X194272Y924521D01*
X194896Y922059D01*
X195527Y919599D01*
X196163Y917140D01*
X196806Y914684D01*
X197455Y912228D01*
X198111Y909775D01*
X198772Y907323D01*
X199440Y904873D01*
X200114Y902424D01*
X200794Y899977D01*
X201481Y897532D01*
X202174Y895089D01*
X202873Y892647D01*
X203578Y890207D01*
X204289Y887769D01*
X205007Y885333D01*
X205730Y882899D01*
X206460Y880467D01*
X207197Y878036D01*
X207939Y875607D01*
X208687Y873180D01*
X209442Y870756D01*
X210203Y868333D01*
X210970Y865912D01*
X211743Y863493D01*
X212523Y861076D01*
X213308Y858661D01*
X214100Y856247D01*
X214898Y853836D01*
X215702Y851427D01*
X216512Y849020D01*
X217328Y846616D01*
X218150Y844213D01*
X218979Y841812D01*
X219813Y839414D01*
X220654Y837017D01*
X221500Y834623D01*
X222353Y832231D01*
X223212Y829841D01*
X224077Y827453D01*
X224948Y825067D01*
X225826Y822684D01*
X226709Y820303D01*
X227598Y817924D01*
X228493Y815547D01*
X229395Y813173D01*
X230302Y810801D01*
X231216Y808432D01*
X232135Y806064D01*
X233061Y803699D01*
X233992Y801337D01*
X234930Y798977D01*
X235873Y796619D01*
X236823Y794263D01*
X237778Y791910D01*
X238740Y789560D01*
X239707Y787212D01*
X240681Y784866D01*
X241660Y782523D01*
X242646Y780182D01*
X243637Y777844D01*
X244634Y775508D01*
X245638Y773175D01*
X246647Y770845D01*
X247662Y768517D01*
X248683Y766192D01*
X249710Y763869D01*
X250743Y761549D01*
X251782Y759231D01*
X252826Y756917D01*
X253877Y754604D01*
X254933Y752295D01*
X255996Y749988D01*
X257064Y747684D01*
X258138Y745383D01*
X259218Y743084D01*
X260304Y740789D01*
X261395Y738495D01*
X262493Y736205D01*
X263596Y733918D01*
X264705Y731633D01*
X265820Y729351D01*
X266941Y727072D01*
X268067Y724796D01*
X269200Y722523D01*
X270338Y720253D01*
X271481Y717985D01*
X272631Y715721D01*
X273787Y713459D01*
X274948Y711201D01*
X276115Y708945D01*
X277287Y706692D01*
X278466Y704443D01*
X279650Y702196D01*
X280840Y699952D01*
X282035Y697712D01*
X283236Y695474D01*
X284443Y693240D01*
X285656Y691008D01*
X286874Y688780D01*
X288098Y686554D01*
X289328Y684332D01*
X290563Y682113D01*
X291804Y679898D01*
X293050Y677685D01*
X294302Y675476D01*
X295560Y673269D01*
X296824Y671066D01*
X298092Y668866D01*
X299367Y666670D01*
X300647Y664476D01*
X301933Y662286D01*
X303224Y660100D01*
X304521Y657916D01*
X305824Y655736D01*
X307132Y653559D01*
X308445Y651385D01*
X309764Y649215D01*
X311089Y647048D01*
X312419Y644885D01*
X313755Y642725D01*
X315096Y640568D01*
X316442Y638415D01*
X317794Y636265D01*
X319152Y634119D01*
X320515Y631976D01*
X321884Y629837D01*
X323257Y627701D01*
X324637Y625568D01*
X326021Y623440D01*
X327412Y621314D01*
X328807Y619192D01*
X330208Y617074D01*
X331614Y614959D01*
X333026Y612848D01*
X334443Y610741D01*
X335866Y608637D01*
X337294Y606537D01*
X338727Y604440D01*
X340165Y602347D01*
X341609Y600258D01*
X343058Y598172D01*
X344513Y596091D01*
X345972Y594012D01*
X347438Y591938D01*
X348908Y589867D01*
X350383Y587800D01*
X351864Y585737D01*
X353350Y583678D01*
X354841Y581622D01*
X356338Y579570D01*
X357840Y577522D01*
X359347Y575478D01*
X360859Y573438D01*
X362376Y571401D01*
X363899Y569369D01*
X365426Y567340D01*
X366959Y565315D01*
X368497Y563294D01*
X370041Y561277D01*
X371589Y559264D01*
X373142Y557255D01*
X374701Y555250D01*
X376264Y553248D01*
X377833Y551251D01*
X379407Y549258D01*
X380986Y547269D01*
X382570Y545284D01*
X384159Y543303D01*
X385753Y541325D01*
X387352Y539352D01*
X388956Y537384D01*
X390565Y535419D01*
X392179Y533458D01*
X393798Y531501D01*
X395422Y529549D01*
X397051Y527601D01*
X398685Y525656D01*
X400324Y523716D01*
X401968Y521781D01*
X403616Y519849D01*
X405270Y517921D01*
X406928Y515998D01*
X408592Y514079D01*
X410260Y512164D01*
X411934Y510254D01*
X413611Y508348D01*
X415294Y506446D01*
X416982Y504548D01*
X418675Y502655D01*
X420372Y500765D01*
X422074Y498881D01*
X423781Y497000D01*
X425493Y495124D01*
X427210Y493253D01*
X428931Y491385D01*
X430657Y489523D01*
X432388Y487664D01*
X434123Y485810D01*
X435863Y483960D01*
X437608Y482115D01*
X439358Y480274D01*
X441112Y478438D01*
X442871Y476606D01*
X444635Y474779D01*
X446403Y472956D01*
X448176Y471137D01*
X449953Y469324D01*
X451736Y467514D01*
X453522Y465709D01*
X455314Y463909D01*
X457110Y462114D01*
X458910Y460322D01*
X460715Y458536D01*
X462525Y456754D01*
X464339Y454977D01*
X466157Y453204D01*
X467981Y451436D01*
X469808Y449673D01*
X471640Y447914D01*
X473477Y446160D01*
X475318Y444411D01*
X477163Y442666D01*
X479013Y440926D01*
X480868Y439191D01*
X482726Y437460D01*
X484590Y435735D01*
X486457Y434014D01*
X488329Y432297D01*
X490205Y430586D01*
X492086Y428879D01*
X493971Y427177D01*
X495860Y425480D01*
X497754Y423788D01*
X499652Y422100D01*
X501554Y420418D01*
X503461Y418740D01*
X505371Y417067D01*
X507286Y415399D01*
X509206Y413736D01*
X511129Y412077D01*
X513057Y410424D01*
X514989Y408776D01*
X516925Y407132D01*
X518865Y405494D01*
X520809Y403860D01*
X522758Y402231D01*
X524711Y400607D01*
X526668Y398989D01*
X528628Y397375D01*
X530593Y395766D01*
X532563Y394162D01*
X534536Y392564D01*
X536513Y390970D01*
X538494Y389381D01*
X540480Y387798D01*
X542469Y386219D01*
X544463Y384645D01*
X546460Y383077D01*
X548462Y381514D01*
X550467Y379955D01*
X552476Y378402D01*
X554490Y376854D01*
X556507Y375311D01*
X558528Y373774D01*
X560553Y372241D01*
X562582Y370714D01*
X564615Y369191D01*
X566651Y367674D01*
X568692Y366162D01*
X570737Y364656D01*
X572785Y363154D01*
X574837Y361658D01*
X576893Y360167D01*
X578952Y358681D01*
X581016Y357201D01*
X583083Y355726D01*
X585154Y354255D01*
X587228Y352791D01*
X589307Y351331D01*
X591389Y349877D01*
X593475Y348428D01*
X595564Y346985D01*
X597657Y345547D01*
X599754Y344114D01*
X601855Y342686D01*
X603959Y341264D01*
X606066Y339847D01*
X608177Y338436D01*
X610292Y337030D01*
X612411Y335629D01*
X614533Y334234D01*
X616658Y332844D01*
X618787Y331460D01*
X620920Y330080D01*
X623056Y328707D01*
X625196Y327339D01*
X627339Y325976D01*
X629485Y324619D01*
X631635Y323267D01*
X633789Y321921D01*
X635946Y320580D01*
X638106Y319245D01*
X640269Y317915D01*
X642436Y316591D01*
X644607Y315272D01*
X646780Y313959D01*
X648958Y312651D01*
X651138Y311349D01*
X653322Y310052D01*
X655509Y308761D01*
X657699Y307476D01*
X659892Y306196D01*
X662089Y304921D01*
X664289Y303653D01*
X666492Y302390D01*
X668699Y301132D01*
X670909Y299880D01*
X673121Y298634D01*
X675337Y297394D01*
X677557Y296159D01*
X679779Y294929D01*
X682004Y293706D01*
X684233Y292488D01*
X686464Y291276D01*
X688699Y290069D01*
X690937Y288868D01*
X693177Y287673D01*
X695421Y286483D01*
X697668Y285300D01*
X699918Y284122D01*
X702171Y282949D01*
X704427Y281783D01*
X706685Y280622D01*
X708947Y279467D01*
X711212Y278318D01*
X713480Y277174D01*
X715750Y276036D01*
X718023Y274904D01*
X720300Y273778D01*
X722579Y272658D01*
X724861Y271543D01*
X727145Y270434D01*
X729433Y269331D01*
X731723Y268234D01*
X734017Y267143D01*
X736313Y266057D01*
X738611Y264978D01*
X740913Y263904D01*
X743217Y262836D01*
X745524Y261774D01*
X747834Y260718D01*
X750146Y259668D01*
X752461Y258624D01*
X754778Y257585D01*
X757099Y256553D01*
X759421Y255526D01*
X761747Y254505D01*
X764075Y253490D01*
X766406Y252481D01*
X768739Y251479D01*
X771075Y250482D01*
X773413Y249491D01*
X775754Y248505D01*
X778097Y247526D01*
X780443Y246553D01*
X782791Y245586D01*
X785142Y244625D01*
X787495Y243670D01*
X789850Y242720D01*
X792208Y241777D01*
X794569Y240840D01*
X796931Y239909D01*
X799296Y238984D01*
X801664Y238064D01*
X804034Y237151D01*
X806406Y236244D01*
X808780Y235343D01*
X811157Y234448D01*
X813536Y233559D01*
X815917Y232676D01*
X818300Y231800D01*
X820686Y230929D01*
X823074Y230064D01*
X825464Y229206D01*
X827856Y228353D01*
X830251Y227507D01*
X832647Y226666D01*
X835046Y225832D01*
X837447Y225004D01*
X839850Y224182D01*
X842255Y223366D01*
X844662Y222556D01*
X847071Y221753D01*
X849482Y220956D01*
X851895Y220164D01*
X854311Y219379D01*
X856728Y218600D01*
X859147Y217827D01*
X861568Y217060D01*
X863991Y216300D01*
X866416Y215546D01*
X868843Y214797D01*
X871272Y214055D01*
X873702Y213319D01*
X876135Y212590D01*
X878569Y211866D01*
X881006Y211149D01*
X883444Y210438D01*
X885883Y209733D01*
X888325Y209035D01*
X890769Y208342D01*
X893214Y207656D01*
X895661Y206976D01*
X898109Y206303D01*
X900560Y205635D01*
X903012Y204974D01*
X905465Y204319D01*
X907921Y203670D01*
X910378Y203028D01*
X912836Y202391D01*
X915297Y201761D01*
X917758Y201138D01*
X920222Y200520D01*
X922686Y199909D01*
X925153Y199304D01*
X927621Y198706D01*
X930091Y198113D01*
X932562Y197527D01*
X935034Y196948D01*
X937508Y196374D01*
X939984Y195807D01*
X942461Y195246D01*
X944939Y194692D01*
X947419Y194144D01*
X949900Y193602D01*
X952383Y193066D01*
X954866Y192537D01*
X957352Y192014D01*
X959838Y191497D01*
X962326Y190987D01*
X964815Y190483D01*
X967305Y189986D01*
X969797Y189494D01*
X972290Y189009D01*
X974784Y188531D01*
X977279Y188059D01*
X979776Y187593D01*
X982274Y187133D01*
X984772Y186680D01*
X987272Y186234D01*
X989774Y185793D01*
X992276Y185359D01*
X994779Y184931D01*
X997284Y184510D01*
X999789Y184095D01*
X1002296Y183687D01*
X1004803Y183285D01*
X1007312Y182889D01*
X1009821Y182499D01*
X1012332Y182117D01*
X1014844Y181740D01*
X1017356Y181370D01*
X1019870Y181006D01*
X1022384Y180648D01*
X1024899Y180298D01*
X1027415Y179953D01*
X1029932Y179615D01*
X1032450Y179283D01*
X1034969Y178958D01*
X1037488Y178639D01*
X1040009Y178326D01*
X1042530Y178020D01*
X1045052Y177720D01*
X1047574Y177427D01*
X1050098Y177140D01*
X1052622Y176860D01*
X1055146Y176586D01*
X1057672Y176318D01*
X1060198Y176057D01*
X1062725Y175802D01*
X1065252Y175554D01*
X1067780Y175312D01*
X1070309Y175077D01*
X1072838Y174848D01*
X1075368Y174626D01*
X1077899Y174410D01*
X1080430Y174200D01*
X1082961Y173997D01*
X1085493Y173800D01*
X1088026Y173610D01*
X1090558Y173426D01*
X1093092Y173248D01*
X1095626Y173078D01*
X1098160Y172913D01*
X1100695Y172755D01*
X1103230Y172603D01*
X1105765Y172458D01*
X1108301Y172320D01*
X1110837Y172187D01*
X1113374Y172062D01*
X1115911Y171942D01*
X1118448Y171829D01*
X1120985Y171723D01*
X1123523Y171623D01*
X1126061Y171530D01*
X1128599Y171443D01*
X1131137Y171362D01*
X1133676Y171288D01*
X1136214Y171220D01*
X1138753Y171159D01*
X1141292Y171105D01*
X1143831Y171056D01*
X1146371Y171015D01*
X1148910Y170979D01*
X1151450Y170951D01*
X1153989Y170928D01*
X1156529Y170912D01*
X1159068Y170903D01*
X1161608Y170900D01*
X1164147Y170903D01*
X1166687Y170914D01*
X1169227Y170930D01*
X1171766Y170953D01*
X1174306Y170982D01*
X1176845Y171018D01*
X1179384Y171060D01*
X1181923Y171109D01*
X1184462Y171164D01*
X1187001Y171226D01*
X1189540Y171294D01*
X1192078Y171369D01*
X1194617Y171450D01*
X1197155Y171537D01*
X1199693Y171631D01*
X1202230Y171732D01*
X1204768Y171839D01*
X1207305Y171952D01*
X1209842Y172072D01*
X1212378Y172198D01*
X1214914Y172331D01*
X1217450Y172470D01*
X1219986Y172616D01*
X1222521Y172768D01*
X1225055Y172927D01*
X1227589Y173092D01*
X1230123Y173263D01*
X1232657Y173441D01*
X1235190Y173626D01*
X1237722Y173816D01*
X1240254Y174014D01*
X1242785Y174217D01*
X1245316Y174428D01*
X1247847Y174644D01*
X1250376Y174867D01*
X1252906Y175097D01*
X1255434Y175333D01*
X1257962Y175575D01*
X1260490Y175824D01*
X1263017Y176079D01*
X1265543Y176341D01*
X1268068Y176609D01*
X1270593Y176884D01*
X1273117Y177164D01*
X1275640Y177452D01*
X1278163Y177746D01*
X1280684Y178046D01*
X1283206Y178353D01*
X1285726Y178666D01*
X1288245Y178985D01*
X1290764Y179311D01*
X1293282Y179643D01*
X1295798Y179982D01*
X1298315Y180327D01*
X1300830Y180679D01*
X1303344Y181037D01*
X1305857Y181401D01*
X1308370Y181772D01*
X1310881Y182149D01*
X1313392Y182532D01*
X1315901Y182922D01*
X1318410Y183319D01*
X1320917Y183721D01*
X1323424Y184130D01*
X1325929Y184546D01*
X1328433Y184967D01*
X1330937Y185396D01*
X1333439Y185830D01*
X1335940Y186271D01*
X1338440Y186719D01*
X1340939Y187172D01*
X1343436Y187632D01*
X1345932Y188099D01*
X1348428Y188571D01*
X1350922Y189050D01*
X1353415Y189536D01*
X1355906Y190028D01*
X1358396Y190526D01*
X1360885Y191030D01*
X1363373Y191541D01*
X1365860Y192058D01*
X1368345Y192582D01*
X1370828Y193111D01*
X1373311Y193647D01*
X1375792Y194190D01*
X1378271Y194739D01*
X1380750Y195294D01*
X1383226Y195855D01*
X1385702Y196423D01*
X1388176Y196997D01*
X1390648Y197577D01*
X1393119Y198164D01*
X1395589Y198756D01*
X1398056Y199356D01*
X1400523Y199961D01*
X1402988Y200573D01*
X1405451Y201190D01*
X1407913Y201815D01*
X1410373Y202445D01*
X1412831Y203082D01*
X1415288Y203725D01*
X1417743Y204374D01*
X1420197Y205030D01*
X1422649Y205692D01*
X1425099Y206360D01*
X1427547Y207034D01*
X1429994Y207714D01*
X1432439Y208401D01*
X1434883Y209094D01*
X1437324Y209793D01*
X1439764Y210498D01*
X1442202Y211210D01*
X1444638Y211928D01*
X1447072Y212652D01*
X1449504Y213382D01*
X1451935Y214118D01*
X1454364Y214861D01*
X1456790Y215609D01*
X1459215Y216364D01*
X1461638Y217125D01*
X1464059Y217893D01*
X1466478Y218666D01*
X1468895Y219445D01*
X1471310Y220231D01*
X1473723Y221023D01*
X1476134Y221821D01*
X1478543Y222625D01*
X1480950Y223435D01*
X1483355Y224252D01*
X1485757Y225074D01*
X1488158Y225903D01*
X1490556Y226738D01*
X1492953Y227578D01*
X1495347Y228425D01*
X1497739Y229278D01*
X1500129Y230138D01*
X1502517Y231003D01*
X1504902Y231874D01*
X1507286Y232751D01*
X1509667Y233635D01*
X1512045Y234524D01*
X1514422Y235420D01*
X1516796Y236321D01*
X1519168Y237229D01*
X1521537Y238142D01*
X1523905Y239062D01*
X1526270Y239988D01*
X1528632Y240919D01*
X1530992Y241857D01*
X1533350Y242801D01*
X1535706Y243751D01*
X1538058Y244706D01*
X1540409Y245668D01*
X1542757Y246636D01*
X1545103Y247609D01*
X1547446Y248589D01*
X1549786Y249575D01*
X1552124Y250566D01*
X1554460Y251564D01*
X1556793Y252567D01*
X1559123Y253576D01*
X1561451Y254592D01*
X1563776Y255613D01*
X1566099Y256640D01*
X1568419Y257673D01*
X1570736Y258712D01*
X1573051Y259757D01*
X1575363Y260808D01*
X1577672Y261864D01*
X1579979Y262927D01*
X1582283Y263995D01*
X1584584Y265070D01*
X1586883Y266150D01*
X1589178Y267236D01*
X1591471Y268327D01*
X1593761Y269425D01*
X1596049Y270528D01*
X1598333Y271638D01*
X1600615Y272753D01*
X1602894Y273874D01*
X1605170Y275000D01*
X1607443Y276133D01*
X1609713Y277271D01*
X1611981Y278415D01*
X1614245Y279565D01*
X1616507Y280720D01*
X1618765Y281882D01*
X1621021Y283049D01*
X1623273Y284221D01*
X1625523Y285400D01*
X1627770Y286584D01*
X1630013Y287774D01*
X1632254Y288970D01*
X1634491Y290171D01*
X1636726Y291378D01*
X1638957Y292591D01*
X1641185Y293810D01*
X1643410Y295034D01*
X1645632Y296264D01*
X1647851Y297499D01*
X1650067Y298740D01*
X1652280Y299987D01*
X1654489Y301239D01*
X1656695Y302497D01*
X1658898Y303761D01*
X1661098Y305030D01*
X1663294Y306304D01*
X1665488Y307585D01*
X1667677Y308871D01*
X1669864Y310162D01*
X1672048Y311459D01*
X1674228Y312762D01*
X1676405Y314070D01*
X1678578Y315384D01*
X1680748Y316703D01*
X1682915Y318028D01*
X1685078Y319358D01*
X1687238Y320694D01*
X1689395Y322035D01*
X1691548Y323382D01*
X1693697Y324734D01*
X1695844Y326092D01*
X1697986Y327455D01*
X1700126Y328824D01*
X1702261Y330198D01*
X1704394Y331577D01*
X1706523Y332962D01*
X1708648Y334352D01*
X1710769Y335748D01*
X1712888Y337149D01*
X1715002Y338556D01*
X1717113Y339967D01*
X1719220Y341385D01*
X1721324Y342807D01*
X1723424Y344235D01*
X1725521Y345669D01*
X1727614Y347107D01*
X1729703Y348551D01*
X1731788Y350001D01*
X1733870Y351455D01*
X1735948Y352915D01*
X1738022Y354380D01*
X1740093Y355851D01*
X1742160Y357327D01*
X1744223Y358807D01*
X1746282Y360294D01*
X1748338Y361785D01*
X1750390Y363282D01*
X1752437Y364784D01*
X1754482Y366291D01*
X1756522Y367803D01*
X1758558Y369321D01*
X1760591Y370843D01*
X1762619Y372371D01*
X1764644Y373904D01*
X1766665Y375442D01*
X1768682Y376986D01*
X1770695Y378534D01*
X1772704Y380088D01*
X1774709Y381646D01*
X1776710Y383210D01*
X1778707Y384779D01*
X1780700Y386353D01*
X1782689Y387932D01*
X1784674Y389516D01*
X1786655Y391105D01*
X1788632Y392699D01*
X1790605Y394298D01*
X1792574Y395903D01*
X1794539Y397512D01*
X1796499Y399126D01*
X1798456Y400745D01*
X1800408Y402369D01*
X1802356Y403998D01*
X1804300Y405633D01*
X1806240Y407272D01*
X1808176Y408916D01*
X1810108Y410564D01*
X1812035Y412218D01*
X1813958Y413877D01*
X1815877Y415541D01*
X1817791Y417209D01*
X1819702Y418882D01*
X1821608Y420561D01*
X1823510Y422244D01*
X1825407Y423932D01*
X1827301Y425624D01*
X1829189Y427322D01*
X1831074Y429024D01*
X1832954Y430731D01*
X1834830Y432443D01*
X1836702Y434160D01*
X1838569Y435881D01*
X1840432Y437607D01*
X1842290Y439338D01*
X1844144Y441074D01*
X1845994Y442814D01*
X1847839Y444559D01*
X1849680Y446309D01*
X1851516Y448064D01*
X1853347Y449823D01*
X1855175Y451586D01*
X1856997Y453355D01*
X1858816Y455128D01*
X1860629Y456906D01*
X1862439Y458688D01*
X1864243Y460475D01*
X1866043Y462266D01*
X1867839Y464062D01*
X1869630Y465863D01*
X1871416Y467668D01*
X1873198Y469478D01*
X1874975Y471292D01*
X1876747Y473111D01*
X1878515Y474934D01*
X1880278Y476762D01*
X1882037Y478594D01*
X1883791Y480431D01*
X1885540Y482272D01*
X1887285Y484117D01*
X1889025Y485967D01*
X1890760Y487822D01*
X1892490Y489681D01*
X1894216Y491544D01*
X1895936Y493412D01*
X1897653Y495284D01*
X1899364Y497160D01*
X1901071Y499041D01*
X1902772Y500926D01*
X1904469Y502816D01*
X1906161Y504709D01*
X1907849Y506607D01*
X1909531Y508510D01*
X1911209Y510416D01*
X1912882Y512327D01*
X1914550Y514242D01*
X1916213Y516162D01*
X1917871Y518085D01*
X1919524Y520013D01*
X1921172Y521945D01*
X1922816Y523881D01*
X1924454Y525822D01*
X1926088Y527766D01*
X1927716Y529715D01*
X1929340Y531668D01*
X1930959Y533625D01*
X1932572Y535586D01*
X1934181Y537551D01*
X1935784Y539520D01*
X1937383Y541493D01*
X1938977Y543471D01*
X1940565Y545452D01*
X1942149Y547438D01*
X1943727Y549427D01*
X1945300Y551421D01*
X1946869Y553419D01*
X1948432Y555420D01*
X1949990Y557425D01*
X1951543Y559435D01*
X1953091Y561448D01*
X1954633Y563466D01*
X1956171Y565487D01*
X1957704Y567512D01*
X1959231Y569541D01*
X1960753Y571574D01*
X1962270Y573611D01*
X1963781Y575652D01*
X1965288Y577696D01*
X1966789Y579744D01*
X1968286Y581797D01*
X1969776Y583853D01*
X1971262Y585912D01*
X1972742Y587976D01*
X1974218Y590043D01*
X1975687Y592114D01*
X1977152Y594189D01*
X1978611Y596268D01*
X1980065Y598350D01*
X1981514Y600436D01*
X1982957Y602525D01*
X1984395Y604618D01*
X1985828Y606715D01*
X1987255Y608816D01*
X1988677Y610920D01*
X1990094Y613028D01*
X1991505Y615139D01*
X1992911Y617254D01*
X1994312Y619373D01*
X1995707Y621495D01*
X1997097Y623620D01*
X1998481Y625750D01*
X1999860Y627882D01*
X2001233Y630019D01*
X2002601Y632158D01*
X2003964Y634301D01*
X2005321Y636448D01*
X2006672Y638598D01*
X2008018Y640752D01*
X2009359Y642908D01*
X2010694Y645069D01*
X2012024Y647233D01*
X2013348Y649400D01*
X2014667Y651570D01*
X2015980Y653744D01*
X2017287Y655921D01*
X2018589Y658102D01*
X2019886Y660285D01*
X2021176Y662473D01*
X2022462Y664663D01*
X2023741Y666857D01*
X2025016Y669053D01*
X2026284Y671253D01*
X2027547Y673457D01*
X2028804Y675663D01*
X2030056Y677873D01*
X2031302Y680086D01*
X2032543Y682302D01*
X2033777Y684521D01*
X2035006Y686744D01*
X2036230Y688969D01*
X2037448Y691198D01*
X2038660Y693429D01*
X2039866Y695664D01*
X2041067Y697902D01*
X2042262Y700143D01*
X2043451Y702387D01*
X2044635Y704634D01*
X2045813Y706884D01*
X2046985Y709137D01*
X2048151Y711393D01*
X2049312Y713652D01*
X2050467Y715913D01*
X2051616Y718178D01*
X2052759Y720446D01*
X2053897Y722716D01*
X2055029Y724990D01*
X2056155Y727266D01*
X2057275Y729545D01*
X2058389Y731827D01*
X2059498Y734112D01*
X2060601Y736400D01*
X2061698Y738690D01*
X2062789Y740984D01*
X2063874Y743280D01*
X2064953Y745579D01*
X2066027Y747880D01*
X2067095Y750184D01*
X2068157Y752491D01*
X2069213Y754801D01*
X2070263Y757113D01*
X2071307Y759428D01*
X2072345Y761746D01*
X2073378Y764066D01*
X2074404Y766389D01*
X2075424Y768715D01*
X2076439Y771043D01*
X2077448Y773374D01*
X2078451Y775707D01*
X2079447Y778043D01*
X2080438Y780381D01*
X2081423Y782722D01*
X2082402Y785065D01*
X2083375Y787411D01*
X2084342Y789760D01*
X2085303Y792110D01*
X2086258Y794463D01*
X2087207Y796819D01*
X2088150Y799177D01*
X2089087Y801537D01*
X2090018Y803900D01*
X2090943Y806265D01*
X2091862Y808633D01*
X2092775Y811003D01*
X2093682Y813375D01*
X2094583Y815750D01*
X2095478Y818126D01*
X2096367Y820505D01*
X2097249Y822887D01*
X2098126Y825270D01*
X2098996Y827656D01*
X2099861Y830044D01*
X2100719Y832434D01*
X2101572Y834826D01*
X2102418Y837221D01*
X2103258Y839617D01*
X2104092Y842016D01*
X2104920Y844417D01*
X2105742Y846820D01*
X2106557Y849225D01*
X2107367Y851632D01*
X2108170Y854041D01*
X2108968Y856453D01*
X2109759Y858866D01*
X2110544Y861281D01*
X2111323Y863698D01*
X2112095Y866117D01*
X2112862Y868539D01*
X2113622Y870962D01*
X2114376Y873387D01*
X2115124Y875814D01*
X2115866Y878243D01*
X2116602Y880673D01*
X2117331Y883106D01*
X2118055Y885540D01*
X2118772Y887977D01*
X2119483Y890415D01*
X2120187Y892855D01*
X2120886Y895296D01*
X2121578Y897740D01*
X2122264Y900185D01*
X2122944Y902632D01*
X2123617Y905081D01*
X2124284Y907531D01*
X2124945Y909983D01*
X2125600Y912437D01*
X2126249Y914892D01*
X2126891Y917349D01*
X2127527Y919808D01*
X2128157Y922268D01*
X2128780Y924730D01*
X2129398Y927194D01*
X2130009Y929659D01*
X2130613Y932125D01*
X2131212Y934594D01*
X2131804Y937063D01*
X2132390Y939534D01*
X2132969Y942007D01*
X2133542Y944481D01*
X2134109Y946956D01*
X2134670Y949433D01*
X2135224Y951912D01*
X2135772Y954391D01*
X2136314Y956873D01*
X2136849Y959355D01*
X2137379Y961839D01*
X2137901Y964324D01*
X2138418Y966811D01*
X2138928Y969299D01*
X2139431Y971788D01*
X2139929Y974278D01*
X2140420Y976770D01*
X2140905Y979263D01*
X2141383Y981757D01*
X2141855Y984252D01*
X2142321Y986749D01*
X2142780Y989247D01*
X2143233Y991746D01*
X2143680Y994246D01*
X2144120Y996747D01*
X2144554Y999249D01*
X2144981Y1001753D01*
X2145402Y1004257D01*
X2145817Y1006763D01*
X2146225Y1009269D01*
X2146627Y1011777D01*
X2147023Y1014285D01*
X2147412Y1016795D01*
X2147795Y1019306D01*
X2148171Y1021817D01*
X2148541Y1024330D01*
X2148905Y1026843D01*
X2149262Y1029358D01*
X2149613Y1031873D01*
X2149957Y1034389D01*
X2150295Y1036906D01*
X2150627Y1039424D01*
X2150952Y1041943D01*
X2151270Y1044462D01*
X2151583Y1046982D01*
X2151889Y1049504D01*
X2152188Y1052026D01*
X2152481Y1054548D01*
X2152768Y1057072D01*
X2153048Y1059596D01*
X2153322Y1062120D01*
X2153589Y1064646D01*
X2153850Y1067172D01*
X2154105Y1069699D01*
X2154353Y1072226D01*
X2154595Y1074754D01*
X2154830Y1077283D01*
X2155058Y1079812D01*
X2155281Y1082342D01*
X2155497Y1084873D01*
X2155706Y1087404D01*
X2155909Y1089935D01*
X2156106Y1092467D01*
X2156296Y1095000D01*
X2156479Y1097533D01*
X2156657Y1100066D01*
X2156827Y1102600D01*
X2156992Y1105134D01*
X2157150Y1107669D01*
X2157301Y1110204D01*
X2157446Y1112740D01*
X2157584Y1115275D01*
X2157716Y1117812D01*
X2157842Y1120348D01*
X2157961Y1122885D01*
X2158074Y1125422D01*
X2158180Y1127959D01*
X2158280Y1130497D01*
X2158373Y1133035D01*
X2158460Y1135573D01*
X2158540Y1138111D01*
X2158614Y1140650D01*
X2158681Y1143189D01*
X2158742Y1145728D01*
X2158797Y1148267D01*
X2158845Y1150806D01*
X2158886Y1153345D01*
X2158922Y1155884D01*
X2158950Y1158424D01*
X2158972Y1160964D01*
X2158988Y1163503D01*
X2158997Y1166043D01*
X2159000Y1168400D01*
M02*
