%FSLAX44Y44*%
%MOMM*%
G71*
G01*
G75*
G04 Layer_Physical_Order=1*
G04 Layer_Color=255*
%ADD10C,0.2032*%
%ADD11R,0.9500X0.9000*%
%ADD12R,0.9500X0.9000*%
%ADD13R,0.6000X2.2000*%
%ADD14R,0.6000X2.2000*%
%ADD15R,2.3000X2.3000*%
%ADD16R,1.5000X1.3000*%
%ADD17R,1.3000X1.5000*%
%ADD18R,2.1500X3.5000*%
%ADD19R,2.1500X1.1000*%
%ADD20R,2.1500X1.1000*%
%ADD21C,0.7620*%
%ADD22C,0.5080*%
%ADD23C,0.2540*%
%ADD24C,2.8000*%
%ADD25C,3.0000*%
%ADD26R,1.5000X1.5000*%
%ADD27C,1.5000*%
%ADD28R,1.5000X1.5000*%
%ADD29C,1.2700*%
D10*
X324626Y416560D02*
X324453Y419087D01*
X323938Y421566D01*
X323090Y423953D01*
X321925Y426201D01*
X320464Y428270D01*
X318736Y430121D01*
X316771Y431720D01*
X314607Y433036D01*
X312284Y434045D01*
X309845Y434728D01*
X307336Y435073D01*
X304804D01*
X302295Y434728D01*
X299856Y434045D01*
X297533Y433036D01*
X295369Y431720D01*
X293405Y430121D01*
X291676Y428270D01*
X290215Y426201D01*
X289050Y423953D01*
X288202Y421566D01*
X287687Y419087D01*
X287514Y416560D01*
X287687Y414033D01*
X288202Y411554D01*
X289050Y409167D01*
X290215Y406919D01*
X291676Y404850D01*
X293405Y402999D01*
X295369Y401400D01*
X297533Y400084D01*
X299856Y399075D01*
X302295Y398392D01*
X304804Y398047D01*
X307336D01*
X309845Y398392D01*
X312284Y399075D01*
X314607Y400084D01*
X316771Y401400D01*
X318735Y402999D01*
X320464Y404850D01*
X321925Y406919D01*
X323090Y409167D01*
X323938Y411554D01*
X324453Y414033D01*
X324626Y416560D01*
Y416560D02*
X324453Y419087D01*
X323938Y421566D01*
X323090Y423953D01*
X321925Y426201D01*
X320464Y428270D01*
X318736Y430121D01*
X316771Y431720D01*
X314607Y433036D01*
X312284Y434045D01*
X309845Y434728D01*
X307336Y435073D01*
X304804D01*
X302295Y434728D01*
X299856Y434045D01*
X297533Y433036D01*
X295369Y431720D01*
X293405Y430121D01*
X291676Y428270D01*
X290215Y426201D01*
X289050Y423953D01*
X288202Y421566D01*
X287687Y419087D01*
X287514Y416560D01*
X287687Y414033D01*
X288202Y411554D01*
X289050Y409167D01*
X290215Y406919D01*
X291676Y404850D01*
X293405Y402999D01*
X295369Y401400D01*
X297533Y400084D01*
X299856Y399075D01*
X302295Y398392D01*
X304804Y398047D01*
X307336D01*
X309845Y398392D01*
X312284Y399075D01*
X314607Y400084D01*
X316771Y401400D01*
X318735Y402999D01*
X320464Y404850D01*
X321925Y406919D01*
X323090Y409167D01*
X323938Y411554D01*
X324453Y414033D01*
X324626Y416560D01*
X316492Y436888D02*
X318469Y435566D01*
X320802Y435102D01*
X316492Y436888D02*
X318469Y435566D01*
X320802Y435102D01*
X304976Y472007D02*
X302665Y472937D01*
X300205Y473325D01*
X297720Y473154D01*
X295336Y472430D01*
X293175Y471191D01*
X291346Y469499D01*
X289943Y467441D01*
X289035Y465121D01*
X288670Y462657D01*
X288866Y460174D01*
X289613Y457798D01*
X290873Y455649D01*
X292582Y453837D01*
X294654Y452453D01*
X296983Y451568D01*
X299450Y451227D01*
X301931Y451447D01*
X317372Y459612D02*
X319761Y458015D01*
X322580Y457454D01*
X317372Y459612D02*
X319761Y458015D01*
X322580Y457454D01*
X310553Y460069D02*
X310776Y462280D01*
X310438Y464991D01*
X309447Y467536D01*
X378559Y445762D02*
X376126Y447252D01*
X378559Y445762D02*
X376126Y447252D01*
X307086Y515265D02*
X307746Y518312D01*
X307086Y515265D02*
X307746Y518312D01*
X293014Y520699D02*
X292354Y517652D01*
X293014Y520699D02*
X292354Y517652D01*
X313284Y526948D02*
X313748Y524615D01*
X315070Y522637D01*
X313284Y526948D02*
X313748Y524615D01*
X315070Y522637D01*
X337566Y514858D02*
X337102Y517191D01*
X335780Y519169D01*
X337566Y514858D02*
X337102Y517191D01*
X335780Y519169D01*
X334525Y539249D02*
X336503Y537928D01*
X338836Y537464D01*
X334525Y539249D02*
X336503Y537928D01*
X338836Y537464D01*
X387096Y527964D02*
X389429Y528428D01*
X391407Y529749D01*
X387096Y527964D02*
X389429Y528428D01*
X391407Y529749D01*
X338066Y552951D02*
X336089Y554272D01*
X333756Y554736D01*
X338066Y552951D02*
X336089Y554272D01*
X333756Y554736D01*
X395344Y550008D02*
X392946Y548530D01*
X418300Y402749D02*
X420277Y401428D01*
X422610Y400964D01*
X419600Y418691D02*
X416376Y420379D01*
X419600Y418691D02*
X416376Y420379D01*
X418300Y402749D02*
X420277Y401428D01*
X422610Y400964D01*
X423416Y426866D02*
X424287Y426121D01*
X423416Y426866D02*
X424287Y426121D01*
X456976Y474980D02*
X456789Y477536D01*
X456232Y480038D01*
X455316Y482432D01*
X454062Y484667D01*
X452495Y486695D01*
X450650Y488474D01*
X448566Y489966D01*
X446286Y491138D01*
X443861Y491965D01*
X441340Y492431D01*
X438779Y492524D01*
X436231Y492244D01*
X433751Y491596D01*
X431393Y490593D01*
X429205Y489258D01*
X427235Y487619D01*
X425524Y485710D01*
X424110Y483572D01*
X423022Y481251D01*
X422284Y478797D01*
X421911Y476261D01*
Y473699D01*
X422284Y471163D01*
X423022Y468708D01*
X424110Y466388D01*
X425524Y464250D01*
X427235Y462341D01*
X429205Y460702D01*
X431393Y459367D01*
X433751Y458364D01*
X436231Y457716D01*
X438779Y457436D01*
X441340Y457529D01*
X443861Y457995D01*
X446286Y458822D01*
X448566Y459994D01*
X450650Y461486D01*
X452495Y463265D01*
X454062Y465293D01*
X455316Y467528D01*
X456232Y469922D01*
X456789Y472424D01*
X456976Y474980D01*
X497840Y418694D02*
X500659Y419255D01*
X503049Y420852D01*
X497840Y418694D02*
X500659Y419255D01*
X503049Y420852D01*
X513740Y449326D02*
X510921Y448765D01*
X508531Y447169D01*
X513740Y449326D02*
X510921Y448765D01*
X508531Y447169D01*
X567334Y424790D02*
X567895Y421971D01*
X569491Y419582D01*
X567334Y424790D02*
X567895Y421971D01*
X569491Y419582D01*
X567194Y463436D02*
X567334Y462008D01*
X567194Y463436D02*
X567334Y462008D01*
X456976Y474980D02*
X456789Y477536D01*
X456232Y480038D01*
X455316Y482432D01*
X454062Y484667D01*
X452495Y486695D01*
X450650Y488474D01*
X448566Y489966D01*
X446286Y491138D01*
X443861Y491965D01*
X441340Y492431D01*
X438779Y492524D01*
X436231Y492244D01*
X433751Y491596D01*
X431393Y490593D01*
X429205Y489258D01*
X427235Y487619D01*
X425524Y485710D01*
X424110Y483572D01*
X423022Y481251D01*
X422284Y478797D01*
X421911Y476261D01*
Y473699D01*
X422284Y471163D01*
X423022Y468708D01*
X424110Y466388D01*
X425524Y464250D01*
X427235Y462341D01*
X429205Y460702D01*
X431393Y459367D01*
X433751Y458364D01*
X436231Y457716D01*
X438779Y457436D01*
X441340Y457529D01*
X443861Y457995D01*
X446286Y458822D01*
X448566Y459994D01*
X450650Y461486D01*
X452495Y463265D01*
X454062Y465293D01*
X455316Y467528D01*
X456232Y469922D01*
X456789Y472424D01*
X456976Y474980D01*
X395344Y550008D02*
X392946Y548530D01*
X520700Y557124D02*
X523033Y557588D01*
X525010Y558910D01*
X520700Y557124D02*
X523033Y557588D01*
X525010Y558910D01*
X537710Y571610D02*
X539032Y573587D01*
X539496Y575920D01*
X537710Y571610D02*
X539032Y573587D01*
X539496Y575920D01*
X354489Y653549D02*
X356467Y652228D01*
X358800Y651764D01*
X354489Y653549D02*
X356467Y652228D01*
X358800Y651764D01*
X356870Y684124D02*
X359203Y684588D01*
X361180Y685910D01*
X356870Y684124D02*
X359203Y684588D01*
X361180Y685910D01*
X361950Y701396D02*
X359617Y700932D01*
X357640Y699611D01*
X361950Y701396D02*
X359617Y700932D01*
X357640Y699611D01*
X363476Y716364D02*
X363971Y714123D01*
X365260Y712224D01*
X363476Y716364D02*
X363971Y714123D01*
X365260Y712224D01*
X404676Y701675D02*
X404212Y704008D01*
X402890Y705985D01*
X404676Y701675D02*
X404212Y704008D01*
X402890Y705985D01*
X399461Y709415D02*
X397484Y710736D01*
X395151Y711200D01*
X399461Y709415D02*
X397484Y710736D01*
X395151Y711200D01*
X393954Y723900D02*
X394515Y721081D01*
X396111Y718691D01*
X393954Y723900D02*
X394515Y721081D01*
X396111Y718691D01*
X309447Y746584D02*
X310438Y749129D01*
X310776Y751840D01*
X310653Y753482D01*
X302476Y762547D02*
X299976Y762893D01*
X297463Y762663D01*
X295067Y761869D01*
X292914Y760553D01*
X291116Y758783D01*
X289765Y756650D01*
X288934Y754268D01*
X288664Y751758D01*
X288971Y749253D01*
X289837Y746883D01*
X291219Y744771D01*
X293043Y743028D01*
X295216Y741743D01*
X297623Y740985D01*
X300139Y740792D01*
X302634Y741175D01*
X304976Y742113D01*
X328930Y763016D02*
X326111Y762455D01*
X323722Y760859D01*
X328930Y763016D02*
X326111Y762455D01*
X323722Y760859D01*
X324626Y810260D02*
X324453Y812787D01*
X323938Y815266D01*
X323090Y817653D01*
X321925Y819901D01*
X320464Y821971D01*
X318736Y823821D01*
X316771Y825420D01*
X314607Y826736D01*
X312284Y827745D01*
X309845Y828428D01*
X307336Y828773D01*
X304804D01*
X302295Y828428D01*
X299856Y827745D01*
X297533Y826736D01*
X295369Y825420D01*
X293405Y823821D01*
X291676Y821971D01*
X290215Y819901D01*
X289050Y817653D01*
X288202Y815266D01*
X287687Y812787D01*
X287514Y810260D01*
X287687Y807733D01*
X288202Y805254D01*
X289050Y802867D01*
X290215Y800619D01*
X291676Y798550D01*
X293405Y796699D01*
X295369Y795100D01*
X297533Y793784D01*
X299856Y792775D01*
X302295Y792092D01*
X304804Y791747D01*
X307336D01*
X309845Y792092D01*
X312284Y792775D01*
X314607Y793784D01*
X316771Y795100D01*
X318735Y796699D01*
X320464Y798549D01*
X321925Y800619D01*
X323090Y802867D01*
X323938Y805254D01*
X324453Y807733D01*
X324626Y810260D01*
Y810260D02*
X324453Y812787D01*
X323938Y815266D01*
X323090Y817653D01*
X321925Y819901D01*
X320464Y821971D01*
X318736Y823821D01*
X316771Y825420D01*
X314607Y826736D01*
X312284Y827745D01*
X309845Y828428D01*
X307336Y828773D01*
X304804D01*
X302295Y828428D01*
X299856Y827745D01*
X297533Y826736D01*
X295369Y825420D01*
X293405Y823821D01*
X291676Y821971D01*
X290215Y819901D01*
X289050Y817653D01*
X288202Y815266D01*
X287687Y812787D01*
X287514Y810260D01*
X287687Y807733D01*
X288202Y805254D01*
X289050Y802867D01*
X290215Y800619D01*
X291676Y798550D01*
X293405Y796699D01*
X295369Y795100D01*
X297533Y793784D01*
X299856Y792775D01*
X302295Y792092D01*
X304804Y791747D01*
X307336D01*
X309845Y792092D01*
X312284Y792775D01*
X314607Y793784D01*
X316771Y795100D01*
X318735Y796699D01*
X320464Y798549D01*
X321925Y800619D01*
X323090Y802867D01*
X323938Y805254D01*
X324453Y807733D01*
X324626Y810260D01*
X386990Y748284D02*
X389809Y748845D01*
X392198Y750442D01*
X386990Y748284D02*
X389809Y748845D01*
X392198Y750442D01*
X414020Y651764D02*
X416353Y652228D01*
X418330Y653549D01*
X414020Y651764D02*
X416353Y652228D01*
X418330Y653549D01*
X406886Y680140D02*
X408932Y681489D01*
X406886Y680140D02*
X408932Y681489D01*
X404391Y710412D02*
X406781Y708815D01*
X409600Y708254D01*
X404391Y710412D02*
X406781Y708815D01*
X409600Y708254D01*
X486911Y722130D02*
X488232Y724107D01*
X488696Y726440D01*
X486911Y722130D02*
X488232Y724107D01*
X488696Y726440D01*
X456976Y751840D02*
X456789Y754396D01*
X456232Y756898D01*
X455316Y759292D01*
X454062Y761527D01*
X452495Y763555D01*
X450650Y765334D01*
X448566Y766826D01*
X446286Y767998D01*
X443861Y768825D01*
X441340Y769291D01*
X438779Y769384D01*
X436231Y769104D01*
X433751Y768456D01*
X431393Y767453D01*
X429205Y766118D01*
X427235Y764479D01*
X425524Y762570D01*
X424110Y760432D01*
X423022Y758111D01*
X422284Y755657D01*
X421911Y753121D01*
Y750558D01*
X422284Y748023D01*
X423022Y745568D01*
X424110Y743248D01*
X425524Y741110D01*
X427235Y739201D01*
X429205Y737562D01*
X431393Y736227D01*
X433751Y735224D01*
X436231Y734576D01*
X438779Y734296D01*
X441340Y734389D01*
X443861Y734855D01*
X446286Y735682D01*
X448566Y736854D01*
X450650Y738346D01*
X452495Y740125D01*
X454062Y742153D01*
X455316Y744388D01*
X456232Y746782D01*
X456789Y749284D01*
X456976Y751840D01*
X456789Y754396D01*
X456232Y756898D01*
X455316Y759292D01*
X454062Y761527D01*
X452495Y763555D01*
X450650Y765334D01*
X448566Y766826D01*
X446286Y767998D01*
X443861Y768825D01*
X441340Y769291D01*
X438779Y769384D01*
X436231Y769104D01*
X433751Y768456D01*
X431393Y767453D01*
X429205Y766118D01*
X427235Y764479D01*
X425524Y762570D01*
X424110Y760432D01*
X423022Y758111D01*
X422284Y755657D01*
X421911Y753121D01*
Y750558D01*
X422284Y748023D01*
X423022Y745568D01*
X424110Y743248D01*
X425524Y741110D01*
X427235Y739201D01*
X429205Y737562D01*
X431393Y736227D01*
X433751Y735224D01*
X436231Y734576D01*
X438779Y734296D01*
X441340Y734389D01*
X443861Y734855D01*
X446286Y735682D01*
X448566Y736854D01*
X450650Y738346D01*
X452495Y740125D01*
X454062Y742153D01*
X455316Y744388D01*
X456232Y746782D01*
X456789Y749284D01*
X456976Y751840D01*
X417830Y808884D02*
X420163Y809348D01*
X422141Y810669D01*
X425824Y804568D02*
X424351Y803428D01*
X425824Y804568D02*
X424351Y803428D01*
X417830Y808884D02*
X420163Y809348D01*
X422141Y810669D01*
X420070Y823316D02*
X418121Y822996D01*
X416376Y822069D01*
X420070Y823316D02*
X418121Y822996D01*
X416376Y822069D01*
X519056Y817880D02*
X518833Y820091D01*
X539496Y808656D02*
X541564Y810424D01*
X543137Y812644D01*
X544121Y815180D01*
X544456Y817880D01*
X510211Y828713D02*
X507640Y828930D01*
X505087Y828546D01*
X502694Y827579D01*
X500589Y826085D01*
X498889Y824143D01*
X497685Y821860D01*
X497043Y819360D01*
X496999Y816779D01*
X497554Y814258D01*
X498678Y811935D01*
X500311Y809936D01*
X502362Y808370D01*
X504721Y807321D01*
X507258Y806849D01*
X509836Y806978D01*
X512314Y807700D01*
X514557Y808978D01*
X516442Y810741D01*
X517867Y812893D01*
X518755Y815317D01*
X519056Y817880D01*
X544456D02*
X544205Y820221D01*
X543464Y822457D01*
X542267Y824484D01*
X524533D02*
X523250Y822264D01*
X522514Y819808D01*
X522362Y817249D01*
X522804Y814724D01*
X523816Y812368D01*
X525343Y810309D01*
X527304Y808656D01*
X569856Y817880D02*
X569605Y820221D01*
X568864Y822457D01*
X567667Y824484D01*
X549933D02*
X548633Y822224D01*
X547899Y819723D01*
X547770Y817119D01*
X548255Y814557D01*
X549327Y812180D01*
X550925Y810120D01*
X552961Y808492D01*
X555321Y807385D01*
X557876Y806863D01*
X560481Y806953D01*
X562993Y807650D01*
X565272Y808916D01*
X567191Y810681D01*
X568643Y812846D01*
X569549Y815291D01*
X569856Y817880D01*
X582802Y406272D02*
X585191Y404675D01*
X588010Y404114D01*
X582802Y406272D02*
X585191Y404675D01*
X588010Y404114D01*
X601355D02*
X603155Y402497D01*
X605264Y401310D01*
X607580Y400610D01*
X609994Y400431D01*
X612388Y400781D01*
X614649Y401644D01*
X616668Y402978D01*
X618348Y404719D01*
X619609Y406785D01*
X620391Y409075D01*
X620656Y411480D01*
X610221Y422519D02*
X607749Y422380D01*
X605369Y421694D01*
X603202Y420496D01*
X601355Y418846D01*
X582066Y463296D02*
X581926Y464724D01*
X582066Y463296D02*
X581926Y464724D01*
X624180Y433426D02*
X621361Y432865D01*
X618972Y431269D01*
X624180Y433426D02*
X621361Y432865D01*
X618972Y431269D01*
X737570Y415396D02*
X735237Y414932D01*
X733260Y413611D01*
X737570Y415396D02*
X735237Y414932D01*
X733260Y413611D01*
X735330Y400964D02*
X737663Y401428D01*
X739641Y402749D01*
X735330Y400964D02*
X737663Y401428D01*
X739641Y402749D01*
X728680Y418694D02*
X731499Y419255D01*
X733889Y420852D01*
X728680Y418694D02*
X731499Y419255D01*
X733889Y420852D01*
X732641Y468613D02*
X733932Y466871D01*
X732641Y468613D02*
X733932Y466871D01*
X598678Y524904D02*
X601011Y525368D01*
X602989Y526690D01*
X598678Y524904D02*
X601011Y525368D01*
X602989Y526690D01*
X611238Y549656D02*
X608905Y549192D01*
X606927Y547870D01*
X611238Y549656D02*
X608905Y549192D01*
X606927Y547870D01*
X731774Y483235D02*
X730402Y485409D01*
X728728Y487360D01*
X726787Y489045D01*
X724620Y490428D01*
X722275Y491481D01*
X719801Y492179D01*
X717252Y492509D01*
X714681Y492463D01*
X712145Y492042D01*
X709698Y491255D01*
X707392Y490120D01*
X705276Y488660D01*
X703397Y486906D01*
X701793Y484897D01*
X700500Y482675D01*
X699546Y480288D01*
X698950Y477788D01*
X698726Y475227D01*
X698878Y472661D01*
X699403Y470144D01*
X700290Y467732D01*
X701520Y465475D01*
X703066Y463421D01*
X704896Y461615D01*
X706970Y460096D01*
X709243Y458896D01*
X711667Y458041D01*
X714190Y457549D01*
X716758Y457430D01*
X719316Y457688D01*
X721808Y458317D01*
X724182Y459303D01*
X726387Y460625D01*
X728375Y462255D01*
X730103Y464157D01*
X731536Y466292D01*
X732641Y468613D01*
X731774Y483235D02*
X730402Y485409D01*
X728728Y487360D01*
X726787Y489045D01*
X724620Y490428D01*
X722275Y491481D01*
X719801Y492179D01*
X717252Y492509D01*
X714681Y492463D01*
X712145Y492042D01*
X709698Y491255D01*
X707392Y490120D01*
X705276Y488660D01*
X703397Y486906D01*
X701793Y484897D01*
X700500Y482675D01*
X699546Y480288D01*
X698950Y477788D01*
X698726Y475227D01*
X698878Y472661D01*
X699403Y470144D01*
X700290Y467732D01*
X701520Y465475D01*
X703066Y463421D01*
X704896Y461615D01*
X706970Y460096D01*
X709243Y458896D01*
X711667Y458041D01*
X714190Y457549D01*
X716758Y457430D01*
X719316Y457688D01*
X721808Y458317D01*
X724182Y459303D01*
X726387Y460625D01*
X728375Y462255D01*
X730103Y464157D01*
X731536Y466292D01*
X732641Y468613D01*
X733932Y553189D02*
X732335Y550799D01*
X731774Y547980D01*
X733932Y553189D02*
X732335Y550799D01*
X731774Y547980D01*
X745864Y564656D02*
X744091Y563349D01*
X745864Y564656D02*
X744091Y563349D01*
X775060Y479806D02*
X772241Y479245D01*
X769852Y477649D01*
X775060Y479806D02*
X772241Y479245D01*
X769852Y477649D01*
X868186Y416560D02*
X868013Y419087D01*
X867498Y421566D01*
X866650Y423953D01*
X865485Y426201D01*
X864024Y428270D01*
X862296Y430121D01*
X860331Y431720D01*
X858167Y433036D01*
X855844Y434045D01*
X853405Y434728D01*
X850896Y435073D01*
X848364D01*
X845855Y434728D01*
X843416Y434045D01*
X841093Y433036D01*
X838929Y431720D01*
X836964Y430121D01*
X835236Y428270D01*
X833775Y426201D01*
X832610Y423953D01*
X831762Y421566D01*
X831247Y419087D01*
X831074Y416560D01*
X831247Y414033D01*
X831762Y411554D01*
X832610Y409167D01*
X833775Y406919D01*
X835236Y404850D01*
X836964Y402999D01*
X838929Y401400D01*
X841093Y400084D01*
X843416Y399075D01*
X845855Y398392D01*
X848364Y398047D01*
X850896D01*
X853405Y398392D01*
X855844Y399075D01*
X858167Y400084D01*
X860331Y401400D01*
X862295Y402999D01*
X864024Y404850D01*
X865485Y406919D01*
X866650Y409167D01*
X867498Y411554D01*
X868013Y414033D01*
X868186Y416560D01*
Y416560D02*
X868013Y419087D01*
X867498Y421566D01*
X866650Y423953D01*
X865485Y426201D01*
X864024Y428270D01*
X862296Y430121D01*
X860331Y431720D01*
X858167Y433036D01*
X855844Y434045D01*
X853405Y434728D01*
X850896Y435073D01*
X848364D01*
X845855Y434728D01*
X843416Y434045D01*
X841093Y433036D01*
X838929Y431720D01*
X836964Y430121D01*
X835236Y428270D01*
X833775Y426201D01*
X832610Y423953D01*
X831762Y421566D01*
X831247Y419087D01*
X831074Y416560D01*
X831247Y414033D01*
X831762Y411554D01*
X832610Y409167D01*
X833775Y406919D01*
X835236Y404850D01*
X836964Y402999D01*
X838929Y401400D01*
X841093Y400084D01*
X843416Y399075D01*
X845855Y398392D01*
X848364Y398047D01*
X850896D01*
X853405Y398392D01*
X855844Y399075D01*
X858167Y400084D01*
X860331Y401400D01*
X862295Y402999D01*
X864024Y404850D01*
X865485Y406919D01*
X866650Y409167D01*
X867498Y411554D01*
X868013Y414033D01*
X868186Y416560D01*
X821352Y465074D02*
X820674Y462280D01*
X821352Y465074D02*
X820674Y462280D01*
X849296Y456184D02*
X850949Y454223D01*
X853009Y452695D01*
X855366Y451683D01*
X857893Y451242D01*
X860453Y451394D01*
X862909Y452133D01*
X865129Y453417D01*
X866994Y455178D01*
X868402Y457322D01*
X869278Y459733D01*
X869576Y462280D01*
X869286Y464796D01*
X868431Y467180D01*
X867056Y469307D01*
X865233Y471065D01*
X863057Y472362D01*
X860644Y473130D01*
X858119Y473329D01*
X855615Y472948D01*
X853264Y472007D01*
X768604Y533044D02*
X770937Y533508D01*
X772915Y534829D01*
X768604Y533044D02*
X770937Y533508D01*
X772915Y534829D01*
X784044Y526702D02*
X782953Y524849D01*
X782574Y522732D01*
X784044Y526702D02*
X782953Y524849D01*
X782574Y522732D01*
X794766Y520232D02*
X795857Y522085D01*
X796236Y524202D01*
X794766Y520232D02*
X795857Y522085D01*
X796236Y524202D01*
X778104Y554736D02*
X775771Y554272D01*
X773794Y552951D01*
X778104Y554736D02*
X775771Y554272D01*
X773794Y552951D01*
X609244Y653136D02*
X609708Y650803D01*
X611029Y648826D01*
X609244Y653136D02*
X609708Y650803D01*
X611029Y648826D01*
X641756Y632816D02*
X641292Y635149D01*
X639970Y637127D01*
X641756Y632816D02*
X641292Y635149D01*
X639970Y637127D01*
X633865Y673869D02*
X635842Y672548D01*
X638175Y672084D01*
X633865Y673869D02*
X635842Y672548D01*
X638175Y672084D01*
X628651Y679824D02*
X630030Y677704D01*
X628651Y679824D02*
X630030Y677704D01*
X608584Y713892D02*
X609244Y711133D01*
X608584Y713892D02*
X609244Y711133D01*
X621436Y713232D02*
X620776Y715991D01*
X621436Y713232D02*
X620776Y715991D01*
X670535Y672084D02*
X672868Y672548D01*
X674846Y673869D01*
X670535Y672084D02*
X672868Y672548D01*
X674846Y673869D01*
X679291Y678315D02*
X680395Y679824D01*
X679291Y678315D02*
X680395Y679824D01*
X737082Y696491D02*
X739471Y694895D01*
X742290Y694334D01*
X737082Y696491D02*
X739471Y694895D01*
X742290Y694334D01*
X729234Y707390D02*
X729795Y704571D01*
X731392Y702181D01*
X729234Y707390D02*
X729795Y704571D01*
X731392Y702181D01*
Y739629D02*
X729795Y737239D01*
X729234Y734420D01*
X731392Y739629D02*
X729795Y737239D01*
X729234Y734420D01*
X608584Y771224D02*
X606724Y769677D01*
X605244Y767762D01*
X604217Y765571D01*
X603690Y763210D01*
Y760790D01*
X604217Y758429D01*
X605244Y756238D01*
X606724Y754323D01*
X608584Y752776D01*
X620776Y752776D02*
X622844Y754544D01*
X624417Y756764D01*
X625401Y759300D01*
X625736Y762000D01*
X625401Y764700D01*
X624417Y767236D01*
X622844Y769456D01*
X620776Y771224D01*
X608584Y796624D02*
X606724Y795077D01*
X605244Y793162D01*
X604217Y790971D01*
X603690Y788610D01*
Y786190D01*
X604217Y783829D01*
X605244Y781638D01*
X606724Y779723D01*
X608584Y778176D01*
X620776Y778176D02*
X622844Y779944D01*
X624417Y782164D01*
X625401Y784700D01*
X625736Y787400D01*
X625401Y790100D01*
X624417Y792636D01*
X622844Y794856D01*
X620776Y796624D01*
X656216Y762000D02*
X655918Y764550D01*
X655040Y766962D01*
X653629Y769107D01*
X651762Y770868D01*
X649539Y772152D01*
X647080Y772888D01*
X644517Y773037D01*
X641989Y772591D01*
X639632Y771575D01*
X637573Y770042D01*
X635923Y768075D01*
X634771Y765781D01*
X634179Y763283D01*
Y760716D01*
X634771Y758219D01*
X635923Y755925D01*
X637573Y753958D01*
X639632Y752425D01*
X641989Y751408D01*
X644517Y750963D01*
X647080Y751112D01*
X649539Y751848D01*
X651762Y753132D01*
X653629Y754893D01*
X655040Y757038D01*
X655918Y759450D01*
X656216Y762000D01*
Y787400D02*
X655918Y789950D01*
X655040Y792362D01*
X653629Y794507D01*
X651762Y796268D01*
X649539Y797552D01*
X647080Y798288D01*
X644517Y798437D01*
X641989Y797991D01*
X639632Y796975D01*
X637573Y795442D01*
X635923Y793475D01*
X634771Y791181D01*
X634179Y788683D01*
Y786116D01*
X634771Y783619D01*
X635923Y781325D01*
X637573Y779358D01*
X639632Y777825D01*
X641989Y776808D01*
X644517Y776363D01*
X647080Y776512D01*
X649539Y777248D01*
X651762Y778532D01*
X653629Y780293D01*
X655040Y782438D01*
X655918Y784850D01*
X656216Y787400D01*
X620776Y803576D02*
X622844Y805344D01*
X624417Y807564D01*
X625401Y810100D01*
X625736Y812800D01*
X625447Y815314D01*
X624593Y817695D01*
X623220Y819821D01*
X621401Y821579D01*
X619229Y822877D01*
X616819Y823647D01*
X614297Y823849D01*
X611795Y823473D01*
X609444Y822537D01*
X607367Y821092D01*
X605673Y819212D01*
X604451Y816997D01*
X603765Y814561D01*
X603651Y812034D01*
X604114Y809546D01*
X605130Y807229D01*
X606647Y805204D01*
X608584Y803576D01*
X656216Y812800D02*
X655918Y815350D01*
X655040Y817762D01*
X653629Y819907D01*
X651762Y821668D01*
X649539Y822952D01*
X647080Y823688D01*
X644517Y823837D01*
X641989Y823391D01*
X639632Y822375D01*
X637573Y820842D01*
X635923Y818875D01*
X634771Y816581D01*
X634179Y814083D01*
Y811516D01*
X634771Y809019D01*
X635923Y806725D01*
X637573Y804758D01*
X639632Y803225D01*
X641989Y802208D01*
X644517Y801763D01*
X647080Y801912D01*
X649539Y802648D01*
X651762Y803932D01*
X653629Y805693D01*
X655040Y807838D01*
X655918Y810250D01*
X656216Y812800D01*
X683006Y753755D02*
X684566Y755475D01*
X685731Y757484D01*
X686452Y759691D01*
X686696Y762000D01*
X668274Y770245D02*
X666522Y768253D01*
X665295Y765902D01*
X664664Y763326D01*
Y760674D01*
X665295Y758098D01*
X666522Y755747D01*
X668274Y753755D01*
X686696Y762000D02*
X686452Y764309D01*
X685731Y766516D01*
X684566Y768524D01*
X683006Y770245D01*
X668274Y795645D02*
X666522Y793653D01*
X665295Y791302D01*
X664664Y788726D01*
Y786074D01*
X665295Y783498D01*
X666522Y781147D01*
X668274Y779155D01*
X683006D02*
X683885Y780034D01*
X733836Y751840D02*
X733649Y754396D01*
X733092Y756898D01*
X732176Y759292D01*
X730922Y761527D01*
X729355Y763555D01*
X727510Y765334D01*
X725426Y766826D01*
X723146Y767998D01*
X720721Y768825D01*
X718200Y769291D01*
X715639Y769384D01*
X713091Y769104D01*
X710611Y768456D01*
X708253Y767453D01*
X706065Y766118D01*
X704095Y764479D01*
X702384Y762570D01*
X700970Y760432D01*
X699882Y758111D01*
X699144Y755657D01*
X698771Y753121D01*
Y750558D01*
X699144Y748023D01*
X699882Y745568D01*
X700970Y743248D01*
X702384Y741110D01*
X704095Y739201D01*
X706065Y737562D01*
X708253Y736227D01*
X710611Y735224D01*
X713091Y734576D01*
X715639Y734296D01*
X718200Y734389D01*
X720721Y734855D01*
X723146Y735682D01*
X725426Y736854D01*
X727510Y738346D01*
X729355Y740125D01*
X730922Y742153D01*
X732176Y744388D01*
X733092Y746782D01*
X733649Y749284D01*
X733836Y751840D01*
X733649Y754396D01*
X733092Y756898D01*
X732176Y759292D01*
X730922Y761527D01*
X729355Y763555D01*
X727510Y765334D01*
X725426Y766826D01*
X723146Y767998D01*
X720721Y768825D01*
X718200Y769291D01*
X715639Y769384D01*
X713091Y769104D01*
X710611Y768456D01*
X708253Y767453D01*
X706065Y766118D01*
X704095Y764479D01*
X702384Y762570D01*
X700970Y760432D01*
X699882Y758111D01*
X699144Y755657D01*
X698771Y753121D01*
Y750558D01*
X699144Y748023D01*
X699882Y745568D01*
X700970Y743248D01*
X702384Y741110D01*
X704095Y739201D01*
X706065Y737562D01*
X708253Y736227D01*
X710611Y735224D01*
X713091Y734576D01*
X715639Y734296D01*
X718200Y734389D01*
X720721Y734855D01*
X723146Y735682D01*
X725426Y736854D01*
X727510Y738346D01*
X729355Y740125D01*
X730922Y742153D01*
X732176Y744388D01*
X733092Y746782D01*
X733649Y749284D01*
X733836Y751840D01*
X683885Y794766D02*
X683006Y795645D01*
X686696Y812800D02*
X686394Y815367D01*
X685504Y817794D01*
X684075Y819947D01*
X682185Y821710D01*
X679938Y822986D01*
X677455Y823706D01*
X674874Y823829D01*
X672334Y823350D01*
X669975Y822294D01*
X667925Y820720D01*
X666298Y818712D01*
X665180Y816382D01*
X664634Y813855D01*
X664690Y811271D01*
X665344Y808771D01*
X666561Y806491D01*
X668274Y804555D01*
X683006D02*
X684566Y806275D01*
X685731Y808283D01*
X686452Y810491D01*
X686696Y812800D01*
X773301Y643762D02*
X775691Y642165D01*
X778510Y641604D01*
X773301Y643762D02*
X775691Y642165D01*
X778510Y641604D01*
X768350Y714604D02*
X770683Y715068D01*
X772661Y716390D01*
X768350Y714604D02*
X770683Y715068D01*
X772661Y716390D01*
X781551Y725280D02*
X782114Y725929D01*
X781551Y725280D02*
X782114Y725929D01*
X799600Y690990D02*
X801577Y689668D01*
X803910Y689204D01*
X799600Y690990D02*
X801577Y689668D01*
X803910Y689204D01*
X803140Y704691D02*
X801163Y706012D01*
X798830Y706476D01*
X803140Y704691D02*
X801163Y706012D01*
X798830Y706476D01*
X828810Y681489D02*
X830383Y680353D01*
X832234Y679769D01*
X828810Y681489D02*
X830383Y680353D01*
X832234Y679769D01*
X840740Y641604D02*
X843559Y642165D01*
X845948Y643762D01*
X840740Y641604D02*
X843559Y642165D01*
X845948Y643762D01*
X858649Y656461D02*
X860245Y658851D01*
X860806Y661670D01*
X858649Y656461D02*
X860245Y658851D01*
X860806Y661670D01*
X772930Y763961D02*
X771976Y762725D01*
X772930Y763961D02*
X771976Y762725D01*
X797579Y750556D02*
X798323Y752665D01*
X798576Y754888D01*
X798178Y757666D01*
X797017Y760222D01*
X783907Y772414D02*
X781575Y771950D01*
X779597Y770629D01*
X783907Y772414D02*
X781575Y771950D01*
X779597Y770629D01*
X764349Y783689D02*
X766327Y782368D01*
X768660Y781904D01*
X764349Y783689D02*
X766327Y782368D01*
X768660Y781904D01*
X832866Y753110D02*
X832402Y755443D01*
X831080Y757421D01*
X832866Y753110D02*
X832402Y755443D01*
X831080Y757421D01*
X842607Y754052D02*
X842389Y751515D01*
X842756Y748995D01*
X843690Y746627D01*
X845142Y744535D01*
X847033Y742830D01*
X849264Y741603D01*
X851717Y740919D01*
X854261Y740815D01*
X856761Y741295D01*
X859085Y742334D01*
X861110Y743878D01*
X862729Y745843D01*
X863854Y748127D01*
Y755553D02*
X862683Y757906D01*
X860991Y759916D01*
X858871Y761470D01*
X856444Y762480D01*
X853848Y762888D01*
X851228Y762673D01*
X817872Y770629D02*
X815895Y771950D01*
X813562Y772414D01*
X817872Y770629D02*
X815895Y771950D01*
X813562Y772414D01*
X832749Y802556D02*
X833326Y801400D01*
X832749Y802556D02*
X833326Y801400D01*
X834711Y799226D01*
X836384Y797265D01*
X838313Y795555D01*
X840460Y794128D01*
X842784Y793013D01*
X845241Y792231D01*
X847782Y791796D01*
X850358Y791718D01*
X852921Y791998D01*
X855420Y792630D01*
X857807Y793603D01*
X860037Y794897D01*
X862065Y796487D01*
X863854Y798344D01*
X833326Y801400D02*
X834711Y799226D01*
X836384Y797265D01*
X838313Y795555D01*
X840460Y794128D01*
X842784Y793013D01*
X845241Y792231D01*
X847782Y791796D01*
X850358Y791718D01*
X852921Y791998D01*
X855420Y792630D01*
X857807Y793603D01*
X860037Y794897D01*
X862065Y796487D01*
X863854Y798344D01*
X837713Y824484D02*
X835968Y822817D01*
X834454Y820938D01*
X833196Y818878D01*
X832217Y816672D01*
X831532Y814358D01*
X831153Y811974D01*
X831087Y809561D01*
X831335Y807160D01*
X831892Y804812D01*
X832749Y802556D01*
X837713Y824484D02*
X835968Y822817D01*
X834454Y820938D01*
X833196Y818878D01*
X832217Y816672D01*
X831532Y814358D01*
X831153Y811974D01*
X831087Y809561D01*
X831335Y807160D01*
X831892Y804812D01*
X832749Y802556D01*
X284226Y402336D02*
X294153D01*
X284226Y404368D02*
X292081D01*
X284226Y398272D02*
X302928D01*
X284226Y400304D02*
X297122D01*
X284226Y410464D02*
X288544D01*
X284226Y412496D02*
X287964D01*
X284226Y406400D02*
X290543D01*
X284226Y408432D02*
X289389D01*
X300736Y394716D02*
Y398787D01*
X298704Y394716D02*
Y399529D01*
X304800Y394716D02*
Y398047D01*
X302768Y394716D02*
Y398300D01*
X290576Y394716D02*
Y406349D01*
X288544Y394716D02*
Y410464D01*
X296672Y394716D02*
Y400560D01*
X292608Y394716D02*
Y403789D01*
X294640Y394716D02*
Y401942D01*
X284226Y414528D02*
X287626D01*
X284226Y416560D02*
X287514D01*
X284226Y418592D02*
X287626D01*
X284226Y420624D02*
X287964D01*
X284226Y422656D02*
X288544D01*
X284226Y424688D02*
X289389D01*
X284226Y426720D02*
X290543D01*
X284226Y430784D02*
X294153D01*
X284226Y428752D02*
X292081D01*
X292608Y429331D02*
Y453815D01*
X290576Y426771D02*
Y456065D01*
X296672Y432560D02*
Y451652D01*
X294640Y431178D02*
Y452460D01*
X284226Y432816D02*
X297122D01*
X298704Y433591D02*
Y451271D01*
X284226Y434848D02*
X302928D01*
X300736Y434333D02*
Y451271D01*
X302768Y434820D02*
Y450611D01*
X306832Y394716D02*
Y398020D01*
X308864Y394716D02*
Y398216D01*
X310896Y394716D02*
Y398643D01*
X312928Y394716D02*
Y399318D01*
X314960Y394716D02*
Y400272D01*
X316992Y394716D02*
Y401559D01*
X315018Y400304D02*
X386264D01*
X317987Y402336D02*
X386264D01*
X319024Y394716D02*
Y403274D01*
X321056Y394716D02*
Y405617D01*
X320059Y404368D02*
X386264D01*
X323088Y394716D02*
Y409163D01*
X321597Y426720D02*
X380359D01*
X320059Y428752D02*
X324914D01*
X321597Y406400D02*
X386264D01*
X322751Y424688D02*
X382391D01*
X322751Y408432D02*
X386264D01*
X314960Y432848D02*
Y438419D01*
X312928Y433802D02*
Y440451D01*
X306832Y435100D02*
Y446547D01*
X304800Y435073D02*
Y448579D01*
X309212Y434848D02*
X324914D01*
X308864Y434904D02*
Y444515D01*
X310896Y434477D02*
Y442483D01*
X321056Y427503D02*
Y435102D01*
X319024Y429846D02*
Y435367D01*
X317987Y430784D02*
X324914D01*
X323088Y423957D02*
Y435102D01*
X316992Y431561D02*
Y436439D01*
X315018Y432816D02*
X324914D01*
X320802Y435102D02*
X324914D01*
X284226Y449072D02*
X304307D01*
X284226Y451104D02*
X302275D01*
X284226Y445008D02*
X308371D01*
X284226Y447040D02*
X306339D01*
X284226Y457200D02*
X289900D01*
X284226Y459232D02*
X289092D01*
X284226Y453136D02*
X293505D01*
X284226Y455168D02*
X291255D01*
X284226Y461264D02*
X288711D01*
X284226Y463296D02*
X288711D01*
X284226Y465328D02*
X289092D01*
X284226Y467360D02*
X289900D01*
X284226Y469392D02*
X291255D01*
X284226Y471424D02*
X293505D01*
X284226Y473456D02*
X303527D01*
X302768Y472908D02*
Y474215D01*
X284226Y479552D02*
X288664D01*
X284226Y481584D02*
X288664D01*
X284226Y475488D02*
X301495D01*
X284226Y477520D02*
X288664D01*
X284226Y491744D02*
X288664D01*
X284226Y493776D02*
X288664D01*
X284226Y483616D02*
X288664D01*
X284226Y489712D02*
X288664D01*
X284226Y485648D02*
X288664D01*
X292608Y470745D02*
Y476624D01*
X290576Y468495D02*
Y476624D01*
X300359D02*
X304976Y472007D01*
X294640Y472100D02*
Y476624D01*
X296672Y472908D02*
Y476624D01*
X284226Y487680D02*
X288664D01*
X300736Y473289D02*
Y476247D01*
X288664Y476624D02*
X300359D01*
X298704Y473289D02*
Y476624D01*
X284226Y438912D02*
X314467D01*
X284226Y440944D02*
X312435D01*
X284226Y436880D02*
X316499D01*
X301931Y451447D02*
X316492Y436888D01*
X284226Y442976D02*
X310403D01*
X311389Y459232D02*
X317781D01*
X315453Y455168D02*
X324914D01*
X310553Y460069D02*
X323327Y447294D01*
X313421Y457200D02*
X386264D01*
X321056Y449565D02*
Y457613D01*
X319024Y451597D02*
Y458369D01*
X321549Y449072D02*
X324914D01*
X319517Y451104D02*
X324914D01*
X316992Y453629D02*
Y459991D01*
X317485Y453136D02*
X324914D01*
X322580Y457454D02*
X386264D01*
X310729Y461264D02*
X315719D01*
X309447Y467536D02*
X317372Y459612D01*
X310729Y463296D02*
X313687D01*
X310348Y465328D02*
X311655D01*
X310776Y487041D02*
X325631Y472186D01*
X310776Y489712D02*
X324914D01*
X310776Y487680D02*
X324914D01*
X312928Y457693D02*
Y464055D01*
X310896Y459725D02*
Y466087D01*
X314960Y455661D02*
Y462023D01*
X318265Y479552D02*
X324914D01*
X310776Y491744D02*
X324914D01*
X310776Y493776D02*
X324914D01*
X316233Y481584D02*
X324914D01*
X312169Y485648D02*
X324914D01*
X314201Y483616D02*
X324914D01*
X333248Y394716D02*
Y426804D01*
X331216Y394716D02*
Y426804D01*
X337312Y394716D02*
Y426804D01*
X335280Y394716D02*
Y426804D01*
X327152Y394716D02*
Y426804D01*
X325120Y394716D02*
Y426804D01*
X324914D02*
X337614D01*
X329184Y394716D02*
Y426804D01*
X349504Y394716D02*
Y426804D01*
X347472Y394716D02*
Y426804D01*
X369824Y394716D02*
Y426804D01*
X351536Y394716D02*
Y426804D01*
X341376Y394716D02*
Y426804D01*
X339344Y394716D02*
Y426804D01*
X338026D02*
X350314D01*
X343408Y394716D02*
Y426804D01*
X345440Y394716D02*
Y426804D01*
X355600Y394716D02*
Y426804D01*
X353568Y394716D02*
Y426804D01*
X359664Y394716D02*
Y426804D01*
X357632Y394716D02*
Y426804D01*
X324914D02*
Y435102D01*
X323088Y447533D02*
Y457454D01*
X350726Y426804D02*
X363014D01*
X323327Y447294D02*
X324914D01*
Y455916D01*
X363728Y394716D02*
Y426804D01*
X361696Y394716D02*
Y426804D01*
X367792Y394716D02*
Y426804D01*
X365760Y394716D02*
Y426804D01*
X373888Y394716D02*
Y426804D01*
X371856Y394716D02*
Y426804D01*
X375920Y394716D02*
Y426804D01*
X363426D02*
X376126D01*
Y430953D01*
X324514Y414528D02*
X386264D01*
X324626Y416560D02*
X386264D01*
X323596Y410464D02*
X386264D01*
X324175Y412496D02*
X386264D01*
X323596Y422656D02*
X384423D01*
X376126Y428752D02*
X378327D01*
X324514Y418592D02*
X386264D01*
X324175Y420624D02*
X386264D01*
X382016Y394716D02*
Y425063D01*
X379984Y394716D02*
Y427095D01*
X386080Y394716D02*
Y420999D01*
X384048Y394716D02*
Y423031D01*
X388112Y394716D02*
Y399324D01*
X386264D02*
Y420815D01*
X394208Y394716D02*
Y399324D01*
X390144Y394716D02*
Y399324D01*
X392176Y394716D02*
Y399324D01*
X377952Y394716D02*
Y429127D01*
X376126Y430953D02*
X386264Y420815D01*
X379313Y445008D02*
X386264D01*
X378559Y445762D02*
X394885Y429436D01*
X376126Y447252D02*
Y455916D01*
X377952Y446294D02*
Y457454D01*
X376684Y447040D02*
X386264D01*
X390144Y434177D02*
Y444324D01*
X388112Y436209D02*
Y444324D01*
X394208Y430113D02*
Y444324D01*
X392176Y432145D02*
Y444324D01*
X382016Y442305D02*
Y457454D01*
X379984Y444337D02*
Y457454D01*
X386264Y444324D02*
Y457454D01*
X384048Y440273D02*
Y457454D01*
X386080Y438241D02*
Y457454D01*
X333248Y455916D02*
Y457454D01*
X331216Y455916D02*
Y457454D01*
X337312Y455916D02*
Y457454D01*
X335280Y455916D02*
Y457454D01*
X327152Y455916D02*
Y457454D01*
X325120Y455916D02*
Y457454D01*
X324914Y455916D02*
X337614D01*
X329184D02*
Y457454D01*
X349504Y455916D02*
Y457454D01*
X347472Y455916D02*
Y457454D01*
X353568Y455916D02*
Y457454D01*
X351536Y455916D02*
Y457454D01*
X341376Y455916D02*
Y457454D01*
X339344Y455916D02*
Y457454D01*
X338026Y455916D02*
X350314D01*
X343408D02*
Y457454D01*
X345440Y455916D02*
Y457454D01*
X329184Y472186D02*
Y478804D01*
X327152Y472186D02*
Y478804D01*
X333248Y472186D02*
Y478804D01*
X331216Y472186D02*
Y478804D01*
X335280Y472186D02*
Y478804D01*
X325120Y472697D02*
Y478804D01*
X338026D02*
X350314D01*
X324914D02*
X337614D01*
X337312Y472186D02*
Y478804D01*
X341376Y472186D02*
Y478804D01*
X339344Y472186D02*
Y478804D01*
X345440Y472186D02*
Y478804D01*
X343408Y472186D02*
Y478804D01*
X347472Y472186D02*
Y478804D01*
X353568Y472186D02*
Y478804D01*
X349504Y472186D02*
Y478804D01*
X351536Y472186D02*
Y478804D01*
X363728Y455916D02*
Y457454D01*
X361696Y455916D02*
Y457454D01*
X363426Y455916D02*
X376126D01*
X365760D02*
Y457454D01*
X357632Y455916D02*
Y457454D01*
X355600Y455916D02*
Y457454D01*
X350726Y455916D02*
X363014D01*
X325631Y472186D02*
X386264D01*
X359664Y455916D02*
Y457454D01*
X376126Y453136D02*
X386264D01*
X376126Y455168D02*
X386264D01*
X376126Y449072D02*
X386264D01*
X376126Y451104D02*
X386264D01*
X369824Y455916D02*
Y457454D01*
X367792Y455916D02*
Y457454D01*
X375920Y455916D02*
Y457454D01*
X371856Y455916D02*
Y457454D01*
X373888Y455916D02*
Y457454D01*
X357632Y472186D02*
Y478804D01*
X355600Y472186D02*
Y478804D01*
X363728Y472186D02*
Y478804D01*
X359664Y472186D02*
Y478804D01*
X361696Y472186D02*
Y478804D01*
X324361Y473456D02*
X386264D01*
X350726Y478804D02*
X363014D01*
Y478804D02*
X376126D01*
X367792Y472186D02*
Y478804D01*
X365760Y472186D02*
Y478804D01*
X371856Y472186D02*
Y478804D01*
X369824Y472186D02*
Y478804D01*
X373888Y472186D02*
Y478804D01*
X386264Y472186D02*
Y474436D01*
X375920Y472186D02*
Y478804D01*
X284226Y495808D02*
X288664D01*
X284226Y497840D02*
X288664D01*
X284226Y499872D02*
X292354D01*
X284226Y501904D02*
X292354D01*
X284226Y508000D02*
X292354D01*
X284226Y516128D02*
X292354D01*
X284226Y503936D02*
X292354D01*
X284226Y505968D02*
X292354D01*
X288664Y498736D02*
X292354D01*
X288664Y476624D02*
Y498736D01*
X307086D02*
X310776D01*
X292354D02*
Y517652D01*
X284226Y510032D02*
X292354D01*
X284226Y512064D02*
X292354D01*
X284226Y514096D02*
X292354D01*
X284226Y518160D02*
X292372D01*
X307086Y498736D02*
Y515265D01*
X284480Y394716D02*
Y832104D01*
X284226Y394716D02*
Y832104D01*
X288544Y422656D02*
Y804164D01*
X286512Y394716D02*
Y832104D01*
X284226Y520192D02*
X292806D01*
X284226Y522224D02*
X293014D01*
X284226Y524256D02*
X293014D01*
X284226Y528320D02*
X293014D01*
X284226Y526288D02*
X293014D01*
X290576Y498736D02*
Y537584D01*
X308864Y498736D02*
Y537584D01*
X292608Y519570D02*
Y537584D01*
X293014Y520699D02*
Y537584D01*
X307746Y518312D02*
Y537584D01*
X307086Y503936D02*
X324914D01*
X307086Y505968D02*
X324914D01*
X307086Y499872D02*
X324914D01*
X307086Y501904D02*
X324914D01*
X307086Y512064D02*
X325374D01*
X307086Y514096D02*
X323611D01*
X307086Y508000D02*
X325374D01*
X307086Y510032D02*
X325374D01*
X310776Y487041D02*
Y498736D01*
X321056Y476761D02*
Y516651D01*
X324914Y478804D02*
Y507916D01*
X323088Y474729D02*
Y514619D01*
X307415Y516128D02*
X321579D01*
X307744Y518160D02*
X319547D01*
X310776Y495808D02*
X324914D01*
X310776Y497840D02*
X324914D01*
X325374Y507916D02*
Y512333D01*
X312928Y484889D02*
Y537584D01*
X310896Y486921D02*
Y537584D01*
X307746Y520192D02*
X317515D01*
X307746Y522224D02*
X315483D01*
X307746Y526288D02*
X313320D01*
X307746Y528320D02*
X313284D01*
X307746Y524256D02*
X313911D01*
X316992Y480825D02*
Y520715D01*
X314960Y482857D02*
Y522750D01*
X319024Y478793D02*
Y518683D01*
X315070Y522637D02*
X325374Y512333D01*
X325476Y529473D02*
Y537584D01*
X313284Y526948D02*
Y537584D01*
X326629Y528320D02*
X369954D01*
X325476Y530352D02*
X369954D01*
X325476Y529473D02*
X335780Y519169D01*
X284226Y534416D02*
X293014D01*
X284226Y538480D02*
X290324D01*
X284226Y530352D02*
X293014D01*
X284226Y532384D02*
X293014D01*
X284226Y544576D02*
X290324D01*
X284226Y546608D02*
X290324D01*
X284226Y540512D02*
X290324D01*
X284226Y542544D02*
X290324D01*
X284226Y550672D02*
X290324D01*
X284226Y552704D02*
X290324D01*
X284226Y548640D02*
X290324D01*
Y537584D02*
Y559696D01*
X284226Y554736D02*
X290324D01*
X284226Y556768D02*
X290324D01*
X284226Y558800D02*
X290324D01*
X284226Y560832D02*
X292924D01*
X290324Y559696D02*
X292932D01*
X284226Y566928D02*
X292879D01*
X284226Y568960D02*
X292864D01*
X284226Y562864D02*
X292909D01*
X284226Y564896D02*
X292894D01*
X284226Y577088D02*
X292804D01*
X284226Y579120D02*
X292789D01*
X284226Y570992D02*
X292849D01*
X284226Y575056D02*
X292819D01*
X284226Y573024D02*
X292834D01*
X292608Y559696D02*
Y603700D01*
X290576Y559696D02*
Y715384D01*
X284226Y581152D02*
X292774D01*
X292354Y638139D02*
X292932Y559696D01*
X284226Y589280D02*
X292714D01*
X284226Y591312D02*
X292699D01*
X284226Y583184D02*
X292759D01*
X284226Y587248D02*
X292729D01*
X284226Y585216D02*
X292744D01*
X307746Y534416D02*
X313284D01*
X284226Y536448D02*
X293014D01*
X307746Y530352D02*
X313284D01*
X307746Y532384D02*
X313284D01*
X307746Y537584D02*
X309324D01*
X290324D02*
X293014D01*
X307746Y536448D02*
X313284D01*
X307665Y559696D02*
X309324D01*
Y537584D02*
X310436D01*
X325476Y536448D02*
X344954D01*
X309324Y537584D02*
X310436D01*
X325476Y532384D02*
X369954D01*
X325476Y534416D02*
X369954D01*
X309324Y559696D02*
X310436D01*
X309324D02*
X310436D01*
Y537584D02*
X313284D01*
X310436Y559696D02*
X329436D01*
X325476Y537584D02*
X329436D01*
X307086Y638227D02*
X307665Y559696D01*
X308864D02*
Y715384D01*
X307656Y560832D02*
X369954D01*
X307641Y562864D02*
X395344D01*
X307581Y570992D02*
X395344D01*
X307566Y573024D02*
X395344D01*
X307626Y564896D02*
X395344D01*
X307596Y568960D02*
X395344D01*
X307611Y566928D02*
X395344D01*
X321056Y559696D02*
Y737359D01*
X323088Y559696D02*
Y739391D01*
X327152Y559696D02*
Y716364D01*
X325120Y559696D02*
Y716364D01*
X310896Y559696D02*
Y727199D01*
X312928Y559696D02*
Y729231D01*
X314960Y559696D02*
Y731263D01*
X316992Y559696D02*
Y733295D01*
X319024Y559696D02*
Y735327D01*
X337566Y507916D02*
Y514858D01*
X341376Y507916D02*
Y537464D01*
X338026Y507916D02*
X350314D01*
X344954Y535504D02*
X361566D01*
X345440Y507916D02*
Y535504D01*
X351536Y507916D02*
Y535504D01*
X349504Y507916D02*
Y535504D01*
X350726Y507916D02*
X363014D01*
X353568D02*
Y535504D01*
X347472Y507916D02*
Y535504D01*
X359664Y507916D02*
Y535504D01*
X355600Y507916D02*
Y535504D01*
X357632Y507916D02*
Y535504D01*
X329184Y525765D02*
Y537584D01*
X327152Y527797D02*
Y537584D01*
X333248Y521701D02*
Y540527D01*
X331216Y523733D02*
Y542544D01*
X329436Y540512D02*
X333263D01*
X329436Y537584D02*
Y542544D01*
Y538480D02*
X335466D01*
X331231Y542544D02*
X334525Y539249D01*
X339344Y507916D02*
Y537464D01*
X337312Y516599D02*
Y537658D01*
X343408Y507916D02*
Y537464D01*
X361696Y507916D02*
Y651764D01*
X335280Y519669D02*
Y538609D01*
X344954Y535504D02*
Y537464D01*
X338836D02*
X344954D01*
X361566Y535504D02*
Y551616D01*
X376126Y478804D02*
Y507916D01*
X363014D02*
X376126D01*
X377952Y472186D02*
Y526004D01*
X371856Y507916D02*
Y526004D01*
X328661Y526288D02*
X369954D01*
Y526004D02*
X386566D01*
X373888Y507916D02*
Y526004D01*
X375920Y507916D02*
Y526004D01*
X382016Y472186D02*
Y526004D01*
X379984Y472186D02*
Y526004D01*
X386080Y472186D02*
Y526004D01*
X384048Y472186D02*
Y526004D01*
X386566D02*
Y527964D01*
X388112Y474436D02*
Y528049D01*
X390144Y474436D02*
Y528781D01*
X365760Y507916D02*
Y651764D01*
X363728Y507916D02*
Y651764D01*
X369824Y507916D02*
Y651764D01*
X367792Y507916D02*
Y651764D01*
X361566Y536448D02*
X369954D01*
Y526004D02*
Y542116D01*
X361566Y538480D02*
X369954D01*
X361566Y540512D02*
X369954D01*
Y542116D02*
X386531D01*
X392176Y474436D02*
Y530519D01*
X386080Y542116D02*
Y545004D01*
X394208Y474436D02*
Y532551D01*
X386531Y542116D02*
X392946Y548530D01*
X375920Y542116D02*
Y545004D01*
X373888Y542116D02*
Y545004D01*
X382016Y542116D02*
Y545004D01*
X377952Y542116D02*
Y545004D01*
X379984Y542116D02*
Y545004D01*
X329436Y542544D02*
X331231D01*
X329436D02*
X331231D01*
X329436Y554736D02*
X333756D01*
X329436D02*
X333756D01*
X329436Y556768D02*
X369954D01*
X329436Y558800D02*
X369954D01*
X341361Y549656D02*
X344954D01*
X338066Y552951D02*
X341361Y549656D01*
X361566Y546608D02*
X369954D01*
X361566Y548640D02*
X369954D01*
X340345Y550672D02*
X344954D01*
Y549656D02*
Y551616D01*
X361566Y550672D02*
X369954D01*
X338313Y552704D02*
X369954D01*
X344954Y551616D02*
X361566D01*
X339344Y551673D02*
Y661164D01*
X337312Y553591D02*
Y661164D01*
X343408Y549656D02*
Y661164D01*
X341376Y549656D02*
Y661164D01*
X329436Y554736D02*
Y559696D01*
X329184D02*
Y716364D01*
X335280Y554542D02*
Y661164D01*
X331216Y554736D02*
Y716364D01*
X333248Y554736D02*
Y716364D01*
X357632Y551616D02*
Y651877D01*
X355600Y551616D02*
Y652671D01*
X369954Y545004D02*
Y561116D01*
X359664Y551616D02*
Y651764D01*
X347472Y551616D02*
Y660567D01*
X345440Y551616D02*
Y661164D01*
X353568Y551616D02*
Y654471D01*
X349504Y551616D02*
Y658535D01*
X351536Y551616D02*
Y656503D01*
X384048Y542116D02*
Y545004D01*
X371856Y542116D02*
Y545004D01*
X361566Y542544D02*
X386959D01*
X361566Y544576D02*
X388991D01*
X333756Y554736D02*
X369954D01*
Y545004D02*
X386566D01*
Y546608D02*
X391023D01*
X386566Y548640D02*
X393058D01*
X395344Y550008D02*
Y553164D01*
X386566Y554736D02*
X395344D01*
X386566Y556768D02*
X395344D01*
X386566Y552704D02*
X395344D01*
Y553164D02*
Y554276D01*
Y553164D02*
Y554276D01*
X375920Y561116D02*
Y651764D01*
X373888Y561116D02*
Y651764D01*
X369954Y561116D02*
X386566D01*
X377952D02*
Y651764D01*
X371856Y561116D02*
Y651764D01*
X384048Y561116D02*
Y651764D01*
X379984Y561116D02*
Y651764D01*
X382016Y561116D02*
Y651764D01*
X386566Y545004D02*
Y561116D01*
X388112Y543697D02*
Y651764D01*
X392176Y547761D02*
Y651764D01*
X390144Y545729D02*
Y651764D01*
X394208Y549499D02*
Y651764D01*
X386080Y561116D02*
Y651764D01*
X386566Y558800D02*
X395344D01*
X386566Y560832D02*
X395344D01*
Y554276D02*
Y573276D01*
X404368Y394716D02*
Y399324D01*
X402336Y394716D02*
Y399324D01*
X408432Y394716D02*
Y399324D01*
X406400Y394716D02*
Y399324D01*
X398272Y394716D02*
Y399324D01*
X396240Y394716D02*
Y399324D01*
X386264D02*
X416376D01*
X400304Y394716D02*
Y399324D01*
X412496Y394716D02*
Y399324D01*
X410464Y394716D02*
Y399324D01*
X414528Y394716D02*
Y399324D01*
X418592Y394716D02*
Y402476D01*
X420624Y394716D02*
Y401297D01*
X416376Y402336D02*
X418757D01*
X424688Y394716D02*
Y400964D01*
X422656Y394716D02*
Y400964D01*
X416560Y394716D02*
Y404489D01*
X416376Y399324D02*
Y404673D01*
X418300Y402749D01*
X416376Y420379D02*
Y429436D01*
X416560Y420342D02*
Y433723D01*
X416376Y426720D02*
X423567D01*
X416376Y424688D02*
X425824D01*
X422656Y415635D02*
Y427627D01*
X419600Y418691D02*
X425135Y413156D01*
X424688Y413603D02*
Y425830D01*
X420624Y417667D02*
Y429659D01*
X418592Y419504D02*
Y431691D01*
X425824Y416004D02*
Y417116D01*
X428752Y394716D02*
Y397004D01*
X426720Y394716D02*
Y397004D01*
X284226Y394716D02*
X741864D01*
X284226Y396240D02*
X741864D01*
X309212Y398272D02*
X425824D01*
Y397004D02*
Y400964D01*
Y397004D02*
X447936D01*
X416376Y400304D02*
X425824D01*
X442976Y394716D02*
Y397004D01*
X440944Y394716D02*
Y397004D01*
X447040Y394716D02*
Y397004D01*
X445008Y394716D02*
Y397004D01*
X432816Y394716D02*
Y397004D01*
X430784Y394716D02*
Y397004D01*
X438912Y394716D02*
Y397004D01*
X434848Y394716D02*
Y397004D01*
X436880Y394716D02*
Y397004D01*
X423763Y414528D02*
X425824D01*
X421731Y416560D02*
X425824D01*
X422610Y400964D02*
X425824D01*
Y413156D02*
Y416004D01*
X416376Y422656D02*
X425824D01*
X424287Y426121D02*
X425824Y425002D01*
X419699Y418592D02*
X425824D01*
X416376Y420624D02*
X425824D01*
Y417116D02*
Y425002D01*
X447936Y408432D02*
X580641D01*
X447936Y397004D02*
Y416004D01*
Y404368D02*
X586092D01*
X447936Y406400D02*
X582673D01*
X425824Y416004D02*
Y417116D01*
X447936Y418592D02*
X570481D01*
X447936Y410464D02*
X578609D01*
X447936Y414528D02*
X574545D01*
X447936Y412496D02*
X576577D01*
X389473Y434848D02*
X415435D01*
X387441Y436880D02*
X413403D01*
X393537Y430784D02*
X419499D01*
X391505Y432816D02*
X417467D01*
X381345Y442976D02*
X407307D01*
X386264Y444324D02*
X405959D01*
X385409Y438912D02*
X411371D01*
X383377Y440944D02*
X409339D01*
X412496Y429436D02*
Y437787D01*
X410464Y429436D02*
Y439819D01*
X416376Y428752D02*
X421531D01*
X414528Y429436D02*
Y435755D01*
X400304Y429436D02*
Y444324D01*
X398272Y429436D02*
Y444324D01*
X394885Y429436D02*
X416376D01*
X406400D02*
Y443883D01*
X408432Y429436D02*
Y441851D01*
X402336Y429436D02*
Y444324D01*
X396240Y429436D02*
Y444324D01*
X404368Y429436D02*
Y444324D01*
X386264Y474436D02*
X416376D01*
X322329Y475488D02*
X421871D01*
X320297Y477520D02*
X422049D01*
X376126Y479552D02*
X422470D01*
X376126Y483616D02*
X424135D01*
X376126Y481584D02*
X423153D01*
X422656Y448461D02*
Y469766D01*
X416376Y454741D02*
Y474436D01*
X405959Y444324D02*
X423416Y426866D01*
X424688Y446429D02*
Y465431D01*
X416376Y471424D02*
X422228D01*
X416376Y473456D02*
X421930D01*
X416376Y465328D02*
X424755D01*
X416376Y469392D02*
X422777D01*
X416376Y467360D02*
X423604D01*
X428141Y442976D02*
X504339D01*
X416376Y454741D02*
X433427Y437690D01*
X426109Y445008D02*
X506371D01*
X424077Y447040D02*
X508403D01*
X422045Y449072D02*
X511822D01*
X420013Y451104D02*
X564644D01*
X417981Y453136D02*
X567334D01*
X416376Y457200D02*
X567334D01*
X416376Y455168D02*
X567334D01*
X433427Y437690D02*
X435587Y436116D01*
X436880D02*
Y457609D01*
X447936Y433426D02*
X494789D01*
X435587Y436116D02*
X447936D01*
X438912D02*
Y457431D01*
X440944Y436116D02*
Y457490D01*
X434539Y436880D02*
X498243D01*
X430173Y440944D02*
X502307D01*
X432205Y438912D02*
X500275D01*
X416376Y461264D02*
X428462D01*
X426720Y444397D02*
Y462859D01*
X416376Y459232D02*
X431660D01*
X416376Y463296D02*
X426317D01*
X376126Y485648D02*
X425477D01*
X376126Y487680D02*
X427299D01*
X376126Y491744D02*
X434206D01*
X376126Y489712D02*
X429871D01*
X442976Y436116D02*
Y457788D01*
X434848Y436655D02*
Y458030D01*
X445008Y436116D02*
Y458337D01*
X447040Y436116D02*
Y459164D01*
X430784Y440333D02*
Y459695D01*
X428752Y442365D02*
Y461037D01*
X432816Y438301D02*
Y458713D01*
X444634Y491744D02*
X498254D01*
X447180Y459232D02*
X567334D01*
X453136Y394716D02*
Y418694D01*
X451104Y394716D02*
Y418694D01*
X457200Y394716D02*
Y418694D01*
X455168Y394716D02*
Y418694D01*
X447936Y416004D02*
Y417116D01*
Y418694D01*
Y416004D02*
Y417116D01*
X449072Y394716D02*
Y418694D01*
X471424Y394716D02*
Y418694D01*
X469392Y394716D02*
Y418694D01*
X475488Y394716D02*
Y418694D01*
X473456Y394716D02*
Y418694D01*
X461264Y394716D02*
Y418694D01*
X459232Y394716D02*
Y418694D01*
X467360Y394716D02*
Y418694D01*
X463296Y394716D02*
Y418694D01*
X465328Y394716D02*
Y418694D01*
X489712Y394716D02*
Y418694D01*
X487680Y394716D02*
Y418694D01*
X493776Y394716D02*
Y418694D01*
X491744Y394716D02*
Y418694D01*
X479552Y394716D02*
Y418694D01*
X477520Y394716D02*
Y418694D01*
X485648Y394716D02*
Y418694D01*
X481584Y394716D02*
Y418694D01*
X483616Y394716D02*
Y418694D01*
X505968Y394716D02*
Y423771D01*
X508000Y394716D02*
Y425803D01*
X510032Y394716D02*
Y427835D01*
X512064Y394716D02*
Y429867D01*
X497840Y394716D02*
Y418694D01*
X495808Y394716D02*
Y418694D01*
X499872Y394716D02*
Y418980D01*
X501904Y394716D02*
Y419917D01*
X503936Y394716D02*
Y421739D01*
X514096Y394716D02*
Y431899D01*
X516128Y394716D02*
Y433931D01*
X532384Y394716D02*
Y434594D01*
X528320Y394716D02*
Y434594D01*
X447936Y416560D02*
X572513D01*
X530352Y394716D02*
Y434594D01*
X447936Y398272D02*
X705224D01*
X447936Y402336D02*
X603385D01*
X447936Y400304D02*
X705224D01*
X536448Y394716D02*
Y434594D01*
X534416Y394716D02*
Y434594D01*
X566928Y394716D02*
Y430904D01*
X564896Y394716D02*
Y430904D01*
X570992Y394716D02*
Y418081D01*
X568960Y394716D02*
Y420174D01*
X575056Y394716D02*
Y414017D01*
X569491Y419582D02*
X582802Y406272D01*
X573024Y394716D02*
Y416049D01*
X540512Y394716D02*
Y434594D01*
X538480Y394716D02*
Y434594D01*
X544576Y394716D02*
Y434594D01*
X542544Y394716D02*
Y434594D01*
X520192Y394716D02*
Y434594D01*
X518160Y394716D02*
Y434594D01*
X526288Y394716D02*
Y434594D01*
X522224Y394716D02*
Y434594D01*
X524256Y394716D02*
Y434594D01*
X558800Y394716D02*
Y434594D01*
X556768Y394716D02*
Y434594D01*
X562864Y394716D02*
Y434594D01*
X560832Y394716D02*
Y434594D01*
X548640Y394716D02*
Y434594D01*
X546608Y394716D02*
Y434594D01*
X554736Y394716D02*
Y434594D01*
X550672Y394716D02*
Y434594D01*
X552704Y394716D02*
Y434594D01*
X447936Y433426D02*
Y436116D01*
X449072Y433426D02*
Y460315D01*
X447936Y418694D02*
X497840D01*
X451104Y433426D02*
Y461877D01*
X447936Y434848D02*
X496211D01*
X453136Y433426D02*
Y464022D01*
X454705Y483616D02*
X560254D01*
X453363Y485648D02*
X560254D01*
X503049Y420852D02*
X516791Y434594D01*
X494789Y433426D02*
X508531Y447169D01*
X455168Y433426D02*
Y467220D01*
X455686Y481584D02*
X560254D01*
X456370Y479552D02*
X560254D01*
X501904Y440541D02*
Y486944D01*
X499872Y438509D02*
Y486944D01*
X505968Y444605D02*
Y486944D01*
X503936Y442573D02*
Y486944D01*
X451541Y487680D02*
X498254D01*
X448969Y489712D02*
X498254D01*
Y486944D02*
X526866D01*
X508000Y446637D02*
Y486944D01*
X510032Y448325D02*
Y486944D01*
X514096Y449326D02*
Y486944D01*
X512064Y449133D02*
Y486944D01*
X518160Y449326D02*
Y486944D01*
X516128Y449326D02*
Y486944D01*
X522224Y449326D02*
Y486944D01*
X520192Y449326D02*
Y486944D01*
X524256Y449326D02*
Y486944D01*
X526288Y449326D02*
Y486944D01*
X526866Y487680D02*
X560254D01*
X506885Y424688D02*
X567335D01*
X508917Y426720D02*
X567334D01*
X502811Y420624D02*
X568625D01*
X504853Y422656D02*
X567650D01*
X515013Y432816D02*
X564644D01*
X513740Y449326D02*
X564644D01*
X510949Y428752D02*
X567334D01*
X450378Y461264D02*
X567334D01*
X512981Y430784D02*
X567334D01*
Y424790D02*
Y430904D01*
X564644D02*
Y434594D01*
X516791D02*
X564644D01*
Y449326D02*
Y453016D01*
Y430904D02*
X567334D01*
X564644Y453016D02*
X567334D01*
Y462008D01*
X455236Y467360D02*
X567194D01*
X456063Y469392D02*
X567194D01*
X452523Y463296D02*
X567196D01*
X454085Y465328D02*
X567194D01*
X456791Y477520D02*
X560254D01*
X526866Y491744D02*
X560254D01*
X456612Y471424D02*
X567194D01*
X456910Y473456D02*
X567194D01*
X456969Y475488D02*
X567194D01*
X562864Y449326D02*
Y475944D01*
X560832Y449326D02*
Y475944D01*
X566928Y453016D02*
Y475944D01*
X564896Y453016D02*
Y475944D01*
X560254D02*
X567194D01*
X526866Y489712D02*
X560254D01*
X567194Y463436D02*
Y475944D01*
X398272Y474436D02*
Y534164D01*
X396240Y474436D02*
Y534164D01*
X406400Y474436D02*
Y534164D01*
X400304Y474436D02*
Y534164D01*
X402336Y474436D02*
Y534164D01*
X391407Y529749D02*
X395821Y534164D01*
X417456D01*
X404368Y474436D02*
Y534164D01*
X416560Y454557D02*
Y534164D01*
X412496Y474436D02*
Y534164D01*
X420624Y450493D02*
Y557124D01*
X410464Y474436D02*
Y534164D01*
X408432Y474436D02*
Y534164D01*
X414528Y474436D02*
Y534164D01*
X417456D02*
Y553164D01*
X422656Y480194D02*
Y557124D01*
X424688Y484529D02*
Y557124D01*
X418592Y452525D02*
Y557124D01*
X428752Y488923D02*
Y557124D01*
X426720Y487101D02*
Y557124D01*
X432816Y491246D02*
Y557124D01*
X430784Y490265D02*
Y557124D01*
X438912Y492529D02*
Y557124D01*
X434848Y491930D02*
Y557124D01*
X436880Y492351D02*
Y557124D01*
X453136Y485938D02*
Y557124D01*
X451104Y488083D02*
Y557124D01*
X457200Y433426D02*
Y557124D01*
X455168Y482740D02*
Y557124D01*
X442976Y492172D02*
Y557124D01*
X440944Y492470D02*
Y557124D01*
X449072Y489645D02*
Y557124D01*
X445008Y491623D02*
Y557124D01*
X447040Y490796D02*
Y557124D01*
X337566Y512064D02*
X498254D01*
X337432Y516128D02*
X498254D01*
X337566Y508000D02*
X498254D01*
X337566Y510032D02*
X498254D01*
X332725Y522224D02*
X498254D01*
X330693Y524256D02*
X498254D01*
X336594Y518160D02*
X498254D01*
X334757Y520192D02*
X498254D01*
X376126Y497840D02*
X498254D01*
X376126Y499872D02*
X498254D01*
X376126Y493776D02*
X498254D01*
X376126Y495808D02*
X498254D01*
X337566Y514096D02*
X498254D01*
X386566Y526288D02*
X498254D01*
X376126Y501904D02*
X498254D01*
X376126Y505968D02*
X498254D01*
X376126Y503936D02*
X498254D01*
X461264Y433426D02*
Y557124D01*
X459232Y433426D02*
Y557124D01*
X389149Y528320D02*
X498254D01*
X392009Y530352D02*
X560254D01*
X394041Y532384D02*
X560254D01*
X417456Y534416D02*
X560254D01*
X417456Y536448D02*
X560254D01*
X417456Y540512D02*
X599569D01*
X417456Y538480D02*
X560254D01*
X475488Y433426D02*
Y557124D01*
X473456Y433426D02*
Y557124D01*
X479552Y433426D02*
Y557124D01*
X477520Y433426D02*
Y557124D01*
X465328Y433426D02*
Y557124D01*
X463296Y433426D02*
Y557124D01*
X471424Y433426D02*
Y557124D01*
X467360Y433426D02*
Y557124D01*
X469392Y433426D02*
Y557124D01*
X386566Y550672D02*
X395344D01*
Y573276D02*
X417456D01*
X396240D02*
Y651764D01*
X400304Y573276D02*
Y651764D01*
X398272Y573276D02*
Y651764D01*
X404368Y573276D02*
Y651764D01*
X402336Y573276D02*
Y651764D01*
X417456Y554276D02*
Y557124D01*
Y569316D02*
Y573276D01*
Y553164D02*
Y554276D01*
Y553164D02*
Y554276D01*
X408432Y573276D02*
Y651764D01*
X406400Y573276D02*
Y651764D01*
X410464Y573276D02*
Y651764D01*
X412496Y573276D02*
Y651764D01*
X414528Y573276D02*
Y651785D01*
X426720Y569316D02*
Y661939D01*
X428752Y569316D02*
Y663971D01*
X430784Y569316D02*
Y666003D01*
X432816Y569316D02*
Y668035D01*
X416560Y573276D02*
Y652318D01*
X418592Y569316D02*
Y653811D01*
X420624Y569316D02*
Y655843D01*
X422656Y569316D02*
Y657875D01*
X424688Y569316D02*
Y659907D01*
X445008Y569316D02*
Y680227D01*
X447040Y569316D02*
Y682259D01*
X449072Y569316D02*
Y684291D01*
X451104Y569316D02*
Y686323D01*
X434848Y569316D02*
Y670067D01*
X436880Y569316D02*
Y672099D01*
X438912Y569316D02*
Y674131D01*
X440944Y569316D02*
Y676163D01*
X442976Y569316D02*
Y678195D01*
X417456Y569316D02*
X518175D01*
X417456Y570992D02*
X519851D01*
X417456Y573024D02*
X521883D01*
X307551Y575056D02*
X523915D01*
X307537Y577088D02*
X525947D01*
X307521Y579120D02*
X527304D01*
X307507Y581152D02*
X527304D01*
X307477Y585216D02*
X527304D01*
X307492Y583184D02*
X527304D01*
X417456Y542544D02*
X601601D01*
X417456Y544576D02*
X603633D01*
X417456Y546608D02*
X605665D01*
X417456Y548640D02*
X607868D01*
X417456Y552704D02*
X625604D01*
X417456Y557124D02*
X520700D01*
X417456Y550672D02*
X625604D01*
X417456Y556768D02*
X629564D01*
X417456Y554736D02*
X629564D01*
X457200Y569316D02*
Y692419D01*
X459232Y569316D02*
Y694451D01*
X461264Y569316D02*
Y696483D01*
X463296Y569316D02*
Y698515D01*
X453136Y569316D02*
Y688355D01*
X455168Y569316D02*
Y690387D01*
X307462Y587248D02*
X527304D01*
X307432Y591312D02*
X527304D01*
X307447Y589280D02*
X527304D01*
X475488Y569316D02*
Y710707D01*
X477520Y569316D02*
Y712739D01*
X479552Y569316D02*
Y714771D01*
X481584Y569316D02*
Y716803D01*
X465328Y569316D02*
Y700547D01*
X467360Y569316D02*
Y702579D01*
X469392Y569316D02*
Y704611D01*
X471424Y569316D02*
Y706643D01*
X473456Y569316D02*
Y708675D01*
X487680Y433426D02*
Y557124D01*
X481584Y433426D02*
Y557124D01*
X491744Y433426D02*
Y557124D01*
X489712Y433426D02*
Y557124D01*
X495808Y434445D02*
Y557124D01*
X493776Y433426D02*
Y557124D01*
X498254Y486944D02*
Y529056D01*
X497840Y436477D02*
Y557124D01*
X560254Y498944D02*
Y517056D01*
X526866Y486944D02*
Y529056D01*
Y501904D02*
X560254D01*
X526866Y503936D02*
X560254D01*
X526866Y514096D02*
X560254D01*
X526866Y516128D02*
X560254D01*
X526866Y508000D02*
X560254D01*
X526866Y512064D02*
X560254D01*
X526866Y510032D02*
X560254D01*
X485648Y433426D02*
Y557124D01*
X483616Y433426D02*
Y557124D01*
X528320Y449326D02*
Y562219D01*
X530352Y449326D02*
Y564251D01*
X532384Y449326D02*
Y566283D01*
X534416Y449326D02*
Y568315D01*
X536448Y449326D02*
Y570347D01*
X538480Y449326D02*
Y572550D01*
X540512Y449326D02*
Y809415D01*
X554736Y449326D02*
Y807598D01*
X552704Y449326D02*
Y808656D01*
X558800Y449326D02*
Y806824D01*
X556768Y449326D02*
Y807012D01*
X542544Y449326D02*
Y811665D01*
X544576Y449326D02*
Y824484D01*
X550672Y449326D02*
Y810385D01*
X546608Y449326D02*
Y824484D01*
X548640Y449326D02*
Y813520D01*
X526866Y493776D02*
X560254D01*
Y475944D02*
Y494056D01*
X588866D01*
X560832D02*
Y498944D01*
X526866Y499872D02*
X560254D01*
X526866Y505968D02*
X560254D01*
X526866Y495808D02*
X625604D01*
X526866Y497840D02*
X625604D01*
X560254Y498944D02*
X588866D01*
X564896Y494056D02*
Y498944D01*
X562864Y494056D02*
Y498944D01*
X568960Y494056D02*
Y498944D01*
X566928Y494056D02*
Y498944D01*
X573024Y494056D02*
Y498944D01*
X570992Y494056D02*
Y498944D01*
X575056Y494056D02*
Y498944D01*
X560254Y517056D02*
X588866D01*
X560254Y521944D02*
X588866D01*
X526866Y518160D02*
X629564D01*
X526866Y520192D02*
X629564D01*
X526866Y526288D02*
X560254D01*
X526866Y528320D02*
X560254D01*
X526866Y522224D02*
X560254D01*
X526866Y524256D02*
X560254D01*
Y521944D02*
Y540056D01*
X564896Y517056D02*
Y521944D01*
X562864Y517056D02*
Y521944D01*
X566928Y517056D02*
Y521944D01*
X560832Y517056D02*
Y521944D01*
X573024Y517056D02*
Y521944D01*
X568960Y517056D02*
Y521944D01*
X570992Y517056D02*
Y521944D01*
X503936Y529056D02*
Y557124D01*
X501904Y529056D02*
Y557124D01*
X508000Y529056D02*
Y557124D01*
X505968Y529056D02*
Y557124D01*
X483616Y569316D02*
Y718835D01*
X485648Y569316D02*
Y720867D01*
X499872Y529056D02*
Y557124D01*
X487680Y569316D02*
Y723070D01*
X512064Y529056D02*
Y557124D01*
X510032Y529056D02*
Y557124D01*
X516128Y529056D02*
Y557124D01*
X514096Y529056D02*
Y557124D01*
X520192Y529056D02*
Y557124D01*
X518160Y529056D02*
Y557124D01*
X522224Y529056D02*
Y557318D01*
X524256Y529056D02*
Y558269D01*
X501904Y569316D02*
Y808656D01*
X499872Y569316D02*
Y810385D01*
X505968Y569316D02*
Y807012D01*
X503936Y569316D02*
Y807598D01*
X491744Y569316D02*
Y806824D01*
X489712Y569316D02*
Y806824D01*
X497840Y569316D02*
Y813520D01*
X493776Y569316D02*
Y832104D01*
X495808Y569316D02*
Y832104D01*
X508000Y569316D02*
Y806824D01*
X510032Y569316D02*
Y807012D01*
X512064Y569316D02*
Y807598D01*
X514096Y569316D02*
Y808656D01*
X516128Y569316D02*
Y810385D01*
X518160Y569316D02*
Y813520D01*
X524256Y575397D02*
Y811665D01*
X520192Y571333D02*
Y821451D01*
X522224Y573365D02*
Y823483D01*
X526288Y529056D02*
Y560187D01*
X498254Y529056D02*
X526866D01*
X524898Y558800D02*
X629564D01*
X525010Y558910D02*
X537710Y571610D01*
X518175Y569316D02*
X527304Y578445D01*
X526933Y560832D02*
X629564D01*
X528965Y562864D02*
X629564D01*
X530997Y564896D02*
X629564D01*
X560254Y540056D02*
X588866D01*
X533029Y566928D02*
X629564D01*
X535061Y568960D02*
X629564D01*
X537093Y570992D02*
X629564D01*
X538764Y573024D02*
X629564D01*
X539435Y575056D02*
X629564D01*
X539496Y577088D02*
X629564D01*
X527304Y578445D02*
Y808656D01*
X526288Y577429D02*
Y809415D01*
X539496Y579120D02*
X629564D01*
X539496Y575920D02*
Y808656D01*
Y589280D02*
X629564D01*
X539496Y591312D02*
X629564D01*
X539496Y581152D02*
X629564D01*
X539496Y587248D02*
X629564D01*
X539496Y585216D02*
X629564D01*
X568960Y540056D02*
Y813520D01*
X570992Y540056D02*
Y824484D01*
X575056Y540056D02*
Y824484D01*
X573024Y540056D02*
Y824484D01*
X560832Y540056D02*
Y807012D01*
X562864Y540056D02*
Y807598D01*
X539496Y583184D02*
X629564D01*
X564896Y540056D02*
Y808656D01*
X566928Y540056D02*
Y810385D01*
X284226Y640080D02*
X292354D01*
X284226Y642112D02*
X292354D01*
X284226Y636016D02*
X292370D01*
X284226Y638048D02*
X292355D01*
X284226Y648208D02*
X292354D01*
X284226Y650240D02*
X292354D01*
X284226Y644144D02*
X292354D01*
X284226Y646176D02*
X292354D01*
X284226Y621792D02*
X292475D01*
X284226Y623824D02*
X292460D01*
X284226Y617728D02*
X292505D01*
X284226Y619760D02*
X292490D01*
X284226Y631952D02*
X292400D01*
X284226Y633984D02*
X292385D01*
X284226Y625856D02*
X292445D01*
X284226Y629920D02*
X292415D01*
X284226Y627888D02*
X292430D01*
X284226Y656336D02*
X292354D01*
X284226Y658368D02*
X292354D01*
X284226Y652272D02*
X292354D01*
X284226Y654304D02*
X292354D01*
X284226Y666496D02*
X292354D01*
X284226Y668528D02*
X292354D01*
X284226Y660400D02*
X292354D01*
X284226Y664464D02*
X292354D01*
X284226Y662432D02*
X292354D01*
X284226Y672592D02*
X292354D01*
X284226Y674624D02*
X292354D01*
X284226Y670560D02*
X292354D01*
Y638200D02*
Y715384D01*
X284226Y682752D02*
X292354D01*
X284226Y684784D02*
X292354D01*
X284226Y676656D02*
X292354D01*
X284226Y680720D02*
X292354D01*
X284226Y678688D02*
X292354D01*
X284226Y597408D02*
X292654D01*
X284226Y599440D02*
X292639D01*
X284226Y593344D02*
X292684D01*
X284226Y595376D02*
X292669D01*
X284226Y605536D02*
X292595D01*
X284226Y607568D02*
X292579D01*
X284226Y601472D02*
X292624D01*
X284226Y603504D02*
X292609D01*
X284226Y613664D02*
X292535D01*
X284226Y615696D02*
X292520D01*
X284226Y609600D02*
X292565D01*
X284226Y611632D02*
X292550D01*
X307086Y658368D02*
X349671D01*
X307086Y660400D02*
X347639D01*
X307086Y652272D02*
X356364D01*
X307086Y656336D02*
X351703D01*
X307086Y654304D02*
X353735D01*
X307086Y666496D02*
X334384D01*
X307086Y668528D02*
X334384D01*
X307086Y662432D02*
X334384D01*
X307086Y664464D02*
X334384D01*
X307086Y676656D02*
X334384D01*
X307086Y678688D02*
X334384D01*
X307086Y670560D02*
X334384D01*
X307086Y674624D02*
X334384D01*
X307086Y672592D02*
X334384D01*
Y661164D02*
Y680164D01*
X307086Y638227D02*
Y715384D01*
X334384Y661164D02*
X346875D01*
X334384Y680164D02*
Y681276D01*
X307086Y682752D02*
X334384D01*
X307086Y684784D02*
X334384D01*
X307086Y680720D02*
X334384D01*
Y681276D02*
Y700276D01*
Y680164D02*
Y681276D01*
X284226Y690880D02*
X292354D01*
X284226Y692912D02*
X292354D01*
X284226Y686816D02*
X292354D01*
X284226Y688848D02*
X292354D01*
X284226Y699008D02*
X292354D01*
X284226Y701040D02*
X292354D01*
X284226Y694944D02*
X292354D01*
X284226Y696976D02*
X292354D01*
X284226Y707136D02*
X292354D01*
X284226Y709168D02*
X292354D01*
X284226Y703072D02*
X292354D01*
X284226Y705104D02*
X292354D01*
X284226Y711200D02*
X292354D01*
X284226Y713232D02*
X292354D01*
X284226Y715264D02*
X292354D01*
X288664Y715384D02*
X292354D01*
X307086D02*
X310776D01*
X284226Y721360D02*
X288664D01*
X284226Y723392D02*
X288664D01*
X284226Y717296D02*
X288664D01*
X284226Y719328D02*
X288664D01*
X284226Y731520D02*
X288664D01*
X284226Y733552D02*
X288664D01*
X284226Y725424D02*
X288664D01*
X284226Y729488D02*
X288664D01*
X284226Y727456D02*
X288664D01*
X284226Y735584D02*
X288664D01*
Y715384D02*
Y737496D01*
X300359D01*
X296672D02*
Y741212D01*
X284226Y737616D02*
X300479D01*
X298704Y737496D02*
Y740831D01*
X284226Y739648D02*
X302511D01*
X300736Y737873D02*
Y740831D01*
X302768Y739905D02*
Y741212D01*
X307086Y690880D02*
X334384D01*
X307086Y692912D02*
X334384D01*
X307086Y686816D02*
X334384D01*
X307086Y688848D02*
X334384D01*
X307086Y694944D02*
X334384D01*
X307086Y696976D02*
X334384D01*
X307086Y699008D02*
X334384D01*
X307086Y703072D02*
X365274D01*
X307086Y701040D02*
X359897D01*
X334384Y700276D02*
X356496D01*
X335280D02*
Y716364D01*
X307086Y705104D02*
X372379D01*
X307086Y707136D02*
X370347D01*
X307086Y715264D02*
X363608D01*
X324914Y716364D02*
X338026D01*
X307086Y709168D02*
X368315D01*
X307086Y713232D02*
X364446D01*
X307086Y711200D02*
X366283D01*
X310776Y717296D02*
X324914D01*
X310776Y715384D02*
Y727079D01*
Y719328D02*
X324914D01*
X310776Y721360D02*
X324914D01*
X311153Y727456D02*
X324914D01*
X313185Y729488D02*
X324914D01*
X310776Y723392D02*
X324914D01*
X310776Y727079D02*
X324914Y741217D01*
X310776Y725424D02*
X324914D01*
X337312Y700276D02*
Y716364D01*
X338026Y716364D02*
X350314D01*
X321313Y737616D02*
X324914D01*
X323345Y739648D02*
X324914D01*
X315217Y731520D02*
X324914D01*
X317249Y733552D02*
X324914D01*
X319281Y735584D02*
X324914D01*
X346875Y661164D02*
X354489Y653549D01*
X356496Y668785D02*
X361325Y663956D01*
X356496Y670560D02*
X365274D01*
X356496Y680164D02*
Y681276D01*
Y672592D02*
X365274D01*
X356496Y680720D02*
X365274D01*
X367792Y663956D02*
Y668244D01*
X365760Y663956D02*
Y668244D01*
X371856Y663956D02*
Y668244D01*
X369824Y663956D02*
Y668244D01*
X356753Y668528D02*
X365274D01*
X356496Y668785D02*
Y680164D01*
Y674624D02*
X365274D01*
X356496Y678688D02*
X365274D01*
X356496Y676656D02*
X365274D01*
X356496Y680164D02*
Y681276D01*
X357632Y667649D02*
Y684172D01*
X359664Y665617D02*
Y684802D01*
X361696Y663956D02*
Y686425D01*
X356496Y681276D02*
Y684124D01*
Y682752D02*
X365274D01*
X361180Y685910D02*
X364475Y689204D01*
X365274Y668244D02*
Y684356D01*
X363728Y663956D02*
Y688457D01*
X371856Y684356D02*
Y687244D01*
X365760Y684356D02*
Y687244D01*
X364119Y688848D02*
X365274D01*
X364475Y689204D02*
X365274D01*
X369824Y684356D02*
Y687244D01*
X365274D02*
Y689204D01*
X367792Y684356D02*
Y687244D01*
X375920Y663956D02*
Y668244D01*
X373888Y663956D02*
Y668244D01*
X379984Y663956D02*
Y668244D01*
X377952Y663956D02*
Y668244D01*
X365274D02*
X381886D01*
Y680720D02*
X390274D01*
X400304Y663956D02*
Y677744D01*
X398272Y663956D02*
Y677744D01*
X404368Y663956D02*
Y677744D01*
X402336Y663956D02*
Y677744D01*
X381886Y678688D02*
X390274D01*
X381886Y682752D02*
X390274D01*
X396240Y663956D02*
Y677744D01*
X392176Y663956D02*
Y677744D01*
X394208Y663956D02*
Y677744D01*
X373888Y684356D02*
Y687244D01*
X365274Y684356D02*
X381886D01*
X379984D02*
Y687244D01*
X377952Y684356D02*
Y687244D01*
X375920Y684356D02*
Y687244D01*
X359629Y684784D02*
X390274D01*
X362087Y686816D02*
X390274D01*
X365274Y687244D02*
X381886D01*
X384048Y663956D02*
Y699008D01*
X382016Y663956D02*
Y699008D01*
X390144Y663956D02*
Y699008D01*
X386080Y663956D02*
Y699008D01*
X381886Y668244D02*
Y684356D01*
X381886Y687244D02*
Y699008D01*
Y688848D02*
X390274D01*
X388112Y663956D02*
Y699008D01*
X390274Y677744D02*
Y693856D01*
X356496Y698467D02*
X357640Y699611D01*
X356496Y698467D02*
Y700276D01*
X365274Y701396D02*
Y703356D01*
X363728Y701396D02*
Y714793D01*
X361950Y701396D02*
X365274D01*
X365260Y712224D02*
X374127Y703356D01*
X381886Y690880D02*
X390274D01*
X381886Y692912D02*
X390274D01*
X381886Y699008D02*
X392484D01*
X392176Y693856D02*
Y699008D01*
X367792Y703356D02*
Y709691D01*
X365760Y703356D02*
Y711723D01*
X365274Y703356D02*
X374127D01*
X369824D02*
Y707659D01*
X371856Y703356D02*
Y705627D01*
X341376Y700276D02*
Y716364D01*
X339344Y700276D02*
Y716364D01*
X345440Y700276D02*
Y716364D01*
X343408Y700276D02*
Y716364D01*
X347472Y700276D02*
Y716364D01*
X350726D02*
X363014D01*
X349504Y700276D02*
Y716364D01*
X351536Y700276D02*
Y716364D01*
X355600Y700276D02*
Y716364D01*
X353568Y700276D02*
Y716364D01*
X359664Y700951D02*
Y716364D01*
X357632Y699603D02*
Y716364D01*
X361696Y701391D02*
Y716364D01*
X376126Y718599D02*
X383525Y711200D01*
X381886Y694944D02*
X392484D01*
X381886Y696976D02*
X392484D01*
X390274Y693856D02*
X392484D01*
Y699008D01*
X381886D02*
X392484D01*
X383525Y711200D02*
X395151D01*
X383525D02*
X395151D01*
X379461Y715264D02*
X399539D01*
X381493Y713232D02*
X401571D01*
X399461Y709415D02*
X402890Y705985D01*
X404368Y703588D02*
Y710435D01*
X395151Y711200D02*
X403603D01*
X400304Y708572D02*
Y714499D01*
X402336Y706540D02*
Y712467D01*
X376126Y723392D02*
X393971D01*
X376126Y725424D02*
X393954D01*
X376126Y719328D02*
X395545D01*
X376126Y721360D02*
X394406D01*
X376126Y737616D02*
X393954D01*
X376126Y739648D02*
X393954D01*
X376126Y727456D02*
X393954D01*
X376126Y735584D02*
X393954D01*
X376126Y729488D02*
X393954D01*
X396240Y711102D02*
Y718563D01*
X394208Y711200D02*
Y721982D01*
X398272Y710340D02*
Y716531D01*
X396111Y718691D02*
X404391Y710412D01*
X376126Y731520D02*
X393954D01*
X376126Y733552D02*
X393954D01*
X377429Y717296D02*
X397507D01*
X284226Y745744D02*
X290496D01*
X284226Y747776D02*
X289438D01*
X284226Y741680D02*
X295360D01*
X284226Y743712D02*
X292225D01*
X284226Y749808D02*
X288852D01*
X284226Y751840D02*
X288664D01*
X284226Y753872D02*
X288852D01*
X284226Y755904D02*
X289438D01*
X292608Y737496D02*
Y743375D01*
X290576Y737496D02*
Y745625D01*
X294640Y737496D02*
Y742020D01*
X300359Y737496D02*
X304976Y742113D01*
X284226Y757936D02*
X290496D01*
X284226Y759968D02*
X292225D01*
X310896Y748033D02*
Y753725D01*
X292608Y760305D02*
Y797489D01*
X290576Y758055D02*
Y800049D01*
X284226Y762000D02*
X295360D01*
X284226Y764032D02*
X303961D01*
X284226Y766064D02*
X305993D01*
X284226Y768096D02*
X308025D01*
X284226Y772160D02*
X312089D01*
X284226Y770128D02*
X310057D01*
X296672Y762468D02*
Y794260D01*
X294640Y761660D02*
Y795642D01*
X302768Y762839D02*
Y792000D01*
X300736Y762849D02*
Y792487D01*
X304800Y764871D02*
Y791748D01*
X298704Y762849D02*
Y793229D01*
X306832Y766903D02*
Y791720D01*
X308864Y768935D02*
Y791916D01*
X310896Y770967D02*
Y792343D01*
X310588Y749808D02*
X312671D01*
X312928Y750065D02*
Y755757D01*
X310776Y751840D02*
X314703D01*
X309447Y746584D02*
X323722Y760859D01*
X311043Y753872D02*
X316735D01*
X314960Y752097D02*
Y757789D01*
X313075Y755904D02*
X318767D01*
X315107Y757936D02*
X320799D01*
X324914Y716364D02*
Y741217D01*
X316992Y754129D02*
Y759821D01*
X329173Y745476D02*
X338026D01*
X329173D02*
X331981Y748284D01*
X317139Y759968D02*
X322831D01*
X319024Y756161D02*
Y761853D01*
X319171Y762000D02*
X325197D01*
X328930Y763016D02*
X383939D01*
X321056Y758193D02*
Y763885D01*
X312928Y772999D02*
Y793018D01*
X310653Y753482D02*
X325535Y768364D01*
X302476Y762547D02*
X324914Y784985D01*
X284226Y774192D02*
X314121D01*
X314960Y775031D02*
Y793972D01*
X284226Y776224D02*
X316153D01*
X284226Y778256D02*
X318185D01*
X316992Y777063D02*
Y795259D01*
X323088Y760225D02*
Y765917D01*
X325120Y761954D02*
Y767949D01*
X327152Y762798D02*
Y768364D01*
X325535D02*
X337614D01*
X329184Y763016D02*
Y768364D01*
X321203Y764032D02*
X384955D01*
X323235Y766064D02*
X386264D01*
X325267Y768096D02*
X386264D01*
X284226Y796544D02*
X293572D01*
X284226Y798576D02*
X291654D01*
X284226Y792480D02*
X300760D01*
X284226Y794512D02*
X296255D01*
X284226Y804672D02*
X288375D01*
X284226Y806704D02*
X287858D01*
X284226Y800608D02*
X290222D01*
X284226Y802640D02*
X289151D01*
X284226Y808736D02*
X287577D01*
X284226Y810768D02*
X287521D01*
X319024Y779095D02*
Y796974D01*
X284226Y812800D02*
X287689D01*
X284226Y814832D02*
X288086D01*
X284226Y816864D02*
X288729D01*
X284226Y818896D02*
X289646D01*
X284226Y822960D02*
X292541D01*
X284226Y820928D02*
X290887D01*
X290576Y820471D02*
Y832104D01*
X288544Y816356D02*
Y832104D01*
X294640Y824878D02*
Y832104D01*
X292608Y823031D02*
Y832104D01*
X284226Y824992D02*
X294788D01*
X296672Y826260D02*
Y832104D01*
X284226Y827024D02*
X298114D01*
X298704Y827291D02*
Y832104D01*
X300736Y828033D02*
Y832104D01*
X314960Y826548D02*
Y832104D01*
X312928Y827502D02*
Y832104D01*
X319024Y823546D02*
Y832104D01*
X316992Y825261D02*
Y832104D01*
X304800Y828773D02*
Y832104D01*
X302768Y828520D02*
Y832104D01*
X310896Y828177D02*
Y832104D01*
X306832Y828800D02*
Y832104D01*
X308864Y828604D02*
Y832104D01*
X284226Y780288D02*
X320217D01*
X284226Y782320D02*
X322249D01*
X284226Y784352D02*
X324281D01*
X284226Y786384D02*
X324914D01*
X315885Y794512D02*
X324914D01*
X318568Y796544D02*
X324914D01*
X284226Y788416D02*
X324914D01*
X284226Y790448D02*
X324914D01*
X311380Y792480D02*
X324914D01*
X321056Y781127D02*
Y799317D01*
X323088Y783159D02*
Y802863D01*
X324914Y797476D02*
X337614D01*
X324914Y784985D02*
Y797476D01*
X320486Y798576D02*
X376295D01*
X321918Y800608D02*
X378327D01*
X322989Y802640D02*
X380359D01*
X323765Y804672D02*
X382391D01*
X324282Y806704D02*
X384423D01*
X322494Y818896D02*
X386264D01*
X321253Y820928D02*
X386264D01*
X319599Y822960D02*
X386264D01*
X321056Y821203D02*
Y832104D01*
X317352Y824992D02*
X386264D01*
X284226Y829056D02*
X386264D01*
X314026Y827024D02*
X386264D01*
X327152Y797476D02*
Y832104D01*
X325120Y797476D02*
Y832104D01*
X324563Y808736D02*
X386264D01*
X329184Y797476D02*
Y832104D01*
X323411Y816864D02*
X386264D01*
X323088Y817657D02*
Y832104D01*
X324619Y810768D02*
X386264D01*
X324054Y814832D02*
X386264D01*
X324451Y812800D02*
X386264D01*
X339344Y745476D02*
Y748284D01*
X338026Y745476D02*
X350314D01*
X341376D02*
Y748284D01*
X331216Y745476D02*
Y747519D01*
X333248Y745476D02*
Y748284D01*
X337312Y745476D02*
Y748284D01*
X335280Y745476D02*
Y748284D01*
X345440Y745476D02*
Y748284D01*
X347472Y745476D02*
Y748284D01*
X349504Y745476D02*
Y748284D01*
X343408Y745476D02*
Y748284D01*
X359664Y745476D02*
Y748284D01*
X355600Y745476D02*
Y748284D01*
X357632Y745476D02*
Y748284D01*
X343408Y763016D02*
Y768364D01*
X341376Y763016D02*
Y768364D01*
X347472Y763016D02*
Y768364D01*
X345440Y763016D02*
Y768364D01*
X333248Y763016D02*
Y768364D01*
X331216Y763016D02*
Y768364D01*
X339344Y763016D02*
Y768364D01*
X335280Y763016D02*
Y768364D01*
X337312Y763016D02*
Y768364D01*
X351536Y745476D02*
Y748284D01*
X349504Y763016D02*
Y768364D01*
X353568Y745476D02*
Y748284D01*
X351536Y763016D02*
Y768364D01*
X355600Y763016D02*
Y768364D01*
X353568Y763016D02*
Y768364D01*
X361696Y763016D02*
Y768364D01*
X357632Y763016D02*
Y768364D01*
X359664Y763016D02*
Y768364D01*
X350726Y745476D02*
X363014D01*
X361696D02*
Y748284D01*
X363426Y745476D02*
X376126D01*
X363728D02*
Y748284D01*
X367792Y745476D02*
Y748284D01*
X365760Y745476D02*
Y748284D01*
X329441Y745744D02*
X393954D01*
X331473Y747776D02*
X393954D01*
X369824Y745476D02*
Y748284D01*
X376126Y718599D02*
Y745476D01*
X377952Y716773D02*
Y748284D01*
X386080Y711200D02*
Y748284D01*
X379984Y714741D02*
Y748284D01*
X373888Y745476D02*
Y748284D01*
X371856Y745476D02*
Y748284D01*
X376126Y741680D02*
X393954D01*
X375920Y745476D02*
Y748284D01*
X376126Y743712D02*
X393954D01*
X367792Y763016D02*
Y768364D01*
X365760Y763016D02*
Y768364D01*
X331981Y748284D02*
X386990D01*
X382016Y712709D02*
Y748284D01*
X369824Y763016D02*
Y768364D01*
X363728Y763016D02*
Y768364D01*
X375920Y763016D02*
Y768364D01*
X377952Y763016D02*
Y782991D01*
X379984Y763016D02*
Y785023D01*
X384048Y711200D02*
Y748284D01*
X388112Y711200D02*
Y748370D01*
X390144Y711200D02*
Y748994D01*
X392176Y711200D02*
Y750419D01*
X391476Y749808D02*
X393954D01*
X392198Y750442D02*
X393954Y752197D01*
Y723900D02*
Y752197D01*
X333248Y797476D02*
Y832104D01*
X331216Y797476D02*
Y832104D01*
X338026Y768364D02*
X350314D01*
X337312Y797476D02*
Y832104D01*
X341376Y797476D02*
Y832104D01*
X339344Y797476D02*
Y832104D01*
X338026Y797476D02*
X350314D01*
X349504D02*
Y832104D01*
X371856Y763016D02*
Y768364D01*
X350726D02*
X363014D01*
X363426D02*
X376126D01*
X373888Y763016D02*
Y768364D01*
X353568Y797476D02*
Y832104D01*
X351536Y797476D02*
Y832104D01*
X376126Y768364D02*
Y781165D01*
X350726Y797476D02*
X363014D01*
X363426D02*
X375195D01*
X359664D02*
Y832104D01*
X357632Y797476D02*
Y832104D01*
X363728Y797476D02*
Y832104D01*
X361696Y797476D02*
Y832104D01*
X343408Y797476D02*
Y832104D01*
X335280Y797476D02*
Y832104D01*
X355600Y797476D02*
Y832104D01*
X345440Y797476D02*
Y832104D01*
X347472Y797476D02*
Y832104D01*
X367792Y797476D02*
Y832104D01*
X365760Y797476D02*
Y832104D01*
X371856Y797476D02*
Y832104D01*
X369824Y797476D02*
Y832104D01*
X375920Y798201D02*
Y832104D01*
X373888Y797476D02*
Y832104D01*
X382016Y804297D02*
Y832104D01*
X377952Y800233D02*
Y832104D01*
X379984Y802265D02*
Y832104D01*
X376126Y770128D02*
X386264D01*
X382016Y763016D02*
Y787055D01*
X376126Y772160D02*
X386264D01*
X376126Y774192D02*
X386264D01*
X377281Y782320D02*
X386264D01*
X379313Y784352D02*
X386264D01*
X376126Y776224D02*
X386264D01*
X376126Y780288D02*
X386264D01*
X376126Y778256D02*
X386264D01*
X384048Y763125D02*
Y789087D01*
X386080Y765157D02*
Y791119D01*
X383939Y763016D02*
X386264Y765341D01*
Y785036D01*
X388112D02*
Y793151D01*
X390144Y785036D02*
Y795183D01*
X392176Y785036D02*
Y797215D01*
X394208Y785036D02*
Y799247D01*
X404368Y785036D02*
Y799924D01*
X386080Y808361D02*
Y832104D01*
X384048Y806329D02*
Y832104D01*
X376126Y781165D02*
X394885Y799924D01*
X375195Y797476D02*
X386264Y808545D01*
Y830036D01*
X388112D02*
Y832104D01*
X394208Y830036D02*
Y832104D01*
X390144Y830036D02*
Y832104D01*
X392176Y830036D02*
Y832104D01*
X398272Y785036D02*
Y799924D01*
X396240Y785036D02*
Y799924D01*
X402336Y785036D02*
Y799924D01*
X400304Y785036D02*
Y799924D01*
X398272Y830036D02*
Y832104D01*
X396240Y830036D02*
Y832104D01*
X404368Y830036D02*
Y832104D01*
X400304Y830036D02*
Y832104D01*
X402336Y830036D02*
Y832104D01*
X307162Y627888D02*
X527304D01*
X307147Y629920D02*
X527304D01*
X307267Y613664D02*
X527304D01*
X307252Y615696D02*
X527304D01*
X361325Y663956D02*
X411495D01*
X360817Y664464D02*
X412003D01*
X358800Y651764D02*
X414020D01*
X358785Y666496D02*
X414035D01*
X381886Y668528D02*
X416067D01*
X406400Y663956D02*
Y677744D01*
X381886Y670560D02*
X418099D01*
X390274Y677744D02*
X406886D01*
X381886Y672592D02*
X420131D01*
X381886Y676656D02*
X424195D01*
X381886Y674624D02*
X422163D01*
X408432Y663956D02*
Y681041D01*
X410464Y663956D02*
Y683021D01*
X412496Y664957D02*
Y685053D01*
X411495Y663956D02*
X476504Y728965D01*
X406886Y677744D02*
Y680140D01*
Y678688D02*
X426227D01*
X407992Y680720D02*
X428259D01*
X416560Y669021D02*
Y686564D01*
X414528Y666989D02*
Y686564D01*
X418592Y671053D02*
Y686564D01*
X418330Y653549D02*
X486911Y722130D01*
X422656Y675117D02*
Y686564D01*
X420624Y673085D02*
Y686564D01*
X428752Y681213D02*
Y686564D01*
X424688Y677149D02*
Y686564D01*
X426720Y679181D02*
Y686564D01*
X307222Y619760D02*
X527304D01*
X307207Y621792D02*
X527304D01*
X307282Y611632D02*
X527304D01*
X307237Y617728D02*
X527304D01*
X307132Y631952D02*
X527304D01*
X307117Y633984D02*
X527304D01*
X307192Y623824D02*
X527304D01*
X307177Y625856D02*
X527304D01*
X307387Y597408D02*
X527304D01*
X307372Y599440D02*
X527304D01*
X307417Y593344D02*
X527304D01*
X307402Y595376D02*
X527304D01*
X307312Y607568D02*
X527304D01*
X307297Y609600D02*
X527304D01*
X307357Y601472D02*
X527304D01*
X307327Y605536D02*
X527304D01*
X307342Y603504D02*
X527304D01*
X307086Y640080D02*
X527304D01*
X307086Y642112D02*
X527304D01*
X307102Y636016D02*
X527304D01*
X307087Y638048D02*
X527304D01*
X307086Y650240D02*
X527304D01*
X416456Y652272D02*
X527304D01*
X307086Y644144D02*
X527304D01*
X307086Y648208D02*
X527304D01*
X307086Y646176D02*
X527304D01*
X423149Y658368D02*
X527304D01*
X425181Y660400D02*
X527304D01*
X419085Y654304D02*
X527304D01*
X421117Y656336D02*
X527304D01*
X433309Y668528D02*
X527304D01*
X435341Y670560D02*
X527304D01*
X427213Y662432D02*
X527304D01*
X429245Y664464D02*
X527304D01*
X431277Y666496D02*
X527304D01*
X404676Y696976D02*
X407177D01*
X404676Y694475D02*
Y701675D01*
Y699008D02*
X409209D01*
X404676Y694475D02*
X410584Y700383D01*
X403620Y705104D02*
X410584D01*
X401740Y707136D02*
X410584D01*
X404676Y701040D02*
X410584D01*
X404514Y703072D02*
X410584D01*
X410464Y700263D02*
Y708254D01*
X408432Y698231D02*
Y708347D01*
X410195Y682752D02*
X430291D01*
X408932Y681489D02*
X414007Y686564D01*
X410584Y706676D02*
Y708254D01*
X409600D02*
X410584D01*
Y700383D02*
Y705564D01*
Y706676D01*
Y705564D02*
Y706676D01*
X406400Y696199D02*
Y708986D01*
X399708Y709168D02*
X406046D01*
X408686Y726951D02*
X410584Y725053D01*
X408686Y749808D02*
X421982D01*
X408686Y737616D02*
X429130D01*
X408686Y741680D02*
X425103D01*
X408686Y739648D02*
X426788D01*
X424688Y725676D02*
Y742291D01*
X422656Y725676D02*
Y746626D01*
X428752Y725676D02*
Y737897D01*
X426720Y725676D02*
Y739719D01*
X408686Y751840D02*
X421864D01*
X408686Y753872D02*
X421982D01*
X408686Y743712D02*
X423859D01*
X408686Y747776D02*
X422341D01*
X408686Y745744D02*
X422956D01*
X412227Y684784D02*
X432323D01*
X430784Y683245D02*
Y686564D01*
X414007D02*
X432696D01*
Y686816D02*
X434355D01*
X432696Y688848D02*
X436387D01*
X432696Y690880D02*
X438419D01*
X432696Y692912D02*
X440451D01*
X432696Y696976D02*
X444515D01*
X432696Y694944D02*
X442483D01*
X432696Y699008D02*
X446547D01*
X432696Y686564D02*
Y705564D01*
Y701040D02*
X448579D01*
X432696Y703072D02*
X450611D01*
X432696Y705564D02*
Y706676D01*
Y705564D02*
Y706676D01*
Y705104D02*
X452643D01*
X432696Y709168D02*
X456707D01*
X432696Y707136D02*
X454675D01*
X410584Y725676D02*
X432696D01*
X430784D02*
Y736555D01*
X432696Y717296D02*
X464835D01*
X432696Y719328D02*
X466867D01*
X408686Y727456D02*
X474995D01*
X408686Y735584D02*
X432790D01*
X408686Y729488D02*
X476504D01*
X408686Y733552D02*
X476504D01*
X408686Y731520D02*
X476504D01*
X432696Y706676D02*
Y725676D01*
X432816Y685277D02*
Y735574D01*
X432696Y711200D02*
X458739D01*
X434848Y687309D02*
Y734890D01*
X432696Y713232D02*
X460771D01*
X432696Y715264D02*
X462803D01*
X432696Y721360D02*
X468899D01*
X432696Y725424D02*
X472963D01*
X432696Y723392D02*
X470931D01*
X439405Y674624D02*
X527304D01*
X441437Y676656D02*
X527304D01*
X539496Y660400D02*
X609244D01*
X437373Y672592D02*
X527304D01*
X447533Y682752D02*
X527304D01*
X449565Y684784D02*
X527304D01*
X443469Y678688D02*
X527304D01*
X445501Y680720D02*
X527304D01*
X539496Y658368D02*
X609244D01*
X539496Y662432D02*
X609244D01*
X539496Y654304D02*
X609244D01*
X539496Y656336D02*
X609244D01*
X539496Y682752D02*
X605284D01*
X539496Y684784D02*
X605284D01*
X539496Y664464D02*
X609244D01*
X539496Y680720D02*
X605284D01*
X539496Y666496D02*
X609244D01*
X451597Y686816D02*
X527304D01*
X436880Y689341D02*
Y734469D01*
X453629Y688848D02*
X527304D01*
X455661Y690880D02*
X527304D01*
X438912Y691373D02*
Y734291D01*
X440944Y693405D02*
Y734350D01*
X457693Y692912D02*
X527304D01*
X442976Y695437D02*
Y734648D01*
X445008Y697469D02*
Y735197D01*
X539496Y690880D02*
X605284D01*
X539496Y692912D02*
X605284D01*
X539496Y686816D02*
X605284D01*
X539496Y688848D02*
X605284D01*
X459725Y694944D02*
X527304D01*
X461757Y696976D02*
X527304D01*
X539496Y694944D02*
X605284D01*
X539496Y699008D02*
X605284D01*
X539496Y696976D02*
X605284D01*
X539496Y615696D02*
X629564D01*
X539496Y617728D02*
X629564D01*
X539496Y611632D02*
X629564D01*
X539496Y613664D02*
X629564D01*
X539496Y625856D02*
X629564D01*
X539496Y627888D02*
X629564D01*
X539496Y619760D02*
X629564D01*
X539496Y623824D02*
X629564D01*
X539496Y621792D02*
X629564D01*
X539496Y597408D02*
X629564D01*
X539496Y599440D02*
X629564D01*
X539496Y593344D02*
X629564D01*
X539496Y595376D02*
X629564D01*
X539496Y607568D02*
X629564D01*
X539496Y609600D02*
X629564D01*
X539496Y601472D02*
X629564D01*
X539496Y605536D02*
X629564D01*
X539496Y603504D02*
X629564D01*
X539496Y652272D02*
X609305D01*
X539496Y668528D02*
X609244D01*
X539496Y648208D02*
X611647D01*
X539496Y650240D02*
X609976D01*
X539496Y676656D02*
X609244D01*
X539496Y678688D02*
X609244D01*
X539496Y670560D02*
X609244D01*
X539496Y674624D02*
X609244D01*
X539496Y672592D02*
X609244D01*
X539496Y633984D02*
X625871D01*
X539496Y636016D02*
X623839D01*
X539496Y629920D02*
X629564D01*
X539496Y631952D02*
X627903D01*
X539496Y644144D02*
X615711D01*
X539496Y646176D02*
X613679D01*
X539496Y638048D02*
X621807D01*
X539496Y642112D02*
X617743D01*
X539496Y640080D02*
X619775D01*
X467853Y703072D02*
X527304D01*
X469885Y705104D02*
X527304D01*
X463789Y699008D02*
X527304D01*
X465821Y701040D02*
X527304D01*
X475981Y711200D02*
X527304D01*
X478013Y713232D02*
X527304D01*
X471917Y707136D02*
X527304D01*
X473949Y709168D02*
X527304D01*
X484109Y719328D02*
X527304D01*
X486141Y721360D02*
X527304D01*
X480045Y715264D02*
X527304D01*
X482077Y717296D02*
X527304D01*
X487879Y723392D02*
X527304D01*
X488611Y725424D02*
X527304D01*
X488696Y727456D02*
X527304D01*
X447040Y699501D02*
Y736024D01*
X449072Y701533D02*
Y737175D01*
X451104Y703565D02*
Y738737D01*
X453136Y705597D02*
Y740882D01*
X453737Y741680D02*
X476504D01*
X454981Y743712D02*
X476504D01*
X446050Y735584D02*
X476504D01*
X449710Y737616D02*
X476504D01*
X452052Y739648D02*
X476504D01*
X488696Y729488D02*
X527304D01*
X455168Y707629D02*
Y744080D01*
X488696Y739648D02*
X527304D01*
X488696Y741680D02*
X527304D01*
X456976Y751840D02*
X476504D01*
X456858Y753872D02*
X476504D01*
X455884Y745744D02*
X476504D01*
X456499Y747776D02*
X476504D01*
X456858Y749808D02*
X476504D01*
X539496Y701040D02*
X605284D01*
X539496Y703072D02*
X609244D01*
X539496Y705104D02*
X609244D01*
X539496Y707136D02*
X609244D01*
X539496Y715264D02*
X608584D01*
X488696Y731520D02*
X527304D01*
X539496Y709168D02*
X609244D01*
X539496Y713232D02*
X608620D01*
X539496Y711200D02*
X609211D01*
X539496Y721360D02*
X608584D01*
X539496Y723392D02*
X608584D01*
X539496Y717296D02*
X608584D01*
X539496Y719328D02*
X608584D01*
X539496Y731520D02*
X603624D01*
X539496Y733552D02*
X603624D01*
X539496Y725424D02*
X608584D01*
X539496Y729488D02*
X603624D01*
X539496Y727456D02*
X603624D01*
X488696Y733552D02*
X527304D01*
X488696Y735584D02*
X527304D01*
X539496Y737616D02*
X603624D01*
X488696D02*
X527304D01*
X488696Y749808D02*
X527304D01*
X488696Y751840D02*
X527304D01*
X488696Y743712D02*
X527304D01*
X488696Y747776D02*
X527304D01*
X488696Y745744D02*
X527304D01*
X539496Y741680D02*
X603624D01*
X539496Y743712D02*
X603624D01*
X539496Y735584D02*
X603624D01*
X539496Y739648D02*
X603624D01*
X539496Y745744D02*
X603624D01*
X539496Y753872D02*
X607185D01*
X539496Y747776D02*
X608584D01*
X539496Y751840D02*
X608584D01*
X539496Y749808D02*
X608584D01*
X410464Y725173D02*
Y754924D01*
X408686Y726951D02*
Y754924D01*
X414528Y725676D02*
Y754924D01*
X412496Y725676D02*
Y754924D01*
X408686D02*
X416376D01*
Y755904D02*
X422341D01*
X416376Y757936D02*
X422956D01*
X416376Y759968D02*
X423859D01*
X416376Y754924D02*
Y774619D01*
X416560Y725676D02*
Y774803D01*
X418592Y725676D02*
Y776835D01*
X420624Y725676D02*
Y778867D01*
X422656Y757054D02*
Y780899D01*
X424688Y761389D02*
Y782931D01*
X416376Y762000D02*
X425103D01*
X416376Y766064D02*
X429130D01*
X416376Y764032D02*
X426788D01*
X386264Y785036D02*
X405959D01*
X381345Y786384D02*
X407307D01*
X383377Y788416D02*
X409339D01*
X405959Y785036D02*
X424351Y803428D01*
X385409Y790448D02*
X411371D01*
X387441Y792480D02*
X413403D01*
X389473Y794512D02*
X415435D01*
X391505Y796544D02*
X417467D01*
X393537Y798576D02*
X419499D01*
X408432Y787509D02*
Y799924D01*
X406400Y785477D02*
Y799924D01*
X426720Y763961D02*
Y784963D01*
X428752Y765783D02*
Y786995D01*
X412496Y791573D02*
Y799924D01*
X410464Y789541D02*
Y799924D01*
X414528Y793605D02*
Y799924D01*
X416560Y795637D02*
Y808884D01*
X418592Y797669D02*
Y808932D01*
X416376Y768096D02*
X432790D01*
X416376Y770128D02*
X476504D01*
X417981Y776224D02*
X476504D01*
X420013Y778256D02*
X476504D01*
X416376Y772160D02*
X476504D01*
X416376Y774192D02*
X476504D01*
X446050Y768096D02*
X476504D01*
X440944Y769330D02*
Y788164D01*
X452052Y764032D02*
X476504D01*
X449710Y766064D02*
X476504D01*
X422045Y780288D02*
X476504D01*
X438912Y769389D02*
Y788164D01*
X424077Y782320D02*
X476504D01*
X426109Y784352D02*
X476504D01*
X428141Y786384D02*
X476504D01*
X432816Y768107D02*
Y788164D01*
X430784Y767125D02*
Y788164D01*
X447040Y767656D02*
Y788164D01*
X445008Y768483D02*
Y788164D01*
X434848Y768790D02*
Y788164D01*
X416376Y774619D02*
X429921Y788164D01*
X447936D01*
X436880Y769211D02*
Y788164D01*
X442976Y769032D02*
Y788164D01*
X447936D02*
Y807164D01*
X449072Y766505D02*
Y832104D01*
X447936Y788416D02*
X476504D01*
X451104Y764943D02*
Y832104D01*
X447936Y796544D02*
X476504D01*
X447936Y798576D02*
X476504D01*
X447936Y790448D02*
X476504D01*
X447936Y794512D02*
X476504D01*
X447936Y792480D02*
X476504D01*
X394885Y799924D02*
X416376D01*
Y808884D01*
Y800608D02*
X421531D01*
X416376Y802640D02*
X423563D01*
X416376Y808884D02*
X417830D01*
X416376Y804672D02*
X425824D01*
X416376Y806704D02*
X425824D01*
X420624Y799701D02*
Y809562D01*
X424688Y803745D02*
Y811124D01*
X425824Y807164D02*
Y808276D01*
Y804568D02*
Y807164D01*
X422595Y811124D02*
X425824D01*
Y808276D02*
Y811124D01*
X416376Y822069D02*
Y830036D01*
X408432D02*
Y832104D01*
X416376Y827024D02*
X425824D01*
X410464Y830036D02*
Y832104D01*
X406400Y830036D02*
Y832104D01*
X386264Y830036D02*
X416376D01*
X412496D02*
Y832104D01*
X414528Y830036D02*
Y832104D01*
X416376Y822960D02*
X418017D01*
X416560Y822204D02*
Y832104D01*
X422656Y801733D02*
Y811124D01*
X420624Y823316D02*
Y832104D01*
X418592Y823134D02*
Y832104D01*
X425824Y823316D02*
Y827276D01*
X422656Y823316D02*
Y832104D01*
X424688Y823316D02*
Y832104D01*
X447936Y806704D02*
X476504D01*
X425824Y807164D02*
Y808276D01*
X447936Y800608D02*
X476504D01*
X447936Y802640D02*
X476504D01*
X420070Y823316D02*
X425824D01*
X416376Y824992D02*
X425824D01*
X447936Y807164D02*
Y808276D01*
X416376Y808736D02*
X425824D01*
X447936Y807164D02*
Y808276D01*
Y810768D02*
X471544D01*
X447936Y812800D02*
X471544D01*
X447936Y804672D02*
X476504D01*
X447936Y808736D02*
X471544D01*
X447936Y820928D02*
X471544D01*
X447936Y822960D02*
X471544D01*
X447936Y814832D02*
X471544D01*
X447936Y818896D02*
X471544D01*
X447936Y816864D02*
X471544D01*
X428752Y827276D02*
Y832104D01*
X426720Y827276D02*
Y832104D01*
X425824Y827276D02*
X447936D01*
X434848D02*
Y832104D01*
X432816Y827276D02*
Y832104D01*
X430784Y827276D02*
Y832104D01*
X416376Y829056D02*
X510555D01*
X284226Y832104D02*
X513603D01*
X284226Y831088D02*
X512587D01*
X447936Y808276D02*
Y827276D01*
X440944D02*
Y832104D01*
X447936Y824992D02*
X471544D01*
X447936Y827024D02*
X471544D01*
X438912Y827276D02*
Y832104D01*
X436880Y827276D02*
Y832104D01*
X447040Y827276D02*
Y832104D01*
X442976Y827276D02*
Y832104D01*
X445008Y827276D02*
Y832104D01*
X456499Y755904D02*
X476504D01*
X455884Y757936D02*
X476504D01*
X488696Y753872D02*
X527304D01*
X488696Y755904D02*
X527304D01*
X454981Y759968D02*
X476504D01*
X453737Y762000D02*
X476504D01*
X488696Y757936D02*
X527304D01*
X488696Y759968D02*
X527304D01*
X488696Y766064D02*
X527304D01*
X488696Y768096D02*
X527304D01*
X488696Y762000D02*
X527304D01*
X488696Y764032D02*
X527304D01*
X488696Y776224D02*
X527304D01*
X488696Y784352D02*
X527304D01*
X488696Y770128D02*
X527304D01*
X488696Y774192D02*
X527304D01*
X488696Y772160D02*
X527304D01*
X459232Y711693D02*
Y832104D01*
X457200Y709661D02*
Y832104D01*
X463296Y715757D02*
Y832104D01*
X461264Y713725D02*
Y832104D01*
X455168Y759600D02*
Y832104D01*
X453136Y762798D02*
Y832104D01*
X469392Y721853D02*
Y832104D01*
X465328Y717789D02*
Y832104D01*
X467360Y719821D02*
Y832104D01*
X473456Y725917D02*
Y806824D01*
X471424Y723885D02*
Y832104D01*
X488696Y726440D02*
Y806824D01*
X475488Y727949D02*
Y806824D01*
X488696Y786384D02*
X527304D01*
X476504Y728965D02*
Y806824D01*
X488696Y790448D02*
X527304D01*
X488696Y794512D02*
X527304D01*
X488696Y792480D02*
X527304D01*
X539496Y759968D02*
X603812D01*
X539496Y762000D02*
X603624D01*
X539496Y757936D02*
X604398D01*
X539496Y764032D02*
X603812D01*
X488696Y778256D02*
X527304D01*
X488696Y780288D02*
X527304D01*
X539496Y766064D02*
X604398D01*
X488696Y782320D02*
X527304D01*
X539496Y768096D02*
X605456D01*
X539496Y755904D02*
X605456D01*
X539496Y770128D02*
X607185D01*
X539496Y772160D02*
X608584D01*
X539496Y774192D02*
X608584D01*
X539496Y782320D02*
X604860D01*
X539496Y784352D02*
X604052D01*
X539496Y776224D02*
X608584D01*
X539496Y780288D02*
X606215D01*
X539496Y778256D02*
X608465D01*
X488696Y788416D02*
X527304D01*
X488696Y796544D02*
X527304D01*
X539496Y792480D02*
X604860D01*
X539496Y794512D02*
X606215D01*
X488696Y804672D02*
X527304D01*
X488696Y806704D02*
X527304D01*
X488696Y798576D02*
X527304D01*
X488696Y802640D02*
X527304D01*
X488696Y800608D02*
X527304D01*
X539496Y786384D02*
X603671D01*
X539496Y788416D02*
X603671D01*
X539496Y790448D02*
X604052D01*
X539496Y796544D02*
X608465D01*
X539496Y804672D02*
X607185D01*
X539496Y806704D02*
X605456D01*
X539496Y798576D02*
X608584D01*
X539496Y802640D02*
X608584D01*
X539496Y800608D02*
X608584D01*
X471544Y806824D02*
X476504D01*
X471544D02*
Y828936D01*
X488696Y806824D02*
X493656D01*
Y808736D02*
X501785D01*
X471544Y828936D02*
X493656D01*
X483616D02*
Y832104D01*
X493656Y814832D02*
X497372D01*
X493656Y816864D02*
X496991D01*
X493656Y812800D02*
X498180D01*
X493656Y806824D02*
Y828936D01*
Y810768D02*
X499535D01*
X493656Y818896D02*
X496991D01*
X493656Y820928D02*
X497372D01*
X493656Y822960D02*
X498180D01*
X493656Y827024D02*
X501785D01*
X493656Y824992D02*
X499535D01*
X487680Y828936D02*
Y832104D01*
X485648Y828936D02*
Y832104D01*
X491744Y828936D02*
Y832104D01*
X489712Y828936D02*
Y832104D01*
X475488Y828936D02*
Y832104D01*
X473456Y828936D02*
Y832104D01*
X481584Y828936D02*
Y832104D01*
X477520Y828936D02*
Y832104D01*
X479552Y828936D02*
Y832104D01*
X499872Y825375D02*
Y832104D01*
X497840Y822240D02*
Y832104D01*
X503936Y828162D02*
Y832104D01*
X501904Y827104D02*
Y832104D01*
X508000Y828936D02*
Y832104D01*
X505968Y828748D02*
Y832104D01*
X510211Y828713D02*
X513603Y832104D01*
X510032Y828748D02*
Y832104D01*
X512064Y830565D02*
Y832104D01*
X514215Y808736D02*
X527185D01*
X516465Y810768D02*
X524935D01*
X539615Y808736D02*
X552585D01*
X518628Y814832D02*
X522772D01*
X519009Y816864D02*
X522391D01*
X541865Y810768D02*
X550335D01*
X517820Y812800D02*
X523580D01*
X543220D02*
X548980D01*
X568620D02*
X603624D01*
X544028Y814832D02*
X548172D01*
X565015Y808736D02*
X604398D01*
X567265Y810768D02*
X603812D01*
X544409Y816864D02*
X547791D01*
X544409Y818896D02*
X547791D01*
X569428Y814832D02*
X603812D01*
X569809Y818896D02*
X605456D01*
X569809Y816864D02*
X604398D01*
X519009Y818896D02*
X522391D01*
X519669Y820928D02*
X522772D01*
X518833Y820091D02*
X523225Y824484D01*
X521701Y822960D02*
X523580D01*
X523225Y824484D02*
X524533D01*
X542267D02*
X549933D01*
X544028Y820928D02*
X548172D01*
X569428D02*
X607185D01*
X543220Y822960D02*
X548980D01*
X548640Y822240D02*
Y824484D01*
X568620Y822960D02*
X610320D01*
X567667Y824484D02*
X837713D01*
X568960Y822240D02*
Y824484D01*
X589280Y394716D02*
Y404114D01*
X587248Y394716D02*
Y404154D01*
X593344Y394716D02*
Y404114D01*
X591312Y394716D02*
Y404114D01*
X597408Y394716D02*
Y404114D01*
X595376Y394716D02*
Y404114D01*
X588010D02*
X601355D01*
X599440Y394716D02*
Y404114D01*
X611632Y394716D02*
Y400612D01*
X613664Y394716D02*
Y401198D01*
X615696Y394716D02*
Y402256D01*
X617728Y394716D02*
Y403985D01*
X603504Y394716D02*
Y402256D01*
X601472Y394716D02*
Y403985D01*
X609600Y394716D02*
Y400424D01*
X605536Y394716D02*
Y401198D01*
X607568Y394716D02*
Y400612D01*
X579120Y394716D02*
Y409953D01*
X577088Y394716D02*
Y411985D01*
X583184Y394716D02*
Y405915D01*
X581152Y394716D02*
Y407921D01*
X585216Y394716D02*
Y404664D01*
X582066Y427841D02*
X591061Y418846D01*
X601355D01*
X595376D02*
Y430904D01*
X591312Y418846D02*
Y430904D01*
X619760Y394716D02*
Y407120D01*
X597408Y418846D02*
Y430904D01*
X593344Y418846D02*
Y430904D01*
X599440Y418846D02*
Y430904D01*
X601472Y418975D02*
Y430904D01*
X627888Y394716D02*
Y400424D01*
X625856Y394716D02*
Y400424D01*
X631952Y394716D02*
Y400424D01*
X629920Y394716D02*
Y400424D01*
X618065Y404368D02*
X623944D01*
X619420Y406400D02*
X623944D01*
Y400424D02*
X646056D01*
X615815Y402336D02*
X623944D01*
X636016Y394716D02*
Y400424D01*
X633984Y394716D02*
Y400424D01*
X640080Y394716D02*
Y400424D01*
X638048Y394716D02*
Y400424D01*
X644144Y394716D02*
Y400424D01*
X642112Y394716D02*
Y400424D01*
X646056Y402336D02*
X705224D01*
X646056Y408432D02*
X705224D01*
X646056Y404368D02*
X705224D01*
X621792Y394716D02*
Y413255D01*
X623824Y394716D02*
Y415287D01*
X620228Y408432D02*
X623944D01*
Y400424D02*
Y415407D01*
X620609Y410464D02*
X623944D01*
X620639Y412101D02*
X623944Y415407D01*
X621033Y412496D02*
X623944D01*
X623065Y414528D02*
X623944D01*
X646056Y410464D02*
X705224D01*
X646056Y400424D02*
Y418694D01*
Y418592D02*
X705224D01*
X646056Y418694D02*
X705224D01*
X646056Y412496D02*
X705224D01*
X646056Y416560D02*
X705224D01*
X646056Y414528D02*
X705224D01*
X583184Y426723D02*
Y430904D01*
X582066Y427841D02*
Y430904D01*
X583187Y426720D02*
X614423D01*
X582066Y428752D02*
X616455D01*
X583644Y430904D02*
X584756D01*
X582066D02*
X583644D01*
X582066Y430784D02*
X618487D01*
X583644Y430904D02*
X584756D01*
X589283Y420624D02*
X603385D01*
X589280Y420627D02*
Y430904D01*
X603504Y420704D02*
Y430904D01*
X610221Y422519D02*
X618972Y431269D01*
X587248Y422659D02*
Y430904D01*
X585216Y424691D02*
Y430904D01*
X587251Y422656D02*
X610359D01*
X584756Y430904D02*
X603756D01*
X585219Y424688D02*
X612391D01*
X582066Y453016D02*
Y463296D01*
X583184Y453016D02*
Y475944D01*
X583644Y453016D02*
X584756D01*
X583644D02*
X584756D01*
X581926Y464724D02*
Y475944D01*
X582066Y453016D02*
X583644D01*
X581926Y475944D02*
X588866D01*
X603756Y430904D02*
Y453016D01*
Y432816D02*
X621245D01*
X587248Y453016D02*
Y475944D01*
X585216Y453016D02*
Y475944D01*
X584756Y453016D02*
X603756D01*
Y449072D02*
X741275D01*
X603756Y451104D02*
X741864D01*
X582066Y453136D02*
X741864D01*
X582066Y455168D02*
X741864D01*
X582066Y463296D02*
X703177D01*
X581926Y465328D02*
X701615D01*
X582066Y457200D02*
X741864D01*
X582066Y461264D02*
X705322D01*
X582066Y459232D02*
X708520D01*
X624180Y433426D02*
X705224D01*
X603756Y434848D02*
X705224D01*
X603756Y436880D02*
X729083D01*
X603756Y438912D02*
X731115D01*
X603756Y440944D02*
X733147D01*
X603756Y442976D02*
X735179D01*
X603756Y447040D02*
X739243D01*
X603756Y445008D02*
X737211D01*
X581926Y471424D02*
X699088D01*
X581926Y473456D02*
X698790D01*
X581926Y467360D02*
X700464D01*
X581926Y469392D02*
X699637D01*
X581926Y475488D02*
X698731D01*
X625604Y481704D02*
X644604D01*
X588866Y477520D02*
X698909D01*
X588866Y481584D02*
X700014D01*
X588866Y479552D02*
X699330D01*
X627888Y433426D02*
Y481704D01*
X625856Y433426D02*
Y481704D01*
X638048Y433426D02*
Y481704D01*
X636016Y433426D02*
Y481704D01*
X642112Y433426D02*
Y481704D01*
X640080Y433426D02*
Y481704D01*
X644604D02*
X645716D01*
X644144Y433426D02*
Y481704D01*
X644604D02*
X645716D01*
X660400Y394716D02*
Y418694D01*
X652272Y394716D02*
Y418694D01*
X664464Y394716D02*
Y418694D01*
X662432Y394716D02*
Y418694D01*
X648208Y394716D02*
Y418694D01*
X646176Y394716D02*
Y418694D01*
X646056Y406400D02*
X705224D01*
X650240Y394716D02*
Y418694D01*
X668528Y394716D02*
Y418694D01*
X666496Y394716D02*
Y418694D01*
X672592Y394716D02*
Y418694D01*
X670560Y394716D02*
Y418694D01*
X705224Y397004D02*
Y416004D01*
X674624Y394716D02*
Y418694D01*
X711200Y394716D02*
Y397004D01*
X707136Y394716D02*
Y397004D01*
X709168Y394716D02*
Y397004D01*
X682752Y394716D02*
Y418694D01*
X680720Y394716D02*
Y418694D01*
X686816Y394716D02*
Y418694D01*
X684784Y394716D02*
Y418694D01*
X656336Y394716D02*
Y418694D01*
X654304Y394716D02*
Y418694D01*
X678688Y394716D02*
Y418694D01*
X658368Y394716D02*
Y418694D01*
X676656Y394716D02*
Y418694D01*
X701040Y394716D02*
Y418694D01*
X699008Y394716D02*
Y418694D01*
X705104Y394716D02*
Y418694D01*
X703072Y394716D02*
Y418694D01*
X690880Y394716D02*
Y418694D01*
X688848Y394716D02*
Y418694D01*
X696976Y394716D02*
Y418694D01*
X692912Y394716D02*
Y418694D01*
X694944Y394716D02*
Y418694D01*
X721360Y394716D02*
Y397004D01*
X719328Y394716D02*
Y397004D01*
X725424Y394716D02*
Y397004D01*
X723392Y394716D02*
Y397004D01*
X715264Y394716D02*
Y397004D01*
X713232Y394716D02*
Y397004D01*
X705224D02*
X727336D01*
X717296Y394716D02*
Y397004D01*
X729488Y394716D02*
Y400964D01*
X727456Y394716D02*
Y400964D01*
X731520Y394716D02*
Y400964D01*
X735584Y394716D02*
Y400969D01*
X733552Y394716D02*
Y400964D01*
X727336Y397004D02*
Y400964D01*
Y398272D02*
X741864D01*
X727336Y400964D02*
X735330D01*
X727336Y400304D02*
X741864D01*
X727336Y413156D02*
Y416004D01*
X727456Y413156D02*
Y418694D01*
X727336Y413156D02*
X732805D01*
X729488D02*
Y418739D01*
X731520Y413156D02*
Y419263D01*
X733552Y413884D02*
Y420535D01*
X727336Y414528D02*
X734435D01*
X737616Y394716D02*
Y401409D01*
X741864Y394716D02*
Y403204D01*
X741680Y394716D02*
Y403204D01*
X735584Y415064D02*
Y422547D01*
X739183Y402336D02*
X741864D01*
X740095Y403204D02*
X741864D01*
Y415396D02*
Y424356D01*
X705224Y417116D02*
Y418694D01*
Y433426D02*
Y436116D01*
Y416004D02*
Y417116D01*
Y416004D02*
Y417116D01*
X711200Y436116D02*
Y458175D01*
X709168Y436116D02*
Y458929D01*
X705224Y436116D02*
X727336D01*
X713232D02*
Y457691D01*
X727336Y416004D02*
Y417116D01*
Y416004D02*
Y417116D01*
Y418694D02*
X728680D01*
X727336Y417116D02*
Y418694D01*
X717296Y436116D02*
Y457453D01*
X715264Y436116D02*
Y457453D01*
X727336Y435133D02*
Y436116D01*
X719328D02*
Y457691D01*
X721360Y436116D02*
Y458175D01*
X662432Y433426D02*
Y481704D01*
X660400Y433426D02*
Y481704D01*
X699008Y433426D02*
Y471835D01*
X664464Y433426D02*
Y481704D01*
X652272Y433426D02*
Y481704D01*
X648208Y433426D02*
Y481704D01*
X658368Y433426D02*
Y481704D01*
X654304Y433426D02*
Y481704D01*
X656336Y433426D02*
Y481704D01*
X703072Y433426D02*
Y463414D01*
X701040Y433426D02*
Y466265D01*
X727456Y435253D02*
Y461441D01*
X705104Y433426D02*
Y461441D01*
X723392Y436116D02*
Y458929D01*
X707136Y436116D02*
Y459993D01*
X725424Y436116D02*
Y459993D01*
X729488Y437285D02*
Y463414D01*
X731520Y439317D02*
Y466265D01*
X737616Y415396D02*
Y424579D01*
X739648Y415396D02*
Y426611D01*
X737570Y415396D02*
X741864D01*
X727336Y416560D02*
X741864D01*
X727336Y418592D02*
X741864D01*
X733651Y420624D02*
X741864D01*
X735693Y422656D02*
X741864D01*
X741680Y415396D02*
Y428643D01*
X743712Y424356D02*
Y430675D01*
X745744Y424356D02*
Y432707D01*
X747776Y424356D02*
Y434739D01*
X749808Y424356D02*
Y436771D01*
X751840Y424356D02*
Y438803D01*
X759968Y424356D02*
Y439244D01*
X755904Y424356D02*
Y439244D01*
X757936Y424356D02*
Y439244D01*
X727238Y461264D02*
X739539D01*
X733552Y441349D02*
Y467281D01*
X727336Y435133D02*
X741864Y449661D01*
X724040Y459232D02*
X741571D01*
X732096Y467360D02*
X733485D01*
X729383Y463296D02*
X737507D01*
X730945Y465328D02*
X735475D01*
X737616Y445413D02*
Y463187D01*
X735584Y443381D02*
Y465219D01*
X753872Y424356D02*
Y439244D01*
X733889Y420852D02*
X752281Y439244D01*
X741680Y449477D02*
Y459123D01*
X739648Y447445D02*
Y461155D01*
X741864Y449661D02*
Y458939D01*
X733932Y466871D02*
X741864Y458939D01*
X746506Y475131D02*
X752281Y469356D01*
X579120Y494056D02*
Y498944D01*
X577088Y494056D02*
Y498944D01*
X583184Y494056D02*
Y498944D01*
X581152Y494056D02*
Y498944D01*
X577088Y517056D02*
Y521944D01*
X575056Y517056D02*
Y521944D01*
X581152Y517056D02*
Y521944D01*
X579120Y517056D02*
Y521944D01*
X588866Y475944D02*
Y494056D01*
X585216D02*
Y498944D01*
X588866Y489712D02*
X625604D01*
X589280Y453016D02*
Y524904D01*
X585216Y517056D02*
Y521944D01*
X583184Y517056D02*
Y521944D01*
X587248Y494056D02*
Y498944D01*
Y517056D02*
Y521944D01*
X588866Y498944D02*
Y517056D01*
X599440Y453016D02*
Y524952D01*
X601472Y453016D02*
Y525582D01*
X603504Y453016D02*
Y527205D01*
X605536Y421762D02*
Y529237D01*
X591312Y453016D02*
Y524904D01*
X588866Y521944D02*
Y524904D01*
X597408Y453016D02*
Y524904D01*
X593344Y453016D02*
Y524904D01*
X595376Y453016D02*
Y524904D01*
X607568Y422348D02*
Y531269D01*
X609600Y422536D02*
Y533301D01*
X611632Y423929D02*
Y535333D01*
X613664Y425961D02*
Y537365D01*
X617728Y430025D02*
Y537464D01*
X615696Y427993D02*
Y537464D01*
X623824Y433418D02*
Y537464D01*
X619760Y431953D02*
Y537464D01*
X621792Y433028D02*
Y537464D01*
X588866Y487680D02*
X625604D01*
X588866Y491744D02*
X625604D01*
X588866Y483616D02*
X625604D01*
X588866Y485648D02*
X625604D01*
X588866Y493776D02*
X625604D01*
X588866Y499872D02*
X625604D01*
X588866Y501904D02*
X625604D01*
X588866Y503936D02*
X629564D01*
X629920Y433426D02*
Y481704D01*
X625604D02*
Y503816D01*
X633984Y433426D02*
Y481704D01*
X631952Y433426D02*
Y481704D01*
X625604Y503816D02*
X629564D01*
X588866Y505968D02*
X629564D01*
X641756Y503936D02*
X731774D01*
X641756Y508000D02*
X731774D01*
X641756Y505968D02*
X731774D01*
X627888Y503816D02*
Y532504D01*
X625856Y503816D02*
Y532504D01*
X588866Y508000D02*
X629564D01*
Y503816D02*
Y532504D01*
X588866Y516128D02*
X629564D01*
X588866Y522224D02*
X629564D01*
X588866Y510032D02*
X629564D01*
X588866Y514096D02*
X629564D01*
X588866Y512064D02*
X629564D01*
X641756Y510032D02*
X731774D01*
X641756Y503816D02*
Y532504D01*
Y512064D02*
X731774D01*
X641756Y514096D02*
X731774D01*
X641756Y522224D02*
X731774D01*
X641756Y524256D02*
X731774D01*
X641756Y516128D02*
X731774D01*
X641756Y520192D02*
X731774D01*
X641756Y518160D02*
X731774D01*
X588866Y524904D02*
X598678D01*
X602989Y526690D02*
X613763Y537464D01*
X588866Y537096D02*
X596153D01*
X588866D02*
Y540056D01*
Y538480D02*
X597537D01*
X596153Y537096D02*
X606927Y547870D01*
X625604Y532504D02*
Y537464D01*
X615696Y549656D02*
Y644159D01*
X617728Y549656D02*
Y642127D01*
X613664Y549656D02*
Y646191D01*
X623824Y549656D02*
Y636031D01*
X619760Y549656D02*
Y640095D01*
X621792Y549656D02*
Y638063D01*
X589280Y537096D02*
Y824484D01*
X587248Y540056D02*
Y824484D01*
X593344Y537096D02*
Y824484D01*
X591312Y537096D02*
Y824484D01*
X579120Y540056D02*
Y824484D01*
X577088Y540056D02*
Y824484D01*
X585216Y540056D02*
Y824484D01*
X581152Y540056D02*
Y824484D01*
X583184Y540056D02*
Y824484D01*
X597408Y538351D02*
Y824484D01*
X595376Y537096D02*
Y824484D01*
X601472Y542415D02*
Y824484D01*
X599440Y540383D02*
Y824484D01*
X605536Y546479D02*
Y679824D01*
X603504Y544447D02*
Y824484D01*
X611632Y549656D02*
Y648223D01*
X607568Y548428D02*
Y679824D01*
X609600Y549432D02*
Y651083D01*
X604619Y528320D02*
X629564D01*
X606651Y530352D02*
X629564D01*
X588866Y524256D02*
X629564D01*
X602545Y526288D02*
X629564D01*
X613763Y537464D02*
X625604D01*
X611238Y549656D02*
X625604D01*
X608683Y532384D02*
X629564D01*
X610715Y534416D02*
X625604D01*
X612747Y536448D02*
X625604D01*
X641756Y532384D02*
X731774D01*
X641756Y532504D02*
X644604D01*
X641756Y526288D02*
X731774D01*
X641756Y530352D02*
X731774D01*
X625604Y532504D02*
X629564D01*
X625604Y549656D02*
Y554616D01*
X629564D01*
X641756Y560832D02*
X741575D01*
X641756Y558800D02*
X739543D01*
X627888Y554616D02*
Y631967D01*
X625856Y554616D02*
Y633999D01*
X641756Y562864D02*
X743607D01*
X629564Y554616D02*
Y630291D01*
X641756Y564896D02*
X745864D01*
X641756Y568960D02*
X749554D01*
X641756Y570992D02*
X749554D01*
X641756Y575056D02*
X749554D01*
X641756Y573024D02*
X749554D01*
X641756Y566928D02*
X745864D01*
X641756Y554616D02*
Y632816D01*
Y577088D02*
X749554D01*
X641756Y579120D02*
X749554D01*
X641756Y587248D02*
X749554D01*
X641756Y607568D02*
X749554D01*
X641756Y581152D02*
X749554D01*
X641756Y585216D02*
X749554D01*
X641756Y583184D02*
X749554D01*
X650240Y433426D02*
Y481704D01*
X646176Y433426D02*
Y481704D01*
X645716D02*
X664716D01*
X644144Y503816D02*
Y532504D01*
X645716Y503816D02*
X664716D01*
Y481704D02*
Y503816D01*
X668528Y433426D02*
Y672084D01*
X664716Y483616D02*
X700995D01*
X664716Y485648D02*
X702337D01*
X658368Y503816D02*
Y532504D01*
X656336Y503816D02*
Y532504D01*
X664716Y487680D02*
X704159D01*
X660400Y503816D02*
Y532504D01*
X662432Y503816D02*
Y532504D01*
X678688Y433426D02*
Y677712D01*
X680720Y433426D02*
Y679824D01*
X684784Y433426D02*
Y679824D01*
X682752Y433426D02*
Y679824D01*
X666496Y433426D02*
Y672084D01*
X670560Y433426D02*
Y672084D01*
X672592Y433426D02*
Y672441D01*
X674624Y433426D02*
Y673659D01*
X676656Y433426D02*
Y675680D01*
X688848Y433426D02*
Y780034D01*
X686816Y433426D02*
Y780034D01*
X692912Y433426D02*
Y780034D01*
X690880Y433426D02*
Y780034D01*
X696976Y433426D02*
Y780034D01*
X694944Y433426D02*
Y780034D01*
X703072Y486545D02*
Y740275D01*
X699008Y478125D02*
Y748695D01*
X701040Y483695D02*
Y743125D01*
X664716Y489712D02*
X706731D01*
X664716Y491744D02*
X711066D01*
X664716Y499872D02*
X731774D01*
X664716Y501904D02*
X731774D01*
X664716Y493776D02*
X731774D01*
X664716Y497840D02*
X731774D01*
X664716Y495808D02*
X731774D01*
X755904Y469356D02*
Y529084D01*
X753872Y469356D02*
Y529084D01*
X759968Y469356D02*
Y529084D01*
X757936Y469356D02*
Y529084D01*
X725829Y489712D02*
X731774D01*
X721494Y491744D02*
X731774D01*
X730223Y485648D02*
X731774D01*
X728401Y487680D02*
X731774D01*
X751840Y469797D02*
Y529084D01*
X707136Y489967D02*
Y736853D01*
X705104Y488519D02*
Y738301D01*
X711200Y491785D02*
Y735035D01*
X709168Y491031D02*
Y735789D01*
X715264Y492507D02*
Y734313D01*
X713232Y492269D02*
Y734551D01*
X717296Y492507D02*
Y734313D01*
X719328Y492269D02*
Y734551D01*
X721360Y491785D02*
Y735035D01*
X746506Y475131D02*
Y529084D01*
X731774Y483235D02*
Y547980D01*
X749808Y471829D02*
Y529084D01*
X747776Y473861D02*
Y529084D01*
X723392Y491031D02*
Y735789D01*
X725424Y489967D02*
Y736853D01*
X731520Y483695D02*
Y702053D01*
X727456Y488519D02*
Y738301D01*
X729488Y486545D02*
Y705472D01*
X641756Y503816D02*
X644604D01*
X642112D02*
Y532504D01*
X644604Y503816D02*
X645716D01*
X644604D02*
X645716D01*
X644604Y532504D02*
X645716D01*
X644604D02*
X645716D01*
X641756Y528320D02*
X731774D01*
X645716Y532504D02*
X664716D01*
X648208Y503816D02*
Y532504D01*
X646176Y503816D02*
Y532504D01*
X652272Y503816D02*
Y532504D01*
X650240Y503816D02*
Y532504D01*
X654304Y503816D02*
Y532504D01*
X664464Y503816D02*
Y532504D01*
X664716Y546608D02*
X731774D01*
X648208Y554616D02*
Y672084D01*
X646176Y554616D02*
Y672084D01*
X645716Y554616D02*
X664716D01*
X650240D02*
Y672084D01*
X644144Y554616D02*
Y672084D01*
X642112Y554616D02*
Y672084D01*
X644604Y554616D02*
X645716D01*
X641756D02*
X644604D01*
X645716D01*
X652272D02*
Y672084D01*
X664716Y532504D02*
Y554616D01*
X656336D02*
Y672084D01*
X658368Y554616D02*
Y672084D01*
X654304Y554616D02*
Y672084D01*
X664464Y554616D02*
Y672084D01*
X660400Y554616D02*
Y672084D01*
X662432Y554616D02*
Y672084D01*
X664716Y540512D02*
X731774D01*
X664716Y544576D02*
X731774D01*
X664716Y534416D02*
X731774D01*
X664716Y538480D02*
X731774D01*
X664716Y548640D02*
X731804D01*
X664716Y550672D02*
X732283D01*
X664716Y552704D02*
X733488D01*
X641756Y556768D02*
X737511D01*
X641756Y554736D02*
X735479D01*
X664716Y536448D02*
X731774D01*
X664716Y542544D02*
X731774D01*
X733932Y553189D02*
X744091Y563349D01*
X745864Y568196D02*
X749554D01*
X745864Y564656D02*
Y568196D01*
X641756Y593344D02*
X749554D01*
X641756Y595376D02*
X749554D01*
X641756Y589280D02*
X749554D01*
X641756Y591312D02*
X749554D01*
X641756Y603504D02*
X749554D01*
X641756Y605536D02*
X749554D01*
X641756Y597408D02*
X749554D01*
X641756Y601472D02*
X749554D01*
X641756Y599440D02*
X749554D01*
X735584Y554841D02*
Y697989D01*
X733552Y552779D02*
Y700021D01*
X739648Y558905D02*
Y694824D01*
X737616Y556873D02*
Y696007D01*
X743712Y562969D02*
Y694334D01*
X741680Y560937D02*
Y694359D01*
X749554Y568196D02*
Y670560D01*
X745744Y564591D02*
Y694334D01*
X747776Y568196D02*
Y691644D01*
X741864Y424356D02*
X763355D01*
X737725Y424688D02*
X763687D01*
X739757Y426720D02*
X765719D01*
X771976Y415735D02*
X788125Y431884D01*
X741789Y428752D02*
X767751D01*
X743821Y430784D02*
X769783D01*
X745853Y432816D02*
X771815D01*
X747885Y434848D02*
X773847D01*
X780288Y394716D02*
Y424047D01*
X782320Y394716D02*
Y426079D01*
X784352Y394716D02*
Y428111D01*
X786384Y394716D02*
Y430143D01*
X771976Y394716D02*
Y415735D01*
X772160Y394716D02*
Y415919D01*
X774192Y394716D02*
Y417951D01*
X776224Y394716D02*
Y419983D01*
X778256Y394716D02*
Y422015D01*
X764032Y425033D02*
Y439244D01*
X762000Y424356D02*
Y439244D01*
X766064Y427065D02*
Y439244D01*
X763355Y424356D02*
X782114Y443115D01*
X770128Y431129D02*
Y439244D01*
X768096Y429097D02*
Y439244D01*
X749917Y436880D02*
X775879D01*
X751949Y438912D02*
X777911D01*
X752281Y439244D02*
X771976D01*
Y458939D01*
X772160Y433161D02*
Y459123D01*
X774192Y435193D02*
Y461155D01*
X776224Y437225D02*
Y463187D01*
X771976Y440944D02*
X779943D01*
X778256Y439257D02*
Y465074D01*
X771976Y442976D02*
X781975D01*
X780288Y441289D02*
Y465074D01*
X782114Y443115D02*
Y460996D01*
X771976Y398272D02*
X846488D01*
X771976Y400304D02*
X840682D01*
X771976Y394716D02*
X871474D01*
X771976Y396240D02*
X871474D01*
X771976Y406400D02*
X834103D01*
X771976Y408432D02*
X832949D01*
X771976Y402336D02*
X837713D01*
X771976Y404368D02*
X835641D01*
X771976Y414528D02*
X831186D01*
X772801Y416560D02*
X831074D01*
X771976Y410464D02*
X832104D01*
X771976Y412496D02*
X831525D01*
X774833Y418592D02*
X831186D01*
X776865Y420624D02*
X831525D01*
X778897Y422656D02*
X832104D01*
X780929Y424688D02*
X832949D01*
X782961Y426720D02*
X834103D01*
X790448Y394716D02*
Y431884D01*
X788416Y394716D02*
Y431884D01*
X796544Y394716D02*
Y431884D01*
X792480Y394716D02*
Y431884D01*
X788125D02*
X794814D01*
X794512Y394716D02*
Y431884D01*
X784993Y428752D02*
X835641D01*
X787025Y430784D02*
X837713D01*
X795226Y431884D02*
X807514D01*
X800608Y394716D02*
Y431884D01*
X798576Y394716D02*
Y431884D01*
X804672Y394716D02*
Y431884D01*
X802640Y394716D02*
Y431884D01*
X808736Y394716D02*
Y431884D01*
X806704Y394716D02*
Y431884D01*
X807926D02*
X820214D01*
X810768Y394716D02*
Y431884D01*
X812800Y394716D02*
Y431884D01*
X771976Y453136D02*
X782114D01*
X771976Y455168D02*
X782114D01*
X771976Y445008D02*
X782114D01*
X771976Y451104D02*
X782114D01*
X752281Y469356D02*
X761559D01*
X752245Y469392D02*
X761595D01*
X771976Y457200D02*
X782114D01*
X750213Y471424D02*
X763627D01*
X771976Y447040D02*
X782114D01*
X771976Y458939D02*
X778111Y465074D01*
X771976Y449072D02*
X782114D01*
X772269Y459232D02*
X782114D01*
X784352Y460996D02*
Y465074D01*
X782320Y460996D02*
Y465074D01*
X790448Y460996D02*
Y465074D01*
X786384Y460996D02*
Y465074D01*
X788416Y460996D02*
Y465074D01*
X746506Y475488D02*
X767691D01*
X746506Y477520D02*
X769723D01*
X746506Y479552D02*
X773142D01*
X746506Y485648D02*
X782114D01*
X746506Y495808D02*
X782114D01*
X746506Y497840D02*
X782114D01*
X746506Y487680D02*
X782114D01*
X746506Y493776D02*
X782114D01*
X746506Y489712D02*
X782114D01*
X748181Y473456D02*
X765659D01*
X761559Y469356D02*
X769852Y477649D01*
X782320Y479806D02*
Y483884D01*
X746506Y491744D02*
X782114D01*
X788416Y479806D02*
Y483884D01*
X784352Y479806D02*
Y483884D01*
X786384Y479806D02*
Y483884D01*
X794512Y460996D02*
Y465074D01*
X792480Y460996D02*
Y465074D01*
X782114Y460996D02*
X794814D01*
X796544D02*
Y465074D01*
X795226Y460996D02*
X807514D01*
X774301Y461264D02*
X820674D01*
X776333Y463296D02*
X820759D01*
X775060Y479806D02*
X840229D01*
X778111Y465074D02*
X821352D01*
X810768Y460996D02*
Y465074D01*
X808736Y460996D02*
Y465074D01*
X807926Y460996D02*
X820214D01*
X812800D02*
Y465074D01*
X800608Y460996D02*
Y465074D01*
X798576Y460996D02*
Y465074D01*
X806704Y460996D02*
Y465074D01*
X802640Y460996D02*
Y465074D01*
X804672Y460996D02*
Y465074D01*
X792480Y479806D02*
Y483884D01*
X790448Y479806D02*
Y483884D01*
X798576Y479806D02*
Y483884D01*
X794512Y479806D02*
Y483884D01*
X796544Y479806D02*
Y483884D01*
X782114D02*
X794814D01*
X746506Y481584D02*
X842007D01*
X746506Y483616D02*
X844039D01*
X795226Y483884D02*
X807514D01*
X802640Y479806D02*
Y483884D01*
X800608Y479806D02*
Y483884D01*
X806704Y479806D02*
Y483884D01*
X804672Y479806D02*
Y483884D01*
X808736Y479806D02*
Y483884D01*
X807926D02*
X820214D01*
X810768Y479806D02*
Y483884D01*
X812800Y479806D02*
Y483884D01*
X829056Y394716D02*
Y431884D01*
X827024Y394716D02*
Y431884D01*
X835152Y394716D02*
Y404953D01*
X831088Y394716D02*
Y415840D01*
Y417281D02*
Y431884D01*
X818896Y394716D02*
Y431884D01*
X833120Y394716D02*
Y408090D01*
Y425030D02*
Y431884D01*
X849376Y394716D02*
Y398006D01*
X847344Y394716D02*
Y398145D01*
X851408Y394716D02*
Y398089D01*
X853440Y394716D02*
Y398399D01*
X839216Y394716D02*
Y401202D01*
X837184Y394716D02*
Y402797D01*
X845312Y394716D02*
Y398513D01*
X841248Y394716D02*
Y400005D01*
X843280Y394716D02*
Y399124D01*
X816864Y394716D02*
Y431884D01*
X814832Y394716D02*
Y431884D01*
X822960Y394716D02*
Y431884D01*
X820928Y394716D02*
Y431884D01*
X824992Y394716D02*
Y431884D01*
X833326D02*
Y456184D01*
X820626Y431884D02*
X833326D01*
Y434848D02*
X846488D01*
X833326Y432816D02*
X840682D01*
X837184Y430323D02*
Y456184D01*
X835152Y428167D02*
Y456184D01*
X841248Y433115D02*
Y456184D01*
X839216Y431918D02*
Y456184D01*
X845312Y434607D02*
Y456184D01*
X843280Y433996D02*
Y456184D01*
X851408Y435031D02*
Y453815D01*
X847344Y434975D02*
Y456184D01*
X849376Y435114D02*
Y456065D01*
X855472Y394716D02*
Y398948D01*
X857504Y394716D02*
Y399757D01*
X859536Y394716D02*
Y400869D01*
X863600Y394716D02*
Y404347D01*
X852772Y398272D02*
X871474D01*
X861568Y394716D02*
Y402354D01*
X858578Y400304D02*
X871474D01*
X861546Y402336D02*
X871474D01*
X863619Y404368D02*
X871474D01*
X865632Y394716D02*
Y407165D01*
X867664Y394716D02*
Y412190D01*
X865157Y406400D02*
X871474D01*
X866311Y408432D02*
X871474D01*
X868186Y416560D02*
X871474D01*
X868074Y418592D02*
X871474D01*
X867156Y410464D02*
X871474D01*
X867736Y412496D02*
X871474D01*
X868074Y414528D02*
X871474D01*
X859536Y432251D02*
Y451271D01*
X861546Y430784D02*
X871474D01*
X855472Y434172D02*
Y451652D01*
X853440Y434721D02*
Y452460D01*
X858578Y432816D02*
X871474D01*
X852772Y434848D02*
X871474D01*
X857504Y433363D02*
Y451271D01*
X867736Y420624D02*
X871474D01*
X867664Y420930D02*
Y456065D01*
X867156Y422656D02*
X871474D01*
X866311Y424688D02*
X871474D01*
X861568Y430766D02*
Y451652D01*
X863600Y428773D02*
Y452460D01*
X865157Y426720D02*
X871474D01*
X863619Y428752D02*
X871474D01*
X865632Y425955D02*
Y453815D01*
X816864Y460996D02*
Y465074D01*
X814832Y460996D02*
Y465074D01*
X820674Y460996D02*
Y462280D01*
X818896Y460996D02*
Y465074D01*
X820928Y464021D02*
Y465074D01*
X824992Y479806D02*
Y483884D01*
X833326Y455168D02*
X850055D01*
X833326Y456184D02*
X849296D01*
X833326Y453136D02*
X852305D01*
X853264Y472007D02*
X857881Y476624D01*
X855472Y472908D02*
Y474215D01*
X857504Y473289D02*
Y476247D01*
X863600Y472100D02*
Y476624D01*
X859536Y473289D02*
Y476624D01*
X861568Y472908D02*
Y476624D01*
X816864Y479806D02*
Y483884D01*
X814832Y479806D02*
Y483884D01*
X820928Y479806D02*
Y483884D01*
X818896Y479806D02*
Y483884D01*
X827024Y479806D02*
Y483884D01*
X822960Y479806D02*
Y483884D01*
X820214D02*
X833326D01*
X829056Y479806D02*
Y483884D01*
X831088Y479806D02*
Y483884D01*
X833120Y479806D02*
Y483884D01*
X833326Y485648D02*
X846071D01*
X840229Y479806D02*
X847464Y487041D01*
X833326Y487680D02*
X847464D01*
X833326Y495808D02*
X847464D01*
X833326Y497840D02*
X847464D01*
X833326Y489712D02*
X847464D01*
X833326Y493776D02*
X847464D01*
X833326Y491744D02*
X847464D01*
X833326Y440944D02*
X871474D01*
X833326Y442976D02*
X871474D01*
X833326Y436880D02*
X871474D01*
X833326Y438912D02*
X871474D01*
X833326Y451104D02*
X871474D01*
X833326Y445008D02*
X871474D01*
X833326Y449072D02*
X871474D01*
X833326Y447040D02*
X871474D01*
X868340Y457200D02*
X871474D01*
X869148Y459232D02*
X871474D01*
X864735Y453136D02*
X871474D01*
X866985Y455168D02*
X871474D01*
X868340Y467360D02*
X871474D01*
X866985Y469392D02*
X871474D01*
X869529Y461264D02*
X871474D01*
X869148Y465328D02*
X871474D01*
X869529Y463296D02*
X871474D01*
X867664Y468495D02*
Y476624D01*
X865632Y470745D02*
Y476624D01*
X864735Y471424D02*
X871474D01*
X856745Y475488D02*
X871474D01*
X857881Y476624D02*
X869576D01*
X854713Y473456D02*
X871474D01*
X869576Y479552D02*
X871474D01*
X869576Y477520D02*
X871474D01*
X869576Y485648D02*
X871474D01*
X869576Y487680D02*
X871474D01*
X869576Y481584D02*
X871474D01*
X869576Y483616D02*
X871474D01*
X869576Y495808D02*
X871474D01*
X869576Y497840D02*
X871474D01*
X869576Y489712D02*
X871474D01*
X869576Y493776D02*
X871474D01*
X869576Y491744D02*
X871474D01*
X746506Y503936D02*
X782114D01*
X746506Y505968D02*
X782114D01*
X746506Y499872D02*
X782114D01*
X746506Y501904D02*
X782114D01*
X746506Y508000D02*
X782114D01*
X746506Y510032D02*
X782114D01*
X746506Y512064D02*
X782114D01*
X746506Y514096D02*
X782574D01*
X782114Y483884D02*
Y512996D01*
X766064Y473861D02*
Y529084D01*
X746506Y516128D02*
X782574D01*
Y512996D02*
Y522732D01*
X746506Y518160D02*
X782574D01*
X746506Y520192D02*
X782574D01*
X746506Y522224D02*
X782574D01*
X746506Y526288D02*
X783719D01*
X746506Y524256D02*
X782768D01*
X764032Y471829D02*
Y529084D01*
X762000Y469797D02*
Y529084D01*
X770128Y477911D02*
Y533237D01*
X772160Y479211D02*
Y534188D01*
X746506Y529084D02*
X767976D01*
Y533044D01*
X772457Y534416D02*
X784044D01*
X774192Y479755D02*
Y536107D01*
X776224Y479806D02*
Y538139D01*
X778256Y479806D02*
Y540171D01*
X780288Y479806D02*
Y542203D01*
X781834Y540584D02*
Y542544D01*
X772915Y534829D02*
X780629Y542544D01*
X774533Y536448D02*
X784044D01*
X781834Y540584D02*
X784044D01*
Y526702D02*
Y540584D01*
X794766Y514096D02*
X871474D01*
X794766Y512996D02*
Y520232D01*
Y518160D02*
X871474D01*
X794766Y520192D02*
X871474D01*
X746506Y528320D02*
X784044D01*
X767976Y530352D02*
X784044D01*
X795226Y512996D02*
X807514D01*
X794766Y516128D02*
X871474D01*
X795906Y522224D02*
X871474D01*
X796236Y524256D02*
X871474D01*
X796236Y528320D02*
X871474D01*
X796236Y526288D02*
X871474D01*
X796236Y532384D02*
X806834D01*
X767976D02*
X784044D01*
X796236Y530352D02*
X837304D01*
X796236Y534416D02*
X806834D01*
X776565Y538480D02*
X784044D01*
X778597Y540512D02*
X784044D01*
X796236Y536448D02*
X806834D01*
X796236Y540512D02*
X806834D01*
X796236Y538480D02*
X806834D01*
X796544Y512996D02*
Y540584D01*
X798576Y512996D02*
Y641604D01*
X806704Y512996D02*
Y641604D01*
X800608Y512996D02*
Y641604D01*
X796236Y524202D02*
Y540584D01*
X798446D02*
Y556696D01*
X796236Y540584D02*
X798446D01*
X802640Y512996D02*
Y641604D01*
X804672Y512996D02*
Y641604D01*
X767976Y547133D02*
Y548084D01*
Y549196D01*
Y548084D02*
Y549196D01*
Y547133D02*
X773794Y552951D01*
X767976Y548640D02*
X769483D01*
X767976Y550672D02*
X771515D01*
X767976Y552704D02*
X773547D01*
X767976Y554736D02*
X778104D01*
X767976Y549196D02*
Y568196D01*
X780629Y542544D02*
X781834D01*
X780629D02*
X781834D01*
X778104Y554736D02*
X781834D01*
X778104D02*
X781834D01*
Y556696D02*
X798446D01*
X781834Y554736D02*
Y556696D01*
X770128Y549285D02*
Y646935D01*
X768096Y547253D02*
Y648967D01*
X774192Y553315D02*
Y643002D01*
X772160Y551317D02*
Y644903D01*
X766064Y568196D02*
Y650999D01*
X764286Y568196D02*
Y652777D01*
Y568196D02*
X767976D01*
X776224Y554439D02*
Y641968D01*
X778256Y554736D02*
Y641608D01*
X782320Y556696D02*
Y641604D01*
X780288Y554736D02*
Y641604D01*
X786384Y556696D02*
Y641604D01*
X784352Y556696D02*
Y641604D01*
X790448Y556696D02*
Y641604D01*
X788416Y556696D02*
Y641604D01*
X796544Y556696D02*
Y641604D01*
X792480Y556696D02*
Y641604D01*
X794512Y556696D02*
Y641604D01*
X767976Y560832D02*
X806834D01*
X767976Y562864D02*
X806834D01*
X767976Y556768D02*
X806834D01*
X767976Y558800D02*
X806834D01*
X767976Y564896D02*
X806834D01*
X767976Y566928D02*
X837304D01*
X764286Y568960D02*
X853709D01*
X764286Y573024D02*
X857773D01*
X764286Y570992D02*
X855741D01*
X798446Y542544D02*
X806834D01*
X798446Y544576D02*
X806834D01*
X798446Y546608D02*
X806834D01*
X798446Y548640D02*
X837304D01*
X798446Y552704D02*
X806834D01*
X798446Y554736D02*
X806834D01*
Y550084D02*
X823446D01*
X798446Y550672D02*
X806834D01*
Y550084D02*
Y566196D01*
X764286Y597408D02*
X863854D01*
X764286Y599440D02*
X863854D01*
X764286Y593344D02*
X863854D01*
X764286Y595376D02*
X863854D01*
X764286Y607568D02*
X863854D01*
X764286Y609600D02*
X863854D01*
X764286Y601472D02*
X863854D01*
X764286Y605536D02*
X863854D01*
X764286Y603504D02*
X863854D01*
X764286Y575056D02*
X859805D01*
X764286Y577088D02*
X861837D01*
X764286Y579120D02*
X863854D01*
X764286Y581152D02*
X863854D01*
X764286Y589280D02*
X863854D01*
X764286Y591312D02*
X863854D01*
X764286Y583184D02*
X863854D01*
X764286Y587248D02*
X863854D01*
X764286Y585216D02*
X863854D01*
X810768Y512996D02*
Y531084D01*
X807926Y512996D02*
X820214D01*
X814832D02*
Y531084D01*
X812800Y512996D02*
Y531084D01*
X806834D02*
X823446D01*
X816864Y512996D02*
Y531084D01*
X833326Y483884D02*
Y512996D01*
X839216Y479806D02*
Y529084D01*
X820928Y512996D02*
Y531084D01*
X818896Y512996D02*
Y531084D01*
X820214Y512996D02*
X833326D01*
X822960D02*
Y531084D01*
X808736Y512996D02*
Y531084D01*
X823446D02*
Y533044D01*
X827024Y512996D02*
Y533044D01*
X824992Y512996D02*
Y533044D01*
X806834Y531084D02*
Y547196D01*
X824992Y545236D02*
Y641604D01*
X823446Y532384D02*
X837304D01*
X823446Y533044D02*
X837304D01*
X827024Y545236D02*
Y641604D01*
X831088Y512996D02*
Y533044D01*
X829056Y512996D02*
Y533044D01*
X837184Y479806D02*
Y533044D01*
X835152Y479806D02*
Y533044D01*
X833120Y512996D02*
Y533044D01*
X831088Y545236D02*
Y641604D01*
X837304Y529084D02*
Y533044D01*
X833120Y545236D02*
Y641604D01*
X835152Y545236D02*
Y641604D01*
X833326Y499872D02*
X871474D01*
X845312Y484889D02*
Y529084D01*
X833326Y501904D02*
X871474D01*
X833326Y503936D02*
X871474D01*
X833326Y512064D02*
X871474D01*
X837304Y529084D02*
X859416D01*
X833326Y505968D02*
X871474D01*
X833326Y510032D02*
X871474D01*
X833326Y508000D02*
X871474D01*
X847464Y487041D02*
Y498736D01*
X847344Y486921D02*
Y529084D01*
X869576Y476624D02*
Y498736D01*
X849376D02*
Y529084D01*
X853440Y498736D02*
Y529084D01*
X851408Y498736D02*
Y529084D01*
X847464Y498736D02*
X869576D01*
X855472D02*
Y529084D01*
X857504Y498736D02*
Y529084D01*
X843280Y482857D02*
Y529084D01*
X841248Y480825D02*
Y529084D01*
X859416Y530352D02*
X871474D01*
X859416Y532384D02*
X871474D01*
X859416Y540512D02*
X871474D01*
X859416Y542544D02*
X871474D01*
X859416Y534416D02*
X871474D01*
X859416Y538480D02*
X871474D01*
X859416Y536448D02*
X871474D01*
X859536Y498736D02*
Y557545D01*
X861568Y498736D02*
Y559577D01*
X869696Y394716D02*
Y567705D01*
X871474Y394716D02*
Y569483D01*
X859416Y529084D02*
Y548084D01*
X863600Y498736D02*
Y561609D01*
X859416Y544576D02*
X871474D01*
X865632Y498736D02*
Y563641D01*
X867664Y498736D02*
Y565673D01*
X816864Y547196D02*
Y550084D01*
X814832Y547196D02*
Y550084D01*
X820928Y547196D02*
Y550084D01*
X818896Y547196D02*
Y550084D01*
X810768Y547196D02*
Y550084D01*
X808736Y547196D02*
Y550084D01*
X806834Y547196D02*
X823446D01*
X812800D02*
Y550084D01*
X823446Y545236D02*
X837304D01*
X823446D02*
Y547196D01*
Y546608D02*
X837304D01*
Y545236D02*
Y548084D01*
Y549196D01*
X822960Y547196D02*
Y550084D01*
X823446Y550672D02*
X837304D01*
X823446Y554736D02*
X837304D01*
X823446Y552704D02*
X837304D01*
X810768Y566196D02*
Y641604D01*
X808736Y566196D02*
Y641604D01*
X806834Y566196D02*
X823446D01*
X812800D02*
Y641604D01*
X814832Y566196D02*
Y641604D01*
X823446Y550084D02*
Y566196D01*
X829056Y545236D02*
Y641604D01*
X837304Y549196D02*
Y568196D01*
X837184Y545236D02*
Y641604D01*
X818896Y566196D02*
Y641604D01*
X816864Y566196D02*
Y641604D01*
X823446Y556768D02*
X837304D01*
X820928Y566196D02*
Y641604D01*
X822960Y566196D02*
Y641604D01*
X859416Y548084D02*
Y549196D01*
X837304Y548084D02*
Y549196D01*
X859416Y546608D02*
X871474D01*
X859416Y550672D02*
X871474D01*
X823446Y562864D02*
X837304D01*
X823446Y564896D02*
X837304D01*
X859416Y552704D02*
X871474D01*
X823446Y560832D02*
X837304D01*
X823446Y558800D02*
X837304D01*
X859416Y548084D02*
Y549196D01*
Y557425D01*
Y548640D02*
X871474D01*
X859416Y554736D02*
X871474D01*
X864855Y562864D02*
X871474D01*
X866887Y564896D02*
X871474D01*
X859416Y556768D02*
X871474D01*
X860791Y558800D02*
X871474D01*
X862823Y560832D02*
X871474D01*
X847344Y568196D02*
Y645157D01*
X849376Y568196D02*
Y647189D01*
X852945Y568196D02*
X863854Y579105D01*
X851408Y568196D02*
Y649221D01*
X839216Y568196D02*
Y641604D01*
X841248Y568196D02*
Y641621D01*
X837304Y568196D02*
X852945D01*
X843280D02*
Y642056D01*
X845312Y568196D02*
Y643195D01*
X853440Y568691D02*
Y651253D01*
X855472Y570723D02*
Y653285D01*
X868919Y566928D02*
X871474D01*
X859416Y557425D02*
X871474Y569483D01*
X857504Y572755D02*
Y655317D01*
X859536Y574787D02*
Y657535D01*
X863854Y579105D02*
Y715384D01*
X861568Y576819D02*
Y715384D01*
X863600Y578851D02*
Y715384D01*
X611029Y648826D02*
X629564Y630291D01*
X621436Y655661D02*
X639970Y637127D01*
X621436Y674624D02*
X633110D01*
X621436Y676656D02*
X631078D01*
X621436Y672592D02*
X635739D01*
X630030Y677704D02*
X633865Y673869D01*
X640080Y637014D02*
Y672084D01*
X638048Y639049D02*
Y672085D01*
X633984Y643113D02*
Y673753D01*
X631952Y645145D02*
Y675782D01*
X636016Y641081D02*
Y672479D01*
X621436Y655661D02*
Y679824D01*
X609244Y653136D02*
Y679824D01*
X623824Y653273D02*
Y679824D01*
X621792Y655305D02*
Y679824D01*
X605284D02*
X609244D01*
X605284D02*
Y701936D01*
X621436Y678688D02*
X629232D01*
X621436Y679824D02*
X624284D01*
X625396D01*
X627888Y649209D02*
Y679824D01*
X625856Y651241D02*
Y679824D01*
X629920Y647177D02*
Y677817D01*
X625396Y679824D02*
X628651D01*
X624284D02*
X625396D01*
X644396Y684276D02*
Y701936D01*
Y686816D02*
X645924D01*
X641756Y631952D02*
X749554D01*
X641643Y633984D02*
X749554D01*
X641756Y627888D02*
X749554D01*
X641756Y629920D02*
X749554D01*
X637017Y640080D02*
X749554D01*
X634985Y642112D02*
X749554D01*
X640848Y636016D02*
X749554D01*
X639049Y638048D02*
X749554D01*
X641756Y613664D02*
X749554D01*
X641756Y615696D02*
X749554D01*
X641756Y609600D02*
X749554D01*
X641756Y611632D02*
X749554D01*
X641756Y623824D02*
X749554D01*
X641756Y625856D02*
X749554D01*
X641756Y617728D02*
X749554D01*
X641756Y621792D02*
X749554D01*
X641756Y619760D02*
X749554D01*
X621436Y658368D02*
X749554D01*
X621436Y660400D02*
X749554D01*
X622793Y654304D02*
X749554D01*
X621436Y656336D02*
X749554D01*
X621436Y668528D02*
X749554D01*
X621436Y670560D02*
X749554D01*
X621436Y662432D02*
X749554D01*
X621436Y666496D02*
X749554D01*
X621436Y664464D02*
X749554D01*
X628889Y648208D02*
X749554D01*
X626857Y650240D02*
X749554D01*
X632953Y644144D02*
X749554D01*
X630921Y646176D02*
X749554D01*
X644396Y684784D02*
X645924D01*
X644396Y692912D02*
X645924D01*
X624825Y652272D02*
X749554D01*
X638175Y672084D02*
X670535D01*
X644396Y684276D02*
X645924D01*
X609244Y701936D02*
Y711133D01*
X605536Y701936D02*
Y725544D01*
X605284Y701936D02*
X609244D01*
X603624Y725544D02*
X608584D01*
Y713892D02*
Y725544D01*
X621436Y701936D02*
Y713232D01*
X621792Y701936D02*
Y725544D01*
X624284Y701936D02*
X625396D01*
X621436D02*
X624284D01*
X620776Y715991D02*
Y725544D01*
X624284Y701936D02*
X625396D01*
X620776Y725544D02*
X625736D01*
X623824Y701936D02*
Y725544D01*
X603624D02*
Y747656D01*
X605536D02*
Y755785D01*
X607568Y701936D02*
Y725544D01*
X603624Y747656D02*
X608584D01*
Y752776D01*
X607568Y747656D02*
Y753535D01*
X620776Y747656D02*
X625736D01*
X620776D02*
Y752776D01*
X621792Y747656D02*
Y753535D01*
X634104Y725544D02*
Y747656D01*
X625736Y725544D02*
Y747656D01*
Y727456D02*
X634104D01*
X625736Y731520D02*
X634104D01*
X625736Y741680D02*
X634104D01*
X623824Y747656D02*
Y755785D01*
X625736Y735584D02*
X634104D01*
X625736Y739648D02*
X634104D01*
X625736Y737616D02*
X634104D01*
X621436Y711200D02*
X729234D01*
X621087Y715264D02*
X729234D01*
X621436Y703072D02*
X730632D01*
X621436Y709168D02*
X729234D01*
X620776Y723392D02*
X729234D01*
X620776Y725424D02*
X729234D01*
X620776Y717296D02*
X729234D01*
X620776Y721360D02*
X729234D01*
X620776Y719328D02*
X729234D01*
X640080Y701936D02*
Y725544D01*
X638048Y701936D02*
Y725544D01*
X644396Y694944D02*
X645924D01*
X625396Y701936D02*
X644396D01*
X644144D02*
Y725544D01*
X642112Y701936D02*
Y725544D01*
X621436Y705104D02*
X729598D01*
X621436Y713232D02*
X729234D01*
X621436Y707136D02*
X729238D01*
X625736Y743712D02*
X634104D01*
X625736Y745744D02*
X634104D01*
X625736Y729488D02*
X634104D01*
X625736Y733552D02*
X634104D01*
X622175Y753872D02*
X637665D01*
X623904Y755904D02*
X635936D01*
X620776Y747776D02*
X668274D01*
X620776Y751840D02*
X640800D01*
X620776Y749808D02*
X668274D01*
X636016Y701936D02*
Y725544D01*
Y747656D02*
Y755785D01*
X634104Y725544D02*
X656216D01*
X640080Y747656D02*
Y752180D01*
X638048Y747656D02*
Y753535D01*
X634104Y747656D02*
X656216D01*
X642112D02*
Y751372D01*
X644144Y747656D02*
Y750991D01*
X644396Y688848D02*
X645924D01*
Y684276D02*
Y701936D01*
X644396Y690880D02*
X645924D01*
X644396Y696976D02*
X645924D01*
X644396Y699008D02*
X645924D01*
X644396Y701040D02*
X645924D01*
Y701936D02*
X664924D01*
X674846Y673869D02*
X679291Y678315D01*
X664924Y701936D02*
X666036D01*
X680395Y679824D02*
X685036D01*
X664924Y701936D02*
X666036D01*
X668528D02*
Y725544D01*
X666496Y701936D02*
Y725544D01*
X666036Y701936D02*
X685036D01*
X670560D02*
Y725544D01*
X648208Y701936D02*
Y725544D01*
X646176Y701936D02*
Y725544D01*
X654304Y701936D02*
Y725544D01*
X650240Y701936D02*
Y725544D01*
X652272Y701936D02*
Y725544D01*
X676656Y701936D02*
Y725544D01*
X672592Y701936D02*
Y725544D01*
X685036Y679824D02*
Y701936D01*
X678688D02*
Y725544D01*
X680720Y701936D02*
Y725544D01*
X674624Y701936D02*
Y725544D01*
X682752Y701936D02*
Y725544D01*
X684784Y701936D02*
Y725544D01*
X729234Y707390D02*
Y734420D01*
X677632Y676656D02*
X749554D01*
X679634Y678688D02*
X749554D01*
X672971Y672592D02*
X749554D01*
X675600Y674624D02*
X749554D01*
X685036Y686816D02*
X749554D01*
X685036Y688848D02*
X749554D01*
X685036Y680720D02*
X749554D01*
X685036Y684784D02*
X749554D01*
X685036Y682752D02*
X749554D01*
X745864Y691644D02*
X749554D01*
X745864D02*
Y694334D01*
X685036Y690880D02*
X749554D01*
Y670560D02*
Y691644D01*
X685036Y694944D02*
X739355D01*
X685036Y692912D02*
X745864D01*
X742290Y694334D02*
X745864D01*
X685036Y699008D02*
X734565D01*
X685036Y701040D02*
X732533D01*
X685036Y696976D02*
X736597D01*
X731392Y702181D02*
X737082Y696491D01*
X743966Y710441D02*
X745341Y709066D01*
X743966Y719328D02*
X745864D01*
X743966Y711200D02*
X745864D01*
Y709066D02*
Y710644D01*
X743966Y710441D02*
Y731369D01*
X745864Y710644D02*
Y711756D01*
Y710644D02*
Y711756D01*
X743966Y717296D02*
X745864D01*
X743966Y721360D02*
X745864D01*
X743966Y713232D02*
X745864D01*
X743966Y715264D02*
X745864D01*
Y711756D02*
Y730756D01*
X656216Y727456D02*
X664584D01*
X656216Y729488D02*
X664584D01*
X656216Y731520D02*
X664584D01*
X656216Y733552D02*
X664584D01*
X656216Y735584D02*
X664584D01*
X656216Y737616D02*
X664584D01*
Y725544D02*
Y747656D01*
Y725544D02*
X686696D01*
X656216Y739648D02*
X664584D01*
X656216Y741680D02*
X664584D01*
X656216Y743712D02*
X664584D01*
X656216Y745744D02*
X664584D01*
Y747656D02*
X668274D01*
X683006D02*
X686696D01*
X646176D02*
Y750991D01*
X648208Y747656D02*
Y751372D01*
X650240Y747656D02*
Y752180D01*
X652272Y747656D02*
Y753535D01*
X654304Y747656D02*
Y755785D01*
X655442Y757936D02*
X665358D01*
X649520Y751840D02*
X668274D01*
X652655Y753872D02*
X668145D01*
X654384Y755904D02*
X666416D01*
X656216Y725544D02*
Y747656D01*
X666496D02*
Y755785D01*
X686696Y725544D02*
Y747656D01*
X668274D02*
Y753755D01*
X683006Y747656D02*
Y753755D01*
X684784Y747656D02*
Y755785D01*
X683006Y749808D02*
X698842D01*
X683006Y751840D02*
X698724D01*
X683135Y753872D02*
X698842D01*
X686696Y731520D02*
X729234D01*
X686696Y733552D02*
X729234D01*
X686696Y727456D02*
X729234D01*
X686696Y729488D02*
X729234D01*
X686696Y737616D02*
X705990D01*
X686696Y739648D02*
X703648D01*
X686696Y735584D02*
X709650D01*
X722910D02*
X729326D01*
X726570Y737616D02*
X729963D01*
X743966Y727456D02*
X745864D01*
X743966Y729488D02*
X745864D01*
X743966Y723392D02*
X745864D01*
X743966Y725424D02*
X745864D01*
X729488Y736338D02*
Y740275D01*
X747776Y730756D02*
Y735179D01*
X728912Y739648D02*
X731411D01*
X686696Y741680D02*
X701963D01*
X731520Y739757D02*
Y743125D01*
X730597Y741680D02*
X733443D01*
X731392Y739629D02*
X741864Y750101D01*
X683006Y747776D02*
X699201D01*
X684864Y755904D02*
X699201D01*
X731841Y743712D02*
X735475D01*
X686696Y745744D02*
X699816D01*
X686696Y743712D02*
X700719D01*
X732744Y745744D02*
X737507D01*
X733552Y741789D02*
Y748695D01*
X733359Y747776D02*
X739539D01*
X733718Y749808D02*
X741571D01*
X741864Y750101D02*
Y757139D01*
X741680Y749917D02*
Y757323D01*
X733836Y751840D02*
X741864D01*
X733359Y755904D02*
X741864D01*
X733718Y753872D02*
X741864D01*
X621792Y770465D02*
Y778935D01*
X620776Y771224D02*
Y778176D01*
X608584Y771224D02*
Y778176D01*
X620776Y772160D02*
X640800D01*
X620895Y778256D02*
X638945D01*
X625548Y759968D02*
X634292D01*
X625736Y762000D02*
X634104D01*
X624962Y757936D02*
X634878D01*
X625548Y764032D02*
X634292D01*
X624962Y766064D02*
X634878D01*
X623904Y768096D02*
X635936D01*
X622175Y770128D02*
X637665D01*
X640080Y771820D02*
Y777580D01*
X642112Y772628D02*
Y776772D01*
X607568Y770465D02*
Y778935D01*
X605536Y768215D02*
Y781185D01*
X623824Y768215D02*
Y781185D01*
X623145Y780288D02*
X636695D01*
X624500Y782320D02*
X635340D01*
X625308Y784352D02*
X634532D01*
X627888Y701936D02*
Y824484D01*
X625856Y701936D02*
Y824484D01*
X631952Y701936D02*
Y824484D01*
X629920Y701936D02*
Y824484D01*
X625689Y786384D02*
X634151D01*
X633984Y701936D02*
Y824484D01*
X638048Y770465D02*
Y778935D01*
X625689Y788416D02*
X634151D01*
X636016Y768215D02*
Y781185D01*
X644144Y773009D02*
Y776391D01*
X620776Y774192D02*
X668274D01*
X620776Y776224D02*
X668274D01*
X656028Y759968D02*
X664772D01*
X656216Y762000D02*
X664584D01*
X656028Y764032D02*
X664772D01*
X655442Y766064D02*
X665358D01*
X646176Y773009D02*
Y776391D01*
X648208Y772628D02*
Y776772D01*
X654384Y768096D02*
X666416D01*
X649520Y772160D02*
X668274D01*
X652655Y770128D02*
X668145D01*
X650240Y771820D02*
Y777580D01*
X652272Y770465D02*
Y778935D01*
X651375Y778256D02*
X668274D01*
X653625Y780288D02*
X667175D01*
X658368Y701936D02*
Y824484D01*
X656336Y701936D02*
Y824484D01*
X662432Y701936D02*
Y824484D01*
X660400Y701936D02*
Y824484D01*
X654304Y768215D02*
Y781185D01*
X656169Y786384D02*
X664631D01*
X654980Y782320D02*
X665820D01*
X655788Y784352D02*
X665012D01*
X656169Y788416D02*
X664631D01*
X607568Y795865D02*
Y804335D01*
X605536Y793615D02*
Y806585D01*
X623145Y794512D02*
X636695D01*
X621792Y795865D02*
Y804335D01*
X620776Y796624D02*
Y803576D01*
X608584Y796624D02*
Y803576D01*
X620895Y796544D02*
X638945D01*
X622175Y804672D02*
X637665D01*
X625308Y790448D02*
X634532D01*
X623824Y793615D02*
Y806585D01*
X624500Y792480D02*
X635340D01*
X636016Y793615D02*
Y806585D01*
X624962Y808736D02*
X634878D01*
X625548Y810768D02*
X634292D01*
X640080Y797220D02*
Y802980D01*
X623904Y806704D02*
X635936D01*
X638048Y795865D02*
Y804335D01*
X607568Y821265D02*
Y824484D01*
X605536Y819015D02*
Y824484D01*
X611632Y823428D02*
Y824484D01*
X609600Y822620D02*
Y824484D01*
X621792Y821265D02*
Y824484D01*
X617728Y823428D02*
Y824484D01*
X619760Y822620D02*
Y824484D01*
X625736Y812800D02*
X634104D01*
X625548Y814832D02*
X634292D01*
X624962Y816864D02*
X634878D01*
X623904Y818896D02*
X635936D01*
X636016Y819015D02*
Y824484D01*
X623824Y819015D02*
Y824484D01*
X622175Y820928D02*
X637665D01*
X638048Y821265D02*
Y824484D01*
X640080Y822620D02*
Y824484D01*
X644144Y798409D02*
Y801791D01*
X642112Y798028D02*
Y802172D01*
X648208Y798028D02*
Y802172D01*
X650240Y797220D02*
Y802980D01*
X646176Y798409D02*
Y801791D01*
X620776Y802640D02*
X640800D01*
X620776Y798576D02*
X668274D01*
X620776Y800608D02*
X668274D01*
X649520Y802640D02*
X668274D01*
X655788Y790448D02*
X665012D01*
X654304Y793615D02*
Y806585D01*
X654980Y792480D02*
X665820D01*
X653625Y794512D02*
X667175D01*
X652272Y795865D02*
Y804335D01*
X655442Y808736D02*
X665358D01*
X651375Y796544D02*
X668274D01*
X652655Y804672D02*
X668145D01*
X654384Y806704D02*
X666416D01*
X619040Y822960D02*
X640800D01*
X642112Y823428D02*
Y824484D01*
X648208Y823428D02*
Y824484D01*
X649520Y822960D02*
X671280D01*
X656028Y810768D02*
X664772D01*
X656216Y812800D02*
X664584D01*
X656028Y814832D02*
X664772D01*
X655442Y816864D02*
X665358D01*
X652272Y821265D02*
Y824484D01*
X650240Y822620D02*
Y824484D01*
X654384Y818896D02*
X666416D01*
X652655Y820928D02*
X668145D01*
X654304Y819015D02*
Y824484D01*
X685922Y757936D02*
X699816D01*
X686508Y764032D02*
X703648D01*
X685922Y766064D02*
X705990D01*
X684864Y768096D02*
X709650D01*
X683006Y776224D02*
X722779D01*
X686508Y759968D02*
X700719D01*
X686696Y762000D02*
X701963D01*
X721360Y768645D02*
Y777643D01*
X711200Y768645D02*
Y778004D01*
X715264Y769367D02*
Y778004D01*
X713232Y769129D02*
Y778004D01*
X710304D02*
X720999D01*
X717296Y769367D02*
Y778004D01*
X719328Y769129D02*
Y778004D01*
X666496Y768215D02*
Y781185D01*
X664464Y701936D02*
Y824484D01*
X683006Y770245D02*
Y779155D01*
X668274Y770245D02*
Y779155D01*
X666496Y793615D02*
Y806585D01*
X683006Y778256D02*
X710304D01*
X683885Y780034D02*
X710304D01*
X701040Y760555D02*
Y780034D01*
X699008Y754985D02*
Y780034D01*
X705104Y765379D02*
Y780034D01*
X703072Y763406D02*
Y780034D01*
X684784Y768215D02*
Y780034D01*
X703072Y794766D02*
Y824484D01*
X710304Y778004D02*
Y780034D01*
X707136Y766827D02*
Y780034D01*
X709168Y767891D02*
Y780034D01*
X727456Y765379D02*
Y771547D01*
X728912Y764032D02*
X734971D01*
X683006Y772160D02*
X726843D01*
X725424Y766827D02*
Y773579D01*
X726570Y766064D02*
X732939D01*
X683135Y770128D02*
X728875D01*
X722910Y768096D02*
X730907D01*
X735584Y743821D02*
Y763419D01*
X733552Y754985D02*
Y765451D01*
X739648Y747885D02*
Y759355D01*
X737616Y745853D02*
Y761387D01*
X731520Y760555D02*
Y767483D01*
X729488Y763406D02*
Y769515D01*
X732744Y757936D02*
X741067D01*
X730597Y762000D02*
X737003D01*
X731841Y759968D02*
X739035D01*
X683006Y774192D02*
X724811D01*
X723392Y767891D02*
Y775611D01*
X720999Y778004D02*
X741864Y757139D01*
X733453Y786384D02*
X741864D01*
X732416Y788416D02*
X741864D01*
X732416Y787421D02*
Y797004D01*
Y790448D02*
X741864D01*
X732416Y794512D02*
X741864D01*
X732416Y792480D02*
X741864D01*
X743712Y776125D02*
Y784684D01*
X741680Y778157D02*
Y800964D01*
X747776Y772061D02*
Y784684D01*
X745744Y774093D02*
Y784684D01*
X735584Y784253D02*
Y800964D01*
X733552Y786285D02*
Y800964D01*
X741864Y784684D02*
Y800964D01*
X737616Y782221D02*
Y800964D01*
X739648Y780189D02*
Y800964D01*
X668274Y795645D02*
Y804555D01*
X683006Y796544D02*
X710304D01*
X683006Y798576D02*
X710304D01*
X682752Y821265D02*
Y824484D01*
X683006Y800608D02*
X710304D01*
X683006Y802640D02*
X710304D01*
X683006Y795645D02*
Y804555D01*
X684784Y794766D02*
Y806585D01*
X683885Y794766D02*
X710304D01*
Y797004D01*
Y798116D02*
Y817116D01*
Y797004D02*
Y798116D01*
X683135Y804672D02*
X710304D01*
X684864Y806704D02*
X710304D01*
X684784Y819015D02*
Y824484D01*
X666496Y819015D02*
Y824484D01*
X688848Y794766D02*
Y824484D01*
X686816Y794766D02*
Y824484D01*
X670560Y822620D02*
Y824484D01*
X668528Y821265D02*
Y824484D01*
X680720Y822620D02*
Y824484D01*
X672592Y823428D02*
Y824484D01*
X678688Y823428D02*
Y824484D01*
X705104Y794766D02*
Y824484D01*
X701040Y794766D02*
Y824484D01*
X709168Y794766D02*
Y824484D01*
X707136Y794766D02*
Y824484D01*
X692912Y794766D02*
Y824484D01*
X690880Y794766D02*
Y824484D01*
X699008Y794766D02*
Y824484D01*
X694944Y794766D02*
Y824484D01*
X696976Y794766D02*
Y824484D01*
X710304Y797004D02*
Y798116D01*
X685922Y808736D02*
X710304D01*
X732416Y797004D02*
Y798116D01*
X686508Y810768D02*
X710304D01*
X686696Y812800D02*
X710304D01*
X686508Y814832D02*
X710304D01*
X685922Y816864D02*
X710304D01*
Y817116D02*
X732416D01*
X711200D02*
Y824484D01*
X732416Y797004D02*
Y798116D01*
Y800964D01*
Y796544D02*
X741864D01*
X732416Y798576D02*
X741864D01*
X732416Y813156D02*
X741864D01*
X732416D02*
Y817116D01*
Y800608D02*
X741864D01*
X732416Y800964D02*
X741864D01*
Y813156D02*
Y814796D01*
X725424Y817116D02*
Y824484D01*
X723392Y817116D02*
Y824484D01*
X729488Y817116D02*
Y824484D01*
X727456Y817116D02*
Y824484D01*
X715264Y817116D02*
Y824484D01*
X713232Y817116D02*
Y824484D01*
X721360Y817116D02*
Y824484D01*
X717296Y817116D02*
Y824484D01*
X719328Y817116D02*
Y824484D01*
X735584Y813156D02*
Y824484D01*
X733552Y813156D02*
Y824484D01*
X739648Y813156D02*
Y824484D01*
X737616Y813156D02*
Y824484D01*
X741680Y813156D02*
Y824484D01*
X731520Y817116D02*
Y824484D01*
X747776Y814796D02*
Y824484D01*
X743712Y814796D02*
Y824484D01*
X745744Y814796D02*
Y824484D01*
X764286Y642112D02*
X775822D01*
X764286Y652777D02*
X773301Y643762D01*
X764286Y648208D02*
X768855D01*
X764286Y650240D02*
X766823D01*
X764286Y644144D02*
X772919D01*
X764286Y646176D02*
X770887D01*
X792480Y656336D02*
Y671324D01*
X790448Y656336D02*
Y671324D01*
X796544Y656336D02*
Y671324D01*
X794512Y656336D02*
Y671324D01*
X780288Y657609D02*
Y671324D01*
X778256Y659641D02*
Y671324D01*
X776344D02*
X798456D01*
X782320Y656336D02*
Y671324D01*
X784352Y656336D02*
Y671324D01*
X765305Y672592D02*
X776344D01*
X764286Y673611D02*
Y691644D01*
Y673611D02*
X781561Y656336D01*
X764286Y674624D02*
X776344D01*
X764286Y682752D02*
X776344D01*
X764286Y684784D02*
X776344D01*
X764286Y676656D02*
X776344D01*
X764286Y680720D02*
X776344D01*
X764286Y678688D02*
X776344D01*
X774192Y663705D02*
Y717921D01*
X776224Y661673D02*
Y719953D01*
X788416Y656336D02*
Y671324D01*
X786384Y656336D02*
Y671324D01*
X766064Y671833D02*
Y691644D01*
X770128Y667769D02*
Y714869D01*
X798456Y671324D02*
Y690324D01*
X772160Y665737D02*
Y715941D01*
X776344Y671324D02*
Y690324D01*
X764286Y615696D02*
X863854D01*
X764286Y617728D02*
X863854D01*
X764286Y611632D02*
X863854D01*
X764286Y613664D02*
X863854D01*
X764286Y623824D02*
X863854D01*
X764286Y625856D02*
X863854D01*
X764286Y619760D02*
X863854D01*
X764286Y621792D02*
X863854D01*
X764286Y631952D02*
X863854D01*
X764286Y633984D02*
X863854D01*
X764286Y627888D02*
X863854D01*
X764286Y629920D02*
X863854D01*
X778510Y641604D02*
X840740D01*
X781561Y656336D02*
X837689D01*
X764286Y636016D02*
X863854D01*
X764286Y640080D02*
X863854D01*
X764286Y638048D02*
X863854D01*
X781561Y656336D02*
X837689D01*
X779529Y658368D02*
X839721D01*
X777497Y660400D02*
X841753D01*
X775465Y662432D02*
X843785D01*
X769369Y668528D02*
X807234D01*
X767337Y670560D02*
X807234D01*
X773433Y664464D02*
X845817D01*
X771401Y666496D02*
X846074D01*
X798456Y672592D02*
X807234D01*
X800608Y656336D02*
Y690176D01*
X798576Y656336D02*
Y692013D01*
X798456Y674624D02*
X807234D01*
X802640Y656336D02*
Y689338D01*
X798456Y676656D02*
X807234D01*
X798456Y678688D02*
X807234D01*
X798456Y680720D02*
X807234D01*
X798456Y684784D02*
X825515D01*
X798456Y682752D02*
X807234D01*
X764286Y690880D02*
X776344D01*
X764286Y691644D02*
X767976D01*
X764286Y686816D02*
X776344D01*
X764286Y688848D02*
X776344D01*
X767976Y696976D02*
X776344D01*
X767976Y699008D02*
X776344D01*
X767976Y692912D02*
X776344D01*
X767976Y694944D02*
X776344D01*
Y691436D02*
Y710436D01*
X767976Y691644D02*
Y710644D01*
X776344Y690324D02*
Y691436D01*
Y690324D02*
Y691436D01*
X767976Y707136D02*
X776344D01*
X767976Y709168D02*
X776344D01*
X767976Y701040D02*
X776344D01*
X767976Y705104D02*
X776344D01*
X767976Y703072D02*
X776344D01*
X767976Y711756D02*
Y714604D01*
Y728947D02*
Y730756D01*
Y710644D02*
Y711756D01*
Y710644D02*
Y711756D01*
X745864Y730756D02*
X767976D01*
X744117Y731520D02*
X770549D01*
X767976Y728947D02*
X771144Y732115D01*
X746149Y733552D02*
X771144D01*
X748181Y735584D02*
X771144D01*
X778256Y710436D02*
Y721985D01*
X780288Y710436D02*
Y724017D01*
X772661Y716390D02*
X781551Y725280D01*
X782114Y721444D02*
Y725929D01*
X779663Y723392D02*
X782114D01*
X798456Y690324D02*
Y691436D01*
Y690324D02*
Y691436D01*
Y686816D02*
X823483D01*
X798456Y688848D02*
X807234D01*
X798456Y692133D02*
X799600Y690990D01*
X776344Y710436D02*
X798456D01*
Y709168D02*
X820674D01*
X767976Y713232D02*
X820674D01*
X767976Y711200D02*
X820674D01*
X798456Y690880D02*
X799712D01*
X803140Y704691D02*
X806435Y701396D01*
X798456Y706476D02*
Y710436D01*
X802683Y705104D02*
X820674D01*
X798456Y707136D02*
X820674D01*
X784352Y710436D02*
Y721444D01*
X782320Y710436D02*
Y721444D01*
X771109Y715264D02*
X820674D01*
X786384Y710436D02*
Y721444D01*
X782114D02*
X795226D01*
X773567Y717296D02*
X820674D01*
X775599Y719328D02*
X820674D01*
X777631Y721360D02*
X820674D01*
X794512Y710436D02*
Y721444D01*
X792480Y710436D02*
Y721444D01*
X802640Y705139D02*
Y721444D01*
X800608Y706211D02*
Y721444D01*
X790448Y710436D02*
Y721444D01*
X788416Y710436D02*
Y721444D01*
X796544Y710436D02*
Y721444D01*
X795226D02*
X807514D01*
X810768Y656336D02*
Y668244D01*
X808736Y656336D02*
Y668244D01*
X814832Y656336D02*
Y668244D01*
X812800Y656336D02*
Y668244D01*
X807234D02*
X823846D01*
X818896Y656336D02*
Y668244D01*
X816864Y656336D02*
Y668244D01*
X822960Y656336D02*
Y668244D01*
X820928Y656336D02*
Y668244D01*
X837184Y656336D02*
Y677744D01*
X833120Y656336D02*
Y677744D01*
X843280Y661927D02*
Y677744D01*
X839216Y657863D02*
Y677744D01*
X841248Y659895D02*
Y677744D01*
X806704Y656336D02*
Y689204D01*
X804672Y656336D02*
Y689204D01*
X807234Y668244D02*
Y684356D01*
X823846Y682752D02*
X827547D01*
X820928Y684356D02*
Y687244D01*
X823846Y678688D02*
X832234D01*
X823055Y687244D02*
X828810Y681489D01*
X823846Y680720D02*
X829750D01*
X827024Y656336D02*
Y683275D01*
X824992Y656336D02*
Y685307D01*
X835152Y656336D02*
Y677744D01*
X829056Y656336D02*
Y681256D01*
X831088Y656336D02*
Y680053D01*
X823846Y668244D02*
Y684356D01*
X832234Y677744D02*
Y679769D01*
X843428Y642112D02*
X863854D01*
X845948Y643762D02*
X858649Y656461D01*
X852427Y650240D02*
X863854D01*
X837689Y656336D02*
X846074Y664721D01*
X846331Y644144D02*
X863854D01*
X848363Y646176D02*
X863854D01*
X850395Y648208D02*
X863854D01*
X858523Y656336D02*
X863854D01*
X854459Y652272D02*
X863854D01*
X856491Y654304D02*
X863854D01*
X860024Y658368D02*
X863854D01*
X860696Y660400D02*
X863854D01*
X860806Y664464D02*
X863854D01*
X860806Y662432D02*
X863854D01*
X846074Y664721D02*
Y677744D01*
X845312Y663959D02*
Y677744D01*
X860806Y666496D02*
X863854D01*
X823846Y668528D02*
X846074D01*
X823846Y676656D02*
X846074D01*
X832234Y677744D02*
X846074D01*
X823846Y670560D02*
X846074D01*
X823846Y674624D02*
X846074D01*
X823846Y672592D02*
X846074D01*
X860806Y668528D02*
X863854D01*
X860806Y661670D02*
Y715384D01*
Y670560D02*
X863854D01*
X860806Y672592D02*
X863854D01*
X860806Y680720D02*
X863854D01*
X860806Y682752D02*
X863854D01*
X860806Y674624D02*
X863854D01*
X860806Y678688D02*
X863854D01*
X860806Y676656D02*
X863854D01*
X807234Y687244D02*
Y689204D01*
X803910D02*
X807234D01*
X807234Y684356D02*
X823846D01*
X807234Y687244D02*
X823055D01*
X806435Y701396D02*
X807234D01*
Y703356D01*
X804759Y703072D02*
X807234D01*
Y703356D02*
X820674D01*
X810768Y684356D02*
Y687244D01*
X808736Y684356D02*
Y687244D01*
X814832Y684356D02*
Y687244D01*
X812800Y684356D02*
Y687244D01*
X818896Y684356D02*
Y687244D01*
X816864Y684356D02*
Y687244D01*
X822960Y684356D02*
Y687244D01*
X822459Y687840D02*
X823055Y687244D01*
X832866Y694675D02*
X833685Y693856D01*
X806704Y701396D02*
Y721444D01*
X804672Y703159D02*
Y721444D01*
X810768Y703356D02*
Y721444D01*
X808736Y703356D02*
Y721444D01*
X814832Y703356D02*
Y721444D01*
X812800Y703356D02*
Y721444D01*
X807926D02*
X820214D01*
X816864Y703356D02*
Y721444D01*
X818896Y703356D02*
Y721444D01*
X832866Y694675D02*
Y721444D01*
X820674Y703356D02*
Y721444D01*
X833326Y723392D02*
X842384D01*
X833326Y725424D02*
X842384D01*
X833326Y733552D02*
X842384D01*
X833326Y735584D02*
X842384D01*
X833326Y727456D02*
X842384D01*
X833326Y731520D02*
X842384D01*
X833326Y729488D02*
X842384D01*
X833685Y693856D02*
X846074D01*
X832866Y694944D02*
X846074D01*
X860806Y686816D02*
X863854D01*
X860806Y692912D02*
X863854D01*
X832866Y703072D02*
X846074D01*
X832866Y705104D02*
X846074D01*
X832866Y696976D02*
X846074D01*
X832866Y701040D02*
X846074D01*
X832866Y699008D02*
X846074D01*
X860806Y690880D02*
X863854D01*
X860806Y694944D02*
X863854D01*
X860806Y684784D02*
X863854D01*
X860806Y688848D02*
X863854D01*
X860806Y703072D02*
X863854D01*
X860806Y705104D02*
X863854D01*
X860806Y696976D02*
X863854D01*
X860806Y701040D02*
X863854D01*
X860806Y699008D02*
X863854D01*
X832866Y711200D02*
X846074D01*
X832866Y713232D02*
X846074D01*
X832866Y707136D02*
X846074D01*
X832866Y709168D02*
X846074D01*
X832866Y719328D02*
X842384D01*
X832866Y721360D02*
X842384D01*
X832866Y715264D02*
X846074D01*
X832866Y717296D02*
X842384D01*
Y715384D02*
X846074D01*
X845312Y693856D02*
Y715384D01*
X843280Y693856D02*
Y715384D01*
X860806Y707136D02*
X863854D01*
X846074Y693856D02*
Y715384D01*
X860806Y715264D02*
X863854D01*
X860806Y715384D02*
X863854D01*
X860806Y709168D02*
X863854D01*
X860806Y713232D02*
X863854D01*
X860806Y711200D02*
X863854D01*
X749808Y730756D02*
Y737211D01*
X751840Y730756D02*
Y739243D01*
X755904Y730756D02*
Y739684D01*
X753872Y730756D02*
Y739684D01*
X750213Y737616D02*
X771144D01*
X743966Y731369D02*
X752281Y739684D01*
X752245Y739648D02*
X771144D01*
X752281Y739684D02*
X771144D01*
X762000Y730756D02*
Y739684D01*
X757936Y730756D02*
Y739684D01*
X768096Y729067D02*
Y739684D01*
X764032Y730756D02*
Y739684D01*
X766064Y730756D02*
Y739684D01*
X759968Y730756D02*
Y739684D01*
X770128Y731099D02*
Y739684D01*
X771144Y732115D02*
Y739684D01*
X751840Y769796D02*
Y784684D01*
X732416Y787421D02*
X750041Y769796D01*
X771976D01*
X753872D02*
Y784684D01*
X755904Y769796D02*
Y784684D01*
X749808Y770029D02*
Y784684D01*
X762000Y769796D02*
Y784684D01*
X757936Y769796D02*
Y784684D01*
X759968Y769796D02*
Y784684D01*
X771976Y762725D02*
Y769796D01*
X772160Y763020D02*
Y781904D01*
X771976Y764032D02*
X773000D01*
X766064Y769796D02*
Y782484D01*
X764032Y769796D02*
Y784007D01*
X774192Y765224D02*
Y781904D01*
X768096Y769796D02*
Y781930D01*
X770128Y769796D02*
Y781904D01*
X797579Y750556D02*
X807514D01*
X798095Y751840D02*
X819419D01*
X797017Y760222D02*
X811037D01*
X798095Y757936D02*
X813323D01*
X797174Y759968D02*
X811291D01*
X798576Y750556D02*
Y754888D01*
X807926Y750556D02*
X820214D01*
X802640D02*
Y760222D01*
X804672Y750556D02*
Y760222D01*
X798576Y754888D02*
Y760222D01*
X798524Y753872D02*
X817387D01*
X798524Y755904D02*
X815355D01*
X806704Y750556D02*
Y760222D01*
X771976Y766064D02*
X775032D01*
X776224Y767256D02*
Y781904D01*
X771976Y768096D02*
X777064D01*
X772930Y763961D02*
X779597Y770629D01*
X749709Y770128D02*
X779096D01*
X778256Y769288D02*
Y781904D01*
X747677Y772160D02*
X782166D01*
X782320Y772204D02*
Y773444D01*
X780288Y771223D02*
Y781904D01*
X800608Y750556D02*
Y760222D01*
X794512Y772414D02*
Y773444D01*
X796544Y772414D02*
Y773444D01*
X792480Y772414D02*
Y773444D01*
X802640Y772414D02*
Y773444D01*
X798576Y772414D02*
Y773444D01*
X800608Y772414D02*
Y773444D01*
X741581Y778256D02*
X782114D01*
X745645Y774192D02*
X782114D01*
X743613Y776224D02*
X782114D01*
X735485Y784352D02*
X763687D01*
X741864Y784684D02*
X763355D01*
X737517Y782320D02*
X766446D01*
X763355Y784684D02*
X764349Y783689D01*
X782114Y773444D02*
Y781904D01*
X768660D02*
X782114D01*
Y794096D02*
Y802556D01*
X771976Y798576D02*
X782114D01*
X771976Y800608D02*
X782114D01*
X771976Y794096D02*
X782114D01*
X771976Y796544D02*
X782114D01*
X771976Y794512D02*
X782114D01*
X759968Y814796D02*
Y824484D01*
X757936Y814796D02*
Y824484D01*
X764032Y814796D02*
Y824484D01*
X762000Y814796D02*
Y824484D01*
X751840Y814796D02*
Y824484D01*
X749808Y814796D02*
Y824484D01*
X741864Y814796D02*
X771976D01*
X753872D02*
Y824484D01*
X755904Y814796D02*
Y824484D01*
X776224Y794096D02*
Y824484D01*
X774192Y794096D02*
Y824484D01*
X780288Y794096D02*
Y824484D01*
X778256Y794096D02*
Y824484D01*
X768096Y814796D02*
Y824484D01*
X766064Y814796D02*
Y824484D01*
X771976Y794096D02*
Y814796D01*
X770128D02*
Y824484D01*
X772160Y794096D02*
Y824484D01*
X782114Y773444D02*
X794814D01*
X739549Y780288D02*
X782114D01*
Y802556D02*
X794814D01*
X771976Y802640D02*
X832711D01*
X771976Y808736D02*
X831137D01*
X771976Y810768D02*
X831081D01*
X771976Y804672D02*
X831935D01*
X771976Y812800D02*
X831249D01*
X771976Y806704D02*
X831418D01*
X786384Y772414D02*
Y773444D01*
X784352Y772414D02*
Y773444D01*
X783907Y772414D02*
X813562D01*
X788416D02*
Y773444D01*
X804672Y772414D02*
Y773444D01*
X790448Y772414D02*
Y773444D01*
X806704Y772414D02*
Y773444D01*
X795226Y802556D02*
X807514D01*
X795226Y773444D02*
X807514D01*
X784352Y802556D02*
Y824484D01*
X782320Y802556D02*
Y824484D01*
X788416Y802556D02*
Y824484D01*
X786384Y802556D02*
Y824484D01*
X732416Y814832D02*
X831646D01*
X732416Y816864D02*
X832289D01*
X684864Y818896D02*
X833206D01*
X680000Y822960D02*
X836101D01*
X683135Y820928D02*
X834447D01*
X802640Y802556D02*
Y824484D01*
X800608Y802556D02*
Y824484D01*
X806704Y802556D02*
Y824484D01*
X804672Y802556D02*
Y824484D01*
X792480Y802556D02*
Y824484D01*
X790448Y802556D02*
Y824484D01*
X798576Y802556D02*
Y824484D01*
X794512Y802556D02*
Y824484D01*
X796544Y802556D02*
Y824484D01*
X816864Y750556D02*
Y754395D01*
X814832Y750556D02*
Y756427D01*
X818896Y750556D02*
Y752363D01*
X832188Y755904D02*
X840755D01*
X833326Y721444D02*
Y750556D01*
X841248Y693856D02*
Y755411D01*
X842384Y715384D02*
Y737496D01*
X843280D02*
Y747480D01*
X832866Y751840D02*
X842384D01*
X832866Y750556D02*
Y753110D01*
X833326Y747776D02*
X843158D01*
X832818Y753872D02*
X842572D01*
X833326Y749808D02*
X842572D01*
X810768Y750556D02*
Y760222D01*
X808736Y750556D02*
Y760222D01*
X812800Y750556D02*
Y758459D01*
X811037Y760222D02*
X820674Y750585D01*
X824992Y763509D02*
Y771667D01*
X822960Y765541D02*
Y773444D01*
X824469Y764032D02*
X832627D01*
X817872Y770629D02*
X831080Y757421D01*
X823215Y773444D02*
X842607Y754052D01*
X835152Y693856D02*
Y761507D01*
X831088Y757413D02*
Y765571D01*
X839216Y693856D02*
Y757443D01*
X837184Y693856D02*
Y759475D01*
X829056Y759445D02*
Y767603D01*
X827024Y761477D02*
Y769635D01*
X830565Y757936D02*
X838723D01*
X826501Y762000D02*
X834659D01*
X828533Y759968D02*
X836691D01*
X847344Y737496D02*
Y742616D01*
X845312Y737496D02*
Y744345D01*
X842384Y737496D02*
X863854D01*
X849376D02*
Y741558D01*
X833326Y743712D02*
X845945D01*
X833326Y745744D02*
X844216D01*
X833326Y737616D02*
X863854D01*
X833326Y741680D02*
X849080D01*
X833326Y739648D02*
X863854D01*
X855472Y737496D02*
Y740972D01*
X851408Y737496D02*
Y740972D01*
X857504Y737496D02*
Y741558D01*
X859536Y737496D02*
Y742616D01*
X853440Y737496D02*
Y740784D01*
X861568Y737496D02*
Y744345D01*
X857800Y741680D02*
X863854D01*
X860935Y743712D02*
X863854D01*
X862664Y745744D02*
X863854D01*
X833326Y780575D02*
X851228Y762673D01*
X857504Y762122D02*
Y793457D01*
X849376Y764525D02*
Y791706D01*
X851408Y762708D02*
Y791789D01*
X849869Y764032D02*
X863854D01*
X853440Y762896D02*
Y792099D01*
X855472Y762708D02*
Y792648D01*
X863600Y737496D02*
Y747480D01*
Y756200D02*
Y798047D01*
X863854Y737496D02*
Y748127D01*
Y755553D02*
Y798344D01*
X859536Y761064D02*
Y794569D01*
X861568Y759335D02*
Y796054D01*
X862664Y757936D02*
X863854D01*
X857800Y762000D02*
X863854D01*
X860935Y759968D02*
X863854D01*
X814832Y772280D02*
Y773444D01*
X815303Y772160D02*
X824499D01*
X810768Y772414D02*
Y773444D01*
X808736Y772414D02*
Y773444D01*
X807926D02*
X820214D01*
X812800Y772414D02*
Y773444D01*
X820928Y767573D02*
Y773444D01*
X818896Y769605D02*
Y773444D01*
X822437Y766064D02*
X830595D01*
X820405Y768096D02*
X828563D01*
X820626Y773444D02*
X823215D01*
X816864Y771442D02*
Y773444D01*
X818373Y770128D02*
X826531D01*
X833326Y780575D02*
Y801400D01*
X835152Y778749D02*
Y798653D01*
X818896Y802556D02*
Y824484D01*
X816864Y802556D02*
Y824484D01*
X820626Y802556D02*
X832749D01*
X820928D02*
Y824484D01*
X810768Y802556D02*
Y824484D01*
X808736Y802556D02*
Y824484D01*
X807926Y802556D02*
X820214D01*
X812800D02*
Y824484D01*
X814832Y802556D02*
Y824484D01*
X829056Y802556D02*
Y824484D01*
X827024Y802556D02*
Y824484D01*
X824992Y802556D02*
Y824484D01*
X822960Y802556D02*
Y824484D01*
X831088Y802556D02*
Y809539D01*
Y810981D02*
Y824484D01*
X833120Y818730D02*
Y824484D01*
X833613Y780288D02*
X863854D01*
X833326Y782320D02*
X863854D01*
X837677Y776224D02*
X863854D01*
X835645Y778256D02*
X863854D01*
X833326Y790448D02*
X863854D01*
X833326Y792480D02*
X844320D01*
X833326Y784352D02*
X863854D01*
X833326Y788416D02*
X863854D01*
X833326Y786384D02*
X863854D01*
X847344Y766557D02*
Y791845D01*
X845312Y768589D02*
Y792213D01*
X847837Y766064D02*
X863854D01*
X845805Y768096D02*
X863854D01*
X843773Y770128D02*
X863854D01*
X843280Y770621D02*
Y792824D01*
X841741Y772160D02*
X863854D01*
X839709Y774192D02*
X863854D01*
X854940Y792480D02*
X863854D01*
X833326Y794512D02*
X839815D01*
X837184Y776717D02*
Y796497D01*
X833326Y798576D02*
X835214D01*
X835152Y821867D02*
Y824484D01*
X833326Y796544D02*
X837132D01*
X841248Y772653D02*
Y793705D01*
X839216Y774685D02*
Y794902D01*
X859445Y794512D02*
X863854D01*
X862128Y796544D02*
X863854D01*
X871474Y828787D02*
Y832104D01*
X869696Y830565D02*
Y832104D01*
X869173Y831088D02*
X871474D01*
X868157Y832104D02*
X871474D01*
X868157D02*
X871474Y828787D01*
D11*
X353260Y543560D02*
D03*
X378260Y534060D02*
D03*
X790140Y548640D02*
D03*
X815140Y539140D02*
D03*
X373580Y695300D02*
D03*
X398580Y685800D02*
D03*
X840540D02*
D03*
X815540Y695300D02*
D03*
D12*
X378260Y553060D02*
D03*
X815140Y558140D02*
D03*
X373580Y676300D02*
D03*
X815540D02*
D03*
D13*
X356870Y493360D02*
D03*
X344170D02*
D03*
X331470D02*
D03*
X369570Y441360D02*
D03*
X356870D02*
D03*
X344170D02*
D03*
X331470D02*
D03*
X814070Y498440D02*
D03*
X801370D02*
D03*
X788670D02*
D03*
X826770Y446440D02*
D03*
X814070D02*
D03*
X801370D02*
D03*
X788670D02*
D03*
X344170Y730920D02*
D03*
X356870D02*
D03*
X369570D02*
D03*
X331470Y782920D02*
D03*
X344170D02*
D03*
X356870D02*
D03*
X369570D02*
D03*
X826770Y788000D02*
D03*
X814070D02*
D03*
X801370D02*
D03*
X788670D02*
D03*
X826770Y736000D02*
D03*
X814070D02*
D03*
X801370D02*
D03*
D14*
X369570Y493360D02*
D03*
X826770Y498440D02*
D03*
X331470Y730920D02*
D03*
X788670Y736000D02*
D03*
D15*
X401320Y814980D02*
D03*
Y769980D02*
D03*
X756920Y409300D02*
D03*
Y454300D02*
D03*
X401320Y414380D02*
D03*
Y459380D02*
D03*
X756920Y754740D02*
D03*
Y799740D02*
D03*
D16*
X721360Y788060D02*
D03*
Y807060D02*
D03*
X787400Y700380D02*
D03*
Y681380D02*
D03*
X436880Y426060D02*
D03*
Y407060D02*
D03*
X406400Y544220D02*
D03*
X756920Y558140D02*
D03*
Y539140D02*
D03*
X716280Y426060D02*
D03*
Y407060D02*
D03*
X848360Y539140D02*
D03*
X436880Y798220D02*
D03*
Y817220D02*
D03*
X406400Y563220D02*
D03*
X848360Y558140D02*
D03*
X421640Y696620D02*
D03*
Y715620D02*
D03*
X345440Y671220D02*
D03*
Y690220D02*
D03*
X756920Y720700D02*
D03*
Y701700D02*
D03*
D17*
X635660Y543560D02*
D03*
X654660D02*
D03*
Y492760D02*
D03*
X635660D02*
D03*
X300380Y548640D02*
D03*
X319380D02*
D03*
X574700Y441960D02*
D03*
X593700D02*
D03*
X615340Y690880D02*
D03*
X634340D02*
D03*
X655980D02*
D03*
X674980D02*
D03*
D18*
X512560Y508000D02*
D03*
D19*
X574560Y531000D02*
D03*
Y485000D02*
D03*
D20*
Y508000D02*
D03*
D21*
X739140Y472080D02*
X756920Y454300D01*
X401320Y723900D02*
Y769980D01*
X299720Y638200D02*
Y726440D01*
Y638200D02*
X300380Y548640D01*
X395880Y464820D02*
X428625Y432075D01*
X436880Y426060D01*
X328930Y755650D02*
X386990D01*
X299720Y726440D02*
X328930Y755650D01*
X775060Y472440D02*
X843280D01*
X858520Y487680D01*
X409600Y715620D02*
X421640D01*
X401320Y723900D02*
X409600Y715620D01*
X322580Y464820D02*
X395880D01*
X299720Y487680D02*
X322580Y464820D01*
X609600Y411480D02*
X624180Y426060D01*
X739140Y472080D02*
Y547980D01*
X749300Y558140D01*
X756920D01*
X574560Y463436D02*
Y485000D01*
Y463436D02*
X574700Y463296D01*
X300380Y518312D02*
Y548640D01*
X299720Y517652D02*
X300380Y518312D01*
X299720Y487680D02*
Y517652D01*
X513740Y441960D02*
X574700D01*
X497840Y426060D02*
X513740Y441960D01*
X436880Y426060D02*
X497840D01*
X429560Y798220D02*
X440080D01*
X778510Y648970D02*
X840740D01*
X853440Y661670D01*
Y726440D01*
X754680Y754740D02*
X756920D01*
X722020Y787400D02*
X754680Y754740D01*
X675640Y787400D02*
X722020D01*
X742290Y701700D02*
X756920D01*
X736600Y707390D02*
X742290Y701700D01*
X736600Y707390D02*
Y734420D01*
X756920Y754740D01*
Y670560D02*
X778510Y648970D01*
X756920Y558140D02*
Y701700D01*
X386990Y755650D02*
X429560Y798220D01*
X675640Y736600D02*
Y812800D01*
X574700Y424790D02*
X588010Y411480D01*
X609600D01*
X574700Y424790D02*
Y463296D01*
X624180Y426060D02*
X728680D01*
X775060Y472440D01*
D22*
X814070Y446440D02*
X826770D01*
X801370D02*
X814070D01*
X788670D02*
X801370D01*
X369570Y441452D02*
X374248D01*
X356870Y441360D02*
X369570D01*
X344170D02*
X356870D01*
X331470D02*
X344170D01*
X320802Y441198D02*
X331470D01*
X615340Y690880D02*
Y713232D01*
Y653136D02*
Y690880D01*
X614680Y787400D02*
Y812800D01*
Y762000D02*
Y787400D01*
Y736600D02*
Y762000D01*
Y713892D02*
Y736600D01*
X635660Y543560D02*
Y632816D01*
Y492760D02*
Y543560D01*
X611238D02*
X635660D01*
X299720Y751840D02*
X300390D01*
X331470Y782920D01*
X615340Y653136D02*
X635660Y632816D01*
X398580Y685800D02*
Y701675D01*
X395151Y705104D02*
X398580Y701675D01*
X381000Y705104D02*
X395151D01*
X369570Y716534D02*
X381000Y705104D01*
X369570Y716534D02*
Y730920D01*
X756920Y720700D02*
X768350D01*
X777240Y729590D01*
Y759650D01*
X783907Y766318D01*
X813562D01*
X790140Y524202D02*
Y548640D01*
X788670Y522732D02*
X790140Y524202D01*
X788670Y498440D02*
Y522732D01*
X369570Y782920D02*
Y783230D01*
X401320Y814980D01*
X788670Y441050D02*
Y446440D01*
X756920Y409300D02*
X788670Y441050D01*
X369570Y441360D02*
Y441452D01*
X374248D02*
X401320Y414380D01*
X331470Y441198D02*
Y441360D01*
X299720Y462280D02*
X320802Y441198D01*
X826770Y446440D02*
Y462280D01*
X858520D01*
X406400Y563220D02*
X520700D01*
X533400Y575920D01*
Y817880D01*
X833120Y685800D02*
X840540D01*
X826770Y692150D02*
X833120Y685800D01*
X634340Y682015D02*
Y690880D01*
Y682015D02*
X638175Y678180D01*
X670535D01*
X674980Y682625D01*
Y690880D01*
X361950Y695300D02*
X373580D01*
X356870Y690220D02*
X361950Y695300D01*
X345440Y690220D02*
X356870D01*
X415442Y696620D02*
X421640D01*
X404622Y685800D02*
X415442Y696620D01*
X398580Y685800D02*
X404622D01*
X815140Y539140D02*
X848360D01*
X778104Y548640D02*
X790140D01*
X768604Y539140D02*
X778104Y548640D01*
X756920Y539140D02*
X768604D01*
X397256Y544220D02*
X406400D01*
X387096Y534060D02*
X397256Y544220D01*
X378260Y534060D02*
X387096D01*
X338836Y543560D02*
X353260D01*
X333756Y548640D02*
X338836Y543560D01*
X319380Y548640D02*
X333756D01*
X319380Y526948D02*
Y548640D01*
Y526948D02*
X331470Y514858D01*
Y493360D02*
Y514858D01*
X803910Y695300D02*
X815540D01*
X798830Y700380D02*
X803910Y695300D01*
X787400Y700380D02*
X798830D01*
X420070Y817220D02*
X436880D01*
X417830Y814980D02*
X420070Y817220D01*
X401320Y814980D02*
X417830D01*
X737570Y409300D02*
X756920D01*
X735330Y407060D02*
X737570Y409300D01*
X716280Y407060D02*
X735330D01*
X422610D02*
X436880D01*
X415290Y414380D02*
X422610Y407060D01*
X401320Y414380D02*
X415290D01*
X598678Y531000D02*
X611238Y543560D01*
X574560Y531000D02*
X598678D01*
X614680Y713892D02*
X615340Y713232D01*
X345440Y671220D02*
X358800Y657860D01*
X414020D01*
X482600Y726440D01*
Y817880D01*
X813562Y766318D02*
X826770Y753110D01*
Y692150D02*
Y753110D01*
X721360Y807060D02*
X749600D01*
X768660Y788000D01*
X826770D01*
Y778510D02*
Y788000D01*
Y778510D02*
X853440Y751840D01*
X508000Y817880D02*
X520700Y830580D01*
X861060D01*
X869950Y821690D01*
Y576580D02*
Y821690D01*
X851510Y558140D02*
X869950Y576580D01*
X848360Y558140D02*
X851510D01*
X331470Y782920D02*
X369570D01*
D23*
X344170Y479820D02*
Y493360D01*
X356870Y479820D02*
Y493360D01*
X369570Y479820D02*
Y493360D01*
X375110D01*
X344170D02*
Y506900D01*
X356870Y493360D02*
Y506900D01*
X369570Y493360D02*
Y506900D01*
X378260Y546020D02*
Y553060D01*
X370970D02*
X378260D01*
X385550D01*
X378260D02*
Y560100D01*
X574560Y508000D02*
X587850D01*
X574560Y499960D02*
Y508000D01*
X561270D02*
X574560D01*
Y516040D01*
X325930Y730920D02*
X331470D01*
Y717380D02*
Y730920D01*
X373580Y669260D02*
Y676300D01*
X366290D02*
X373580D01*
X380870D01*
X373580D02*
Y683340D01*
X344170Y717380D02*
Y730920D01*
X356870Y717380D02*
Y730920D01*
X331470D02*
Y744460D01*
X344170Y730920D02*
Y744460D01*
X356870Y730920D02*
Y744460D01*
X624960Y411480D02*
X635000D01*
X645040D01*
X635000Y401440D02*
Y411480D01*
X593700Y431920D02*
Y441960D01*
X602740D01*
X593700D02*
Y452000D01*
X654660Y482720D02*
Y492760D01*
Y502800D01*
Y492760D02*
X663700D01*
X654660Y533520D02*
Y543560D01*
X663700D01*
X654660D02*
Y553600D01*
X801370Y484900D02*
Y498440D01*
Y511980D01*
X814070Y484900D02*
Y498440D01*
Y511980D01*
X826770Y484900D02*
Y498440D01*
Y511980D01*
Y498440D02*
X832310D01*
X815140Y551100D02*
Y558140D01*
X807850D02*
X815140D01*
X822430D01*
X815140D02*
Y565180D01*
X635120Y736600D02*
X645160D01*
X646940Y690880D02*
X655980D01*
Y700920D01*
X645160Y726560D02*
Y736600D01*
X655200D01*
X645160D02*
Y746640D01*
X635120Y762000D02*
X645160D01*
Y772040D01*
Y751960D02*
Y762000D01*
X655200D01*
X645160Y777360D02*
Y787400D01*
X635120D02*
X645160D01*
Y797440D01*
Y787400D02*
X655200D01*
X635120Y812800D02*
X645160D01*
Y822840D01*
Y802760D02*
Y812800D01*
X655200D01*
X788670Y722460D02*
Y736000D01*
X801370Y722460D02*
Y736000D01*
X808250Y676300D02*
X815540D01*
Y669260D02*
Y676300D01*
X822830D01*
X815540D02*
Y683340D01*
X788670Y754888D02*
X797560D01*
X801370Y736000D02*
Y749540D01*
X814070Y722460D02*
Y736000D01*
Y749540D01*
D24*
X439420Y751840D02*
D03*
X716280D02*
D03*
Y474980D02*
D03*
X439420D02*
D03*
D25*
X306070Y810260D02*
D03*
X849630D02*
D03*
Y416560D02*
D03*
X306070D02*
D03*
D26*
X635000Y411480D02*
D03*
X482600Y817880D02*
D03*
D27*
X609600Y411480D02*
D03*
X299720Y462280D02*
D03*
X645160Y812800D02*
D03*
Y787400D02*
D03*
Y762000D02*
D03*
X614680Y812800D02*
D03*
Y787400D02*
D03*
Y762000D02*
D03*
X858520Y462280D02*
D03*
X558800Y817880D02*
D03*
X533400D02*
D03*
X508000D02*
D03*
X299720Y751840D02*
D03*
X853440D02*
D03*
X675640Y762000D02*
D03*
Y787400D02*
D03*
Y812800D02*
D03*
D28*
X299720Y487680D02*
D03*
X645160Y736600D02*
D03*
X614680D02*
D03*
X858520Y487680D02*
D03*
X299720Y726440D02*
D03*
X853440D02*
D03*
X675640Y736600D02*
D03*
D29*
X788670Y754888D02*
D03*
M02*
