M48
;Layer_Color=9474304
;FILE_FORMAT=4:4
METRIC,LZ
;TYPE=PLATED
T1F00S00C0.7112
T2F00S00C0.9000
T3F00S00C2.8000
T4F00S00C3.0000
%
T01
X0078867Y00754888
T02
X0085852Y0046228
Y0048768
X0085344Y0072644
Y0075184
X0067564Y00762
Y007366
X0064516
Y00762
Y007874
X0061468
Y00762
Y007366
X0067564Y007874
X00635Y0041148
X006096
X0029972Y0046228
Y0048768
Y0072644
Y0075184
X004826Y0081788
X00508
X005334
X005588
X0061468Y008128
X0064516
X0067564
T03
X0043942Y0047498
Y0075184
X0071628
Y0047498
T04
X0084963Y0041656
X0030607
Y0081026
X0084963
M30
