%FSLAX44Y44*%
%MOMM*%
G71*
G01*
G75*
%ADD10C,0.2032*%
%ADD11R,1.3000X1.5000*%
%ADD12C,0.6350*%
%ADD13C,0.7620*%
%ADD14C,1.5000*%
%ADD15R,1.5000X1.5000*%
%ADD16C,5.0000*%
%ADD17R,1.5000X1.5000*%
%ADD18C,1.5000*%
%ADD19C,1.1000*%
D10*
X1620367Y882324D02*
X1618662Y882376D01*
X1640566Y856567D02*
X1640710Y859155D01*
X1640566Y861740D01*
X1640138Y864293D01*
X1639430Y866783D01*
X1638450Y869179D01*
X1637212Y871452D01*
X1635729Y873575D01*
X1634021Y875520D01*
X1632109Y877264D01*
X1630015Y878786D01*
X1627765Y880068D01*
X1625388Y881092D01*
X1622912Y881847D01*
X1620367Y882324D01*
X1623438Y859155D02*
X1622799Y861871D01*
X1621017Y864017D01*
X1618464Y865144D01*
X1623387Y858367D02*
X1623438Y859155D01*
X1623387Y858367D02*
X1623334Y856662D01*
X1561211Y847090D02*
X1560852Y849818D01*
X1559799Y852361D01*
X1558124Y854544D01*
X1561211Y847090D02*
X1560851Y849823D01*
X1559794Y852369D01*
X1558113Y854555D01*
X1494819Y847998D02*
X1497264Y847036D01*
X1499870Y846709D01*
X1494819Y847998D02*
X1497264Y847036D01*
X1499870Y846709D01*
X1490950Y851262D02*
X1488506Y852224D01*
X1485900Y852551D01*
X1490950Y851262D02*
X1488506Y852224D01*
X1485900Y852551D01*
X1613516Y807720D02*
X1613413Y810300D01*
X1613105Y812864D01*
X1612593Y815395D01*
X1611881Y817877D01*
X1610973Y820295D01*
X1609876Y822632D01*
X1608596Y824875D01*
X1607141Y827008D01*
X1605521Y829019D01*
X1603745Y830894D01*
X1601826Y832621D01*
X1599775Y834190D01*
X1597605Y835591D01*
X1595331Y836814D01*
X1592967Y837852D01*
X1590527Y838698D01*
X1588028Y839347D01*
X1585484Y839794D01*
X1582914Y840038D01*
X1580332Y840076D01*
X1577755Y839907D01*
X1575200Y839534D01*
X1572683Y838959D01*
X1570219Y838184D01*
X1567825Y837216D01*
X1565516Y836060D01*
X1563307Y834723D01*
X1561211Y833215D01*
X1539240Y798449D02*
X1541968Y798808D01*
X1544510Y799861D01*
X1546694Y801536D01*
X1539240Y798449D02*
X1541973Y798810D01*
X1544519Y799866D01*
X1546705Y801547D01*
X1537596Y834390D02*
X1537399Y836799D01*
X1536815Y839145D01*
X1535858Y841365D01*
X1534554Y843400D01*
X1532938Y845198D01*
X1531051Y846709D01*
X1530457Y821690D02*
X1532502Y823187D01*
X1534263Y825010D01*
X1535689Y827105D01*
X1536738Y829413D01*
X1537380Y831865D01*
X1537596Y834390D01*
X1514409Y846709D02*
X1512247Y844931D01*
Y823849D02*
X1515003Y821690D01*
X1533213Y819531D02*
X1530457Y821690D01*
X1501521Y816610D02*
X1501187Y819242D01*
X1500207Y821707D01*
X1498642Y823849D01*
X1501521Y816610D02*
X1501187Y819242D01*
X1500207Y821707D01*
X1498642Y823849D01*
X1515003Y821690D02*
X1513025Y820251D01*
X1511310Y818508D01*
X1509904Y816507D01*
X1508845Y814302D01*
X1508162Y811954D01*
X1507874Y809525D01*
X1507987Y807082D01*
X1508499Y804691D01*
X1509397Y802415D01*
X1510655Y800318D01*
X1512240Y798456D01*
X1480439Y792480D02*
X1480800Y789747D01*
X1481856Y787201D01*
X1483537Y785015D01*
X1480439Y792480D02*
X1480798Y789752D01*
X1481851Y787209D01*
X1483526Y785026D01*
X1216417Y852551D02*
X1215632Y853059D01*
X1202448D02*
X1201663Y852551D01*
X1123393D02*
X1122358Y853059D01*
X1110302D02*
X1107935Y851739D01*
X1105847Y850011D01*
Y828929D02*
X1107969Y827178D01*
X1110376Y825848D01*
X1112988Y824985D01*
X1115713Y824617D01*
X1118460Y824757D01*
X1101413Y850011D02*
X1099325Y851739D01*
X1096958Y853059D01*
X1084902D02*
X1082918Y851992D01*
X1081118Y850638D01*
X1079543Y849027D01*
X1078230Y847197D01*
X1076917Y849027D01*
X1075342Y850638D01*
X1073542Y851992D01*
X1071558Y853059D01*
X1076706Y829667D02*
X1078230Y831743D01*
X1079665Y829770D01*
X1081402Y828059D01*
X1083396Y826654D01*
X1085593Y825595D01*
X1087934Y824909D01*
X1090355Y824615D01*
X1092792Y824721D01*
X1095179Y825224D01*
X1097451Y826111D01*
X1099548Y827357D01*
X1101413Y828929D01*
X1078396Y820420D02*
X1078204Y822632D01*
X1077635Y824778D01*
X1076706Y826794D01*
X1221906Y812800D02*
X1221652Y815346D01*
X1220898Y817791D01*
X1219676Y820039D01*
X1200119Y803529D02*
X1202082Y801978D01*
X1204308Y800836D01*
X1206712Y800146D01*
X1209205Y799935D01*
X1211692Y800210D01*
X1214078Y800961D01*
X1216273Y802160D01*
X1218196Y803761D01*
X1219772Y805704D01*
X1220942Y807915D01*
X1221663Y810310D01*
X1221906Y812800D01*
X1108876Y792314D02*
X1107201Y790130D01*
X1106148Y787588D01*
X1105789Y784860D01*
X1108887Y792325D02*
X1107206Y790139D01*
X1106150Y787593D01*
X1105789Y784860D01*
X1078214Y818261D02*
X1078396Y820420D01*
X1077126Y791210D02*
X1076753Y794284D01*
X1075658Y797179D01*
X1057886Y780034D02*
X1060110Y779032D01*
X1062484Y778467D01*
X1064921Y778361D01*
X1067335Y778717D01*
X1069638Y779522D01*
X1071748Y780748D01*
X1073589Y782349D01*
X1075094Y784270D01*
X1076209Y786440D01*
X1076895Y788781D01*
X1077126Y791210D01*
X1059502Y853059D02*
X1057518Y851992D01*
X1055718Y850638D01*
X1054143Y849027D01*
X1052830Y847197D01*
X1051517Y849027D01*
X1049942Y850638D01*
X1048142Y851992D01*
X1046158Y853059D01*
X1052830Y831743D02*
X1054354Y829667D01*
X1034102Y853059D02*
X1032118Y851992D01*
X1030318Y850638D01*
X1028743Y849027D01*
X1027430Y847197D01*
X1026117Y849027D01*
X1024542Y850638D01*
X1022742Y851992D01*
X1020758Y853059D01*
X1008702D02*
X1006718Y851992D01*
X1004918Y850638D01*
X1003343Y849027D01*
X1002030Y847197D01*
Y831743D02*
X1002919Y830442D01*
X1054354Y826794D02*
X1053199Y824091D01*
X1052687Y821196D01*
X1052846Y818261D01*
X1027430Y831743D02*
X1028927Y829698D01*
X1030750Y827937D01*
X1032846Y826511D01*
X1035153Y825462D01*
X1037605Y824820D01*
X1040130Y824604D01*
X1042655Y824820D01*
X1045107Y825462D01*
X1047414Y826511D01*
X1049510Y827937D01*
X1051333Y829698D01*
X1052830Y831743D01*
X1026287Y830120D02*
X1027430Y831743D01*
X1002919Y828040D02*
X1003279Y825307D01*
X1004336Y822761D01*
X1006017Y820575D01*
X1002919Y828040D02*
X1003278Y825312D01*
X1004331Y822769D01*
X1006006Y820586D01*
X1011907Y783307D02*
X1014222Y781531D01*
X1016917Y780415D01*
X1019810Y780034D01*
X1011907Y783307D02*
X1014222Y781531D01*
X1016917Y780415D01*
X1019810Y780034D01*
X1013546Y813047D02*
X1011556Y814164D01*
X1009380Y814853D01*
X1007110Y815086D01*
X1013546Y813047D02*
X1011556Y814164D01*
X1009380Y814853D01*
X1007110Y815086D01*
X1549015Y803858D02*
X1549411Y801382D01*
X1549996Y798944D01*
X1550769Y796559D01*
X1551724Y794241D01*
X1552856Y792003D01*
X1554158Y789860D01*
X1555621Y787824D01*
X1557238Y785908D01*
X1558998Y784122D01*
X1560891Y782478D01*
X1562906Y780986D01*
X1565030Y779654D01*
X1567251Y778490D01*
X1569555Y777502D01*
X1571929Y776695D01*
X1574359Y776075D01*
X1576829Y775644D01*
X1579325Y775406D01*
X1581832Y775361D01*
X1584334Y775511D01*
X1586818Y775854D01*
X1589268Y776389D01*
X1591669Y777111D01*
X1594007Y778017D01*
X1596267Y779101D01*
X1598437Y780358D01*
X1600504Y781778D01*
X1602454Y783354D01*
X1604276Y785076D01*
X1605959Y786934D01*
X1607494Y788917D01*
X1608870Y791013D01*
X1610081Y793209D01*
X1611117Y795492D01*
X1611974Y797848D01*
X1612645Y800264D01*
X1613128Y802724D01*
X1613419Y805214D01*
X1613516Y807720D01*
X1492416Y776136D02*
X1494599Y774461D01*
X1497142Y773408D01*
X1499870Y773049D01*
X1492406Y776147D02*
X1494591Y774466D01*
X1497137Y773410D01*
X1499870Y773049D01*
X1640513Y741833D02*
X1640586Y742950D01*
X1614757Y721634D02*
X1617342Y721490D01*
X1619927Y721633D01*
X1622480Y722062D01*
X1624971Y722770D01*
X1627367Y723749D01*
X1629641Y724987D01*
X1631763Y726470D01*
X1633709Y728178D01*
X1635454Y730091D01*
X1636976Y732185D01*
X1638257Y734434D01*
X1639282Y736812D01*
X1640037Y739288D01*
X1640513Y741833D01*
X1618406Y738855D02*
X1620677Y739754D01*
X1622413Y741473D01*
X1623334Y743736D01*
X1616028Y738866D02*
X1614852D01*
X1101413Y773811D02*
X1099430Y775466D01*
X1097192Y776753D01*
X1094764Y777633D01*
X1092221Y778080D01*
X1089639D01*
X1087096Y777633D01*
X1084668Y776753D01*
X1082430Y775466D01*
X1080447Y773811D01*
X1131196Y763270D02*
X1131014Y765587D01*
X1130473Y767848D01*
X1129587Y769997D01*
X1128376Y771981D01*
X1126871Y773753D01*
X1105847Y752729D02*
X1107759Y751124D01*
X1109912Y749861D01*
X1112246Y748976D01*
X1114695Y748494D01*
X1117190Y748429D01*
X1119661Y748782D01*
X1122038Y749544D01*
X1124254Y750692D01*
X1126247Y752195D01*
X1127960Y754010D01*
X1129345Y756087D01*
X1130364Y758366D01*
X1130986Y760783D01*
X1131196Y763270D01*
X1080447Y752729D02*
X1082430Y751074D01*
X1084668Y749787D01*
X1087096Y748907D01*
X1089639Y748460D01*
X1092221D01*
X1094764Y748907D01*
X1097192Y749787D01*
X1099430Y751074D01*
X1101413Y752729D01*
X1076013Y773811D02*
X1074148Y775383D01*
X1072051Y776629D01*
X1069779Y777516D01*
X1067392Y778019D01*
X1064955Y778125D01*
X1062534Y777831D01*
X1060193Y777145D01*
X1057996Y776086D01*
X1056002Y774681D01*
X1054265Y772970D01*
X1052830Y770997D01*
X1051333Y773042D01*
X1049510Y774803D01*
X1047414Y776229D01*
X1045107Y777278D01*
X1042655Y777920D01*
X1040130Y778136D01*
X1037605Y777920D01*
X1035153Y777278D01*
X1032846Y776229D01*
X1030750Y774803D01*
X1028927Y773042D01*
X1027430Y770997D01*
X1025933Y773042D01*
X1024110Y774803D01*
X1022014Y776229D01*
X1019707Y777278D01*
X1017255Y777920D01*
X1014730Y778136D01*
X1012205Y777920D01*
X1009753Y777278D01*
X1007446Y776229D01*
X1005350Y774803D01*
X1003527Y773042D01*
X1002030Y770997D01*
X1073433Y745207D02*
X1075145Y747412D01*
X1076257Y749973D01*
X1076700Y752729D01*
X1073433Y745207D02*
X1075145Y747412D01*
X1076257Y749973D01*
X1076700Y752729D01*
X1027430Y755543D02*
X1028409Y754126D01*
X1026451D02*
X1027430Y755543D01*
X1002030D02*
X1003009Y754126D01*
X686461Y856254D02*
X685537Y853923D01*
X685018Y851471D01*
X684919Y848966D01*
X685242Y846480D01*
X685977Y844083D01*
X687106Y841844D01*
X688594Y839827D01*
X932502Y853059D02*
X930415Y851925D01*
X928534Y850474D01*
X926909Y848741D01*
X1002030Y847197D02*
X1000717Y849027D01*
X999142Y850638D01*
X997342Y851992D01*
X995358Y853059D01*
X983302D02*
X981318Y851992D01*
X979518Y850638D01*
X977943Y849027D01*
X976630Y847197D01*
X1000506Y829667D02*
X1002030Y831743D01*
X976630Y847197D02*
X975317Y849027D01*
X973742Y850638D01*
X971942Y851992D01*
X969958Y853059D01*
X957902D02*
X955918Y851992D01*
X954118Y850638D01*
X952543Y849027D01*
X951230Y847197D01*
X949917Y849027D01*
X948342Y850638D01*
X946542Y851992D01*
X944558Y853059D01*
X892810Y848741D02*
X890077Y848381D01*
X887531Y847324D01*
X885346Y845643D01*
X892810Y848741D02*
X890082Y848382D01*
X887540Y847329D01*
X885356Y845654D01*
X997233Y816327D02*
X999009Y818642D01*
X1000125Y821337D01*
X1000506Y824230D01*
X997233Y816327D02*
X999009Y818642D01*
X1000125Y821337D01*
X1000506Y824230D01*
X736346Y839827D02*
X737870Y841903D01*
X712470D02*
X713994Y839827D01*
X710946D02*
X712470Y841903D01*
X737870D02*
X739309Y839925D01*
X741052Y838210D01*
X743054Y836804D01*
X745258Y835745D01*
X747606Y835062D01*
X750035Y834774D01*
X752478Y834887D01*
X754869Y835399D01*
X757144Y836297D01*
X759242Y837555D01*
X761104Y839140D01*
X738036Y831850D02*
X737844Y834062D01*
X737275Y836208D01*
X736346Y838224D01*
X713994D02*
X713039Y836135D01*
X712470Y833910D01*
X711901Y836135D01*
X710946Y838224D01*
X688594D02*
X687567Y835928D01*
X687007Y833475D01*
X686935Y830961D01*
X738005D02*
X738036Y831850D01*
X515040Y865144D02*
X513762Y863133D01*
X512968Y860887D01*
X512699Y858520D01*
X515040Y865144D02*
X513762Y863133D01*
X512968Y860887D01*
X512699Y858520D01*
X462963Y882376D02*
X460378Y882520D01*
X457793Y882377D01*
X455239Y881948D01*
X452749Y881240D01*
X450353Y880261D01*
X448079Y879023D01*
X445957Y877540D01*
X444011Y875832D01*
X442266Y873919D01*
X440744Y871825D01*
X439463Y869576D01*
X438438Y867198D01*
X437683Y864722D01*
X437207Y862177D01*
X461163Y865197D02*
X462868Y865144D01*
X461163Y865197D02*
X458872Y865060D01*
X456795Y864085D01*
X455225Y862410D01*
X454386Y860274D01*
X437207Y862177D02*
X437154Y860473D01*
X586906Y829310D02*
X586675Y831739D01*
X585989Y834080D01*
X584874Y836250D01*
X583369Y838171D01*
X581528Y839772D01*
X579418Y840998D01*
X577115Y841803D01*
X574701Y842159D01*
X572264Y842053D01*
X569890Y841488D01*
X567666Y840486D01*
Y818134D02*
X569890Y817132D01*
X572264Y816567D01*
X574701Y816461D01*
X577115Y816817D01*
X579418Y817622D01*
X581528Y818848D01*
X583369Y820449D01*
X584874Y822370D01*
X585989Y824540D01*
X586675Y826881D01*
X586906Y829310D01*
X512699Y820882D02*
X511286Y822988D01*
X509712Y824976D01*
X507987Y826835D01*
X506122Y828553D01*
X504129Y830120D01*
X502019Y831527D01*
X499805Y832763D01*
X497501Y833823D01*
X495121Y834699D01*
X492680Y835386D01*
X490193Y835879D01*
X487675Y836177D01*
X485141Y836276D01*
X482607Y836177D01*
X480089Y835879D01*
X477601Y835386D01*
X475160Y834699D01*
X472780Y833823D01*
X470477Y832764D01*
X468263Y831527D01*
X466152Y830121D01*
X464159Y828554D01*
X462294Y826836D01*
X460569Y824977D01*
X458995Y822989D01*
X457582Y820883D01*
X456338Y818674D01*
X455270Y816374D01*
X454386Y813997D01*
X1000506Y783590D02*
X1000125Y786483D01*
X999009Y789178D01*
X997233Y791493D01*
X1000506Y783590D02*
X1000125Y786483D01*
X999009Y789178D01*
X997233Y791493D01*
X1002030Y770997D02*
X1000506Y773073D01*
X978154D02*
X976630Y770997D01*
X975135Y773040D01*
X973315Y774799D01*
X971223Y776224D01*
X956637D02*
X954932Y775103D01*
X953396Y773760D01*
X891540Y760984D02*
X894433Y761365D01*
X897128Y762481D01*
X899443Y764257D01*
X891540Y760984D02*
X894433Y761365D01*
X897128Y762481D01*
X899443Y764257D01*
X713462Y778764D02*
X712621Y776270D01*
X712306Y773656D01*
X712529Y771033D01*
X713282Y768511D01*
X714532Y766194D01*
X716227Y764180D01*
X718297Y762554D01*
X720654Y761383D01*
X723200Y760716D01*
X725829Y760581D01*
X728431Y760984D01*
X686995Y791464D02*
X686947Y788886D01*
X687415Y786351D01*
X688378Y783960D01*
X689799Y781809D01*
X691620Y779984D01*
X693769Y778559D01*
X696159Y777591D01*
X698693Y777119D01*
X701271Y777162D01*
X703788Y777718D01*
X706144Y778764D01*
X1001051Y754126D02*
X1002030Y755543D01*
X976630D02*
X977609Y754126D01*
X975651D02*
X976630Y755543D01*
X562642Y793369D02*
X561692Y791013D01*
X561222Y788515D01*
X561253Y785975D01*
X561783Y783490D01*
X562790Y781157D01*
X564236Y779068D01*
X566065Y777304D01*
X568205Y775933D01*
X570572Y775010D01*
X573075Y774570D01*
X575615Y774631D01*
X578094Y775189D01*
X580414Y776224D01*
X562236Y778510D02*
X562020Y781035D01*
X561378Y783487D01*
X560329Y785795D01*
X558903Y787890D01*
X557142Y789713D01*
X555097Y791210D01*
X635000Y776224D02*
X637893Y776605D01*
X640588Y777721D01*
X642903Y779497D01*
X635000Y776224D02*
X637893Y776605D01*
X640588Y777721D01*
X642903Y779497D01*
X555097Y791210D02*
X557853Y793369D01*
X536880Y814444D02*
X535122Y812335D01*
X533781Y809938D01*
Y797882D02*
X534848Y795898D01*
X536202Y794098D01*
X537813Y792523D01*
X539643Y791210D01*
X536887Y789051D01*
Y767969D02*
X538799Y766364D01*
X540952Y765101D01*
X543286Y764216D01*
X545735Y763734D01*
X548230Y763669D01*
X550701Y764022D01*
X553078Y764783D01*
X555294Y765932D01*
X557287Y767435D01*
X559000Y769250D01*
X560385Y771327D01*
X561404Y773606D01*
X562026Y776023D01*
X562236Y778510D01*
X534293Y789051D02*
X533781Y791114D01*
X454386Y793823D02*
X455289Y791401D01*
X456382Y789060D01*
X457658Y786813D01*
X459110Y784675D01*
X460728Y782659D01*
X462501Y780779D01*
X464419Y779047D01*
X466468Y777473D01*
X468637Y776067D01*
X470911Y774839D01*
X473276Y773797D01*
X475716Y772946D01*
X478217Y772293D01*
X480761Y771842D01*
X483334Y771594D01*
X485918Y771553D01*
X488497Y771719D01*
X491054Y772089D01*
X493574Y772662D01*
X496040Y773435D01*
X498437Y774402D01*
X500749Y775557D01*
X502961Y776892D01*
X505060Y778400D01*
X507032Y780071D01*
X508864Y781893D01*
X510545Y783857D01*
X512064Y785947D01*
X512064Y753110D02*
X512445Y750217D01*
X513561Y747522D01*
X515337Y745207D01*
X512064Y753110D02*
X512445Y750217D01*
X513561Y747522D01*
X515337Y745207D01*
X454333Y745643D02*
X454470Y743352D01*
X455445Y741275D01*
X457119Y739705D01*
X459256Y738866D01*
X454333Y745643D02*
X454406Y746760D01*
X437154Y747443D02*
X437010Y744858D01*
X437153Y742273D01*
X437582Y739719D01*
X438290Y737229D01*
X439269Y734833D01*
X440507Y732559D01*
X441990Y730436D01*
X443698Y728491D01*
X445611Y726746D01*
X447705Y725224D01*
X449954Y723943D01*
X452332Y722918D01*
X454808Y722163D01*
X457353Y721686D01*
X457353D02*
X459058Y721634D01*
X1631696Y877593D02*
Y914400D01*
X1629664Y879008D02*
Y914400D01*
X1627632Y880133D02*
Y914400D01*
X1637792Y870461D02*
Y914400D01*
X1635760Y873536D02*
Y914400D01*
X1633728Y875814D02*
Y914400D01*
X1619504Y882392D02*
Y914400D01*
X1617472Y882376D02*
Y914400D01*
X1615440Y882376D02*
Y914400D01*
X1625600Y881013D02*
Y914400D01*
X1623568Y881676D02*
Y914400D01*
X1621536Y882141D02*
Y914400D01*
X1631394Y877824D02*
X1677670D01*
X1633750Y875792D02*
X1677670D01*
X1635582Y873760D02*
X1677670D01*
X1637038Y871728D02*
X1677670D01*
X1638197Y869696D02*
X1677670D01*
X1639105Y867664D02*
X1677670D01*
X1613408Y882376D02*
Y914400D01*
X1611376Y882376D02*
Y914400D01*
X1609344Y882376D02*
Y914400D01*
X1622741Y881888D02*
X1677670D01*
X1628179Y879856D02*
X1677670D01*
X1607312Y882376D02*
Y914400D01*
X1605280Y882376D02*
Y914400D01*
X1603248Y882376D02*
Y914400D01*
X1601216Y882376D02*
Y914400D01*
X1599184Y882376D02*
Y914400D01*
X1597152Y882376D02*
Y914400D01*
X1595120Y882376D02*
Y914400D01*
X1593088Y882376D02*
Y914400D01*
X1591056Y882376D02*
Y914400D01*
X1589024Y882376D02*
Y914400D01*
X1586992Y882376D02*
Y914400D01*
X1584960Y882376D02*
Y914400D01*
X1582928Y882376D02*
Y914400D01*
X1580896Y882376D02*
Y914400D01*
X1578864Y882376D02*
Y914400D01*
X1576832Y882376D02*
Y914400D01*
X1574800Y882376D02*
Y914400D01*
X1572768Y882376D02*
Y914400D01*
X1570736Y882376D02*
Y914400D01*
X1568704Y882376D02*
Y914400D01*
X1566672Y882376D02*
Y914400D01*
X1564640Y882376D02*
Y914400D01*
X1562608Y882376D02*
Y914400D01*
X1560576Y882376D02*
Y914400D01*
X1639794Y865632D02*
X1677670D01*
X1640283Y863600D02*
X1677670D01*
X1639824Y865527D02*
Y914400D01*
X1640585Y861568D02*
X1677670D01*
X1640707Y859536D02*
X1677670D01*
X1607312Y826775D02*
Y865144D01*
X1613408Y810362D02*
Y865144D01*
X1611376Y819294D02*
Y865144D01*
X1609344Y823615D02*
Y865144D01*
X1640651Y857504D02*
X1677670D01*
X1640566Y855472D02*
X1677670D01*
X1640566Y853440D02*
X1677670D01*
X1640566Y851408D02*
X1677670D01*
X1640566Y849376D02*
X1677670D01*
X1640566Y852170D02*
Y856567D01*
X1623334Y852170D02*
Y856662D01*
X1560960Y849376D02*
X1623334D01*
X1640566Y847344D02*
X1677670D01*
X1561208D02*
X1623334D01*
X1599184Y834596D02*
Y865144D01*
X1597152Y835854D02*
Y865144D01*
X1595120Y836916D02*
Y865144D01*
X1605280Y829291D02*
Y865144D01*
X1603248Y831368D02*
Y865144D01*
X1601216Y833115D02*
Y865144D01*
X1589024Y839114D02*
Y865144D01*
X1584960Y839861D02*
Y865144D01*
X1582928Y840037D02*
Y865144D01*
X1593088Y837804D02*
Y865144D01*
X1591056Y838533D02*
Y865144D01*
X1586992Y839554D02*
Y865144D01*
X1580896Y840085D02*
Y865144D01*
X1578864Y840005D02*
Y865144D01*
X1576832Y839797D02*
Y865144D01*
X1574800Y839457D02*
Y865144D01*
X1572768Y838982D02*
Y865144D01*
X1570736Y838365D02*
Y865144D01*
X1568704Y837597D02*
Y865144D01*
X1566672Y836667D02*
Y865144D01*
X1564640Y835558D02*
Y865144D01*
X1562608Y834248D02*
Y865144D01*
X1561211Y833215D02*
Y847090D01*
X1558544Y882376D02*
Y914400D01*
X1556512Y882376D02*
Y914400D01*
X1554480Y882376D02*
Y914400D01*
X1552448Y882376D02*
Y914400D01*
X1550416Y882376D02*
Y914400D01*
X1548384Y882376D02*
Y914400D01*
X1546352Y882376D02*
Y914400D01*
X1544320Y882376D02*
Y914400D01*
X1542288Y882376D02*
Y914400D01*
X1540256Y882376D02*
Y914400D01*
X1538224Y882376D02*
Y914400D01*
X1536192Y882376D02*
Y914400D01*
X1534160Y882376D02*
Y914400D01*
X1532128Y882376D02*
Y914400D01*
X1530096Y882376D02*
Y914400D01*
X1528064Y882376D02*
Y914400D01*
X1526032Y882376D02*
Y914400D01*
X1524000Y882376D02*
Y914400D01*
X1521968Y882376D02*
Y914400D01*
X1519936Y882376D02*
Y914400D01*
X1517904Y882376D02*
Y914400D01*
X1515872Y882376D02*
Y914400D01*
X1513840Y882376D02*
Y914400D01*
X1511808Y882376D02*
Y914400D01*
X1509776Y882376D02*
Y914400D01*
X1507744Y882376D02*
Y914400D01*
X1505712Y882376D02*
Y914400D01*
X1503680Y882376D02*
Y914400D01*
X1501648Y882376D02*
Y914400D01*
X1499616Y882376D02*
Y914400D01*
X1497584Y882376D02*
Y914400D01*
X1495552Y882376D02*
Y914400D01*
X1493520Y882376D02*
Y914400D01*
X1491488Y882376D02*
Y914400D01*
X1489456Y882376D02*
Y914400D01*
X1487424Y882376D02*
Y914400D01*
X1485392Y882376D02*
Y914400D01*
X1483360Y882376D02*
Y914400D01*
X1481328Y882376D02*
Y914400D01*
X1479296Y882376D02*
Y914400D01*
X1477264Y882376D02*
Y914400D01*
X1475232Y882376D02*
Y914400D01*
X1473200Y882376D02*
Y914400D01*
X1471168Y882376D02*
Y914400D01*
X1469136Y882376D02*
Y914400D01*
X1467104Y882376D02*
Y914400D01*
X1465072Y882376D02*
Y914400D01*
X1554480Y858187D02*
Y865144D01*
X1553131Y859536D02*
X1623426D01*
X1552448Y860219D02*
Y865144D01*
X1560576Y850693D02*
Y865144D01*
X1558544Y854098D02*
Y865144D01*
X1556512Y856155D02*
Y865144D01*
X1547496D02*
X1618464D01*
X1549067Y863600D02*
X1621512D01*
X1548384Y864283D02*
Y865144D01*
X1547975Y864693D02*
X1558113Y854555D01*
X1551099Y861568D02*
X1622939D01*
X1550416Y862251D02*
Y865144D01*
X1555163Y857504D02*
X1623318D01*
X1557195Y855472D02*
X1623334D01*
X1559084Y853440D02*
X1623334D01*
X1560286Y851408D02*
X1623334D01*
X1495473Y847344D02*
X1496267D01*
X1489154Y853059D02*
X1490950Y851262D01*
X1536144Y846709D02*
X1540129Y842724D01*
X1494819Y847998D02*
X1497886Y844931D01*
X1463040Y882376D02*
Y914400D01*
X1461008Y882376D02*
Y914400D01*
X1458976Y882376D02*
Y914400D01*
X1456944Y882376D02*
Y914400D01*
X1454912Y882376D02*
Y914400D01*
X1452880Y882376D02*
Y914400D01*
X1450848Y882376D02*
Y914400D01*
X1448816Y882376D02*
Y914400D01*
X1446784Y882376D02*
Y914400D01*
X1444752Y882376D02*
Y914400D01*
X1442720Y882376D02*
Y914400D01*
X1440688Y882376D02*
Y914400D01*
X1438656Y882376D02*
Y914400D01*
X1436624Y882376D02*
Y914400D01*
X1434592Y882376D02*
Y914400D01*
X1489456Y851933D02*
Y852757D01*
X1432560Y882376D02*
Y914400D01*
X1430528Y882376D02*
Y914400D01*
X1428496Y882376D02*
Y914400D01*
X1215632Y853059D02*
X1489154D01*
X1216417Y852551D02*
X1485900D01*
X1640566Y845312D02*
X1677670D01*
X1640566Y843280D02*
X1677670D01*
X1640566Y841248D02*
X1677670D01*
X1640566Y839216D02*
X1677670D01*
X1640566Y837184D02*
X1677670D01*
X1640566Y835152D02*
X1677670D01*
X1561211Y845312D02*
X1623334D01*
X1561211Y843280D02*
X1623334D01*
X1561211Y841248D02*
X1623334D01*
X1588604Y839216D02*
X1623334D01*
X1640566Y833120D02*
X1677670D01*
X1594545Y837184D02*
X1623334D01*
X1640566Y831088D02*
X1677670D01*
X1640566Y829056D02*
X1677670D01*
X1640566Y827024D02*
X1677670D01*
X1640566Y824992D02*
X1677670D01*
X1640566Y822960D02*
X1677670D01*
X1640566Y820928D02*
X1677670D01*
X1640566Y818896D02*
X1677670D01*
X1640566Y816864D02*
X1677670D01*
X1640566Y814832D02*
X1677670D01*
X1640566Y812800D02*
X1677670D01*
X1640566Y810768D02*
X1677670D01*
X1640566Y808736D02*
X1677670D01*
X1561211Y839216D02*
X1573696D01*
X1598327Y835152D02*
X1623334D01*
X1561211Y837184D02*
X1567755D01*
X1601210Y833120D02*
X1623334D01*
X1561211Y835152D02*
X1563973D01*
X1536791Y839216D02*
X1540129D01*
X1537331Y837184D02*
X1540129D01*
X1537576Y835152D02*
X1540129D01*
Y824786D02*
Y842724D01*
X1537542Y833120D02*
X1540129D01*
X1538224Y822881D02*
Y844629D01*
X1611525Y818896D02*
X1623334D01*
X1612198Y816864D02*
X1623334D01*
X1612725Y814832D02*
X1623334D01*
X1613115Y812800D02*
X1623334D01*
X1613372Y810768D02*
X1623334D01*
X1613500Y808736D02*
X1623334D01*
X1603544Y831088D02*
X1623334D01*
X1605488Y829056D02*
X1623334D01*
X1607129Y827024D02*
X1623334D01*
X1608522Y824992D02*
X1623334D01*
X1609704Y822960D02*
X1623334D01*
X1610698Y820928D02*
X1623334D01*
X1640566Y806704D02*
X1677670D01*
X1640566Y804672D02*
X1677670D01*
X1640566Y802640D02*
X1677670D01*
X1640566Y800608D02*
X1677670D01*
X1640566Y798576D02*
X1677670D01*
X1640566Y796544D02*
X1677670D01*
X1613500Y806704D02*
X1623334D01*
X1613372Y804672D02*
X1623334D01*
X1613115Y802640D02*
X1623334D01*
X1612725Y800608D02*
X1623334D01*
X1612198Y798576D02*
X1623334D01*
X1611525Y796544D02*
X1623334D01*
X1640566Y794512D02*
X1677670D01*
X1640566Y792480D02*
X1677670D01*
X1640566Y790448D02*
X1677670D01*
X1640566Y788416D02*
X1677670D01*
X1640566Y786384D02*
X1677670D01*
X1640566Y784352D02*
X1677670D01*
X1610698Y794512D02*
X1623334D01*
X1609704Y792480D02*
X1623334D01*
X1608522Y790448D02*
X1623334D01*
X1640566Y782320D02*
X1677670D01*
X1640566Y780288D02*
X1677670D01*
X1640566Y778256D02*
X1677670D01*
X1547797Y802640D02*
X1549185D01*
X1545632Y800608D02*
X1549575D01*
X1546705Y801547D02*
X1549015Y803858D01*
X1540871Y798576D02*
X1550103D01*
X1607129Y788416D02*
X1623334D01*
X1537596Y796544D02*
X1550775D01*
X1537596Y798449D02*
X1539240D01*
X1537596Y792480D02*
X1552596D01*
X1537596Y790448D02*
X1553778D01*
X1537596Y794512D02*
X1551602D01*
X1605488Y786384D02*
X1623334D01*
X1603544Y784352D02*
X1623334D01*
X1537596Y788416D02*
X1555171D01*
X1601210Y782320D02*
X1623334D01*
X1598327Y780288D02*
X1623334D01*
X1594545Y778256D02*
X1623334D01*
X1537596Y784352D02*
X1558756D01*
X1537596Y782320D02*
X1561090D01*
X1537596Y786384D02*
X1556812D01*
X1537596Y778256D02*
X1567755D01*
X1537596Y780288D02*
X1563973D01*
X1532815Y845312D02*
X1537541D01*
X1534645Y843280D02*
X1539573D01*
X1534160Y843895D02*
Y846709D01*
X1535920Y841248D02*
X1540129D01*
X1537225Y831088D02*
X1540129D01*
X1536192Y840697D02*
Y846661D01*
X1531051Y846709D02*
X1536144D01*
X1532128Y845909D02*
Y846709D01*
X1499870D02*
X1514409D01*
X1536606Y829056D02*
X1540129D01*
X1535643Y827024D02*
X1540129D01*
X1534249Y824992D02*
X1540129D01*
X1536192Y820849D02*
Y828083D01*
X1534874Y819531D02*
X1540129Y824786D01*
X1534160Y819531D02*
Y824885D01*
X1532235Y822960D02*
X1538303D01*
X1532128Y820508D02*
Y822871D01*
X1531589Y820928D02*
X1536271D01*
X1533213Y819531D02*
X1534874D01*
X1511808Y844931D02*
Y846709D01*
X1509776Y844931D02*
Y846709D01*
X1507744Y844931D02*
Y846709D01*
X1505712Y844931D02*
Y846709D01*
X1511808Y819075D02*
Y823849D01*
X1503680Y844931D02*
Y846709D01*
X1501648Y844931D02*
Y846709D01*
X1497505Y845312D02*
X1512645D01*
X1497584Y845233D02*
Y846960D01*
X1497886Y844931D02*
X1512247D01*
X1498642Y823849D02*
X1512247D01*
X1499616Y844931D02*
Y846712D01*
X1513840Y820905D02*
Y822475D01*
X1500596Y820928D02*
X1513871D01*
X1499616Y822654D02*
Y823849D01*
X1501270Y818896D02*
X1511645D01*
X1501518Y816864D02*
X1510121D01*
X1499394Y822960D02*
X1513225D01*
X1220370Y818896D02*
X1473787D01*
X1219676Y820039D02*
X1472644D01*
X1221247Y816864D02*
X1475819D01*
X1509776Y816283D02*
Y823849D01*
X1501648Y796719D02*
Y823849D01*
X1507744Y794131D02*
Y823849D01*
X1505712Y794131D02*
Y823849D01*
X1503680Y794687D02*
Y823849D01*
X1501521Y814832D02*
X1509060D01*
X1501521Y812800D02*
X1508360D01*
X1501521Y810768D02*
X1507971D01*
X1501521Y808736D02*
X1507866D01*
X1501521Y806704D02*
X1508041D01*
X1501521Y796846D02*
Y816610D01*
X1533213Y798449D02*
X1537596D01*
X1507864Y798456D02*
X1512240D01*
X1509776D02*
Y801697D01*
X1507864Y794131D02*
Y798456D01*
X1504236Y794131D02*
X1507864D01*
X1503855Y794512D02*
X1507864D01*
X1501521Y802640D02*
X1509288D01*
X1501521Y800608D02*
X1510452D01*
X1501521Y804672D02*
X1508505D01*
X1501521Y798576D02*
X1512121D01*
X1501823Y796544D02*
X1507864D01*
X1501521Y796846D02*
X1504236Y794131D01*
X1472644Y820039D02*
X1480439Y812244D01*
X1221906Y812800D02*
X1479883D01*
X1221745Y814832D02*
X1477851D01*
X1221745Y810768D02*
X1480439D01*
X1221247Y808736D02*
X1480439D01*
Y792480D02*
Y812244D01*
X1220370Y806704D02*
X1480439D01*
X1219014Y804672D02*
X1480439D01*
X1216934Y802640D02*
X1480439D01*
X1213150Y800608D02*
X1480439D01*
X1144953Y798576D02*
X1480439D01*
X1142921Y796544D02*
X1480439D01*
X1140889Y794512D02*
X1480439D01*
X1138857Y792480D02*
X1480439D01*
X1136825Y790448D02*
X1480637D01*
X1134793Y788416D02*
X1481254D01*
X1130729Y784352D02*
X1484201D01*
X1128697Y782320D02*
X1486233D01*
X1132761Y786384D02*
X1482381D01*
X1126871Y778256D02*
X1490297D01*
X1126871Y780288D02*
X1488265D01*
X1426464Y882376D02*
Y914400D01*
X1424432Y882376D02*
Y914400D01*
X1422400Y882376D02*
Y914400D01*
X1420368Y882376D02*
Y914400D01*
X1418336Y882376D02*
Y914400D01*
X1416304Y882376D02*
Y914400D01*
X1414272Y882376D02*
Y914400D01*
X1412240Y882376D02*
Y914400D01*
X1410208Y882376D02*
Y914400D01*
X1408176Y882376D02*
Y914400D01*
X1406144Y882376D02*
Y914400D01*
X1404112Y882376D02*
Y914400D01*
X1402080Y882376D02*
Y914400D01*
X1400048Y882376D02*
Y914400D01*
X1398016Y882376D02*
Y914400D01*
X1395984Y882376D02*
Y914400D01*
X1393952Y882376D02*
Y914400D01*
X1391920Y882376D02*
Y914400D01*
X1389888Y882376D02*
Y914400D01*
X1387856Y882376D02*
Y914400D01*
X1385824Y882376D02*
Y914400D01*
X1383792Y882376D02*
Y914400D01*
X1381760Y882376D02*
Y914400D01*
X1379728Y882376D02*
Y914400D01*
X1377696Y882376D02*
Y914400D01*
X1375664Y882376D02*
Y914400D01*
X1373632Y882376D02*
Y914400D01*
X1371600Y882376D02*
Y914400D01*
X1369568Y882376D02*
Y914400D01*
X1367536Y882376D02*
Y914400D01*
X1365504Y882376D02*
Y914400D01*
X1363472Y882376D02*
Y914400D01*
X1361440Y882376D02*
Y914400D01*
X1359408Y882376D02*
Y914400D01*
X1357376Y882376D02*
Y914400D01*
X1355344Y882376D02*
Y914400D01*
X1353312Y882376D02*
Y914400D01*
X1351280Y882376D02*
Y914400D01*
X1349248Y882376D02*
Y914400D01*
X1347216Y882376D02*
Y914400D01*
X1345184Y882376D02*
Y914400D01*
X1343152Y882376D02*
Y914400D01*
X1341120Y882376D02*
Y914400D01*
X1339088Y882376D02*
Y914400D01*
X1337056Y882376D02*
Y914400D01*
X1335024Y882376D02*
Y914400D01*
X1332992Y882376D02*
Y914400D01*
X1330960Y882376D02*
Y914400D01*
X1328928Y882376D02*
Y914400D01*
X1326896Y882376D02*
Y914400D01*
X1324864Y882376D02*
Y914400D01*
X1322832Y882376D02*
Y914400D01*
X1320800Y882376D02*
Y914400D01*
X1318768Y882376D02*
Y914400D01*
X1316736Y882376D02*
Y914400D01*
X1314704Y882376D02*
Y914400D01*
X1312672Y882376D02*
Y914400D01*
X1310640Y882376D02*
Y914400D01*
X1308608Y882376D02*
Y914400D01*
X1306576Y882376D02*
Y914400D01*
X1304544Y882376D02*
Y914400D01*
X1302512Y882376D02*
Y914400D01*
X1300480Y882376D02*
Y914400D01*
X1298448Y882376D02*
Y914400D01*
X1296416Y882376D02*
Y914400D01*
X1294384Y882376D02*
Y914400D01*
X1292352Y882376D02*
Y914400D01*
X1290320Y882376D02*
Y914400D01*
X1288288Y882376D02*
Y914400D01*
X1286256Y882376D02*
Y914400D01*
X1284224Y882376D02*
Y914400D01*
X1282192Y882376D02*
Y914400D01*
X1280160Y882376D02*
Y914400D01*
X1278128Y882376D02*
Y914400D01*
X1276096Y882376D02*
Y914400D01*
X1274064Y882376D02*
Y914400D01*
X1272032Y882376D02*
Y914400D01*
X1270000Y882376D02*
Y914400D01*
X1267968Y882376D02*
Y914400D01*
X1265936Y882376D02*
Y914400D01*
X1263904Y882376D02*
Y914400D01*
X1261872Y882376D02*
Y914400D01*
X1259840Y882376D02*
Y914400D01*
X1257808Y882376D02*
Y914400D01*
X1255776Y882376D02*
Y914400D01*
X1253744Y882376D02*
Y914400D01*
X1251712Y882376D02*
Y914400D01*
X1249680Y882376D02*
Y914400D01*
X1247648Y882376D02*
Y914400D01*
X1245616Y882376D02*
Y914400D01*
X1243584Y882376D02*
Y914400D01*
X1241552Y882376D02*
Y914400D01*
X1239520Y882376D02*
Y914400D01*
X1237488Y882376D02*
Y914400D01*
X1235456Y882376D02*
Y914400D01*
X1233424Y882376D02*
Y914400D01*
X1231392Y882376D02*
Y914400D01*
X1229360Y882376D02*
Y914400D01*
X1227328Y882376D02*
Y914400D01*
X1225296Y882376D02*
Y914400D01*
X1223264Y882376D02*
Y914400D01*
X1221232Y882376D02*
Y914400D01*
X1219200Y882376D02*
Y914400D01*
X1217168Y882376D02*
Y914400D01*
X1215136Y882376D02*
Y914400D01*
X1213104Y882376D02*
Y914400D01*
X1211072Y882376D02*
Y914400D01*
X1209040Y882376D02*
Y914400D01*
X1207008Y882376D02*
Y914400D01*
X1204976Y882376D02*
Y914400D01*
X1202944Y882376D02*
Y914400D01*
X1200912Y882376D02*
Y914400D01*
X1198880Y882376D02*
Y914400D01*
X1196848Y882376D02*
Y914400D01*
X1194816Y882376D02*
Y914400D01*
X1192784Y882376D02*
Y914400D01*
X1190752Y882376D02*
Y914400D01*
X1188720Y882376D02*
Y914400D01*
X1186688Y882376D02*
Y914400D01*
X1184656Y882376D02*
Y914400D01*
X1182624Y882376D02*
Y914400D01*
X1180592Y882376D02*
Y914400D01*
X1178560Y882376D02*
Y914400D01*
X1176528Y882376D02*
Y914400D01*
X1174496Y882376D02*
Y914400D01*
X1172464Y882376D02*
Y914400D01*
X1170432Y882376D02*
Y914400D01*
X1168400Y882376D02*
Y914400D01*
X1166368Y882376D02*
Y914400D01*
X1164336Y882376D02*
Y914400D01*
X1162304Y882376D02*
Y914400D01*
X1160272Y882376D02*
Y914400D01*
X1158240Y882376D02*
Y914400D01*
X1156208Y882376D02*
Y914400D01*
X1154176Y882376D02*
Y914400D01*
X1152144Y882376D02*
Y914400D01*
X1150112Y882376D02*
Y914400D01*
X1148080Y882376D02*
Y914400D01*
X1146048Y882376D02*
Y914400D01*
X1144016Y882376D02*
Y914400D01*
X1141984Y882376D02*
Y914400D01*
X1139952Y882376D02*
Y914400D01*
X1137920Y882376D02*
Y914400D01*
X1135888Y882376D02*
Y914400D01*
X1133856Y882376D02*
Y914400D01*
X1131824Y882376D02*
Y914400D01*
X1129792Y882376D02*
Y914400D01*
X1127760Y882376D02*
Y914400D01*
X1125728Y882376D02*
Y914400D01*
X1123696Y882376D02*
Y914400D01*
X1121664Y882376D02*
Y914400D01*
X1119632Y882376D02*
Y914400D01*
X1117600Y882376D02*
Y914400D01*
X1115568Y882376D02*
Y914400D01*
X1113536Y882376D02*
Y914400D01*
X1111504Y882376D02*
Y914400D01*
X1109472Y882376D02*
Y914400D01*
X1107440Y882376D02*
Y914400D01*
X1105408Y882376D02*
Y914400D01*
X1103376Y882376D02*
Y914400D01*
X1101344Y882376D02*
Y914400D01*
X1099312Y882376D02*
Y914400D01*
X1097280Y882376D02*
Y914400D01*
X1095248Y882376D02*
Y914400D01*
X1093216Y882376D02*
Y914400D01*
X1091184Y882376D02*
Y914400D01*
X1089152Y882376D02*
Y914400D01*
X1087120Y882376D02*
Y914400D01*
X1085088Y882376D02*
Y914400D01*
X1083056Y882376D02*
Y914400D01*
X1081024Y882376D02*
Y914400D01*
X1078992Y882376D02*
Y914400D01*
X1076960Y882376D02*
Y914400D01*
X1074928Y882376D02*
Y914400D01*
X1072896Y882376D02*
Y914400D01*
X1070864Y882376D02*
Y914400D01*
X1068832Y882376D02*
Y914400D01*
X1066800Y882376D02*
Y914400D01*
X1064768Y882376D02*
Y914400D01*
X1062736Y882376D02*
Y914400D01*
X1060704Y882376D02*
Y914400D01*
X1058672Y882376D02*
Y914400D01*
X1056640Y882376D02*
Y914400D01*
X1054608Y882376D02*
Y914400D01*
X1052576Y882376D02*
Y914400D01*
X1050544Y882376D02*
Y914400D01*
X1048512Y882376D02*
Y914400D01*
X1046480Y882376D02*
Y914400D01*
X1044448Y882376D02*
Y914400D01*
X1122358Y853059D02*
X1202448D01*
X1123393Y852551D02*
X1201663D01*
X1107440Y851385D02*
Y853059D01*
X1096958D02*
X1110302D01*
X1099789Y851408D02*
X1107471D01*
X1105408Y850011D02*
Y853059D01*
X1101413Y850011D02*
X1105847D01*
X1103376D02*
Y853059D01*
X1115568Y821865D02*
Y824623D01*
X1113536Y819833D02*
Y824869D01*
X1111504Y818261D02*
Y825409D01*
X1111964Y818261D02*
X1118460Y824757D01*
X1109472Y818261D02*
Y826280D01*
X1099060Y827024D02*
X1108200D01*
X1094304Y824992D02*
X1112956D01*
X1101413Y828929D02*
X1105847D01*
X1078143Y822960D02*
X1116663D01*
X1078386Y820928D02*
X1114631D01*
X1078305Y818896D02*
X1112599D01*
X1101344Y850079D02*
Y853059D01*
X1099312Y851748D02*
Y853059D01*
X1083056Y852079D02*
Y853059D01*
X1081024Y850555D02*
Y853059D01*
X1078992Y848329D02*
Y853059D01*
X1071558D02*
X1084902D01*
X1074928Y850988D02*
Y853059D01*
X1056640Y851385D02*
Y853059D01*
X1076960Y848975D02*
Y853059D01*
X1076615Y849376D02*
X1079845D01*
X1077808Y831088D02*
X1078652D01*
X1077556Y824992D02*
X1087556D01*
X1076960Y826327D02*
Y829965D01*
X1074389Y851408D02*
X1082071D01*
X1076706Y829056D02*
X1080321D01*
X1076706Y826794D02*
Y829667D01*
Y827024D02*
X1082800D01*
X1221232Y816910D02*
Y820039D01*
X1149906Y803529D02*
X1200119D01*
X1146985Y800608D02*
X1204930D01*
X1149017Y802640D02*
X1201146D01*
X1107440Y818261D02*
Y827555D01*
X1078214Y818261D02*
X1111964D01*
X1105408D02*
Y828929D01*
X1126871Y780494D02*
X1149906Y803529D01*
X1075658Y797179D02*
X1113742D01*
X1108887Y792325D02*
X1113742Y797179D01*
X1111504Y794941D02*
Y797179D01*
X1109472Y792909D02*
Y797179D01*
X1077063Y792480D02*
X1109043D01*
X1107440Y790524D02*
Y797179D01*
X1075968Y796544D02*
X1113107D01*
X1076695Y794512D02*
X1111075D01*
X1077103Y790448D02*
X1107392D01*
X1076819Y788416D02*
X1106407D01*
X1076187Y786384D02*
X1105900D01*
X1075146Y784352D02*
X1105789D01*
X1103376Y818261D02*
Y828929D01*
X1101344Y818261D02*
Y828861D01*
X1099312Y818261D02*
Y827192D01*
X1097280Y818261D02*
Y826028D01*
X1095248Y818261D02*
Y825245D01*
X1093216Y818261D02*
Y824781D01*
X1091184Y818261D02*
Y824606D01*
X1089152Y818261D02*
Y824711D01*
X1085088Y818261D02*
Y825800D01*
X1081024Y818261D02*
Y828385D01*
X1083056Y818261D02*
Y826861D01*
X1078992Y818261D02*
Y830611D01*
X1087120Y818261D02*
Y825100D01*
X1076960Y793270D02*
Y797179D01*
X1093216Y777959D02*
Y797179D01*
X1091184Y778134D02*
Y797179D01*
X1089152Y778029D02*
Y797179D01*
X1073561Y782320D02*
X1105789D01*
X1071060Y780288D02*
X1105789D01*
X1068832Y777765D02*
Y779184D01*
X1046158Y853059D02*
X1059502D01*
X1054608Y849555D02*
Y853059D01*
X1042416Y882376D02*
Y914400D01*
X1052576Y847600D02*
Y853059D01*
X1040384Y882376D02*
Y914400D01*
X1038352Y882376D02*
Y914400D01*
X1036320Y882376D02*
Y914400D01*
X1034288Y882376D02*
Y914400D01*
X1032256Y882376D02*
Y914400D01*
X1030224Y882376D02*
Y914400D01*
X1050544Y850079D02*
Y853059D01*
X1048989Y851408D02*
X1056671D01*
X1048512Y851748D02*
Y853059D01*
X1051215Y849376D02*
X1054445D01*
X1052408Y831088D02*
X1053252D01*
X1020758Y853059D02*
X1034102D01*
X1032256Y852079D02*
Y853059D01*
X1023589Y851408D02*
X1031271D01*
X1030224Y850555D02*
Y853059D01*
X1025815Y849376D02*
X1029045D01*
X1028192Y882376D02*
Y914400D01*
X1026160Y882376D02*
Y914400D01*
X1024128Y882376D02*
Y914400D01*
X1022096Y882376D02*
Y914400D01*
X1020064Y882376D02*
Y914400D01*
X1018032Y882376D02*
Y914400D01*
X1016000Y882376D02*
Y914400D01*
X1013968Y882376D02*
Y914400D01*
X1011936Y882376D02*
Y914400D01*
X1009904Y882376D02*
Y914400D01*
X1007872Y882376D02*
Y914400D01*
X1005840Y882376D02*
Y914400D01*
X1028192Y848329D02*
Y853059D01*
X1024128Y850988D02*
Y853059D01*
X1005840Y851385D02*
Y853059D01*
X1027008Y831088D02*
X1027852D01*
X1026160Y848975D02*
Y853059D01*
X1003808Y882376D02*
Y914400D01*
Y849555D02*
Y853059D01*
X1001776Y847600D02*
Y853059D01*
X1054354Y826794D02*
Y829667D01*
X1050739Y829056D02*
X1054354D01*
X1048260Y827024D02*
X1054354D01*
X1052576Y818261D02*
Y831340D01*
X1050544Y818261D02*
Y828861D01*
X1043504Y824992D02*
X1053504D01*
X1048512Y818261D02*
Y827192D01*
X1046480Y818261D02*
Y826028D01*
X1044448Y818261D02*
Y825245D01*
X1026287Y830120D02*
X1038146Y818261D01*
X1042416D02*
Y824781D01*
X1040384Y818261D02*
Y824606D01*
X1038352Y818261D02*
Y824711D01*
X1042416Y777959D02*
Y780034D01*
X1040384Y778134D02*
Y780034D01*
X1038352Y778029D02*
Y780034D01*
X1033447Y822960D02*
X1052917D01*
X1035479Y820928D02*
X1052674D01*
X1031415Y824992D02*
X1036756D01*
X1037511Y818896D02*
X1052755D01*
X1019810Y780034D02*
X1057886D01*
X1038146Y818261D02*
X1052846D01*
X1030224Y826183D02*
Y828385D01*
X1029383Y827024D02*
X1032000D01*
X1028192Y828215D02*
Y830611D01*
X1034288Y822119D02*
Y825800D01*
X1036320Y820087D02*
Y825100D01*
X1032256Y824151D02*
Y826861D01*
X1027351Y829056D02*
X1029521D01*
X1002919Y828040D02*
Y830442D01*
X1001776Y815086D02*
Y831340D01*
X1009904Y814731D02*
Y816689D01*
X1009479Y814832D02*
X1011761D01*
X1007872Y815060D02*
Y818721D01*
X1005840Y815086D02*
Y820757D01*
X1003808Y815086D02*
Y823803D01*
X1006017Y820575D02*
X1013546Y813047D01*
X1002481Y792734D02*
X1011907Y783307D01*
X1640566Y758190D02*
Y852170D01*
X1623334Y758190D02*
Y852170D01*
X1621536Y740433D02*
Y863577D01*
X1619504Y739158D02*
Y864852D01*
X1617472Y738866D02*
Y865144D01*
X1615440Y738886D02*
Y865144D01*
X1613408Y738866D02*
Y805078D01*
X1611376Y738866D02*
Y796146D01*
X1609344Y738866D02*
Y791825D01*
X1607312Y738866D02*
Y788665D01*
X1605280Y738866D02*
Y786149D01*
X1640566Y776224D02*
X1677670D01*
X1640566Y774192D02*
X1677670D01*
X1640566Y772160D02*
X1677670D01*
X1640566Y770128D02*
X1677670D01*
X1640566Y768096D02*
X1677670D01*
X1640566Y766064D02*
X1677670D01*
X1588604Y776224D02*
X1623334D01*
X1537596Y774192D02*
X1623334D01*
X1537596Y772160D02*
X1623334D01*
X1537596Y770128D02*
X1623334D01*
X1640566Y764032D02*
X1677670D01*
X1603248Y738866D02*
Y784072D01*
X1601216Y738866D02*
Y782325D01*
X1599184Y738866D02*
Y780844D01*
X1597152Y738866D02*
Y779586D01*
X1595120Y738866D02*
Y778524D01*
X1593088Y738866D02*
Y777636D01*
X1591056Y738866D02*
Y776907D01*
X1568704Y738866D02*
Y777843D01*
X1570736Y738866D02*
Y777075D01*
X1537596Y768724D02*
Y798449D01*
X1564640Y738866D02*
Y779882D01*
X1566672Y738866D02*
Y778773D01*
X1562608Y738866D02*
Y781192D01*
X1589024Y738866D02*
Y776326D01*
X1586992Y738866D02*
Y775886D01*
X1584960Y738866D02*
Y775579D01*
X1582928Y738866D02*
Y775403D01*
X1580896Y738866D02*
Y775355D01*
X1578864Y738866D02*
Y775435D01*
X1537596Y776224D02*
X1573696D01*
X1507864Y768724D02*
X1537596D01*
X1507864D02*
Y773049D01*
X1574800Y738866D02*
Y775983D01*
X1576832Y738866D02*
Y775643D01*
X1572768Y738866D02*
Y776458D01*
X1677670Y702310D02*
Y914400D01*
X1676400Y702310D02*
Y914400D01*
X1674368Y702310D02*
Y914400D01*
X1672336Y702310D02*
Y914400D01*
X1670304Y702310D02*
Y914400D01*
X1668272Y702310D02*
Y914400D01*
X1666240Y702310D02*
Y914400D01*
X1664208Y702310D02*
Y914400D01*
X1662176Y702310D02*
Y914400D01*
X1660144Y702310D02*
Y914400D01*
X1658112Y702310D02*
Y914400D01*
X1656080Y702310D02*
Y914400D01*
X1654048Y702310D02*
Y914400D01*
X1652016Y702310D02*
Y914400D01*
X1649984Y702310D02*
Y914400D01*
X1647952Y702310D02*
Y914400D01*
X1645920Y702310D02*
Y914400D01*
X1643888Y702310D02*
Y914400D01*
X1558544Y738866D02*
Y784557D01*
X1560576Y738866D02*
Y782735D01*
X1556512Y738866D02*
Y786731D01*
X1641856Y702310D02*
Y914400D01*
X1554480Y738866D02*
Y789382D01*
X1552448Y738866D02*
Y792762D01*
X1548384Y738866D02*
Y803227D01*
X1550416Y738866D02*
Y797572D01*
X1546352Y738866D02*
Y801210D01*
X1544320Y738866D02*
Y799754D01*
X1542288Y738866D02*
Y798899D01*
X1540256Y738866D02*
Y798498D01*
X1538224Y738866D02*
Y798449D01*
X1536192Y738866D02*
Y768724D01*
X1534160Y738866D02*
Y768724D01*
X1507744Y738866D02*
Y773049D01*
X1532128Y738866D02*
Y768724D01*
X1505712Y738866D02*
Y773049D01*
X1530096Y738866D02*
Y768724D01*
X1528064Y738866D02*
Y768724D01*
X1526032Y738866D02*
Y768724D01*
X1524000Y738866D02*
Y768724D01*
X1521968Y738866D02*
Y768724D01*
X1519936Y738866D02*
Y768724D01*
X1517904Y738866D02*
Y768724D01*
X1515872Y738866D02*
Y768724D01*
X1513840Y738866D02*
Y768724D01*
X1511808Y738866D02*
Y768724D01*
X1509776Y738866D02*
Y768724D01*
X1493520Y738866D02*
Y775176D01*
X1489456Y738866D02*
Y779097D01*
X1491488Y738866D02*
Y777065D01*
X1487424Y738866D02*
Y781129D01*
X1483537Y785015D02*
X1492406Y776147D01*
X1126871Y776224D02*
X1492329D01*
X1485392Y738866D02*
Y783161D01*
X1481328Y738866D02*
Y788243D01*
X1483360Y738866D02*
Y785197D01*
X1479296Y738866D02*
Y813387D01*
X1499870Y773049D02*
X1507864D01*
X1503680Y738866D02*
Y773049D01*
X1501648Y738866D02*
Y773049D01*
X1499616Y738866D02*
Y773052D01*
X1497584Y738866D02*
Y773300D01*
X1495552Y738866D02*
Y773974D01*
X1128245Y772160D02*
X1507864D01*
X1129520Y770128D02*
X1507864D01*
X1126871Y774192D02*
X1495096D01*
X1130391Y768096D02*
X1623334D01*
X1130931Y766064D02*
X1623334D01*
X1131177Y764032D02*
X1623334D01*
X1471168Y738866D02*
Y820039D01*
X1469136Y738866D02*
Y820039D01*
X1467104Y738866D02*
Y820039D01*
X1465072Y738866D02*
Y820039D01*
X1463040Y738866D02*
Y820039D01*
X1461008Y738866D02*
Y820039D01*
X1458976Y738866D02*
Y820039D01*
X1456944Y738866D02*
Y820039D01*
X1454912Y738866D02*
Y820039D01*
X1452880Y738866D02*
Y820039D01*
X1450848Y738866D02*
Y820039D01*
X1448816Y738866D02*
Y820039D01*
X1475232Y738866D02*
Y817451D01*
X1477264Y738866D02*
Y815419D01*
X1473200Y738866D02*
Y819483D01*
X1446784Y738866D02*
Y820039D01*
X1444752Y738866D02*
Y820039D01*
X1442720Y738866D02*
Y820039D01*
X1440688Y738866D02*
Y820039D01*
X1438656Y738866D02*
Y820039D01*
X1436624Y738866D02*
Y820039D01*
X1434592Y738866D02*
Y820039D01*
X1432560Y738866D02*
Y820039D01*
X1430528Y738866D02*
Y820039D01*
X1428496Y738866D02*
Y820039D01*
X1426464Y738866D02*
Y820039D01*
X1424432Y738866D02*
Y820039D01*
X1422400Y738866D02*
Y820039D01*
X1420368Y738866D02*
Y820039D01*
X1418336Y738866D02*
Y820039D01*
X1416304Y738866D02*
Y820039D01*
X1414272Y738866D02*
Y820039D01*
X1412240Y738866D02*
Y820039D01*
X1410208Y738866D02*
Y820039D01*
X1408176Y738866D02*
Y820039D01*
X1406144Y738866D02*
Y820039D01*
X1404112Y738866D02*
Y820039D01*
X1402080Y738866D02*
Y820039D01*
X1400048Y738866D02*
Y820039D01*
X1398016Y738866D02*
Y820039D01*
X1395984Y738866D02*
Y820039D01*
X1393952Y738866D02*
Y820039D01*
X1391920Y738866D02*
Y820039D01*
X1389888Y738866D02*
Y820039D01*
X1387856Y738866D02*
Y820039D01*
X1385824Y738866D02*
Y820039D01*
X1383792Y738866D02*
Y820039D01*
X1381760Y738866D02*
Y820039D01*
X1379728Y738866D02*
Y820039D01*
X1377696Y738866D02*
Y820039D01*
X1375664Y738866D02*
Y820039D01*
X1373632Y738866D02*
Y820039D01*
X1371600Y738866D02*
Y820039D01*
X1369568Y738866D02*
Y820039D01*
X1367536Y738866D02*
Y820039D01*
X1365504Y738866D02*
Y820039D01*
X1363472Y738866D02*
Y820039D01*
X1361440Y738866D02*
Y820039D01*
X1359408Y738866D02*
Y820039D01*
X1357376Y738866D02*
Y820039D01*
X1355344Y738866D02*
Y820039D01*
X1353312Y738866D02*
Y820039D01*
X1351280Y738866D02*
Y820039D01*
X1349248Y738866D02*
Y820039D01*
X1347216Y738866D02*
Y820039D01*
X1345184Y738866D02*
Y820039D01*
X1343152Y738866D02*
Y820039D01*
X1341120Y738866D02*
Y820039D01*
X1339088Y738866D02*
Y820039D01*
X1337056Y738866D02*
Y820039D01*
X1640566Y762000D02*
X1677670D01*
X1640566Y759968D02*
X1677670D01*
X1640566Y757936D02*
X1677670D01*
X1640566Y755904D02*
X1677670D01*
X1640566Y753872D02*
X1677670D01*
X1640566Y743538D02*
Y758190D01*
Y751840D02*
X1677670D01*
X1640566Y749808D02*
X1677670D01*
X1640566Y747776D02*
X1677670D01*
X1640566Y745744D02*
X1677670D01*
X1640566Y743712D02*
X1677670D01*
X1640493Y741680D02*
X1677670D01*
X1640122Y739648D02*
X1677670D01*
X1639560Y737616D02*
X1677670D01*
X1638792Y735584D02*
X1677670D01*
X1637794Y733552D02*
X1677670D01*
X1639824Y702310D02*
Y738483D01*
X1636531Y731520D02*
X1677670D01*
X1634945Y729488D02*
X1677670D01*
X1632939Y727456D02*
X1677670D01*
X1630320Y725424D02*
X1677670D01*
X1626578Y723392D02*
X1677670D01*
X1637792Y702310D02*
Y733549D01*
X1635760Y702310D02*
Y730474D01*
X1633728Y702310D02*
Y728196D01*
X1631696Y702310D02*
Y726417D01*
X1629664Y702310D02*
Y725002D01*
X1627632Y702310D02*
Y723877D01*
X1623334Y743736D02*
Y758190D01*
X1616028Y738866D02*
X1617980D01*
X1625600Y702310D02*
Y722997D01*
X1623568Y702310D02*
Y722334D01*
X1621536Y702310D02*
Y721869D01*
X1619504Y702310D02*
Y721590D01*
X1617472Y702310D02*
Y721491D01*
X1615440Y702310D02*
Y721568D01*
X1613408Y702310D02*
Y721634D01*
X1611376Y702310D02*
Y721634D01*
X1609344Y702310D02*
Y721634D01*
X1607312Y702310D02*
Y721634D01*
X1605280Y702310D02*
Y721634D01*
X1603248Y702310D02*
Y721634D01*
X1601216Y702310D02*
Y721634D01*
X1599184Y702310D02*
Y721634D01*
X1597152Y702310D02*
Y721634D01*
X1595120Y702310D02*
Y721634D01*
X1593088Y702310D02*
Y721634D01*
X1591056Y702310D02*
Y721634D01*
X1589024Y702310D02*
Y721634D01*
X1586992Y702310D02*
Y721634D01*
X1584960Y702310D02*
Y721634D01*
X1582928Y702310D02*
Y721634D01*
X1580896Y702310D02*
Y721634D01*
X1578864Y702310D02*
Y721634D01*
X1576832Y702310D02*
Y721634D01*
X1574800Y702310D02*
Y721634D01*
X1572768Y702310D02*
Y721634D01*
X1570736Y702310D02*
Y721634D01*
X1568704Y702310D02*
Y721634D01*
X1566672Y702310D02*
Y721634D01*
X1564640Y702310D02*
Y721634D01*
X1562608Y702310D02*
Y721634D01*
X1560576Y702310D02*
Y721634D01*
X1558544Y702310D02*
Y721634D01*
X1556512Y702310D02*
Y721634D01*
X1554480Y702310D02*
Y721634D01*
X1552448Y702310D02*
Y721634D01*
X1550416Y702310D02*
Y721634D01*
X1548384Y702310D02*
Y721634D01*
X1546352Y702310D02*
Y721634D01*
X1544320Y702310D02*
Y721634D01*
X1542288Y702310D02*
Y721634D01*
X1540256Y702310D02*
Y721634D01*
X1538224Y702310D02*
Y721634D01*
X1536192Y702310D02*
Y721634D01*
X1534160Y702310D02*
Y721634D01*
X1532128Y702310D02*
Y721634D01*
X1530096Y702310D02*
Y721634D01*
X1528064Y702310D02*
Y721634D01*
X1526032Y702310D02*
Y721634D01*
X1524000Y702310D02*
Y721634D01*
X1521968Y702310D02*
Y721634D01*
X1519936Y702310D02*
Y721634D01*
X1517904Y702310D02*
Y721634D01*
X1515872Y702310D02*
Y721634D01*
X1513840Y702310D02*
Y721634D01*
X1511808Y702310D02*
Y721634D01*
X1509776Y702310D02*
Y721634D01*
X1507744Y702310D02*
Y721634D01*
X1505712Y702310D02*
Y721634D01*
X1503680Y702310D02*
Y721634D01*
X1131142Y762000D02*
X1623334D01*
X1130825Y759968D02*
X1623334D01*
X1130206Y757936D02*
X1623334D01*
X1129243Y755904D02*
X1623334D01*
X1127849Y753872D02*
X1623334D01*
X1125835Y751840D02*
X1623334D01*
X1122636Y749808D02*
X1623334D01*
X1075351Y747776D02*
X1623334D01*
X1073935Y745744D02*
X1623334D01*
X1071937Y743712D02*
X1623329D01*
X1069905Y741680D02*
X1622545D01*
X1067873Y739648D02*
X1620509D01*
X1501648Y702310D02*
Y721634D01*
X1499616Y702310D02*
Y721634D01*
X1497584Y702310D02*
Y721634D01*
X1495552Y702310D02*
Y721634D01*
X1493520Y702310D02*
Y721634D01*
X1491488Y702310D02*
Y721634D01*
X1067091Y738866D02*
X1614852D01*
X1489456Y702310D02*
Y721634D01*
X1487424Y702310D02*
Y721634D01*
X1485392Y702310D02*
Y721634D01*
X1483360Y702310D02*
Y721634D01*
X1481328Y702310D02*
Y721634D01*
X1479296Y702310D02*
Y721634D01*
X1477264Y702310D02*
Y721634D01*
X1475232Y702310D02*
Y721634D01*
X1473200Y702310D02*
Y721634D01*
X1471168Y702310D02*
Y721634D01*
X1469136Y702310D02*
Y721634D01*
X1467104Y702310D02*
Y721634D01*
X1465072Y702310D02*
Y721634D01*
X1463040Y702310D02*
Y721634D01*
X1461008Y702310D02*
Y721634D01*
X1458976Y702310D02*
Y721634D01*
X1456944Y702310D02*
Y721634D01*
X1454912Y702310D02*
Y721634D01*
X1452880Y702310D02*
Y721634D01*
X1450848Y702310D02*
Y721634D01*
X1448816Y702310D02*
Y721634D01*
X1446784Y702310D02*
Y721634D01*
X1444752Y702310D02*
Y721634D01*
X1442720Y702310D02*
Y721634D01*
X1440688Y702310D02*
Y721634D01*
X1438656Y702310D02*
Y721634D01*
X1436624Y702310D02*
Y721634D01*
X1434592Y702310D02*
Y721634D01*
X1432560Y702310D02*
Y721634D01*
X1430528Y702310D02*
Y721634D01*
X1428496Y702310D02*
Y721634D01*
X1426464Y702310D02*
Y721634D01*
X1424432Y702310D02*
Y721634D01*
X1422400Y702310D02*
Y721634D01*
X1420368Y702310D02*
Y721634D01*
X1418336Y702310D02*
Y721634D01*
X1416304Y702310D02*
Y721634D01*
X1414272Y702310D02*
Y721634D01*
X1412240Y702310D02*
Y721634D01*
X1410208Y702310D02*
Y721634D01*
X1408176Y702310D02*
Y721634D01*
X1406144Y702310D02*
Y721634D01*
X1404112Y702310D02*
Y721634D01*
X1402080Y702310D02*
Y721634D01*
X1400048Y702310D02*
Y721634D01*
X1398016Y702310D02*
Y721634D01*
X1395984Y702310D02*
Y721634D01*
X1393952Y702310D02*
Y721634D01*
X1391920Y702310D02*
Y721634D01*
X1389888Y702310D02*
Y721634D01*
X1387856Y702310D02*
Y721634D01*
X1385824Y702310D02*
Y721634D01*
X1383792Y702310D02*
Y721634D01*
X1381760Y702310D02*
Y721634D01*
X1379728Y702310D02*
Y721634D01*
X1377696Y702310D02*
Y721634D01*
X1375664Y702310D02*
Y721634D01*
X1373632Y702310D02*
Y721634D01*
X1371600Y702310D02*
Y721634D01*
X1369568Y702310D02*
Y721634D01*
X1367536Y702310D02*
Y721634D01*
X1365504Y702310D02*
Y721634D01*
X1363472Y702310D02*
Y721634D01*
X1361440Y702310D02*
Y721634D01*
X1359408Y702310D02*
Y721634D01*
X1357376Y702310D02*
Y721634D01*
X1355344Y702310D02*
Y721634D01*
X1353312Y702310D02*
Y721634D01*
X1351280Y702310D02*
Y721634D01*
X1349248Y702310D02*
Y721634D01*
X1347216Y702310D02*
Y721634D01*
X1345184Y702310D02*
Y721634D01*
X1343152Y702310D02*
Y721634D01*
X1341120Y702310D02*
Y721634D01*
X1339088Y702310D02*
Y721634D01*
X1335024Y738866D02*
Y820039D01*
X1332992Y738866D02*
Y820039D01*
X1330960Y738866D02*
Y820039D01*
X1328928Y738866D02*
Y820039D01*
X1326896Y738866D02*
Y820039D01*
X1324864Y738866D02*
Y820039D01*
X1322832Y738866D02*
Y820039D01*
X1320800Y738866D02*
Y820039D01*
X1318768Y738866D02*
Y820039D01*
X1316736Y738866D02*
Y820039D01*
X1314704Y738866D02*
Y820039D01*
X1312672Y738866D02*
Y820039D01*
X1310640Y738866D02*
Y820039D01*
X1308608Y738866D02*
Y820039D01*
X1306576Y738866D02*
Y820039D01*
X1304544Y738866D02*
Y820039D01*
X1302512Y738866D02*
Y820039D01*
X1300480Y738866D02*
Y820039D01*
X1298448Y738866D02*
Y820039D01*
X1296416Y738866D02*
Y820039D01*
X1294384Y738866D02*
Y820039D01*
X1292352Y738866D02*
Y820039D01*
X1290320Y738866D02*
Y820039D01*
X1288288Y738866D02*
Y820039D01*
X1286256Y738866D02*
Y820039D01*
X1284224Y738866D02*
Y820039D01*
X1282192Y738866D02*
Y820039D01*
X1280160Y738866D02*
Y820039D01*
X1278128Y738866D02*
Y820039D01*
X1276096Y738866D02*
Y820039D01*
X1274064Y738866D02*
Y820039D01*
X1272032Y738866D02*
Y820039D01*
X1270000Y738866D02*
Y820039D01*
X1267968Y738866D02*
Y820039D01*
X1265936Y738866D02*
Y820039D01*
X1263904Y738866D02*
Y820039D01*
X1261872Y738866D02*
Y820039D01*
X1259840Y738866D02*
Y820039D01*
X1257808Y738866D02*
Y820039D01*
X1255776Y738866D02*
Y820039D01*
X1253744Y738866D02*
Y820039D01*
X1251712Y738866D02*
Y820039D01*
X1249680Y738866D02*
Y820039D01*
X1247648Y738866D02*
Y820039D01*
X1245616Y738866D02*
Y820039D01*
X1243584Y738866D02*
Y820039D01*
X1241552Y738866D02*
Y820039D01*
X1239520Y738866D02*
Y820039D01*
X1237488Y738866D02*
Y820039D01*
X1235456Y738866D02*
Y820039D01*
X1233424Y738866D02*
Y820039D01*
X1231392Y738866D02*
Y820039D01*
X1229360Y738866D02*
Y820039D01*
X1227328Y738866D02*
Y820039D01*
X1225296Y738866D02*
Y820039D01*
X1223264Y738866D02*
Y820039D01*
X1221232Y738866D02*
Y808690D01*
X1219200Y738866D02*
Y804906D01*
X1217168Y738866D02*
Y802827D01*
X1200912Y738866D02*
Y802827D01*
X1215136Y738866D02*
Y801470D01*
X1213104Y738866D02*
Y800593D01*
X1211072Y738866D02*
Y800096D01*
X1209040Y738866D02*
Y799934D01*
X1207008Y738866D02*
Y800096D01*
X1204976Y738866D02*
Y800593D01*
X1198880Y738866D02*
Y803529D01*
X1202944Y738866D02*
Y801470D01*
X1196848Y738866D02*
Y803529D01*
X1194816Y738866D02*
Y803529D01*
X1192784Y738866D02*
Y803529D01*
X1190752Y738866D02*
Y803529D01*
X1188720Y738866D02*
Y803529D01*
X1186688Y738866D02*
Y803529D01*
X1184656Y738866D02*
Y803529D01*
X1182624Y738866D02*
Y803529D01*
X1180592Y738866D02*
Y803529D01*
X1178560Y738866D02*
Y803529D01*
X1176528Y738866D02*
Y803529D01*
X1174496Y738866D02*
Y803529D01*
X1172464Y738866D02*
Y803529D01*
X1170432Y738866D02*
Y803529D01*
X1168400Y738866D02*
Y803529D01*
X1166368Y738866D02*
Y803529D01*
X1164336Y738866D02*
Y803529D01*
X1162304Y738866D02*
Y803529D01*
X1160272Y738866D02*
Y803529D01*
X1158240Y738866D02*
Y803529D01*
X1156208Y738866D02*
Y803529D01*
X1154176Y738866D02*
Y803529D01*
X1152144Y738866D02*
Y803529D01*
X1150112Y738866D02*
Y803529D01*
X1148080Y738866D02*
Y801703D01*
X1146048Y738866D02*
Y799671D01*
X1144016Y738866D02*
Y797639D01*
X1101344Y773879D02*
Y797179D01*
X1099312Y775548D02*
Y797179D01*
X1097280Y776712D02*
Y797179D01*
X1105408Y773811D02*
Y797179D01*
X1105789Y773811D02*
Y784860D01*
X1103376Y773811D02*
Y797179D01*
X1095248Y777495D02*
Y797179D01*
X1087120Y777639D02*
Y797179D01*
X1085088Y776940D02*
Y797179D01*
X1083056Y775879D02*
Y797179D01*
X1081024Y774355D02*
Y797179D01*
X1078992Y773811D02*
Y797179D01*
X1098223Y776224D02*
X1105789D01*
X1101015Y774192D02*
X1105789D01*
X1075615D02*
X1080845D01*
X1126871Y773753D02*
Y780494D01*
X1101413Y773811D02*
X1105789D01*
X1072896Y776183D02*
Y781673D01*
X1070864Y777146D02*
Y780168D01*
X1060704Y777331D02*
Y778845D01*
X1074928Y774789D02*
Y784018D01*
X1072823Y776224D02*
X1083637D01*
X1058672Y776460D02*
Y779621D01*
X1046480Y776712D02*
Y780034D01*
X1044448Y777495D02*
Y780034D01*
X1036320Y777639D02*
Y780034D01*
X1056640Y775185D02*
Y780034D01*
X1050544Y773879D02*
Y780034D01*
X1048512Y775548D02*
Y780034D01*
X1013968Y778117D02*
Y781683D01*
X1016000Y778082D02*
Y780704D01*
X1011936Y777871D02*
Y783279D01*
X1007872Y776460D02*
Y787343D01*
X1009904Y777331D02*
Y785311D01*
X1005840Y775185D02*
Y789375D01*
X1034288Y776940D02*
Y780034D01*
X1047423Y776224D02*
X1058237D01*
X1032256Y775879D02*
Y780034D01*
X1030224Y774355D02*
Y780034D01*
X1050215Y774192D02*
X1055445D01*
X1024815D02*
X1030045D01*
X1022096Y776183D02*
Y780034D01*
X1020064Y777146D02*
Y780034D01*
X1018032Y777765D02*
Y780176D01*
X1022023Y776224D02*
X1032837D01*
X1024128Y774789D02*
Y780034D01*
X1141984Y738866D02*
Y795607D01*
X1139952Y738866D02*
Y793575D01*
X1137920Y738866D02*
Y791543D01*
X1135888Y738866D02*
Y789511D01*
X1133856Y738866D02*
Y787479D01*
X1131824Y738866D02*
Y785447D01*
X1129792Y769576D02*
Y783415D01*
X1127760Y772775D02*
Y781383D01*
X1076013Y773811D02*
X1080447D01*
X1129792Y738866D02*
Y756964D01*
X1127760Y738866D02*
Y753765D01*
X1125728Y738866D02*
Y751751D01*
X1123696Y738866D02*
Y750357D01*
X1105408Y738866D02*
Y752729D01*
X1107440Y738866D02*
Y751355D01*
X1103376Y738866D02*
Y752729D01*
X1101413D02*
X1105847D01*
X1100435Y751840D02*
X1106825D01*
X1076634D02*
X1081425D01*
X1101344Y738866D02*
Y752661D01*
X1099312Y738866D02*
Y750992D01*
X1076960Y773811D02*
Y789150D01*
X1054608Y773355D02*
Y780034D01*
X1052045Y772160D02*
X1053615D01*
X1052576Y771400D02*
Y780034D01*
X1028192Y772129D02*
Y780034D01*
X1026160Y772775D02*
Y780034D01*
X1026645Y772160D02*
X1028215D01*
X1003808Y773355D02*
Y791407D01*
X1001776Y771400D02*
Y792734D01*
X1076700Y752729D02*
X1080447D01*
X1078992Y738866D02*
Y752729D01*
X1081024Y738866D02*
Y752185D01*
X1076960Y738866D02*
Y752729D01*
X1026451Y754126D02*
X1028409D01*
X1001776D02*
Y755140D01*
X1337056Y702310D02*
Y721634D01*
X1335024Y702310D02*
Y721634D01*
X1332992Y702310D02*
Y721634D01*
X1330960Y702310D02*
Y721634D01*
X1328928Y702310D02*
Y721634D01*
X1326896Y702310D02*
Y721634D01*
X1324864Y702310D02*
Y721634D01*
X1322832Y702310D02*
Y721634D01*
X1320800Y702310D02*
Y721634D01*
X1318768Y702310D02*
Y721634D01*
X1316736Y702310D02*
Y721634D01*
X1314704Y702310D02*
Y721634D01*
X1312672Y702310D02*
Y721634D01*
X1310640Y702310D02*
Y721634D01*
X1308608Y702310D02*
Y721634D01*
X1306576Y702310D02*
Y721634D01*
X1304544Y702310D02*
Y721634D01*
X1302512Y702310D02*
Y721634D01*
X1300480Y702310D02*
Y721634D01*
X1298448Y702310D02*
Y721634D01*
X1296416Y702310D02*
Y721634D01*
X1294384Y702310D02*
Y721634D01*
X1292352Y702310D02*
Y721634D01*
X1290320Y702310D02*
Y721634D01*
X1288288Y702310D02*
Y721634D01*
X1286256Y702310D02*
Y721634D01*
X1284224Y702310D02*
Y721634D01*
X1282192Y702310D02*
Y721634D01*
X1280160Y702310D02*
Y721634D01*
X1278128Y702310D02*
Y721634D01*
X1276096Y702310D02*
Y721634D01*
X1274064Y702310D02*
Y721634D01*
X1272032Y702310D02*
Y721634D01*
X1270000Y702310D02*
Y721634D01*
X1267968Y702310D02*
Y721634D01*
X1265936Y702310D02*
Y721634D01*
X1263904Y702310D02*
Y721634D01*
X1261872Y702310D02*
Y721634D01*
X1259840Y702310D02*
Y721634D01*
X1257808Y702310D02*
Y721634D01*
X1255776Y702310D02*
Y721634D01*
X1253744Y702310D02*
Y721634D01*
X1251712Y702310D02*
Y721634D01*
X1249680Y702310D02*
Y721634D01*
X1247648Y702310D02*
Y721634D01*
X1245616Y702310D02*
Y721634D01*
X1243584Y702310D02*
Y721634D01*
X1241552Y702310D02*
Y721634D01*
X1239520Y702310D02*
Y721634D01*
X1237488Y702310D02*
Y721634D01*
X1235456Y702310D02*
Y721634D01*
X1233424Y702310D02*
Y721634D01*
X1231392Y702310D02*
Y721634D01*
X1229360Y702310D02*
Y721634D01*
X1227328Y702310D02*
Y721634D01*
X1225296Y702310D02*
Y721634D01*
X1223264Y702310D02*
Y721634D01*
X1221232Y702310D02*
Y721634D01*
X1219200Y702310D02*
Y721634D01*
X1217168Y702310D02*
Y721634D01*
X1215136Y702310D02*
Y721634D01*
X1213104Y702310D02*
Y721634D01*
X1211072Y702310D02*
Y721634D01*
X1209040Y702310D02*
Y721634D01*
X1207008Y702310D02*
Y721634D01*
X1204976Y702310D02*
Y721634D01*
X1202944Y702310D02*
Y721634D01*
X1200912Y702310D02*
Y721634D01*
X1198880Y702310D02*
Y721634D01*
X1196848Y702310D02*
Y721634D01*
X1194816Y702310D02*
Y721634D01*
X1192784Y702310D02*
Y721634D01*
X1190752Y702310D02*
Y721634D01*
X1188720Y702310D02*
Y721634D01*
X1186688Y702310D02*
Y721634D01*
X1184656Y702310D02*
Y721634D01*
X1182624Y702310D02*
Y721634D01*
X1180592Y702310D02*
Y721634D01*
X1178560Y702310D02*
Y721634D01*
X1176528Y702310D02*
Y721634D01*
X1174496Y702310D02*
Y721634D01*
X1172464Y702310D02*
Y721634D01*
X1170432Y702310D02*
Y721634D01*
X1168400Y702310D02*
Y721634D01*
X1166368Y702310D02*
Y721634D01*
X1164336Y702310D02*
Y721634D01*
X1162304Y702310D02*
Y721634D01*
X1160272Y702310D02*
Y721634D01*
X1158240Y702310D02*
Y721634D01*
X1156208Y702310D02*
Y721634D01*
X1154176Y702310D02*
Y721634D01*
X1152144Y702310D02*
Y721634D01*
X1150112Y702310D02*
Y721634D01*
X1148080Y702310D02*
Y721634D01*
X1146048Y702310D02*
Y721634D01*
X1144016Y702310D02*
Y721634D01*
X1141984Y702310D02*
Y721634D01*
X1139952Y702310D02*
Y721634D01*
X1137920Y702310D02*
Y721634D01*
X1135888Y702310D02*
Y721634D01*
X1121664Y738866D02*
Y749394D01*
X1119632Y738866D02*
Y748775D01*
X1117600Y738866D02*
Y748458D01*
X1113536Y738866D02*
Y748669D01*
X1115568Y738866D02*
Y748423D01*
X1111504Y738866D02*
Y749209D01*
X1133856Y702310D02*
Y721634D01*
X1131824Y702310D02*
Y721634D01*
X1129792Y702310D02*
Y721634D01*
X1127760Y702310D02*
Y721634D01*
X1125728Y702310D02*
Y721634D01*
X1123696Y702310D02*
Y721634D01*
X1121664Y702310D02*
Y721634D01*
X1119632Y702310D02*
Y721634D01*
X1117600Y702310D02*
Y721634D01*
X1115568Y702310D02*
Y721634D01*
X1113536Y702310D02*
Y721634D01*
X1111504Y702310D02*
Y721634D01*
X1097236Y749808D02*
X1110023D01*
X1109472Y738866D02*
Y750080D01*
X1097280Y738866D02*
Y749828D01*
X1095248Y738866D02*
Y749045D01*
X1093216Y738866D02*
Y748581D01*
X1091184Y738866D02*
Y748406D01*
X1087120Y738866D02*
Y748901D01*
X1089152Y738866D02*
Y748511D01*
X1076207Y749808D02*
X1084623D01*
X1083056Y738866D02*
Y750661D01*
X1085088Y738866D02*
Y749600D01*
X1074928Y738866D02*
Y747062D01*
X1109472Y702310D02*
Y721634D01*
X1107440Y702310D02*
Y721634D01*
X1105408Y702310D02*
Y721634D01*
X1103376Y702310D02*
Y721634D01*
X1101344Y702310D02*
Y721634D01*
X1099312Y702310D02*
Y721634D01*
X1072896Y738866D02*
Y744671D01*
X1070864Y738866D02*
Y742639D01*
X1068832Y738866D02*
Y740607D01*
X1097280Y702310D02*
Y721634D01*
X1067091Y738866D02*
X1073433Y745207D01*
X1095248Y702310D02*
Y721634D01*
X1093216Y702310D02*
Y721634D01*
X1091184Y702310D02*
Y721634D01*
X1089152Y702310D02*
Y721634D01*
X1087120Y702310D02*
Y721634D01*
X1085088Y702310D02*
Y721634D01*
X1083056Y702310D02*
Y721634D01*
X1081024Y702310D02*
Y721634D01*
X1078992Y702310D02*
Y721634D01*
X1076960Y702310D02*
Y721634D01*
X1074928Y702310D02*
Y721634D01*
X1072896Y702310D02*
Y721634D01*
X1070864Y702310D02*
Y721634D01*
X1068832Y702310D02*
Y721634D01*
X1066800Y702310D02*
Y721634D01*
X1064768Y702310D02*
Y721634D01*
X1062736Y702310D02*
Y721634D01*
X1060704Y702310D02*
Y721634D01*
X1058672Y702310D02*
Y721634D01*
X1056640Y702310D02*
Y721634D01*
X1054608Y702310D02*
Y721634D01*
X1052576Y702310D02*
Y721634D01*
X1050544Y702310D02*
Y721634D01*
X1048512Y702310D02*
Y721634D01*
X1046480Y702310D02*
Y721634D01*
X1044448Y702310D02*
Y721634D01*
X1042416Y702310D02*
Y721634D01*
X1040384Y702310D02*
Y721634D01*
X1038352Y702310D02*
Y721634D01*
X1036320Y702310D02*
Y721634D01*
X1034288Y702310D02*
Y721634D01*
X1032256Y702310D02*
Y721634D01*
X1030224Y702310D02*
Y721634D01*
X1028192Y702310D02*
Y721634D01*
X1026160Y702310D02*
Y721634D01*
X1024128Y702310D02*
Y721634D01*
X1022096Y702310D02*
Y721634D01*
X1020064Y702310D02*
Y721634D01*
X1018032Y702310D02*
Y721634D01*
X1016000Y702310D02*
Y721634D01*
X1013968Y702310D02*
Y721634D01*
X1011936Y702310D02*
Y721634D01*
X1009904Y702310D02*
Y721634D01*
X1007872Y702310D02*
Y721634D01*
X1005840Y702310D02*
Y721634D01*
X1003808Y702310D02*
Y721634D01*
X1001776Y702310D02*
Y721634D01*
Y882376D02*
Y914400D01*
X999744Y882376D02*
Y914400D01*
X997712Y882376D02*
Y914400D01*
X995680Y882376D02*
Y914400D01*
X993648Y882376D02*
Y914400D01*
X991616Y882376D02*
Y914400D01*
X989584Y882376D02*
Y914400D01*
X987552Y882376D02*
Y914400D01*
X985520Y882376D02*
Y914400D01*
X983488Y882376D02*
Y914400D01*
X981456Y882376D02*
Y914400D01*
X979424Y882376D02*
Y914400D01*
X977392Y882376D02*
Y914400D01*
X975360Y882376D02*
Y914400D01*
X973328Y882376D02*
Y914400D01*
X971296Y882376D02*
Y914400D01*
X969264Y882376D02*
Y914400D01*
X967232Y882376D02*
Y914400D01*
X965200Y882376D02*
Y914400D01*
X963168Y882376D02*
Y914400D01*
X961136Y882376D02*
Y914400D01*
X959104Y882376D02*
Y914400D01*
X957072Y882376D02*
Y914400D01*
X955040Y882376D02*
Y914400D01*
X953008Y882376D02*
Y914400D01*
X950976Y882376D02*
Y914400D01*
X948944Y882376D02*
Y914400D01*
X946912Y882376D02*
Y914400D01*
X944880Y882376D02*
Y914400D01*
X942848Y882376D02*
Y914400D01*
X940816Y882376D02*
Y914400D01*
X938784Y882376D02*
Y914400D01*
X936752Y882376D02*
Y914400D01*
X934720Y882376D02*
Y914400D01*
X932688Y882376D02*
Y914400D01*
X930656Y882376D02*
Y914400D01*
X928624Y882376D02*
Y914400D01*
X926592Y882376D02*
Y914400D01*
X924560Y882376D02*
Y914400D01*
X922528Y882376D02*
Y914400D01*
X920496Y882376D02*
Y914400D01*
X918464Y882376D02*
Y914400D01*
X916432Y882376D02*
Y914400D01*
X914400Y882376D02*
Y914400D01*
X912368Y882376D02*
Y914400D01*
X910336Y882376D02*
Y914400D01*
X908304Y882376D02*
Y914400D01*
X906272Y882376D02*
Y914400D01*
X904240Y882376D02*
Y914400D01*
X902208Y882376D02*
Y914400D01*
X900176Y882376D02*
Y914400D01*
X898144Y882376D02*
Y914400D01*
X896112Y882376D02*
Y914400D01*
X894080Y882376D02*
Y914400D01*
X892048Y882376D02*
Y914400D01*
X890016Y882376D02*
Y914400D01*
X887984Y882376D02*
Y914400D01*
X885952Y882376D02*
Y914400D01*
X883920Y882376D02*
Y914400D01*
X881888Y882376D02*
Y914400D01*
X879856Y882376D02*
Y914400D01*
X877824Y882376D02*
Y914400D01*
X875792Y882376D02*
Y914400D01*
X873760Y882376D02*
Y914400D01*
X871728Y882376D02*
Y914400D01*
X869696Y882376D02*
Y914400D01*
X867664Y882376D02*
Y914400D01*
X865632Y882376D02*
Y914400D01*
X863600Y882376D02*
Y914400D01*
X861568Y882376D02*
Y914400D01*
X859536Y882376D02*
Y914400D01*
X857504Y882376D02*
Y914400D01*
X855472Y882376D02*
Y914400D01*
X853440Y882376D02*
Y914400D01*
X851408Y882376D02*
Y914400D01*
X849376Y882376D02*
Y914400D01*
X847344Y882376D02*
Y914400D01*
X845312Y882376D02*
Y914400D01*
X843280Y882376D02*
Y914400D01*
X841248Y882376D02*
Y914400D01*
X839216Y882376D02*
Y914400D01*
X837184Y882376D02*
Y914400D01*
X835152Y882376D02*
Y914400D01*
X833120Y882376D02*
Y914400D01*
X831088Y882376D02*
Y914400D01*
X829056Y882376D02*
Y914400D01*
X827024Y882376D02*
Y914400D01*
X824992Y882376D02*
Y914400D01*
X822960Y882376D02*
Y914400D01*
X820928Y882376D02*
Y914400D01*
X818896Y882376D02*
Y914400D01*
X816864Y882376D02*
Y914400D01*
X814832Y882376D02*
Y914400D01*
X812800Y882376D02*
Y914400D01*
X810768Y882376D02*
Y914400D01*
X808736Y882376D02*
Y914400D01*
X806704Y882376D02*
Y914400D01*
X804672Y882376D02*
Y914400D01*
X802640Y882376D02*
Y914400D01*
X800608Y882376D02*
Y914400D01*
X798576Y882376D02*
Y914400D01*
X403860D02*
X1677670D01*
X382270Y912368D02*
X1677670D01*
X382270Y910336D02*
X1677670D01*
X796544Y882376D02*
Y914400D01*
X382270Y908304D02*
X1677670D01*
X794512Y882376D02*
Y914400D01*
X382270Y906272D02*
X1677670D01*
X382270Y904240D02*
X1677670D01*
X382270Y902208D02*
X1677670D01*
X382270Y900176D02*
X1677670D01*
X382270Y898144D02*
X1677670D01*
X382270Y896112D02*
X1677670D01*
X382270Y894080D02*
X1677670D01*
X382270Y892048D02*
X1677670D01*
X382270Y890016D02*
X1677670D01*
X382270Y887984D02*
X1677670D01*
X382270Y885952D02*
X1677670D01*
X382270Y883920D02*
X1677670D01*
X792480Y882376D02*
Y914400D01*
X790448Y882376D02*
Y914400D01*
X788416Y882376D02*
Y914400D01*
X786384Y882376D02*
Y914400D01*
X784352Y882376D02*
Y914400D01*
X782320Y882376D02*
Y914400D01*
X780288Y882376D02*
Y914400D01*
X778256Y882376D02*
Y914400D01*
X776224Y882376D02*
Y914400D01*
X774192Y882376D02*
Y914400D01*
X772160Y882376D02*
Y914400D01*
X770128Y882376D02*
Y914400D01*
X768096Y882376D02*
Y914400D01*
X766064Y882376D02*
Y914400D01*
X764032Y882376D02*
Y914400D01*
X762000Y882376D02*
Y914400D01*
X759968Y882376D02*
Y914400D01*
X757936Y882376D02*
Y914400D01*
X755904Y882376D02*
Y914400D01*
X753872Y882376D02*
Y914400D01*
X751840Y882376D02*
Y914400D01*
X749808Y882376D02*
Y914400D01*
X747776Y882376D02*
Y914400D01*
X745744Y882376D02*
Y914400D01*
X743712Y882376D02*
Y914400D01*
X741680Y882376D02*
Y914400D01*
X739648Y882376D02*
Y914400D01*
X737616Y882376D02*
Y914400D01*
X735584Y882376D02*
Y914400D01*
X733552Y882376D02*
Y914400D01*
X731520Y882376D02*
Y914400D01*
X729488Y882376D02*
Y914400D01*
X727456Y882376D02*
Y914400D01*
X725424Y882376D02*
Y914400D01*
X723392Y882376D02*
Y914400D01*
X790836Y856254D02*
X797664D01*
Y854336D02*
Y856254D01*
X790836Y834764D02*
Y856254D01*
X796544Y830961D02*
Y856254D01*
X794512Y830961D02*
Y856254D01*
X792480Y830961D02*
Y856254D01*
X721360Y882376D02*
Y914400D01*
X719328Y882376D02*
Y914400D01*
X717296Y882376D02*
Y914400D01*
X715264Y882376D02*
Y914400D01*
X462963Y882376D02*
X1618662D01*
X713232D02*
Y914400D01*
X711200Y882376D02*
Y914400D01*
X709168Y882376D02*
Y914400D01*
X707136Y882376D02*
Y914400D01*
X705104Y882376D02*
Y914400D01*
X703072Y882376D02*
Y914400D01*
X701040Y882376D02*
Y914400D01*
X699008Y882376D02*
Y914400D01*
X696976Y882376D02*
Y914400D01*
X694944Y882376D02*
Y914400D01*
X692912Y882376D02*
Y914400D01*
X690880Y882376D02*
Y914400D01*
X688848Y882376D02*
Y914400D01*
X686816Y882376D02*
Y914400D01*
X684784Y882376D02*
Y914400D01*
X682752Y882376D02*
Y914400D01*
X683006Y856254D02*
X686461D01*
X680720Y882376D02*
Y914400D01*
X678688Y882376D02*
Y914400D01*
X676656Y882376D02*
Y914400D01*
X674624Y882376D02*
Y914400D01*
X672592Y882376D02*
Y914400D01*
X670560Y882376D02*
Y914400D01*
X995358Y853059D02*
X1008702D01*
X997712Y851748D02*
Y853059D01*
X981456Y852079D02*
Y853059D01*
X999744Y850079D02*
Y853059D01*
X979424Y850555D02*
Y853059D01*
X977392Y848329D02*
Y853059D01*
X969958D02*
X983302D01*
X944558D02*
X957902D01*
X955040Y851385D02*
Y853059D01*
X975360Y848975D02*
Y853059D01*
X973328Y850988D02*
Y853059D01*
X953008Y849555D02*
Y853059D01*
X998189Y851408D02*
X1005871D01*
X1000415Y849376D02*
X1003645D01*
X972789Y851408D02*
X980471D01*
X975015Y849376D02*
X978245D01*
X949615D02*
X952845D01*
X950976Y847600D02*
Y853059D01*
X946912Y851748D02*
Y853059D01*
X947389Y851408D02*
X955071D01*
X844396Y853059D02*
X932502D01*
X948944Y850079D02*
Y853059D01*
X930656Y852079D02*
Y853059D01*
X928624Y850555D02*
Y853059D01*
X926592Y848741D02*
Y853059D01*
X924560Y848741D02*
Y853059D01*
X922528Y848741D02*
Y853059D01*
X920496Y848741D02*
Y853059D01*
X918464Y848741D02*
Y853059D01*
X916432Y848741D02*
Y853059D01*
X914400Y848741D02*
Y853059D01*
X912368Y848741D02*
Y853059D01*
X910336Y848741D02*
Y853059D01*
X908304Y848741D02*
Y853059D01*
X906272Y848741D02*
Y853059D01*
X904240Y848741D02*
Y853059D01*
X902208Y848741D02*
Y853059D01*
X900176Y848741D02*
Y853059D01*
X898144Y848741D02*
Y853059D01*
X896112Y848741D02*
Y853059D01*
X894080Y848741D02*
Y853059D01*
X844396Y851408D02*
X929671D01*
X844396Y849376D02*
X927445D01*
X892810Y848741D02*
X926909D01*
X892048Y848713D02*
Y853059D01*
X890016Y848364D02*
Y853059D01*
X887984Y847571D02*
Y853059D01*
X1001608Y831088D02*
X1002452D01*
X1000506Y829056D02*
X1002919D01*
X1000506Y824230D02*
Y829667D01*
X885952Y846205D02*
Y853059D01*
X1000506Y827024D02*
X1002968D01*
X1000434Y822960D02*
X1004224D01*
X1000506Y824992D02*
X1003369D01*
X1000007Y820928D02*
X1005680D01*
X999151Y818896D02*
X1007697D01*
X999744Y815086D02*
Y820174D01*
X997735Y816864D02*
X1009729D01*
X997712Y815086D02*
Y816838D01*
X995991Y815086D02*
X1007110D01*
X995991D02*
X997233Y816327D01*
X883920Y844217D02*
Y853059D01*
X881888Y842185D02*
Y853059D01*
X879856Y840153D02*
Y853059D01*
X877824Y838121D02*
Y853059D01*
X875792Y836089D02*
Y853059D01*
X873760Y834057D02*
Y853059D01*
X871728Y832025D02*
Y853059D01*
X869696Y830961D02*
Y853059D01*
X867664Y830961D02*
Y853059D01*
X865632Y830961D02*
Y853059D01*
X863600Y830961D02*
Y853059D01*
X861568Y830961D02*
Y853059D01*
X859536Y830961D02*
Y853059D01*
X870664Y830961D02*
X885346Y845643D01*
X857504Y830961D02*
Y853059D01*
X855472Y830961D02*
Y853059D01*
X853440Y830961D02*
Y853059D01*
X851408Y830961D02*
Y853059D01*
X849376Y830961D02*
Y853059D01*
X844396Y844924D02*
Y853059D01*
Y844924D02*
Y853059D01*
X847344Y830961D02*
Y853059D01*
X845312Y830961D02*
Y853059D01*
X844396Y847344D02*
X887566D01*
X844396Y845312D02*
X885015D01*
X790836Y855472D02*
X797664D01*
Y844924D02*
Y854336D01*
X844396Y843280D02*
X882983D01*
X797664Y844924D02*
Y854336D01*
X790836Y853440D02*
X797664D01*
X790836Y851408D02*
X797664D01*
X790836Y849376D02*
X797664D01*
X790836Y847344D02*
X797664D01*
X790836Y845312D02*
X797664D01*
X790836Y843280D02*
X797664D01*
X844396Y841248D02*
X880951D01*
X844396Y839216D02*
X878919D01*
X790836Y841248D02*
X797664D01*
X844396Y837184D02*
X876887D01*
X844396Y835152D02*
X874855D01*
X790836Y839216D02*
X797664D01*
X736346D02*
X739961D01*
X790836Y837184D02*
X797664D01*
X737448Y841248D02*
X738292D01*
X758700Y837184D02*
X761104D01*
X790836Y835152D02*
X797664D01*
X736878Y837184D02*
X742440D01*
X683156Y853440D02*
X685400D01*
X712048Y841248D02*
X712892D01*
X683156Y851408D02*
X685011D01*
X683006Y855472D02*
X686100D01*
X683156Y849376D02*
X684906D01*
X683006Y854336D02*
Y856254D01*
X683156Y847344D02*
X685081D01*
X683156Y843280D02*
X686328D01*
X683156Y845312D02*
X685545D01*
X736346Y838224D02*
Y839827D01*
X713994Y838224D02*
Y839827D01*
X710946Y838224D02*
Y839827D01*
X713232Y836648D02*
Y840771D01*
X711478Y837184D02*
X713462D01*
X711200Y837757D02*
Y840125D01*
X710946Y839216D02*
X713994D01*
X683156D02*
X688594D01*
X683156Y841248D02*
X687492D01*
X688594Y838224D02*
Y839827D01*
X683156Y837184D02*
X688062D01*
X844396Y830961D02*
Y844924D01*
X797664Y830961D02*
Y844924D01*
X786511Y834764D02*
X790836D01*
X790448Y830961D02*
Y834764D01*
X788416Y830961D02*
Y834764D01*
X786511Y830961D02*
Y834764D01*
X761104D02*
Y839140D01*
Y834764D02*
X765429D01*
X759968Y830961D02*
Y838111D01*
X765429Y830961D02*
Y834764D01*
X757936Y830961D02*
Y836717D01*
X844396Y833120D02*
X872823D01*
X844396Y830961D02*
X870664D01*
X786511Y833120D02*
X797664D01*
X844396Y831088D02*
X870791D01*
X786511Y830961D02*
X797664D01*
X786511Y831088D02*
X797664D01*
X764032Y830961D02*
Y834764D01*
X737973Y833120D02*
X765429D01*
X753944Y835152D02*
X761104D01*
X738005Y830961D02*
X765429D01*
X738013Y831088D02*
X765429D01*
X762000Y830961D02*
Y834764D01*
X755904Y830961D02*
Y835754D01*
X737616Y835111D02*
Y841500D01*
X741680Y830961D02*
Y837715D01*
X743712Y830961D02*
Y836440D01*
X739648Y830961D02*
Y839545D01*
X686816Y830961D02*
Y842337D01*
X684784Y830961D02*
Y856254D01*
X683156Y830961D02*
Y854336D01*
X753872Y830961D02*
Y835135D01*
X751840Y830961D02*
Y834818D01*
X737605Y835152D02*
X747196D01*
X749808Y830961D02*
Y834783D01*
X747776Y830961D02*
Y835029D01*
X745744Y830961D02*
Y835569D01*
X683156Y835152D02*
X687335D01*
X683156Y833120D02*
X686967D01*
X683156Y830961D02*
X686935D01*
X683156Y831088D02*
X686927D01*
X668528Y882376D02*
Y914400D01*
X666496Y882376D02*
Y914400D01*
X664464Y882376D02*
Y914400D01*
X662432Y882376D02*
Y914400D01*
X660400Y882376D02*
Y914400D01*
X658368Y882376D02*
Y914400D01*
X656336Y882376D02*
Y914400D01*
X654304Y882376D02*
Y914400D01*
X652272Y882376D02*
Y914400D01*
X650240Y882376D02*
Y914400D01*
X648208Y882376D02*
Y914400D01*
X646176Y882376D02*
Y914400D01*
X644144Y882376D02*
Y914400D01*
X642112Y882376D02*
Y914400D01*
X640080Y882376D02*
Y914400D01*
X638048Y882376D02*
Y914400D01*
X636016Y882376D02*
Y914400D01*
X633984Y882376D02*
Y914400D01*
X631952Y882376D02*
Y914400D01*
X629920Y882376D02*
Y914400D01*
X627888Y882376D02*
Y914400D01*
X625856Y882376D02*
Y914400D01*
X623824Y882376D02*
Y914400D01*
X621792Y882376D02*
Y914400D01*
X619760Y882376D02*
Y914400D01*
X617728Y882376D02*
Y914400D01*
X615696Y882376D02*
Y914400D01*
X613664Y882376D02*
Y914400D01*
X611632Y882376D02*
Y914400D01*
X609600Y882376D02*
Y914400D01*
X607568Y882376D02*
Y914400D01*
X605536Y882376D02*
Y914400D01*
X603504Y882376D02*
Y914400D01*
X601472Y882376D02*
Y914400D01*
X599440Y882376D02*
Y914400D01*
X597408Y882376D02*
Y914400D01*
X595376Y882376D02*
Y914400D01*
X593344Y882376D02*
Y914400D01*
X591312Y882376D02*
Y914400D01*
X589280Y882376D02*
Y914400D01*
X587248Y882376D02*
Y914400D01*
X585216Y882376D02*
Y914400D01*
X583184Y882376D02*
Y914400D01*
X581152Y882376D02*
Y914400D01*
X579120Y882376D02*
Y914400D01*
X577088Y882376D02*
Y914400D01*
X575056Y882376D02*
Y914400D01*
X573024Y882376D02*
Y914400D01*
X570992Y882376D02*
Y914400D01*
X660654Y854336D02*
Y856254D01*
X568960Y882376D02*
Y914400D01*
X660400Y854336D02*
Y856254D01*
X658368Y854336D02*
Y856254D01*
X656336Y854336D02*
Y856254D01*
X566928Y882376D02*
Y914400D01*
X564896Y882376D02*
Y914400D01*
X562864Y882376D02*
Y914400D01*
X560832Y882376D02*
Y914400D01*
X535881Y856254D02*
X660654D01*
X558800Y882376D02*
Y914400D01*
X654304Y854336D02*
Y856254D01*
X652272Y854336D02*
Y856254D01*
X650240Y854336D02*
Y856254D01*
X648208Y854336D02*
Y856254D01*
X646176Y854336D02*
Y856254D01*
X644144Y854336D02*
Y856254D01*
X642112Y854336D02*
Y856254D01*
X640080Y854336D02*
Y856254D01*
X638048Y854336D02*
Y856254D01*
X636016Y854336D02*
Y856254D01*
X633984Y854336D02*
Y856254D01*
X631952Y854336D02*
Y856254D01*
X556768Y882376D02*
Y914400D01*
X554736Y882376D02*
Y914400D01*
X552704Y882376D02*
Y914400D01*
X550672Y882376D02*
Y914400D01*
X548640Y882376D02*
Y914400D01*
X546608Y882376D02*
Y914400D01*
X544576Y882376D02*
Y914400D01*
X542544Y882376D02*
Y914400D01*
X540512Y882376D02*
Y914400D01*
X538480Y882376D02*
Y914400D01*
X536448Y882376D02*
Y914400D01*
X534416Y882376D02*
Y914400D01*
X532384Y882376D02*
Y914400D01*
X530352Y882376D02*
Y914400D01*
X528320Y882376D02*
Y914400D01*
X526288Y882376D02*
Y914400D01*
X524256Y882376D02*
Y914400D01*
X522224Y882376D02*
Y914400D01*
X520192Y882376D02*
Y914400D01*
X518160Y882376D02*
Y914400D01*
X516128Y882376D02*
Y914400D01*
X514096Y882376D02*
Y914400D01*
Y863764D02*
Y865144D01*
X512064Y882376D02*
Y914400D01*
X510032Y882376D02*
Y914400D01*
X508000Y882376D02*
Y914400D01*
X505968Y882376D02*
Y914400D01*
X503936Y882376D02*
Y914400D01*
X501904Y882376D02*
Y914400D01*
X499872Y882376D02*
Y914400D01*
X497840Y882376D02*
Y914400D01*
X495808Y882376D02*
Y914400D01*
X493776Y882376D02*
Y914400D01*
X491744Y882376D02*
Y914400D01*
X489712Y882376D02*
Y914400D01*
X487680Y882376D02*
Y914400D01*
X485648Y882376D02*
Y914400D01*
X483616Y882376D02*
Y914400D01*
X481584Y882376D02*
Y914400D01*
X479552Y882376D02*
Y914400D01*
X477520Y882376D02*
Y914400D01*
X475488Y882376D02*
Y914400D01*
X473456Y882376D02*
Y914400D01*
X471424Y882376D02*
Y914400D01*
X469392Y882376D02*
Y914400D01*
X467360Y882376D02*
Y914400D01*
X465328Y882376D02*
Y914400D01*
X463296Y882376D02*
Y914400D01*
X461264Y882503D02*
Y914400D01*
X459232Y882492D02*
Y914400D01*
X457200Y882303D02*
Y914400D01*
X455168Y881932D02*
Y914400D01*
X453136Y881370D02*
Y914400D01*
X451104Y880602D02*
Y914400D01*
X449072Y879604D02*
Y914400D01*
X447040Y878341D02*
Y914400D01*
X445008Y876755D02*
Y914400D01*
X442976Y874749D02*
Y914400D01*
X440944Y872130D02*
Y914400D01*
X382270Y881888D02*
X454979D01*
X382270Y879856D02*
X449541D01*
X382270Y914400D02*
X403860D01*
X382270Y877824D02*
X446326D01*
X382270Y875792D02*
X443970D01*
X438912Y868388D02*
Y914400D01*
X382270Y873760D02*
X442138D01*
X382270Y871728D02*
X440682D01*
X382270Y869696D02*
X439523D01*
X382270Y867664D02*
X438615D01*
X382270Y865632D02*
X437926D01*
X505968Y828684D02*
Y865144D01*
X512064Y821873D02*
Y865144D01*
X510032Y824597D02*
Y865144D01*
X508000Y826822D02*
Y865144D01*
X462868D02*
X515040D01*
X497840Y833680D02*
Y865144D01*
X495808Y834467D02*
Y865144D01*
X503936Y830259D02*
Y865144D01*
X501904Y831596D02*
Y865144D01*
X499872Y832729D02*
Y865144D01*
X489712Y835952D02*
Y865144D01*
X487680Y836176D02*
Y865144D01*
X485648Y836272D02*
Y865144D01*
X493776Y835103D02*
Y865144D01*
X512699Y820882D02*
Y858520D01*
X491744Y835595D02*
Y865144D01*
X456208Y863600D02*
X514004D01*
X454781Y861568D02*
X513149D01*
X454386Y859536D02*
X512748D01*
X483616Y836240D02*
Y865144D01*
X454386Y857504D02*
X512699D01*
X481584Y836080D02*
Y865144D01*
X479552Y835790D02*
Y865144D01*
X477520Y835366D02*
Y865144D01*
X475488Y834803D02*
Y865144D01*
X473456Y834093D02*
Y865144D01*
X471424Y833226D02*
Y865144D01*
X469392Y832187D02*
Y865144D01*
X467360Y830955D02*
Y865144D01*
X465328Y829504D02*
Y865144D01*
X463296Y827793D02*
Y865144D01*
X461264Y825762D02*
Y865184D01*
X454386Y853440D02*
Y860274D01*
X459232Y823309D02*
Y865139D01*
X457200Y820247D02*
Y864355D01*
X455168Y816126D02*
Y862319D01*
X382270Y863600D02*
X437437D01*
X382270Y861568D02*
X437149D01*
X382270Y859536D02*
X437154D01*
X382270Y857504D02*
X437154D01*
Y853440D02*
Y860473D01*
X629920Y854336D02*
Y856254D01*
X627888Y854336D02*
Y856254D01*
X625856Y854336D02*
Y856254D01*
X623824Y854336D02*
Y856254D01*
X621792Y854336D02*
Y856254D01*
X619760Y854336D02*
Y856254D01*
X617728Y854336D02*
Y856254D01*
X615696Y854336D02*
Y856254D01*
X613664Y854336D02*
Y856254D01*
X611632Y854336D02*
Y856254D01*
X609600Y854336D02*
Y856254D01*
X607568Y854336D02*
Y856254D01*
X655424Y854336D02*
X660654D01*
X655424D02*
X660654D01*
X636424D02*
X655424D01*
X636424Y850646D02*
Y854336D01*
X617116D02*
X636116D01*
Y850646D02*
Y854336D01*
X608384D02*
X617116D01*
X608384D02*
X617116D01*
X605536D02*
Y856254D01*
X603504Y854336D02*
Y856254D01*
X589384Y854336D02*
X608384D01*
X601472D02*
Y856254D01*
X599440Y854336D02*
Y856254D01*
X597408Y854336D02*
Y856254D01*
X595376Y854336D02*
Y856254D01*
X593344Y854336D02*
Y856254D01*
X591312Y854336D02*
Y856254D01*
X585216Y835684D02*
Y856254D01*
X577088Y841810D02*
Y856254D01*
X575056Y842136D02*
Y856254D01*
X573024Y842136D02*
Y856254D01*
X583184Y838361D02*
Y856254D01*
X581152Y840032D02*
Y856254D01*
X579120Y841131D02*
Y856254D01*
X582250Y839216D02*
X589384D01*
X584215Y837184D02*
X589384D01*
X585503Y835152D02*
X589384D01*
X586329Y833120D02*
X589384D01*
X586783Y831088D02*
X589384D01*
X586903Y829056D02*
X589384D01*
X570992Y841810D02*
Y856254D01*
X578838Y841248D02*
X589384D01*
X568960Y841131D02*
Y856254D01*
X566928Y840486D02*
Y856254D01*
X636424Y824604D02*
Y828294D01*
Y824604D02*
X638247D01*
X636116D02*
Y828294D01*
X636016Y822373D02*
Y824604D01*
X633984Y820341D02*
Y824604D01*
X631952Y818309D02*
Y824604D01*
X628094Y814451D02*
X638247Y824604D01*
X617116D02*
X636116D01*
X629920Y816277D02*
Y824604D01*
X627888Y814451D02*
Y824604D01*
X625856Y814451D02*
Y824604D01*
X623824Y814451D02*
Y824604D01*
X621792Y814451D02*
Y824604D01*
X613791D02*
X617116D01*
X613791D02*
X617116D01*
X619760Y814451D02*
Y824604D01*
X617728Y814451D02*
Y824604D01*
X615696Y814451D02*
Y824604D01*
X613791Y822960D02*
X636603D01*
X613791Y820928D02*
X634571D01*
X613791Y818896D02*
X632539D01*
X613791Y816864D02*
X630507D01*
X613791Y814832D02*
X628475D01*
X613791Y814451D02*
X628094D01*
X613791D02*
Y824604D01*
X589384D02*
X592709D01*
X589384D02*
Y854336D01*
X592709Y814451D02*
Y824604D01*
X591312Y814451D02*
Y824604D01*
X589280Y814451D02*
Y856254D01*
X586701Y827024D02*
X589384D01*
X585230Y822960D02*
X592709D01*
X586160Y824992D02*
X589384D01*
X587248Y814451D02*
Y856254D01*
X585216Y814451D02*
Y822936D01*
X583801Y820928D02*
X592709D01*
X581595Y818896D02*
X592709D01*
X577301Y816864D02*
X592709D01*
X583184Y814451D02*
Y820259D01*
X581152Y814451D02*
Y818588D01*
X579120Y814451D02*
Y817489D01*
X577088Y814451D02*
Y816810D01*
X575056Y814451D02*
Y816484D01*
X573024Y814451D02*
Y816484D01*
X570992Y814451D02*
Y816810D01*
X568960Y814451D02*
Y817489D01*
X560832Y844176D02*
Y856254D01*
X558800Y844176D02*
Y856254D01*
X556768Y844176D02*
Y856254D01*
X564896Y840486D02*
Y856254D01*
X562864Y840486D02*
Y856254D01*
X554736Y844176D02*
Y856254D01*
X552704Y844176D02*
Y856254D01*
X550672Y844176D02*
Y856254D01*
X548640Y844176D02*
Y856254D01*
X546608Y844176D02*
Y856254D01*
X544576Y844176D02*
Y856254D01*
X542544Y844176D02*
Y856254D01*
X535099Y855472D02*
X660654D01*
X562236Y843280D02*
X589384D01*
X540512Y844176D02*
Y856254D01*
X562236Y841248D02*
X569242D01*
X562236Y840486D02*
X567666D01*
X562236D02*
Y844176D01*
X533781Y853440D02*
X589384D01*
X533781Y851408D02*
X589384D01*
X533781Y849376D02*
X589384D01*
X533781Y847344D02*
X589384D01*
X533781Y845312D02*
X589384D01*
X533781Y844176D02*
X562236D01*
X538480D02*
Y856254D01*
X533781Y854154D02*
X535881Y856254D01*
X454386Y855472D02*
X512699D01*
X536448Y844176D02*
Y856254D01*
X534416Y844176D02*
Y854789D01*
X533781Y844176D02*
Y854154D01*
X382270Y855472D02*
X437154D01*
X454386Y853440D02*
X512699D01*
X382270D02*
X437154D01*
X454386Y851408D02*
X512699D01*
X454386Y849376D02*
X512699D01*
X382270Y851408D02*
X437154D01*
X454386Y847344D02*
X512699D01*
X454386Y845312D02*
X512699D01*
X382270Y849376D02*
X437154D01*
X454386Y843280D02*
X512699D01*
X454386Y841248D02*
X512699D01*
X454386Y839216D02*
X512699D01*
X382270Y847344D02*
X437154D01*
X382270Y845312D02*
X437154D01*
X382270Y843280D02*
X437154D01*
X382270Y841248D02*
X437154D01*
X382270Y839216D02*
X437154D01*
X502716Y831088D02*
X512699D01*
X505517Y829056D02*
X512699D01*
X507796Y827024D02*
X512699D01*
X509698Y824992D02*
X512699D01*
X562236Y818134D02*
X567666D01*
X511306Y822960D02*
X512699D01*
X454386Y837184D02*
X512699D01*
X493596Y835152D02*
X512699D01*
X454386D02*
X476684D01*
X499080Y833120D02*
X512699D01*
X454386D02*
X471200D01*
X566928Y814451D02*
Y818134D01*
X562236Y816864D02*
X570779D01*
X564896Y814451D02*
Y818134D01*
X562864Y814451D02*
Y818134D01*
X562236Y814451D02*
X592709D01*
X562236D02*
Y818134D01*
Y814832D02*
X592709D01*
X557853Y814451D02*
X562236D01*
X533781Y814444D02*
X536880D01*
X534416Y811203D02*
Y814444D01*
X533781Y812800D02*
X535455D01*
X533781Y809938D02*
Y814444D01*
X454386Y831088D02*
X467564D01*
X454386Y829056D02*
X464763D01*
X382270Y837184D02*
X437154D01*
X454386Y827024D02*
X462484D01*
X454386Y824992D02*
X460582D01*
X454386Y813997D02*
Y853440D01*
X382270Y835152D02*
X437154D01*
X382270Y833120D02*
X437154D01*
X382270Y831088D02*
X437154D01*
X382270Y829056D02*
X437154D01*
X382270Y827024D02*
X437154D01*
X382270Y824992D02*
X437154D01*
X454386Y822960D02*
X458974D01*
X454386Y820928D02*
X457609D01*
X382270Y822960D02*
X437154D01*
X454386Y818896D02*
X456452D01*
X454386Y816864D02*
X455479D01*
X382270Y820928D02*
X437154D01*
X382270Y818896D02*
X437154D01*
X382270Y816864D02*
X437154D01*
X382270Y814832D02*
X437154D01*
X382270Y812800D02*
X437154D01*
X382270Y810768D02*
X437154D01*
X998154Y790448D02*
X1004767D01*
X999410Y788416D02*
X1006799D01*
X999744Y787646D02*
Y792734D01*
X1000151Y786384D02*
X1008831D01*
X1000480Y784352D02*
X1010863D01*
X1000506Y773073D02*
Y783590D01*
X995991Y792734D02*
X1002481D01*
X996245Y792480D02*
X1002735D01*
X997712Y790982D02*
Y792734D01*
X995991D02*
X997233Y791493D01*
X1000506Y780288D02*
X1017441D01*
X1000506Y778256D02*
X1105789D01*
X1000506Y782320D02*
X1013037D01*
X1000506Y776224D02*
X1007437D01*
X1000506Y774192D02*
X1004645D01*
X1001245Y772160D02*
X1002815D01*
X971223Y776224D02*
X978154D01*
X971223D02*
X978154D01*
X974015Y774192D02*
X978154D01*
Y773073D02*
Y776224D01*
X973328Y774789D02*
Y776224D01*
X953396D02*
X956637D01*
X955040Y775185D02*
Y776224D01*
X977392Y772129D02*
Y776224D01*
X975360Y772775D02*
Y776224D01*
X953396D02*
X956637D01*
X911409D02*
X923664D01*
X911409D02*
X923664D01*
X953396Y773760D02*
Y776224D01*
X923664Y754126D02*
Y776224D01*
X909377Y774192D02*
X923664D01*
X975845Y772160D02*
X977415D01*
X907345D02*
X923664D01*
X905313Y770128D02*
X923664D01*
X903281Y768096D02*
X923664D01*
X922528Y754126D02*
Y776224D01*
X901249Y766064D02*
X923664D01*
X899211Y764032D02*
X923664D01*
X899443Y764257D02*
X911409Y776224D01*
X896196Y762000D02*
X923664D01*
X920496Y754126D02*
Y776224D01*
X918464Y754126D02*
Y776224D01*
X916432Y754126D02*
Y776224D01*
X914400Y754126D02*
Y776224D01*
X912368Y754126D02*
Y776224D01*
X910336Y754126D02*
Y775151D01*
X908304Y754126D02*
Y773119D01*
X906272Y754126D02*
Y771087D01*
X904240Y754126D02*
Y769055D01*
X902208Y754126D02*
Y767023D01*
X900176Y754126D02*
Y764991D01*
X898144Y754126D02*
Y763144D01*
X896112Y754126D02*
Y761962D01*
X894080Y754126D02*
Y761276D01*
X892048Y754126D02*
Y760996D01*
X890016Y754126D02*
Y760984D01*
X887984Y754126D02*
Y760984D01*
X885952Y754126D02*
Y760984D01*
X883920Y754126D02*
Y760984D01*
X881888Y754126D02*
Y760984D01*
X879856Y754126D02*
Y760984D01*
X877824Y754126D02*
Y760984D01*
X875792Y754126D02*
Y760984D01*
X873760Y754126D02*
Y760984D01*
X871728Y754126D02*
Y760984D01*
X869696Y754126D02*
Y760984D01*
X867664Y754126D02*
Y760984D01*
X865632Y754126D02*
Y760984D01*
X863600Y754126D02*
Y760984D01*
X861568Y754126D02*
Y760984D01*
X859536Y754126D02*
Y760984D01*
X857504Y754126D02*
Y760984D01*
X855472Y754126D02*
Y760984D01*
X853440Y754126D02*
Y760984D01*
X851408Y754126D02*
Y760984D01*
X849376Y754126D02*
Y760984D01*
X847344Y754126D02*
Y760984D01*
X845312Y754126D02*
Y760984D01*
X843280Y754126D02*
Y760984D01*
X841248Y754126D02*
Y760984D01*
X839216Y754126D02*
Y760984D01*
X837184Y754126D02*
Y760984D01*
X835152Y754126D02*
Y760984D01*
X833120Y754126D02*
Y760984D01*
X831088Y754126D02*
Y760984D01*
X829056Y754126D02*
Y760984D01*
X827024Y754126D02*
Y760984D01*
X824992Y754126D02*
Y760984D01*
X822960Y754126D02*
Y760984D01*
X820928Y754126D02*
Y760984D01*
X818896Y754126D02*
Y760984D01*
X816864Y754126D02*
Y760984D01*
X814832Y754126D02*
Y760984D01*
X728431D02*
X891540D01*
X812800Y754126D02*
Y760984D01*
X810768Y754126D02*
Y760984D01*
X808736Y754126D02*
Y760984D01*
X806704Y754126D02*
Y760984D01*
X804672Y754126D02*
Y760984D01*
X802640Y754126D02*
Y760984D01*
X800608Y754126D02*
Y760984D01*
X798576Y754126D02*
Y760984D01*
X796544Y754126D02*
Y760984D01*
X794512Y754126D02*
Y760984D01*
X792480Y754126D02*
Y760984D01*
X790448Y754126D02*
Y760984D01*
X788416Y754126D02*
Y760984D01*
X786384Y754126D02*
Y760984D01*
X784352Y754126D02*
Y760984D01*
X782320Y754126D02*
Y760984D01*
X780288Y754126D02*
Y760984D01*
X654869Y791464D02*
X686995D01*
X706144Y778764D02*
X713462D01*
X653853Y790448D02*
X686914D01*
X705157Y778256D02*
X713243D01*
X649789Y786384D02*
X687405D01*
X647757Y784352D02*
X688181D01*
X651821Y788416D02*
X686995D01*
X643693Y780288D02*
X691263D01*
X641426Y778256D02*
X694383D01*
X645725Y782320D02*
X689403D01*
X635000Y776224D02*
X712611D01*
X561595Y774192D02*
X712327D01*
X560812Y772160D02*
X712367D01*
X778256Y754126D02*
Y760984D01*
X776224Y754126D02*
Y760984D01*
X774192Y754126D02*
Y760984D01*
X557979Y768096D02*
X713462D01*
X555500Y766064D02*
X714621D01*
X559648Y770128D02*
X712735D01*
X534416Y762000D02*
X719263D01*
X550744Y764032D02*
X716383D01*
X772160Y754126D02*
Y760984D01*
X770128Y754126D02*
Y760984D01*
X768096Y754126D02*
Y760984D01*
X766064Y754126D02*
Y760984D01*
X764032Y754126D02*
Y760984D01*
X762000Y754126D02*
Y760984D01*
X759968Y754126D02*
Y760984D01*
X757936Y754126D02*
Y760984D01*
X755904Y754126D02*
Y760984D01*
X719328Y754126D02*
Y761967D01*
X753872Y754126D02*
Y760984D01*
X717296Y754126D02*
Y763255D01*
X751840Y754126D02*
Y760984D01*
X749808Y754126D02*
Y760984D01*
X747776Y754126D02*
Y760984D01*
X745744Y754126D02*
Y760984D01*
X743712Y754126D02*
Y760984D01*
X741680Y754126D02*
Y760984D01*
X739648Y754126D02*
Y760984D01*
X737616Y754126D02*
Y760984D01*
X735584Y754126D02*
Y760984D01*
X733552Y754126D02*
Y760984D01*
X731520Y754126D02*
Y760984D01*
X729488Y754126D02*
Y760984D01*
X690880Y754126D02*
Y780639D01*
X692912Y754126D02*
Y779054D01*
X688848Y754126D02*
Y783140D01*
X686816Y754126D02*
Y791464D01*
X684784Y754126D02*
Y791464D01*
X682752Y754126D02*
Y791464D01*
X680720Y754126D02*
Y791464D01*
X678688Y754126D02*
Y791464D01*
X676656Y754126D02*
Y791464D01*
X674624Y754126D02*
Y791464D01*
X672592Y754126D02*
Y791464D01*
X670560Y754126D02*
Y791464D01*
X713232Y754126D02*
Y768632D01*
X715264Y754126D02*
Y765220D01*
X711200Y754126D02*
Y778764D01*
X709168Y754126D02*
Y778764D01*
X707136Y754126D02*
Y778764D01*
X705104Y754126D02*
Y778232D01*
X703072Y754126D02*
Y777505D01*
X701040Y754126D02*
Y777137D01*
X699008Y754126D02*
Y777097D01*
X696976Y754126D02*
Y777381D01*
X694944Y754126D02*
Y778013D01*
X1001051Y754126D02*
X1003009D01*
X999744Y702310D02*
Y721634D01*
X997712Y702310D02*
Y721634D01*
X995680Y702310D02*
Y721634D01*
X993648Y702310D02*
Y721634D01*
X975651Y754126D02*
X977609D01*
X822960Y721634D02*
X1614757D01*
X991616Y702310D02*
Y721634D01*
X989584Y702310D02*
Y721634D01*
X987552Y702310D02*
Y721634D01*
X985520Y702310D02*
Y721634D01*
X983488Y702310D02*
Y721634D01*
X981456Y702310D02*
Y721634D01*
X979424Y702310D02*
Y721634D01*
X977392Y702310D02*
Y721634D01*
X975360Y702310D02*
Y721634D01*
X973328Y702310D02*
Y721634D01*
X971296Y702310D02*
Y721634D01*
X969264Y702310D02*
Y721634D01*
X967232Y702310D02*
Y721634D01*
X965200Y702310D02*
Y721634D01*
X963168Y702310D02*
Y721634D01*
X961136Y702310D02*
Y721634D01*
X959104Y702310D02*
Y721634D01*
X957072Y702310D02*
Y721634D01*
X955040Y702310D02*
Y721634D01*
X953008Y702310D02*
Y721634D01*
X950976Y702310D02*
Y721634D01*
X948944Y702310D02*
Y721634D01*
X946912Y702310D02*
Y721634D01*
X944880Y702310D02*
Y721634D01*
X942848Y702310D02*
Y721634D01*
X940816Y702310D02*
Y721634D01*
X938784Y702310D02*
Y721634D01*
X936752Y702310D02*
Y721634D01*
X934720Y702310D02*
Y721634D01*
X932688Y702310D02*
Y721634D01*
X930656Y702310D02*
Y721634D01*
X928624Y702310D02*
Y721634D01*
X926592Y702310D02*
Y721634D01*
X924560Y702310D02*
Y721634D01*
X922528Y702310D02*
Y721634D01*
X920496Y702310D02*
Y721634D01*
X918464Y702310D02*
Y721634D01*
X916432Y702310D02*
Y721634D01*
X914400Y702310D02*
Y721634D01*
X912368Y702310D02*
Y721634D01*
X910336Y702310D02*
Y721634D01*
X908304Y702310D02*
Y721634D01*
X906272Y702310D02*
Y721634D01*
X904240Y702310D02*
Y721634D01*
X902208Y702310D02*
Y721634D01*
X900176Y702310D02*
Y721634D01*
X898144Y702310D02*
Y721634D01*
X896112Y702310D02*
Y721634D01*
X894080Y702310D02*
Y721634D01*
X892048Y702310D02*
Y721634D01*
X890016Y702310D02*
Y721634D01*
X887984Y702310D02*
Y721634D01*
X885952Y702310D02*
Y721634D01*
X883920Y702310D02*
Y721634D01*
X881888Y702310D02*
Y721634D01*
X879856Y702310D02*
Y721634D01*
X877824Y702310D02*
Y721634D01*
X875792Y702310D02*
Y721634D01*
X873760Y702310D02*
Y721634D01*
X871728Y702310D02*
Y721634D01*
X869696Y702310D02*
Y721634D01*
X867664Y702310D02*
Y721634D01*
X865632Y702310D02*
Y721634D01*
X863600Y702310D02*
Y721634D01*
X861568Y702310D02*
Y721634D01*
X859536Y702310D02*
Y721634D01*
X857504Y702310D02*
Y721634D01*
X855472Y702310D02*
Y721634D01*
X853440Y702310D02*
Y721634D01*
X851408Y702310D02*
Y721634D01*
X849376Y702310D02*
Y721634D01*
X847344Y702310D02*
Y721634D01*
X845312Y702310D02*
Y721634D01*
X843280Y702310D02*
Y721634D01*
X841248Y702310D02*
Y721634D01*
X839216Y702310D02*
Y721634D01*
X837184Y702310D02*
Y721634D01*
X835152Y702310D02*
Y721634D01*
X833120Y702310D02*
Y721634D01*
X831088Y702310D02*
Y721634D01*
X829056Y702310D02*
Y721634D01*
X827024Y702310D02*
Y721634D01*
X824992Y702310D02*
Y721634D01*
X822960Y702310D02*
Y721634D01*
X820928Y702310D02*
Y721634D01*
X818896Y702310D02*
Y721634D01*
X816864Y702310D02*
Y721634D01*
X814832Y702310D02*
Y721634D01*
X812800Y702310D02*
Y721634D01*
X810768Y702310D02*
Y721634D01*
X808736Y702310D02*
Y721634D01*
X534416Y759968D02*
X923664D01*
X534416Y757936D02*
X923664D01*
X536251Y755904D02*
X923664D01*
X538029Y754126D02*
X923664D01*
X464820Y721634D02*
X822960D01*
X806704Y702310D02*
Y721634D01*
X382270Y721360D02*
X1677670D01*
X382270Y719328D02*
X1677670D01*
X382270Y717296D02*
X1677670D01*
X804672Y702310D02*
Y721634D01*
X382270Y715264D02*
X1677670D01*
X802640Y702310D02*
Y721634D01*
X382270Y713232D02*
X1677670D01*
X382270Y711200D02*
X1677670D01*
X382270Y709168D02*
X1677670D01*
X382270Y707136D02*
X1677670D01*
X382270Y705104D02*
X1677670D01*
X382270Y703072D02*
X1677670D01*
X800608Y702310D02*
Y721634D01*
X798576Y702310D02*
Y721634D01*
X796544Y702310D02*
Y721634D01*
X794512Y702310D02*
Y721634D01*
X792480Y702310D02*
Y721634D01*
X790448Y702310D02*
Y721634D01*
X727456Y754126D02*
Y760769D01*
X725424Y754126D02*
Y760566D01*
X723392Y754126D02*
Y760687D01*
X788416Y702310D02*
Y721634D01*
X786384Y702310D02*
Y721634D01*
X721360Y754126D02*
Y761141D01*
X784352Y702310D02*
Y721634D01*
X782320Y702310D02*
Y721634D01*
X780288Y702310D02*
Y721634D01*
X778256Y702310D02*
Y721634D01*
X776224Y702310D02*
Y721634D01*
X774192Y702310D02*
Y721634D01*
X772160Y702310D02*
Y721634D01*
X770128Y702310D02*
Y721634D01*
X768096Y702310D02*
Y721634D01*
X766064Y702310D02*
Y721634D01*
X764032Y702310D02*
Y721634D01*
X762000Y702310D02*
Y721634D01*
X759968Y702310D02*
Y721634D01*
X757936Y702310D02*
Y721634D01*
X755904Y702310D02*
Y721634D01*
X753872Y702310D02*
Y721634D01*
X751840Y702310D02*
Y721634D01*
X749808Y702310D02*
Y721634D01*
X747776Y702310D02*
Y721634D01*
X745744Y702310D02*
Y721634D01*
X743712Y702310D02*
Y721634D01*
X741680Y702310D02*
Y721634D01*
X739648Y702310D02*
Y721634D01*
X737616Y702310D02*
Y721634D01*
X735584Y702310D02*
Y721634D01*
X733552Y702310D02*
Y721634D01*
X731520Y702310D02*
Y721634D01*
X729488Y702310D02*
Y721634D01*
X727456Y702310D02*
Y721634D01*
X725424Y702310D02*
Y721634D01*
X723392Y702310D02*
Y721634D01*
X721360Y702310D02*
Y721634D01*
X719328Y702310D02*
Y721634D01*
X382270Y702310D02*
X1677670D01*
X717296D02*
Y721634D01*
X715264Y702310D02*
Y721634D01*
X713232Y702310D02*
Y721634D01*
X711200Y702310D02*
Y721634D01*
X709168Y702310D02*
Y721634D01*
X707136Y702310D02*
Y721634D01*
X705104Y702310D02*
Y721634D01*
X703072Y702310D02*
Y721634D01*
X701040Y702310D02*
Y721634D01*
X699008Y702310D02*
Y721634D01*
X696976Y702310D02*
Y721634D01*
X694944Y702310D02*
Y721634D01*
X692912Y702310D02*
Y721634D01*
X690880Y702310D02*
Y721634D01*
X688848Y702310D02*
Y721634D01*
X686816Y702310D02*
Y721634D01*
X684784Y702310D02*
Y721634D01*
X682752Y702310D02*
Y721634D01*
X680720Y702310D02*
Y721634D01*
X678688Y702310D02*
Y721634D01*
X676656Y702310D02*
Y721634D01*
X674624Y702310D02*
Y721634D01*
X672592Y702310D02*
Y721634D01*
X670560Y702310D02*
Y721634D01*
X668528Y754126D02*
Y791464D01*
X666496Y754126D02*
Y791464D01*
X664464Y754126D02*
Y791464D01*
X662432Y754126D02*
Y791464D01*
X660400Y754126D02*
Y791464D01*
X658368Y754126D02*
Y791464D01*
X557853Y793369D02*
X562642D01*
X642903Y779497D02*
X654869Y791464D01*
X556875Y792480D02*
X562219D01*
X656336Y754126D02*
Y791464D01*
X654304Y754126D02*
Y790899D01*
X652272Y754126D02*
Y788867D01*
X650240Y754126D02*
Y786835D01*
X648208Y754126D02*
Y784803D01*
X646176Y754126D02*
Y782771D01*
X562234Y778256D02*
X564989D01*
X562129Y780288D02*
X563318D01*
X580414Y776224D02*
X635000D01*
X580414D02*
X635000D01*
X562059D02*
X567666D01*
X556768Y790029D02*
Y792392D01*
X538480Y790425D02*
Y791995D01*
X560832Y784817D02*
Y793369D01*
X558800Y788015D02*
Y793369D01*
X536448Y789051D02*
Y793825D01*
X533781Y792480D02*
X537865D01*
X533781Y794512D02*
X535852D01*
X534416Y789051D02*
Y796617D01*
X533781Y791114D02*
Y797882D01*
X556229Y790448D02*
X561540D01*
X533992D02*
X538511D01*
X558455Y788416D02*
X561214D01*
X559979Y786384D02*
X561214D01*
X534293Y789051D02*
X536887D01*
X510928Y784352D02*
X512064D01*
X509253Y782320D02*
X512064D01*
X507266Y780288D02*
X512064D01*
Y778510D02*
Y785947D01*
X644144Y754126D02*
Y780739D01*
X642112Y754126D02*
Y778779D01*
X640080Y754126D02*
Y777445D01*
X638048Y754126D02*
Y776648D01*
X636016Y754126D02*
Y776270D01*
X633984Y754126D02*
Y776224D01*
X631952Y754126D02*
Y776224D01*
X629920Y754126D02*
Y776224D01*
X627888Y754126D02*
Y776224D01*
X625856Y754126D02*
Y776224D01*
X623824Y754126D02*
Y776224D01*
X621792Y754126D02*
Y776224D01*
X619760Y754126D02*
Y776224D01*
X617728Y754126D02*
Y776224D01*
X615696Y754126D02*
Y776224D01*
X613664Y754126D02*
Y776224D01*
X611632Y754126D02*
Y776224D01*
X609600Y754126D02*
Y776224D01*
X607568Y754126D02*
Y776224D01*
X605536Y754126D02*
Y776224D01*
X603504Y754126D02*
Y776224D01*
X601472Y754126D02*
Y776224D01*
X599440Y754126D02*
Y776224D01*
X597408Y754126D02*
Y776224D01*
X595376Y754126D02*
Y776224D01*
X593344Y754126D02*
Y776224D01*
X591312Y754126D02*
Y776224D01*
X589280Y754126D02*
Y776224D01*
X587248Y754126D02*
Y776224D01*
X566928Y754126D02*
Y776678D01*
X562864Y754126D02*
Y781026D01*
X564896Y754126D02*
Y778349D01*
X512064Y753110D02*
Y785947D01*
X510032Y738866D02*
Y783223D01*
X512064Y753110D02*
Y778510D01*
X508000Y738866D02*
Y780998D01*
X585216Y754126D02*
Y776224D01*
X583184Y754126D02*
Y776224D01*
X581152Y754126D02*
Y776224D01*
X579120Y754126D02*
Y775579D01*
X577088Y754126D02*
Y774900D01*
X575056Y754126D02*
Y774574D01*
X573024Y754126D02*
Y774574D01*
X570992Y754126D02*
Y774900D01*
X568960Y754126D02*
Y775579D01*
X560832Y754126D02*
Y772203D01*
X558800Y754126D02*
Y769005D01*
X504874Y778256D02*
X512064D01*
X454386Y783590D02*
Y793823D01*
X457200Y739655D02*
Y787572D01*
X505968Y738866D02*
Y779136D01*
X455168Y741691D02*
Y791694D01*
X454386Y788416D02*
X456724D01*
X454386Y786384D02*
X457930D01*
X454386Y790448D02*
X455706D01*
X454386Y782320D02*
X461027D01*
X454386Y780288D02*
X463014D01*
X454386Y784352D02*
X459352D01*
X501904Y776224D02*
X512064D01*
X497962Y774192D02*
X512064D01*
X503936Y738866D02*
Y777561D01*
X501904Y738866D02*
Y776224D01*
X499872Y738866D02*
Y775091D01*
X497840Y738866D02*
Y774140D01*
X454386Y776224D02*
X468376D01*
X454386Y774192D02*
X472318D01*
X454386Y778256D02*
X465406D01*
X491424Y772160D02*
X512064D01*
X454386Y770128D02*
X512064D01*
X454386Y772160D02*
X478856D01*
X382270Y808736D02*
X437154D01*
X382270Y806704D02*
X437154D01*
X382270Y804672D02*
X437154D01*
X382270Y802640D02*
X437154D01*
X382270Y800608D02*
X437154D01*
Y783590D02*
Y853440D01*
X382270Y798576D02*
X437154D01*
X382270Y796544D02*
X437154D01*
X382270Y794512D02*
X437154D01*
X382270Y792480D02*
X437154D01*
X382270Y790448D02*
X437154D01*
X382270Y788416D02*
X437154D01*
X382270Y786384D02*
X437154D01*
X382270Y784352D02*
X437154D01*
X382270Y782320D02*
X437154D01*
X454386Y765810D02*
Y783590D01*
X382270Y780288D02*
X437154D01*
Y765810D02*
Y783590D01*
X382270Y778256D02*
X437154D01*
X382270Y776224D02*
X437154D01*
X382270Y774192D02*
X437154D01*
X382270Y772160D02*
X437154D01*
X382270Y770128D02*
X437154D01*
X469392Y738866D02*
Y775633D01*
X471424Y738866D02*
Y774594D01*
X467360Y738866D02*
Y776865D01*
X463296Y738866D02*
Y780027D01*
X465328Y738866D02*
Y778316D01*
X461264Y738866D02*
Y782058D01*
X436880Y702310D02*
Y914400D01*
X459232Y738870D02*
Y784511D01*
X434848Y702310D02*
Y914400D01*
X432816Y702310D02*
Y914400D01*
X430784Y702310D02*
Y914400D01*
X428752Y702310D02*
Y914400D01*
X495808Y738866D02*
Y773353D01*
X493776Y738866D02*
Y772717D01*
X491744Y738866D02*
Y772225D01*
X489712Y738866D02*
Y771869D01*
X487680Y738866D02*
Y771644D01*
X485648Y738866D02*
Y771548D01*
X483616Y738866D02*
Y771580D01*
X481584Y738866D02*
Y771740D01*
X479552Y738866D02*
Y772030D01*
X475488Y738866D02*
Y773017D01*
X477520Y738866D02*
Y772454D01*
X473456Y738866D02*
Y773727D01*
X426720Y702310D02*
Y914400D01*
X424688Y702310D02*
Y914400D01*
X422656Y702310D02*
Y914400D01*
X420624Y702310D02*
Y914400D01*
X418592Y702310D02*
Y914400D01*
X416560Y702310D02*
Y914400D01*
X414528Y702310D02*
Y914400D01*
X412496Y702310D02*
Y914400D01*
X410464Y702310D02*
Y914400D01*
X408432Y702310D02*
Y914400D01*
X406400Y702310D02*
Y914400D01*
X404368Y702310D02*
Y914400D01*
X402336Y702310D02*
Y914400D01*
X400304Y702310D02*
Y914400D01*
X398272Y702310D02*
Y914400D01*
X396240Y702310D02*
Y914400D01*
X394208Y702310D02*
Y914400D01*
X392176Y702310D02*
Y914400D01*
X390144Y702310D02*
Y914400D01*
X388112Y702310D02*
Y914400D01*
X386080Y702310D02*
Y914400D01*
X384048Y702310D02*
Y914400D01*
X382270Y702310D02*
Y914400D01*
X668528Y702310D02*
Y721634D01*
X666496Y702310D02*
Y721634D01*
X664464Y702310D02*
Y721634D01*
X662432Y702310D02*
Y721634D01*
X660400Y702310D02*
Y721634D01*
X658368Y702310D02*
Y721634D01*
X656336Y702310D02*
Y721634D01*
X654304Y702310D02*
Y721634D01*
X652272Y702310D02*
Y721634D01*
X650240Y702310D02*
Y721634D01*
X648208Y702310D02*
Y721634D01*
X646176Y702310D02*
Y721634D01*
X644144Y702310D02*
Y721634D01*
X642112Y702310D02*
Y721634D01*
X640080Y702310D02*
Y721634D01*
X638048Y702310D02*
Y721634D01*
X636016Y702310D02*
Y721634D01*
X633984Y702310D02*
Y721634D01*
X631952Y702310D02*
Y721634D01*
X629920Y702310D02*
Y721634D01*
X627888Y702310D02*
Y721634D01*
X625856Y702310D02*
Y721634D01*
X623824Y702310D02*
Y721634D01*
X621792Y702310D02*
Y721634D01*
X556768Y754126D02*
Y766992D01*
X554736Y754126D02*
Y765597D01*
X552704Y754126D02*
Y764634D01*
X542544Y754126D02*
Y764449D01*
X550672Y754126D02*
Y764015D01*
X540512Y754126D02*
Y765320D01*
X534416Y767969D02*
X536887D01*
X534416Y766064D02*
X539240D01*
X534416Y757739D02*
Y767969D01*
X536448Y755707D02*
Y767969D01*
X538480Y754126D02*
Y766595D01*
X534416Y757739D02*
Y767969D01*
X548640Y754126D02*
Y763698D01*
X619760Y702310D02*
Y721634D01*
X546608Y754126D02*
Y763663D01*
X617728Y702310D02*
Y721634D01*
X615696Y702310D02*
Y721634D01*
X613664Y702310D02*
Y721634D01*
X534416Y764032D02*
X543996D01*
X544576Y754126D02*
Y763909D01*
X534416Y757739D02*
X538029Y754126D01*
X520192Y738866D02*
Y740353D01*
X518160Y738866D02*
Y742385D01*
X611632Y702310D02*
Y721634D01*
X609600Y702310D02*
Y721634D01*
X607568Y702310D02*
Y721634D01*
X605536Y702310D02*
Y721634D01*
X603504Y702310D02*
Y721634D01*
X601472Y702310D02*
Y721634D01*
X599440Y702310D02*
Y721634D01*
X597408Y702310D02*
Y721634D01*
X595376Y702310D02*
Y721634D01*
X593344Y702310D02*
Y721634D01*
X591312Y702310D02*
Y721634D01*
X589280Y702310D02*
Y721634D01*
X587248Y702310D02*
Y721634D01*
X585216Y702310D02*
Y721634D01*
X583184Y702310D02*
Y721634D01*
X581152Y702310D02*
Y721634D01*
X579120Y702310D02*
Y721634D01*
X577088Y702310D02*
Y721634D01*
X575056Y702310D02*
Y721634D01*
X573024Y702310D02*
Y721634D01*
X570992Y702310D02*
Y721634D01*
X568960Y702310D02*
Y721634D01*
X566928Y702310D02*
Y721634D01*
X564896Y702310D02*
Y721634D01*
X562864Y702310D02*
Y721634D01*
X560832Y702310D02*
Y721634D01*
X558800Y702310D02*
Y721634D01*
X556768Y702310D02*
Y721634D01*
X554736Y702310D02*
Y721634D01*
X552704Y702310D02*
Y721634D01*
X550672Y702310D02*
Y721634D01*
X548640Y702310D02*
Y721634D01*
X546608Y702310D02*
Y721634D01*
X544576Y702310D02*
Y721634D01*
X542544Y702310D02*
Y721634D01*
X540512Y702310D02*
Y721634D01*
X538480Y702310D02*
Y721634D01*
X536448Y702310D02*
Y721634D01*
X534416Y702310D02*
Y721634D01*
X532384Y702310D02*
Y721634D01*
X530352Y702310D02*
Y721634D01*
X528320Y702310D02*
Y721634D01*
X526288Y702310D02*
Y721634D01*
X524256Y702310D02*
Y721634D01*
X522224Y702310D02*
Y721634D01*
X520192Y702310D02*
Y721634D01*
X518160Y702310D02*
Y721634D01*
X454386Y768096D02*
X512064D01*
X454386Y766064D02*
X512064D01*
X454386Y764032D02*
X512064D01*
Y738866D02*
Y753110D01*
X454386Y762000D02*
X512064D01*
X454386Y759968D02*
X512064D01*
X454386Y757936D02*
X512064D01*
X454386Y755904D02*
X512064D01*
X454386Y753872D02*
X512064D01*
X454386Y751840D02*
X512136D01*
X515337Y745207D02*
X521679Y738866D01*
X457211Y739648D02*
X520897D01*
X516128Y738866D02*
Y744417D01*
X514096Y738866D02*
Y746684D01*
X464820Y738866D02*
X521679D01*
X459256D02*
X464820D01*
X454386Y747776D02*
X513419D01*
X454346Y745744D02*
X514835D01*
X454386Y749808D02*
X512563D01*
X454390Y743712D02*
X516833D01*
X455175Y741680D02*
X518865D01*
X382270Y768096D02*
X437154D01*
X454386Y762000D02*
Y765810D01*
X382270Y766064D02*
X437154D01*
Y762000D02*
Y765810D01*
X454386Y747348D02*
Y762000D01*
X437154Y747443D02*
Y762000D01*
X382270Y764032D02*
X437154D01*
X382270Y762000D02*
X437154D01*
X382270Y759968D02*
X437154D01*
X382270Y757936D02*
X437154D01*
X382270Y755904D02*
X437154D01*
X382270Y753872D02*
X437154D01*
X382270Y751840D02*
X437154D01*
X382270Y749808D02*
X437154D01*
X382270Y747776D02*
X437154D01*
X382270Y745744D02*
X437027D01*
X382270Y743712D02*
X437038D01*
X382270Y741680D02*
X437227D01*
X382270Y737616D02*
X438160D01*
X382270Y739648D02*
X437598D01*
X382270Y733552D02*
X439926D01*
X382270Y735584D02*
X438928D01*
X516128Y702310D02*
Y721634D01*
X514096Y702310D02*
Y721634D01*
X512064Y702310D02*
Y721634D01*
X510032Y702310D02*
Y721634D01*
X508000Y702310D02*
Y721634D01*
X505968Y702310D02*
Y721634D01*
X503936Y702310D02*
Y721634D01*
X501904Y702310D02*
Y721634D01*
X499872Y702310D02*
Y721634D01*
X497840Y702310D02*
Y721634D01*
X495808Y702310D02*
Y721634D01*
X493776Y702310D02*
Y721634D01*
X491744Y702310D02*
Y721634D01*
X489712Y702310D02*
Y721634D01*
X487680Y702310D02*
Y721634D01*
X485648Y702310D02*
Y721634D01*
X483616Y702310D02*
Y721634D01*
X481584Y702310D02*
Y721634D01*
X479552Y702310D02*
Y721634D01*
X477520Y702310D02*
Y721634D01*
X475488Y702310D02*
Y721634D01*
X473456Y702310D02*
Y721634D01*
X471424Y702310D02*
Y721634D01*
X469392Y702310D02*
Y721634D01*
X447040Y702310D02*
Y725669D01*
X449072Y702310D02*
Y724406D01*
X445008Y702310D02*
Y727255D01*
X440944Y702310D02*
Y731880D01*
X442976Y702310D02*
Y729261D01*
X438912Y702310D02*
Y735622D01*
X382270Y729488D02*
X442775D01*
X382270Y727456D02*
X444781D01*
X382270Y731520D02*
X441189D01*
X382270Y723392D02*
X451142D01*
X382270Y725424D02*
X447400D01*
X467360Y702310D02*
Y721634D01*
X465328Y702310D02*
Y721634D01*
X459058D02*
X464820D01*
X463296Y702310D02*
Y721634D01*
X461264Y702310D02*
Y721634D01*
X459232Y702310D02*
Y721634D01*
X457200Y702310D02*
Y721707D01*
X455168Y702310D02*
Y722078D01*
X453136Y702310D02*
Y722640D01*
X451104Y702310D02*
Y723408D01*
D11*
X811530Y859790D02*
D03*
X830530D02*
D03*
X811530Y839470D02*
D03*
X830530D02*
D03*
X622250D02*
D03*
X603250D02*
D03*
X650290D02*
D03*
X669290D02*
D03*
D12*
X804525Y866795D02*
X811530Y859790D01*
Y839470D02*
Y859790D01*
X830530Y839470D02*
Y859790D01*
X775970Y822960D02*
Y849630D01*
X829310Y838250D02*
X830530Y839470D01*
X875030Y820420D02*
X892810Y838200D01*
X1116330Y763270D02*
X1118870Y765810D01*
X523240Y787400D02*
Y858520D01*
X531515Y866795D01*
X632460Y803910D02*
X648970Y820420D01*
X1485900Y842010D02*
X1493520Y834390D01*
X1518920D01*
X1522730Y808990D02*
X1539240D01*
X1550670Y820420D01*
Y847090D01*
X1540510Y857250D02*
X1550670Y847090D01*
X1499870Y857250D02*
X1540510D01*
X1493520Y863600D02*
X1499870Y857250D01*
Y783590D02*
X1522730D01*
X1490980Y792480D02*
X1499870Y783590D01*
X1490980Y792480D02*
Y816610D01*
X1477010Y830580D02*
X1490980Y816610D01*
X1139190Y830580D02*
X1477010D01*
X1116330Y807720D02*
X1139190Y830580D01*
X1033780Y807720D02*
X1116330D01*
X1013460Y828040D02*
X1033780Y807720D01*
X1013460Y828040D02*
Y838200D01*
X1014730Y839470D01*
X699770Y830580D02*
Y831850D01*
X1116330Y763270D02*
Y784860D01*
X1145540Y814070D01*
X1206500D01*
X523240Y778510D02*
X547370D01*
X750570Y849630D02*
Y866795D01*
X531515D02*
X750570D01*
X804525D01*
X1065530Y763270D02*
X1090930D01*
X1116330D01*
X1090930Y839470D02*
X1116330D01*
X1117600D01*
X1118870D01*
Y840740D01*
X1117600Y839470D02*
X1118870Y840740D01*
X1518920Y834390D02*
X1520825Y836295D01*
X1521460Y836930D01*
X1116330Y842010D02*
X1209040D01*
X1485900D01*
X547370Y803910D02*
X603250D01*
X632460D01*
X603250D02*
Y839470D01*
X648970Y820420D02*
X829310D01*
X875030D01*
X829310D02*
Y838250D01*
X892810Y838200D02*
X938530D01*
X941070D01*
X829310Y863600D02*
X830530D01*
X1493520D01*
D13*
X986790Y821690D02*
X989330Y824230D01*
X900430Y821690D02*
X986790D01*
X881380Y802640D02*
X900430Y821690D01*
X650240Y802640D02*
X881380D01*
X635000Y787400D02*
X650240Y802640D01*
X575310Y787400D02*
X635000D01*
X547370Y829310D02*
X574040D01*
X725170Y831850D02*
Y849630D01*
X699770Y831850D02*
Y849630D01*
X989330Y763270D02*
Y783590D01*
X985520Y787400D02*
X989330Y783590D01*
X906780Y787400D02*
X985520D01*
X891540Y772160D02*
X906780Y787400D01*
X699770Y789940D02*
X887730D01*
X901700Y803910D01*
X1007110D01*
X1019810Y791210D01*
X1065530Y820420D02*
Y839470D01*
Y753110D02*
Y763270D01*
X1055370Y742950D02*
X1065530Y753110D01*
X533400Y742950D02*
X1055370D01*
X523240Y753110D02*
X533400Y742950D01*
X622250Y839470D02*
X650290D01*
X989330Y824230D02*
Y839470D01*
Y842010D01*
X1019810Y791210D02*
X1064260D01*
X1065530D01*
X725170Y772160D02*
X891540D01*
X523240Y753110D02*
Y778510D01*
Y787400D01*
X671830Y838200D02*
Y839470D01*
Y866160D01*
D14*
X1522730Y834390D02*
D03*
Y808990D02*
D03*
X547370Y778510D02*
D03*
Y803910D02*
D03*
X750570Y849630D02*
D03*
X725170D02*
D03*
X699770D02*
D03*
D15*
X1522730Y783590D02*
D03*
X547370Y829310D02*
D03*
X775970Y849630D02*
D03*
D16*
X485140Y803910D02*
D03*
X1581150Y807720D02*
D03*
D17*
X938530Y763270D02*
D03*
D18*
X963930D02*
D03*
X989330D02*
D03*
X1014730D02*
D03*
X1040130D02*
D03*
X1065530D02*
D03*
X1090930D02*
D03*
X1116330D02*
D03*
X938530Y839470D02*
D03*
X963930D02*
D03*
X989330D02*
D03*
X1014730D02*
D03*
X1040130D02*
D03*
X1065530D02*
D03*
X1090930D02*
D03*
X1116330D02*
D03*
D19*
X574040Y829310D02*
D03*
Y787400D02*
D03*
X699770Y831850D02*
D03*
X725170D02*
D03*
X699770Y789940D02*
D03*
X725170Y773430D02*
D03*
X1064260Y791210D02*
D03*
X1065530Y820420D02*
D03*
X1209040Y812800D02*
D03*
Y842010D02*
D03*
M02*
