%FSLAX44Y44*%
%MOMM*%
G71*
G01*
G75*
%ADD10C,0.2032*%
%ADD11R,1.3000X1.5000*%
%ADD12C,0.6350*%
%ADD13C,0.7620*%
%ADD14C,1.5000*%
%ADD15R,1.5000X1.5000*%
%ADD16C,5.0000*%
%ADD17R,1.5000X1.5000*%
%ADD18C,1.5000*%
%ADD19C,1.1000*%
%ADD20C,0.2540*%
%ADD21C,0.2500*%
%ADD22C,0.1693*%
D10*
X1517650Y829310D02*
Y839470D01*
X1527810D01*
Y829310D01*
X1517650D01*
Y803910D02*
Y814070D01*
X1527810D01*
Y803910D01*
X1517650D01*
Y778510D02*
Y788670D01*
X1527810D01*
Y778510D01*
X1517650D01*
X542290Y773430D02*
Y783590D01*
X552450D01*
Y773430D01*
X542290D01*
Y798830D02*
Y808990D01*
X552450D01*
Y798830D01*
X542290D01*
Y824230D02*
Y834390D01*
X552450D01*
Y824230D01*
X542290D01*
X770890Y844550D02*
Y854710D01*
X781050D01*
Y844550D01*
X770890D01*
X745490D02*
Y854710D01*
X755650D01*
Y844550D01*
X745490D01*
X720090D02*
Y854710D01*
X730250D01*
Y844550D01*
X720090D01*
X694690D02*
Y854710D01*
X704850D01*
Y844550D01*
X694690D01*
D22*
X490220Y803910D02*
X489638Y806271D01*
X488026Y808091D01*
X485752Y808953D01*
X483339Y808660D01*
X481338Y807279D01*
X480208Y805126D01*
Y802694D01*
X481338Y800541D01*
X483339Y799160D01*
X485752Y798867D01*
X488026Y799729D01*
X489638Y801549D01*
X490220Y803910D01*
X1586230Y807720D02*
X1585648Y810081D01*
X1584036Y811901D01*
X1581762Y812763D01*
X1579349Y812470D01*
X1577348Y811089D01*
X1576218Y808936D01*
Y806504D01*
X1577348Y804351D01*
X1579349Y802970D01*
X1581762Y802677D01*
X1584036Y803539D01*
X1585648Y805359D01*
X1586230Y807720D01*
X933450Y758190D02*
Y768350D01*
X943610D01*
Y758190D01*
X933450D01*
X958850D02*
Y768350D01*
X969010D01*
Y758190D01*
X958850D01*
X984250D02*
Y768350D01*
X994410D01*
Y758190D01*
X984250D01*
X1009650D02*
Y768350D01*
X1019810D01*
Y758190D01*
X1009650D01*
X1035050D02*
Y768350D01*
X1045210D01*
Y758190D01*
X1035050D01*
X1060450D02*
Y768350D01*
X1070610D01*
Y758190D01*
X1060450D01*
X1085850D02*
Y768350D01*
X1096010D01*
Y758190D01*
X1085850D01*
X1111250D02*
Y768350D01*
X1121410D01*
Y758190D01*
X1111250D01*
X933450Y834390D02*
Y844550D01*
X943610D01*
Y834390D01*
X933450D01*
X958850D02*
Y844550D01*
X969010D01*
Y834390D01*
X958850D01*
X984250D02*
Y844550D01*
X994410D01*
Y834390D01*
X984250D01*
X1009650D02*
Y844550D01*
X1019810D01*
Y834390D01*
X1009650D01*
X1035050D02*
Y844550D01*
X1045210D01*
Y834390D01*
X1035050D01*
X1060450D02*
Y844550D01*
X1070610D01*
Y834390D01*
X1060450D01*
X1085850D02*
Y844550D01*
X1096010D01*
Y834390D01*
X1085850D01*
X1111250D02*
Y844550D01*
X1121410D01*
Y834390D01*
X1111250D01*
X574040Y824230D02*
X568960Y834390D01*
X579120D01*
X574040Y824230D01*
Y782320D02*
X568960Y792480D01*
X579120D01*
X574040Y782320D01*
X699770Y826770D02*
X694690Y836930D01*
X704850D01*
X699770Y826770D01*
X725170D02*
X720090Y836930D01*
X730250D01*
X725170Y826770D01*
X699770Y784860D02*
X694690Y795020D01*
X704850D01*
X699770Y784860D01*
X725170Y768350D02*
X720090Y778510D01*
X730250D01*
X725170Y768350D01*
X1064260Y786130D02*
X1059180Y796290D01*
X1069340D01*
X1064260Y786130D01*
X1065530Y815340D02*
X1060450Y825500D01*
X1070610D01*
X1065530Y815340D01*
X1209040Y807720D02*
X1203960Y817880D01*
X1214120D01*
X1209040Y807720D01*
Y836930D02*
X1203960Y847090D01*
X1214120D01*
X1209040Y836930D01*
M02*
