M71
M48
T1F00S00C0.9000
T2F00S00C3.0000
T3F00S00C0.7000
%
T01
X0152273Y0078359
X0111633Y0076327
X0109093
X0106553
X0104013
X0101473
X0098933
X0096393
X0093853
X0054737Y0077851
Y0080391
Y0082931
X0069977Y0084963
X0072517
X0075057
X0077597
X0093853Y0083947
X0096393
X0098933
X0101473
X0104013
X0106553
X0109093
X0111633
X0152273Y0083439
Y0080899
T02
X0048514Y0080391
X0158115Y0080772
T03
X0106426Y0079121
X0072517Y0077343
X0069977Y0078994
X0057404Y007874
Y0082931
X0069977Y0083185
X0072517
X0106553Y0082042
X0120904Y008128
Y0084201
M30
