%FSLAX44Y44*%
%MOMM*%
G71*
G01*
G75*
G04 Layer_Physical_Order=1*
G04 Layer_Color=255*
%ADD10C,0.2032*%
%ADD11R,1.1430X1.1430*%
%ADD12R,1.1430X1.1430*%
%ADD13R,0.6000X2.2000*%
%ADD14R,0.6000X2.2000*%
%ADD15C,0.5080*%
%ADD16R,1.5000X1.5000*%
%ADD17C,1.7780*%
%ADD18O,1.5240X1.0160*%
%ADD19O,1.5000X1.0160*%
%ADD20C,1.5000*%
%ADD21R,1.5000X1.5000*%
%ADD22O,1.3970X2.0320*%
%ADD23C,3.0000*%
%ADD24C,3.0480*%
%ADD25C,1.6510*%
D10*
X1431544Y1208186D02*
X1429380Y1209515D01*
X1427093Y1210619D01*
X1424707Y1211487D01*
X1422245Y1212109D01*
X1419733Y1212480D01*
X1417196Y1212596D01*
X1414661Y1212455D01*
X1412153Y1212059D01*
X1409697Y1211413D01*
X1407319Y1210522D01*
X1405043Y1209396D01*
X1402893Y1208046D01*
X1400889Y1206486D01*
X1399053Y1204731D01*
X1397404Y1202801D01*
X1395957Y1200714D01*
X1394728Y1198492D01*
X1393730Y1196157D01*
X1392972Y1193734D01*
X1392462Y1191246D01*
X1392206Y1188720D01*
Y1186180D01*
X1392462Y1183654D01*
X1392972Y1181166D01*
X1393730Y1178743D01*
X1394728Y1176408D01*
X1395957Y1174186D01*
X1397404Y1172099D01*
X1399053Y1170169D01*
X1400889Y1168415D01*
X1402893Y1166854D01*
X1405043Y1165505D01*
X1407319Y1164378D01*
X1409697Y1163487D01*
X1412153Y1162841D01*
X1414661Y1162445D01*
X1417196Y1162304D01*
X1419733Y1162420D01*
X1422245Y1162791D01*
X1424707Y1163413D01*
X1427093Y1164281D01*
X1429380Y1165385D01*
X1431544Y1166713D01*
X1431544Y1208186D02*
X1429380Y1209515D01*
X1427093Y1210619D01*
X1424707Y1211487D01*
X1422245Y1212109D01*
X1419733Y1212480D01*
X1417196Y1212596D01*
X1414661Y1212455D01*
X1412153Y1212059D01*
X1409697Y1211413D01*
X1407319Y1210522D01*
X1405043Y1209396D01*
X1402893Y1208046D01*
X1400889Y1206486D01*
X1399053Y1204731D01*
X1397404Y1202801D01*
X1395957Y1200714D01*
X1394728Y1198492D01*
X1393730Y1196157D01*
X1392972Y1193734D01*
X1392462Y1191246D01*
X1392206Y1188720D01*
Y1186180D01*
X1392462Y1183654D01*
X1392972Y1181166D01*
X1393730Y1178743D01*
X1394728Y1176408D01*
X1395957Y1174186D01*
X1397404Y1172099D01*
X1399053Y1170169D01*
X1400889Y1168415D01*
X1402893Y1166854D01*
X1405043Y1165505D01*
X1407319Y1164378D01*
X1409697Y1163487D01*
X1412153Y1162841D01*
X1414661Y1162445D01*
X1417196Y1162304D01*
X1419733Y1162420D01*
X1422245Y1162791D01*
X1424707Y1163413D01*
X1427093Y1164281D01*
X1429380Y1165385D01*
X1431544Y1166713D01*
X1431544Y1117187D02*
X1429720Y1119025D01*
X1427661Y1120595D01*
X1425406Y1121868D01*
X1422998Y1122818D01*
X1420481Y1123428D01*
X1417905Y1123687D01*
X1415317Y1123589D01*
X1412768Y1123136D01*
X1410305Y1122338D01*
X1407975Y1121208D01*
X1405822Y1119769D01*
X1403888Y1118048D01*
X1402208Y1116077D01*
X1400815Y1113894D01*
X1399736Y1111540D01*
X1398990Y1109061D01*
X1398592Y1106502D01*
X1398550Y1103913D01*
X1398864Y1101343D01*
X1399528Y1098840D01*
X1400529Y1096452D01*
X1401850Y1094225D01*
X1403464Y1092200D01*
X1400715Y1045294D02*
X1401965Y1043259D01*
X1403464Y1041400D01*
X1401882Y1039421D01*
X1400580Y1037248D01*
X1399583Y1034919D01*
X1398907Y1032477D01*
X1398567Y1029967D01*
Y1027433D01*
X1398907Y1024923D01*
X1399583Y1022481D01*
X1400580Y1020152D01*
X1401882Y1017979D01*
X1403464Y1016000D01*
X1386751Y1022439D02*
X1388298Y1024325D01*
X1389449Y1026477D01*
X1390157Y1028812D01*
X1390396Y1031240D01*
X1386739Y1022427D02*
X1388291Y1024315D01*
X1389445Y1026469D01*
X1390156Y1028808D01*
X1390396Y1031240D01*
X1403464Y990600D02*
X1401882Y988621D01*
X1400580Y986448D01*
X1399583Y984119D01*
X1398907Y981677D01*
X1398567Y979167D01*
Y976633D01*
X1398907Y974123D01*
X1399583Y971681D01*
X1400580Y969352D01*
X1401882Y967179D01*
X1403464Y965200D01*
Y939800D02*
X1401850Y937775D01*
X1400529Y935548D01*
X1399528Y933160D01*
X1398864Y930657D01*
X1398550Y928087D01*
X1398592Y925498D01*
X1398990Y922939D01*
X1399736Y920460D01*
X1400815Y918106D01*
X1402208Y915923D01*
X1403888Y913952D01*
X1405822Y912231D01*
X1407975Y910792D01*
X1410305Y909662D01*
X1412768Y908864D01*
X1415317Y908411D01*
X1417905Y908313D01*
X1420481Y908572D01*
X1422998Y909182D01*
X1425406Y910132D01*
X1427661Y911405D01*
X1429720Y912975D01*
X1431544Y914813D01*
X1403464Y1016000D02*
X1401882Y1014021D01*
X1400580Y1011848D01*
X1399583Y1009519D01*
X1398907Y1007077D01*
X1398567Y1004567D01*
Y1002033D01*
X1398907Y999523D01*
X1399583Y997081D01*
X1400580Y994752D01*
X1401882Y992579D01*
X1403464Y990600D01*
Y965200D02*
X1401882Y963221D01*
X1400580Y961048D01*
X1399583Y958719D01*
X1398907Y956277D01*
X1398567Y953767D01*
Y951233D01*
X1398907Y948723D01*
X1399583Y946281D01*
X1400580Y943952D01*
X1401882Y941779D01*
X1403464Y939800D01*
X1431544Y901287D02*
X1429720Y903125D01*
X1427661Y904695D01*
X1425406Y905968D01*
X1422998Y906918D01*
X1420481Y907528D01*
X1417905Y907787D01*
X1415317Y907689D01*
X1412768Y907236D01*
X1410305Y906438D01*
X1407975Y905308D01*
X1405822Y903869D01*
X1403888Y902148D01*
X1402208Y900177D01*
X1400815Y897994D01*
X1399736Y895640D01*
X1398990Y893161D01*
X1398592Y890602D01*
X1398550Y888013D01*
X1398864Y885443D01*
X1399528Y882940D01*
X1400529Y880552D01*
X1401850Y878325D01*
X1403464Y876300D01*
X1401882Y874321D01*
X1400580Y872148D01*
X1399583Y869819D01*
X1398907Y867377D01*
X1398567Y864867D01*
Y862333D01*
X1398907Y859823D01*
X1399583Y857381D01*
X1400580Y855052D01*
X1401882Y852879D01*
X1403464Y850900D01*
X1401882Y848921D01*
X1400580Y846748D01*
X1399583Y844419D01*
X1398907Y841977D01*
X1398567Y839467D01*
Y836933D01*
X1398907Y834423D01*
X1399583Y831981D01*
X1400580Y829652D01*
X1401882Y827479D01*
X1403464Y825500D01*
X1401882Y823521D01*
X1400580Y821348D01*
X1399583Y819019D01*
X1398907Y816577D01*
X1398567Y814067D01*
Y811533D01*
X1398907Y809023D01*
X1399583Y806581D01*
X1400580Y804252D01*
X1401882Y802079D01*
X1403464Y800100D01*
X1366407Y1198880D02*
X1366270Y1201492D01*
X1365859Y1204074D01*
X1365180Y1206600D01*
X1364240Y1209041D01*
X1363049Y1211369D01*
X1361621Y1213560D01*
X1359971Y1215589D01*
X1358117Y1217433D01*
X1356080Y1219073D01*
X1353882Y1220491D01*
X1351548Y1221670D01*
X1349102Y1222598D01*
X1346573Y1223264D01*
X1353947Y1177307D02*
X1356134Y1178726D01*
X1358162Y1180367D01*
X1360006Y1182210D01*
X1361647Y1184237D01*
X1363068Y1186423D01*
X1364252Y1188747D01*
X1365187Y1191181D01*
X1365862Y1193700D01*
X1366270Y1196276D01*
X1366407Y1198880D01*
X1350290Y1134568D02*
X1351842Y1136456D01*
X1352996Y1138610D01*
X1353707Y1140949D01*
X1353947Y1143381D01*
X1350302Y1134580D02*
X1351850Y1136466D01*
X1353000Y1138618D01*
X1353708Y1140953D01*
X1353947Y1143381D01*
X1336429Y1223264D02*
X1334007Y1222632D01*
X1331660Y1221759D01*
X1329413Y1220656D01*
X1327288Y1219333D01*
X1325307Y1217803D01*
X1323489Y1216081D01*
X1321854Y1214186D01*
X1320416Y1212137D01*
X1319192Y1209954D01*
X1318193Y1207658D01*
X1317430Y1205274D01*
X1316909Y1202826D01*
X1316638Y1200337D01*
X1316617Y1197834D01*
X1316848Y1195341D01*
X1317327Y1192885D01*
X1318051Y1190488D01*
X1319012Y1188177D01*
X1320200Y1185973D01*
X1321603Y1183900D01*
X1323208Y1181979D01*
X1324997Y1180228D01*
X1326952Y1178665D01*
X1329055Y1177307D01*
X1314845Y1198880D02*
X1314708Y1201492D01*
X1314297Y1204074D01*
X1313618Y1206600D01*
X1312678Y1209041D01*
X1311487Y1211369D01*
X1310059Y1213560D01*
X1308409Y1215589D01*
X1306555Y1217433D01*
X1304518Y1219073D01*
X1302320Y1220491D01*
X1299986Y1221670D01*
X1297540Y1222598D01*
X1295011Y1223264D01*
X1284867D02*
X1282444Y1222632D01*
X1280098Y1221759D01*
X1277851Y1220656D01*
X1275726Y1219333D01*
X1273745Y1217803D01*
X1271927Y1216081D01*
X1270292Y1214186D01*
X1268854Y1212137D01*
X1267630Y1209954D01*
X1266631Y1207658D01*
X1265868Y1205274D01*
X1265348Y1202826D01*
X1265076Y1200337D01*
X1265055Y1197834D01*
X1265286Y1195341D01*
X1265765Y1192885D01*
X1266489Y1190488D01*
X1267450Y1188177D01*
X1268638Y1185973D01*
X1270041Y1183900D01*
X1271646Y1181979D01*
X1273435Y1180228D01*
X1275390Y1178665D01*
X1277493Y1177307D01*
X1302385D02*
X1304572Y1178726D01*
X1306600Y1180367D01*
X1308444Y1182210D01*
X1310085Y1184237D01*
X1311506Y1186423D01*
X1312690Y1188747D01*
X1313625Y1191181D01*
X1314300Y1193700D01*
X1314709Y1196276D01*
X1314845Y1198880D01*
X1356360Y1091946D02*
X1353928Y1091706D01*
X1351589Y1090995D01*
X1349435Y1089841D01*
X1347547Y1088289D01*
X1356360Y1091946D02*
X1353932Y1091707D01*
X1351597Y1090999D01*
X1349445Y1089848D01*
X1347559Y1088301D01*
X1347181Y1018073D02*
X1348138Y1020699D01*
X1347181Y1018073D02*
X1348138Y1020699D01*
X1325880Y1001014D02*
X1328729Y1001345D01*
X1331427Y1002319D01*
X1325880Y1001014D02*
X1328729Y1001345D01*
X1331427Y1002319D01*
X1363726Y816610D02*
X1363479Y819435D01*
X1362744Y822175D01*
X1361544Y824745D01*
X1359916Y827067D01*
Y844550D02*
X1359676Y846982D01*
X1358965Y849321D01*
X1357811Y851475D01*
X1356259Y853363D01*
X1359916Y844550D02*
X1359677Y846978D01*
X1358969Y849313D01*
X1357818Y851465D01*
X1356271Y853351D01*
X1356796Y803295D02*
X1358798Y804951D01*
X1360510Y806904D01*
X1361890Y809105D01*
X1362901Y811497D01*
X1363519Y814021D01*
X1363726Y816610D01*
X1322159Y993051D02*
X1320612Y991165D01*
X1319461Y989013D01*
X1318753Y986678D01*
X1318514Y984250D01*
X1322171Y993063D02*
X1320619Y991175D01*
X1319465Y989021D01*
X1318754Y986682D01*
X1318514Y984250D01*
X1297851Y994321D02*
X1295965Y995869D01*
X1293813Y997019D01*
X1291478Y997727D01*
X1289050Y997966D01*
X1297863Y994309D02*
X1295975Y995861D01*
X1293821Y997015D01*
X1291482Y997726D01*
X1289050Y997966D01*
X1258885Y829174D02*
X1259305Y826653D01*
X1260116Y824230D01*
X1261296Y821963D01*
X1262816Y819910D01*
X1264640Y818120D01*
X1266722Y816637D01*
X1269010Y815500D01*
X1271448Y814735D01*
X1273976Y814361D01*
X1276531Y814389D01*
X1279051Y814816D01*
X1281472Y815633D01*
X1283735Y816820D01*
X1285784Y818346D01*
X1287569Y820175D01*
X1289046Y822260D01*
X1290177Y824552D01*
X1210387Y927201D02*
X1212275Y925649D01*
X1214429Y924495D01*
X1216768Y923784D01*
X1219200Y923544D01*
X1210399Y927189D02*
X1212285Y925641D01*
X1214437Y924491D01*
X1216772Y923783D01*
X1219200Y923544D01*
X1403464Y800100D02*
X1401882Y798121D01*
X1400580Y795948D01*
X1399583Y793619D01*
X1398907Y791177D01*
X1398567Y788667D01*
Y786133D01*
X1398907Y783623D01*
X1399583Y781181D01*
X1400580Y778852D01*
X1401882Y776679D01*
X1403464Y774700D01*
X1401882Y772721D01*
X1400580Y770548D01*
X1399583Y768219D01*
X1398907Y765777D01*
X1398567Y763267D01*
Y760733D01*
X1398907Y758223D01*
X1399583Y755781D01*
X1400580Y753452D01*
X1401882Y751279D01*
X1403464Y749300D01*
X1401882Y747321D01*
X1400580Y745148D01*
X1399583Y742819D01*
X1398907Y740377D01*
X1398567Y737867D01*
Y735333D01*
X1398907Y732823D01*
X1399583Y730381D01*
X1400580Y728052D01*
X1401882Y725879D01*
X1403464Y723900D01*
X1401850Y721875D01*
X1400529Y719648D01*
X1399528Y717260D01*
X1398864Y714757D01*
X1398550Y712187D01*
X1398592Y709598D01*
X1398990Y707039D01*
X1399736Y704560D01*
X1400815Y702206D01*
X1402208Y700023D01*
X1403888Y698052D01*
X1405822Y696331D01*
X1407975Y694892D01*
X1410305Y693762D01*
X1412768Y692964D01*
X1415317Y692511D01*
X1417905Y692413D01*
X1420481Y692672D01*
X1422998Y693282D01*
X1425406Y694232D01*
X1427661Y695505D01*
X1429720Y697075D01*
X1431544Y698913D01*
Y672687D02*
X1429702Y674541D01*
X1427621Y676122D01*
X1425341Y677399D01*
X1422906Y678347D01*
X1420363Y678948D01*
X1417761Y679191D01*
X1415150Y679070D01*
X1412582Y678589D01*
X1410105Y677756D01*
X1407767Y676587D01*
X1405614Y675106D01*
Y675106D02*
X1405277Y677337D01*
X1404543Y679471D01*
X1403435Y681437D01*
X1401991Y683171D01*
X1405614Y675106D02*
X1405276Y677341D01*
X1404539Y679479D01*
X1403428Y681447D01*
X1401979Y683183D01*
X1373886Y781050D02*
X1373647Y783478D01*
X1372939Y785813D01*
X1371788Y787965D01*
X1370241Y789851D01*
X1373886Y781050D02*
X1373646Y783482D01*
X1372935Y785821D01*
X1371781Y787975D01*
X1370229Y789863D01*
X1335024Y702310D02*
X1335264Y699878D01*
X1335975Y697539D01*
X1337129Y695385D01*
X1338681Y693497D01*
X1335024Y702310D02*
X1335263Y699882D01*
X1335971Y697547D01*
X1337121Y695395D01*
X1338669Y693509D01*
X1333874Y687571D02*
X1331610Y688461D01*
X1329251Y689051D01*
X1326835Y689332D01*
X1324403Y689298D01*
X1321996Y688950D01*
X1319654Y688295D01*
X1317416Y687342D01*
X1315320Y686109D01*
X1313400Y684615D01*
X1403235Y470154D02*
X1404984Y468419D01*
X1406945Y466927D01*
X1409085Y465704D01*
X1411366Y464772D01*
X1413749Y464146D01*
X1416193Y463838D01*
X1418657Y463852D01*
X1421098Y464188D01*
X1423474Y464840D01*
X1425745Y465798D01*
X1427870Y467044D01*
X1429814Y468558D01*
X1431544Y470313D01*
X1397803Y547659D02*
X1400444Y546698D01*
X1403235Y546354D01*
X1397803Y547659D02*
X1400444Y546698D01*
X1403235Y546354D01*
X1404366Y458470D02*
X1404126Y460902D01*
X1403415Y463241D01*
X1402261Y465395D01*
X1400709Y467283D01*
X1404366Y458470D02*
X1404127Y460898D01*
X1403419Y463233D01*
X1402269Y465385D01*
X1400721Y467271D01*
X1428113Y396388D02*
X1429868Y397308D01*
X1431544Y398364D01*
Y439836D02*
X1429318Y441199D01*
X1426962Y442324D01*
X1424502Y443198D01*
X1421965Y443813D01*
X1419378Y444162D01*
X1416769Y444240D01*
X1414166Y444047D01*
X1411597Y443586D01*
X1409089Y442861D01*
X1406670Y441879D01*
X1404366Y440653D01*
X1431544Y439836D02*
X1429318Y441199D01*
X1426962Y442324D01*
X1424502Y443198D01*
X1421965Y443813D01*
X1419378Y444162D01*
X1416769Y444240D01*
X1414166Y444047D01*
X1411597Y443586D01*
X1409089Y442861D01*
X1406670Y441879D01*
X1404366Y440653D01*
X1431544Y393287D02*
X1429924Y394943D01*
X1428113Y396388D01*
X1429868Y397308D01*
X1431544Y398364D01*
X1429607Y366776D02*
X1431544Y368713D01*
X1404366Y397547D02*
X1406527Y396388D01*
X1404366Y397547D02*
X1406527Y396388D01*
X1404620Y394856D01*
X1319276Y589280D02*
X1319110Y591769D01*
X1318616Y594215D01*
X1317803Y596574D01*
X1316684Y598804D01*
X1315280Y600867D01*
X1313615Y602725D01*
X1311719Y604346D01*
X1309624Y605702D01*
X1307368Y606768D01*
X1304991Y607527D01*
X1302535Y607963D01*
X1300042Y608071D01*
X1312826Y575107D02*
X1314712Y577002D01*
X1316310Y579146D01*
X1317588Y581494D01*
X1318519Y584000D01*
X1319086Y586613D01*
X1319276Y589280D01*
X1341374Y562089D02*
X1338988Y563621D01*
X1336317Y564573D01*
X1333500Y564896D01*
X1378966Y450850D02*
X1378474Y454315D01*
X1378966Y450850D02*
X1378474Y454315D01*
X1341374Y562089D02*
X1338988Y563621D01*
X1336317Y564573D01*
X1333500Y564896D01*
X1317852D02*
X1317513Y567204D01*
X1316820Y569431D01*
X1315790Y571524D01*
X1314448Y573431D01*
X1312826Y575107D01*
X1314336Y500380D02*
X1315934Y502380D01*
X1317244Y504580D01*
Y521581D02*
X1315934Y523779D01*
X1314336Y525780D01*
X1328166Y440690D02*
X1328029Y442529D01*
X1328166Y440690D02*
X1328029Y442529D01*
X1317244Y496180D02*
X1315934Y498380D01*
X1314336Y500380D01*
X1291844Y793750D02*
X1292083Y791322D01*
X1292791Y788987D01*
X1293941Y786835D01*
X1295489Y784949D01*
X1291844Y793750D02*
X1292084Y791318D01*
X1292795Y788979D01*
X1293949Y786825D01*
X1295501Y784937D01*
X1291691Y712393D02*
X1290139Y710505D01*
X1288985Y708351D01*
X1288274Y706012D01*
X1288034Y703580D01*
X1291679Y712381D02*
X1290132Y710495D01*
X1288981Y708343D01*
X1288273Y706008D01*
X1288034Y703580D01*
X1287780Y684871D02*
X1285929Y686681D01*
X1283824Y688187D01*
X1281513Y689353D01*
X1279052Y690153D01*
X1276496Y690566D01*
X1273908Y690585D01*
X1271347Y690208D01*
X1268874Y689445D01*
X1266547Y688312D01*
X1264420Y686837D01*
X1262543Y685054D01*
X1260961Y683006D01*
X1232154Y680720D02*
X1232394Y678288D01*
X1233105Y675949D01*
X1234259Y673795D01*
X1235811Y671907D01*
X1245947Y661771D02*
X1247835Y660219D01*
X1249989Y659065D01*
X1252328Y658354D01*
X1254760Y658114D01*
X1245959Y661759D02*
X1247845Y660211D01*
X1249997Y659061D01*
X1252332Y658353D01*
X1254760Y658114D01*
X1232154Y680720D02*
X1232393Y678292D01*
X1233101Y675957D01*
X1234251Y673805D01*
X1235799Y671919D01*
X1313792Y656167D02*
X1314526Y654032D01*
X1315634Y652064D01*
X1317079Y650329D01*
X1313792Y656167D02*
X1314529Y654026D01*
X1315641Y652055D01*
X1317091Y650317D01*
X1260961Y658114D02*
X1262543Y656066D01*
X1264420Y654283D01*
X1266547Y652808D01*
X1268874Y651675D01*
X1271347Y650912D01*
X1273908Y650535D01*
X1276496Y650554D01*
X1279051Y650967D01*
X1281513Y651767D01*
X1283824Y652933D01*
X1285929Y654439D01*
X1287780Y656249D01*
X1309281Y617309D02*
X1310829Y619195D01*
X1311979Y621347D01*
X1312687Y623682D01*
X1312926Y626110D01*
X1309269Y617297D02*
X1310821Y619185D01*
X1311975Y621339D01*
X1312686Y623678D01*
X1312926Y626110D01*
X1275003Y618389D02*
X1273115Y619941D01*
X1270961Y621095D01*
X1268622Y621806D01*
X1266190Y622046D01*
X1274991Y618401D02*
X1273105Y619949D01*
X1270953Y621099D01*
X1268618Y621807D01*
X1266190Y622046D01*
X1257676Y564134D02*
X1257856Y561554D01*
X1258476Y559044D01*
X1259518Y556678D01*
X1260952Y554526D01*
X1262734Y552653D01*
Y552653D02*
X1261700Y551681D01*
X1252131Y561251D02*
X1250031Y562938D01*
X1247618Y564134D01*
X1216312Y622046D02*
X1216406Y623570D01*
X1216312Y622046D02*
X1216406Y623570D01*
X1227836Y589280D02*
X1227641Y591979D01*
X1227061Y594622D01*
X1226107Y597154D01*
X1252143Y561239D02*
X1250038Y562933D01*
X1247618Y564134D01*
X1226446Y513080D02*
X1226285Y515445D01*
X1225803Y517766D01*
X1225011Y520000D01*
X1223923Y522106D01*
X1222558Y524045D01*
X1220943Y525780D01*
X1227800Y486521D02*
X1227836Y487680D01*
X1221919Y501371D02*
X1223500Y503391D01*
X1224768Y505623D01*
X1225693Y508017D01*
X1226257Y510521D01*
X1226446Y513080D01*
X1227836Y487680D02*
X1227663Y490228D01*
X1227145Y492729D01*
X1226293Y495137D01*
X1225123Y497408D01*
X1223656Y499498D01*
X1221919Y501371D01*
X1175004Y967740D02*
X1175243Y965312D01*
X1175951Y962977D01*
X1177102Y960825D01*
X1178649Y958939D01*
X1175004Y967740D02*
X1175244Y965308D01*
X1175955Y962969D01*
X1177109Y960815D01*
X1178661Y958927D01*
X1174673Y846989D02*
X1172785Y848541D01*
X1170631Y849695D01*
X1168292Y850406D01*
X1165860Y850646D01*
X1174661Y847001D02*
X1172775Y848549D01*
X1170623Y849699D01*
X1168288Y850407D01*
X1165860Y850646D01*
X1191006Y825500D02*
X1190767Y827928D01*
X1190059Y830263D01*
X1188908Y832415D01*
X1187361Y834301D01*
X1191006Y825500D02*
X1190766Y827932D01*
X1190055Y830271D01*
X1188901Y832425D01*
X1187349Y834313D01*
X961136Y1206500D02*
X961000Y1209117D01*
X960591Y1211705D01*
X959916Y1214237D01*
X958981Y1216684D01*
X957797Y1219022D01*
X956375Y1221223D01*
X954733Y1223264D01*
X961136Y1206500D02*
X961000Y1209117D01*
X960591Y1211705D01*
X959916Y1214237D01*
X958981Y1216684D01*
X957797Y1219022D01*
X956375Y1221223D01*
X954733Y1223264D01*
X920496Y1186694D02*
X922584Y1185226D01*
X924810Y1183976D01*
X927152Y1182958D01*
X929585Y1182183D01*
X932084Y1181659D01*
X934622Y1181391D01*
X937176Y1181382D01*
X939716Y1181632D01*
X942219Y1182138D01*
X944657Y1182895D01*
X947006Y1183895D01*
X949241Y1185129D01*
X951340Y1186583D01*
X953281Y1188242D01*
X955043Y1190089D01*
X956609Y1192106D01*
X957962Y1194271D01*
X959089Y1196562D01*
X959977Y1198955D01*
X960619Y1201427D01*
X961006Y1203950D01*
X961136Y1206500D01*
X920496Y1186694D02*
X922584Y1185226D01*
X924810Y1183976D01*
X927152Y1182958D01*
X929585Y1182183D01*
X932084Y1181659D01*
X934622Y1181391D01*
X937176Y1181382D01*
X939716Y1181632D01*
X942219Y1182138D01*
X944657Y1182895D01*
X947006Y1183895D01*
X949241Y1185129D01*
X951340Y1186583D01*
X953281Y1188242D01*
X955043Y1190089D01*
X956609Y1192106D01*
X957962Y1194271D01*
X959089Y1196562D01*
X959977Y1198955D01*
X960619Y1201427D01*
X961006Y1203950D01*
X961136Y1206500D01*
X953516Y1066800D02*
X953345Y1069329D01*
X952835Y1071812D01*
X951997Y1074203D01*
X950843Y1076461D01*
X949397Y1078542D01*
X947684Y1080410D01*
X945735Y1082030D01*
X943586Y1083374D01*
X941275Y1084416D01*
X938845Y1085138D01*
X936341Y1085526D01*
X933806Y1085574D01*
X931289Y1085280D01*
X928834Y1084650D01*
X926486Y1083696D01*
X924287Y1082435D01*
X922278Y1080889D01*
X920496Y1079087D01*
X948576Y1054100D02*
X950302Y1056288D01*
X951684Y1058707D01*
X952694Y1061304D01*
X953309Y1064021D01*
X953516Y1066800D01*
X948576Y1028700D02*
X950302Y1030888D01*
X951684Y1033307D01*
X952694Y1035904D01*
X953309Y1038621D01*
X953516Y1041400D01*
X953309Y1044179D01*
X952694Y1046896D01*
X951684Y1049493D01*
X950302Y1051912D01*
X948576Y1054100D01*
X953516Y1016000D02*
X953309Y1018779D01*
X952694Y1021496D01*
X951684Y1024093D01*
X950302Y1026512D01*
X948576Y1028700D01*
Y1003300D02*
X950302Y1005488D01*
X951684Y1007907D01*
X952694Y1010504D01*
X953309Y1013221D01*
X953516Y1016000D01*
X967486Y944880D02*
X967246Y947312D01*
X966535Y949651D01*
X965381Y951805D01*
X963829Y953693D01*
X963841Y866229D02*
X965388Y868115D01*
X966539Y870267D01*
X967247Y872602D01*
X967486Y875030D01*
Y944880D02*
X967247Y947308D01*
X966539Y949643D01*
X965388Y951795D01*
X963841Y953681D01*
X963829Y866217D02*
X965381Y868105D01*
X966535Y870259D01*
X967246Y872598D01*
X967486Y875030D01*
X953516Y965200D02*
X953309Y967979D01*
X952694Y970696D01*
X951684Y973293D01*
X950302Y975712D01*
X948576Y977900D01*
X953480Y964041D02*
X953516Y965200D01*
X920496Y876713D02*
X921273Y875868D01*
X946827Y852577D02*
X949346Y853253D01*
X951668Y854438D01*
X953693Y856081D01*
X921273Y875867D02*
X920496Y875419D01*
X921273Y875867D02*
X920496Y875419D01*
X946827Y852577D02*
X949340Y853251D01*
X951659Y854432D01*
X953681Y856069D01*
X948805Y850646D02*
X946827Y852577D01*
X953516Y812800D02*
X953309Y815579D01*
X952694Y818296D01*
X951684Y820893D01*
X950302Y823312D01*
X948576Y825500D01*
Y800100D02*
X950302Y802288D01*
X951684Y804707D01*
X952694Y807304D01*
X953309Y810021D01*
X953516Y812800D01*
Y787400D02*
X953309Y790179D01*
X952694Y792896D01*
X951684Y795493D01*
X950302Y797912D01*
X948576Y800100D01*
Y774700D02*
X950302Y776888D01*
X951684Y779307D01*
X952694Y781904D01*
X953309Y784621D01*
X953516Y787400D01*
Y762000D02*
X953309Y764779D01*
X952694Y767496D01*
X951684Y770093D01*
X950302Y772512D01*
X948576Y774700D01*
Y749300D02*
X950302Y751488D01*
X951684Y753907D01*
X952694Y756504D01*
X953309Y759221D01*
X953516Y762000D01*
X948576Y723900D02*
X950302Y726088D01*
X951684Y728507D01*
X952694Y731104D01*
X953309Y733821D01*
X953516Y736600D01*
X953309Y739379D01*
X952694Y742096D01*
X951684Y744693D01*
X950302Y747112D01*
X948576Y749300D01*
X1166114Y684645D02*
X1164319Y682827D01*
X1162786Y680782D01*
X1161546Y678548D01*
X1160620Y676166D01*
X1160025Y673681D01*
X1159773Y671138D01*
X1159868Y668584D01*
X1160309Y666067D01*
X1161087Y663633D01*
X1162188Y661327D01*
X1163591Y659192D01*
X1165272Y657267D01*
X1167197Y655587D01*
X1169333Y654184D01*
X1171640Y653084D01*
X1174074Y652307D01*
X1176591Y651867D01*
X1179145Y651773D01*
X1181688Y652026D01*
X1184173Y652622D01*
X1186554Y653549D01*
X1182290Y619502D02*
X1179982Y620893D01*
X1177429Y621754D01*
X1174750Y622046D01*
X1182290Y619502D02*
X1179982Y620893D01*
X1177429Y621754D01*
X1174750Y622046D01*
X1090853Y619659D02*
X1088965Y621211D01*
X1086811Y622365D01*
X1084472Y623076D01*
X1082040Y623316D01*
X1090841Y619671D02*
X1088955Y621218D01*
X1086803Y622369D01*
X1084468Y623077D01*
X1082040Y623316D01*
X1101090Y622046D02*
X1098658Y621806D01*
X1096319Y621095D01*
X1094165Y619941D01*
X1092277Y618389D01*
X1101090Y622046D02*
X1098662Y621807D01*
X1096327Y621099D01*
X1094175Y619949D01*
X1092289Y618401D01*
X1166236Y564134D02*
X1166415Y561554D01*
X1167036Y559044D01*
X1168078Y556678D01*
X1169512Y554526D01*
X1171294Y552653D01*
X1160703Y562509D02*
X1158706Y564134D01*
X1160691Y562521D02*
X1158706Y564134D01*
X1136396Y589280D02*
X1136201Y591979D01*
X1135621Y594622D01*
X1134667Y597154D01*
X1136396Y513080D02*
X1136189Y515859D01*
X1135574Y518576D01*
X1134564Y521173D01*
X1133182Y523592D01*
X1131456Y525780D01*
Y500380D02*
X1133182Y502568D01*
X1134564Y504987D01*
X1135574Y507584D01*
X1136189Y510301D01*
X1136396Y513080D01*
X1136360Y486521D02*
X1136396Y487680D01*
X1136189Y490459D01*
X1135574Y493176D01*
X1134564Y495773D01*
X1133182Y498192D01*
X1131456Y500380D01*
X1066723Y562509D02*
X1064539Y564254D01*
X1066711Y562521D02*
X1064539Y564254D01*
X1074799D02*
X1074961Y561649D01*
X1075573Y559113D01*
X1076615Y556720D01*
X1078057Y554545D01*
X1079854Y552653D01*
Y552653D02*
X1078204Y551026D01*
X1039876Y513080D02*
X1039707Y515594D01*
X1039203Y518063D01*
X1038374Y520443D01*
X1037234Y522690D01*
X1035803Y524764D01*
X1002030Y623316D02*
X999598Y623076D01*
X997259Y622365D01*
X995105Y621211D01*
X993217Y619659D01*
X1002030Y623316D02*
X999602Y623077D01*
X997267Y622369D01*
X995115Y621218D01*
X993229Y619671D01*
X971296Y619760D02*
X971056Y622192D01*
X970345Y624531D01*
X969191Y626685D01*
X967639Y628573D01*
X971296Y619760D02*
X971057Y622188D01*
X970349Y624523D01*
X969199Y626675D01*
X967651Y628561D01*
X986879Y613321D02*
X985282Y611361D01*
X984115Y609118D01*
X983424Y606686D01*
X1039876Y589280D02*
X1039725Y591661D01*
X1039273Y594004D01*
X1038528Y596270D01*
X1037502Y598424D01*
X986891Y613333D02*
X985289Y611370D01*
X984117Y609123D01*
X983424Y606686D01*
X978156Y564134D02*
X978338Y561539D01*
X978966Y559014D01*
X980021Y556636D01*
X981472Y554476D01*
X983274Y552600D01*
Y552600D02*
X981515Y550835D01*
X980006Y548853D01*
X978771Y546689D01*
X977834Y544380D01*
X977210Y541968D01*
X976911Y539495D01*
X976942Y537004D01*
X977302Y534538D01*
X977985Y532142D01*
X978979Y529857D01*
X980266Y527724D01*
X981824Y525780D01*
X981824D02*
X980242Y523801D01*
X978940Y521628D01*
X977943Y519299D01*
X977267Y516857D01*
X976927Y514347D01*
Y511813D01*
X977267Y509303D01*
X977943Y506861D01*
X978940Y504532D01*
X980242Y502359D01*
X981824Y500380D01*
X948576Y698500D02*
X950302Y700688D01*
X951684Y703107D01*
X952694Y705704D01*
X953309Y708421D01*
X953516Y711200D01*
Y685800D02*
X953309Y688579D01*
X952694Y691296D01*
X951684Y693893D01*
X950302Y696312D01*
X948576Y698500D01*
X953516Y711200D02*
X953309Y713979D01*
X952694Y716696D01*
X951684Y719293D01*
X950302Y721712D01*
X948576Y723900D01*
Y673100D02*
X950302Y675288D01*
X951684Y677707D01*
X952694Y680304D01*
X953309Y683021D01*
X953516Y685800D01*
X946827Y646023D02*
X948779Y647925D01*
X950436Y650090D01*
X951762Y652471D01*
X952729Y655020D01*
X953318Y657681D01*
X953516Y660400D01*
X953681Y642531D02*
X951659Y644168D01*
X949340Y645349D01*
X946827Y646023D01*
X953516Y660400D02*
X953309Y663179D01*
X952694Y665896D01*
X951684Y668493D01*
X950302Y670912D01*
X948576Y673100D01*
X953693Y642519D02*
X951668Y644162D01*
X949346Y645347D01*
X946827Y646023D01*
X922097Y624941D02*
X922894Y624209D01*
X922109Y624929D02*
X922894Y624209D01*
X948576Y571500D02*
X950361Y573777D01*
X951776Y576301D01*
X952786Y579013D01*
X922894Y624209D02*
X920496Y621887D01*
X964007Y567791D02*
X965895Y566239D01*
X968049Y565085D01*
X970388Y564374D01*
X972820Y564134D01*
X964019Y567779D02*
X965905Y566231D01*
X968057Y565081D01*
X970392Y564373D01*
X972820Y564134D01*
X953516Y558800D02*
X953309Y561579D01*
X952694Y564296D01*
X951684Y566893D01*
X950302Y569312D01*
X948576Y571500D01*
Y546100D02*
X950302Y548288D01*
X951684Y550707D01*
X952694Y553304D01*
X953309Y556021D01*
X953516Y558800D01*
X948576Y520700D02*
X950302Y522888D01*
X951684Y525307D01*
X952694Y527904D01*
X953309Y530621D01*
X953516Y533400D01*
X953309Y536179D01*
X952694Y538896D01*
X951684Y541493D01*
X950302Y543912D01*
X948576Y546100D01*
X1034936Y500380D02*
X1036662Y502568D01*
X1038044Y504987D01*
X1039054Y507584D01*
X1039669Y510301D01*
X1039876Y513080D01*
X1039840Y486521D02*
X1039876Y487680D01*
X1039669Y490459D01*
X1039054Y493176D01*
X1038044Y495773D01*
X1036662Y498192D01*
X1034936Y500380D01*
X981824D02*
X980274Y498447D01*
X978991Y496327D01*
X977999Y494057D01*
X977314Y491676D01*
X976948Y489226D01*
X976907Y486749D01*
X977193Y484287D01*
X977800Y481885D01*
X978717Y479584D01*
X979929Y477423D01*
X981415Y475441D01*
X983149Y473671D01*
X985100Y472144D01*
X987236Y470888D01*
X989518Y469923D01*
X991907Y469267D01*
X994361Y468930D01*
X996839Y468920D01*
X998220Y394856D02*
X996195Y396470D01*
X993968Y397791D01*
X991580Y398792D01*
X989077Y399456D01*
X986507Y399770D01*
X983918Y399728D01*
X981359Y399330D01*
X978880Y398584D01*
X976526Y397505D01*
X974343Y396112D01*
X972372Y394432D01*
X970651Y392498D01*
X969212Y390345D01*
X968082Y388015D01*
X967284Y385552D01*
X966831Y383003D01*
X966733Y380415D01*
X966992Y377839D01*
X967602Y375322D01*
X968552Y372914D01*
X969825Y370658D01*
X971395Y368600D01*
X973233Y366776D01*
X954186D02*
X955505Y368922D01*
X956603Y371189D01*
X957468Y373554D01*
X958093Y375994D01*
X958470Y378484D01*
X958596Y381000D01*
X954186Y366776D02*
X955505Y368922D01*
X956603Y371189D01*
X957468Y373554D01*
X958093Y375994D01*
X958470Y378484D01*
X958596Y381000D01*
X953516Y508000D02*
X953309Y510779D01*
X952694Y513496D01*
X951684Y516093D01*
X950302Y518512D01*
X948576Y520700D01*
Y495300D02*
X950302Y497488D01*
X951684Y499907D01*
X952694Y502504D01*
X953309Y505221D01*
X953516Y508000D01*
Y482600D02*
X953309Y485379D01*
X952694Y488096D01*
X951684Y490693D01*
X950302Y493112D01*
X948576Y495300D01*
Y469900D02*
X950302Y472088D01*
X951684Y474507D01*
X952694Y477104D01*
X953309Y479821D01*
X953516Y482600D01*
Y457200D02*
X953309Y459979D01*
X952694Y462696D01*
X951684Y465293D01*
X950302Y467712D01*
X948576Y469900D01*
Y444500D02*
X950302Y446688D01*
X951684Y449107D01*
X952694Y451704D01*
X953309Y454421D01*
X953516Y457200D01*
Y431800D02*
X953309Y434579D01*
X952694Y437296D01*
X951684Y439893D01*
X950302Y442312D01*
X948576Y444500D01*
X920496Y419513D02*
X922278Y417711D01*
X924287Y416165D01*
X926486Y414904D01*
X928834Y413950D01*
X931289Y413320D01*
X933806Y413026D01*
X936341Y413074D01*
X938845Y413462D01*
X941275Y414184D01*
X943586Y415226D01*
X945735Y416570D01*
X947684Y418190D01*
X949397Y420058D01*
X950843Y422139D01*
X951997Y424397D01*
X952835Y426788D01*
X953345Y429271D01*
X953516Y431800D01*
X958596Y381000D02*
X958469Y383525D01*
X958089Y386024D01*
X957460Y388472D01*
X956589Y390845D01*
X955483Y393119D01*
X954155Y395270D01*
X952618Y397276D01*
X950887Y399118D01*
X948980Y400778D01*
X946916Y402237D01*
X944715Y403481D01*
X942401Y404499D01*
X939997Y405279D01*
X937526Y405813D01*
X935014Y406097D01*
X932486Y406128D01*
X929968Y405904D01*
X927486Y405428D01*
X925063Y404706D01*
X922725Y403744D01*
X920496Y402553D01*
X958596Y381000D02*
X958469Y383525D01*
X958089Y386024D01*
X957460Y388472D01*
X956589Y390845D01*
X955483Y393119D01*
X954155Y395270D01*
X952618Y397276D01*
X950887Y399118D01*
X948980Y400778D01*
X946916Y402237D01*
X944715Y403481D01*
X942401Y404499D01*
X939997Y405279D01*
X937526Y405813D01*
X935014Y406097D01*
X932486Y406128D01*
X929968Y405904D01*
X927486Y405428D01*
X925063Y404706D01*
X922725Y403744D01*
X920496Y402553D01*
X1428496Y1209976D02*
Y1223264D01*
X1425941Y1211072D02*
X1431544D01*
X1426464Y1210874D02*
Y1223264D01*
X1431544Y1208186D02*
Y1223264D01*
X1430212Y1209040D02*
X1431544D01*
X1430528Y1208848D02*
Y1223264D01*
X1422400Y1212077D02*
Y1223264D01*
X1424432Y1211569D02*
Y1223264D01*
X1420368Y1212411D02*
Y1223264D01*
X1427223Y1164336D02*
X1431544D01*
X1425820Y1121664D02*
X1431544D01*
X1426464Y1121322D02*
Y1164025D01*
X1428993Y1119632D02*
X1431544D01*
X1428496Y1120013D02*
Y1164924D01*
X1417320Y1162304D02*
X1431544D01*
X1417320Y1123696D02*
X1431544D01*
X1420368Y1123447D02*
Y1162489D01*
X1424432Y1122299D02*
Y1163331D01*
X1422400Y1122997D02*
Y1162822D01*
X1416304Y1212576D02*
Y1223264D01*
X1418336Y1212576D02*
Y1223264D01*
X1414272Y1212411D02*
Y1223264D01*
X1410208Y1211569D02*
Y1223264D01*
X1412240Y1212077D02*
Y1223264D01*
X1408176Y1210874D02*
Y1223264D01*
X1400048Y1205726D02*
Y1223264D01*
X1406144Y1209976D02*
Y1223264D01*
X1398016Y1203565D02*
Y1223264D01*
X1395984Y1200758D02*
Y1223264D01*
X1393952Y1196738D02*
Y1223264D01*
X1416304Y1123669D02*
Y1162325D01*
X1418336Y1123669D02*
Y1162325D01*
X1414272Y1123447D02*
Y1162489D01*
X1412240Y1122997D02*
Y1162822D01*
X1410208Y1122299D02*
Y1163331D01*
X1404112Y1208848D02*
Y1223264D01*
X1408176Y1121322D02*
Y1164025D01*
X1402080Y1207452D02*
Y1223264D01*
X1406144Y1120013D02*
Y1164924D01*
X1404112Y1118273D02*
Y1166052D01*
X1431544Y1117187D02*
Y1166714D01*
X1430528Y1118273D02*
Y1166052D01*
X1402080Y1115901D02*
Y1167448D01*
X1431544Y1091787D02*
Y1092613D01*
Y1066387D02*
Y1067213D01*
X1402080Y1091946D02*
Y1093898D01*
X1400048Y1091946D02*
Y1097486D01*
X1390396Y1034975D02*
X1400715Y1045294D01*
X1400048Y1036114D02*
Y1044627D01*
X1402080Y1039702D02*
Y1043099D01*
X1431544Y1040987D02*
Y1041813D01*
X1399869Y1044448D02*
X1401192D01*
X1400048Y1010714D02*
Y1021286D01*
X1397837Y1042416D02*
X1402597D01*
X1395805Y1040384D02*
X1402597D01*
X1393773Y1038352D02*
X1401192D01*
X1384375Y1020064D02*
X1400625D01*
X1391741Y1036320D02*
X1400138D01*
X1398016Y1091946D02*
Y1171336D01*
X1400048Y1112314D02*
Y1169174D01*
X1395984Y1091946D02*
Y1174142D01*
X1393952Y1091946D02*
Y1178163D01*
X1391920Y1091946D02*
Y1223264D01*
X1387856Y1091946D02*
Y1223264D01*
X1389888Y1091946D02*
Y1223264D01*
X1385824Y1091946D02*
Y1223264D01*
Y1065605D02*
Y1067054D01*
X1383792Y1063573D02*
Y1067054D01*
X1390396Y1034288D02*
X1399374D01*
X1390396Y1032256D02*
X1398863D01*
X1390396Y1031240D02*
Y1034975D01*
X1390354Y1030224D02*
X1398586D01*
X1390017Y1028192D02*
X1398531D01*
X1389312Y1026160D02*
X1398696D01*
X1388164Y1024128D02*
X1399088D01*
X1386407Y1022096D02*
X1399722D01*
X1358408Y1217168D02*
X1431544D01*
X1360370Y1215136D02*
X1431544D01*
X1355903Y1219200D02*
X1431544D01*
X1361946Y1213104D02*
X1431544D01*
X1363219Y1211072D02*
X1408699D01*
X1364241Y1209040D02*
X1404428D01*
X1346573Y1223264D02*
X1431544D01*
X1352487Y1221232D02*
X1431544D01*
X1346573Y1223264D02*
X1431544D01*
X1353947Y1164336D02*
X1407417D01*
X1353947Y1166368D02*
X1403613D01*
X1353947Y1150112D02*
X1431544D01*
X1353947Y1148080D02*
X1431544D01*
X1353947Y1152144D02*
X1431544D01*
X1353947Y1144016D02*
X1431544D01*
X1353947Y1146048D02*
X1431544D01*
X1353947Y1160272D02*
X1431544D01*
X1353947Y1158240D02*
X1431544D01*
X1353947Y1162304D02*
X1417320D01*
X1353947Y1154176D02*
X1431544D01*
X1353947Y1156208D02*
X1431544D01*
X1366073Y1202944D02*
X1397514D01*
X1366324Y1200912D02*
X1396081D01*
X1366407Y1198880D02*
X1394922D01*
X1366324Y1196848D02*
X1393996D01*
X1366073Y1194816D02*
X1393277D01*
X1365043Y1207008D02*
X1401515D01*
X1365649Y1204976D02*
X1399288D01*
X1365649Y1192784D02*
X1392746D01*
X1365043Y1190752D02*
X1392392D01*
X1364241Y1188720D02*
X1392206D01*
X1361946Y1184656D02*
X1392330D01*
X1360370Y1182624D02*
X1392641D01*
X1363219Y1186688D02*
X1392186D01*
X1355903Y1178560D02*
X1393798D01*
X1358408Y1180592D02*
X1393127D01*
X1353947Y1174496D02*
X1395767D01*
X1353947Y1172464D02*
X1397127D01*
X1353947Y1176528D02*
X1394670D01*
X1353947Y1168400D02*
X1400906D01*
X1353947Y1170432D02*
X1398808D01*
X1353465Y1139952D02*
X1431544D01*
X1352685Y1137920D02*
X1431544D01*
X1353868Y1141984D02*
X1431544D01*
X1349577Y1133856D02*
X1431544D01*
X1347545Y1131824D02*
X1431544D01*
X1351439Y1135888D02*
X1431544D01*
X1343481Y1127760D02*
X1431544D01*
X1341449Y1125728D02*
X1431544D01*
X1345513Y1129792D02*
X1431544D01*
X1339417Y1123696D02*
X1417320D01*
X1337385Y1121664D02*
X1408819D01*
X1335353Y1119632D02*
X1405647D01*
X1333321Y1117600D02*
X1403464D01*
X1331289Y1115568D02*
X1401845D01*
X1356360Y1091946D02*
X1403235D01*
X1329257Y1113536D02*
X1400625D01*
X1327225Y1111504D02*
X1399722D01*
X1313001Y1097280D02*
X1400138D01*
X1315033Y1099312D02*
X1399374D01*
X1308937Y1093216D02*
X1402597D01*
X1310969Y1095248D02*
X1401192D01*
X1381760Y1091946D02*
Y1223264D01*
X1383792Y1091946D02*
Y1223264D01*
X1379728Y1091946D02*
Y1223264D01*
X1377061Y1067054D02*
X1387273D01*
X1377696Y1091946D02*
Y1223264D01*
X1325193Y1109472D02*
X1399088D01*
X1323161Y1107440D02*
X1398696D01*
X1321129Y1105408D02*
X1398531D01*
X1317065Y1101344D02*
X1398863D01*
X1319097Y1103376D02*
X1398586D01*
X1381760Y1061541D02*
Y1067054D01*
X1377061Y1066800D02*
X1387019D01*
X1379728Y1059509D02*
Y1067054D01*
X1377061Y1056842D02*
X1387273Y1067054D01*
X1377696Y1057477D02*
Y1067054D01*
X1377061Y1064768D02*
X1384987D01*
X1377061Y1062736D02*
X1382955D01*
X1377061Y1060704D02*
X1380923D01*
X1343406Y979095D02*
X1386739Y1022427D01*
X1377061Y1058672D02*
X1378891D01*
X1431544Y990187D02*
Y991013D01*
Y964787D02*
Y965613D01*
Y1015587D02*
Y1016413D01*
Y939387D02*
Y940213D01*
X1428993Y912368D02*
X1431544D01*
X1426464Y905422D02*
Y910678D01*
X1380311Y1016000D02*
X1403464D01*
X1408176Y905422D02*
Y910678D01*
X1406144Y904112D02*
Y911988D01*
X1425820Y910336D02*
X1431544D01*
X1424432Y906398D02*
Y909702D01*
X1422400Y907096D02*
Y909004D01*
X1428322Y904240D02*
X1431544D01*
X1424734Y906272D02*
X1431544D01*
X1420368Y907547D02*
Y908553D01*
X1417320Y908304D02*
X1431544D01*
X1414272Y907547D02*
Y908553D01*
X1412240Y907096D02*
Y909004D01*
X1410208Y906398D02*
Y909702D01*
X1382343Y1018032D02*
X1401845D01*
X1402080Y1014302D02*
Y1017699D01*
X1378279Y1013968D02*
X1401845D01*
X1376247Y1011936D02*
X1400625D01*
X1374215Y1009904D02*
X1399722D01*
X1372183Y1007872D02*
X1399088D01*
X1370151Y1005840D02*
X1398696D01*
X1366087Y1001776D02*
X1398586D01*
X1368119Y1003808D02*
X1398531D01*
X1402080Y988902D02*
Y992299D01*
Y963502D02*
Y966898D01*
X1400048Y985314D02*
Y995886D01*
X1402080Y938102D02*
Y941498D01*
X1400048Y959914D02*
Y970486D01*
X1362023Y997712D02*
X1399374D01*
X1359991Y995680D02*
X1400138D01*
X1364055Y999744D02*
X1398863D01*
X1400048Y934514D02*
Y945086D01*
X1430528Y902373D02*
Y913727D01*
X1428496Y904112D02*
Y911988D01*
X1404112Y902373D02*
Y913727D01*
X1431544Y901287D02*
Y914813D01*
Y875887D02*
Y876713D01*
X1430693Y902208D02*
X1431544D01*
X1402080Y900002D02*
Y916098D01*
Y874602D02*
Y877999D01*
Y849202D02*
Y852598D01*
X1431544Y850487D02*
Y851313D01*
Y825087D02*
Y825913D01*
X1402080Y823801D02*
Y827198D01*
X1431544Y799687D02*
Y800513D01*
X1402080Y798401D02*
Y801798D01*
X1361398Y824992D02*
X1403015D01*
X1359952Y827024D02*
X1402207D01*
X1361515Y798576D02*
X1402207D01*
X1400048Y871014D02*
Y881586D01*
Y845614D02*
Y856186D01*
Y896414D02*
Y919686D01*
Y820214D02*
Y830786D01*
X1363564Y818896D02*
X1399540D01*
X1359916Y835152D02*
X1398773D01*
X1359916Y831088D02*
X1399922D01*
X1359916Y837184D02*
X1398551D01*
X1362435Y822960D02*
X1401507D01*
X1363142Y820928D02*
X1400372D01*
X1363724Y816864D02*
X1398969D01*
X1400048Y794814D02*
Y805386D01*
X1363629Y814832D02*
X1398634D01*
X1365579Y794512D02*
X1399922D01*
X1367611Y792480D02*
X1399223D01*
X1362640Y810768D02*
X1398634D01*
X1361692Y808736D02*
X1398969D01*
X1363273Y812800D02*
X1398524D01*
X1363547Y796544D02*
X1400898D01*
X1360359Y806704D02*
X1399540D01*
X1355927Y991616D02*
X1402597D01*
X1353895Y989584D02*
X1402597D01*
X1357959Y993648D02*
X1401192D01*
X1351863Y987552D02*
X1401192D01*
X1343406Y969264D02*
X1400625D01*
X1349831Y985520D02*
X1400138D01*
X1343406Y967232D02*
X1401845D01*
X1343406Y965200D02*
X1403464D01*
X1343406Y963168D02*
X1401845D01*
X1343406Y961136D02*
X1400625D01*
X1343406Y944880D02*
X1400138D01*
X1343406Y918464D02*
X1400625D01*
X1343406Y916432D02*
X1401845D01*
X1343406Y920496D02*
X1399722D01*
X1343406Y912368D02*
X1405647D01*
X1343406Y914400D02*
X1403464D01*
X1343406Y940816D02*
X1402597D01*
X1343406Y938784D02*
X1402597D01*
X1343406Y942848D02*
X1401192D01*
X1343406Y936752D02*
X1401192D01*
X1343406Y934720D02*
X1400138D01*
X1347799Y983488D02*
X1399374D01*
X1345767Y981456D02*
X1398863D01*
X1343735Y979424D02*
X1398586D01*
X1343406Y975360D02*
X1398696D01*
X1343406Y977392D02*
X1398531D01*
X1343406Y971296D02*
X1399722D01*
X1343406Y959104D02*
X1399722D01*
X1343406Y973328D02*
X1399088D01*
X1343406Y957072D02*
X1399088D01*
X1343406Y955040D02*
X1398696D01*
X1343406Y930656D02*
X1398863D01*
X1343406Y928624D02*
X1398586D01*
X1343406Y926592D02*
X1398531D01*
X1343406Y922528D02*
X1399088D01*
X1343406Y924560D02*
X1398696D01*
X1343406Y950976D02*
X1398586D01*
X1343406Y948944D02*
X1398863D01*
X1343406Y953008D02*
X1398531D01*
X1343406Y932688D02*
X1399374D01*
X1343406Y946912D02*
X1399374D01*
X1343406Y900176D02*
X1402207D01*
X1343406Y898144D02*
X1400898D01*
X1343406Y879856D02*
X1400898D01*
X1343406Y877824D02*
X1402207D01*
X1343406Y875792D02*
X1403015D01*
X1343406Y873760D02*
X1401507D01*
X1343406Y908304D02*
X1417320D01*
X1343406Y906272D02*
X1409906D01*
X1343406Y910336D02*
X1408819D01*
X1343406Y904240D02*
X1406319D01*
X1343406Y902208D02*
X1403947D01*
X1358942Y849376D02*
X1402207D01*
X1359598Y847344D02*
X1400898D01*
X1359916Y829056D02*
X1400898D01*
X1359483Y800608D02*
X1403015D01*
X1358504Y804672D02*
X1400372D01*
X1354149Y855472D02*
X1400372D01*
X1356181Y853440D02*
X1401507D01*
X1343406Y871728D02*
X1400372D01*
X1357856Y851408D02*
X1403015D01*
X1357451Y802640D02*
X1401507D01*
X1343406Y883920D02*
X1399223D01*
X1343406Y881888D02*
X1399922D01*
X1343406Y885952D02*
X1398773D01*
X1343406Y869696D02*
X1399540D01*
X1343406Y867664D02*
X1398969D01*
X1343406Y896112D02*
X1399922D01*
X1343406Y894080D02*
X1399223D01*
X1343406Y892048D02*
X1398773D01*
X1343406Y887984D02*
X1398551D01*
X1343406Y890016D02*
X1398551D01*
X1359893Y845312D02*
X1399922D01*
X1359916Y843280D02*
X1399223D01*
X1359916Y841248D02*
X1398773D01*
X1359916Y833120D02*
X1399223D01*
X1359916Y839216D02*
X1398551D01*
X1343989Y865632D02*
X1398634D01*
X1348053Y861568D02*
X1398634D01*
X1346021Y863600D02*
X1398524D01*
X1352117Y857504D02*
X1399540D01*
X1350085Y859536D02*
X1398969D01*
X1357376Y1218071D02*
Y1223264D01*
X1359408Y1216190D02*
Y1223264D01*
X1355344Y1219585D02*
Y1223264D01*
X1363472Y1210610D02*
Y1223264D01*
X1365504Y1205526D02*
Y1223264D01*
X1361440Y1213805D02*
Y1223264D01*
X1332992Y1222287D02*
Y1223264D01*
X1351280Y1221786D02*
Y1223264D01*
X1330960Y1221445D02*
Y1223264D01*
X1353312Y1220807D02*
Y1223264D01*
X1326896Y1219054D02*
Y1223264D01*
X1328928Y1220379D02*
Y1223264D01*
X1324864Y1217414D02*
Y1223264D01*
X1322832Y1215366D02*
Y1223264D01*
X1320800Y1212728D02*
Y1223264D01*
X1304341Y1219200D02*
X1327099D01*
X1306846Y1217168D02*
X1324594D01*
X1308808Y1215136D02*
X1322632D01*
X1310384Y1213104D02*
X1321056D01*
X1311657Y1211072D02*
X1319783D01*
X1318768Y1209054D02*
Y1223264D01*
X1312679Y1209040D02*
X1318761D01*
X1312672Y1209054D02*
Y1223264D01*
X1316736Y1201526D02*
Y1223264D01*
X1314704Y1201526D02*
Y1223264D01*
X1304544Y1219054D02*
Y1223264D01*
X1306576Y1217414D02*
Y1223264D01*
X1302512Y1220379D02*
Y1223264D01*
X1310640Y1212728D02*
Y1223264D01*
X1308608Y1215366D02*
Y1223264D01*
X1314511Y1202944D02*
X1316929D01*
X1314762Y1200912D02*
X1316678D01*
X1314845Y1198880D02*
X1316595D01*
X1314511Y1194816D02*
X1316929D01*
X1314762Y1196848D02*
X1316678D01*
X1313481Y1207008D02*
X1317959D01*
X1314087Y1204976D02*
X1317353D01*
X1314087Y1192784D02*
X1317353D01*
X1312679Y1188720D02*
X1318761D01*
X1313481Y1190752D02*
X1317959D01*
X1367536Y1091946D02*
Y1223264D01*
X1369568Y1091946D02*
Y1223264D01*
X1365504Y1091946D02*
Y1192234D01*
X1373632Y1091946D02*
Y1223264D01*
X1375664Y1091946D02*
Y1223264D01*
X1371600Y1091946D02*
Y1223264D01*
X1359408Y1091946D02*
Y1181570D01*
X1357376Y1091946D02*
Y1179689D01*
X1363472Y1091946D02*
Y1187150D01*
X1361440Y1091946D02*
Y1183955D01*
X1355344Y1091905D02*
Y1178175D01*
X1353947Y1143381D02*
Y1144270D01*
Y1177307D01*
X1353312Y1091567D02*
Y1139456D01*
X1351280Y1090862D02*
Y1135682D01*
X1349248Y1089714D02*
Y1133527D01*
X1347216Y1087957D02*
Y1131495D01*
X1345184Y1085925D02*
Y1129463D01*
X1320800Y1140281D02*
Y1185032D01*
X1318768Y1138249D02*
Y1188706D01*
X1316736Y1136217D02*
Y1196234D01*
X1314704Y1134185D02*
Y1196234D01*
X1310384Y1184656D02*
X1321056D01*
X1308808Y1182624D02*
X1322632D01*
X1311657Y1186688D02*
X1319783D01*
X1312672Y1132153D02*
Y1188706D01*
X1310640Y1130121D02*
Y1185032D01*
X1328928Y1148409D02*
Y1177381D01*
X1329055Y1148536D02*
Y1177307D01*
X1326896Y1146377D02*
Y1178706D01*
X1324864Y1144345D02*
Y1180346D01*
X1322832Y1142313D02*
Y1182394D01*
X1306846Y1180592D02*
X1324594D01*
X1304341Y1178560D02*
X1327099D01*
X1308608Y1128089D02*
Y1182394D01*
X1306576Y1126057D02*
Y1180346D01*
X1304544Y1124025D02*
Y1178706D01*
X1302385Y1170432D02*
X1329055D01*
X1302385Y1168400D02*
X1329055D01*
X1302385Y1172464D02*
X1329055D01*
X1302385Y1164336D02*
X1329055D01*
X1302385Y1162304D02*
X1329055D01*
X1302385Y1166368D02*
X1329055D01*
X1295011Y1223264D02*
X1336429D01*
X1295011D02*
X1336429D01*
X1300925Y1221232D02*
X1330515D01*
X1302385Y1174496D02*
X1329055D01*
X1302385Y1176528D02*
X1329055D01*
X1302385Y1150112D02*
X1329055D01*
X1302385Y1148080D02*
X1328599D01*
X1302385Y1146048D02*
X1326567D01*
X1302385Y1144016D02*
X1324535D01*
X1302385Y1141984D02*
X1322503D01*
X1302385Y1158240D02*
X1329055D01*
X1302385Y1156208D02*
X1329055D01*
X1302385Y1160272D02*
X1329055D01*
X1302385Y1152144D02*
X1329055D01*
X1302385Y1154176D02*
X1329055D01*
X1298448Y1222287D02*
Y1223264D01*
X1300480Y1221445D02*
Y1223264D01*
X1280160Y1221786D02*
Y1223264D01*
X1278128Y1220807D02*
Y1223264D01*
X1270000Y1213805D02*
Y1223264D01*
X1276096Y1219585D02*
Y1223264D01*
X1267968Y1210610D02*
Y1223264D01*
X1265936Y1205526D02*
Y1223264D01*
X1302385Y1139952D02*
X1320471D01*
X1302385Y1137920D02*
X1318439D01*
X1302385Y1131824D02*
X1312343D01*
X1302512Y1121993D02*
Y1177381D01*
X1274064Y1218071D02*
Y1223264D01*
X1302385Y1135888D02*
X1316407D01*
X1272032Y1216190D02*
Y1223264D01*
X1302385Y1133856D02*
X1314375D01*
X1302385Y1129792D02*
X1310311D01*
X1261872Y1104213D02*
Y1223264D01*
X1263904Y1106245D02*
Y1223264D01*
X1259840Y1102181D02*
Y1223264D01*
X1255776Y1098117D02*
Y1223264D01*
X1257808Y1100149D02*
Y1223264D01*
X1253744Y1096085D02*
Y1223264D01*
X1249680Y1092021D02*
Y1223264D01*
X1251712Y1094053D02*
Y1223264D01*
X1247648Y1089989D02*
Y1223264D01*
X1245616Y1087957D02*
Y1223264D01*
X1243584Y1085925D02*
Y1223264D01*
X1302385Y1121866D02*
Y1177307D01*
Y1121866D02*
X1329055Y1148536D01*
X1277493Y1119834D02*
Y1177307D01*
X1293062Y1077341D02*
X1350290Y1134568D01*
X1276096Y1118437D02*
Y1178175D01*
X1272032Y1114373D02*
Y1181570D01*
X1274064Y1116405D02*
Y1179689D01*
X1270000Y1112341D02*
Y1183955D01*
X1267968Y1110309D02*
Y1187150D01*
X1265936Y1108277D02*
Y1192234D01*
X1219200Y1058426D02*
Y1223264D01*
X1221232Y1058426D02*
Y1223264D01*
X1217168Y1058426D02*
Y1223264D01*
X1215136Y1035887D02*
Y1223264D01*
X1213104Y1033855D02*
Y1223264D01*
X1209040Y1029791D02*
Y1223264D01*
X1211072Y1031823D02*
Y1223264D01*
X1207008Y1027759D02*
Y1223264D01*
X1204976Y1025727D02*
Y1223264D01*
X1202944Y1023695D02*
Y1223264D01*
X1239520Y1082421D02*
Y1223264D01*
X1241552Y1083893D02*
Y1223264D01*
X1237488Y1082421D02*
Y1223264D01*
X1235456Y1082421D02*
Y1223264D01*
X1233424Y1082421D02*
Y1223264D01*
X1229360Y1082421D02*
Y1223264D01*
X1231392Y1082421D02*
Y1223264D01*
X1227328Y1082421D02*
Y1223264D01*
X1225296Y1058426D02*
Y1223264D01*
X1223264Y1058426D02*
Y1223264D01*
X1343152Y1083893D02*
Y1127431D01*
X1341120Y1081861D02*
Y1125399D01*
X1339088Y1079829D02*
Y1123367D01*
X1337056Y1077797D02*
Y1121335D01*
X1306905Y1091184D02*
X1352072D01*
X1331341Y1077341D02*
X1336600D01*
X1332992D02*
Y1117271D01*
X1336600Y1077341D02*
X1347547Y1088289D01*
X1335024Y1077341D02*
Y1119303D01*
X1377061Y1056842D02*
Y1067054D01*
X1348138Y1020699D02*
X1349808D01*
X1348138D02*
X1349808D01*
X1347181Y1018073D02*
X1349808Y1020699D01*
X1347967Y1020064D02*
X1349173D01*
X1322171Y993063D02*
X1331427Y1002319D01*
X1326896Y1077341D02*
Y1111175D01*
X1324864Y1077341D02*
Y1109143D01*
X1322832Y1077341D02*
Y1107111D01*
X1330960Y1077341D02*
Y1115239D01*
X1328928Y1077341D02*
Y1113207D01*
X1316736Y1077341D02*
Y1101015D01*
X1314704Y1077341D02*
Y1098983D01*
X1312672Y1077341D02*
Y1096951D01*
X1320800Y1077341D02*
Y1105079D01*
X1318768Y1077341D02*
Y1103047D01*
X1322959Y1077341D02*
X1331341D01*
X1322959D02*
X1331341D01*
X1328928Y999819D02*
Y1001393D01*
X1326896Y997787D02*
Y1001056D01*
X1324864Y995755D02*
Y1001014D01*
X1310640Y1077341D02*
Y1094919D01*
X1308608Y1077341D02*
Y1092887D01*
X1306576Y1077341D02*
Y1090855D01*
X1311021Y1077341D02*
X1322959D01*
X1322832Y993723D02*
Y1001014D01*
X1363472Y819472D02*
Y999161D01*
X1361440Y824922D02*
Y997129D01*
X1359408Y848070D02*
Y995097D01*
X1369568Y790523D02*
Y1005257D01*
X1367536Y792555D02*
Y1003225D01*
X1365504Y794587D02*
Y1001193D01*
X1353312Y856309D02*
Y989001D01*
X1351280Y858341D02*
Y986969D01*
X1349248Y860373D02*
Y984937D01*
X1357376Y852085D02*
Y993065D01*
X1355344Y854277D02*
Y991033D01*
X1359916Y827067D02*
Y844550D01*
X1359408Y800683D02*
Y805576D01*
X1363472Y796619D02*
Y813748D01*
X1361440Y798651D02*
Y808298D01*
X1343406Y866215D02*
X1356259Y853363D01*
X1357376Y802715D02*
Y803721D01*
X1320800Y991439D02*
Y1001014D01*
X1318768Y986752D02*
Y1001014D01*
X1316736Y975435D02*
Y1001014D01*
X1308608Y983563D02*
Y1001014D01*
X1310640Y981531D02*
Y1001014D01*
X1306576Y985595D02*
Y1001014D01*
X1314704Y977467D02*
Y1001014D01*
X1312672Y979499D02*
Y1001014D01*
X1318514Y973657D02*
Y984250D01*
X1343406Y866215D02*
Y979095D01*
X1316811Y975360D02*
X1318514D01*
X1347216Y862405D02*
Y982905D01*
X1345184Y864437D02*
Y980873D01*
X1306651Y985520D02*
X1318579D01*
X1308683Y983488D02*
X1318514D01*
X1310715Y981456D02*
X1318514D01*
X1314779Y977392D02*
X1318514D01*
X1312747Y979424D02*
X1318514D01*
X1302385Y1127760D02*
X1308279D01*
X1304873Y1089152D02*
X1348502D01*
X1302385Y1123696D02*
X1304215D01*
X1304544Y1077341D02*
Y1088823D01*
X1302841Y1087120D02*
X1346379D01*
X1302512Y1077341D02*
Y1086791D01*
X1300809Y1085088D02*
X1344347D01*
X1298777Y1083056D02*
X1342315D01*
X1302385Y1125728D02*
X1306247D01*
X1300480Y1077341D02*
Y1084759D01*
X1298448Y1077341D02*
Y1082727D01*
X1296745Y1081024D02*
X1340283D01*
X1300099Y1077341D02*
X1311021D01*
X1300099D02*
X1311021D01*
X1296239Y995680D02*
X1324789D01*
X1298523Y993648D02*
X1322757D01*
X1294713Y1078992D02*
X1338251D01*
X1280366Y1001014D02*
X1325880D01*
X1293062Y1077341D02*
X1300099D01*
X1280366Y999744D02*
X1328853D01*
X1291552Y997712D02*
X1326821D01*
X1296416Y1077341D02*
Y1080695D01*
X1294384Y1077341D02*
Y1078663D01*
X1290320Y997901D02*
Y1001014D01*
X1296416Y995552D02*
Y1001014D01*
X1292352Y997520D02*
Y1001014D01*
X1240080Y1082421D02*
X1277493Y1119834D01*
X1226439Y1082421D02*
X1240080D01*
X1226439Y1058426D02*
Y1082421D01*
X1216454Y1058426D02*
X1226439D01*
X1216454Y1037205D02*
Y1058426D01*
X1294384Y996765D02*
Y1001014D01*
X1288288Y997966D02*
Y1001014D01*
X1298448Y993723D02*
Y1001014D01*
X1282192Y997966D02*
Y1001014D01*
X1280366Y997966D02*
X1289050D01*
X1280366D02*
Y1001014D01*
X1286256Y997966D02*
Y1001014D01*
X1284224Y997966D02*
Y1001014D01*
X1302512Y989659D02*
Y1001014D01*
X1300555Y991616D02*
X1320928D01*
X1300480Y991691D02*
Y1001014D01*
X1302587Y989584D02*
X1319715D01*
X1304619Y987552D02*
X1318960D01*
X1304544Y987627D02*
Y1001014D01*
X1297863Y994309D02*
X1318514Y973657D01*
X1290177Y824552D02*
X1291844Y822885D01*
X1288160Y820928D02*
X1291844D01*
Y793750D02*
Y822885D01*
X1286382Y818896D02*
X1291844D01*
X1279112Y814832D02*
X1291844D01*
X1257046Y806704D02*
X1291844D01*
X1283805Y816864D02*
X1291844D01*
X1257046Y802640D02*
X1291844D01*
X1257046Y804672D02*
X1291844D01*
X1257046Y798576D02*
X1291844D01*
X1257046Y796544D02*
X1291844D01*
X1257046Y800608D02*
X1291844D01*
X1257046Y790448D02*
X1292290D01*
X1257046Y792480D02*
X1291909D01*
X1257046Y829056D02*
X1258896D01*
X1257046Y827024D02*
X1259218D01*
X1257046Y831013D02*
X1258885Y829174D01*
X1257046Y824992D02*
X1259815D01*
X1202944Y969847D02*
Y988493D01*
Y969847D02*
Y988493D01*
X1219200Y923544D02*
X1232154D01*
X1289439Y822960D02*
X1291769D01*
X1257046Y820928D02*
X1262000D01*
X1257046Y822960D02*
X1260721D01*
X1257046Y816864D02*
X1266355D01*
X1257046Y818896D02*
X1263778D01*
X1257046Y812800D02*
X1291844D01*
X1257046Y810768D02*
X1291844D01*
X1257046Y814832D02*
X1271048D01*
X1257046Y794512D02*
X1291844D01*
X1257046Y808736D02*
X1291844D01*
X1402080Y773001D02*
Y776398D01*
X1431544Y774287D02*
Y775113D01*
X1400048Y769414D02*
Y779986D01*
X1402080Y747601D02*
Y750999D01*
X1431544Y748887D02*
Y749713D01*
X1400048Y744014D02*
Y754586D01*
X1373886Y747776D02*
X1402207D01*
X1373886Y745744D02*
X1400898D01*
X1402080Y722202D02*
Y725599D01*
X1431544Y723487D02*
Y724313D01*
X1400048Y718614D02*
Y729186D01*
X1429607Y696976D02*
X1431544D01*
X1388185D02*
X1405033D01*
X1373886Y727456D02*
X1400898D01*
X1373886Y725424D02*
X1402207D01*
X1382089Y703072D02*
X1400372D01*
X1386153Y699008D02*
X1403015D01*
X1384121Y701040D02*
X1401507D01*
X1383792Y701369D02*
Y1019481D01*
X1381760Y703401D02*
Y1017449D01*
X1379728Y705433D02*
Y1015417D01*
X1387856Y697305D02*
Y1023705D01*
X1385824Y699337D02*
Y1021513D01*
X1373886Y743712D02*
X1399922D01*
X1373886Y741680D02*
X1399223D01*
X1373886Y764032D02*
X1398634D01*
X1377696Y707465D02*
Y1013385D01*
X1375664Y709497D02*
Y1011353D01*
X1373886Y729488D02*
X1399922D01*
X1375993Y709168D02*
X1398634D01*
X1373961Y711200D02*
X1398524D01*
X1380057Y705104D02*
X1399540D01*
X1378025Y707136D02*
X1398969D01*
X1373886Y739648D02*
X1398773D01*
X1373886Y737616D02*
X1398551D01*
X1373886Y735584D02*
X1398551D01*
X1373886Y731520D02*
X1399223D01*
X1373886Y733552D02*
X1398773D01*
X1426756Y694944D02*
X1431544D01*
X1426464Y676822D02*
Y694778D01*
X1424432Y677798D02*
Y693801D01*
X1431544Y672687D02*
Y698913D01*
X1430528Y673773D02*
Y697827D01*
X1428496Y675512D02*
Y696087D01*
X1421660Y692912D02*
X1431544D01*
X1418336Y679168D02*
Y692431D01*
X1422400Y678496D02*
Y693103D01*
X1420368Y678947D02*
Y692653D01*
X1421660Y678688D02*
X1431544D01*
X1426756Y676656D02*
X1431544D01*
X1403894Y680720D02*
X1431544D01*
X1429607Y674624D02*
X1431544D01*
X1396313Y688848D02*
X1431544D01*
X1398345Y686816D02*
X1431544D01*
X1394281Y690880D02*
X1431544D01*
X1402390Y682752D02*
X1431544D01*
X1400377Y684784D02*
X1431544D01*
X1400048Y685113D02*
Y703786D01*
X1402080Y683080D02*
Y700199D01*
X1398016Y687145D02*
Y1042595D01*
X1406144Y675512D02*
Y696087D01*
X1404112Y680338D02*
Y697827D01*
X1391920Y693241D02*
Y1036499D01*
X1390217Y694944D02*
X1407884D01*
X1389888Y695273D02*
Y1027720D01*
X1395984Y689177D02*
Y1040563D01*
X1393952Y691209D02*
Y1038531D01*
X1414272Y678947D02*
Y692653D01*
X1416304Y679168D02*
Y692431D01*
X1412240Y678496D02*
Y693103D01*
X1410208Y677798D02*
Y693801D01*
X1408176Y676822D02*
Y694778D01*
X1392249Y692912D02*
X1412980D01*
X1404863Y678688D02*
X1412980D01*
X1405424Y676656D02*
X1407884D01*
X1373886Y776224D02*
X1402207D01*
X1373886Y774192D02*
X1403015D01*
X1373886Y772160D02*
X1401507D01*
X1373886Y770128D02*
X1400372D01*
X1373886Y768096D02*
X1399540D01*
X1373886Y766064D02*
X1398969D01*
X1373440Y784352D02*
X1398773D01*
X1373821Y782320D02*
X1399223D01*
X1369643Y790448D02*
X1398773D01*
X1373886Y778256D02*
X1400898D01*
X1373886Y780288D02*
X1399922D01*
X1373886Y723392D02*
X1403015D01*
X1373886Y721360D02*
X1401507D01*
X1373886Y719328D02*
X1400372D01*
X1373886Y717296D02*
X1399540D01*
X1373886Y715264D02*
X1398969D01*
X1373886Y755904D02*
X1399540D01*
X1373886Y753872D02*
X1400372D01*
X1373886Y757936D02*
X1398969D01*
X1373886Y749808D02*
X1403015D01*
X1373886Y751840D02*
X1401507D01*
X1372685Y786384D02*
X1398551D01*
X1373886Y762000D02*
X1398524D01*
X1373632Y783552D02*
Y1009321D01*
X1373886Y759968D02*
X1398634D01*
X1373886Y711275D02*
Y781050D01*
X1371600Y788239D02*
Y1007289D01*
X1371472Y788416D02*
X1398551D01*
X1356796Y803295D02*
X1370229Y789863D01*
X1331797Y717296D02*
X1335024D01*
X1329765Y715264D02*
X1335024D01*
X1333829Y719328D02*
X1335024D01*
X1373886Y713232D02*
X1398634D01*
X1327733D02*
X1335024D01*
X1318514Y752221D02*
Y752995D01*
X1325701Y711200D02*
X1335024D01*
X1318006Y752221D02*
Y752995D01*
X1321637Y707136D02*
X1335024D01*
X1323669Y709168D02*
X1335024D01*
X1338681Y693497D02*
X1344213Y687966D01*
X1337056D02*
Y695495D01*
X1373886Y711275D02*
X1401979Y683183D01*
X1341120Y687966D02*
Y691059D01*
X1339088Y687966D02*
Y693091D01*
X1312926Y694944D02*
X1337438D01*
X1312926Y696976D02*
X1336225D01*
X1312926Y690880D02*
X1341299D01*
X1312926Y692912D02*
X1339267D01*
X1351085Y653154D02*
X1352804Y651435D01*
X1350339Y652272D02*
X1351967D01*
X1351280Y651331D02*
Y652959D01*
X1349457Y653154D02*
X1352804Y649807D01*
Y651435D01*
X1330220Y688848D02*
X1343331D01*
X1333874Y687966D02*
X1344213D01*
X1343152D02*
Y689027D01*
X1349457Y653154D02*
X1351085D01*
X1317091Y650317D02*
X1341374Y626035D01*
X1335024Y702310D02*
Y720523D01*
Y702310D02*
Y720523D01*
X1328928Y689107D02*
Y714427D01*
X1332992Y687959D02*
Y718491D01*
X1330960Y688656D02*
Y716459D01*
X1312926Y698425D02*
X1335024Y720523D01*
X1326896Y689329D02*
Y712395D01*
X1324864Y689329D02*
Y710363D01*
X1322832Y689107D02*
Y708331D01*
X1320800Y688656D02*
Y706299D01*
X1317573Y703072D02*
X1335024D01*
Y687966D02*
Y702310D01*
X1319605Y705104D02*
X1335024D01*
X1318768Y593620D02*
Y648641D01*
Y687959D02*
Y704267D01*
X1315541Y701040D02*
X1335089D01*
X1313509Y699008D02*
X1335470D01*
X1312926Y688848D02*
X1321540D01*
X1312926Y648208D02*
X1319201D01*
X1431544Y621887D02*
Y622713D01*
Y596487D02*
Y597313D01*
Y647287D02*
Y648113D01*
Y545687D02*
Y546513D01*
Y520287D02*
Y521113D01*
Y571087D02*
Y571913D01*
X1430693Y469392D02*
X1431544D01*
X1428322Y467360D02*
X1431544D01*
Y494887D02*
Y495713D01*
X1424734Y465328D02*
X1431544D01*
X1404366Y451104D02*
X1431544D01*
X1404366Y449072D02*
X1431544D01*
X1404366Y453136D02*
X1431544D01*
X1404366Y445008D02*
X1431544D01*
X1404366Y447040D02*
X1431544D01*
X1404048Y461264D02*
X1431544D01*
X1404343Y459232D02*
X1431544D01*
X1403392Y463296D02*
X1431544D01*
X1404366Y455168D02*
X1431544D01*
X1404366Y457200D02*
X1431544D01*
X1398853Y546608D02*
X1400848D01*
X1399615Y545846D02*
X1403235D01*
X1400048D02*
Y546800D01*
X1398345Y520446D02*
X1403235D01*
X1397837Y520954D02*
X1403235D01*
X1397803Y547659D02*
X1399615Y545846D01*
X1397075Y495046D02*
X1403235D01*
X1396567Y495554D02*
X1403235D01*
X1404112Y460972D02*
Y469227D01*
X1402306Y465328D02*
X1409906D01*
X1402080Y465659D02*
Y470154D01*
X1397837D02*
X1403235D01*
X1398599Y469392D02*
X1403947D01*
X1400048Y467943D02*
Y470154D01*
X1400631Y467360D02*
X1406319D01*
X1397837Y470154D02*
X1400709Y467283D01*
X1430528Y440498D02*
Y469227D01*
X1429776Y440944D02*
X1431544D01*
X1428496Y441626D02*
Y467487D01*
X1431544Y393287D02*
Y398364D01*
Y439836D02*
Y470313D01*
X1426464Y442524D02*
Y466178D01*
X1425210Y442976D02*
X1431544D01*
X1424432Y443219D02*
Y465201D01*
X1430693Y394208D02*
X1431544D01*
X1430693Y367792D02*
X1431544D01*
X1430528Y394373D02*
Y397702D01*
X1431544Y366776D02*
Y368713D01*
X1430528Y366776D02*
Y367627D01*
X1428322Y396240D02*
X1431544D01*
X1429607Y366776D02*
X1431544D01*
X1420368Y444061D02*
Y464053D01*
X1418336Y444226D02*
Y463831D01*
X1416304Y444226D02*
Y463831D01*
X1422400Y443727D02*
Y464504D01*
X1414272Y444061D02*
Y464053D01*
X1410208Y443219D02*
Y465201D01*
X1412240Y443727D02*
Y464504D01*
X1408176Y442524D02*
Y466178D01*
X1406144Y441626D02*
Y467487D01*
X1404366Y440653D02*
Y458470D01*
Y442976D02*
X1409430D01*
X1404366Y395085D02*
Y397547D01*
X1379474Y395085D02*
Y453315D01*
X1404366Y396240D02*
X1406319D01*
X1378966Y395085D02*
Y450850D01*
X1404207Y366776D02*
X1405033D01*
X1378807D02*
X1379633D01*
X1312714Y623824D02*
X1341374D01*
X1312153Y621792D02*
X1341374D01*
X1312923Y625856D02*
X1341374D01*
X1309680Y617728D02*
X1341374D01*
X1309916Y605536D02*
X1341374D01*
X1311184Y619760D02*
X1341374D01*
X1305635Y613664D02*
X1341374D01*
X1303603Y611632D02*
X1341374D01*
X1307667Y615696D02*
X1341374D01*
X1304820Y607568D02*
X1341374D01*
X1301571Y609600D02*
X1341374D01*
X1317428Y597408D02*
X1341374D01*
X1318260Y595376D02*
X1341374D01*
X1316293Y599440D02*
X1341374D01*
X1316999Y568960D02*
X1341374D01*
X1317428Y581152D02*
X1341374D01*
X1314785Y601472D02*
X1341374D01*
X1316293Y579120D02*
X1341374D01*
X1312767Y603504D02*
X1341374D01*
X1312884Y575056D02*
X1341374D01*
X1314785Y577088D02*
X1341374D01*
X1312926Y633984D02*
X1333425D01*
X1312926Y631952D02*
X1335457D01*
X1312926Y636016D02*
X1331393D01*
X1312926Y627888D02*
X1339521D01*
X1312926Y629920D02*
X1337489D01*
X1312926Y644144D02*
X1323265D01*
X1312926Y642112D02*
X1325297D01*
X1312926Y646176D02*
X1321233D01*
X1312926Y638048D02*
X1329361D01*
X1312926Y640080D02*
X1327329D01*
X1319166Y591312D02*
X1341374D01*
X1319276Y589280D02*
X1341374D01*
X1318831Y593344D02*
X1341374D01*
X1318831Y585216D02*
X1341374D01*
X1319166Y587248D02*
X1341374D01*
X1318260Y583184D02*
X1341374D01*
X1316091Y570992D02*
X1341374D01*
X1314773Y573024D02*
X1341374D01*
X1337056Y564377D02*
Y630353D01*
X1333500Y564896D02*
X1341374D01*
X1335024Y564802D02*
Y632385D01*
X1341120Y562291D02*
Y626289D01*
X1341374Y562089D02*
Y626035D01*
X1339088Y563571D02*
Y628321D01*
X1330960Y564896D02*
Y636449D01*
X1317573Y566928D02*
X1341374D01*
X1328928Y564896D02*
Y638481D01*
X1332992Y564896D02*
Y634417D01*
X1378474Y454315D02*
X1379474Y453315D01*
X1354074Y395085D02*
Y445695D01*
X1353566Y395085D02*
Y446203D01*
X1317852Y564896D02*
X1333500D01*
X1340316Y562864D02*
X1341374D01*
X1317852Y564896D02*
X1333500D01*
X1353407Y366776D02*
X1354233D01*
X1320800Y564896D02*
Y646609D01*
X1322832Y564896D02*
Y644577D01*
X1318768Y564896D02*
Y584940D01*
X1326896Y564896D02*
Y640513D01*
X1324864Y564896D02*
Y642545D01*
X1314475Y525933D02*
X1317244Y523165D01*
Y521581D02*
Y523165D01*
X1328029Y442529D02*
X1328674Y441885D01*
Y395085D02*
Y441885D01*
X1328166Y395085D02*
Y440690D01*
X1314785Y499872D02*
X1317244D01*
X1316293Y497840D02*
X1317244D01*
X1315592Y501904D02*
X1317244D01*
X1328007Y366776D02*
X1328833D01*
X1284224Y784486D02*
Y817140D01*
X1282192Y784486D02*
Y815962D01*
X1280160Y784486D02*
Y815138D01*
X1290320Y784486D02*
Y824409D01*
X1288288Y784486D02*
Y821103D01*
X1286256Y784486D02*
Y818775D01*
X1270000Y784486D02*
Y815138D01*
X1272032Y784486D02*
Y814612D01*
X1267968Y784486D02*
Y815962D01*
X1278128Y784486D02*
Y814612D01*
X1276096Y784486D02*
Y814356D01*
X1294384Y784486D02*
Y786215D01*
X1295953Y784486D02*
X1296754Y783685D01*
X1292352Y784486D02*
Y790230D01*
X1257046Y788416D02*
X1293045D01*
X1257046Y786384D02*
X1294258D01*
X1274064Y784486D02*
Y814356D01*
X1262754Y784486D02*
X1295953D01*
X1264539Y749674D02*
X1267714D01*
X1263904Y784486D02*
Y818775D01*
X1265936Y784486D02*
Y817140D01*
X1257046Y784352D02*
X1262754D01*
Y749674D02*
Y784486D01*
X1257046Y782320D02*
X1262754D01*
X1257046Y778256D02*
X1262754D01*
X1257046Y776224D02*
X1262754D01*
X1257046Y780288D02*
X1262754D01*
X1257046Y772160D02*
X1262754D01*
X1257046Y774192D02*
X1262754D01*
Y751840D02*
X1264539D01*
X1262754Y749808D02*
X1264539D01*
X1257046Y755904D02*
X1262754D01*
Y749674D02*
X1264539D01*
Y752221D01*
X1257046Y768096D02*
X1262754D01*
X1257046Y747776D02*
X1264539D01*
X1257046Y770128D02*
X1262754D01*
X1257046Y743712D02*
X1264539D01*
X1257046Y745744D02*
X1264539D01*
X1298448Y719149D02*
Y720979D01*
X1295781D02*
X1300278D01*
X1296416Y717117D02*
Y720979D01*
X1294384Y715085D02*
Y720979D01*
X1291691Y712393D02*
X1300278Y720979D01*
X1292352Y713053D02*
Y720979D01*
X1287399D02*
X1295781D01*
X1287399D02*
X1295781D01*
X1264539D02*
X1287399D01*
X1290320Y710769D02*
Y720979D01*
X1288288Y706082D02*
Y720979D01*
X1316736Y686982D02*
Y702235D01*
X1312926Y686816D02*
X1316444D01*
X1314704Y685673D02*
Y700203D01*
X1312926Y685154D02*
Y698425D01*
X1288034Y685154D02*
Y703580D01*
X1282623Y688848D02*
X1288034D01*
X1285766Y686816D02*
X1288034D01*
X1276096Y690595D02*
Y720979D01*
X1278128Y690349D02*
Y720979D01*
X1264539D02*
Y749674D01*
X1280160Y689844D02*
Y720979D01*
X1263904Y686400D02*
Y749674D01*
X1257046Y741680D02*
X1264539D01*
X1257046Y739648D02*
X1264539D01*
X1257808Y685113D02*
Y830251D01*
X1261872Y684264D02*
Y821103D01*
X1259840Y683081D02*
Y824923D01*
X1274064Y690595D02*
Y720979D01*
X1282192Y689056D02*
Y720979D01*
X1272032Y690349D02*
Y720979D01*
X1286256Y686400D02*
Y720979D01*
X1284224Y687937D02*
Y720979D01*
X1267968Y689056D02*
Y720979D01*
X1270000Y689844D02*
Y720979D01*
X1265936Y687937D02*
Y720979D01*
X1258137Y684784D02*
X1262304D01*
X1259915Y683006D02*
X1260961D01*
X1257046Y719328D02*
X1298627D01*
X1257046Y717296D02*
X1296595D01*
X1257046Y715264D02*
X1294563D01*
X1257046Y713232D02*
X1292531D01*
X1257046Y711200D02*
X1290639D01*
X1257046Y709168D02*
X1289359D01*
X1257046Y727456D02*
X1264539D01*
X1257046Y725424D02*
X1264539D01*
X1257046Y729488D02*
X1264539D01*
X1257046Y721360D02*
X1264539D01*
X1257046Y723392D02*
X1264539D01*
X1257046Y694944D02*
X1288034D01*
X1257046Y692912D02*
X1288034D01*
X1257046Y696976D02*
X1288034D01*
X1257046Y690880D02*
X1288034D01*
X1257046Y688848D02*
X1267537D01*
X1257046Y707136D02*
X1288553D01*
X1257046Y705104D02*
X1288128D01*
X1257046Y703072D02*
X1288034D01*
X1257046Y699008D02*
X1288034D01*
X1257046Y701040D02*
X1288034D01*
X1257046Y766064D02*
X1262754D01*
X1257046Y764032D02*
X1262754D01*
X1219200Y687966D02*
Y923544D01*
X1217168Y687966D02*
Y923711D01*
X1215136Y687966D02*
Y924226D01*
X1204976Y687966D02*
Y932613D01*
X1209040Y687966D02*
Y928549D01*
X1202944Y687966D02*
Y934645D01*
X1213104Y687966D02*
Y925139D01*
X1211072Y687966D02*
Y926565D01*
X1257046Y737616D02*
X1264539D01*
X1257046Y735584D02*
X1264539D01*
X1257046Y749808D02*
X1262754D01*
X1257046Y731520D02*
X1264539D01*
X1257046Y733552D02*
X1264539D01*
X1257046Y759968D02*
X1262754D01*
X1257046Y757936D02*
X1262754D01*
X1257046Y762000D02*
X1262754D01*
X1257046Y751840D02*
X1262754D01*
X1257046Y753872D02*
X1262754D01*
X1257046Y686816D02*
X1264394D01*
X1257046Y685875D02*
X1259915Y683006D01*
X1257046Y685875D02*
Y831013D01*
X1239520Y622046D02*
Y668199D01*
X1241552Y622046D02*
Y666167D01*
X1237488Y622046D02*
Y670231D01*
X1221366Y670560D02*
X1237159D01*
X1221366Y668528D02*
X1239191D01*
X1235811Y671907D02*
X1245947Y661771D01*
X1221366Y666496D02*
X1241223D01*
X1247648Y622046D02*
Y660346D01*
X1251712Y622046D02*
Y658493D01*
X1249680Y622046D02*
Y659198D01*
X1221366Y662432D02*
X1245287D01*
X1221366Y660400D02*
X1247571D01*
X1221366Y664464D02*
X1243255D01*
X1245616Y622046D02*
Y662103D01*
X1243584Y622046D02*
Y664135D01*
X1231392Y622046D02*
Y923544D01*
X1232154Y680720D02*
Y923544D01*
X1229360Y622046D02*
Y923544D01*
X1227328Y622046D02*
Y923544D01*
X1225296Y622046D02*
Y923544D01*
X1221232Y687966D02*
Y923544D01*
X1221366Y686816D02*
X1232154D01*
X1207008Y687966D02*
Y930581D01*
X1223264Y622046D02*
Y923544D01*
X1221366Y653154D02*
Y687966D01*
Y680720D02*
X1232154D01*
X1221366Y682752D02*
X1232154D01*
X1235456Y622046D02*
Y672277D01*
X1233424Y622046D02*
Y675243D01*
X1221366Y678688D02*
X1232321D01*
X1221366Y676656D02*
X1232836D01*
X1221366Y684784D02*
X1232154D01*
X1221366Y672592D02*
X1235175D01*
X1221366Y674624D02*
X1233749D01*
X1312926Y652272D02*
X1315494D01*
X1312926Y654304D02*
X1314408D01*
X1312926Y626110D02*
Y655966D01*
X1288034Y631265D02*
Y655966D01*
X1285766Y654304D02*
X1288034D01*
X1282623Y652272D02*
X1288034D01*
X1286256Y629487D02*
Y654720D01*
X1284224Y627455D02*
Y653183D01*
X1312926Y650240D02*
X1317169D01*
X1310640Y605093D02*
Y618921D01*
X1308608Y606228D02*
Y616637D01*
X1300042Y608071D02*
X1309269Y617297D01*
X1302512Y607966D02*
Y610541D01*
X1275080Y618311D02*
X1288034Y631265D01*
X1306576Y607060D02*
Y614605D01*
X1304544Y607631D02*
Y612573D01*
X1265936Y622046D02*
Y653183D01*
X1282192Y625423D02*
Y652064D01*
X1261872Y622046D02*
Y656856D01*
X1267968Y621918D02*
Y652064D01*
X1263904Y622046D02*
Y654720D01*
X1259840Y622046D02*
Y658114D01*
X1254760D02*
X1260961D01*
X1257808Y622046D02*
Y658114D01*
X1255776Y622046D02*
Y658114D01*
X1253744Y622046D02*
Y658156D01*
X1280160Y623391D02*
Y651276D01*
X1278128Y621359D02*
Y650771D01*
X1273379Y619760D02*
X1276529D01*
X1276096Y619327D02*
Y650525D01*
X1274064Y619239D02*
Y650525D01*
X1272032Y620590D02*
Y650771D01*
X1268692Y621792D02*
X1278561D01*
X1270000Y621449D02*
Y651276D01*
X1314704Y601567D02*
Y653653D01*
X1316736Y598716D02*
Y650687D01*
X1312672Y603585D02*
Y623608D01*
X1316736Y569637D02*
Y579844D01*
X1314704Y573113D02*
Y576993D01*
X1261872Y551853D02*
Y553478D01*
X1260677Y552704D02*
X1262676D01*
X1258645Y554736D02*
X1260787D01*
X1252143Y561239D02*
X1261700Y551681D01*
X1316736Y522516D02*
Y523673D01*
Y497116D02*
Y503644D01*
X1314704Y499967D02*
Y500793D01*
X1317244Y496180D02*
Y504580D01*
X1303274Y395085D02*
Y435535D01*
X1277874Y395085D02*
Y438075D01*
X1302766Y395085D02*
Y436043D01*
X1277366Y395085D02*
Y438583D01*
X1302607Y366776D02*
X1303433D01*
X1277207D02*
X1278033D01*
X1255776Y589026D02*
Y597154D01*
X1257674Y589026D02*
Y597154D01*
X1253744Y589026D02*
Y597154D01*
X1255776Y557605D02*
Y564134D01*
X1253744Y559637D02*
Y564134D01*
X1249680Y589026D02*
Y597154D01*
X1251712Y589026D02*
Y597154D01*
X1247648Y589026D02*
Y597154D01*
X1251712Y561650D02*
Y564134D01*
X1254581Y558800D02*
X1258561D01*
X1256613Y556768D02*
X1259469D01*
X1252549Y560832D02*
X1257987D01*
X1259840Y553541D02*
Y556119D01*
X1257808Y555573D02*
Y561880D01*
X1250145Y562864D02*
X1257709D01*
X1251966Y395085D02*
Y443663D01*
X1249680Y563154D02*
Y564134D01*
X1251807Y366776D02*
X1252633D01*
X1252474Y395085D02*
Y443155D01*
X1221366Y654304D02*
X1264394D01*
X1216406Y652272D02*
X1267537D01*
X1221366Y656336D02*
X1262304D01*
X1216406Y648208D02*
X1288034D01*
X1216406Y646176D02*
X1288034D01*
X1216406Y650240D02*
X1288034D01*
X1216406Y642112D02*
X1288034D01*
X1216406Y640080D02*
X1288034D01*
X1216406Y644144D02*
X1288034D01*
X1216406Y636016D02*
X1288034D01*
X1216406Y638048D02*
X1288034D01*
X1216406Y631952D02*
X1288034D01*
X1216406Y629920D02*
X1286689D01*
X1226820Y595376D02*
X1257674D01*
X1227836Y589280D02*
X1257674D01*
X1227391Y593344D02*
X1257674D01*
X1216406Y633984D02*
X1288034D01*
X1216406Y627888D02*
X1284657D01*
X1216406Y625856D02*
X1282625D01*
X1216406Y623824D02*
X1280593D01*
X1216312Y622046D02*
X1266190D01*
X1221366Y658368D02*
X1252258D01*
X1221232Y622046D02*
Y653154D01*
X1219200Y622046D02*
Y653154D01*
X1243584Y589026D02*
Y597154D01*
X1241552Y589026D02*
Y597154D01*
X1217168Y622046D02*
Y653154D01*
X1216406D02*
X1221366D01*
X1216406Y623570D02*
Y653154D01*
X1233424Y589026D02*
Y597154D01*
X1235456Y589026D02*
Y597154D01*
X1229360Y589026D02*
Y597154D01*
X1245616Y589026D02*
Y597154D01*
X1239520Y589026D02*
Y597154D01*
X1226107D02*
X1257674D01*
X1227726Y591312D02*
X1257674D01*
X1227328Y593620D02*
Y597154D01*
X1227834Y589026D02*
X1257674D01*
X1237488D02*
Y597154D01*
X1247618Y564134D02*
X1257676D01*
X1231392Y589026D02*
Y597154D01*
X1226416Y514096D02*
X1230884D01*
X1226416Y512064D02*
X1230884D01*
X1226177Y516128D02*
X1230884D01*
X1226177Y510032D02*
X1230884D01*
X1222935Y526034D02*
X1230884Y518085D01*
X1224927Y505968D02*
X1230884D01*
X1225688Y508000D02*
X1230884D01*
X1227726Y489712D02*
X1230884D01*
X1227836Y487680D02*
X1230884D01*
X1227391Y491744D02*
X1230884D01*
X1227800Y486521D02*
X1230884Y483437D01*
X1228673Y485648D02*
X1230884D01*
X1222384Y501904D02*
X1230884D01*
X1223345Y499872D02*
X1230884D01*
X1223851Y503936D02*
X1230884D01*
X1225988Y495808D02*
X1230884D01*
X1224853Y497840D02*
X1230884D01*
X1224927Y520192D02*
X1228777D01*
X1225688Y518160D02*
X1230809D01*
X1225296Y519302D02*
Y523673D01*
X1229360Y484961D02*
Y519609D01*
X1227328Y492020D02*
Y521641D01*
X1223264Y523112D02*
Y525705D01*
X1222384Y524256D02*
X1224713D01*
X1221208Y526034D02*
X1222935D01*
X1223851Y522224D02*
X1226745D01*
X1230884Y483437D02*
Y518085D01*
X1226820Y493776D02*
X1230884D01*
X1227074Y395085D02*
Y452045D01*
X1226566Y395085D02*
Y452553D01*
X1225296Y497116D02*
Y506858D01*
X1223264Y499967D02*
Y503048D01*
X1226407Y366776D02*
X1227233D01*
X959606Y1215136D02*
X1271070D01*
X960253Y1213104D02*
X1269494D01*
X960717Y1211072D02*
X1268221D01*
X961007Y1209040D02*
X1267199D01*
X961131Y1207008D02*
X1266397D01*
X961090Y1204976D02*
X1265791D01*
X954733Y1223264D02*
X1284867D01*
X954733D02*
X1284867D01*
X956369Y1221232D02*
X1278953D01*
X957693Y1219200D02*
X1275537D01*
X958761Y1217168D02*
X1273032D01*
X960883Y1202944D02*
X1265367D01*
X960507Y1200912D02*
X1265116D01*
X959954Y1198880D02*
X1265033D01*
X958257Y1194816D02*
X1265367D01*
X959210Y1196848D02*
X1265116D01*
X955594Y1190752D02*
X1266397D01*
X953772Y1188720D02*
X1267199D01*
X957066Y1192784D02*
X1265791D01*
X953406Y1068832D02*
X1226439D01*
X953071Y1070864D02*
X1226439D01*
X1198880Y1019631D02*
Y1223264D01*
X1200912Y1021663D02*
Y1223264D01*
X1196848Y1017599D02*
Y1223264D01*
X1192784Y1013535D02*
Y1223264D01*
X1194816Y1015567D02*
Y1223264D01*
X1190752Y1011503D02*
Y1223264D01*
X953406Y1064768D02*
X1226439D01*
X953071Y1062736D02*
X1226439D01*
X953516Y1066800D02*
X1226439D01*
X1188720Y1009471D02*
Y1223264D01*
X1186688Y1007439D02*
Y1223264D01*
X953488Y1042416D02*
X1216454D01*
X953488Y1040384D02*
X1216454D01*
X953406Y1018032D02*
X1197281D01*
X953516Y1016000D02*
X1195249D01*
X953406Y1013968D02*
X1193217D01*
X953267Y1044448D02*
X1216454D01*
X953267Y1038352D02*
X1216454D01*
X952816Y1046480D02*
X1216454D01*
X953071Y1020064D02*
X1199313D01*
X953071Y1011936D02*
X1191185D01*
X1199896Y985445D02*
X1202944Y988493D01*
X1199971Y985520D02*
X1202944D01*
X1202003Y987552D02*
X1202944D01*
X1200912Y971879D02*
Y986461D01*
X1199896Y983488D02*
X1202944D01*
X1199896Y972895D02*
Y985445D01*
X1184656Y1005407D02*
Y1223264D01*
X1182295Y1003046D02*
X1216454Y1037205D01*
X1182624Y1003375D02*
Y1223264D01*
X1180592Y1003046D02*
Y1223264D01*
X1178560Y1003046D02*
Y1223264D01*
X1199896Y979424D02*
X1202944D01*
X1199896Y977392D02*
X1202944D01*
X1199896Y981456D02*
X1202944D01*
X1201495Y971296D02*
X1202944D01*
X1199896Y975360D02*
X1202944D01*
X1199896Y973328D02*
X1202944D01*
X1199896Y972895D02*
X1202944Y969847D01*
X1178661Y958927D02*
X1210387Y927201D01*
X1174496Y1003046D02*
Y1223264D01*
X1176528Y1003046D02*
Y1223264D01*
X1172464Y1003046D02*
Y1223264D01*
X1175004Y967740D02*
Y978154D01*
X1174496Y847162D02*
Y978154D01*
X1168400Y1003046D02*
Y1223264D01*
X1170432Y1003046D02*
Y1223264D01*
X1166368Y1003046D02*
Y1223264D01*
X1168400Y850384D02*
Y978154D01*
X1166368Y850636D02*
Y978154D01*
X1172464Y848749D02*
Y978154D01*
X958417Y959104D02*
X1178488D01*
X1170432Y849776D02*
Y978154D01*
X1178560Y843101D02*
Y959030D01*
X1176528Y845133D02*
Y961772D01*
X953406Y967232D02*
X1175014D01*
X953516Y965200D02*
X1175266D01*
X953071Y969264D02*
X1175004D01*
X956385Y961136D02*
X1176901D01*
X954353Y963168D02*
X1175874D01*
X920496Y1164336D02*
X1277493D01*
X920496Y1162304D02*
X1277493D01*
X920496Y1166368D02*
X1277493D01*
X920496Y1158240D02*
X1277493D01*
X920496Y1156208D02*
X1277493D01*
X920496Y1160272D02*
X1277493D01*
X920496Y1174496D02*
X1277493D01*
X920496Y1172464D02*
X1277493D01*
X920496Y1176528D02*
X1277493D01*
X920496Y1168400D02*
X1277493D01*
X920496Y1170432D02*
X1277493D01*
X920496Y1141984D02*
X1277493D01*
X920496Y1129792D02*
X1277493D01*
X920496Y1144016D02*
X1277493D01*
X920496Y1125728D02*
X1277493D01*
X920496Y1127760D02*
X1277493D01*
X920496Y1152144D02*
X1277493D01*
X920496Y1150112D02*
X1277493D01*
X920496Y1154176D02*
X1277493D01*
X920496Y1146048D02*
X1277493D01*
X920496Y1148080D02*
X1277493D01*
X948446Y1184656D02*
X1269494D01*
X943880Y1182624D02*
X1271070D01*
X951476Y1186688D02*
X1268221D01*
X920496Y1178560D02*
X1275537D01*
X920496Y1180592D02*
X1273032D01*
X920496Y1137920D02*
X1277493D01*
X920496Y1135888D02*
X1277493D01*
X920496Y1139952D02*
X1277493D01*
X920496Y1131824D02*
X1277493D01*
X920496Y1133856D02*
X1277493D01*
X920496Y1113536D02*
X1271195D01*
X920496Y1111504D02*
X1269163D01*
X920496Y1109472D02*
X1267131D01*
X920496Y1107440D02*
X1265099D01*
X920496Y1105408D02*
X1263067D01*
X920496Y1123696D02*
X1277493D01*
X920496Y1121664D02*
X1277493D01*
X920496Y1119632D02*
X1277291D01*
X920496Y1117600D02*
X1275259D01*
X920496Y1115568D02*
X1273227D01*
X920496Y1093216D02*
X1250875D01*
X920496Y1091184D02*
X1248843D01*
X920496Y1089152D02*
X1246811D01*
X920496Y1087120D02*
X1244779D01*
X939060Y1085088D02*
X1242747D01*
X944156Y1083056D02*
X1240715D01*
X920496Y1103376D02*
X1261035D01*
X920496Y1101344D02*
X1259003D01*
X920496Y1099312D02*
X1256971D01*
X920496Y1097280D02*
X1254939D01*
X920496Y1095248D02*
X1252907D01*
X952500Y1072896D02*
X1226439D01*
X952500Y1060704D02*
X1226439D01*
X951668Y1074928D02*
X1226439D01*
X951668Y1058672D02*
X1226439D01*
X950533Y1056640D02*
X1216454D01*
X949025Y1078992D02*
X1226439D01*
X950533Y1076960D02*
X1226439D01*
X947007Y1081024D02*
X1226439D01*
X949833Y1052576D02*
X1216454D01*
X949025Y1054608D02*
X1216454D01*
X952119Y1048512D02*
X1216454D01*
X952816Y1036320D02*
X1215569D01*
X952119Y1034288D02*
X1213537D01*
X951668Y1024128D02*
X1203377D01*
X952500Y1022096D02*
X1201345D01*
X951142Y1050544D02*
X1216454D01*
X951142Y1032256D02*
X1211505D01*
X949833Y1030224D02*
X1209473D01*
X949025Y1028192D02*
X1207441D01*
X950533Y1026160D02*
X1205409D01*
X952500Y1009904D02*
X1189153D01*
X951668Y1007872D02*
X1187121D01*
X950533Y975360D02*
X1175004D01*
X952500Y971296D02*
X1175004D01*
X951668Y973328D02*
X1175004D01*
X950533Y1005840D02*
X1185089D01*
X949025Y1003808D02*
X1183057D01*
X948805Y1003046D02*
X1182295D01*
X949025Y977392D02*
X1175004D01*
X948805Y978154D02*
X1175004D01*
X1174303Y847344D02*
X1232154D01*
X1176349Y845312D02*
X1232154D01*
X1171337Y849376D02*
X1232154D01*
X1180413Y841248D02*
X1232154D01*
X1182445Y839216D02*
X1232154D01*
X1178381Y843280D02*
X1232154D01*
X967486Y910336D02*
X1232154D01*
X967486Y896112D02*
X1232154D01*
X967486Y916432D02*
X1232154D01*
X967486Y890016D02*
X1232154D01*
X967486Y894080D02*
X1232154D01*
X1191006Y816864D02*
X1232154D01*
X1191006Y814832D02*
X1232154D01*
X1191006Y818896D02*
X1232154D01*
X1191006Y806704D02*
X1232154D01*
X1191006Y812800D02*
X1232154D01*
X1186509Y835152D02*
X1232154D01*
X1188401Y833120D02*
X1232154D01*
X1184477Y837184D02*
X1232154D01*
X1190487Y829056D02*
X1232154D01*
X1189681Y831088D02*
X1232154D01*
X1184656Y837005D02*
Y952933D01*
X1186688Y834973D02*
Y950901D01*
X1182624Y839037D02*
Y954965D01*
X1190752Y828002D02*
Y946837D01*
X1188720Y832689D02*
Y948869D01*
X967486Y918464D02*
X1232154D01*
X1174673Y846989D02*
X1187349Y834313D01*
X1180592Y841069D02*
Y956997D01*
X1191006Y822960D02*
X1232154D01*
X1191006Y820928D02*
X1232154D01*
X1191006Y824992D02*
X1232154D01*
X1191006Y804672D02*
X1232154D01*
X1191006Y808736D02*
X1232154D01*
X1190912Y827024D02*
X1232154D01*
X1191006Y810768D02*
X1232154D01*
X1160705Y825754D02*
X1166114Y820345D01*
X1191006Y749808D02*
X1232154D01*
X1191006Y747776D02*
X1232154D01*
X1191006Y751840D02*
X1232154D01*
X1191006Y743712D02*
X1232154D01*
X1191006Y741680D02*
X1232154D01*
X1191006Y745744D02*
X1232154D01*
X1191006Y759968D02*
X1232154D01*
X1191006Y757936D02*
X1232154D01*
X1191006Y762000D02*
X1232154D01*
X1191006Y753872D02*
X1232154D01*
X1191006Y755904D02*
X1232154D01*
X1191006Y727456D02*
X1232154D01*
X1191006Y725424D02*
X1232154D01*
X1191006Y729488D02*
X1232154D01*
X1191006Y721360D02*
X1232154D01*
X1191006Y723392D02*
X1232154D01*
X1191006Y737616D02*
X1232154D01*
X1191006Y735584D02*
X1232154D01*
X1191006Y739648D02*
X1232154D01*
X1191006Y731520D02*
X1232154D01*
X1191006Y733552D02*
X1232154D01*
X1191006Y790448D02*
X1232154D01*
X1191006Y788416D02*
X1232154D01*
X1191006Y792480D02*
X1232154D01*
X1191006Y784352D02*
X1232154D01*
X1191006Y786384D02*
X1232154D01*
X1191006Y800608D02*
X1232154D01*
X1191006Y798576D02*
X1232154D01*
X1191006Y802640D02*
X1232154D01*
X1191006Y794512D02*
X1232154D01*
X1191006Y796544D02*
X1232154D01*
X1191006Y770128D02*
X1232154D01*
X1191006Y768096D02*
X1232154D01*
X1191006Y772160D02*
X1232154D01*
X1191006Y764032D02*
X1232154D01*
X1191006Y766064D02*
X1232154D01*
X1191006Y780288D02*
X1232154D01*
X1191006Y778256D02*
X1232154D01*
X1191006Y782320D02*
X1232154D01*
X1191006Y774192D02*
X1232154D01*
X1191006Y776224D02*
X1232154D01*
X967486Y898144D02*
X1232154D01*
X967486Y892048D02*
X1232154D01*
X967486Y900176D02*
X1232154D01*
X967486Y885952D02*
X1232154D01*
X967486Y883920D02*
X1232154D01*
X967486Y887984D02*
X1232154D01*
X967486Y908304D02*
X1232154D01*
X967486Y906272D02*
X1232154D01*
X967486Y912368D02*
X1232154D01*
X967486Y902208D02*
X1232154D01*
X967486Y904240D02*
X1232154D01*
X967486Y879856D02*
X1232154D01*
X967486Y877824D02*
X1232154D01*
X967486Y881888D02*
X1232154D01*
X967421Y873760D02*
X1232154D01*
X967486Y875792D02*
X1232154D01*
X966285Y869696D02*
X1232154D01*
X965072Y867664D02*
X1232154D01*
X967040Y871728D02*
X1232154D01*
X961211Y863600D02*
X1232154D01*
X963243Y865632D02*
X1232154D01*
X967486Y944880D02*
X1192709D01*
X967486Y942848D02*
X1194741D01*
X967319Y946912D02*
X1190677D01*
X967486Y938784D02*
X1198805D01*
X967486Y940816D02*
X1196773D01*
X962481Y955040D02*
X1182549D01*
X964465Y953008D02*
X1184581D01*
X960449Y957072D02*
X1180517D01*
X966804Y948944D02*
X1188645D01*
X965891Y950976D02*
X1186613D01*
X967486Y924560D02*
X1214275D01*
X967486Y922528D02*
X1232154D01*
X967486Y926592D02*
X1211040D01*
X967486Y914400D02*
X1232154D01*
X967486Y920496D02*
X1232154D01*
X967486Y934720D02*
X1202869D01*
X967486Y932688D02*
X1204901D01*
X967486Y936752D02*
X1200837D01*
X967486Y928624D02*
X1208965D01*
X967486Y930656D02*
X1206933D01*
X957147Y859536D02*
X1232154D01*
X955115Y857504D02*
X1232154D01*
X959179Y861568D02*
X1232154D01*
X953516Y812800D02*
X1166114D01*
X953406Y810768D02*
X1166114D01*
X953406Y814832D02*
X1166114D01*
X949805Y853440D02*
X1232154D01*
X948093Y851408D02*
X1232154D01*
X953040Y855472D02*
X1232154D01*
X953071Y816864D02*
X1166114D01*
X952500Y818896D02*
X1166114D01*
X952500Y806704D02*
X1166114D01*
X952119Y794512D02*
X1166114D01*
X953071Y808736D02*
X1166114D01*
X953488Y788416D02*
X1166114D01*
X952816Y792480D02*
X1166114D01*
X950533Y802640D02*
X1166114D01*
X949025Y800608D02*
X1166114D01*
X951668Y804672D02*
X1166114D01*
X951142Y796544D02*
X1166114D01*
X949833Y798576D02*
X1166114D01*
X953267Y784352D02*
X1166114D01*
X952816Y782320D02*
X1166114D01*
X953488Y786384D02*
X1166114D01*
X952500Y755904D02*
X1166114D01*
X953071Y766064D02*
X1166114D01*
X950533Y772160D02*
X1166114D01*
X951668Y770128D02*
X1166114D01*
X949025Y774192D02*
X1166114D01*
X951668Y753872D02*
X1166114D01*
X952500Y768096D02*
X1166114D01*
X952119Y743712D02*
X1166114D01*
X953488Y735584D02*
X1166114D01*
X951142Y745744D02*
X1166114D01*
X951142Y727456D02*
X1166114D01*
X952119Y729488D02*
X1166114D01*
X949833Y747776D02*
X1166114D01*
X949833Y725424D02*
X1166114D01*
X950533Y751840D02*
X1166114D01*
X950533Y721360D02*
X1166114D01*
X949025Y723392D02*
X1166114D01*
X1135888Y1003046D02*
Y1223264D01*
X1137920Y1003046D02*
Y1223264D01*
X1133856Y1003046D02*
Y1223264D01*
X1141984Y1003046D02*
Y1223264D01*
X1144016Y1003046D02*
Y1223264D01*
X1139952Y1003046D02*
Y1223264D01*
X1125728Y1003046D02*
Y1223264D01*
X1127760Y1003046D02*
Y1223264D01*
X1123696Y1003046D02*
Y1223264D01*
X1131824Y1003046D02*
Y1223264D01*
X1129792Y1003046D02*
Y1223264D01*
X1158240Y1003046D02*
Y1223264D01*
X1160272Y1003046D02*
Y1223264D01*
X1156208Y1003046D02*
Y1223264D01*
X1164336Y1003046D02*
Y1223264D01*
X1162304Y1003046D02*
Y1223264D01*
X1148080Y1003046D02*
Y1223264D01*
X1150112Y1003046D02*
Y1223264D01*
X1146048Y1003046D02*
Y1223264D01*
X1154176Y1003046D02*
Y1223264D01*
X1152144Y1003046D02*
Y1223264D01*
X1095248Y1003046D02*
Y1223264D01*
X1097280Y1003046D02*
Y1223264D01*
X1093216Y1003046D02*
Y1223264D01*
X1101344Y1003046D02*
Y1223264D01*
X1099312Y1003046D02*
Y1223264D01*
X1085088Y1003046D02*
Y1223264D01*
X1087120Y1003046D02*
Y1223264D01*
X1083056Y1003046D02*
Y1223264D01*
X1091184Y1003046D02*
Y1223264D01*
X1089152Y1003046D02*
Y1223264D01*
X1115568Y1003046D02*
Y1223264D01*
X1117600Y1003046D02*
Y1223264D01*
X1113536Y1003046D02*
Y1223264D01*
X1121664Y1003046D02*
Y1223264D01*
X1119632Y1003046D02*
Y1223264D01*
X1105408Y1003046D02*
Y1223264D01*
X1107440Y1003046D02*
Y1223264D01*
X1103376Y1003046D02*
Y1223264D01*
X1111504Y1003046D02*
Y1223264D01*
X1109472Y1003046D02*
Y1223264D01*
X1078992Y1003046D02*
Y1223264D01*
X1081024Y1003046D02*
Y1223264D01*
X1076960Y1003046D02*
Y1223264D01*
X1074928Y1003046D02*
Y1223264D01*
X1076960Y850646D02*
Y978154D01*
X1072896Y1003046D02*
Y1223264D01*
X1064768Y1003046D02*
Y1223264D01*
X1066800Y1003046D02*
Y1223264D01*
X1062736Y1003046D02*
Y1223264D01*
X1070864Y1003046D02*
Y1223264D01*
X1068832Y1003046D02*
Y1223264D01*
X1074928Y850646D02*
Y978154D01*
X1078992Y850646D02*
Y978154D01*
X1072896Y850646D02*
Y978154D01*
X1137920Y850646D02*
Y978154D01*
X1081024Y850646D02*
Y978154D01*
X1064768Y850646D02*
Y978154D01*
X1066800Y850646D02*
Y978154D01*
X1062736Y850646D02*
Y978154D01*
X1070864Y850646D02*
Y978154D01*
X1068832Y850646D02*
Y978154D01*
X1054608Y1003046D02*
Y1223264D01*
X1056640Y1003046D02*
Y1223264D01*
X1052576Y1003046D02*
Y1223264D01*
X1060704Y1003046D02*
Y1223264D01*
X1058672Y1003046D02*
Y1223264D01*
X1044448Y1003046D02*
Y1223264D01*
X1046480Y1003046D02*
Y1223264D01*
X1042416Y1003046D02*
Y1223264D01*
X1050544Y1003046D02*
Y1223264D01*
X1048512Y1003046D02*
Y1223264D01*
X1036320Y1003046D02*
Y1223264D01*
X1038352Y1003046D02*
Y1223264D01*
X1034288Y1003046D02*
Y1223264D01*
X1060704Y850646D02*
Y978154D01*
X1040384Y1003046D02*
Y1223264D01*
X1026160Y1003046D02*
Y1223264D01*
X1028192Y1003046D02*
Y1223264D01*
X1024128Y1003046D02*
Y1223264D01*
X1032256Y1003046D02*
Y1223264D01*
X1030224Y1003046D02*
Y1223264D01*
X959104Y1216403D02*
Y1223264D01*
X961136Y1206500D02*
Y1223264D01*
X957072Y1220207D02*
Y1223264D01*
X953008Y1071140D02*
Y1187988D01*
X946912Y1081105D02*
Y1183850D01*
X950976Y1076236D02*
Y1186307D01*
X948944Y1079087D02*
Y1184947D01*
X953008Y1045740D02*
Y1062460D01*
X950976Y1050836D02*
Y1057364D01*
X948944Y1053687D02*
Y1054513D01*
X950976Y1025436D02*
Y1031964D01*
X948944Y1028287D02*
Y1029113D01*
X944880Y1082613D02*
Y1182978D01*
X942848Y1083748D02*
Y1182307D01*
X930656Y1085151D02*
Y1181926D01*
X928624Y1084580D02*
Y1182457D01*
X926592Y1083748D02*
Y1183176D01*
X924560Y1082613D02*
Y1184102D01*
X920496Y1184656D02*
X923534D01*
X920496Y1182624D02*
X928100D01*
X922528Y1081105D02*
Y1185261D01*
X920496Y1079087D02*
Y1186694D01*
Y1079087D02*
Y1186694D01*
X934720Y1085596D02*
Y1181386D01*
X936752Y1085486D02*
Y1181366D01*
X932688Y1085486D02*
Y1181572D01*
X940816Y1084580D02*
Y1181821D01*
X938784Y1085151D02*
Y1181510D01*
X920496Y1085088D02*
X930380D01*
X920496Y1083056D02*
X925284D01*
X920496Y1081024D02*
X922433D01*
X920496Y1028287D02*
Y1029113D01*
Y1053687D02*
Y1054513D01*
X993648Y1003046D02*
Y1223264D01*
X995680Y1003046D02*
Y1223264D01*
X991616Y1003046D02*
Y1223264D01*
X999744Y1003046D02*
Y1223264D01*
X1001776Y1003046D02*
Y1223264D01*
X997712Y1003046D02*
Y1223264D01*
X983488Y1003046D02*
Y1223264D01*
X985520Y1003046D02*
Y1223264D01*
X981456Y1003046D02*
Y1223264D01*
X989584Y1003046D02*
Y1223264D01*
X987552Y1003046D02*
Y1223264D01*
X1016000Y1003046D02*
Y1223264D01*
X1018032Y1003046D02*
Y1223264D01*
X1013968Y1003046D02*
Y1223264D01*
X1022096Y1003046D02*
Y1223264D01*
X1020064Y1003046D02*
Y1223264D01*
X1005840Y1003046D02*
Y1223264D01*
X1007872Y1003046D02*
Y1223264D01*
X1003808Y1003046D02*
Y1223264D01*
X1011936Y1003046D02*
Y1223264D01*
X1009904Y1003046D02*
Y1223264D01*
X973328Y1003046D02*
Y1223264D01*
X975360Y1003046D02*
Y1223264D01*
X971296Y1003046D02*
Y1223264D01*
X979424Y1003046D02*
Y1223264D01*
X977392Y1003046D02*
Y1223264D01*
X963168Y1003046D02*
Y1223264D01*
X965200Y1003046D02*
Y1223264D01*
X961136Y1003046D02*
Y1206500D01*
X969264Y1003046D02*
Y1223264D01*
X967232Y1003046D02*
Y1223264D01*
X959104Y1003046D02*
Y1196597D01*
X957072Y1003046D02*
Y1192793D01*
X953008Y1020340D02*
Y1037060D01*
X955040Y1003046D02*
Y1190086D01*
X953008Y1003046D02*
Y1011660D01*
X950976Y1003046D02*
Y1006564D01*
X920496Y977487D02*
Y978313D01*
Y1002887D02*
Y1003713D01*
X1028192Y850646D02*
Y978154D01*
X1030224Y850646D02*
Y978154D01*
X1026160Y850646D02*
Y978154D01*
X1034288Y850646D02*
Y978154D01*
X1036320Y850646D02*
Y978154D01*
X1032256Y850646D02*
Y978154D01*
X1018032Y850646D02*
Y978154D01*
X1020064Y850646D02*
Y978154D01*
X1016000Y850646D02*
Y978154D01*
X1024128Y850646D02*
Y978154D01*
X1022096Y850646D02*
Y978154D01*
X1050544Y850646D02*
Y978154D01*
X1052576Y850646D02*
Y978154D01*
X1048512Y850646D02*
Y978154D01*
X1056640Y850646D02*
Y978154D01*
X1054608Y850646D02*
Y978154D01*
X1040384Y850646D02*
Y978154D01*
X1042416Y850646D02*
Y978154D01*
X1038352Y850646D02*
Y978154D01*
X1046480Y850646D02*
Y978154D01*
X1044448Y850646D02*
Y978154D01*
X987552Y850646D02*
Y978154D01*
X989584Y850646D02*
Y978154D01*
X985520Y850646D02*
Y978154D01*
X993648Y850646D02*
Y978154D01*
X991616Y850646D02*
Y978154D01*
X977392Y850646D02*
Y978154D01*
X979424Y850646D02*
Y978154D01*
X975360Y850646D02*
Y978154D01*
X983488Y850646D02*
Y978154D01*
X981456Y850646D02*
Y978154D01*
X1007872Y850646D02*
Y978154D01*
X1009904Y850646D02*
Y978154D01*
X1005840Y850646D02*
Y978154D01*
X1013968Y850646D02*
Y978154D01*
X1011936Y850646D02*
Y978154D01*
X997712Y850646D02*
Y978154D01*
X999744Y850646D02*
Y978154D01*
X995680Y850646D02*
Y978154D01*
X1003808Y850646D02*
Y978154D01*
X1001776Y850646D02*
Y978154D01*
X1133856Y850646D02*
Y978154D01*
X1135888Y850646D02*
Y978154D01*
X1131824Y850646D02*
Y978154D01*
X1141984Y850646D02*
Y978154D01*
X1144016Y850646D02*
Y978154D01*
X1139952Y850646D02*
Y978154D01*
X1123696Y850646D02*
Y978154D01*
X1125728Y850646D02*
Y978154D01*
X1121664Y850646D02*
Y978154D01*
X1129792Y850646D02*
Y978154D01*
X1127760Y850646D02*
Y978154D01*
X1158240Y850646D02*
Y978154D01*
X1160272Y850646D02*
Y978154D01*
X1156208Y850646D02*
Y978154D01*
X1164336Y850646D02*
Y978154D01*
X1162304Y850646D02*
Y978154D01*
X1148080Y850646D02*
Y978154D01*
X1150112Y850646D02*
Y978154D01*
X1146048Y850646D02*
Y978154D01*
X1154176Y850646D02*
Y978154D01*
X1152144Y850646D02*
Y978154D01*
X1093216Y850646D02*
Y978154D01*
X1095248Y850646D02*
Y978154D01*
X1091184Y850646D02*
Y978154D01*
X1099312Y850646D02*
Y978154D01*
X1097280Y850646D02*
Y978154D01*
X1083056Y850646D02*
Y978154D01*
X1085088Y850646D02*
Y978154D01*
X1058672Y850646D02*
Y978154D01*
X1089152Y850646D02*
Y978154D01*
X1087120Y850646D02*
Y978154D01*
X1113536Y850646D02*
Y978154D01*
X1115568Y850646D02*
Y978154D01*
X1111504Y850646D02*
Y978154D01*
X1119632Y850646D02*
Y978154D01*
X1117600Y850646D02*
Y978154D01*
X1103376Y850646D02*
Y978154D01*
X1105408Y850646D02*
Y978154D01*
X1101344Y850646D02*
Y978154D01*
X1109472Y850646D02*
Y978154D01*
X1107440Y850646D02*
Y978154D01*
X967232Y947382D02*
Y978154D01*
X965200Y952069D02*
Y978154D01*
X971296Y850646D02*
Y978154D01*
X973328Y850646D02*
Y978154D01*
X969264Y850646D02*
Y978154D01*
X959104Y958417D02*
Y978154D01*
X961136Y956385D02*
Y978154D01*
X957072Y960449D02*
Y978154D01*
X953480Y964041D02*
X963829Y953693D01*
X963168Y954353D02*
Y978154D01*
X967486Y875030D02*
Y944880D01*
X967232Y850646D02*
Y872528D01*
X965200Y850646D02*
Y867841D01*
X953693Y856081D02*
X963829Y866217D01*
X959104Y850646D02*
Y861493D01*
X948805Y850646D02*
X1165860D01*
X957072D02*
Y859461D01*
X953008Y969540D02*
Y978154D01*
X950976Y974636D02*
Y978154D01*
X955040Y962481D02*
Y978154D01*
X920496Y926687D02*
Y927513D01*
Y901287D02*
Y902113D01*
Y952087D02*
Y952913D01*
Y875419D02*
Y876713D01*
X950976Y850646D02*
Y854019D01*
X948944Y850646D02*
Y853106D01*
X955040Y850646D02*
Y857429D01*
X953008Y850646D02*
Y855445D01*
X920496Y875419D02*
Y876713D01*
X963168Y850646D02*
Y865557D01*
X951668Y820928D02*
X1165531D01*
X961136Y850646D02*
Y863525D01*
X952119Y780288D02*
X1166114D01*
X951142Y778256D02*
X1166114D01*
X953267Y790448D02*
X1166114D01*
X949025Y824992D02*
X1161467D01*
X950533Y822960D02*
X1163499D01*
X948805Y825754D02*
X1160705D01*
X949833Y776224D02*
X1166114D01*
X953516Y762000D02*
X1166114D01*
X953406Y759968D02*
X1166114D01*
X953406Y764032D02*
X1166114D01*
X953267Y733552D02*
X1166114D01*
X953488Y737616D02*
X1166114D01*
X949025Y749808D02*
X1166114D01*
X952816Y741680D02*
X1166114D01*
X953071Y757936D02*
X1166114D01*
X952816Y731520D02*
X1166114D01*
X953267Y739648D02*
X1166114D01*
X950976Y822236D02*
Y825754D01*
X953008Y817140D02*
Y825754D01*
X950976Y796836D02*
Y803364D01*
X953008Y766340D02*
Y783060D01*
Y791740D02*
Y808460D01*
X948944Y799687D02*
Y800513D01*
X950976Y771436D02*
Y777964D01*
X953008Y740940D02*
Y757660D01*
X950976Y746036D02*
Y752564D01*
X948944Y774287D02*
Y775113D01*
X950976Y720636D02*
Y727164D01*
X948944Y723487D02*
Y724313D01*
Y748887D02*
Y749713D01*
X1191006Y719328D02*
X1232154D01*
X1191006Y717296D02*
X1232154D01*
X1198880Y687966D02*
Y938709D01*
X1196848Y687966D02*
Y940741D01*
X1200912Y687966D02*
Y936677D01*
X1194816Y687966D02*
Y942773D01*
X1191006Y713232D02*
X1232154D01*
X1191006Y711200D02*
X1232154D01*
X1191006Y715264D02*
X1232154D01*
X1191006Y707136D02*
X1232154D01*
X1191006Y709168D02*
X1232154D01*
X1191006Y692912D02*
X1232154D01*
X1191006Y690880D02*
X1232154D01*
X1191006Y694944D02*
X1232154D01*
X1191006Y688848D02*
X1232154D01*
X1191006Y687966D02*
X1221366D01*
X1191006Y703072D02*
X1232154D01*
X1191006Y701040D02*
X1232154D01*
X1191006Y705104D02*
X1232154D01*
X1191006Y696976D02*
X1232154D01*
X1191006Y699008D02*
X1232154D01*
X1192784Y687966D02*
Y944805D01*
X1191006Y687966D02*
Y825500D01*
X1166114Y684645D02*
Y820345D01*
X1166368Y622046D02*
Y656255D01*
X1164336Y682847D02*
Y822123D01*
X1162304Y679996D02*
Y824155D01*
X1160272Y674900D02*
Y825754D01*
X1127760Y622046D02*
Y825754D01*
X1125728Y622046D02*
Y825754D01*
X1191514Y628725D02*
Y653154D01*
X1186554D02*
X1191514D01*
X1190752Y627963D02*
Y653154D01*
X1188720Y625931D02*
Y653154D01*
X1186688Y623899D02*
Y653154D01*
X1182900Y652272D02*
X1191514D01*
X1174496Y622046D02*
Y652209D01*
X1172464Y622046D02*
Y652780D01*
X1170432Y622046D02*
Y653612D01*
X1168400Y622046D02*
Y654747D01*
X1154176Y622046D02*
Y825754D01*
X1156208Y622046D02*
Y825754D01*
X1152144Y622046D02*
Y825754D01*
X1160272Y622046D02*
Y666220D01*
X1162304Y622046D02*
Y661124D01*
X1158240Y622046D02*
Y825754D01*
X1144016Y622046D02*
Y825754D01*
X1146048Y622046D02*
Y825754D01*
X1141984Y622046D02*
Y825754D01*
X1150112Y622046D02*
Y825754D01*
X1148080Y622046D02*
Y825754D01*
X1184656Y621867D02*
Y652780D01*
X1180592Y620590D02*
Y651874D01*
X1178560Y621449D02*
Y651764D01*
X1182290Y619502D02*
X1191514Y628725D01*
X1182624Y619835D02*
Y652209D01*
X1176528Y621918D02*
Y651874D01*
X1101090Y622046D02*
X1174750D01*
X1164336D02*
Y658273D01*
X1109472Y622046D02*
Y825754D01*
X1111504Y622046D02*
Y825754D01*
X1107440Y622046D02*
Y825754D01*
X1115568Y622046D02*
Y825754D01*
X1113536Y622046D02*
Y825754D01*
X1103376Y622046D02*
Y825754D01*
X1105408Y622046D02*
Y825754D01*
X1101344Y622046D02*
Y825754D01*
X1099312Y621918D02*
Y825754D01*
X1097280Y621449D02*
Y825754D01*
X1133856Y622046D02*
Y825754D01*
X1135888Y622046D02*
Y825754D01*
X1131824Y622046D02*
Y825754D01*
X1139952Y622046D02*
Y825754D01*
X1137920Y622046D02*
Y825754D01*
X1119632Y622046D02*
Y825754D01*
X1121664Y622046D02*
Y825754D01*
X1117600Y622046D02*
Y825754D01*
X1129792Y622046D02*
Y825754D01*
X1123696Y622046D02*
Y825754D01*
X952119Y692912D02*
X1166114D01*
X952816Y690880D02*
X1166114D01*
X953406Y713232D02*
X1166114D01*
X953488Y686816D02*
X1166114D01*
X953488Y684784D02*
X1166114D01*
X953267Y688848D02*
X1166114D01*
X950533Y701040D02*
X1166114D01*
X949025Y699008D02*
X1166114D01*
X951668Y703072D02*
X1166114D01*
X951142Y694944D02*
X1166114D01*
X949833Y696976D02*
X1166114D01*
X952500Y654304D02*
X1169124D01*
X954099Y642112D02*
X1191514D01*
X953071Y656336D02*
X1166273D01*
X958163Y638048D02*
X1191514D01*
X956131Y640080D02*
X1191514D01*
X950533Y650240D02*
X1191514D01*
X949025Y648208D02*
X1191514D01*
X951668Y652272D02*
X1174220D01*
X951695Y644144D02*
X1191514D01*
X947007Y646176D02*
X1191514D01*
X953516Y711200D02*
X1166114D01*
X953406Y709168D02*
X1166114D01*
X953071Y715264D02*
X1166114D01*
X953071Y707136D02*
X1166114D01*
X953267Y682752D02*
X1164255D01*
X952500Y717296D02*
X1166114D01*
X952500Y705104D02*
X1166114D01*
X951668Y719328D02*
X1166114D01*
X952816Y680720D02*
X1162747D01*
X952119Y678688D02*
X1161612D01*
X953071Y664464D02*
X1160780D01*
X953406Y662432D02*
X1161612D01*
X952500Y666496D02*
X1160209D01*
X953406Y658368D02*
X1164255D01*
X953516Y660400D02*
X1162747D01*
X951142Y676656D02*
X1160780D01*
X949833Y674624D02*
X1160209D01*
X949025Y672592D02*
X1159874D01*
X951668Y668528D02*
X1159874D01*
X950533Y670560D02*
X1159764D01*
X1087120Y622232D02*
Y825754D01*
X1089152Y621084D02*
Y825754D01*
X1085088Y622937D02*
Y825754D01*
X1093216Y619239D02*
Y825754D01*
X1095248Y620590D02*
Y825754D01*
X1091184Y619327D02*
Y825754D01*
X962227Y633984D02*
X1191514D01*
X964259Y631952D02*
X1191514D01*
X960195Y636016D02*
X1191514D01*
X1083056Y623274D02*
Y825754D01*
X1081024Y623316D02*
Y825754D01*
X1088008Y621792D02*
X1098588D01*
X966291Y629920D02*
X1191514D01*
X968275Y627888D02*
X1190677D01*
X969701Y625856D02*
X1188645D01*
X970614Y623824D02*
X1186613D01*
X1002030Y623316D02*
X1082040D01*
X1052576D02*
Y825754D01*
X1054608Y623316D02*
Y825754D01*
X1050544Y623316D02*
Y825754D01*
X1058672Y623316D02*
Y825754D01*
X1056640Y623316D02*
Y825754D01*
X1042416Y623316D02*
Y825754D01*
X1044448Y623316D02*
Y825754D01*
X1040384Y623316D02*
Y825754D01*
X1048512Y623316D02*
Y825754D01*
X1046480Y623316D02*
Y825754D01*
X1072896Y623316D02*
Y825754D01*
X1074928Y623316D02*
Y825754D01*
X1070864Y623316D02*
Y825754D01*
X1078992Y623316D02*
Y825754D01*
X1076960Y623316D02*
Y825754D01*
X1062736Y623316D02*
Y825754D01*
X1064768Y623316D02*
Y825754D01*
X1060704Y623316D02*
Y825754D01*
X1068832Y623316D02*
Y825754D01*
X1066800Y623316D02*
Y825754D01*
X1177252Y621792D02*
X1184581D01*
X1136396Y589280D02*
X1166234D01*
Y589026D02*
Y597154D01*
X1158706Y564134D02*
X1166236D01*
X1164336Y589026D02*
Y597154D01*
X1135380Y595376D02*
X1166234D01*
X1135951Y593344D02*
X1166234D01*
X1134667Y597154D02*
X1166234D01*
X1136394Y589026D02*
X1166234D01*
X1136286Y591312D02*
X1166234D01*
X1164411Y558800D02*
X1167121D01*
X1166443Y556768D02*
X1168029D01*
X1166368Y556843D02*
Y561880D01*
X1168475Y554736D02*
X1169347D01*
X1168400Y554811D02*
Y556119D01*
X1160333Y562864D02*
X1166268D01*
X1162379Y560832D02*
X1166547D01*
X1162304Y560907D02*
Y564134D01*
X1160703Y562509D02*
X1170906Y552305D01*
X1164336Y558875D02*
Y564134D01*
X1156208Y589026D02*
Y597154D01*
X1158240Y589026D02*
Y597154D01*
X1154176Y589026D02*
Y597154D01*
X1162304Y589026D02*
Y597154D01*
X1160272Y589026D02*
Y597154D01*
X1146048Y589026D02*
Y597154D01*
X1148080Y589026D02*
Y597154D01*
X1137920Y589026D02*
Y597154D01*
X1152144Y589026D02*
Y597154D01*
X1150112Y589026D02*
Y597154D01*
X1144016Y589026D02*
Y597154D01*
X1160272Y562920D02*
Y564134D01*
X1141984Y589026D02*
Y597154D01*
X1139952Y589026D02*
Y597154D01*
X1135888Y593620D02*
Y597154D01*
X1132712Y524256D02*
X1135813D01*
X1131685Y526034D02*
X1134035D01*
X1135696Y518160D02*
X1138174D01*
X1136368Y514096D02*
X1138174D01*
X1134998Y520192D02*
X1138174D01*
X1136147Y510032D02*
X1138174D01*
X1135696Y508000D02*
X1138174D01*
X1136368Y512064D02*
X1138174D01*
X1134998Y505968D02*
X1138174D01*
X1134022Y503936D02*
X1138174D01*
X1134035Y526034D02*
X1138174Y521895D01*
X1131905Y499872D02*
X1138174D01*
X1132712Y501904D02*
X1138174D01*
X1201166Y395085D02*
Y452553D01*
X1201674Y395085D02*
Y452045D01*
X1175766Y395085D02*
Y453823D01*
X1201007Y366776D02*
X1201833D01*
X1176274Y395085D02*
Y453315D01*
X1150366Y395085D02*
Y453823D01*
X1150874Y395085D02*
Y453315D01*
X1133413Y497840D02*
X1138174D01*
X1175607Y366776D02*
X1176433D01*
X1150207D02*
X1151033D01*
X1135888Y517420D02*
Y524181D01*
X1136147Y516128D02*
X1138174D01*
X1135888Y492020D02*
Y508740D01*
X1138174Y484707D02*
Y521895D01*
X1137920Y484961D02*
Y522149D01*
X1134022Y522224D02*
X1137845D01*
X1133856Y522516D02*
Y526034D01*
Y497116D02*
Y503644D01*
X1136286Y489712D02*
X1138174D01*
X1136396Y487680D02*
X1138174D01*
X1136360Y486521D02*
X1138174Y484707D01*
X1137233Y485648D02*
X1138174D01*
X1134548Y495808D02*
X1138174D01*
X1135380Y493776D02*
X1138174D01*
X1131824Y499967D02*
Y500793D01*
X1135951Y491744D02*
X1138174D01*
X1090750Y619760D02*
X1093901D01*
X1090853Y619659D02*
X1092200Y618311D01*
X1039876Y589280D02*
X1074794D01*
X1072896Y589146D02*
Y598424D01*
X1074794Y589146D02*
Y598424D01*
X1070864Y589146D02*
Y598424D01*
X1038028Y597408D02*
X1074794D01*
X1038860Y595376D02*
X1074794D01*
X1037502Y598424D02*
X1074794D01*
X1039766Y591312D02*
X1074794D01*
X1039431Y593344D02*
X1074794D01*
X1072463Y556768D02*
X1076589D01*
X1074495Y554736D02*
X1077907D01*
X1072896Y556335D02*
Y564254D01*
X1076527Y552704D02*
X1079796D01*
X1074928Y554303D02*
Y561880D01*
X1064539Y564254D02*
X1074799D01*
X1066353Y562864D02*
X1074828D01*
X1039875Y589146D02*
X1074794D01*
X1070431Y558800D02*
X1075681D01*
X1068399Y560832D02*
X1075107D01*
X1062736Y589146D02*
Y598424D01*
X1064768Y589146D02*
Y598424D01*
X1060704Y589146D02*
Y598424D01*
X1068832Y589146D02*
Y598424D01*
X1066800Y589146D02*
Y598424D01*
X1044448Y589146D02*
Y598424D01*
X1054608Y589146D02*
Y598424D01*
X1040384Y589146D02*
Y598424D01*
X1058672Y589146D02*
Y598424D01*
X1056640Y589146D02*
Y598424D01*
X1066800Y562431D02*
Y564254D01*
X1070864Y558367D02*
Y564254D01*
X1068832Y560399D02*
Y564254D01*
X1046480Y589146D02*
Y598424D01*
X1048512Y589146D02*
Y598424D01*
X1042416Y589146D02*
Y598424D01*
X1052576Y589146D02*
Y598424D01*
X1050544Y589146D02*
Y598424D01*
X1078992Y551853D02*
Y553478D01*
X1076960Y552271D02*
Y556119D01*
X1099566Y395085D02*
Y462713D01*
X1124966Y395085D02*
Y462713D01*
X1066723Y562509D02*
X1078129Y551103D01*
X1039848Y514096D02*
X1041654D01*
X1039848Y512064D02*
X1041654D01*
X1039176Y508000D02*
X1041654D01*
X1039627Y510032D02*
X1041654D01*
X1100074Y395085D02*
Y462205D01*
X1125474Y395085D02*
Y462205D01*
X1074674Y395085D02*
Y458395D01*
X1124807Y366776D02*
X1125633D01*
X1099407D02*
X1100233D01*
X1049274Y395085D02*
Y460935D01*
X1074166Y395085D02*
Y458903D01*
X1048766Y395085D02*
Y461443D01*
X1074007Y366776D02*
X1074833D01*
X1048607D02*
X1049433D01*
X1039176Y518160D02*
X1041654D01*
X1039627Y516128D02*
X1041654D01*
X1038478Y520192D02*
X1041654D01*
Y484707D02*
Y520625D01*
X1040384Y485977D02*
Y521895D01*
X1037515Y524764D02*
X1041654Y520625D01*
X1037502Y522224D02*
X1040055D01*
X1037502Y503936D02*
X1041654D01*
X1038478Y505968D02*
X1041654D01*
X1039766Y489712D02*
X1041654D01*
X1039876Y487680D02*
X1041654D01*
X1039431Y491744D02*
X1041654D01*
X1039840Y486521D02*
X1041654Y484707D01*
X1040713Y485648D02*
X1041654D01*
X1035385Y499872D02*
X1041654D01*
X1036893Y497840D02*
X1041654D01*
X1036192Y501904D02*
X1041654D01*
X1038860Y493776D02*
X1041654D01*
X1038028Y495808D02*
X1041654D01*
X1030224Y623316D02*
Y825754D01*
X1032256Y623316D02*
Y825754D01*
X1028192Y623316D02*
Y825754D01*
X1036320Y623316D02*
Y825754D01*
X1038352Y623316D02*
Y825754D01*
X1034288Y623316D02*
Y825754D01*
X1020064Y623316D02*
Y825754D01*
X1022096Y623316D02*
Y825754D01*
X1018032Y623316D02*
Y825754D01*
X1026160Y623316D02*
Y825754D01*
X1024128Y623316D02*
Y825754D01*
X1009904Y623316D02*
Y825754D01*
X1011936Y623316D02*
Y825754D01*
X1007872Y623316D02*
Y825754D01*
X1016000Y623316D02*
Y825754D01*
X1013968Y623316D02*
Y825754D01*
X1003808Y623316D02*
Y825754D01*
X1005840Y623316D02*
Y825754D01*
X1001776Y623313D02*
Y825754D01*
X997712Y622543D02*
Y825754D01*
X999744Y623104D02*
Y825754D01*
X995680Y621574D02*
Y825754D01*
X993648Y620070D02*
Y825754D01*
X991616Y618057D02*
Y825754D01*
X969264Y626576D02*
Y825754D01*
X971296Y619760D02*
Y825754D01*
X967232Y628979D02*
Y825754D01*
X989584Y616025D02*
Y825754D01*
X987552Y613993D02*
Y825754D01*
X971296Y619760D02*
X993320D01*
X986891Y613333D02*
X993217Y619659D01*
X971296Y617728D02*
X991287D01*
X985520Y611709D02*
Y825754D01*
X971296Y611632D02*
X985466D01*
X971129Y621792D02*
X996062D01*
X971296Y615696D02*
X989255D01*
X971296Y613664D02*
X987223D01*
X983488Y607022D02*
Y825754D01*
X981456Y606686D02*
Y825754D01*
X1038352Y596694D02*
Y598424D01*
X971296Y609600D02*
X984318D01*
X971296Y607568D02*
X983613D01*
X978274Y606686D02*
X983424D01*
X979424D02*
Y825754D01*
X971296Y599440D02*
X978274D01*
X981456Y550767D02*
Y554496D01*
Y525367D02*
Y526193D01*
X979424Y547916D02*
Y557842D01*
X1035803Y524764D02*
X1037515D01*
X979424Y522516D02*
Y529044D01*
X971625Y595376D02*
X978274D01*
X971296Y597408D02*
X978274D01*
X973328Y593673D02*
Y825754D01*
X975360Y591641D02*
Y825754D01*
X971296Y595705D02*
Y619760D01*
X978274Y589026D02*
Y606686D01*
X977392Y589609D02*
Y825754D01*
X971296Y603504D02*
X978274D01*
X971296Y601472D02*
X978274D01*
X971296Y605536D02*
X978274D01*
X971296Y595705D02*
X977975Y589026D01*
X971296Y595705D02*
Y619760D01*
X973657Y593344D02*
X978274D01*
X975689Y591312D02*
X978274D01*
X977392Y542820D02*
Y564134D01*
Y517420D02*
Y534140D01*
X975360Y396813D02*
Y564134D01*
X973328Y395305D02*
Y564134D01*
X972820D02*
X978156D01*
X971296Y393287D02*
Y564228D01*
X969264Y390436D02*
Y564653D01*
X967232Y385340D02*
Y565459D01*
X957072Y639139D02*
Y825754D01*
X959104Y637107D02*
Y825754D01*
X955040Y641171D02*
Y825754D01*
X963168Y633043D02*
Y825754D01*
X965200Y631011D02*
Y825754D01*
X961136Y635075D02*
Y825754D01*
X953008Y664740D02*
Y681460D01*
X953693Y642519D02*
X967639Y628573D01*
X951142Y575056D02*
X956743D01*
X952119Y577088D02*
X954711D01*
X950533Y568960D02*
X962839D01*
X949833Y573024D02*
X958775D01*
X949025Y570992D02*
X960807D01*
X953008Y715540D02*
Y732260D01*
Y690140D02*
Y706860D01*
X950976Y695236D02*
Y701764D01*
X953008Y643155D02*
Y656060D01*
X950976Y669836D02*
Y676364D01*
X948944Y672687D02*
Y673513D01*
Y645494D02*
Y648113D01*
Y698087D02*
Y698913D01*
X950976Y644581D02*
Y650964D01*
X920496Y626543D02*
X922097Y624941D01*
X920496Y621887D02*
Y626543D01*
X948944Y571087D02*
Y571913D01*
X920496Y623824D02*
X922433D01*
X920496Y621887D02*
Y626543D01*
Y571087D02*
Y571913D01*
Y596487D02*
Y597313D01*
X953071Y562864D02*
X978188D01*
X953516Y558800D02*
X979041D01*
X953406Y556768D02*
X979949D01*
X953406Y560832D02*
X978467D01*
X952500Y552704D02*
X983156D01*
X951668Y550672D02*
X981375D01*
X953071Y554736D02*
X981267D01*
X950533Y548640D02*
X979867D01*
X949025Y546608D02*
X978732D01*
X953267Y536448D02*
X976994D01*
X953488Y534416D02*
X977329D01*
X952816Y538480D02*
X976884D01*
X953267Y530352D02*
X978732D01*
X953488Y532384D02*
X977900D01*
X949833Y544576D02*
X977900D01*
X951142Y542544D02*
X977329D01*
X952119Y540512D02*
X976994D01*
X952119Y526288D02*
X981375D01*
X952816Y528320D02*
X979867D01*
X957072Y389621D02*
Y574727D01*
X959104Y366776D02*
Y572695D01*
X955040Y393892D02*
Y576759D01*
X963168Y366776D02*
Y568631D01*
X961136Y366776D02*
Y570663D01*
X952786Y579013D02*
X964007Y567791D01*
X951668Y566928D02*
X964962D01*
X950976Y568236D02*
Y574764D01*
X953008Y563140D02*
Y578791D01*
X952500Y564896D02*
X968532D01*
X953008Y537740D02*
Y554460D01*
X950976Y542836D02*
Y549364D01*
X965200Y366776D02*
Y566739D01*
X953008Y512340D02*
Y529060D01*
X948944Y545687D02*
Y546513D01*
X920496Y545687D02*
Y546513D01*
X1038352Y520494D02*
Y523927D01*
X1036192Y524256D02*
X1038023D01*
X1038352Y495094D02*
Y505666D01*
X1036320Y498681D02*
Y502079D01*
X996839Y468920D02*
X998474Y467285D01*
X953406Y459232D02*
X998474D01*
X953071Y461264D02*
X998474D01*
X953406Y455168D02*
X998474D01*
X953488Y432816D02*
X998474D01*
X953516Y457200D02*
X998474D01*
X953267Y428752D02*
X998474D01*
X953488Y430784D02*
X998474D01*
X952500Y451104D02*
X998474D01*
X952816Y436880D02*
X998474D01*
X953071Y453136D02*
X998474D01*
X952816Y426720D02*
X998474D01*
X953267Y434848D02*
X998474D01*
X953516Y508000D02*
X977583D01*
X981456Y499967D02*
Y500793D01*
X953406Y510032D02*
X977133D01*
X979424Y497116D02*
Y503644D01*
X977392Y492020D02*
Y508740D01*
X953406Y505968D02*
X978281D01*
X953071Y503936D02*
X979258D01*
X953071Y512064D02*
X976911D01*
X952500Y501904D02*
X980567D01*
X953008Y486940D02*
Y503660D01*
X953488Y483616D02*
X977329D01*
X953488Y481584D02*
X977900D01*
X953267Y485648D02*
X976994D01*
X987552Y399686D02*
Y470732D01*
X985520Y399796D02*
Y471867D01*
X953267Y479552D02*
X978732D01*
X952816Y477520D02*
X979867D01*
X952816Y487680D02*
X976884D01*
X953008Y436140D02*
Y452860D01*
Y461540D02*
Y478260D01*
X993648Y397948D02*
Y468994D01*
X995680Y396813D02*
Y468884D01*
X991616Y398780D02*
Y469329D01*
X1023366Y395085D02*
Y467793D01*
X1023874Y395085D02*
Y467285D01*
X997712Y395305D02*
Y468047D01*
X983488Y399686D02*
Y473375D01*
X989584Y399351D02*
Y469900D01*
X981456Y399351D02*
Y475393D01*
X979424Y398780D02*
Y478244D01*
X977392Y397948D02*
Y483340D01*
X998474Y395085D02*
Y467285D01*
X996522Y396240D02*
X998474D01*
X992934Y398272D02*
X998474D01*
X1023207Y366776D02*
X1024033D01*
X997807D02*
X998633D01*
X953452Y396240D02*
X974519D01*
X954848Y394208D02*
X972147D01*
X954848Y367792D02*
X972147D01*
X954186Y366776D02*
X973233D01*
X957569Y388112D02*
X968121D01*
X958077Y386080D02*
X967423D01*
X958411Y384048D02*
X966973D01*
X958576Y379984D02*
X966751D01*
X958576Y382016D02*
X966751D01*
X955976Y392176D02*
X970407D01*
X956874Y390144D02*
X969098D01*
X953008Y396805D02*
Y427460D01*
X958077Y375920D02*
X967423D01*
X971296Y366776D02*
Y368713D01*
X958411Y377952D02*
X966973D01*
X969264Y366776D02*
Y371564D01*
X967232Y366776D02*
Y376660D01*
X956874Y371856D02*
X969098D01*
X955976Y369824D02*
X970407D01*
X957569Y373888D02*
X968121D01*
X957072Y366776D02*
Y372379D01*
X955040Y366776D02*
Y368108D01*
X951142Y524256D02*
X980567D01*
X950533Y518160D02*
X977583D01*
X951668Y516128D02*
X977133D01*
X951668Y499872D02*
X981375D01*
X952119Y475488D02*
X981375D01*
X951142Y491744D02*
X977329D01*
X949833Y522224D02*
X979258D01*
X950533Y497840D02*
X979867D01*
X949025Y520192D02*
X978281D01*
X949025Y495808D02*
X978732D01*
X949833Y493776D02*
X977900D01*
X950533Y467360D02*
X998399D01*
X951668Y465328D02*
X998474D01*
X951142Y473456D02*
X983393D01*
X951668Y449072D02*
X998474D01*
X952500Y463296D02*
X998474D01*
X949025Y469392D02*
X991340D01*
X950533Y447040D02*
X998474D01*
X949833Y471424D02*
X986244D01*
X949833Y442976D02*
X998474D01*
X949025Y445008D02*
X998474D01*
X950976Y517436D02*
Y523964D01*
X952500Y514096D02*
X976911D01*
X948944Y520287D02*
Y521113D01*
X950976Y492036D02*
Y498564D01*
X948944Y494887D02*
Y495713D01*
X920496Y520287D02*
Y521113D01*
Y494887D02*
Y495713D01*
X952119Y489712D02*
X976994D01*
X950976Y466636D02*
Y473164D01*
X948944Y469487D02*
Y470313D01*
X950976Y441236D02*
Y447764D01*
X948944Y444087D02*
Y444913D01*
X920496Y469487D02*
Y470313D01*
Y444087D02*
Y444913D01*
X952119Y438912D02*
X998474D01*
X952119Y424688D02*
X998474D01*
X951142Y440944D02*
X998474D01*
X951142Y422656D02*
X998474D01*
X949833Y420624D02*
X998474D01*
X950976Y399032D02*
Y422364D01*
X948093Y418592D02*
X998474D01*
X945722Y416560D02*
X998474D01*
X942134Y414528D02*
X998474D01*
X946758Y402336D02*
X998474D01*
X949565Y400304D02*
X998474D01*
X942738Y404368D02*
X998474D01*
X951726Y398272D02*
X978106D01*
X920496Y410464D02*
X998474D01*
X920496Y408432D02*
X998474D01*
X920496Y412496D02*
X998474D01*
X920496Y406400D02*
X998474D01*
X944880Y403398D02*
Y415987D01*
X942848Y404324D02*
Y414852D01*
X924560Y404522D02*
Y415987D01*
X948944Y400806D02*
Y419513D01*
X946912Y402239D02*
Y417495D01*
X922528Y403650D02*
Y417495D01*
X920496Y416560D02*
X923718D01*
X920496Y418592D02*
X921347D01*
X920496Y402553D02*
Y419513D01*
Y402553D02*
Y419513D01*
X936752Y405928D02*
Y413114D01*
X934720Y406114D02*
Y413004D01*
X932688Y406134D02*
Y413114D01*
X940816Y405043D02*
Y414020D01*
X938784Y405574D02*
Y413449D01*
X928624Y405679D02*
Y414020D01*
X930656Y405990D02*
Y413449D01*
X920496Y414528D02*
X927306D01*
X926592Y405193D02*
Y414852D01*
X920496Y404368D02*
X924163D01*
D11*
X1295400Y1038860D02*
D03*
Y1061720D02*
D03*
X1315720Y1038860D02*
D03*
Y1061720D02*
D03*
D12*
X1280160Y736600D02*
D03*
X1303020D02*
D03*
X1336040Y1036320D02*
D03*
X1358900D02*
D03*
X1280160Y949960D02*
D03*
X1257300D02*
D03*
X1264920Y1066800D02*
D03*
X1242060D02*
D03*
X1361440Y1061720D02*
D03*
X1338580D02*
D03*
D13*
X1229360Y985520D02*
D03*
D14*
X1267460Y1037520D02*
D03*
X1254760D02*
D03*
X1242060D02*
D03*
X1229360D02*
D03*
X1267460Y985520D02*
D03*
X1254760D02*
D03*
X1242060D02*
D03*
D15*
X1366520Y381000D02*
Y450850D01*
X1329690Y487680D02*
X1366520Y450850D01*
X1329690Y487680D02*
Y528320D01*
X1319530Y538480D02*
X1329690Y528320D01*
X1300480Y538480D02*
X1319530D01*
X1391920Y381000D02*
Y458470D01*
X1342390Y508000D02*
X1391920Y458470D01*
X1342390Y508000D02*
Y543560D01*
X1333500Y552450D02*
X1342390Y543560D01*
X1289050Y552450D02*
X1333500D01*
X1275080Y538480D02*
X1289050Y552450D01*
X1264920Y381000D02*
Y448310D01*
X1243330Y469900D02*
X1264920Y448310D01*
X1243330Y469900D02*
Y523240D01*
X1228090Y538480D02*
X1243330Y523240D01*
X1209040Y538480D02*
X1228090D01*
X1290320Y381000D02*
Y443230D01*
X1254760Y478790D02*
X1290320Y443230D01*
X1254760Y478790D02*
Y541020D01*
X1243330Y552450D02*
X1254760Y541020D01*
X1197610Y552450D02*
X1243330D01*
X1183640Y538480D02*
X1197610Y552450D01*
X1163320Y381000D02*
Y458470D01*
X1150620Y471170D02*
X1163320Y458470D01*
X1150620Y471170D02*
Y527050D01*
X1139190Y538480D02*
X1150620Y527050D01*
X1117600Y538480D02*
X1139190D01*
X1188720Y381000D02*
Y458470D01*
X1165860Y481330D02*
X1188720Y458470D01*
X1165860Y481330D02*
Y539750D01*
X1151890Y553720D02*
X1165860Y539750D01*
X1102360Y553720D02*
X1151890D01*
X1092200Y543560D02*
X1102360Y553720D01*
X1092200Y538480D02*
Y543560D01*
X1061720Y381000D02*
Y466090D01*
X1054100Y473710D02*
X1061720Y466090D01*
X1054100Y473710D02*
Y525780D01*
X1042670Y537210D02*
X1054100Y525780D01*
X1022350Y537210D02*
X1042670D01*
X1021080Y538480D02*
X1022350Y537210D01*
X1087120Y381000D02*
Y463550D01*
X1069340Y481330D02*
X1087120Y463550D01*
X1069340Y481330D02*
Y542290D01*
X1057910Y553720D02*
X1069340Y542290D01*
X1007110Y553720D02*
X1057910D01*
X995680Y542290D02*
X1007110Y553720D01*
X995680Y538480D02*
Y542290D01*
X1315720Y1038860D02*
X1333500D01*
X1295400D02*
X1315720D01*
X1333500D02*
X1336040Y1036320D01*
X1286510Y1061720D02*
X1295400D01*
X1267460Y1042670D02*
X1286510Y1061720D01*
X1267460Y1037520D02*
Y1042670D01*
X1315720Y1061720D02*
X1338580D01*
X1295400D02*
X1315720D01*
X1257300Y848360D02*
X1275080Y830580D01*
X1303020Y736600D02*
X1305560Y739140D01*
Y767080D01*
X1280160Y736600D02*
Y767080D01*
X1264920Y1066800D02*
X1267460Y1064260D01*
X934720Y990600D02*
X1187450D01*
X1280160Y852170D02*
Y949960D01*
X1257300Y848360D02*
Y949960D01*
X995680Y589280D02*
Y604520D01*
X1002030Y610870D01*
X1082040D01*
X1092200Y600710D01*
Y589280D02*
Y600710D01*
X1101090Y609600D01*
X1174750D01*
X1183640Y600710D01*
Y589280D02*
Y600710D01*
Y603250D01*
X1189990Y609600D01*
X1266190D01*
X1275080Y600710D01*
Y589280D02*
Y600710D01*
X1300480Y626110D01*
Y670560D01*
X1393190Y568960D02*
X1403350Y558800D01*
X1417320D01*
X1394460Y533400D02*
X1417320D01*
X1377950Y549910D02*
X1394460Y533400D01*
X1356360Y1079500D02*
X1417320D01*
X1338580Y1061720D02*
X1356360Y1079500D01*
X1254760Y1056640D02*
X1264920Y1066800D01*
X1254760Y1037520D02*
Y1056640D01*
X1242060Y1037520D02*
Y1066800D01*
X1187450Y990600D02*
X1229360Y1032510D01*
Y1037520D01*
Y1021080D02*
Y1037520D01*
Y1021080D02*
X1236980Y1013460D01*
X1325880D01*
X1336040Y1023620D01*
Y1036320D01*
X1358900D02*
Y1059180D01*
X1361440Y1061720D01*
X1242060Y985520D02*
X1254760D01*
Y952500D02*
X1257300Y949960D01*
X1267460Y985520D02*
X1289050D01*
X1330960Y734060D02*
Y767080D01*
X1351280Y670560D02*
X1365250Y656590D01*
Y535940D02*
Y656590D01*
Y535940D02*
X1393190Y508000D01*
X1417320D01*
X1325880Y659130D02*
Y670560D01*
Y659130D02*
X1353820Y631190D01*
Y520700D02*
Y631190D01*
Y520700D02*
X1391920Y482600D01*
X1417320D01*
X1300480Y487680D02*
X1341120Y447040D01*
Y381000D02*
Y447040D01*
X1275080Y481330D02*
Y487680D01*
Y481330D02*
X1315720Y440690D01*
Y381000D02*
Y440690D01*
X1209040Y487680D02*
X1239520Y457200D01*
Y381000D02*
Y457200D01*
X1183640Y487680D02*
X1214120Y457200D01*
Y381000D02*
Y457200D01*
X1117600Y487680D02*
X1137920Y467360D01*
Y381000D02*
Y467360D01*
X1092200Y487680D02*
X1112520Y467360D01*
Y381000D02*
Y467360D01*
X1021080Y487680D02*
X1036320Y472440D01*
Y381000D02*
Y472440D01*
X995680Y487680D02*
X1010920Y472440D01*
Y381000D02*
Y472440D01*
X1300480Y703580D02*
X1330960Y734060D01*
X1300480Y670560D02*
Y703580D01*
X1203960Y623570D02*
Y670560D01*
X1189990Y609600D02*
X1203960Y623570D01*
X934720Y838200D02*
X1165860D01*
X1178560Y825500D01*
Y670560D02*
Y825500D01*
X1244600Y680720D02*
X1254760Y670560D01*
X1275080D01*
X1287780Y576580D02*
X1300480Y589280D01*
X1221740Y576580D02*
X1287780D01*
X1209040Y589280D02*
X1221740Y576580D01*
X1196340D02*
X1209040Y589280D01*
X1130300Y576580D02*
X1196340D01*
X1117600Y589280D02*
X1130300Y576580D01*
X1114384Y589280D02*
X1117600D01*
X1101804Y576700D02*
X1114384Y589280D01*
X1021080D02*
X1033660Y576700D01*
X1019810Y589280D02*
X1021080D01*
X1033660Y576700D02*
X1101804D01*
X934720Y965200D02*
X955040Y944880D01*
Y875030D02*
Y944880D01*
X944880Y864870D02*
X955040Y875030D01*
X927100Y864870D02*
X944880D01*
X918210Y855980D02*
X927100Y864870D01*
X918210Y646430D02*
Y855980D01*
Y646430D02*
X930910Y633730D01*
X944880D01*
X958850Y619760D01*
Y590550D02*
Y619760D01*
Y590550D02*
X972820Y576580D01*
X1008380D01*
X1021080Y589280D01*
X1242060Y985520D02*
Y996950D01*
X1233170Y1005840D02*
X1242060Y996950D01*
X1215390Y1003300D02*
X1217930Y1005840D01*
X1215390Y956310D02*
Y1003300D01*
Y956310D02*
X1221740Y949960D01*
X1257300D01*
X1217930Y1005840D02*
X1233170D01*
X1229360Y967740D02*
Y985520D01*
Y967740D02*
X1234440Y962660D01*
X1291590D01*
X1244600Y680720D02*
Y930910D01*
X1239520Y935990D02*
X1244600Y930910D01*
X1219200Y935990D02*
X1239520D01*
X1187450Y967740D02*
X1219200Y935990D01*
X1187450Y967740D02*
Y990600D01*
X1280160Y852170D02*
X1304290Y828040D01*
Y793750D02*
Y828040D01*
Y793750D02*
X1330960Y767080D01*
X1291590Y962660D02*
X1296670Y957580D01*
Y854710D02*
Y957580D01*
Y854710D02*
X1318260Y833120D01*
Y803910D02*
Y833120D01*
Y803910D02*
X1347470Y774700D01*
Y702310D02*
Y774700D01*
X1377950Y549910D02*
Y671830D01*
X1347470Y702310D02*
X1377950Y671830D01*
X1289050Y985520D02*
X1313180Y961390D01*
Y858520D02*
Y961390D01*
Y858520D02*
X1332230Y839470D01*
Y810260D02*
Y839470D01*
Y810260D02*
X1361440Y781050D01*
Y706120D02*
Y781050D01*
X1393190Y568960D02*
Y674370D01*
X1361440Y706120D02*
X1393190Y674370D01*
X1377950Y1040130D02*
X1417320Y1079500D01*
X1377950Y1031240D02*
Y1040130D01*
X1330960Y984250D02*
X1377950Y1031240D01*
X1330960Y861060D02*
Y984250D01*
Y861060D02*
X1347470Y844550D01*
Y816610D02*
Y844550D01*
X1289939Y1114679D02*
Y1198880D01*
X1242060Y1066800D02*
X1289939Y1114679D01*
X1341501Y1143381D02*
Y1144270D01*
X1264920Y1066800D02*
X1341501Y1143381D01*
Y1144270D02*
Y1198880D01*
D16*
X995680Y589280D02*
D03*
X1092200D02*
D03*
X1275080D02*
D03*
X1183640D02*
D03*
D17*
X1021080D02*
D03*
X995680Y538480D02*
D03*
Y513080D02*
D03*
X1021080D02*
D03*
X995680Y487680D02*
D03*
X1021080D02*
D03*
X1117600Y589280D02*
D03*
X1092200Y538480D02*
D03*
X1117600D02*
D03*
X1092200Y513080D02*
D03*
X1117600D02*
D03*
X1092200Y487680D02*
D03*
X1117600D02*
D03*
X1300480Y589280D02*
D03*
X1275080Y538480D02*
D03*
X1300480D02*
D03*
X1275080Y513080D02*
D03*
X1300480D02*
D03*
X1275080Y487680D02*
D03*
X1300480D02*
D03*
X1209040Y589280D02*
D03*
X1183640Y538480D02*
D03*
Y513080D02*
D03*
Y487680D02*
D03*
X1209040D02*
D03*
X1330960Y767080D02*
D03*
X1305560D02*
D03*
X1178560Y670560D02*
D03*
X1325880D02*
D03*
X934720Y1066800D02*
D03*
Y1041400D02*
D03*
Y1016000D02*
D03*
Y990600D02*
D03*
Y965200D02*
D03*
Y939800D02*
D03*
Y914400D02*
D03*
Y889000D02*
D03*
Y838200D02*
D03*
Y812800D02*
D03*
Y787400D02*
D03*
Y762000D02*
D03*
Y736600D02*
D03*
Y711200D02*
D03*
Y685800D02*
D03*
Y660400D02*
D03*
Y609600D02*
D03*
Y584200D02*
D03*
Y558800D02*
D03*
Y533400D02*
D03*
Y508000D02*
D03*
Y482600D02*
D03*
Y457200D02*
D03*
Y431800D02*
D03*
X985520Y381000D02*
D03*
X1010920D02*
D03*
X1036320D02*
D03*
X1061720D02*
D03*
X1087120D02*
D03*
X1112520D02*
D03*
X1137920D02*
D03*
X1163320D02*
D03*
X1188720D02*
D03*
X1214120D02*
D03*
X1239520D02*
D03*
X1264920D02*
D03*
X1290320D02*
D03*
X1315720D02*
D03*
X1341120D02*
D03*
X1366520D02*
D03*
X1391920D02*
D03*
X1417320D02*
D03*
Y482600D02*
D03*
Y508000D02*
D03*
Y533400D02*
D03*
Y558800D02*
D03*
Y584200D02*
D03*
Y609600D02*
D03*
Y635000D02*
D03*
Y660400D02*
D03*
Y711200D02*
D03*
Y736600D02*
D03*
Y762000D02*
D03*
Y787400D02*
D03*
Y812800D02*
D03*
Y838200D02*
D03*
Y863600D02*
D03*
Y889000D02*
D03*
Y927100D02*
D03*
Y952500D02*
D03*
Y977900D02*
D03*
Y1003300D02*
D03*
Y1028700D02*
D03*
Y1054100D02*
D03*
Y1079500D02*
D03*
Y1104900D02*
D03*
D18*
X995680Y563880D02*
D03*
D19*
X1021080D02*
D03*
X1092200D02*
D03*
X1117600D02*
D03*
X1275080D02*
D03*
X1300480D02*
D03*
X1183640D02*
D03*
X1209040D02*
D03*
D20*
X1021080Y538480D02*
D03*
X1209040D02*
D03*
Y513080D02*
D03*
D21*
X1280160Y767080D02*
D03*
X1203960Y670560D02*
D03*
X1351280D02*
D03*
D22*
X1300480D02*
D03*
X1275080D02*
D03*
D23*
X1289939Y1198880D02*
D03*
X1341501D02*
D03*
D24*
X933450Y381000D02*
D03*
X1417320Y419100D02*
D03*
Y1187450D02*
D03*
X935990Y1206500D02*
D03*
D25*
X1275080Y830580D02*
D03*
X1347470Y816610D02*
D03*
M02*
