%FSLAX44Y44*%
%MOMM*%
G71*
G01*
G75*
G04 Layer_Color=255*
%ADD10C,0.1016*%
%ADD11C,0.5080*%
%ADD12C,0.7620*%
%ADD13C,1.9050*%
%ADD14O,2.4130X2.1590*%
%ADD15C,1.5240*%
D13*
X415440Y1005250D02*
D03*
Y979750D02*
D03*
Y954350D02*
D03*
Y929000D02*
D03*
Y903550D02*
D03*
Y878150D02*
D03*
Y852750D02*
D03*
Y827350D02*
D03*
Y801950D02*
D03*
Y776550D02*
D03*
Y751150D02*
D03*
Y725750D02*
D03*
Y700350D02*
D03*
Y674950D02*
D03*
Y649550D02*
D03*
Y624150D02*
D03*
X715440Y1050250D02*
D03*
X740840D02*
D03*
X1110440Y460250D02*
D03*
X1085040D02*
D03*
X1110440Y485650D02*
D03*
X1085040D02*
D03*
X1110440Y511050D02*
D03*
X1085040D02*
D03*
X1123190Y571050D02*
D03*
X1097790D02*
D03*
X1072390D02*
D03*
X1440180Y831850D02*
D03*
Y857250D02*
D03*
Y882650D02*
D03*
Y908050D02*
D03*
Y933450D02*
D03*
Y958850D02*
D03*
Y984250D02*
D03*
Y1009650D02*
D03*
Y1035050D02*
D03*
Y1060450D02*
D03*
X1414780Y831850D02*
D03*
Y857250D02*
D03*
Y882650D02*
D03*
Y908050D02*
D03*
Y933450D02*
D03*
Y958850D02*
D03*
Y984250D02*
D03*
Y1009650D02*
D03*
Y1035050D02*
D03*
Y1060450D02*
D03*
X1242060Y1050290D02*
D03*
X1267460D02*
D03*
X1292860D02*
D03*
X1318260D02*
D03*
D14*
X1440180Y709930D02*
D03*
Y659130D02*
D03*
Y608330D02*
D03*
M02*
