M48
;Layer_Color=9474304
;FILE_FORMAT=4:4
METRIC,LZ
;TYPE=PLATED
T1F00S00C0.8890
T2F00S00C1.2700
%
T01
X0122555Y005715
X0135763Y0053848
X0134112Y0065913
X0143129Y00762
X0141986Y0078867
X0146177
X0148844Y0070993
X0112319Y0057105
X0109779
X0107239
X0108504Y0051105
X0111044
Y0048565
X0108504
Y0046025
X0111044
X0041544Y0062415
Y0064955
Y0067495
Y0070035
Y0072575
Y0075115
Y0077655
Y0080195
Y0082735
Y0085275
Y0087815
Y0090355
Y00929
Y0095435
Y0097975
Y0100525
X006477Y0105029
X0071544Y0105025
X0074084
X0085217Y0105156
X0124206Y0105029
X0126746
X0129286
X0131826
X0130302Y0099441
X0129667Y0096901
X0129794Y0094615
X0134747
X0135382Y0096774
X0139192
X0139319Y0098933
Y0100965
X0141478
Y0103505
Y0106045
X0144018
Y0103505
Y0100965
Y0098425
X0141478
Y0095885
Y0093345
Y0090805
Y0088265
Y0085725
Y0083185
X0144018
Y0085725
Y0088265
Y0090805
Y0093345
Y0095885
X0148209Y0093345
X0152273Y0095885
X0150241Y0103505
X0154686Y0106172
X0141459Y01138111
X0137287Y0113538
X0135763Y0109855
X0135255Y0100965
X0135763Y0090805
X0138303Y0088265
T02
X0144018Y0060833
Y0065913
Y0070993
M30
