%FSLAX44Y44*%
%MOMM*%
G71*
G01*
G75*
%ADD10C,0.2032*%
%ADD11R,2.1500X1.1000*%
%ADD12R,2.1500X1.1000*%
%ADD13R,2.1500X3.5000*%
%ADD14R,5.0000X4.0000*%
%ADD15R,1.3000X1.5000*%
%ADD16R,3.0000X3.5000*%
%ADD17C,1.0160*%
%ADD18C,1.2700*%
%ADD19C,0.7620*%
%ADD20C,0.8890*%
%ADD21C,0.0254*%
%ADD22C,0.3810*%
%ADD23C,0.4000*%
%ADD24C,0.7000*%
%ADD25C,1.8000*%
%ADD26C,1.6000*%
%ADD27R,1.6000X1.6000*%
%ADD28C,5.0000*%
%ADD29C,1.7000*%
%ADD30C,1.5240*%
%ADD31R,1.7000X1.7000*%
%ADD32C,1.2700*%
%ADD33C,1.3000*%
%ADD34C,1.1000*%
%ADD35R,9.9240X11.0700*%
%ADD36R,3.0000X5.0000*%
%ADD37R,1.5000X2.0000*%
%ADD38R,1.2000X3.0000*%
%ADD39R,5.5000X1.5000*%
%ADD40R,1.2000X4.0000*%
%ADD41C,0.5080*%
%ADD42C,0.6350*%
%ADD43C,0.2540*%
%ADD44C,0.2500*%
%ADD45C,0.1693*%
D21*
X697738Y1134110D02*
Y1144270D01*
X707898D01*
Y1134110D01*
X697738D01*
X665988D02*
Y1144270D01*
X676148D01*
Y1134110D01*
X665988D01*
X697738Y1083310D02*
Y1093470D01*
X707898D01*
Y1083310D01*
X697738D01*
X665988D02*
Y1093470D01*
X676148D01*
Y1083310D01*
X665988D01*
X697738Y1032510D02*
Y1042670D01*
X707898D01*
Y1032510D01*
X697738D01*
X665988D02*
Y1042670D01*
X676148D01*
Y1032510D01*
X665988D01*
X1557274Y873506D02*
X1552194Y883666D01*
X1562354D01*
X1557274Y873506D01*
X500053Y1068937D02*
Y1079097D01*
X510214D01*
Y1068937D01*
X500053D01*
Y1118467D02*
Y1128627D01*
X510214D01*
Y1118467D01*
X500053D01*
X1234440Y758952D02*
X1236980Y761492D01*
X1239520D01*
X1236980Y764032D01*
X1239520Y766572D01*
X1236980D01*
X1234440Y769112D01*
X1231900Y766572D01*
X1229360D01*
X1231900Y764032D01*
X1229360Y761492D01*
X1231900D01*
X1234440Y758952D01*
X1208786Y961898D02*
X1211326Y964438D01*
X1213866D01*
X1211326Y966978D01*
X1213866Y969518D01*
X1211326D01*
X1208786Y972058D01*
X1206246Y969518D01*
X1203706D01*
X1206246Y966978D01*
X1203706Y964438D01*
X1206246D01*
X1208786Y961898D01*
X853440Y1012952D02*
X855980Y1015492D01*
X858520D01*
X855980Y1018032D01*
X858520Y1020572D01*
X855980D01*
X853440Y1023112D01*
X850900Y1020572D01*
X848360D01*
X850900Y1018032D01*
X848360Y1015492D01*
X850900D01*
X853440Y1012952D01*
X878840D02*
X881380Y1015492D01*
X883920D01*
X881380Y1018032D01*
X883920Y1020572D01*
X881380D01*
X878840Y1023112D01*
X876300Y1020572D01*
X873760D01*
X876300Y1018032D01*
X873760Y1015492D01*
X876300D01*
X878840Y1012952D01*
X904240D02*
X906780Y1015492D01*
X909320D01*
X906780Y1018032D01*
X909320Y1020572D01*
X906780D01*
X904240Y1023112D01*
X901700Y1020572D01*
X899160D01*
X901700Y1018032D01*
X899160Y1015492D01*
X901700D01*
X904240Y1012952D01*
X1082040D02*
X1084580Y1015492D01*
X1087120D01*
X1084580Y1018032D01*
X1087120Y1020572D01*
X1084580D01*
X1082040Y1023112D01*
X1079500Y1020572D01*
X1076960D01*
X1079500Y1018032D01*
X1076960Y1015492D01*
X1079500D01*
X1082040Y1012952D01*
X1107440D02*
X1109980Y1015492D01*
X1112520D01*
X1109980Y1018032D01*
X1112520Y1020572D01*
X1109980D01*
X1107440Y1023112D01*
X1104900Y1020572D01*
X1102360D01*
X1104900Y1018032D01*
X1102360Y1015492D01*
X1104900D01*
X1107440Y1012952D01*
X1132840D02*
X1135380Y1015492D01*
X1137920D01*
X1135380Y1018032D01*
X1137920Y1020572D01*
X1135380D01*
X1132840Y1023112D01*
X1130300Y1020572D01*
X1127760D01*
X1130300Y1018032D01*
X1127760Y1015492D01*
X1130300D01*
X1132840Y1012952D01*
X1183640D02*
X1186180Y1015492D01*
X1188720D01*
X1186180Y1018032D01*
X1188720Y1020572D01*
X1186180D01*
X1183640Y1023112D01*
X1181100Y1020572D01*
X1178560D01*
X1181100Y1018032D01*
X1178560Y1015492D01*
X1181100D01*
X1183640Y1012952D01*
X1209040Y657352D02*
X1211580Y659892D01*
X1214120D01*
X1211580Y662432D01*
X1214120Y664972D01*
X1211580D01*
X1209040Y667512D01*
X1206500Y664972D01*
X1203960D01*
X1206500Y662432D01*
X1203960Y659892D01*
X1206500D01*
X1209040Y657352D01*
Y682752D02*
X1211580Y685292D01*
X1214120D01*
X1211580Y687832D01*
X1214120Y690372D01*
X1211580D01*
X1209040Y692912D01*
X1206500Y690372D01*
X1203960D01*
X1206500Y687832D01*
X1203960Y685292D01*
X1206500D01*
X1209040Y682752D01*
Y708152D02*
X1211580Y710692D01*
X1214120D01*
X1211580Y713232D01*
X1214120Y715772D01*
X1211580D01*
X1209040Y718312D01*
X1206500Y715772D01*
X1203960D01*
X1206500Y713232D01*
X1203960Y710692D01*
X1206500D01*
X1209040Y708152D01*
Y733552D02*
X1211580Y736092D01*
X1214120D01*
X1211580Y738632D01*
X1214120Y741172D01*
X1211580D01*
X1209040Y743712D01*
X1206500Y741172D01*
X1203960D01*
X1206500Y738632D01*
X1203960Y736092D01*
X1206500D01*
X1209040Y733552D01*
Y758952D02*
X1211580Y761492D01*
X1214120D01*
X1211580Y764032D01*
X1214120Y766572D01*
X1211580D01*
X1209040Y769112D01*
X1206500Y766572D01*
X1203960D01*
X1206500Y764032D01*
X1203960Y761492D01*
X1206500D01*
X1209040Y758952D01*
Y784352D02*
X1211580Y786892D01*
X1214120D01*
X1211580Y789432D01*
X1214120Y791972D01*
X1211580D01*
X1209040Y794512D01*
X1206500Y791972D01*
X1203960D01*
X1206500Y789432D01*
X1203960Y786892D01*
X1206500D01*
X1209040Y784352D01*
Y809752D02*
X1211580Y812292D01*
X1214120D01*
X1211580Y814832D01*
X1214120Y817372D01*
X1211580D01*
X1209040Y819912D01*
X1206500Y817372D01*
X1203960D01*
X1206500Y814832D01*
X1203960Y812292D01*
X1206500D01*
X1209040Y809752D01*
Y835152D02*
X1211580Y837692D01*
X1214120D01*
X1211580Y840232D01*
X1214120Y842772D01*
X1211580D01*
X1209040Y845312D01*
X1206500Y842772D01*
X1203960D01*
X1206500Y840232D01*
X1203960Y837692D01*
X1206500D01*
X1209040Y835152D01*
Y860552D02*
X1211580Y863092D01*
X1214120D01*
X1211580Y865632D01*
X1214120Y868172D01*
X1211580D01*
X1209040Y870712D01*
X1206500Y868172D01*
X1203960D01*
X1206500Y865632D01*
X1203960Y863092D01*
X1206500D01*
X1209040Y860552D01*
Y885952D02*
X1211580Y888492D01*
X1214120D01*
X1211580Y891032D01*
X1214120Y893572D01*
X1211580D01*
X1209040Y896112D01*
X1206500Y893572D01*
X1203960D01*
X1206500Y891032D01*
X1203960Y888492D01*
X1206500D01*
X1209040Y885952D01*
Y911352D02*
X1211580Y913892D01*
X1214120D01*
X1211580Y916432D01*
X1214120Y918972D01*
X1211580D01*
X1209040Y921512D01*
X1206500Y918972D01*
X1203960D01*
X1206500Y916432D01*
X1203960Y913892D01*
X1206500D01*
X1209040Y911352D01*
Y936752D02*
X1211580Y939292D01*
X1214120D01*
X1211580Y941832D01*
X1214120Y944372D01*
X1211580D01*
X1209040Y946912D01*
X1206500Y944372D01*
X1203960D01*
X1206500Y941832D01*
X1203960Y939292D01*
X1206500D01*
X1209040Y936752D01*
Y987552D02*
X1211580Y990092D01*
X1214120D01*
X1211580Y992632D01*
X1214120Y995172D01*
X1211580D01*
X1209040Y997712D01*
X1206500Y995172D01*
X1203960D01*
X1206500Y992632D01*
X1203960Y990092D01*
X1206500D01*
X1209040Y987552D01*
X802640Y657352D02*
X805180Y659892D01*
X807720D01*
X805180Y662432D01*
X807720Y664972D01*
X805180D01*
X802640Y667512D01*
X800100Y664972D01*
X797560D01*
X800100Y662432D01*
X797560Y659892D01*
X800100D01*
X802640Y657352D01*
Y682752D02*
X805180Y685292D01*
X807720D01*
X805180Y687832D01*
X807720Y690372D01*
X805180D01*
X802640Y692912D01*
X800100Y690372D01*
X797560D01*
X800100Y687832D01*
X797560Y685292D01*
X800100D01*
X802640Y682752D01*
Y708152D02*
X805180Y710692D01*
X807720D01*
X805180Y713232D01*
X807720Y715772D01*
X805180D01*
X802640Y718312D01*
X800100Y715772D01*
X797560D01*
X800100Y713232D01*
X797560Y710692D01*
X800100D01*
X802640Y708152D01*
X797560Y733552D02*
X800100Y738632D01*
X797560Y743712D01*
X802640Y741172D01*
X807720Y743712D01*
X805180Y738632D01*
X807720Y733552D01*
X802640Y736092D01*
X797560Y733552D01*
X802640Y758952D02*
X805180Y761492D01*
X807720D01*
X805180Y764032D01*
X807720Y766572D01*
X805180D01*
X802640Y769112D01*
X800100Y766572D01*
X797560D01*
X800100Y764032D01*
X797560Y761492D01*
X800100D01*
X802640Y758952D01*
Y784352D02*
X805180Y786892D01*
X807720D01*
X805180Y789432D01*
X807720Y791972D01*
X805180D01*
X802640Y794512D01*
X800100Y791972D01*
X797560D01*
X800100Y789432D01*
X797560Y786892D01*
X800100D01*
X802640Y784352D01*
Y809752D02*
X805180Y812292D01*
X807720D01*
X805180Y814832D01*
X807720Y817372D01*
X805180D01*
X802640Y819912D01*
X800100Y817372D01*
X797560D01*
X800100Y814832D01*
X797560Y812292D01*
X800100D01*
X802640Y809752D01*
Y835152D02*
X805180Y837692D01*
X807720D01*
X805180Y840232D01*
X807720Y842772D01*
X805180D01*
X802640Y845312D01*
X800100Y842772D01*
X797560D01*
X800100Y840232D01*
X797560Y837692D01*
X800100D01*
X802640Y835152D01*
Y860552D02*
X805180Y863092D01*
X807720D01*
X805180Y865632D01*
X807720Y868172D01*
X805180D01*
X802640Y870712D01*
X800100Y868172D01*
X797560D01*
X800100Y865632D01*
X797560Y863092D01*
X800100D01*
X802640Y860552D01*
Y885952D02*
X805180Y888492D01*
X807720D01*
X805180Y891032D01*
X807720Y893572D01*
X805180D01*
X802640Y896112D01*
X800100Y893572D01*
X797560D01*
X800100Y891032D01*
X797560Y888492D01*
X800100D01*
X802640Y885952D01*
Y911352D02*
X805180Y913892D01*
X807720D01*
X805180Y916432D01*
X807720Y918972D01*
X805180D01*
X802640Y921512D01*
X800100Y918972D01*
X797560D01*
X800100Y916432D01*
X797560Y913892D01*
X800100D01*
X802640Y911352D01*
Y936752D02*
X805180Y939292D01*
X807720D01*
X805180Y941832D01*
X807720Y944372D01*
X805180D01*
X802640Y946912D01*
X800100Y944372D01*
X797560D01*
X800100Y941832D01*
X797560Y939292D01*
X800100D01*
X802640Y936752D01*
X1158240Y581152D02*
X1160780Y583692D01*
X1163320D01*
X1160780Y586232D01*
X1163320Y588772D01*
X1160780D01*
X1158240Y591312D01*
X1155700Y588772D01*
X1153160D01*
X1155700Y586232D01*
X1153160Y583692D01*
X1155700D01*
X1158240Y581152D01*
X1183640D02*
X1186180Y583692D01*
X1188720D01*
X1186180Y586232D01*
X1188720Y588772D01*
X1186180D01*
X1183640Y591312D01*
X1181100Y588772D01*
X1178560D01*
X1181100Y586232D01*
X1178560Y583692D01*
X1181100D01*
X1183640Y581152D01*
X1209040D02*
X1211580Y583692D01*
X1214120D01*
X1211580Y586232D01*
X1214120Y588772D01*
X1211580D01*
X1209040Y591312D01*
X1206500Y588772D01*
X1203960D01*
X1206500Y586232D01*
X1203960Y583692D01*
X1206500D01*
X1209040Y581152D01*
X1234440D02*
X1236980Y583692D01*
X1239520D01*
X1236980Y586232D01*
X1239520Y588772D01*
X1236980D01*
X1234440Y591312D01*
X1231900Y588772D01*
X1229360D01*
X1231900Y586232D01*
X1229360Y583692D01*
X1231900D01*
X1234440Y581152D01*
Y987552D02*
X1236980Y990092D01*
X1239520D01*
X1236980Y992632D01*
X1239520Y995172D01*
X1236980D01*
X1234440Y997712D01*
X1231900Y995172D01*
X1229360D01*
X1231900Y992632D01*
X1229360Y990092D01*
X1231900D01*
X1234440Y987552D01*
X828040Y733552D02*
X830580Y736092D01*
X833120D01*
X830580Y738632D01*
X833120Y741172D01*
X830580D01*
X828040Y743712D01*
X825500Y741172D01*
X822960D01*
X825500Y738632D01*
X822960Y736092D01*
X825500D01*
X828040Y733552D01*
Y708152D02*
X830580Y710692D01*
X833120D01*
X830580Y713232D01*
X833120Y715772D01*
X830580D01*
X828040Y718312D01*
X825500Y715772D01*
X822960D01*
X825500Y713232D01*
X822960Y710692D01*
X825500D01*
X828040Y708152D01*
Y682752D02*
X830580Y685292D01*
X833120D01*
X830580Y687832D01*
X833120Y690372D01*
X830580D01*
X828040Y692912D01*
X825500Y690372D01*
X822960D01*
X825500Y687832D01*
X822960Y685292D01*
X825500D01*
X828040Y682752D01*
Y657352D02*
X830580Y659892D01*
X833120D01*
X830580Y662432D01*
X833120Y664972D01*
X830580D01*
X828040Y667512D01*
X825500Y664972D01*
X822960D01*
X825500Y662432D01*
X822960Y659892D01*
X825500D01*
X828040Y657352D01*
X1183640Y1038352D02*
X1186180Y1040892D01*
X1188720D01*
X1186180Y1043432D01*
X1188720Y1045972D01*
X1186180D01*
X1183640Y1048512D01*
X1181100Y1045972D01*
X1178560D01*
X1181100Y1043432D01*
X1178560Y1040892D01*
X1181100D01*
X1183640Y1038352D01*
X1107440D02*
X1109980Y1040892D01*
X1112520D01*
X1109980Y1043432D01*
X1112520Y1045972D01*
X1109980D01*
X1107440Y1048512D01*
X1104900Y1045972D01*
X1102360D01*
X1104900Y1043432D01*
X1102360Y1040892D01*
X1104900D01*
X1107440Y1038352D01*
X904240D02*
X906780Y1040892D01*
X909320D01*
X906780Y1043432D01*
X909320Y1045972D01*
X906780D01*
X904240Y1048512D01*
X901700Y1045972D01*
X899160D01*
X901700Y1043432D01*
X899160Y1040892D01*
X901700D01*
X904240Y1038352D01*
X1234440Y657352D02*
X1236980Y659892D01*
X1239520D01*
X1236980Y662432D01*
X1239520Y664972D01*
X1236980D01*
X1234440Y667512D01*
X1231900Y664972D01*
X1229360D01*
X1231900Y662432D01*
X1229360Y659892D01*
X1231900D01*
X1234440Y657352D01*
Y682752D02*
X1236980Y685292D01*
X1239520D01*
X1236980Y687832D01*
X1239520Y690372D01*
X1236980D01*
X1234440Y692912D01*
X1231900Y690372D01*
X1229360D01*
X1231900Y687832D01*
X1229360Y685292D01*
X1231900D01*
X1234440Y682752D01*
Y708152D02*
X1236980Y710692D01*
X1239520D01*
X1236980Y713232D01*
X1239520Y715772D01*
X1236980D01*
X1234440Y718312D01*
X1231900Y715772D01*
X1229360D01*
X1231900Y713232D01*
X1229360Y710692D01*
X1231900D01*
X1234440Y708152D01*
Y962660D02*
X1236980Y965200D01*
X1239520D01*
X1236980Y967740D01*
X1239520Y970280D01*
X1236980D01*
X1234440Y972820D01*
X1231900Y970280D01*
X1229360D01*
X1231900Y967740D01*
X1229360Y965200D01*
X1231900D01*
X1234440Y962660D01*
X1209040Y606552D02*
X1211580Y609092D01*
X1214120D01*
X1211580Y611632D01*
X1214120Y614172D01*
X1211580D01*
X1209040Y616712D01*
X1206500Y614172D01*
X1203960D01*
X1206500Y611632D01*
X1203960Y609092D01*
X1206500D01*
X1209040Y606552D01*
X1234440Y733552D02*
X1236980Y736092D01*
X1239520D01*
X1236980Y738632D01*
X1239520Y741172D01*
X1236980D01*
X1234440Y743712D01*
X1231900Y741172D01*
X1229360D01*
X1231900Y738632D01*
X1229360Y736092D01*
X1231900D01*
X1234440Y733552D01*
Y784352D02*
X1236980Y786892D01*
X1239520D01*
X1236980Y789432D01*
X1239520Y791972D01*
X1236980D01*
X1234440Y794512D01*
X1231900Y791972D01*
X1229360D01*
X1231900Y789432D01*
X1229360Y786892D01*
X1231900D01*
X1234440Y784352D01*
Y809752D02*
X1236980Y812292D01*
X1239520D01*
X1236980Y814832D01*
X1239520Y817372D01*
X1236980D01*
X1234440Y819912D01*
X1231900Y817372D01*
X1229360D01*
X1231900Y814832D01*
X1229360Y812292D01*
X1231900D01*
X1234440Y809752D01*
Y835152D02*
X1236980Y837692D01*
X1239520D01*
X1236980Y840232D01*
X1239520Y842772D01*
X1236980D01*
X1234440Y845312D01*
X1231900Y842772D01*
X1229360D01*
X1231900Y840232D01*
X1229360Y837692D01*
X1231900D01*
X1234440Y835152D01*
Y860552D02*
X1236980Y863092D01*
X1239520D01*
X1236980Y865632D01*
X1239520Y868172D01*
X1236980D01*
X1234440Y870712D01*
X1231900Y868172D01*
X1229360D01*
X1231900Y865632D01*
X1229360Y863092D01*
X1231900D01*
X1234440Y860552D01*
Y885952D02*
X1236980Y888492D01*
X1239520D01*
X1236980Y891032D01*
X1239520Y893572D01*
X1236980D01*
X1234440Y896112D01*
X1231900Y893572D01*
X1229360D01*
X1231900Y891032D01*
X1229360Y888492D01*
X1231900D01*
X1234440Y885952D01*
Y911352D02*
X1236980Y913892D01*
X1239520D01*
X1236980Y916432D01*
X1239520Y918972D01*
X1236980D01*
X1234440Y921512D01*
X1231900Y918972D01*
X1229360D01*
X1231900Y916432D01*
X1229360Y913892D01*
X1231900D01*
X1234440Y911352D01*
Y936752D02*
X1236980Y939292D01*
X1239520D01*
X1236980Y941832D01*
X1239520Y944372D01*
X1236980D01*
X1234440Y946912D01*
X1231900Y944372D01*
X1229360D01*
X1231900Y941832D01*
X1229360Y939292D01*
X1231900D01*
X1234440Y936752D01*
Y606552D02*
X1236980Y609092D01*
X1239520D01*
X1236980Y611632D01*
X1239520Y614172D01*
X1236980D01*
X1234440Y616712D01*
X1231900Y614172D01*
X1229360D01*
X1231900Y611632D01*
X1229360Y609092D01*
X1231900D01*
X1234440Y606552D01*
X1183640D02*
X1186180Y609092D01*
X1188720D01*
X1186180Y611632D01*
X1188720Y614172D01*
X1186180D01*
X1183640Y616712D01*
X1181100Y614172D01*
X1178560D01*
X1181100Y611632D01*
X1178560Y609092D01*
X1181100D01*
X1183640Y606552D01*
X1158240D02*
X1160780Y609092D01*
X1163320D01*
X1160780Y611632D01*
X1163320Y614172D01*
X1160780D01*
X1158240Y616712D01*
X1155700Y614172D01*
X1153160D01*
X1155700Y611632D01*
X1153160Y609092D01*
X1155700D01*
X1158240Y606552D01*
X828040Y758952D02*
X830580Y761492D01*
X833120D01*
X830580Y764032D01*
X833120Y766572D01*
X830580D01*
X828040Y769112D01*
X825500Y766572D01*
X822960D01*
X825500Y764032D01*
X822960Y761492D01*
X825500D01*
X828040Y758952D01*
Y911352D02*
X830580Y913892D01*
X833120D01*
X830580Y916432D01*
X833120Y918972D01*
X830580D01*
X828040Y921512D01*
X825500Y918972D01*
X822960D01*
X825500Y916432D01*
X822960Y913892D01*
X825500D01*
X828040Y911352D01*
Y936752D02*
X830580Y939292D01*
X833120D01*
X830580Y941832D01*
X833120Y944372D01*
X830580D01*
X828040Y946912D01*
X825500Y944372D01*
X822960D01*
X825500Y941832D01*
X822960Y939292D01*
X825500D01*
X828040Y936752D01*
Y784352D02*
X830580Y786892D01*
X833120D01*
X830580Y789432D01*
X833120Y791972D01*
X830580D01*
X828040Y794512D01*
X825500Y791972D01*
X822960D01*
X825500Y789432D01*
X822960Y786892D01*
X825500D01*
X828040Y784352D01*
X1132840Y1038352D02*
X1135380Y1040892D01*
X1137920D01*
X1135380Y1043432D01*
X1137920Y1045972D01*
X1135380D01*
X1132840Y1048512D01*
X1130300Y1045972D01*
X1127760D01*
X1130300Y1043432D01*
X1127760Y1040892D01*
X1130300D01*
X1132840Y1038352D01*
X853440D02*
X855980Y1040892D01*
X858520D01*
X855980Y1043432D01*
X858520Y1045972D01*
X855980D01*
X853440Y1048512D01*
X850900Y1045972D01*
X848360D01*
X850900Y1043432D01*
X848360Y1040892D01*
X850900D01*
X853440Y1038352D01*
X878840D02*
X881380Y1040892D01*
X883920D01*
X881380Y1043432D01*
X883920Y1045972D01*
X881380D01*
X878840Y1048512D01*
X876300Y1045972D01*
X873760D01*
X876300Y1043432D01*
X873760Y1040892D01*
X876300D01*
X878840Y1038352D01*
X1082040D02*
X1084580Y1040892D01*
X1087120D01*
X1084580Y1043432D01*
X1087120Y1045972D01*
X1084580D01*
X1082040Y1048512D01*
X1079500Y1045972D01*
X1076960D01*
X1079500Y1043432D01*
X1076960Y1040892D01*
X1079500D01*
X1082040Y1038352D01*
X828040Y885952D02*
X830580Y888492D01*
X833120D01*
X830580Y891032D01*
X833120Y893572D01*
X830580D01*
X828040Y896112D01*
X825500Y893572D01*
X822960D01*
X825500Y891032D01*
X822960Y888492D01*
X825500D01*
X828040Y885952D01*
Y860552D02*
X830580Y863092D01*
X833120D01*
X830580Y865632D01*
X833120Y868172D01*
X830580D01*
X828040Y870712D01*
X825500Y868172D01*
X822960D01*
X825500Y865632D01*
X822960Y863092D01*
X825500D01*
X828040Y860552D01*
Y835152D02*
X830580Y837692D01*
X833120D01*
X830580Y840232D01*
X833120Y842772D01*
X830580D01*
X828040Y845312D01*
X825500Y842772D01*
X822960D01*
X825500Y840232D01*
X822960Y837692D01*
X825500D01*
X828040Y835152D01*
Y809752D02*
X830580Y812292D01*
X833120D01*
X830580Y814832D01*
X833120Y817372D01*
X830580D01*
X828040Y819912D01*
X825500Y817372D01*
X822960D01*
X825500Y814832D01*
X822960Y812292D01*
X825500D01*
X828040Y809752D01*
X500053Y943207D02*
Y953367D01*
X510214D01*
Y943207D01*
X500053D01*
Y992737D02*
Y1002897D01*
X510214D01*
Y992737D01*
X500053D01*
X494792Y549402D02*
X489712Y559562D01*
X499872D01*
X494792Y549402D01*
Y1172210D02*
X489712Y1182370D01*
X499872D01*
X494792Y1172210D01*
X767588Y718566D02*
Y716026D01*
X772668D01*
Y718566D01*
X775208D01*
Y723646D01*
X772668D01*
Y726186D01*
X767588D01*
Y723646D01*
X765048D01*
Y718566D01*
X767588D01*
X765048Y580898D02*
Y578358D01*
X770128D01*
Y580898D01*
X772668D01*
Y585978D01*
X770128D01*
Y588518D01*
X765048D01*
Y585978D01*
X762508D01*
Y580898D01*
X765048D01*
X1558036Y1088136D02*
Y1085596D01*
X1563116D01*
Y1088136D01*
X1565656D01*
Y1093216D01*
X1563116D01*
Y1095756D01*
X1558036D01*
Y1093216D01*
X1555496D01*
Y1088136D01*
X1558036D01*
X1440688Y1198880D02*
Y1196340D01*
X1445768D01*
Y1198880D01*
X1448308D01*
Y1203960D01*
X1445768D01*
Y1206500D01*
X1440688D01*
Y1203960D01*
X1438148D01*
Y1198880D01*
X1440688D01*
X1272467Y580241D02*
Y577701D01*
X1277548D01*
Y580241D01*
X1280087D01*
Y585321D01*
X1277548D01*
Y587861D01*
X1272467D01*
Y585321D01*
X1269928D01*
Y580241D01*
X1272467D01*
X1430710Y583543D02*
Y581003D01*
X1435789D01*
Y583543D01*
X1438329D01*
Y588623D01*
X1435789D01*
Y591163D01*
X1430710D01*
Y588623D01*
X1428170D01*
Y583543D01*
X1430710D01*
X1029389Y680571D02*
Y678031D01*
X1034470D01*
Y680571D01*
X1037010D01*
Y685651D01*
X1034470D01*
Y688191D01*
X1029389D01*
Y685651D01*
X1026850D01*
Y680571D01*
X1029389D01*
X1010593Y681333D02*
Y678793D01*
X1015674D01*
Y681333D01*
X1018214D01*
Y686413D01*
X1015674D01*
Y688953D01*
X1010593D01*
Y686413D01*
X1008054D01*
Y681333D01*
X1010593D01*
X1410898Y926443D02*
Y923903D01*
X1415977D01*
Y926443D01*
X1418517D01*
Y931523D01*
X1415977D01*
Y934063D01*
X1410898D01*
Y931523D01*
X1408358D01*
Y926443D01*
X1410898D01*
X1426138Y797411D02*
Y794871D01*
X1431217D01*
Y797411D01*
X1433757D01*
Y802491D01*
X1431217D01*
Y805031D01*
X1426138D01*
Y802491D01*
X1423598D01*
Y797411D01*
X1426138D01*
X1411151Y797157D02*
Y794617D01*
X1416232D01*
Y797157D01*
X1418772D01*
Y802237D01*
X1416232D01*
Y804777D01*
X1411151D01*
Y802237D01*
X1408611D01*
Y797157D01*
X1411151D01*
X1293114Y989838D02*
Y987298D01*
X1298194D01*
Y989838D01*
X1300734D01*
Y994918D01*
X1298194D01*
Y997458D01*
X1293114D01*
Y994918D01*
X1290574D01*
Y989838D01*
X1293114D01*
X1260783Y1115419D02*
Y1112879D01*
X1265863D01*
Y1115419D01*
X1268403D01*
Y1120499D01*
X1265863D01*
Y1123039D01*
X1260783D01*
Y1120499D01*
X1258243D01*
Y1115419D01*
X1260783D01*
X1035304Y1114806D02*
Y1112266D01*
X1040384D01*
Y1114806D01*
X1042924D01*
Y1119886D01*
X1040384D01*
Y1122426D01*
X1035304D01*
Y1119886D01*
X1032764D01*
Y1114806D01*
X1035304D01*
X1013388Y1129643D02*
Y1127103D01*
X1018467D01*
Y1129643D01*
X1021008D01*
Y1134723D01*
X1018467D01*
Y1137263D01*
X1013388D01*
Y1134723D01*
X1010847D01*
Y1129643D01*
X1013388D01*
X1134037Y1165203D02*
Y1162663D01*
X1139118D01*
Y1165203D01*
X1141657D01*
Y1170283D01*
X1139118D01*
Y1172823D01*
X1134037D01*
Y1170283D01*
X1131497D01*
Y1165203D01*
X1134037D01*
X1418009Y1110085D02*
Y1107545D01*
X1423089D01*
Y1110085D01*
X1425629D01*
Y1115165D01*
X1423089D01*
Y1117705D01*
X1418009D01*
Y1115165D01*
X1415470D01*
Y1110085D01*
X1418009D01*
X1402007Y1161139D02*
Y1158599D01*
X1407088D01*
Y1161139D01*
X1409628D01*
Y1166219D01*
X1407088D01*
Y1168759D01*
X1402007D01*
Y1166219D01*
X1399467D01*
Y1161139D01*
X1402007D01*
X1520117Y777091D02*
Y774551D01*
X1525197D01*
Y777091D01*
X1527737D01*
Y782171D01*
X1525197D01*
Y784711D01*
X1520117D01*
Y782171D01*
X1517578D01*
Y777091D01*
X1520117D01*
X1519610Y839575D02*
Y837035D01*
X1524689D01*
Y839575D01*
X1527229D01*
Y844655D01*
X1524689D01*
Y847195D01*
X1519610D01*
Y844655D01*
X1517070D01*
Y839575D01*
X1519610D01*
X1300226Y744474D02*
Y741934D01*
X1305306D01*
Y744474D01*
X1307846D01*
Y749554D01*
X1305306D01*
Y752094D01*
X1300226D01*
Y749554D01*
X1297686D01*
Y744474D01*
X1300226D01*
X543741Y967845D02*
Y965305D01*
X548821D01*
Y967845D01*
X551362D01*
Y972925D01*
X548821D01*
Y975465D01*
X543741D01*
Y972925D01*
X541202D01*
Y967845D01*
X543741D01*
Y1070207D02*
Y1067667D01*
X548821D01*
Y1070207D01*
X551362D01*
Y1075287D01*
X548821D01*
Y1077827D01*
X543741D01*
Y1075287D01*
X541202D01*
Y1070207D01*
X543741D01*
X910264Y1134215D02*
Y1131675D01*
X915343D01*
Y1134215D01*
X917884D01*
Y1139295D01*
X915343D01*
Y1141835D01*
X910264D01*
Y1139295D01*
X907723D01*
Y1134215D01*
X910264D01*
X840667Y1169775D02*
Y1167235D01*
X845748D01*
Y1169775D01*
X848288D01*
Y1174855D01*
X845748D01*
Y1177395D01*
X840667D01*
Y1174855D01*
X838128D01*
Y1169775D01*
X840667D01*
X1503353Y622405D02*
Y619865D01*
X1508434D01*
Y622405D01*
X1510974D01*
Y627485D01*
X1508434D01*
Y630025D01*
X1503353D01*
Y627485D01*
X1500813D01*
Y622405D01*
X1503353D01*
X1460173Y622913D02*
Y620373D01*
X1465253D01*
Y622913D01*
X1467793D01*
Y627993D01*
X1465253D01*
Y630533D01*
X1460173D01*
Y627993D01*
X1457634D01*
Y622913D01*
X1460173D01*
X1478208Y561445D02*
Y558905D01*
X1483288D01*
Y561445D01*
X1485827D01*
Y566525D01*
X1483288D01*
Y569065D01*
X1478208D01*
Y566525D01*
X1475668D01*
Y561445D01*
X1478208D01*
X1478461Y537569D02*
Y535029D01*
X1483542D01*
Y537569D01*
X1486082D01*
Y542649D01*
X1483542D01*
Y545189D01*
X1478461D01*
Y542649D01*
X1475921D01*
Y537569D01*
X1478461D01*
X584636Y728069D02*
X587175D01*
X589715Y730609D01*
X592256Y728069D01*
X594795D01*
Y730609D01*
X592256Y733149D01*
X594795Y735689D01*
Y738229D01*
X592256D01*
X589715Y735689D01*
X587175Y738229D01*
X584636D01*
Y735689D01*
X587175Y733149D01*
X584636Y730609D01*
Y728069D01*
X533582Y922379D02*
X536121D01*
X538661Y924919D01*
X541202Y922379D01*
X543741D01*
Y924919D01*
X541202Y927459D01*
X543741Y929999D01*
Y932539D01*
X541202D01*
X538661Y929999D01*
X536121Y932539D01*
X533582D01*
Y929999D01*
X536121Y927459D01*
X533582Y924919D01*
Y922379D01*
X764976Y697589D02*
X767515D01*
X770055Y700129D01*
X772596Y697589D01*
X775135D01*
Y700129D01*
X772596Y702669D01*
X775135Y705209D01*
Y707749D01*
X772596D01*
X770055Y705209D01*
X767515Y707749D01*
X764976D01*
Y705209D01*
X767515Y702669D01*
X764976Y700129D01*
Y697589D01*
X1103811Y593703D02*
Y591163D01*
X1108892D01*
Y593703D01*
X1111432D01*
Y598783D01*
X1108892D01*
Y601323D01*
X1103811D01*
Y598783D01*
X1101272D01*
Y593703D01*
X1103811D01*
X1122607D02*
Y591163D01*
X1127688D01*
Y593703D01*
X1130228D01*
Y598783D01*
X1127688D01*
Y601323D01*
X1122607D01*
Y598783D01*
X1120068D01*
Y593703D01*
X1122607D01*
X1341810Y694541D02*
Y692001D01*
X1346889D01*
Y694541D01*
X1349429D01*
Y699621D01*
X1346889D01*
Y702161D01*
X1341810D01*
Y699621D01*
X1339270D01*
Y694541D01*
X1341810D01*
X1274753Y710797D02*
Y708257D01*
X1279834D01*
Y710797D01*
X1282374D01*
Y715877D01*
X1279834D01*
Y718417D01*
X1274753D01*
Y715877D01*
X1272214D01*
Y710797D01*
X1274753D01*
X1274500Y685905D02*
Y683365D01*
X1279579D01*
Y685905D01*
X1282119D01*
Y690985D01*
X1279579D01*
Y693525D01*
X1274500D01*
Y690985D01*
X1271960D01*
Y685905D01*
X1274500D01*
X1340031Y719687D02*
Y717147D01*
X1345112D01*
Y719687D01*
X1347652D01*
Y724767D01*
X1345112D01*
Y727307D01*
X1340031D01*
Y724767D01*
X1337491D01*
Y719687D01*
X1340031D01*
X1395150Y670157D02*
Y667617D01*
X1400229D01*
Y670157D01*
X1402769D01*
Y675237D01*
X1400229D01*
Y677777D01*
X1395150D01*
Y675237D01*
X1392610D01*
Y670157D01*
X1395150D01*
X1345365Y644503D02*
Y641963D01*
X1350446D01*
Y644503D01*
X1352986D01*
Y649583D01*
X1350446D01*
Y652123D01*
X1345365D01*
Y649583D01*
X1342825D01*
Y644503D01*
X1345365D01*
X1394642Y619357D02*
Y616817D01*
X1399722D01*
Y619357D01*
X1402262D01*
Y624437D01*
X1399722D01*
Y626977D01*
X1394642D01*
Y624437D01*
X1392101D01*
Y619357D01*
X1394642D01*
X1395658Y593957D02*
Y591417D01*
X1400737D01*
Y593957D01*
X1403277D01*
Y599037D01*
X1400737D01*
Y601577D01*
X1395658D01*
Y599037D01*
X1393118D01*
Y593957D01*
X1395658D01*
X1440108Y733911D02*
Y731371D01*
X1445188D01*
Y733911D01*
X1447728D01*
Y738991D01*
X1445188D01*
Y741531D01*
X1440108D01*
Y738991D01*
X1437567D01*
Y733911D01*
X1440108D01*
D45*
X1577014Y830177D02*
X1576432Y832538D01*
X1574819Y834357D01*
X1572546Y835220D01*
X1570132Y834927D01*
X1568131Y833545D01*
X1567001Y831392D01*
Y828961D01*
X1568131Y826808D01*
X1570132Y825427D01*
X1572546Y825134D01*
X1574819Y825996D01*
X1576432Y827816D01*
X1577014Y830177D01*
Y804777D02*
X1576432Y807138D01*
X1574819Y808957D01*
X1572546Y809820D01*
X1570132Y809527D01*
X1568131Y808145D01*
X1567001Y805992D01*
Y803561D01*
X1568131Y801408D01*
X1570132Y800027D01*
X1572546Y799734D01*
X1574819Y800596D01*
X1576432Y802416D01*
X1577014Y804777D01*
Y779377D02*
X1576432Y781738D01*
X1574819Y783557D01*
X1572546Y784420D01*
X1570132Y784127D01*
X1568131Y782745D01*
X1567001Y780592D01*
Y778161D01*
X1568131Y776008D01*
X1570132Y774627D01*
X1572546Y774334D01*
X1574819Y775196D01*
X1576432Y777016D01*
X1577014Y779377D01*
Y753977D02*
X1576432Y756338D01*
X1574819Y758157D01*
X1572546Y759020D01*
X1570132Y758727D01*
X1568131Y757345D01*
X1567001Y755192D01*
Y752761D01*
X1568131Y750608D01*
X1570132Y749227D01*
X1572546Y748934D01*
X1574819Y749796D01*
X1576432Y751616D01*
X1577014Y753977D01*
Y728577D02*
X1576432Y730938D01*
X1574819Y732757D01*
X1572546Y733620D01*
X1570132Y733326D01*
X1568131Y731945D01*
X1567001Y729792D01*
Y727361D01*
X1568131Y725208D01*
X1570132Y723827D01*
X1572546Y723534D01*
X1574819Y724396D01*
X1576432Y726216D01*
X1577014Y728577D01*
X1461262Y577088D02*
X1460680Y579449D01*
X1459068Y581269D01*
X1456794Y582131D01*
X1454381Y581838D01*
X1452380Y580457D01*
X1451250Y578304D01*
Y575872D01*
X1452380Y573719D01*
X1454381Y572338D01*
X1456794Y572045D01*
X1459068Y572907D01*
X1460680Y574727D01*
X1461262Y577088D01*
Y602488D02*
X1460680Y604849D01*
X1459068Y606669D01*
X1456794Y607531D01*
X1454381Y607238D01*
X1452380Y605857D01*
X1451250Y603704D01*
Y601272D01*
X1452380Y599119D01*
X1454381Y597738D01*
X1456794Y597445D01*
X1459068Y598307D01*
X1460680Y600127D01*
X1461262Y602488D01*
X1486662Y577088D02*
X1486080Y579449D01*
X1484468Y581269D01*
X1482194Y582131D01*
X1479781Y581838D01*
X1477780Y580457D01*
X1476650Y578304D01*
Y575872D01*
X1477780Y573719D01*
X1479781Y572338D01*
X1482194Y572045D01*
X1484468Y572907D01*
X1486080Y574727D01*
X1486662Y577088D01*
Y602488D02*
X1486080Y604849D01*
X1484468Y606669D01*
X1482194Y607531D01*
X1479781Y607238D01*
X1477780Y605857D01*
X1476650Y603704D01*
Y601272D01*
X1477780Y599119D01*
X1479781Y597738D01*
X1482194Y597445D01*
X1484468Y598307D01*
X1486080Y600127D01*
X1486662Y602488D01*
X1512062Y577088D02*
X1511480Y579449D01*
X1509868Y581269D01*
X1507594Y582131D01*
X1505181Y581838D01*
X1503180Y580457D01*
X1502050Y578304D01*
Y575872D01*
X1503180Y573719D01*
X1505181Y572338D01*
X1507594Y572045D01*
X1509868Y572907D01*
X1511480Y574727D01*
X1512062Y577088D01*
Y602488D02*
X1511480Y604849D01*
X1509868Y606669D01*
X1507594Y607531D01*
X1505181Y607238D01*
X1503180Y605857D01*
X1502050Y603704D01*
Y601272D01*
X1503180Y599119D01*
X1505181Y597738D01*
X1507594Y597445D01*
X1509868Y598307D01*
X1511480Y600127D01*
X1512062Y602488D01*
X1537462Y577088D02*
X1536880Y579449D01*
X1535268Y581269D01*
X1532994Y582131D01*
X1530581Y581838D01*
X1528580Y580457D01*
X1527450Y578304D01*
Y575872D01*
X1528580Y573719D01*
X1530581Y572338D01*
X1532994Y572045D01*
X1535268Y572907D01*
X1536880Y574727D01*
X1537462Y577088D01*
Y602488D02*
X1536880Y604849D01*
X1535268Y606669D01*
X1532994Y607531D01*
X1530581Y607238D01*
X1528580Y605857D01*
X1527450Y603704D01*
Y601272D01*
X1528580Y599119D01*
X1530581Y597738D01*
X1532994Y597445D01*
X1535268Y598307D01*
X1536880Y600127D01*
X1537462Y602488D01*
X1562862Y577088D02*
X1562280Y579449D01*
X1560668Y581269D01*
X1558394Y582131D01*
X1555981Y581838D01*
X1553980Y580457D01*
X1552850Y578304D01*
Y575872D01*
X1553980Y573719D01*
X1555981Y572338D01*
X1558394Y572045D01*
X1560668Y572907D01*
X1562280Y574727D01*
X1562862Y577088D01*
Y602488D02*
X1562280Y604849D01*
X1560668Y606669D01*
X1558394Y607531D01*
X1555981Y607238D01*
X1553980Y605857D01*
X1552850Y603704D01*
Y601272D01*
X1553980Y599119D01*
X1555981Y597738D01*
X1558394Y597445D01*
X1560668Y598307D01*
X1562280Y600127D01*
X1562862Y602488D01*
X1378893Y774297D02*
X1378312Y776657D01*
X1376699Y778477D01*
X1374426Y779340D01*
X1372012Y779046D01*
X1370011Y777665D01*
X1368881Y775512D01*
Y773081D01*
X1370011Y770928D01*
X1372012Y769547D01*
X1374426Y769254D01*
X1376699Y770116D01*
X1378312Y771936D01*
X1378893Y774297D01*
Y748897D02*
X1378312Y751257D01*
X1376699Y753077D01*
X1374426Y753940D01*
X1372012Y753646D01*
X1370011Y752265D01*
X1368881Y750112D01*
Y747681D01*
X1370011Y745528D01*
X1372012Y744147D01*
X1374426Y743854D01*
X1376699Y744716D01*
X1378312Y746536D01*
X1378893Y748897D01*
Y723497D02*
X1378312Y725857D01*
X1376699Y727677D01*
X1374426Y728540D01*
X1372012Y728247D01*
X1370011Y726865D01*
X1368881Y724712D01*
Y722281D01*
X1370011Y720128D01*
X1372012Y718747D01*
X1374426Y718454D01*
X1376699Y719316D01*
X1378312Y721136D01*
X1378893Y723497D01*
Y698097D02*
X1378312Y700458D01*
X1376699Y702277D01*
X1374426Y703140D01*
X1372012Y702847D01*
X1370011Y701465D01*
X1368881Y699312D01*
Y696881D01*
X1370011Y694728D01*
X1372012Y693347D01*
X1374426Y693054D01*
X1376699Y693916D01*
X1378312Y695736D01*
X1378893Y698097D01*
Y672697D02*
X1378312Y675058D01*
X1376699Y676877D01*
X1374426Y677740D01*
X1372012Y677447D01*
X1370011Y676065D01*
X1368881Y673912D01*
Y671481D01*
X1370011Y669328D01*
X1372012Y667947D01*
X1374426Y667654D01*
X1376699Y668516D01*
X1378312Y670336D01*
X1378893Y672697D01*
Y647297D02*
X1378312Y649658D01*
X1376699Y651477D01*
X1374426Y652340D01*
X1372012Y652047D01*
X1370011Y650665D01*
X1368881Y648512D01*
Y646081D01*
X1370011Y643928D01*
X1372012Y642547D01*
X1374426Y642254D01*
X1376699Y643116D01*
X1378312Y644936D01*
X1378893Y647297D01*
Y621897D02*
X1378312Y624258D01*
X1376699Y626077D01*
X1374426Y626940D01*
X1372012Y626646D01*
X1370011Y625265D01*
X1368881Y623112D01*
Y620681D01*
X1370011Y618528D01*
X1372012Y617147D01*
X1374426Y616854D01*
X1376699Y617716D01*
X1378312Y619536D01*
X1378893Y621897D01*
Y596497D02*
X1378312Y598857D01*
X1376699Y600677D01*
X1374426Y601540D01*
X1372012Y601246D01*
X1370011Y599865D01*
X1368881Y597712D01*
Y595281D01*
X1370011Y593128D01*
X1372012Y591747D01*
X1374426Y591454D01*
X1376699Y592316D01*
X1378312Y594136D01*
X1378893Y596497D01*
X1338253Y941937D02*
X1337672Y944297D01*
X1336059Y946117D01*
X1333786Y946980D01*
X1331372Y946686D01*
X1329371Y945305D01*
X1328241Y943152D01*
Y940721D01*
X1329371Y938568D01*
X1331372Y937187D01*
X1333786Y936894D01*
X1336059Y937756D01*
X1337672Y939576D01*
X1338253Y941937D01*
Y916537D02*
X1337672Y918897D01*
X1336059Y920717D01*
X1333786Y921580D01*
X1331372Y921286D01*
X1329371Y919905D01*
X1328241Y917752D01*
Y915321D01*
X1329371Y913168D01*
X1331372Y911787D01*
X1333786Y911494D01*
X1336059Y912356D01*
X1337672Y914176D01*
X1338253Y916537D01*
Y891137D02*
X1337672Y893497D01*
X1336059Y895317D01*
X1333786Y896180D01*
X1331372Y895887D01*
X1329371Y894505D01*
X1328241Y892352D01*
Y889921D01*
X1329371Y887768D01*
X1331372Y886387D01*
X1333786Y886094D01*
X1336059Y886956D01*
X1337672Y888776D01*
X1338253Y891137D01*
Y865737D02*
X1337672Y868098D01*
X1336059Y869917D01*
X1333786Y870780D01*
X1331372Y870487D01*
X1329371Y869105D01*
X1328241Y866952D01*
Y864521D01*
X1329371Y862368D01*
X1331372Y860987D01*
X1333786Y860694D01*
X1336059Y861556D01*
X1337672Y863376D01*
X1338253Y865737D01*
X1327585Y1138533D02*
X1327004Y1140893D01*
X1325391Y1142713D01*
X1323118Y1143576D01*
X1320704Y1143282D01*
X1318703Y1141901D01*
X1317573Y1139748D01*
Y1137317D01*
X1318703Y1135164D01*
X1320704Y1133783D01*
X1323118Y1133490D01*
X1325391Y1134352D01*
X1327004Y1136172D01*
X1327585Y1138533D01*
Y1113133D02*
X1327004Y1115493D01*
X1325391Y1117313D01*
X1323118Y1118176D01*
X1320704Y1117883D01*
X1318703Y1116501D01*
X1317573Y1114348D01*
Y1111917D01*
X1318703Y1109764D01*
X1320704Y1108383D01*
X1323118Y1108090D01*
X1325391Y1108952D01*
X1327004Y1110772D01*
X1327585Y1113133D01*
Y1087733D02*
X1327004Y1090094D01*
X1325391Y1091913D01*
X1323118Y1092776D01*
X1320704Y1092483D01*
X1318703Y1091101D01*
X1317573Y1088948D01*
Y1086517D01*
X1318703Y1084364D01*
X1320704Y1082983D01*
X1323118Y1082690D01*
X1325391Y1083552D01*
X1327004Y1085372D01*
X1327585Y1087733D01*
Y1062333D02*
X1327004Y1064694D01*
X1325391Y1066513D01*
X1323118Y1067376D01*
X1320704Y1067083D01*
X1318703Y1065701D01*
X1317573Y1063548D01*
Y1061117D01*
X1318703Y1058964D01*
X1320704Y1057583D01*
X1323118Y1057290D01*
X1325391Y1058152D01*
X1327004Y1059972D01*
X1327585Y1062333D01*
X1388546Y1138533D02*
X1387964Y1140893D01*
X1386351Y1142713D01*
X1384078Y1143576D01*
X1381664Y1143282D01*
X1379663Y1141901D01*
X1378533Y1139748D01*
Y1137317D01*
X1379663Y1135164D01*
X1381664Y1133783D01*
X1384078Y1133490D01*
X1386351Y1134352D01*
X1387964Y1136172D01*
X1388546Y1138533D01*
Y1113133D02*
X1387964Y1115493D01*
X1386351Y1117313D01*
X1384078Y1118176D01*
X1381664Y1117883D01*
X1379663Y1116501D01*
X1378533Y1114348D01*
Y1111917D01*
X1379663Y1109764D01*
X1381664Y1108383D01*
X1384078Y1108090D01*
X1386351Y1108952D01*
X1387964Y1110772D01*
X1388546Y1113133D01*
Y1087733D02*
X1387964Y1090094D01*
X1386351Y1091913D01*
X1384078Y1092776D01*
X1381664Y1092483D01*
X1379663Y1091101D01*
X1378533Y1088948D01*
Y1086517D01*
X1379663Y1084364D01*
X1381664Y1082983D01*
X1384078Y1082690D01*
X1386351Y1083552D01*
X1387964Y1085372D01*
X1388546Y1087733D01*
Y1062333D02*
X1387964Y1064694D01*
X1386351Y1066513D01*
X1384078Y1067376D01*
X1381664Y1067083D01*
X1379663Y1065701D01*
X1378533Y1063548D01*
Y1061117D01*
X1379663Y1058964D01*
X1381664Y1057583D01*
X1384078Y1057290D01*
X1386351Y1058152D01*
X1387964Y1059972D01*
X1388546Y1062333D01*
X1358065Y1138533D02*
X1357484Y1140893D01*
X1355871Y1142713D01*
X1353598Y1143576D01*
X1351184Y1143282D01*
X1349183Y1141901D01*
X1348053Y1139748D01*
Y1137317D01*
X1349183Y1135164D01*
X1351184Y1133783D01*
X1353598Y1133490D01*
X1355871Y1134352D01*
X1357484Y1136172D01*
X1358065Y1138533D01*
Y1113133D02*
X1357484Y1115493D01*
X1355871Y1117313D01*
X1353598Y1118176D01*
X1351184Y1117883D01*
X1349183Y1116501D01*
X1348053Y1114348D01*
Y1111917D01*
X1349183Y1109764D01*
X1351184Y1108383D01*
X1353598Y1108090D01*
X1355871Y1108952D01*
X1357484Y1110772D01*
X1358065Y1113133D01*
Y1087733D02*
X1357484Y1090094D01*
X1355871Y1091913D01*
X1353598Y1092776D01*
X1351184Y1092483D01*
X1349183Y1091101D01*
X1348053Y1088948D01*
Y1086517D01*
X1349183Y1084364D01*
X1351184Y1082983D01*
X1353598Y1082690D01*
X1355871Y1083552D01*
X1357484Y1085372D01*
X1358065Y1087733D01*
Y1062333D02*
X1357484Y1064694D01*
X1355871Y1066513D01*
X1353598Y1067376D01*
X1351184Y1067083D01*
X1349183Y1065701D01*
X1348053Y1063548D01*
Y1061117D01*
X1349183Y1058964D01*
X1351184Y1057583D01*
X1353598Y1057290D01*
X1355871Y1058152D01*
X1357484Y1059972D01*
X1358065Y1062333D01*
X496062Y627888D02*
X495480Y630249D01*
X493868Y632069D01*
X491594Y632931D01*
X489181Y632638D01*
X487180Y631257D01*
X486050Y629104D01*
Y626672D01*
X487180Y624519D01*
X489181Y623138D01*
X491594Y622845D01*
X493868Y623707D01*
X495480Y625527D01*
X496062Y627888D01*
X521462D02*
X520880Y630249D01*
X519268Y632069D01*
X516994Y632931D01*
X514581Y632638D01*
X512580Y631257D01*
X511450Y629104D01*
Y626672D01*
X512580Y624519D01*
X514581Y623138D01*
X516994Y622845D01*
X519268Y623707D01*
X520880Y625527D01*
X521462Y627888D01*
X546862D02*
X546280Y630249D01*
X544668Y632069D01*
X542394Y632931D01*
X539981Y632638D01*
X537980Y631257D01*
X536850Y629104D01*
Y626672D01*
X537980Y624519D01*
X539981Y623138D01*
X542394Y622845D01*
X544668Y623707D01*
X546280Y625527D01*
X546862Y627888D01*
X572262D02*
X571680Y630249D01*
X570068Y632069D01*
X567794Y632931D01*
X565381Y632638D01*
X563380Y631257D01*
X562250Y629104D01*
Y626672D01*
X563380Y624519D01*
X565381Y623138D01*
X567794Y622845D01*
X570068Y623707D01*
X571680Y625527D01*
X572262Y627888D01*
X799773Y1140057D02*
X799192Y1142418D01*
X797579Y1144237D01*
X795306Y1145100D01*
X792892Y1144807D01*
X790891Y1143425D01*
X789761Y1141272D01*
Y1138841D01*
X790891Y1136688D01*
X792892Y1135307D01*
X795306Y1135014D01*
X797579Y1135876D01*
X799192Y1137696D01*
X799773Y1140057D01*
X825173D02*
X824592Y1142418D01*
X822979Y1144237D01*
X820706Y1145100D01*
X818292Y1144807D01*
X816291Y1143425D01*
X815161Y1141272D01*
Y1138841D01*
X816291Y1136688D01*
X818292Y1135307D01*
X820706Y1135014D01*
X822979Y1135876D01*
X824592Y1137696D01*
X825173Y1140057D01*
X850574D02*
X849992Y1142418D01*
X848379Y1144237D01*
X846106Y1145100D01*
X843692Y1144807D01*
X841691Y1143425D01*
X840561Y1141272D01*
Y1138841D01*
X841691Y1136688D01*
X843692Y1135307D01*
X846106Y1135014D01*
X848379Y1135876D01*
X849992Y1137696D01*
X850574Y1140057D01*
X875974D02*
X875392Y1142418D01*
X873779Y1144237D01*
X871506Y1145100D01*
X869092Y1144807D01*
X867091Y1143425D01*
X865961Y1141272D01*
Y1138841D01*
X867091Y1136688D01*
X869092Y1135307D01*
X871506Y1135014D01*
X873779Y1135876D01*
X875392Y1137696D01*
X875974Y1140057D01*
M02*
