M71
M48
T1F00S00C1.0000
T2F00S00C0.9000
T3F00S00C3.0000
T4F00S00C0.8890
T5F00S00C0.7000
T6F00S00C0.8000
T7F00S00C0.8890
%
T01
X00505134Y00948287
Y00997817
Y01074017
Y01123547
X00671068Y0113919
X00702818
Y0108839
X00671068
Y0103759
X00702818
T02
X01373813Y00596497
Y00621897
Y00647297
Y00672697
Y00698097
Y00723497
Y00748897
Y00774297
X01571933Y00779377
Y00753977
Y00728577
X01557782Y00602488
X01532382
X01506982
X01481582
X01456182
Y00577088
X01481582
X01506982
X01532382
X01557782
X00567182Y00627888
X00541782
X00516382
X00490982
X00794694Y01140057
X00820094
X00845493
X00870893
X01322505Y01138533
Y01113133
Y01087733
Y01062333
X01352986
Y01087733
Y01113133
Y01138533
X01383466
Y01113133
Y01087733
Y01062333
X01333174Y00941937
Y00916537
Y00891137
Y00865737
X01571933Y00830177
Y00804777
T03
X00494792Y00554482
Y0117729
X01557274Y00878586
T04
X0120904Y00586232
X0123444
Y00611632
X0120904
Y00662432
Y00687832
Y00713232
Y00738632
Y00764032
X0123444
Y00738632
Y00713232
Y00687832
Y00662432
Y00789432
X0120904
X0118364Y00611632
Y00586232
X0115824
Y00611632
X0082804Y00662432
X0080264
Y00687832
Y00713232
X0082804
Y00738632
Y00764032
X0080264
Y00789432
X0082804
Y00687832
Y00814832
X0080264
Y00840232
Y00865632
Y00891032
Y00916432
Y00941832
X0082804
Y00916432
Y00891032
Y00865632
Y00840232
X0085344Y01018032
X0087884
X0090424
Y01043432
X0087884
X0085344
X0108204
Y01018032
X0110744
X0113284
Y01043432
X0110744
X0118364
Y01018032
X0120904Y00992632
X0123444
Y0096774
Y00941832
X0120904
X01208786Y00966978
X0120904Y00916432
Y00891032
Y00865632
Y00840232
Y00814832
X0123444
Y00840232
Y00865632
Y00891032
Y00916432
T05
X01275007Y00582781
X01277039Y00688445
X01277293Y00713337
X01302766Y00747014
X01342572Y00722227
X0134435Y00697081
X01347905Y00647043
X01397182Y00621897
X01398197Y00596497
X0143325Y00586083
X01462713Y00625453
X01505894Y00624945
X01480748Y00563985
X01481001Y00540109
X0139769Y00672697
X01442648Y00736451
X01522657Y00779631
X01125147Y00596243
X01106351
X01031929Y00683111
X01013133Y00683873
X00770128Y00721106
X00767588Y00583438
X00546282Y00970385
Y01072747
X00843207Y01172315
X00912803Y01136755
X01015928Y01132183
X01037844Y01117346
X01136578Y01167743
X01263324Y01117959
X01295654Y00992378
X01413438Y00928983
X01413692Y00799697
X01428678Y00799951
X0152215Y00842115
X01560576Y01090676
X01420549Y01112625
X01404547Y01163679
X01443228Y0120142
T06
X00589715Y00733149
X00770055Y00702669
X00538661Y00927459
T07
X0080264Y00738632
M30
