%FSLAX44Y44*%
%MOMM*%
G71*
G01*
G75*
%ADD10C,0.2032*%
%ADD11R,1.5000X1.3000*%
%ADD12R,1.3000X1.5000*%
%ADD13C,0.6350*%
%ADD14C,0.7620*%
%ADD15C,0.8890*%
%ADD16C,0.5080*%
%ADD17C,1.8000*%
%ADD18R,1.8000X1.8000*%
%ADD19C,5.0000*%
%ADD20C,1.4000*%
D10*
X1622907Y892484D02*
X1621202Y892536D01*
X1643250Y869315D02*
X1643106Y871900D01*
X1642678Y874453D01*
X1641970Y876943D01*
X1640990Y879339D01*
X1639752Y881612D01*
X1638269Y883735D01*
X1636561Y885680D01*
X1634649Y887424D01*
X1632555Y888946D01*
X1630305Y890228D01*
X1627928Y891252D01*
X1625452Y892007D01*
X1622907Y892484D01*
X1625978Y869315D02*
X1625339Y872031D01*
X1623557Y874177D01*
X1621004Y875304D01*
X1643106Y866727D02*
X1643250Y869315D01*
X1625927Y868527D02*
X1625978Y869315D01*
X1625927Y868527D02*
X1625874Y866822D01*
X1540366Y828040D02*
X1540157Y830649D01*
X1539534Y833192D01*
X1538514Y835603D01*
X1537122Y837820D01*
X1535395Y839787D01*
X1533376Y841454D01*
X1531118Y842777D01*
X1528677Y843724D01*
X1526117Y844268D01*
X1616056Y817880D02*
X1615954Y820444D01*
X1615650Y822993D01*
X1615144Y825509D01*
X1614441Y827977D01*
X1613544Y830382D01*
X1612460Y832708D01*
X1611194Y834940D01*
X1609756Y837066D01*
X1608154Y839071D01*
X1606398Y840943D01*
X1604500Y842669D01*
X1602470Y844240D01*
X1600323Y845645D01*
X1598070Y846876D01*
X1595728Y847924D01*
X1593309Y848783D01*
X1590831Y849448D01*
X1588307Y849915D01*
X1585754Y850180D01*
X1583189Y850242D01*
X1580626Y850101D01*
X1578083Y849757D01*
X1575575Y849212D01*
X1573118Y848471D01*
X1570728Y847537D01*
X1568419Y846417D01*
X1566206Y845117D01*
X1564103Y843646D01*
X1562123Y842013D01*
X1560278Y840228D01*
X1558581Y838303D01*
X1557042Y836250D01*
X1555670Y834081D01*
X1554475Y831810D01*
X1553463Y829451D01*
X1552641Y827020D01*
X1552015Y824531D01*
X1551587Y822000D01*
X1551362Y819444D01*
X1551340Y816878D01*
X1507884Y830891D02*
X1507638Y828421D01*
X1507694Y804039D02*
X1507689Y801299D01*
X1508141Y798597D01*
X1509038Y796009D01*
X1510353Y793606D01*
X1164756Y862164D02*
X1163081Y859980D01*
X1162028Y857438D01*
X1161669Y854710D01*
X1164767Y862175D02*
X1163086Y859989D01*
X1162029Y857443D01*
X1161669Y854710D01*
X1172210Y806704D02*
X1175923Y807339D01*
X1167226D02*
X1170940Y806704D01*
X1558671Y797347D02*
X1560373Y795433D01*
X1562222Y793659D01*
X1564205Y792037D01*
X1566310Y790576D01*
X1568524Y789287D01*
X1570833Y788177D01*
X1573222Y787254D01*
X1575677Y786522D01*
X1578182Y785986D01*
X1580722Y785650D01*
X1583280Y785517D01*
X1585841Y785586D01*
X1588389Y785857D01*
X1590907Y786329D01*
X1593379Y786998D01*
X1595791Y787861D01*
X1598128Y788913D01*
X1600374Y790145D01*
X1602515Y791552D01*
X1604538Y793123D01*
X1606431Y794849D01*
X1608181Y796720D01*
X1609778Y798723D01*
X1611211Y800847D01*
X1612472Y803077D01*
X1613553Y805399D01*
X1614446Y807800D01*
X1615147Y810264D01*
X1615651Y812776D01*
X1615955Y815320D01*
X1616056Y817880D01*
X1643053Y751993D02*
X1643126Y753110D01*
X1617297Y731794D02*
X1619882Y731650D01*
X1622467Y731793D01*
X1625020Y732222D01*
X1627511Y732930D01*
X1629907Y733909D01*
X1632181Y735147D01*
X1634303Y736630D01*
X1636249Y738338D01*
X1637994Y740251D01*
X1639516Y742345D01*
X1640797Y744594D01*
X1641822Y746972D01*
X1642577Y749448D01*
X1643053Y751993D01*
X1555573Y749455D02*
X1557254Y751641D01*
X1558311Y754187D01*
X1558671Y756920D01*
X1620946Y749015D02*
X1623217Y749914D01*
X1624953Y751633D01*
X1625874Y753896D01*
X1618568Y749026D02*
X1617392D01*
X1555584Y749466D02*
X1557259Y751649D01*
X1558312Y754192D01*
X1558671Y756920D01*
X1088771Y771373D02*
X1090602Y772835D01*
X1092205Y774543D01*
X1093547Y776463D01*
X1094602Y778554D01*
X1095348Y780775D01*
X1106336Y769786D02*
X1108520Y768111D01*
X1111062Y767058D01*
X1113790Y766699D01*
X1106326Y769797D02*
X1108511Y768116D01*
X1111057Y767059D01*
X1113790Y766699D01*
X1071441Y875304D02*
X1069045Y873652D01*
X1066981Y871601D01*
X1066619D02*
X1064555Y873652D01*
X1062159Y875304D01*
X1046041D02*
X1043645Y873652D01*
X1041581Y871601D01*
X1066981Y850519D02*
X1068729Y848738D01*
X1070727Y847244D01*
X1072929Y846071D01*
X1075284Y845246D01*
X1077737Y844789D01*
X1080231Y844710D01*
X1082708Y845012D01*
X1085110Y845686D01*
X1087383Y846717D01*
X1089471Y848082D01*
X1091328Y849749D01*
X1092910Y851678D01*
X1094181Y853826D01*
X1095110Y856142D01*
X1095676Y858572D01*
X1095866Y861060D01*
X1041581Y850519D02*
X1043400Y848677D01*
X1045486Y847144D01*
X1047789Y845960D01*
X1050249Y845154D01*
X1052805Y844745D01*
X1055395D01*
X1057951Y845154D01*
X1060411Y845960D01*
X1062714Y847144D01*
X1064800Y848677D01*
X1066619Y850519D01*
X1041219Y871601D02*
X1040556Y872342D01*
X1038683Y874874D01*
X1040556Y872342D02*
X1038694Y874864D01*
X1016000Y850737D02*
X1017806Y848847D01*
X1019890Y847268D01*
X1022199Y846041D01*
X1024674Y845197D01*
X1027251Y844758D01*
X1029866Y844736D01*
X1032451Y845130D01*
X1034940Y845930D01*
X1037270Y847117D01*
X1039381Y848660D01*
X1041219Y850519D01*
X990600Y850737D02*
X992425Y848829D01*
X994533Y847240D01*
X996870Y846010D01*
X999374Y845172D01*
X1001980Y844747D01*
X1004620D01*
X1007226Y845172D01*
X1009730Y846010D01*
X1012066Y847240D01*
X1014175Y848829D01*
X1016000Y850737D01*
X984760Y846201D02*
X986930Y847410D01*
X988891Y848934D01*
X990600Y850737D01*
X965200D02*
X966909Y848934D01*
X968870Y847410D01*
X971040Y846201D01*
X959360D02*
X961530Y847410D01*
X963491Y848934D01*
X965200Y850737D01*
X992974Y843114D02*
X990790Y844789D01*
X988248Y845842D01*
X985520Y846201D01*
X992984Y843103D02*
X990799Y844784D01*
X988253Y845841D01*
X985520Y846201D01*
X918066Y847413D02*
X920240Y846201D01*
X952355Y813689D02*
X951591Y812537D01*
X951463Y813689D01*
X792922Y875304D02*
X792324Y873386D01*
X792922Y875304D02*
X792324Y873386D01*
X780884Y857084D02*
X779505Y858245D01*
X777821Y860112D01*
X775742Y861528D01*
X773387Y862411D01*
X770890Y862711D01*
X706703Y841094D02*
X708105Y842470D01*
X707415Y840382D01*
X735563Y834771D02*
X735726Y836930D01*
X465503Y892536D02*
X462918Y892680D01*
X460333Y892537D01*
X457780Y892108D01*
X455289Y891400D01*
X452893Y890421D01*
X450619Y889183D01*
X448497Y887700D01*
X446551Y885992D01*
X444806Y884079D01*
X443284Y881985D01*
X442003Y879736D01*
X440978Y877358D01*
X440223Y874882D01*
X439747Y872337D01*
X683260Y843117D02*
X685419Y840921D01*
X681101D02*
X683260Y843117D01*
X656987Y862584D02*
X655685Y860265D01*
X654776Y857767D01*
X654284Y855154D01*
X654221Y852495D01*
X654590Y849862D01*
X655380Y847323D01*
X656571Y844946D01*
X658131Y842793D01*
X660019Y840921D01*
X685419Y836930D02*
X685779Y834197D01*
X686836Y831651D01*
X688517Y829465D01*
X685419Y836930D02*
X685778Y834202D01*
X686831Y831659D01*
X688506Y829476D01*
X594077Y858803D02*
X592301Y856488D01*
X591185Y853793D01*
X590804Y850900D01*
X594077Y858803D02*
X592301Y856488D01*
X591185Y853793D01*
X590804Y850900D01*
X575166Y833120D02*
X574976Y835608D01*
X574410Y838038D01*
X573480Y840354D01*
X572210Y842502D01*
X570628Y844431D01*
X568771Y846098D01*
X566683Y847463D01*
X564411Y848494D01*
X562008Y849168D01*
X559531Y849470D01*
X557037Y849391D01*
X554584Y848934D01*
X552229Y848109D01*
X550027Y846936D01*
X548029Y845442D01*
X546281Y843661D01*
X660019Y828040D02*
X660379Y825307D01*
X661436Y822761D01*
X663117Y820575D01*
X660019Y828040D02*
X660378Y825312D01*
X661431Y822769D01*
X663106Y820586D01*
X609883Y820137D02*
X611659Y822452D01*
X612775Y825147D01*
X613156Y828040D01*
X609883Y820137D02*
X611659Y822452D01*
X612775Y825147D01*
X613156Y828040D01*
X569123Y820420D02*
X570883Y822082D01*
X572379Y823985D01*
X573578Y826088D01*
X574454Y828344D01*
X574987Y830706D01*
X575166Y833120D01*
X570756Y818896D02*
X569123Y820420D01*
X463703Y875357D02*
X465408Y875304D01*
X463703Y875357D02*
X461412Y875219D01*
X459334Y874245D01*
X457765Y872570D01*
X456926Y870434D01*
X439747Y872337D02*
X439694Y870633D01*
X538480Y843661D02*
X536176Y843434D01*
X533960Y842762D01*
X531918Y841671D01*
X530128Y840202D01*
X538480Y843661D02*
X536176Y843434D01*
X533960Y842762D01*
X531918Y841671D01*
X530128Y840202D01*
X518021Y825339D02*
X517028Y827717D01*
X515849Y830009D01*
X514492Y832199D01*
X512965Y834275D01*
X511277Y836223D01*
X509440Y838030D01*
X507464Y839685D01*
X505364Y841178D01*
X503151Y842499D01*
X500840Y843640D01*
X498445Y844593D01*
X495983Y845353D01*
X493467Y845914D01*
X490915Y846274D01*
X488343Y846429D01*
X485766Y846379D01*
X483202Y846125D01*
X480666Y845667D01*
X478174Y845008D01*
X475742Y844154D01*
X473387Y843109D01*
X471122Y841880D01*
X468962Y840474D01*
X466920Y838901D01*
X465010Y837171D01*
X463244Y835294D01*
X461633Y833282D01*
X460187Y831149D01*
X458915Y828908D01*
X457826Y826572D01*
X456926Y824157D01*
X521238Y831312D02*
X519784Y829543D01*
X518698Y827527D01*
X518021Y825339D01*
X521238Y831312D02*
X519784Y829543D01*
X518698Y827527D01*
X518021Y825339D01*
X937877Y797177D02*
X939950Y797418D01*
X941966Y797957D01*
X941959Y797379D02*
X939800Y795183D01*
X937877Y797177D01*
X924325Y800989D02*
X922046Y800426D01*
X919870Y799542D01*
X917844Y798357D01*
X916008Y796894D01*
X914400Y795183D01*
X1066800Y774537D02*
X1067689Y773531D01*
X1065911D02*
X1066800Y774537D01*
X1062813Y764696D02*
X1064494Y766881D01*
X1065551Y769427D01*
X1065911Y772160D01*
X1062824Y764706D02*
X1064499Y766889D01*
X1065552Y769432D01*
X1065911Y772160D01*
X894038Y813689D02*
X892473Y811547D01*
X891493Y809082D01*
X891159Y806450D01*
X894038Y813689D02*
X892473Y811547D01*
X891493Y809082D01*
X891159Y806450D01*
X890651Y800100D02*
X890291Y802833D01*
X889234Y805379D01*
X887553Y807564D01*
X890651Y800100D02*
X890292Y802828D01*
X889239Y805370D01*
X887564Y807554D01*
X914400Y795183D02*
X912241Y797379D01*
X870548Y770263D02*
X872667Y767235D01*
X870548Y770263D02*
X872656Y767246D01*
X1055499Y757916D02*
X1057744Y759626D01*
X1055499Y757916D02*
X1057755Y759637D01*
X880276Y759626D02*
X882521Y757916D01*
X880266Y759637D02*
X882521Y757916D01*
X848479Y787986D02*
X847465Y785693D01*
X846865Y783258D01*
X846697Y780757D01*
X846967Y778264D01*
X847666Y775856D01*
X848773Y773606D01*
X850254Y771583D01*
X852065Y769849D01*
X854149Y768455D01*
X856444Y767446D01*
X858880Y766850D01*
X861382Y766688D01*
X863874Y766962D01*
X866281Y767666D01*
X868528Y768778D01*
X870548Y770263D01*
X735726Y760730D02*
X735452Y763524D01*
X735603Y758854D02*
X735726Y760730D01*
X605790Y812546D02*
X603543Y812318D01*
X601388Y811642D01*
X605790Y812546D02*
X603543Y812318D01*
X601388Y811642D01*
X548026Y820039D02*
X546204Y818169D01*
X544703Y816034D01*
X543561Y813687D01*
X542806Y811188D01*
X542458Y808601D01*
X542525Y805992D01*
X543007Y803427D01*
X543891Y800971D01*
X545153Y798686D01*
X581660Y796544D02*
X583907Y796772D01*
X586062Y797448D01*
X581660Y796544D02*
X583907Y796772D01*
X586062Y797448D01*
X456926Y803983D02*
X457818Y801588D01*
X458895Y799271D01*
X460153Y797047D01*
X461581Y794928D01*
X463173Y792929D01*
X464917Y791061D01*
X466803Y789337D01*
X468820Y787767D01*
X470953Y786361D01*
X473191Y785128D01*
X475520Y784075D01*
X477924Y783209D01*
X480389Y782536D01*
X482900Y782059D01*
X485440Y781782D01*
X487994Y781705D01*
X490546Y781831D01*
X493081Y782158D01*
X495582Y782683D01*
X498033Y783404D01*
X500420Y784317D01*
X502728Y785415D01*
X504941Y786691D01*
X507047Y788138D01*
X509033Y789747D01*
X510885Y791507D01*
X512593Y793408D01*
X514145Y795438D01*
X515533Y797584D01*
X516746Y799833D01*
X517779Y802170D01*
X629920Y772541D02*
X627616Y772314D01*
X625400Y771642D01*
X623358Y770551D01*
X621568Y769082D01*
X629920Y772541D02*
X627616Y772314D01*
X625400Y771642D01*
X623358Y770551D01*
X621568Y769082D01*
X585470Y769874D02*
X588363Y770255D01*
X591058Y771371D01*
X593373Y773147D01*
X585470Y769874D02*
X588363Y770255D01*
X591058Y771371D01*
X593373Y773147D01*
X517779Y763270D02*
X518006Y760966D01*
X518678Y758750D01*
X519770Y756708D01*
X521238Y754918D01*
X517779Y763270D02*
X518006Y760966D01*
X518678Y758750D01*
X519770Y756708D01*
X521238Y754918D01*
X456874Y755803D02*
X457010Y753512D01*
X457985Y751435D01*
X459660Y749865D01*
X461796Y749026D01*
X456874Y755803D02*
X456946Y756920D01*
X439694Y757603D02*
X439550Y755018D01*
X439693Y752433D01*
X440122Y749880D01*
X440830Y747389D01*
X441809Y744993D01*
X443047Y742719D01*
X444530Y740596D01*
X446238Y738651D01*
X448151Y736906D01*
X450245Y735384D01*
X452494Y734103D01*
X454872Y733078D01*
X457348Y732323D01*
X459893Y731846D01*
X459893D02*
X461598Y731794D01*
X1631696Y889475D02*
Y914400D01*
X1629664Y890535D02*
Y914400D01*
X1627632Y891358D02*
Y914400D01*
X1625600Y891970D02*
Y914400D01*
X1637792Y884323D02*
Y914400D01*
X1635760Y886458D02*
Y914400D01*
X1633728Y888137D02*
Y914400D01*
X1621536Y892552D02*
Y914400D01*
X1619504Y892536D02*
Y914400D01*
X1617472Y892536D02*
Y914400D01*
X1623568Y892388D02*
Y914400D01*
X1615440Y892536D02*
Y914400D01*
X1613408Y892536D02*
Y914400D01*
X1625281Y892048D02*
X1673860D01*
X1630719Y890016D02*
X1673860D01*
X1633934Y887984D02*
X1673860D01*
X1636290Y885952D02*
X1673860D01*
X1638123Y883920D02*
X1673860D01*
X1639578Y881888D02*
X1673860D01*
X1611376Y892536D02*
Y914400D01*
X1609344Y892536D02*
Y914400D01*
X1607312Y892536D02*
Y914400D01*
X1605280Y892536D02*
Y914400D01*
X1603248Y892536D02*
Y914400D01*
X1601216Y892536D02*
Y914400D01*
X1599184Y892536D02*
Y914400D01*
X1597152Y892536D02*
Y914400D01*
X1595120Y892536D02*
Y914400D01*
X1593088Y892536D02*
Y914400D01*
X1591056Y892536D02*
Y914400D01*
X1589024Y892536D02*
Y914400D01*
X1586992Y892536D02*
Y914400D01*
X1584960Y892536D02*
Y914400D01*
X1582928Y892536D02*
Y914400D01*
X1580896Y892536D02*
Y914400D01*
X1578864Y892536D02*
Y914400D01*
X1576832Y892536D02*
Y914400D01*
X1574800Y892536D02*
Y914400D01*
X1572768Y892536D02*
Y914400D01*
X1570736Y892536D02*
Y914400D01*
X1568704Y892536D02*
Y914400D01*
X1566672Y892536D02*
Y914400D01*
X1564640Y892536D02*
Y914400D01*
X1562608Y892536D02*
Y914400D01*
X1560576Y892536D02*
Y914400D01*
X1558544Y892536D02*
Y914400D01*
X1556512Y892536D02*
Y914400D01*
X1554480Y892536D02*
Y914400D01*
X1552448Y892536D02*
Y914400D01*
X1640737Y879856D02*
X1673860D01*
X1641645Y877824D02*
X1673860D01*
X1641856Y877264D02*
Y914400D01*
X1639824Y881495D02*
Y914400D01*
X1642334Y875792D02*
X1673860D01*
X1609344Y837614D02*
Y875304D01*
X1607312Y840006D02*
Y875304D01*
X1605280Y841993D02*
Y875304D01*
X1615440Y824165D02*
Y875304D01*
X1613408Y830702D02*
Y875304D01*
X1611376Y834644D02*
Y875304D01*
X1642823Y873760D02*
X1673860D01*
X1643125Y871728D02*
X1673860D01*
X1643247Y869696D02*
X1673860D01*
X1643191Y867664D02*
X1673860D01*
X1643106Y862330D02*
Y866727D01*
Y865632D02*
X1673860D01*
X1603248Y843668D02*
Y875304D01*
X1625874Y862330D02*
Y866822D01*
X1601216Y845090D02*
Y875304D01*
X1593088Y848851D02*
Y875304D01*
X1591056Y849397D02*
Y875304D01*
X1589024Y849803D02*
Y875304D01*
X1599184Y846296D02*
Y875304D01*
X1597152Y847314D02*
Y875304D01*
X1595120Y848161D02*
Y875304D01*
X1586992Y850077D02*
Y875304D01*
X1584960Y850221D02*
Y875304D01*
X1582928Y850237D02*
Y875304D01*
X1580896Y850125D02*
Y875304D01*
X1578864Y849884D02*
Y875304D01*
X1576832Y849511D02*
Y875304D01*
X1574800Y849001D02*
Y875304D01*
X1572768Y848347D02*
Y875304D01*
X1570736Y847541D02*
Y875304D01*
X1568704Y846568D02*
Y875304D01*
X1566672Y845411D02*
Y875304D01*
X1564640Y844046D02*
Y875304D01*
X1562608Y842438D02*
Y875304D01*
X1560576Y840536D02*
Y875304D01*
X1558544Y838257D02*
Y875304D01*
X1556512Y835456D02*
Y875304D01*
X1554480Y831820D02*
Y875304D01*
X1552448Y826336D02*
Y875304D01*
X1550416Y892536D02*
Y914400D01*
X1548384Y892536D02*
Y914400D01*
X1546352Y892536D02*
Y914400D01*
X1544320Y892536D02*
Y914400D01*
X1542288Y892536D02*
Y914400D01*
X1540256Y892536D02*
Y914400D01*
X1538224Y892536D02*
Y914400D01*
X1536192Y892536D02*
Y914400D01*
X1534160Y892536D02*
Y914400D01*
X1532128Y892536D02*
Y914400D01*
X1530096Y892536D02*
Y914400D01*
X1528064Y892536D02*
Y914400D01*
X1526032Y892536D02*
Y914400D01*
X1524000Y892536D02*
Y914400D01*
X1521968Y892536D02*
Y914400D01*
X1519936Y892536D02*
Y914400D01*
X1517904Y892536D02*
Y914400D01*
X1515872Y892536D02*
Y914400D01*
X1513840Y892536D02*
Y914400D01*
X1511808Y892536D02*
Y914400D01*
X1509776Y892536D02*
Y914400D01*
X1507744Y892536D02*
Y914400D01*
X1505712Y892536D02*
Y914400D01*
X1503680Y892536D02*
Y914400D01*
X1501648Y892536D02*
Y914400D01*
X1499616Y892536D02*
Y914400D01*
X1497584Y892536D02*
Y914400D01*
X1495552Y892536D02*
Y914400D01*
X1493520Y892536D02*
Y914400D01*
X1491488Y892536D02*
Y914400D01*
X1489456Y892536D02*
Y914400D01*
X1487424Y892536D02*
Y914400D01*
X1485392Y892536D02*
Y914400D01*
X1483360Y892536D02*
Y914400D01*
X1481328Y892536D02*
Y914400D01*
X1479296Y892536D02*
Y914400D01*
X1477264Y892536D02*
Y914400D01*
X1475232Y892536D02*
Y914400D01*
X1473200Y892536D02*
Y914400D01*
X1471168Y892536D02*
Y914400D01*
X1469136Y892536D02*
Y914400D01*
X1467104Y892536D02*
Y914400D01*
X1465072Y892536D02*
Y914400D01*
X1463040Y892536D02*
Y914400D01*
X1461008Y892536D02*
Y914400D01*
X1458976Y892536D02*
Y914400D01*
X1456944Y892536D02*
Y914400D01*
X1454912Y892536D02*
Y914400D01*
X1452880Y892536D02*
Y914400D01*
X1450848Y892536D02*
Y914400D01*
X1544320Y823897D02*
Y875304D01*
X1542288Y825929D02*
Y875304D01*
X1540256Y829934D02*
Y875304D01*
X1538224Y836135D02*
Y875304D01*
X1550416Y817801D02*
Y875304D01*
X1548384Y819833D02*
Y875304D01*
X1546352Y821865D02*
Y875304D01*
X1495081D02*
X1621004D01*
X1530096Y843228D02*
Y875304D01*
X1528064Y843893D02*
Y875304D01*
X1536192Y838958D02*
Y875304D01*
X1534160Y840871D02*
Y875304D01*
X1532128Y842245D02*
Y875304D01*
X1519936Y850449D02*
Y875304D01*
X1517904Y852481D02*
Y875304D01*
X1515872Y854513D02*
Y875304D01*
X1526032Y844353D02*
Y875304D01*
X1524000Y846385D02*
Y875304D01*
X1521968Y848417D02*
Y875304D01*
X1498657Y871728D02*
X1625479D01*
X1500689Y869696D02*
X1625966D01*
X1496625Y873760D02*
X1624052D01*
X1502721Y867664D02*
X1625858D01*
X1504753Y865632D02*
X1625874D01*
X1495081Y875304D02*
X1526117Y844268D01*
X1507744Y862641D02*
Y875304D01*
X1505712Y864673D02*
Y875304D01*
X1503680Y866705D02*
Y875304D01*
X1513840Y856545D02*
Y875304D01*
X1511808Y858577D02*
Y875304D01*
X1509776Y860609D02*
Y875304D01*
X1448816Y892536D02*
Y914400D01*
X1446784Y892536D02*
Y914400D01*
X1444752Y892536D02*
Y914400D01*
X1442720Y892536D02*
Y914400D01*
X1440688Y892536D02*
Y914400D01*
X1438656Y892536D02*
Y914400D01*
X1501648Y868737D02*
Y875304D01*
X1499616Y870769D02*
Y875304D01*
X1497584Y872801D02*
Y875304D01*
X1473651Y865124D02*
X1507884Y830891D01*
X1473200Y828421D02*
Y865124D01*
X1471168Y828421D02*
Y865124D01*
X1228986D02*
X1473651D01*
X1469136Y828421D02*
Y865124D01*
X1467104Y828421D02*
Y865124D01*
X1465072Y828421D02*
Y865124D01*
X1463040Y828421D02*
Y865124D01*
X1461008Y828421D02*
Y865124D01*
X1643106Y863600D02*
X1673860D01*
X1643106Y861568D02*
X1673860D01*
X1643106Y859536D02*
X1673860D01*
X1643106Y857504D02*
X1673860D01*
X1643106Y855472D02*
X1673860D01*
X1643106Y853440D02*
X1673860D01*
X1643106Y851408D02*
X1673860D01*
X1508817Y861568D02*
X1625874D01*
X1510849Y859536D02*
X1625874D01*
X1512881Y857504D02*
X1625874D01*
X1514913Y855472D02*
X1625874D01*
X1516945Y853440D02*
X1625874D01*
X1518977Y851408D02*
X1625874D01*
X1643106Y849376D02*
X1673860D01*
X1643106Y847344D02*
X1673860D01*
X1643106Y845312D02*
X1673860D01*
X1643106Y843280D02*
X1673860D01*
X1643106Y841248D02*
X1673860D01*
X1643106Y839216D02*
X1673860D01*
X1643106Y837184D02*
X1673860D01*
X1643106Y835152D02*
X1673860D01*
X1643106Y833120D02*
X1673860D01*
X1643106Y831088D02*
X1673860D01*
X1643106Y829056D02*
X1673860D01*
X1643106Y827024D02*
X1673860D01*
X1591144Y849376D02*
X1625874D01*
X1597085Y847344D02*
X1625874D01*
X1600867Y845312D02*
X1625874D01*
X1603750Y843280D02*
X1625874D01*
X1606084Y841248D02*
X1625874D01*
X1608028Y839216D02*
X1625874D01*
X1535956D02*
X1559352D01*
X1521009Y849376D02*
X1576236D01*
X1523041Y847344D02*
X1570295D01*
X1525073Y845312D02*
X1566513D01*
X1529966Y843280D02*
X1563630D01*
X1533664Y841248D02*
X1561296D01*
X1609669Y837184D02*
X1625874D01*
X1611062Y835152D02*
X1625874D01*
X1612243Y833120D02*
X1625874D01*
X1613238Y831088D02*
X1625874D01*
X1614065Y829056D02*
X1625874D01*
X1614738Y827024D02*
X1625874D01*
X1537573Y837184D02*
X1557711D01*
X1538740Y835152D02*
X1556318D01*
X1539558Y833120D02*
X1555137D01*
X1540080Y831088D02*
X1554142D01*
X1540334Y829056D02*
X1553315D01*
X1541193Y827024D02*
X1552643D01*
X1643106Y824992D02*
X1673860D01*
X1643106Y822960D02*
X1673860D01*
X1643106Y820928D02*
X1673860D01*
X1643106Y818896D02*
X1673860D01*
X1643106Y816864D02*
X1673860D01*
X1643106Y814832D02*
X1673860D01*
X1643106Y812800D02*
X1673860D01*
X1615265Y824992D02*
X1625874D01*
X1615655Y822960D02*
X1625874D01*
X1615912Y820928D02*
X1625874D01*
X1616040Y818896D02*
X1625874D01*
X1616040Y816864D02*
X1625874D01*
X1615912Y814832D02*
X1625874D01*
X1643106Y810768D02*
X1673860D01*
X1643106Y808736D02*
X1673860D01*
X1643106Y806704D02*
X1673860D01*
X1643106Y804672D02*
X1673860D01*
X1643106Y802640D02*
X1673860D01*
X1643106Y800608D02*
X1673860D01*
X1643106Y798576D02*
X1673860D01*
X1643106Y796544D02*
X1673860D01*
X1643106Y794512D02*
X1673860D01*
X1643106Y792480D02*
X1673860D01*
X1643106Y790448D02*
X1673860D01*
X1643106Y788416D02*
X1673860D01*
X1615655Y812800D02*
X1625874D01*
X1615265Y810768D02*
X1625874D01*
X1614738Y808736D02*
X1625874D01*
X1614065Y806704D02*
X1625874D01*
X1613238Y804672D02*
X1625874D01*
X1612243Y802640D02*
X1625874D01*
X1543225Y824992D02*
X1552115D01*
X1545257Y822960D02*
X1551725D01*
X1547289Y820928D02*
X1551468D01*
X1549321Y818896D02*
X1551340D01*
X1540365Y827852D02*
X1551340Y816878D01*
X1611062Y800608D02*
X1625874D01*
X1609669Y798576D02*
X1625874D01*
X1608028Y796544D02*
X1625874D01*
X1606084Y794512D02*
X1625874D01*
X1603750Y792480D02*
X1625874D01*
X1600867Y790448D02*
X1625874D01*
X1558671Y794512D02*
X1561296D01*
X1558671Y792480D02*
X1563630D01*
X1509776Y793606D02*
Y794545D01*
X1597085Y788416D02*
X1625874D01*
X1558671D02*
X1570295D01*
X1558671Y790448D02*
X1566513D01*
X1506785Y863600D02*
X1625874D01*
X1499616Y828421D02*
Y839159D01*
X1495552Y828421D02*
Y843223D01*
X1497584Y828421D02*
Y841191D01*
X1491488Y828421D02*
Y847287D01*
X1493520Y828421D02*
Y845255D01*
X1489456Y828421D02*
Y849319D01*
X1228986Y847344D02*
X1491431D01*
X1228986Y845312D02*
X1493463D01*
X1228986Y849376D02*
X1489399D01*
X1228986Y841248D02*
X1497527D01*
X1228986Y839216D02*
X1499559D01*
X1228986Y843280D02*
X1495495D01*
X1507744Y829934D02*
Y831031D01*
X1228986Y837184D02*
X1501591D01*
X1503680Y828421D02*
Y835095D01*
X1505712Y828421D02*
Y833063D01*
X1501648Y828421D02*
Y837127D01*
X1228986Y833120D02*
X1505655D01*
X1228986Y831088D02*
X1507687D01*
X1228986Y835152D02*
X1503623D01*
X1182751Y829056D02*
X1507666D01*
X1182751Y828421D02*
X1507638D01*
X1175923Y807339D02*
X1504394D01*
X1458976Y828421D02*
Y865124D01*
X1475232Y828421D02*
Y863543D01*
X1456944Y828421D02*
Y865124D01*
X1454912Y828421D02*
Y865124D01*
X1452880Y828421D02*
Y865124D01*
X1450848Y828421D02*
Y865124D01*
X1448816Y828421D02*
Y865124D01*
X1446784Y828421D02*
Y865124D01*
X1228986Y863600D02*
X1475175D01*
X1444752Y828421D02*
Y865124D01*
X1442720Y828421D02*
Y865124D01*
X1440688Y828421D02*
Y865124D01*
X1438656Y828421D02*
Y865124D01*
X1485392Y828421D02*
Y853383D01*
X1487424Y828421D02*
Y851351D01*
X1483360Y828421D02*
Y855415D01*
X1479296Y828421D02*
Y859479D01*
X1481328Y828421D02*
Y857447D01*
X1477264Y828421D02*
Y861511D01*
X1228986Y859536D02*
X1479239D01*
X1228986Y857504D02*
X1481271D01*
X1228986Y861568D02*
X1477207D01*
X1228986Y853440D02*
X1485335D01*
X1228986Y851408D02*
X1487367D01*
X1228986Y855472D02*
X1483303D01*
X1504394Y807339D02*
X1507694Y804039D01*
X1505712Y787781D02*
Y806021D01*
X1503680Y787781D02*
Y807339D01*
X1501648Y787781D02*
Y807339D01*
X1499616Y787781D02*
Y807339D01*
X1497584Y787781D02*
Y807339D01*
X1495552Y787781D02*
Y807339D01*
X1172210Y806704D02*
X1505029D01*
X1101265Y804672D02*
X1507061D01*
X1493520Y787781D02*
Y807339D01*
X1491488Y787781D02*
Y807339D01*
X1489456Y787781D02*
Y807339D01*
X1487424Y787781D02*
Y807339D01*
X1507634Y793606D02*
X1510353D01*
X1507744D02*
Y800746D01*
X1115489Y790448D02*
X1507634D01*
X1117521Y788416D02*
X1507634D01*
Y787781D02*
Y793606D01*
X1103297Y802640D02*
X1507634D01*
X1105329Y800608D02*
X1507761D01*
X1107361Y798576D02*
X1508147D01*
X1109393Y796544D02*
X1508812D01*
X1111425Y794512D02*
X1509795D01*
X1113457Y792480D02*
X1507634D01*
X1485392Y787781D02*
Y807339D01*
X1483360Y787781D02*
Y807339D01*
X1481328Y787781D02*
Y807339D01*
X1479296Y787781D02*
Y807339D01*
X1477264Y787781D02*
Y807339D01*
X1475232Y787781D02*
Y807339D01*
X1473200Y787781D02*
Y807339D01*
X1471168Y787781D02*
Y807339D01*
X1469136Y787781D02*
Y807339D01*
X1467104Y787781D02*
Y807339D01*
X1465072Y787781D02*
Y807339D01*
X1463040Y787781D02*
Y807339D01*
X1461008Y787781D02*
Y807339D01*
X1458976Y787781D02*
Y807339D01*
X1456944Y787781D02*
Y807339D01*
X1454912Y787781D02*
Y807339D01*
X1452880Y787781D02*
Y807339D01*
X1450848Y787781D02*
Y807339D01*
X1448816Y787781D02*
Y807339D01*
X1446784Y787781D02*
Y807339D01*
X1444752Y787781D02*
Y807339D01*
X1442720Y787781D02*
Y807339D01*
X1440688Y787781D02*
Y807339D01*
X1438656Y787781D02*
Y807339D01*
X1436624Y892536D02*
Y914400D01*
X1434592Y892536D02*
Y914400D01*
X1432560Y892536D02*
Y914400D01*
X1430528Y892536D02*
Y914400D01*
X1428496Y892536D02*
Y914400D01*
X1426464Y892536D02*
Y914400D01*
X1424432Y892536D02*
Y914400D01*
X1422400Y892536D02*
Y914400D01*
X1420368Y892536D02*
Y914400D01*
X1418336Y892536D02*
Y914400D01*
X1416304Y892536D02*
Y914400D01*
X1414272Y892536D02*
Y914400D01*
X1412240Y892536D02*
Y914400D01*
X1410208Y892536D02*
Y914400D01*
X1408176Y892536D02*
Y914400D01*
X1406144Y892536D02*
Y914400D01*
X1404112Y892536D02*
Y914400D01*
X1402080Y892536D02*
Y914400D01*
X1400048Y892536D02*
Y914400D01*
X1398016Y892536D02*
Y914400D01*
X1395984Y892536D02*
Y914400D01*
X1393952Y892536D02*
Y914400D01*
X1391920Y892536D02*
Y914400D01*
X1389888Y892536D02*
Y914400D01*
X1387856Y892536D02*
Y914400D01*
X1385824Y892536D02*
Y914400D01*
X1383792Y892536D02*
Y914400D01*
X1381760Y892536D02*
Y914400D01*
X1379728Y892536D02*
Y914400D01*
X1377696Y892536D02*
Y914400D01*
X1375664Y892536D02*
Y914400D01*
X1373632Y892536D02*
Y914400D01*
X1371600Y892536D02*
Y914400D01*
X1369568Y892536D02*
Y914400D01*
X1367536Y892536D02*
Y914400D01*
X1365504Y892536D02*
Y914400D01*
X1363472Y892536D02*
Y914400D01*
X1361440Y892536D02*
Y914400D01*
X1359408Y892536D02*
Y914400D01*
X1357376Y892536D02*
Y914400D01*
X1355344Y892536D02*
Y914400D01*
X1353312Y892536D02*
Y914400D01*
X1351280Y892536D02*
Y914400D01*
X1349248Y892536D02*
Y914400D01*
X1347216Y892536D02*
Y914400D01*
X1345184Y892536D02*
Y914400D01*
X1343152Y892536D02*
Y914400D01*
X1341120Y892536D02*
Y914400D01*
X1339088Y892536D02*
Y914400D01*
X1337056Y892536D02*
Y914400D01*
X1436624Y828421D02*
Y865124D01*
X1434592Y828421D02*
Y865124D01*
X1335024Y892536D02*
Y914400D01*
X1432560Y828421D02*
Y865124D01*
X1430528Y828421D02*
Y865124D01*
X1428496Y828421D02*
Y865124D01*
X1426464Y828421D02*
Y865124D01*
X1332992Y892536D02*
Y914400D01*
X1330960Y892536D02*
Y914400D01*
X1328928Y892536D02*
Y914400D01*
X1326896Y892536D02*
Y914400D01*
X1324864Y892536D02*
Y914400D01*
X1322832Y892536D02*
Y914400D01*
X1424432Y828421D02*
Y865124D01*
X1422400Y828421D02*
Y865124D01*
X1420368Y828421D02*
Y865124D01*
X1418336Y828421D02*
Y865124D01*
X1416304Y828421D02*
Y865124D01*
X1414272Y828421D02*
Y865124D01*
X1412240Y828421D02*
Y865124D01*
X1410208Y828421D02*
Y865124D01*
X1408176Y828421D02*
Y865124D01*
X1406144Y828421D02*
Y865124D01*
X1404112Y828421D02*
Y865124D01*
X1402080Y828421D02*
Y865124D01*
X1320800Y892536D02*
Y914400D01*
X1318768Y892536D02*
Y914400D01*
X1316736Y892536D02*
Y914400D01*
X1314704Y892536D02*
Y914400D01*
X1312672Y892536D02*
Y914400D01*
X1310640Y892536D02*
Y914400D01*
X1308608Y892536D02*
Y914400D01*
X1306576Y892536D02*
Y914400D01*
X1304544Y892536D02*
Y914400D01*
X1302512Y892536D02*
Y914400D01*
X1300480Y892536D02*
Y914400D01*
X1298448Y892536D02*
Y914400D01*
X1296416Y892536D02*
Y914400D01*
X1294384Y892536D02*
Y914400D01*
X1292352Y892536D02*
Y914400D01*
X1290320Y892536D02*
Y914400D01*
X1288288Y892536D02*
Y914400D01*
X1286256Y892536D02*
Y914400D01*
X1284224Y892536D02*
Y914400D01*
X1282192Y892536D02*
Y914400D01*
X1280160Y892536D02*
Y914400D01*
X1278128Y892536D02*
Y914400D01*
X1276096Y892536D02*
Y914400D01*
X1274064Y892536D02*
Y914400D01*
X1272032Y892536D02*
Y914400D01*
X1270000Y892536D02*
Y914400D01*
X1267968Y892536D02*
Y914400D01*
X1265936Y892536D02*
Y914400D01*
X1263904Y892536D02*
Y914400D01*
X1261872Y892536D02*
Y914400D01*
X1259840Y892536D02*
Y914400D01*
X1257808Y892536D02*
Y914400D01*
X1255776Y892536D02*
Y914400D01*
X1253744Y892536D02*
Y914400D01*
X1251712Y892536D02*
Y914400D01*
X1249680Y892536D02*
Y914400D01*
X1247648Y892536D02*
Y914400D01*
X1245616Y892536D02*
Y914400D01*
X1243584Y892536D02*
Y914400D01*
X1241552Y892536D02*
Y914400D01*
X1239520Y892536D02*
Y914400D01*
X1237488Y892536D02*
Y914400D01*
X1235456Y892536D02*
Y914400D01*
X1233424Y892536D02*
Y914400D01*
X1231392Y892536D02*
Y914400D01*
X1229360Y892536D02*
Y914400D01*
X1227328Y892536D02*
Y914400D01*
X1225296Y892536D02*
Y914400D01*
X1223264Y892536D02*
Y914400D01*
X1221232Y892536D02*
Y914400D01*
X1219200Y892536D02*
Y914400D01*
X1217168Y892536D02*
Y914400D01*
X1215136Y892536D02*
Y914400D01*
X1213104Y892536D02*
Y914400D01*
X1211072Y892536D02*
Y914400D01*
X1209040Y892536D02*
Y914400D01*
X1207008Y892536D02*
Y914400D01*
X1204976Y892536D02*
Y914400D01*
X1202944Y892536D02*
Y914400D01*
X1200912Y892536D02*
Y914400D01*
X1198880Y892536D02*
Y914400D01*
X1196848Y892536D02*
Y914400D01*
X1194816Y892536D02*
Y914400D01*
X1192784Y892536D02*
Y914400D01*
X1190752Y892536D02*
Y914400D01*
X1188720Y892536D02*
Y914400D01*
X1186688Y892536D02*
Y914400D01*
X1184656Y892536D02*
Y914400D01*
X1182624Y892536D02*
Y914400D01*
X1180592Y892536D02*
Y914400D01*
X1178560Y892536D02*
Y914400D01*
X1176528Y892536D02*
Y914400D01*
X1174496Y892536D02*
Y914400D01*
X1172464Y892536D02*
Y914400D01*
X1170432Y892536D02*
Y914400D01*
X1168400Y892536D02*
Y914400D01*
X1166368Y892536D02*
Y914400D01*
X1164336Y892536D02*
Y914400D01*
X1162304Y892536D02*
Y914400D01*
X1160272Y892536D02*
Y914400D01*
X1158240Y892536D02*
Y914400D01*
X1156208Y892536D02*
Y914400D01*
X1154176Y892536D02*
Y914400D01*
X1152144Y892536D02*
Y914400D01*
X1150112Y892536D02*
Y914400D01*
X1148080Y892536D02*
Y914400D01*
X1146048Y892536D02*
Y914400D01*
X1144016Y892536D02*
Y914400D01*
X1141984Y892536D02*
Y914400D01*
X1139952Y892536D02*
Y914400D01*
X1137920Y892536D02*
Y914400D01*
X1135888Y892536D02*
Y914400D01*
X1133856Y892536D02*
Y914400D01*
X1131824Y892536D02*
Y914400D01*
X1129792Y892536D02*
Y914400D01*
X1127760Y892536D02*
Y914400D01*
X1125728Y892536D02*
Y914400D01*
X1123696Y892536D02*
Y914400D01*
X1121664Y892536D02*
Y914400D01*
X1119632Y892536D02*
Y914400D01*
X1117600Y892536D02*
Y914400D01*
X1115568Y892536D02*
Y914400D01*
X1113536Y892536D02*
Y914400D01*
X1111504Y892536D02*
Y914400D01*
X1109472Y892536D02*
Y914400D01*
X1107440Y892536D02*
Y914400D01*
X1105408Y892536D02*
Y914400D01*
X1103376Y892536D02*
Y914400D01*
X1101344Y892536D02*
Y914400D01*
X1099312Y892536D02*
Y914400D01*
X1097280Y892536D02*
Y914400D01*
X1095248Y892536D02*
Y914400D01*
X1093216Y892536D02*
Y914400D01*
X1091184Y892536D02*
Y914400D01*
X1089152Y892536D02*
Y914400D01*
X1087120Y892536D02*
Y914400D01*
X1085088Y892536D02*
Y914400D01*
X1083056Y892536D02*
Y914400D01*
X1081024Y892536D02*
Y914400D01*
X1078992Y892536D02*
Y914400D01*
X1076960Y892536D02*
Y914400D01*
X1074928Y892536D02*
Y914400D01*
X1072896Y892536D02*
Y914400D01*
X1400048Y828421D02*
Y865124D01*
X1398016Y828421D02*
Y865124D01*
X1395984Y828421D02*
Y865124D01*
X1393952Y828421D02*
Y865124D01*
X1391920Y828421D02*
Y865124D01*
X1389888Y828421D02*
Y865124D01*
X1387856Y828421D02*
Y865124D01*
X1385824Y828421D02*
Y865124D01*
X1383792Y828421D02*
Y865124D01*
X1381760Y828421D02*
Y865124D01*
X1379728Y828421D02*
Y865124D01*
X1377696Y828421D02*
Y865124D01*
X1375664Y828421D02*
Y865124D01*
X1373632Y828421D02*
Y865124D01*
X1371600Y828421D02*
Y865124D01*
X1369568Y828421D02*
Y865124D01*
X1367536Y828421D02*
Y865124D01*
X1365504Y828421D02*
Y865124D01*
X1363472Y828421D02*
Y865124D01*
X1361440Y828421D02*
Y865124D01*
X1359408Y828421D02*
Y865124D01*
X1357376Y828421D02*
Y865124D01*
X1355344Y828421D02*
Y865124D01*
X1353312Y828421D02*
Y865124D01*
X1351280Y828421D02*
Y865124D01*
X1349248Y828421D02*
Y865124D01*
X1347216Y828421D02*
Y865124D01*
X1345184Y828421D02*
Y865124D01*
X1343152Y828421D02*
Y865124D01*
X1341120Y828421D02*
Y865124D01*
X1339088Y828421D02*
Y865124D01*
X1337056Y828421D02*
Y865124D01*
X1335024Y828421D02*
Y865124D01*
X1332992Y828421D02*
Y865124D01*
X1330960Y828421D02*
Y865124D01*
X1328928Y828421D02*
Y865124D01*
X1326896Y828421D02*
Y865124D01*
X1324864Y828421D02*
Y865124D01*
X1322832Y828421D02*
Y865124D01*
X1320800Y828421D02*
Y865124D01*
X1318768Y828421D02*
Y865124D01*
X1316736Y828421D02*
Y865124D01*
X1314704Y828421D02*
Y865124D01*
X1312672Y828421D02*
Y865124D01*
X1228986Y857146D02*
Y865124D01*
Y848414D02*
Y857146D01*
Y848414D02*
Y857146D01*
X1310640Y828421D02*
Y865124D01*
X1308608Y828421D02*
Y865124D01*
X1228986Y829414D02*
Y848414D01*
X1306576Y828421D02*
Y865124D01*
X1304544Y828421D02*
Y865124D01*
X1302512Y828421D02*
Y865124D01*
X1300480Y828421D02*
Y865124D01*
X1298448Y828421D02*
Y865124D01*
X1296416Y828421D02*
Y865124D01*
X1294384Y828421D02*
Y865124D01*
X1292352Y828421D02*
Y865124D01*
X1290320Y828421D02*
Y865124D01*
X1288288Y828421D02*
Y865124D01*
X1286256Y828421D02*
Y865124D01*
X1284224Y828421D02*
Y865124D01*
X1282192Y828421D02*
Y865124D01*
X1280160Y828421D02*
Y865124D01*
X1436624Y787781D02*
Y807339D01*
X1278128Y828421D02*
Y865124D01*
X1434592Y787781D02*
Y807339D01*
X1432560Y787781D02*
Y807339D01*
X1430528Y787781D02*
Y807339D01*
X1276096Y828421D02*
Y865124D01*
X1274064Y828421D02*
Y865124D01*
X1272032Y828421D02*
Y865124D01*
X1270000Y828421D02*
Y865124D01*
X1267968Y828421D02*
Y865124D01*
X1265936Y828421D02*
Y865124D01*
X1263904Y828421D02*
Y865124D01*
X1261872Y828421D02*
Y865124D01*
X1259840Y828421D02*
Y865124D01*
X1257808Y828421D02*
Y865124D01*
X1255776Y828421D02*
Y865124D01*
X1253744Y828421D02*
Y865124D01*
X1251712Y828421D02*
Y865124D01*
X1249680Y828421D02*
Y865124D01*
X1247648Y828421D02*
Y865124D01*
X1245616Y828421D02*
Y865124D01*
X1243584Y828421D02*
Y865124D01*
X1241552Y828421D02*
Y865124D01*
X1239520Y828421D02*
Y865124D01*
X1237488Y828421D02*
Y865124D01*
X1235456Y828421D02*
Y865124D01*
X1233424Y828421D02*
Y865124D01*
X1231392Y828421D02*
Y865124D01*
X1229360Y828421D02*
Y865124D01*
X1227328Y828421D02*
Y829414D01*
X1225296Y828421D02*
Y829414D01*
X1223264Y828421D02*
Y829414D01*
X1221232Y828421D02*
Y829414D01*
X1219200Y828421D02*
Y829414D01*
X1217168Y828421D02*
Y829414D01*
X1208666D02*
X1228986D01*
X1215136Y828421D02*
Y829414D01*
X1213104Y828421D02*
Y829414D01*
X1211072Y828421D02*
Y829414D01*
X1209040Y828421D02*
Y829414D01*
X1207008Y828421D02*
Y829414D01*
X1204976Y828421D02*
Y829414D01*
X1099369Y865124D02*
X1167717D01*
X1166368Y863775D02*
Y865124D01*
X1097845Y863600D02*
X1166193D01*
X1199254Y829414D02*
X1208666D01*
X1199254D02*
X1208666D01*
X1164767Y862175D02*
X1167717Y865124D01*
X1202944Y828421D02*
Y829414D01*
X1200912Y828421D02*
Y829414D01*
X1198880Y828421D02*
Y829414D01*
X1196848Y828421D02*
Y829414D01*
X1194816Y828421D02*
Y829414D01*
X1192784Y828421D02*
Y829414D01*
X1182751D02*
X1199254D01*
X1190752Y828421D02*
Y829414D01*
X1188720Y828421D02*
Y829414D01*
X1186688Y828421D02*
Y829414D01*
X1184656Y828421D02*
Y829414D01*
X1182751Y828421D02*
Y829414D01*
X1164336Y861718D02*
Y865124D01*
X1162304Y858313D02*
Y865124D01*
X1160272Y828421D02*
Y865124D01*
X1158240Y828421D02*
Y865124D01*
X1156208Y828421D02*
Y865124D01*
X1154176Y828421D02*
Y865124D01*
X1152144Y828421D02*
Y865124D01*
X1150112Y828421D02*
Y865124D01*
X1148080Y828421D02*
Y865124D01*
X1146048Y828421D02*
Y865124D01*
X1144016Y828421D02*
Y865124D01*
X1141984Y828421D02*
Y865124D01*
X1139952Y828421D02*
Y865124D01*
X1095795Y859536D02*
X1162839D01*
X1095475Y857504D02*
X1162046D01*
X1095857Y861611D02*
X1099369Y865124D01*
X1161669Y828421D02*
Y854710D01*
X1094883Y855472D02*
X1161697D01*
X1093984Y853440D02*
X1161669D01*
X1092717Y851408D02*
X1161669D01*
X1090960Y849376D02*
X1161669D01*
X1088428Y847344D02*
X1161669D01*
X1083955Y845312D02*
X1161669D01*
X1137920Y828421D02*
Y865124D01*
X1135888Y828421D02*
Y865124D01*
X1133856Y828421D02*
Y865124D01*
X1131824Y828421D02*
Y865124D01*
X1129792Y828421D02*
Y865124D01*
X1127760Y828421D02*
Y865124D01*
X1125728Y828421D02*
Y865124D01*
X1123696Y828421D02*
Y865124D01*
X1121664Y828421D02*
Y865124D01*
X1119632Y828421D02*
Y865124D01*
X1117600Y828421D02*
Y865124D01*
X1115568Y828421D02*
Y865124D01*
X1113536Y828421D02*
Y865124D01*
X1170940Y806704D02*
X1172210D01*
X1170940D02*
X1172210D01*
X1117600Y788337D02*
Y807339D01*
X1115568Y790369D02*
Y807339D01*
X1111504Y828421D02*
Y865124D01*
X1098598Y807339D02*
X1167226D01*
X1109472Y828421D02*
Y865124D01*
X1099233Y806704D02*
X1170940D01*
X1113536Y792401D02*
Y807339D01*
X1111504Y794433D02*
Y807339D01*
X1107440Y828421D02*
Y865124D01*
X1105408Y828421D02*
Y865124D01*
X1103376Y828421D02*
Y865124D01*
X1101344Y828421D02*
Y865124D01*
X1099312Y828421D02*
Y865067D01*
X1097280Y828421D02*
Y863035D01*
X1095248Y828421D02*
Y856605D01*
X1093216Y828421D02*
Y852132D01*
X1091184Y828421D02*
Y849600D01*
X1089152Y828421D02*
Y847843D01*
X1087120Y828421D02*
Y846576D01*
X1070864Y828421D02*
Y847158D01*
X1103376Y802561D02*
Y807339D01*
X1101344Y804593D02*
Y807339D01*
X1085088Y828421D02*
Y845677D01*
X1109472Y796465D02*
Y807339D01*
X1107440Y798497D02*
Y807339D01*
X1105408Y800529D02*
Y807339D01*
X1083056Y828421D02*
Y845085D01*
X1081024Y828421D02*
Y844765D01*
X1078992Y828421D02*
Y844702D01*
X1076960Y828421D02*
Y844892D01*
X1074928Y828421D02*
Y845346D01*
X1072896Y828421D02*
Y846086D01*
X1643106Y786384D02*
X1673860D01*
X1643106Y784352D02*
X1673860D01*
X1643106Y782320D02*
X1673860D01*
X1643106Y780288D02*
X1673860D01*
X1643106Y778256D02*
X1673860D01*
X1643106Y776224D02*
X1673860D01*
X1643106Y768350D02*
Y862330D01*
X1591144Y786384D02*
X1625874D01*
X1558671Y784352D02*
X1625874D01*
X1558671Y782320D02*
X1625874D01*
X1558671Y780288D02*
X1625874D01*
X1558671Y778256D02*
X1625874D01*
Y768350D02*
Y862330D01*
X1643106Y774192D02*
X1673860D01*
X1643106Y772160D02*
X1673860D01*
X1643106Y770128D02*
X1673860D01*
X1643106Y768096D02*
X1673860D01*
X1643106Y766064D02*
X1673860D01*
X1643106Y753698D02*
Y768350D01*
X1558671Y776224D02*
X1625874D01*
X1558671Y774192D02*
X1625874D01*
X1558671Y772160D02*
X1625874D01*
X1558671Y770128D02*
X1625874D01*
X1643106Y764032D02*
X1673860D01*
X1558671Y768096D02*
X1625874D01*
X1558671Y786384D02*
X1576236D01*
X1507634Y760874D02*
Y766699D01*
X1505712Y757916D02*
Y766699D01*
X1558671Y756920D02*
Y797347D01*
X1625874Y753896D02*
Y768350D01*
X1503680Y757916D02*
Y766699D01*
X1501648Y757916D02*
Y766699D01*
X1499616Y757916D02*
Y766699D01*
X1497584Y757916D02*
Y766699D01*
X1495552Y757916D02*
Y766699D01*
X1493520Y757916D02*
Y766699D01*
X1491488Y757916D02*
Y766699D01*
X1489456Y757916D02*
Y766699D01*
X1558671Y766064D02*
X1625874D01*
X1487424Y757916D02*
Y766699D01*
X1485392Y757916D02*
Y766699D01*
X1483360Y757916D02*
Y766699D01*
X1481328Y757916D02*
Y766699D01*
X1479296Y757916D02*
Y766699D01*
X1477264Y757916D02*
Y766699D01*
X1475232Y757916D02*
Y766699D01*
X1473200Y757916D02*
Y766699D01*
X1471168Y757916D02*
Y766699D01*
X1469136Y757916D02*
Y766699D01*
X1673860Y689610D02*
Y914400D01*
X1672336Y689610D02*
Y914400D01*
X1670304Y689610D02*
Y914400D01*
X1668272Y689610D02*
Y914400D01*
X1666240Y689610D02*
Y914400D01*
X1664208Y689610D02*
Y914400D01*
X1662176Y689610D02*
Y914400D01*
X1660144Y689610D02*
Y914400D01*
X1658112Y689610D02*
Y914400D01*
X1656080Y689610D02*
Y914400D01*
X1654048Y689610D02*
Y914400D01*
X1652016Y689610D02*
Y914400D01*
X1649984Y689610D02*
Y914400D01*
X1623568Y750162D02*
Y874168D01*
X1625600Y752903D02*
Y871427D01*
X1621536Y749150D02*
Y875180D01*
X1647952Y689610D02*
Y914400D01*
X1645920Y689610D02*
Y914400D01*
X1643888Y689610D02*
Y914400D01*
X1619504Y749026D02*
Y875304D01*
X1617472Y749031D02*
Y875304D01*
X1615440Y749026D02*
Y811596D01*
X1613408Y749026D02*
Y805058D01*
X1611376Y749026D02*
Y801116D01*
X1609344Y749026D02*
Y798146D01*
X1607312Y749026D02*
Y795754D01*
X1605280Y749026D02*
Y793767D01*
X1603248Y749026D02*
Y792092D01*
X1601216Y749026D02*
Y790670D01*
X1599184Y749026D02*
Y789464D01*
X1597152Y749026D02*
Y788447D01*
X1568704Y749026D02*
Y789192D01*
X1570736Y749026D02*
Y788219D01*
X1566672Y749026D02*
Y790349D01*
X1562608Y749026D02*
Y793322D01*
X1564640Y749026D02*
Y791714D01*
X1560576Y749026D02*
Y795224D01*
X1595120Y749026D02*
Y787599D01*
X1593088Y749026D02*
Y786908D01*
X1591056Y749026D02*
Y786363D01*
X1589024Y749026D02*
Y785956D01*
X1586992Y749026D02*
Y785683D01*
X1584960Y749026D02*
Y785539D01*
X1582928Y749026D02*
Y785523D01*
X1580896Y749026D02*
Y785635D01*
X1578864Y749026D02*
Y785876D01*
X1574800Y749026D02*
Y786759D01*
X1576832Y749026D02*
Y786249D01*
X1572768Y749026D02*
Y787412D01*
X1428496Y787781D02*
Y807339D01*
X1426464Y787781D02*
Y807339D01*
X1424432Y787781D02*
Y807339D01*
X1422400Y787781D02*
Y807339D01*
X1420368Y787781D02*
Y807339D01*
X1418336Y787781D02*
Y807339D01*
X1416304Y787781D02*
Y807339D01*
X1414272Y787781D02*
Y807339D01*
X1412240Y787781D02*
Y807339D01*
X1410208Y787781D02*
Y807339D01*
X1408176Y787781D02*
Y807339D01*
X1406144Y787781D02*
Y807339D01*
X1404112Y787781D02*
Y807339D01*
X1467104Y757916D02*
Y766699D01*
X1465072Y757916D02*
Y766699D01*
X1463040Y757916D02*
Y766699D01*
X1461008Y757916D02*
Y766699D01*
X1458976Y757916D02*
Y766699D01*
X1456944Y757916D02*
Y766699D01*
X1118156Y787781D02*
X1507634D01*
X1113790Y766699D02*
X1507634D01*
X1402080Y787781D02*
Y807339D01*
X1454912Y757916D02*
Y766699D01*
X1088771Y766064D02*
X1507634D01*
X1452880Y757916D02*
Y766699D01*
X1400048Y787781D02*
Y807339D01*
X1398016Y787781D02*
Y807339D01*
X1395984Y787781D02*
Y807339D01*
X1393952Y787781D02*
Y807339D01*
X1391920Y787781D02*
Y807339D01*
X1389888Y787781D02*
Y807339D01*
X1387856Y787781D02*
Y807339D01*
X1385824Y787781D02*
Y807339D01*
X1383792Y787781D02*
Y807339D01*
X1381760Y787781D02*
Y807339D01*
X1379728Y787781D02*
Y807339D01*
X1377696Y787781D02*
Y807339D01*
X1375664Y787781D02*
Y807339D01*
X1373632Y787781D02*
Y807339D01*
X1371600Y787781D02*
Y807339D01*
X1369568Y787781D02*
Y807339D01*
X1367536Y787781D02*
Y807339D01*
X1365504Y787781D02*
Y807339D01*
X1363472Y787781D02*
Y807339D01*
X1361440Y787781D02*
Y807339D01*
X1359408Y787781D02*
Y807339D01*
X1357376Y787781D02*
Y807339D01*
X1355344Y787781D02*
Y807339D01*
X1353312Y787781D02*
Y807339D01*
X1351280Y787781D02*
Y807339D01*
X1450848Y757916D02*
Y766699D01*
X1448816Y757916D02*
Y766699D01*
X1446784Y757916D02*
Y766699D01*
X1444752Y757916D02*
Y766699D01*
X1442720Y757916D02*
Y766699D01*
X1440688Y757916D02*
Y766699D01*
X1438656Y757916D02*
Y766699D01*
X1436624Y757916D02*
Y766699D01*
X1434592Y757916D02*
Y766699D01*
X1432560Y757916D02*
Y766699D01*
X1430528Y757916D02*
Y766699D01*
X1428496Y757916D02*
Y766699D01*
X1426464Y757916D02*
Y766699D01*
X1424432Y757916D02*
Y766699D01*
X1422400Y757916D02*
Y766699D01*
X1420368Y757916D02*
Y766699D01*
X1418336Y757916D02*
Y766699D01*
X1416304Y757916D02*
Y766699D01*
X1414272Y757916D02*
Y766699D01*
X1412240Y757916D02*
Y766699D01*
X1410208Y757916D02*
Y766699D01*
X1408176Y757916D02*
Y766699D01*
X1406144Y757916D02*
Y766699D01*
X1404112Y757916D02*
Y766699D01*
X1402080Y757916D02*
Y766699D01*
X1400048Y757916D02*
Y766699D01*
X1398016Y757916D02*
Y766699D01*
X1395984Y757916D02*
Y766699D01*
X1393952Y757916D02*
Y766699D01*
X1391920Y757916D02*
Y766699D01*
X1389888Y757916D02*
Y766699D01*
X1387856Y757916D02*
Y766699D01*
X1385824Y757916D02*
Y766699D01*
X1383792Y757916D02*
Y766699D01*
X1381760Y757916D02*
Y766699D01*
X1379728Y757916D02*
Y766699D01*
X1377696Y757916D02*
Y766699D01*
X1375664Y757916D02*
Y766699D01*
X1373632Y757916D02*
Y766699D01*
X1371600Y757916D02*
Y766699D01*
X1369568Y757916D02*
Y766699D01*
X1367536Y757916D02*
Y766699D01*
X1365504Y757916D02*
Y766699D01*
X1363472Y757916D02*
Y766699D01*
X1361440Y757916D02*
Y766699D01*
X1359408Y757916D02*
Y766699D01*
X1357376Y757916D02*
Y766699D01*
X1355344Y757916D02*
Y766699D01*
X1353312Y757916D02*
Y766699D01*
X1643106Y762000D02*
X1673860D01*
X1643106Y759968D02*
X1673860D01*
X1643106Y757936D02*
X1673860D01*
X1643106Y755904D02*
X1673860D01*
X1643106Y753872D02*
X1673860D01*
X1643033Y751840D02*
X1673860D01*
X1642662Y749808D02*
X1673860D01*
X1642100Y747776D02*
X1673860D01*
X1641332Y745744D02*
X1673860D01*
X1640334Y743712D02*
X1673860D01*
X1641856Y689610D02*
Y747066D01*
X1639071Y741680D02*
X1673860D01*
X1637485Y739648D02*
X1673860D01*
X1635479Y737616D02*
X1673860D01*
X1639824Y689610D02*
Y742835D01*
X1637792Y689610D02*
Y740007D01*
X1635760Y689610D02*
Y737872D01*
X1632860Y735584D02*
X1673860D01*
X1629118Y733552D02*
X1673860D01*
X1633728Y689610D02*
Y736193D01*
X1631696Y689610D02*
Y734855D01*
X1629664Y689610D02*
Y733795D01*
X1627632Y689610D02*
Y732972D01*
X1558671Y764032D02*
X1625874D01*
X1558671Y762000D02*
X1625874D01*
X1536192Y759889D02*
Y760874D01*
X1558671Y759968D02*
X1625874D01*
X1558671Y757936D02*
X1625874D01*
X1534219Y757916D02*
X1537177Y760874D01*
X1534160Y757916D02*
Y760874D01*
X1532128Y757916D02*
Y760874D01*
X1530096Y757916D02*
Y760874D01*
X1528064Y757916D02*
Y760874D01*
X1526032Y757916D02*
Y760874D01*
X1524000Y757916D02*
Y760874D01*
X1558622Y755904D02*
X1625874D01*
X1618568Y749026D02*
X1620520D01*
X1625600Y689610D02*
Y732360D01*
X1558544Y749026D02*
Y755289D01*
X1558221Y753872D02*
X1625869D01*
X1557366Y751840D02*
X1625085D01*
X1555910Y749808D02*
X1623049D01*
X1555143Y749026D02*
X1617392D01*
X1556512D02*
Y750528D01*
X1623568Y689610D02*
Y731942D01*
X1621536Y689610D02*
Y731709D01*
X1619504Y689610D02*
Y731653D01*
X1617472Y689610D02*
Y731775D01*
X1615440Y689610D02*
Y731794D01*
X1613408Y689610D02*
Y731794D01*
X1611376Y689610D02*
Y731794D01*
X1609344Y689610D02*
Y731794D01*
X1607312Y689610D02*
Y731794D01*
X1605280Y689610D02*
Y731794D01*
X1603248Y689610D02*
Y731794D01*
X1601216Y689610D02*
Y731794D01*
X1599184Y689610D02*
Y731794D01*
X1597152Y689610D02*
Y731794D01*
X1595120Y689610D02*
Y731794D01*
X1593088Y689610D02*
Y731794D01*
X1591056Y689610D02*
Y731794D01*
X1589024Y689610D02*
Y731794D01*
X1586992Y689610D02*
Y731794D01*
X1584960Y689610D02*
Y731794D01*
X1582928Y689610D02*
Y731794D01*
X1580896Y689610D02*
Y731794D01*
X1578864Y689610D02*
Y731794D01*
X1576832Y689610D02*
Y731794D01*
X1574800Y689610D02*
Y731794D01*
X1572768Y689610D02*
Y731794D01*
X1570736Y689610D02*
Y731794D01*
X1568704Y689610D02*
Y731794D01*
X1566672Y689610D02*
Y731794D01*
X1564640Y689610D02*
Y731794D01*
X1562608Y689610D02*
Y731794D01*
X1560576Y689610D02*
Y731794D01*
X1558544Y689610D02*
Y731794D01*
X1556512Y689610D02*
Y731794D01*
X1554480Y689610D02*
Y731794D01*
X1552448Y689610D02*
Y731794D01*
X1550416Y689610D02*
Y731794D01*
X1548384Y689610D02*
Y731794D01*
X1546352Y689610D02*
Y731794D01*
X1544320Y689610D02*
Y731794D01*
X1542288Y689610D02*
Y731794D01*
X1540256Y689610D02*
Y731794D01*
X1538224Y689610D02*
Y731794D01*
X1536192Y689610D02*
Y731794D01*
X1534160Y689610D02*
Y731794D01*
X1532128Y689610D02*
Y731794D01*
X1530096Y689610D02*
Y731794D01*
X1528064Y689610D02*
Y731794D01*
X1526032Y689610D02*
Y731794D01*
X1521968Y757916D02*
Y760874D01*
X1519936Y757916D02*
Y760874D01*
X1517904Y757916D02*
Y760874D01*
X1515872Y757916D02*
Y760874D01*
X1513840Y757916D02*
Y760874D01*
X1511808Y757916D02*
Y760874D01*
X1509776Y757916D02*
Y760874D01*
X1088771Y764032D02*
X1507634D01*
Y760874D02*
X1537177D01*
X1088771Y762000D02*
X1507634D01*
X1088771Y759968D02*
X1536271D01*
X1088771Y757916D02*
X1534219D01*
X1507744D02*
Y760874D01*
X1524000Y689610D02*
Y731794D01*
X1521968Y689610D02*
Y731794D01*
X1519936Y689610D02*
Y731794D01*
X1517904Y689610D02*
Y731794D01*
X1515872Y689610D02*
Y731794D01*
X1513840Y689610D02*
Y731794D01*
X1088771Y757936D02*
X1534239D01*
X1511808Y689610D02*
Y731794D01*
X1509776Y689610D02*
Y731794D01*
X1507744Y689610D02*
Y731794D01*
X1505712Y689610D02*
Y731794D01*
X1503680Y689610D02*
Y731794D01*
X1501648Y689610D02*
Y731794D01*
X1499616Y689610D02*
Y731794D01*
X1497584Y689610D02*
Y731794D01*
X1495552Y689610D02*
Y731794D01*
X1493520Y689610D02*
Y731794D01*
X1491488Y689610D02*
Y731794D01*
X1489456Y689610D02*
Y731794D01*
X1487424Y689610D02*
Y731794D01*
X1485392Y689610D02*
Y731794D01*
X1483360Y689610D02*
Y731794D01*
X1481328Y689610D02*
Y731794D01*
X1479296Y689610D02*
Y731794D01*
X1477264Y689610D02*
Y731794D01*
X1475232Y689610D02*
Y731794D01*
X1473200Y689610D02*
Y731794D01*
X1471168Y689610D02*
Y731794D01*
X1469136Y689610D02*
Y731794D01*
X1467104Y689610D02*
Y731794D01*
X1465072Y689610D02*
Y731794D01*
X1463040Y689610D02*
Y731794D01*
X1461008Y689610D02*
Y731794D01*
X1458976Y689610D02*
Y731794D01*
X1456944Y689610D02*
Y731794D01*
X1454912Y689610D02*
Y731794D01*
X1452880Y689610D02*
Y731794D01*
X1450848Y689610D02*
Y731794D01*
X1448816Y689610D02*
Y731794D01*
X1446784Y689610D02*
Y731794D01*
X1444752Y689610D02*
Y731794D01*
X1442720Y689610D02*
Y731794D01*
X1440688Y689610D02*
Y731794D01*
X1438656Y689610D02*
Y731794D01*
X1436624Y689610D02*
Y731794D01*
X1434592Y689610D02*
Y731794D01*
X1432560Y689610D02*
Y731794D01*
X1430528Y689610D02*
Y731794D01*
X1428496Y689610D02*
Y731794D01*
X1426464Y689610D02*
Y731794D01*
X1424432Y689610D02*
Y731794D01*
X1422400Y689610D02*
Y731794D01*
X1420368Y689610D02*
Y731794D01*
X1418336Y689610D02*
Y731794D01*
X1416304Y689610D02*
Y731794D01*
X1414272Y689610D02*
Y731794D01*
X1412240Y689610D02*
Y731794D01*
X1410208Y689610D02*
Y731794D01*
X1408176Y689610D02*
Y731794D01*
X1406144Y689610D02*
Y731794D01*
X1404112Y689610D02*
Y731794D01*
X1402080Y689610D02*
Y731794D01*
X1400048Y689610D02*
Y731794D01*
X1398016Y689610D02*
Y731794D01*
X1395984Y689610D02*
Y731794D01*
X1393952Y689610D02*
Y731794D01*
X1391920Y689610D02*
Y731794D01*
X1389888Y689610D02*
Y731794D01*
X1387856Y689610D02*
Y731794D01*
X1385824Y689610D02*
Y731794D01*
X1383792Y689610D02*
Y731794D01*
X1381760Y689610D02*
Y731794D01*
X1379728Y689610D02*
Y731794D01*
X1377696Y689610D02*
Y731794D01*
X1375664Y689610D02*
Y731794D01*
X1373632Y689610D02*
Y731794D01*
X1371600Y689610D02*
Y731794D01*
X1369568Y689610D02*
Y731794D01*
X1367536Y689610D02*
Y731794D01*
X1365504Y689610D02*
Y731794D01*
X1363472Y689610D02*
Y731794D01*
X1361440Y689610D02*
Y731794D01*
X1359408Y689610D02*
Y731794D01*
X1357376Y689610D02*
Y731794D01*
X1355344Y689610D02*
Y731794D01*
X1353312Y689610D02*
Y731794D01*
X1349248Y787781D02*
Y807339D01*
X1347216Y787781D02*
Y807339D01*
X1345184Y787781D02*
Y807339D01*
X1343152Y787781D02*
Y807339D01*
X1341120Y787781D02*
Y807339D01*
X1339088Y787781D02*
Y807339D01*
X1337056Y787781D02*
Y807339D01*
X1335024Y787781D02*
Y807339D01*
X1332992Y787781D02*
Y807339D01*
X1330960Y787781D02*
Y807339D01*
X1328928Y787781D02*
Y807339D01*
X1326896Y787781D02*
Y807339D01*
X1324864Y787781D02*
Y807339D01*
X1322832Y787781D02*
Y807339D01*
X1320800Y787781D02*
Y807339D01*
X1318768Y787781D02*
Y807339D01*
X1316736Y787781D02*
Y807339D01*
X1351280Y757916D02*
Y766699D01*
X1314704Y787781D02*
Y807339D01*
X1312672Y787781D02*
Y807339D01*
X1310640Y787781D02*
Y807339D01*
X1308608Y787781D02*
Y807339D01*
X1306576Y787781D02*
Y807339D01*
X1304544Y787781D02*
Y807339D01*
X1302512Y787781D02*
Y807339D01*
X1300480Y787781D02*
Y807339D01*
X1298448Y787781D02*
Y807339D01*
X1296416Y787781D02*
Y807339D01*
X1294384Y787781D02*
Y807339D01*
X1292352Y787781D02*
Y807339D01*
X1290320Y787781D02*
Y807339D01*
X1288288Y787781D02*
Y807339D01*
X1286256Y787781D02*
Y807339D01*
X1284224Y787781D02*
Y807339D01*
X1282192Y787781D02*
Y807339D01*
X1280160Y787781D02*
Y807339D01*
X1278128Y787781D02*
Y807339D01*
X1276096Y787781D02*
Y807339D01*
X1274064Y787781D02*
Y807339D01*
X1272032Y787781D02*
Y807339D01*
X1270000Y787781D02*
Y807339D01*
X1267968Y787781D02*
Y807339D01*
X1265936Y787781D02*
Y807339D01*
X1263904Y787781D02*
Y807339D01*
X1261872Y787781D02*
Y807339D01*
X1259840Y787781D02*
Y807339D01*
X1257808Y787781D02*
Y807339D01*
X1255776Y787781D02*
Y807339D01*
X1253744Y787781D02*
Y807339D01*
X1251712Y787781D02*
Y807339D01*
X1349248Y757916D02*
Y766699D01*
X1347216Y757916D02*
Y766699D01*
X1345184Y757916D02*
Y766699D01*
X1343152Y757916D02*
Y766699D01*
X1341120Y757916D02*
Y766699D01*
X1339088Y757916D02*
Y766699D01*
X1337056Y757916D02*
Y766699D01*
X1335024Y757916D02*
Y766699D01*
X1332992Y757916D02*
Y766699D01*
X1330960Y757916D02*
Y766699D01*
X1328928Y757916D02*
Y766699D01*
X1326896Y757916D02*
Y766699D01*
X1324864Y757916D02*
Y766699D01*
X1322832Y757916D02*
Y766699D01*
X1320800Y757916D02*
Y766699D01*
X1318768Y757916D02*
Y766699D01*
X1316736Y757916D02*
Y766699D01*
X1314704Y757916D02*
Y766699D01*
X1312672Y757916D02*
Y766699D01*
X1310640Y757916D02*
Y766699D01*
X1308608Y757916D02*
Y766699D01*
X1306576Y757916D02*
Y766699D01*
X1304544Y757916D02*
Y766699D01*
X1302512Y757916D02*
Y766699D01*
X1300480Y757916D02*
Y766699D01*
X1298448Y757916D02*
Y766699D01*
X1296416Y757916D02*
Y766699D01*
X1294384Y757916D02*
Y766699D01*
X1292352Y757916D02*
Y766699D01*
X1290320Y757916D02*
Y766699D01*
X1288288Y757916D02*
Y766699D01*
X1286256Y757916D02*
Y766699D01*
X1284224Y757916D02*
Y766699D01*
X1282192Y757916D02*
Y766699D01*
X1280160Y757916D02*
Y766699D01*
X1278128Y757916D02*
Y766699D01*
X1276096Y757916D02*
Y766699D01*
X1274064Y757916D02*
Y766699D01*
X1272032Y757916D02*
Y766699D01*
X1270000Y757916D02*
Y766699D01*
X1267968Y757916D02*
Y766699D01*
X1265936Y757916D02*
Y766699D01*
X1263904Y757916D02*
Y766699D01*
X1261872Y757916D02*
Y766699D01*
X1259840Y757916D02*
Y766699D01*
X1257808Y757916D02*
Y766699D01*
X1255776Y757916D02*
Y766699D01*
X1253744Y757916D02*
Y766699D01*
X1251712Y757916D02*
Y766699D01*
X1249680Y787781D02*
Y807339D01*
X1247648Y787781D02*
Y807339D01*
X1245616Y787781D02*
Y807339D01*
X1243584Y787781D02*
Y807339D01*
X1241552Y787781D02*
Y807339D01*
X1239520Y787781D02*
Y807339D01*
X1237488Y787781D02*
Y807339D01*
X1235456Y787781D02*
Y807339D01*
X1233424Y787781D02*
Y807339D01*
X1231392Y787781D02*
Y807339D01*
X1229360Y787781D02*
Y807339D01*
X1227328Y787781D02*
Y807339D01*
X1225296Y787781D02*
Y807339D01*
X1223264Y787781D02*
Y807339D01*
X1221232Y787781D02*
Y807339D01*
X1219200Y787781D02*
Y807339D01*
X1217168Y787781D02*
Y807339D01*
X1215136Y787781D02*
Y807339D01*
X1213104Y787781D02*
Y807339D01*
X1211072Y787781D02*
Y807339D01*
X1209040Y787781D02*
Y807339D01*
X1207008Y787781D02*
Y807339D01*
X1204976Y787781D02*
Y807339D01*
X1202944Y787781D02*
Y807339D01*
X1200912Y787781D02*
Y807339D01*
X1198880Y787781D02*
Y807339D01*
X1196848Y787781D02*
Y807339D01*
X1194816Y787781D02*
Y807339D01*
X1192784Y787781D02*
Y807339D01*
X1190752Y787781D02*
Y807339D01*
X1188720Y787781D02*
Y807339D01*
X1186688Y787781D02*
Y807339D01*
X1184656Y787781D02*
Y807339D01*
X1182624Y787781D02*
Y807339D01*
X1180592Y787781D02*
Y807339D01*
X1178560Y787781D02*
Y807339D01*
X1176528Y787781D02*
Y807339D01*
X1174496Y787781D02*
Y806940D01*
X1172464Y787781D02*
Y806707D01*
X1170432Y787781D02*
Y806716D01*
X1168400Y787781D02*
Y806997D01*
X1166368Y787781D02*
Y807339D01*
X1164336Y787781D02*
Y807339D01*
X1162304Y787781D02*
Y807339D01*
X1160272Y787781D02*
Y807339D01*
X1158240Y787781D02*
Y807339D01*
X1156208Y787781D02*
Y807339D01*
X1154176Y787781D02*
Y807339D01*
X1152144Y787781D02*
Y807339D01*
X1150112Y787781D02*
Y807339D01*
X1148080Y787781D02*
Y807339D01*
X1146048Y787781D02*
Y807339D01*
X1144016Y787781D02*
Y807339D01*
X1141984Y787781D02*
Y807339D01*
X1139952Y787781D02*
Y807339D01*
X1137920Y787781D02*
Y807339D01*
X1135888Y787781D02*
Y807339D01*
X1133856Y787781D02*
Y807339D01*
X1131824Y787781D02*
Y807339D01*
X1129792Y787781D02*
Y807339D01*
X1127760Y787781D02*
Y807339D01*
X1125728Y787781D02*
Y807339D01*
X1123696Y787781D02*
Y807339D01*
X1249680Y757916D02*
Y766699D01*
X1247648Y757916D02*
Y766699D01*
X1245616Y757916D02*
Y766699D01*
X1243584Y757916D02*
Y766699D01*
X1241552Y757916D02*
Y766699D01*
X1239520Y757916D02*
Y766699D01*
X1237488Y757916D02*
Y766699D01*
X1235456Y757916D02*
Y766699D01*
X1121664Y787781D02*
Y807339D01*
X1233424Y757916D02*
Y766699D01*
X1231392Y757916D02*
Y766699D01*
X1229360Y757916D02*
Y766699D01*
X1119632Y787781D02*
Y807339D01*
X1098598D02*
X1118156Y787781D01*
X1095348Y780775D02*
X1106326Y769797D01*
X1099312Y757916D02*
Y776811D01*
X1101344Y757916D02*
Y774779D01*
X1097280Y757916D02*
Y778843D01*
X1093402Y776224D02*
X1099899D01*
X1091911Y774192D02*
X1101931D01*
X1094474Y778256D02*
X1097867D01*
X1095248Y757916D02*
Y780405D01*
X1093216Y757916D02*
Y775931D01*
X1109472Y757916D02*
Y767624D01*
X1105408Y757916D02*
Y770715D01*
X1107440Y757916D02*
Y768826D01*
X1103376Y757916D02*
Y772747D01*
X1088771Y770128D02*
X1105995D01*
X1088771Y768096D02*
X1108546D01*
X1089823Y772160D02*
X1103963D01*
X1091184Y757916D02*
Y773400D01*
X1089152Y757916D02*
Y771643D01*
X1088771Y757916D02*
Y771373D01*
X1351280Y689610D02*
Y731794D01*
X1349248Y689610D02*
Y731794D01*
X1347216Y689610D02*
Y731794D01*
X1345184Y689610D02*
Y731794D01*
X1343152Y689610D02*
Y731794D01*
X1341120Y689610D02*
Y731794D01*
X1339088Y689610D02*
Y731794D01*
X1337056Y689610D02*
Y731794D01*
X1335024Y689610D02*
Y731794D01*
X1332992Y689610D02*
Y731794D01*
X1330960Y689610D02*
Y731794D01*
X1328928Y689610D02*
Y731794D01*
X1326896Y689610D02*
Y731794D01*
X1324864Y689610D02*
Y731794D01*
X1322832Y689610D02*
Y731794D01*
X1320800Y689610D02*
Y731794D01*
X1318768Y689610D02*
Y731794D01*
X1316736Y689610D02*
Y731794D01*
X1314704Y689610D02*
Y731794D01*
X1312672Y689610D02*
Y731794D01*
X1310640Y689610D02*
Y731794D01*
X1308608Y689610D02*
Y731794D01*
X1306576Y689610D02*
Y731794D01*
X1304544Y689610D02*
Y731794D01*
X1302512Y689610D02*
Y731794D01*
X1227328Y757916D02*
Y766699D01*
X1225296Y757916D02*
Y766699D01*
X1223264Y757916D02*
Y766699D01*
X1221232Y757916D02*
Y766699D01*
X1219200Y757916D02*
Y766699D01*
X1217168Y757916D02*
Y766699D01*
X1215136Y757916D02*
Y766699D01*
X1213104Y757916D02*
Y766699D01*
X1211072Y757916D02*
Y766699D01*
X1209040Y757916D02*
Y766699D01*
X1207008Y757916D02*
Y766699D01*
X1204976Y757916D02*
Y766699D01*
X1202944Y757916D02*
Y766699D01*
X1300480Y689610D02*
Y731794D01*
X1298448Y689610D02*
Y731794D01*
X1296416Y689610D02*
Y731794D01*
X1294384Y689610D02*
Y731794D01*
X1292352Y689610D02*
Y731794D01*
X1290320Y689610D02*
Y731794D01*
X1200912Y757916D02*
Y766699D01*
X1198880Y757916D02*
Y766699D01*
X1196848Y757916D02*
Y766699D01*
X1194816Y757916D02*
Y766699D01*
X1192784Y757916D02*
Y766699D01*
X1190752Y757916D02*
Y766699D01*
X1288288Y689610D02*
Y731794D01*
X1286256Y689610D02*
Y731794D01*
X1284224Y689610D02*
Y731794D01*
X1282192Y689610D02*
Y731794D01*
X1280160Y689610D02*
Y731794D01*
X1278128Y689610D02*
Y731794D01*
X1276096Y689610D02*
Y731794D01*
X1274064Y689610D02*
Y731794D01*
X1272032Y689610D02*
Y731794D01*
X1270000Y689610D02*
Y731794D01*
X1267968Y689610D02*
Y731794D01*
X1265936Y689610D02*
Y731794D01*
X1263904Y689610D02*
Y731794D01*
X1261872Y689610D02*
Y731794D01*
X1259840Y689610D02*
Y731794D01*
X1257808Y689610D02*
Y731794D01*
X1255776Y689610D02*
Y731794D01*
X1253744Y689610D02*
Y731794D01*
X1251712Y689610D02*
Y731794D01*
X1249680Y689610D02*
Y731794D01*
X1247648Y689610D02*
Y731794D01*
X1245616Y689610D02*
Y731794D01*
X1243584Y689610D02*
Y731794D01*
X1241552Y689610D02*
Y731794D01*
X1239520Y689610D02*
Y731794D01*
X1237488Y689610D02*
Y731794D01*
X1235456Y689610D02*
Y731794D01*
X1233424Y689610D02*
Y731794D01*
X1231392Y689610D02*
Y731794D01*
X1229360Y689610D02*
Y731794D01*
X1227328Y689610D02*
Y731794D01*
X1225296Y689610D02*
Y731794D01*
X1223264Y689610D02*
Y731794D01*
X1221232Y689610D02*
Y731794D01*
X1219200Y689610D02*
Y731794D01*
X1217168Y689610D02*
Y731794D01*
X1215136Y689610D02*
Y731794D01*
X1213104Y689610D02*
Y731794D01*
X1211072Y689610D02*
Y731794D01*
X1209040Y689610D02*
Y731794D01*
X1207008Y689610D02*
Y731794D01*
X1204976Y689610D02*
Y731794D01*
X1202944Y689610D02*
Y731794D01*
X1200912Y689610D02*
Y731794D01*
X1198880Y689610D02*
Y731794D01*
X1196848Y689610D02*
Y731794D01*
X1194816Y689610D02*
Y731794D01*
X1192784Y689610D02*
Y731794D01*
X1190752Y689610D02*
Y731794D01*
X1188720Y757916D02*
Y766699D01*
X1186688Y757916D02*
Y766699D01*
X1184656Y757916D02*
Y766699D01*
X1182624Y757916D02*
Y766699D01*
X1180592Y757916D02*
Y766699D01*
X1178560Y757916D02*
Y766699D01*
X1176528Y757916D02*
Y766699D01*
X1174496Y757916D02*
Y766699D01*
X1172464Y757916D02*
Y766699D01*
X1170432Y757916D02*
Y766699D01*
X1168400Y757916D02*
Y766699D01*
X1166368Y757916D02*
Y766699D01*
X1164336Y757916D02*
Y766699D01*
X1188720Y689610D02*
Y731794D01*
X1186688Y689610D02*
Y731794D01*
X1184656Y689610D02*
Y731794D01*
X1182624Y689610D02*
Y731794D01*
X1180592Y689610D02*
Y731794D01*
X1178560Y689610D02*
Y731794D01*
X1162304Y757916D02*
Y766699D01*
X1176528Y689610D02*
Y731794D01*
X1160272Y757916D02*
Y766699D01*
X1174496Y689610D02*
Y731794D01*
X1172464Y689610D02*
Y731794D01*
X1170432Y689610D02*
Y731794D01*
X1158240Y757916D02*
Y766699D01*
X1156208Y757916D02*
Y766699D01*
X1154176Y757916D02*
Y766699D01*
X1152144Y757916D02*
Y766699D01*
X1150112Y757916D02*
Y766699D01*
X1148080Y757916D02*
Y766699D01*
X1146048Y757916D02*
Y766699D01*
X1144016Y757916D02*
Y766699D01*
X1141984Y757916D02*
Y766699D01*
X1139952Y757916D02*
Y766699D01*
X1137920Y757916D02*
Y766699D01*
X1135888Y757916D02*
Y766699D01*
X1133856Y757916D02*
Y766699D01*
X1131824Y757916D02*
Y766699D01*
X1129792Y757916D02*
Y766699D01*
X1127760Y757916D02*
Y766699D01*
X1125728Y757916D02*
Y766699D01*
X1123696Y757916D02*
Y766699D01*
X1121664Y757916D02*
Y766699D01*
X1119632Y757916D02*
Y766699D01*
X1117600Y757916D02*
Y766699D01*
X1115568Y757916D02*
Y766699D01*
X1113536Y757916D02*
Y766702D01*
X1111504Y757916D02*
Y766950D01*
X1168400Y689610D02*
Y731794D01*
X1166368Y689610D02*
Y731794D01*
X1164336Y689610D02*
Y731794D01*
X1162304Y689610D02*
Y731794D01*
X1160272Y689610D02*
Y731794D01*
X1158240Y689610D02*
Y731794D01*
X1156208Y689610D02*
Y731794D01*
X1154176Y689610D02*
Y731794D01*
X1152144Y689610D02*
Y731794D01*
X1150112Y689610D02*
Y731794D01*
X1148080Y689610D02*
Y731794D01*
X1146048Y689610D02*
Y731794D01*
X1144016Y689610D02*
Y731794D01*
X1141984Y689610D02*
Y731794D01*
X1139952Y689610D02*
Y731794D01*
X1137920Y689610D02*
Y731794D01*
X1135888Y689610D02*
Y731794D01*
X1133856Y689610D02*
Y731794D01*
X1131824Y689610D02*
Y731794D01*
X1129792Y689610D02*
Y731794D01*
X1127760Y689610D02*
Y731794D01*
X1125728Y689610D02*
Y731794D01*
X1123696Y689610D02*
Y731794D01*
X1121664Y689610D02*
Y731794D01*
X1119632Y689610D02*
Y731794D01*
X1117600Y689610D02*
Y731794D01*
X1115568Y689610D02*
Y731794D01*
X1113536Y689610D02*
Y731794D01*
X1111504Y689610D02*
Y731794D01*
X1109472Y689610D02*
Y731794D01*
X1107440Y689610D02*
Y731794D01*
X1105408Y689610D02*
Y731794D01*
X1103376Y689610D02*
Y731794D01*
X1101344Y689610D02*
Y731794D01*
X1099312Y689610D02*
Y731794D01*
X1097280Y689610D02*
Y731794D01*
X1095248Y689610D02*
Y731794D01*
X1093216Y689610D02*
Y731794D01*
X1091184Y689610D02*
Y731794D01*
X1089152Y689610D02*
Y731794D01*
X1087120Y689610D02*
Y731794D01*
X1085088Y689610D02*
Y731794D01*
X1083056Y689610D02*
Y731794D01*
X1081024Y689610D02*
Y731794D01*
X1078992Y689610D02*
Y731794D01*
X1076960Y689610D02*
Y731794D01*
X1074928Y689610D02*
Y731794D01*
X1072896Y689610D02*
Y731794D01*
X1070864Y689610D02*
Y731794D01*
Y892536D02*
Y914400D01*
X1068832Y892536D02*
Y914400D01*
X1066800Y892536D02*
Y914400D01*
X1064768Y892536D02*
Y914400D01*
X1062736Y892536D02*
Y914400D01*
X1060704Y892536D02*
Y914400D01*
X1058672Y892536D02*
Y914400D01*
X1056640Y892536D02*
Y914400D01*
X1054608Y892536D02*
Y914400D01*
X1052576Y892536D02*
Y914400D01*
X1050544Y892536D02*
Y914400D01*
X1048512Y892536D02*
Y914400D01*
X1046480Y892536D02*
Y914400D01*
X1044448Y892536D02*
Y914400D01*
X1042416Y892536D02*
Y914400D01*
X1040384Y892536D02*
Y914400D01*
X1038352Y892536D02*
Y914400D01*
X1036320Y892536D02*
Y914400D01*
X1034288Y892536D02*
Y914400D01*
X1032256Y892536D02*
Y914400D01*
X1030224Y892536D02*
Y914400D01*
X1028192Y892536D02*
Y914400D01*
X1026160Y892536D02*
Y914400D01*
X1024128Y892536D02*
Y914400D01*
X1022096Y892536D02*
Y914400D01*
X1020064Y892536D02*
Y914400D01*
X1018032Y892536D02*
Y914400D01*
X1016000Y892536D02*
Y914400D01*
X1013968Y892536D02*
Y914400D01*
X1011936Y892536D02*
Y914400D01*
X1009904Y892536D02*
Y914400D01*
X1007872Y892536D02*
Y914400D01*
X1005840Y892536D02*
Y914400D01*
X1003808Y892536D02*
Y914400D01*
X1001776Y892536D02*
Y914400D01*
X999744Y892536D02*
Y914400D01*
X997712Y892536D02*
Y914400D01*
X995680Y892536D02*
Y914400D01*
X993648Y892536D02*
Y914400D01*
X991616Y892536D02*
Y914400D01*
X989584Y892536D02*
Y914400D01*
X987552Y892536D02*
Y914400D01*
X985520Y892536D02*
Y914400D01*
X983488Y892536D02*
Y914400D01*
X981456Y892536D02*
Y914400D01*
X979424Y892536D02*
Y914400D01*
X977392Y892536D02*
Y914400D01*
X975360Y892536D02*
Y914400D01*
X973328Y892536D02*
Y914400D01*
X971296Y892536D02*
Y914400D01*
X969264Y892536D02*
Y914400D01*
X967232Y892536D02*
Y914400D01*
X965200Y892536D02*
Y914400D01*
X963168Y892536D02*
Y914400D01*
X961136Y892536D02*
Y914400D01*
X959104Y892536D02*
Y914400D01*
X957072Y892536D02*
Y914400D01*
X955040Y892536D02*
Y914400D01*
X953008Y892536D02*
Y914400D01*
X950976Y892536D02*
Y914400D01*
X948944Y892536D02*
Y914400D01*
X946912Y892536D02*
Y914400D01*
X944880Y892536D02*
Y914400D01*
X1062159Y875304D02*
X1071441D01*
X1068832Y873471D02*
Y875304D01*
X1038253D02*
X1046041D01*
X1064768Y873471D02*
Y875304D01*
X942848Y892536D02*
Y914400D01*
X940816Y892536D02*
Y914400D01*
X938784Y892536D02*
Y914400D01*
X936752Y892536D02*
Y914400D01*
X934720Y892536D02*
Y914400D01*
X932688Y892536D02*
Y914400D01*
X930656Y892536D02*
Y914400D01*
X928624Y892536D02*
Y914400D01*
X926592Y892536D02*
Y914400D01*
X924560Y892536D02*
Y914400D01*
X922528Y892536D02*
Y914400D01*
X920496Y892536D02*
Y914400D01*
X918464Y892536D02*
Y914400D01*
X916432Y892536D02*
Y914400D01*
X914400Y892536D02*
Y914400D01*
X912368Y892536D02*
Y914400D01*
X910336Y892536D02*
Y914400D01*
X908304Y892536D02*
Y914400D01*
X906272Y892536D02*
Y914400D01*
X904240Y892536D02*
Y914400D01*
X902208Y892536D02*
Y914400D01*
X900176Y892536D02*
Y914400D01*
X898144Y892536D02*
Y914400D01*
X896112Y892536D02*
Y914400D01*
X894080Y892536D02*
Y914400D01*
X892048Y892536D02*
Y914400D01*
X890016Y892536D02*
Y914400D01*
X887984Y892536D02*
Y914400D01*
X885952Y892536D02*
Y914400D01*
X883920Y892536D02*
Y914400D01*
X881888Y892536D02*
Y914400D01*
X879856Y892536D02*
Y914400D01*
X877824Y892536D02*
Y914400D01*
X875792Y892536D02*
Y914400D01*
X873760Y892536D02*
Y914400D01*
X871728Y892536D02*
Y914400D01*
X869696Y892536D02*
Y914400D01*
X405130D02*
X1673860D01*
X867664Y892536D02*
Y914400D01*
X865632Y892536D02*
Y914400D01*
X863600Y892536D02*
Y914400D01*
X861568Y892536D02*
Y914400D01*
X859536Y892536D02*
Y914400D01*
X405130Y912368D02*
X1673860D01*
X405130Y910336D02*
X1673860D01*
X405130Y908304D02*
X1673860D01*
X857504Y892536D02*
Y914400D01*
X405130Y906272D02*
X1673860D01*
X855472Y892536D02*
Y914400D01*
X405130Y904240D02*
X1673860D01*
X405130Y902208D02*
X1673860D01*
X405130Y900176D02*
X1673860D01*
X405130Y898144D02*
X1673860D01*
X405130Y896112D02*
X1673860D01*
X405130Y894080D02*
X1673860D01*
X853440Y892536D02*
Y914400D01*
X851408Y892536D02*
Y914400D01*
X849376Y892536D02*
Y914400D01*
X847344Y892536D02*
Y914400D01*
X845312Y892536D02*
Y914400D01*
X843280Y892536D02*
Y914400D01*
X841248Y892536D02*
Y914400D01*
X839216Y892536D02*
Y914400D01*
X837184Y892536D02*
Y914400D01*
X835152Y892536D02*
Y914400D01*
X833120Y892536D02*
Y914400D01*
X831088Y892536D02*
Y914400D01*
X829056Y892536D02*
Y914400D01*
X827024Y892536D02*
Y914400D01*
X824992Y892536D02*
Y914400D01*
X822960Y892536D02*
Y914400D01*
X820928Y892536D02*
Y914400D01*
X818896Y892536D02*
Y914400D01*
X816864Y892536D02*
Y914400D01*
X814832Y892536D02*
Y914400D01*
X812800Y892536D02*
Y914400D01*
X810768Y892536D02*
Y914400D01*
X808736Y892536D02*
Y914400D01*
X806704Y892536D02*
Y914400D01*
X804672Y892536D02*
Y914400D01*
X802640Y892536D02*
Y914400D01*
X800608Y892536D02*
Y914400D01*
X798576Y892536D02*
Y914400D01*
X796544Y892536D02*
Y914400D01*
X794512Y892536D02*
Y914400D01*
X792480Y892536D02*
Y914400D01*
X790448Y892536D02*
Y914400D01*
X788416Y892536D02*
Y914400D01*
X786384Y892536D02*
Y914400D01*
X784352Y892536D02*
Y914400D01*
X782320Y892536D02*
Y914400D01*
X780288Y892536D02*
Y914400D01*
X778256Y892536D02*
Y914400D01*
X776224Y892536D02*
Y914400D01*
X774192Y892536D02*
Y914400D01*
X772160Y892536D02*
Y914400D01*
X770128Y892536D02*
Y914400D01*
X768096Y892536D02*
Y914400D01*
X766064Y892536D02*
Y914400D01*
X764032Y892536D02*
Y914400D01*
X762000Y892536D02*
Y914400D01*
X759968Y892536D02*
Y914400D01*
X757936Y892536D02*
Y914400D01*
X465503Y892536D02*
X1621202D01*
X755904D02*
Y914400D01*
X753872Y892536D02*
Y914400D01*
X751840Y892536D02*
Y914400D01*
X749808Y892536D02*
Y914400D01*
X747776Y892536D02*
Y914400D01*
X745744Y892536D02*
Y914400D01*
X743712Y892536D02*
Y914400D01*
X741680Y892536D02*
Y914400D01*
X739648Y892536D02*
Y914400D01*
X737616Y892536D02*
Y914400D01*
X735584Y892536D02*
Y914400D01*
X733552Y892536D02*
Y914400D01*
X731520Y892536D02*
Y914400D01*
X729488Y892536D02*
Y914400D01*
X727456Y892536D02*
Y914400D01*
X725424Y892536D02*
Y914400D01*
X723392Y892536D02*
Y914400D01*
X721360Y892536D02*
Y914400D01*
X719328Y892536D02*
Y914400D01*
X717296Y892536D02*
Y914400D01*
X715264Y892536D02*
Y914400D01*
X713232Y892536D02*
Y914400D01*
X711200Y892536D02*
Y914400D01*
X709168Y892536D02*
Y914400D01*
X707136Y892536D02*
Y914400D01*
X1064423Y873760D02*
X1069177D01*
X1044448Y874277D02*
Y875304D01*
X1042416Y872520D02*
Y875304D01*
X1040384Y872654D02*
Y875304D01*
X1039654Y873760D02*
X1043777D01*
X1065560Y849376D02*
X1068040D01*
X1063028Y847344D02*
X1070572D01*
X1040160Y849376D02*
X1042640D01*
X1058555Y845312D02*
X1075045D01*
X1033155D02*
X1049645D01*
X1037628Y847344D02*
X1045172D01*
X1014760Y849376D02*
X1017240D01*
X1012228Y847344D02*
X1019771D01*
X986829D02*
X994371D01*
X1007755Y845312D02*
X1024245D01*
X992803Y843280D02*
X1161669D01*
X989757Y845312D02*
X998845D01*
X989360Y849376D02*
X991840D01*
X967232Y846201D02*
Y848649D01*
X991616Y844259D02*
Y849600D01*
X989584Y845386D02*
Y849600D01*
X965200Y846201D02*
Y850737D01*
X963960Y849376D02*
X966440D01*
X963168Y846201D02*
Y848649D01*
X885334Y846201D02*
Y865759D01*
X883920Y846201D02*
Y865759D01*
X881888Y846201D02*
Y865759D01*
X987552Y846003D02*
Y847843D01*
X961429Y847344D02*
X968971D01*
X969264Y846201D02*
Y847158D01*
X993648Y842439D02*
Y847843D01*
X961136Y846201D02*
Y847158D01*
X959360Y846201D02*
X971040D01*
X918464D02*
Y847158D01*
X918066Y846201D02*
X920240D01*
X918066D02*
Y847413D01*
X1068832Y828421D02*
Y848649D01*
X1064768Y828421D02*
Y848649D01*
X1062736Y828421D02*
Y847158D01*
X1060704Y828421D02*
Y846086D01*
X1048512Y828421D02*
Y845677D01*
X1058672Y828421D02*
Y845346D01*
X1046480Y828421D02*
Y846576D01*
X1042416Y828421D02*
Y849600D01*
X1044448Y828421D02*
Y847843D01*
X1040384Y828421D02*
Y849600D01*
X1038352Y828421D02*
Y847843D01*
X1036320Y828421D02*
Y846576D01*
X1034288Y828421D02*
Y845677D01*
X1056640Y828421D02*
Y844892D01*
X1007031Y829056D02*
X1161669D01*
X1054608Y828421D02*
Y844702D01*
X1052576Y828421D02*
Y844765D01*
X1007666Y828421D02*
X1161669D01*
X1050544D02*
Y845085D01*
X994839Y841248D02*
X1161669D01*
X996871Y839216D02*
X1161669D01*
X998903Y837184D02*
X1161669D01*
X1000935Y835152D02*
X1161669D01*
X1002967Y833120D02*
X1161669D01*
X1004999Y831088D02*
X1161669D01*
X1032256Y828421D02*
Y845085D01*
X1030224Y828421D02*
Y844765D01*
X1028192Y828421D02*
Y844702D01*
X1020064Y828421D02*
Y847158D01*
X1022096Y828421D02*
Y846086D01*
X1018032Y828421D02*
Y848649D01*
X1016000Y828421D02*
Y850737D01*
X997712Y838375D02*
Y845677D01*
X995680Y840407D02*
Y846576D01*
X1013968Y828421D02*
Y848649D01*
X1011936Y828421D02*
Y847158D01*
X1009904Y828421D02*
Y846086D01*
X1005840Y830247D02*
Y844892D01*
X1003808Y832279D02*
Y844702D01*
X1001776Y834311D02*
Y844765D01*
X1026160Y828421D02*
Y844892D01*
X1024128Y828421D02*
Y845346D01*
X1007872Y828421D02*
Y845346D01*
X999744Y836343D02*
Y845085D01*
X992984Y843103D02*
X1007666Y828421D01*
X951463Y813689D02*
X952355D01*
X882317Y812800D02*
X893286D01*
X792480Y874028D02*
Y875304D01*
X790448Y873386D02*
Y875304D01*
X877466Y865759D02*
X885334D01*
X877466Y865632D02*
X885334D01*
X789434Y873386D02*
X792324D01*
X740701Y875304D02*
X792922D01*
X742245Y873760D02*
X792410D01*
X744277Y871728D02*
X789434D01*
X763126Y869696D02*
X789434D01*
X763126Y867664D02*
X789434D01*
X782320Y855647D02*
Y875304D01*
X877466Y863600D02*
X885334D01*
X877466Y861568D02*
X885334D01*
X877466Y859536D02*
X885334D01*
X877466Y857504D02*
X885334D01*
X877466Y855472D02*
X885334D01*
X782495D02*
X789434D01*
X763126Y865632D02*
X789434D01*
X763126Y863600D02*
X789434D01*
X775664Y861568D02*
X789434D01*
X778430Y859536D02*
X789434D01*
X780438Y857504D02*
X789434D01*
X774192Y862180D02*
Y875304D01*
X772160Y862634D02*
Y875304D01*
X770128Y862711D02*
Y875304D01*
X768096Y862711D02*
Y875304D01*
X780288Y857635D02*
Y875304D01*
X778256Y859710D02*
Y875304D01*
X776224Y861262D02*
Y875304D01*
X762000Y869806D02*
Y875304D01*
X759968Y869806D02*
Y875304D01*
X757936Y869806D02*
Y875304D01*
X766064Y862711D02*
Y875304D01*
X764032Y862711D02*
Y875304D01*
X755904Y869806D02*
Y875304D01*
X753872Y869806D02*
Y875304D01*
X751840Y869806D02*
Y875304D01*
X749808Y869806D02*
Y875304D01*
X763126Y862711D02*
X770890D01*
X763126D02*
Y869806D01*
X745744Y870261D02*
Y875304D01*
X743712Y872293D02*
Y875304D01*
X741680Y874325D02*
Y875304D01*
X747776Y869806D02*
Y875304D01*
X746199Y869806D02*
X763126D01*
X740701Y875304D02*
X746199Y869806D01*
X877466Y853440D02*
X885334D01*
X877466Y851408D02*
X885334D01*
X789434Y848533D02*
Y873386D01*
X877466Y849376D02*
X885334D01*
X879856Y846201D02*
Y865759D01*
X877824Y846201D02*
Y865759D01*
X877466Y846201D02*
Y865759D01*
X786384Y851583D02*
Y875304D01*
X784527Y853440D02*
X789434D01*
X784352Y853615D02*
Y875304D01*
X780884Y857084D02*
X789434Y848533D01*
X786559Y851408D02*
X789434D01*
X788416Y849551D02*
Y875304D01*
X877466Y847344D02*
X885334D01*
X877466Y846201D02*
X885334D01*
X788591Y849376D02*
X789434D01*
X772160Y834771D02*
Y835993D01*
X881428Y813689D02*
X894038D01*
X770128Y834771D02*
Y838025D01*
X763126Y837184D02*
X770969D01*
X735616Y835152D02*
X773001D01*
X763126Y839216D02*
X768937D01*
X766524Y841629D02*
X773382Y834771D01*
X735563D02*
X773382D01*
X768096D02*
Y840057D01*
X763126Y841629D02*
X766524D01*
X763126Y841248D02*
X766905D01*
X763126Y837074D02*
Y841629D01*
X766064Y834771D02*
Y841629D01*
X764032Y834771D02*
Y841629D01*
X762000Y834771D02*
Y837074D01*
X706878Y841248D02*
X707658D01*
X707136Y840661D02*
Y841484D01*
X735725Y837074D02*
X763126D01*
X759968Y834771D02*
Y837074D01*
X757936Y834771D02*
Y837074D01*
X755904Y834771D02*
Y837074D01*
X753872Y834771D02*
Y837074D01*
X751840Y834771D02*
Y837074D01*
X749808Y834771D02*
Y837074D01*
X747776Y834771D02*
Y837074D01*
X745744Y834771D02*
Y837074D01*
X743712Y834771D02*
Y837074D01*
X741680Y834771D02*
Y837074D01*
X739648Y834771D02*
Y837074D01*
X737616Y834771D02*
Y837074D01*
X705104Y892536D02*
Y914400D01*
X703072Y892536D02*
Y914400D01*
X701040Y892536D02*
Y914400D01*
X699008Y892536D02*
Y914400D01*
X696976Y892536D02*
Y914400D01*
X694944Y892536D02*
Y914400D01*
X692912Y892536D02*
Y914400D01*
X690880Y892536D02*
Y914400D01*
X688848Y892536D02*
Y914400D01*
X686816Y892536D02*
Y914400D01*
X684784Y892536D02*
Y914400D01*
X682752Y892536D02*
Y914400D01*
X680720Y892536D02*
Y914400D01*
X678688Y892536D02*
Y914400D01*
X676656Y892536D02*
Y914400D01*
X674624Y892536D02*
Y914400D01*
X672592Y892536D02*
Y914400D01*
X670560Y892536D02*
Y914400D01*
X668528Y892536D02*
Y914400D01*
X666496Y892536D02*
Y914400D01*
X664464Y892536D02*
Y914400D01*
X662432Y892536D02*
Y914400D01*
X660400Y892536D02*
Y914400D01*
X658368Y892536D02*
Y914400D01*
X656336Y892536D02*
Y914400D01*
X654304Y892536D02*
Y914400D01*
X652272Y892536D02*
Y914400D01*
X650240Y892536D02*
Y914400D01*
X648208Y892536D02*
Y914400D01*
X646176Y892536D02*
Y914400D01*
X644144Y892536D02*
Y914400D01*
X642112Y892536D02*
Y914400D01*
X640080Y892536D02*
Y914400D01*
X638048Y892536D02*
Y914400D01*
X636016Y892536D02*
Y914400D01*
X633984Y892536D02*
Y914400D01*
X631952Y892536D02*
Y914400D01*
X629920Y892536D02*
Y914400D01*
X627888Y892536D02*
Y914400D01*
X625856Y892536D02*
Y914400D01*
X623824Y892536D02*
Y914400D01*
X621792Y892536D02*
Y914400D01*
X619760Y892536D02*
Y914400D01*
X617728Y892536D02*
Y914400D01*
X615696Y892536D02*
Y914400D01*
X613664Y892536D02*
Y914400D01*
X611632Y892536D02*
Y914400D01*
X609600Y892536D02*
Y914400D01*
X607568Y892536D02*
Y914400D01*
X605536Y892536D02*
Y914400D01*
X603504Y892536D02*
Y914400D01*
X601472Y892536D02*
Y914400D01*
X599440Y892536D02*
Y914400D01*
X597408Y892536D02*
Y914400D01*
X594077Y858803D02*
X610579Y875304D01*
X609600Y874325D02*
Y875304D01*
X595376Y892536D02*
Y914400D01*
X593344Y892536D02*
Y914400D01*
X591312Y892536D02*
Y914400D01*
X589280Y892536D02*
Y914400D01*
X587248Y892536D02*
Y914400D01*
X585216Y892536D02*
Y914400D01*
X583184Y892536D02*
Y914400D01*
X607568Y872293D02*
Y875304D01*
X605536Y870261D02*
Y875304D01*
X603504Y868229D02*
Y875304D01*
X601472Y866197D02*
Y875304D01*
X599440Y864165D02*
Y875304D01*
X597408Y862133D02*
Y875304D01*
X595376Y860101D02*
Y875304D01*
X593344Y857994D02*
Y875304D01*
X591312Y854231D02*
Y875304D01*
X589280Y831145D02*
Y875304D01*
X587248Y829113D02*
Y875304D01*
X585216Y827081D02*
Y875304D01*
X581152Y892536D02*
Y914400D01*
X579120Y892536D02*
Y914400D01*
X577088Y892536D02*
Y914400D01*
X575056Y892536D02*
Y914400D01*
X573024Y892536D02*
Y914400D01*
X570992Y892536D02*
Y914400D01*
X568960Y892536D02*
Y914400D01*
X566928Y892536D02*
Y914400D01*
X564896Y892536D02*
Y914400D01*
X562864Y892536D02*
Y914400D01*
X560832Y892536D02*
Y914400D01*
X558800Y892536D02*
Y914400D01*
X583184Y825049D02*
Y875304D01*
X575056Y835014D02*
Y875304D01*
X573024Y841215D02*
Y875304D01*
X581152Y823017D02*
Y875304D01*
X579120Y820985D02*
Y875304D01*
X577088Y818953D02*
Y875304D01*
X564896Y848308D02*
Y875304D01*
X562864Y848973D02*
Y875304D01*
X560832Y849359D02*
Y875304D01*
X570992Y844038D02*
Y875304D01*
X568960Y845950D02*
Y875304D01*
X566928Y847325D02*
Y875304D01*
X556768Y892536D02*
Y914400D01*
X554736Y892536D02*
Y914400D01*
X552704Y892536D02*
Y914400D01*
X550672Y892536D02*
Y914400D01*
X548640Y892536D02*
Y914400D01*
X546608Y892536D02*
Y914400D01*
X544576Y892536D02*
Y914400D01*
X542544Y892536D02*
Y914400D01*
X540512Y892536D02*
Y914400D01*
X538480Y892536D02*
Y914400D01*
X536448Y892536D02*
Y914400D01*
X534416Y892536D02*
Y914400D01*
X532384Y892536D02*
Y914400D01*
X530352Y892536D02*
Y914400D01*
X528320Y892536D02*
Y914400D01*
X526288Y892536D02*
Y914400D01*
X524256Y892536D02*
Y914400D01*
X522224Y892536D02*
Y914400D01*
X520192Y892536D02*
Y914400D01*
X518160Y892536D02*
Y914400D01*
X516128Y892536D02*
Y914400D01*
X514096Y892536D02*
Y914400D01*
X512064Y892536D02*
Y914400D01*
X510032Y892536D02*
Y914400D01*
X508000Y892536D02*
Y914400D01*
X505968Y892536D02*
Y914400D01*
X503936Y892536D02*
Y914400D01*
X501904Y892536D02*
Y914400D01*
X499872Y892536D02*
Y914400D01*
X497840Y892536D02*
Y914400D01*
X495808Y892536D02*
Y914400D01*
X493776Y892536D02*
Y914400D01*
X491744Y892536D02*
Y914400D01*
X489712Y892536D02*
Y914400D01*
X487680Y892536D02*
Y914400D01*
X485648Y892536D02*
Y914400D01*
X483616Y892536D02*
Y914400D01*
X481584Y892536D02*
Y914400D01*
X479552Y892536D02*
Y914400D01*
X477520Y892536D02*
Y914400D01*
X475488Y892536D02*
Y914400D01*
X473456Y892536D02*
Y914400D01*
X471424Y892536D02*
Y914400D01*
X469392Y892536D02*
Y914400D01*
X467360Y892536D02*
Y914400D01*
X465328Y892555D02*
Y914400D01*
X463296Y892677D02*
Y914400D01*
X461264Y892621D02*
Y914400D01*
X459232Y892388D02*
Y914400D01*
X457200Y891970D02*
Y914400D01*
X558800Y849486D02*
Y875304D01*
X556768Y849359D02*
Y875304D01*
X554736Y848973D02*
Y875304D01*
X552704Y848308D02*
Y875304D01*
X550672Y847325D02*
Y875304D01*
X548640Y845950D02*
Y875304D01*
X546608Y844038D02*
Y875304D01*
X465408D02*
X610579D01*
X544576Y843661D02*
Y875304D01*
X542544Y843661D02*
Y875304D01*
X540512Y843661D02*
Y875304D01*
X538480Y843661D02*
Y875304D01*
X536448Y843485D02*
Y875304D01*
X534416Y842940D02*
Y875304D01*
X532384Y841966D02*
Y875304D01*
X530352Y840419D02*
Y875304D01*
X528320Y838393D02*
Y875304D01*
X526288Y836361D02*
Y875304D01*
X524256Y834329D02*
Y875304D01*
X522224Y832297D02*
Y875304D01*
X514096Y832772D02*
Y875304D01*
X512064Y835353D02*
Y875304D01*
X520192Y830114D02*
Y875304D01*
X518160Y825936D02*
Y875304D01*
X516128Y829506D02*
Y875304D01*
X455168Y891358D02*
Y914400D01*
X453136Y890535D02*
Y914400D01*
X451104Y889475D02*
Y914400D01*
X449072Y888137D02*
Y914400D01*
X447040Y886458D02*
Y914400D01*
X445008Y884323D02*
Y914400D01*
X405130Y892048D02*
X457519D01*
X405130Y890016D02*
X452081D01*
X405130Y887984D02*
X448866D01*
X442976Y881495D02*
Y914400D01*
X440944Y877264D02*
Y914400D01*
X503936Y842057D02*
Y875304D01*
X501904Y843143D02*
Y875304D01*
X499872Y844052D02*
Y875304D01*
X510032Y837478D02*
Y875304D01*
X508000Y839262D02*
Y875304D01*
X505968Y840774D02*
Y875304D01*
X405130Y885952D02*
X446510D01*
X405130Y883920D02*
X444678D01*
X405130Y881888D02*
X443222D01*
X405130Y879856D02*
X442063D01*
X405130Y877824D02*
X441155D01*
X405130Y875792D02*
X440466D01*
X706703Y841094D02*
X707415Y840382D01*
X681478Y841248D02*
X685042D01*
X682752Y830755D02*
Y842522D01*
X685419Y836930D02*
Y840921D01*
X681101Y832406D02*
Y840921D01*
X629469Y862584D02*
X656987D01*
X656336Y861535D02*
Y862584D01*
X628453Y861568D02*
X656355D01*
X613156Y841248D02*
X659642D01*
X613156Y843280D02*
X657729D01*
X681101Y839216D02*
X685419D01*
X681101Y837184D02*
X685419D01*
X681101Y835152D02*
X685570D01*
X682419Y831088D02*
X687186D01*
X613156Y839216D02*
X660019D01*
X613156Y837184D02*
X660019D01*
X613156Y835152D02*
X660019D01*
X681101Y833120D02*
X686132D01*
X613156D02*
X660019D01*
X613156Y831088D02*
X660019D01*
X626421Y859536D02*
X655372D01*
X624389Y857504D02*
X654707D01*
X654304Y855334D02*
Y862584D01*
X622357Y855472D02*
X654321D01*
X620325Y853440D02*
X654194D01*
X618293Y851408D02*
X654321D01*
X616261Y849376D02*
X654707D01*
X560694D02*
X590804D01*
X613156Y846271D02*
X629469Y862584D01*
X590804Y832669D02*
Y850900D01*
X614229Y847344D02*
X655372D01*
X613156Y845312D02*
X656355D01*
X574653Y837184D02*
X590804D01*
X575039Y835152D02*
X590804D01*
X575166Y833120D02*
X590804D01*
X575039Y831088D02*
X589223D01*
X566895Y847344D02*
X590804D01*
X569718Y845312D02*
X590804D01*
X538480Y843661D02*
X546281D01*
X571631Y843280D02*
X590804D01*
X573005Y841248D02*
X590804D01*
X573988Y839216D02*
X590804D01*
X684451Y829056D02*
X688927D01*
X686483Y827024D02*
X690959D01*
X684784Y828723D02*
Y841484D01*
X686816Y826691D02*
Y831686D01*
X688517Y829465D02*
X693372Y824611D01*
X690880D02*
Y827103D01*
X688848Y824659D02*
Y829135D01*
X660019Y828040D02*
Y840921D01*
X613156Y829056D02*
X660019D01*
X613110Y827024D02*
X660068D01*
X681101Y832406D02*
X688896Y824611D01*
X693372D01*
X688515Y824992D02*
X692991D01*
X612732D02*
X660469D01*
X666496Y812546D02*
Y817197D01*
X668528Y812546D02*
Y815165D01*
X664464Y812546D02*
Y819229D01*
X610601Y820928D02*
X662780D01*
X608641Y818896D02*
X664797D01*
X611935Y822960D02*
X661324D01*
X604577Y814832D02*
X668861D01*
X602545Y812800D02*
X670893D01*
X606609Y816864D02*
X666829D01*
X613156Y828040D02*
Y846271D01*
X574653Y829056D02*
X587191D01*
X577031Y818896D02*
X590804Y832669D01*
X575056Y818896D02*
Y831226D01*
X573988Y827024D02*
X585159D01*
X573005Y824992D02*
X583127D01*
X571631Y822960D02*
X581095D01*
X573024Y818896D02*
Y825025D01*
X570992Y818896D02*
Y822202D01*
X569718Y820928D02*
X579063D01*
X570756Y818896D02*
X577031D01*
X570756D02*
X577031D01*
X546608Y818638D02*
Y820039D01*
X544576Y815815D02*
Y820039D01*
X543372D02*
X548026D01*
X542229Y818896D02*
X546844D01*
X541401Y818068D02*
X543372Y820039D01*
X541401Y816864D02*
X545227D01*
X541401Y814832D02*
X544060D01*
X541401Y812800D02*
X543242D01*
X491744Y846180D02*
Y875304D01*
X489712Y846372D02*
Y875304D01*
X487680Y846436D02*
Y875304D01*
X485648Y846372D02*
Y875304D01*
X497840Y844800D02*
Y875304D01*
X495808Y845399D02*
Y875304D01*
X493776Y845857D02*
Y875304D01*
X458748Y873760D02*
X609035D01*
X457321Y871728D02*
X607003D01*
X456926Y869696D02*
X604971D01*
X483616Y846180D02*
Y875304D01*
X456926Y867664D02*
X602939D01*
X481584Y845857D02*
Y875304D01*
X456926Y865632D02*
X600907D01*
X456926Y863600D02*
X598875D01*
X456926Y861568D02*
X596843D01*
X456926Y859536D02*
X594811D01*
X496135Y845312D02*
X547882D01*
X501620Y843280D02*
X535504D01*
X456926Y857504D02*
X592964D01*
X456926Y855472D02*
X591782D01*
X456926Y853440D02*
X591096D01*
X456926Y851408D02*
X590816D01*
X456926Y849376D02*
X556906D01*
X456926Y847344D02*
X550705D01*
X456926Y863600D02*
Y870434D01*
X479552Y845399D02*
Y875304D01*
X477520Y844800D02*
Y875304D01*
X475488Y844052D02*
Y875304D01*
X405130Y873760D02*
X439977D01*
X405130Y871728D02*
X439689D01*
X405130Y869696D02*
X439694D01*
X405130Y867664D02*
X439694D01*
Y863600D02*
Y870633D01*
X405130Y865632D02*
X439694D01*
X405130Y863600D02*
X439694D01*
X405130Y861568D02*
X439694D01*
X405130Y859536D02*
X439694D01*
X456926Y845312D02*
X479225D01*
X405130Y857504D02*
X439694D01*
X405130Y855472D02*
X439694D01*
X405130Y853440D02*
X439694D01*
X405130Y851408D02*
X439694D01*
X405130Y849376D02*
X439694D01*
X405130Y847344D02*
X439694D01*
X405130Y845312D02*
X439694D01*
X473456Y843143D02*
Y875304D01*
X505256Y841248D02*
X531326D01*
X471424Y842057D02*
Y875304D01*
X469392Y840774D02*
Y875304D01*
X521238Y831312D02*
X530128Y840202D01*
X456926Y843280D02*
X473740D01*
X456926Y841248D02*
X470104D01*
X467360Y839262D02*
Y875304D01*
X465328Y837478D02*
Y875299D01*
X463296Y835353D02*
Y875396D01*
X513846Y833120D02*
X523047D01*
X515211Y831088D02*
X521021D01*
X516368Y829056D02*
X519474D01*
X517341Y827024D02*
X518500D01*
X508057Y839216D02*
X529143D01*
X510336Y837184D02*
X527111D01*
X456926Y839216D02*
X467303D01*
X456926Y837184D02*
X465024D01*
X512238Y835152D02*
X525079D01*
X456926D02*
X463122D01*
X461264Y832772D02*
Y875180D01*
X456926Y833120D02*
X461514D01*
X456926Y831088D02*
X460149D01*
X459232Y829506D02*
Y874168D01*
X457200Y824957D02*
Y871427D01*
X456926Y824157D02*
Y863600D01*
X405130Y843280D02*
X439694D01*
X405130Y841248D02*
X439694D01*
X405130Y839216D02*
X439694D01*
X405130Y837184D02*
X439694D01*
X405130Y835152D02*
X439694D01*
X405130Y833120D02*
X439694D01*
X405130Y831088D02*
X439694D01*
X456926Y829056D02*
X458992D01*
X405130D02*
X439694D01*
X456926Y827024D02*
X458019D01*
X405130D02*
X439694D01*
X405130Y824992D02*
X439694D01*
X405130Y822960D02*
X439694D01*
X405130Y820928D02*
X439694D01*
X405130Y818896D02*
X439694D01*
X405130Y816864D02*
X439694D01*
X405130Y814832D02*
X439694D01*
X405130Y812800D02*
X439694D01*
X938560Y796544D02*
X941040D01*
X920496Y799834D02*
Y800989D01*
X940816Y796320D02*
Y797611D01*
X938784Y796320D02*
Y797245D01*
X912241Y800989D02*
X924325D01*
X912241Y800608D02*
X922645D01*
X918464Y798762D02*
Y800989D01*
X912241Y798576D02*
X918171D01*
X916432Y797271D02*
Y800989D01*
X1065911Y772160D02*
Y773531D01*
Y772160D02*
X1067689D01*
X1065713Y770128D02*
X1067689D01*
X1065096Y768096D02*
X1067689D01*
X1063969Y766064D02*
X1067689D01*
X1062149Y764032D02*
X1067689D01*
X1060117Y762000D02*
X1067689D01*
X1058085Y759968D02*
X1067689D01*
X892048Y810687D02*
Y813689D01*
X887984Y807108D02*
Y813689D01*
X888326Y806704D02*
X891162D01*
X890016Y803703D02*
Y813689D01*
X884349Y810768D02*
X892084D01*
X886381Y808736D02*
X891410D01*
X883920Y811197D02*
Y813689D01*
X881428D02*
X887553Y807564D01*
X885952Y809165D02*
Y813689D01*
X912241Y797379D02*
Y800989D01*
X912368Y797271D02*
Y800989D01*
X891159Y797379D02*
Y806450D01*
X914400Y795183D02*
Y800989D01*
X913160Y796544D02*
X915640D01*
X889608Y804672D02*
X891159D01*
X890340Y802640D02*
X891159D01*
X890651Y796933D02*
Y800100D01*
X867271Y768096D02*
X871894D01*
X1066800Y757916D02*
Y774537D01*
X1067689Y757916D02*
Y773531D01*
X1064768Y757916D02*
Y767386D01*
X1062736Y757916D02*
Y764619D01*
X1068832Y689610D02*
Y731794D01*
X1066800Y689610D02*
Y731794D01*
X1060704Y757916D02*
Y762587D01*
X1057755Y759637D02*
X1062813Y764696D01*
X1058672Y757916D02*
Y760555D01*
X1055499Y757916D02*
X1067689D01*
X1055534Y757936D02*
X1067689D01*
X1064768Y689610D02*
Y731794D01*
X1062736Y689610D02*
Y731794D01*
X1060704Y689610D02*
Y731794D01*
X1058672Y689610D02*
Y731794D01*
X1056640Y689610D02*
Y731794D01*
X1054608Y689610D02*
Y731794D01*
X1052576Y689610D02*
Y731794D01*
X1050544Y689610D02*
Y731794D01*
X1048512Y689610D02*
Y731794D01*
X1046480Y689610D02*
Y731794D01*
X1044448Y689610D02*
Y731794D01*
X1042416Y689610D02*
Y731794D01*
X872667Y767235D02*
X880266Y759637D01*
X875792Y757916D02*
Y764111D01*
X873760Y757916D02*
Y766143D01*
X869696Y757916D02*
Y769569D01*
X871728Y757916D02*
Y768308D01*
X867664Y757916D02*
Y768292D01*
X865632Y757916D02*
Y767431D01*
X863600Y757916D02*
Y766910D01*
X861568Y757916D02*
Y766693D01*
X859536Y757916D02*
Y766765D01*
X857504Y757916D02*
Y767131D01*
X855472Y757916D02*
Y767815D01*
X1040384Y689610D02*
Y731794D01*
X1038352Y689610D02*
Y731794D01*
X1036320Y689610D02*
Y731794D01*
X1034288Y689610D02*
Y731794D01*
X1032256Y689610D02*
Y731794D01*
X1030224Y689610D02*
Y731794D01*
X879856Y757916D02*
Y760047D01*
X1028192Y689610D02*
Y731794D01*
X1026160Y689610D02*
Y731794D01*
X877824Y757916D02*
Y762079D01*
X846271Y790194D02*
X848479Y787986D01*
X774419Y790194D02*
X846271D01*
X847344Y785322D02*
Y789121D01*
X845312Y757916D02*
Y790194D01*
X847344Y757916D02*
Y776778D01*
X843280Y757916D02*
Y790194D01*
X774419Y788416D02*
X848049D01*
X774419Y786384D02*
X847721D01*
X774419Y784352D02*
X847079D01*
X774419Y782320D02*
X846750D01*
X774419Y780288D02*
X846714D01*
X774419Y778256D02*
X846968D01*
X774419Y774192D02*
X848437D01*
X774419Y772160D02*
X849775D01*
X774419Y776224D02*
X847529D01*
X851408Y757916D02*
Y770409D01*
X853440Y757916D02*
Y768871D01*
X849376Y757916D02*
Y772691D01*
X774419Y768096D02*
X854849D01*
X774419Y766064D02*
X873839D01*
X774419Y770128D02*
X851728D01*
X735670Y762000D02*
X877903D01*
X735706Y759968D02*
X879935D01*
X774419Y764032D02*
X875871D01*
X841248Y757916D02*
Y790194D01*
X839216Y757916D02*
Y790194D01*
X837184Y757916D02*
Y790194D01*
X835152Y757916D02*
Y790194D01*
X833120Y757916D02*
Y790194D01*
X831088Y757916D02*
Y790194D01*
X829056Y757916D02*
Y790194D01*
X663117Y820575D02*
X671147Y812546D01*
X605790D02*
X671147D01*
X610419Y790194D02*
X667004D01*
X827024Y757916D02*
Y790194D01*
X774419Y763524D02*
Y790194D01*
X667004Y772541D02*
Y790194D01*
X608641Y788416D02*
X667004D01*
X735452Y763524D02*
X774419D01*
X606609Y786384D02*
X667004D01*
X735584Y762745D02*
Y763524D01*
X604577Y784352D02*
X667004D01*
X602545Y782320D02*
X667004D01*
X600513Y780288D02*
X667004D01*
X598481Y778256D02*
X667004D01*
X596449Y776224D02*
X667004D01*
X594417Y774192D02*
X667004D01*
X824992Y757916D02*
Y790194D01*
X822960Y757916D02*
Y790194D01*
X820928Y757916D02*
Y790194D01*
X818896Y757916D02*
Y790194D01*
X816864Y757916D02*
Y790194D01*
X814832Y757916D02*
Y790194D01*
X812800Y757916D02*
Y790194D01*
X810768Y757916D02*
Y790194D01*
X808736Y757916D02*
Y790194D01*
X806704Y757916D02*
Y790194D01*
X804672Y757916D02*
Y790194D01*
X802640Y757916D02*
Y790194D01*
X800608Y757916D02*
Y790194D01*
X798576Y757916D02*
Y790194D01*
X796544Y757916D02*
Y790194D01*
X794512Y757916D02*
Y790194D01*
X792480Y757916D02*
Y790194D01*
X825500Y731794D02*
X1617297D01*
X790448Y757916D02*
Y790194D01*
X788416Y757916D02*
Y790194D01*
X786384Y757916D02*
Y790194D01*
X784352Y757916D02*
Y790194D01*
X736541Y757916D02*
X882521D01*
X405130Y731520D02*
X1673860D01*
X736521Y757936D02*
X882486D01*
X782320Y757916D02*
Y790194D01*
X780288Y757916D02*
Y790194D01*
X778256Y757916D02*
Y790194D01*
X776224Y757916D02*
Y790194D01*
X774192Y757916D02*
Y763524D01*
X772160Y757916D02*
Y763524D01*
X770128Y757916D02*
Y763524D01*
X768096Y757916D02*
Y763524D01*
X766064Y757916D02*
Y763524D01*
X764032Y757916D02*
Y763524D01*
X762000Y757916D02*
Y763524D01*
X759968Y757916D02*
Y763524D01*
X757936Y757916D02*
Y763524D01*
X755904Y757916D02*
Y763524D01*
X753872Y757916D02*
Y763524D01*
X751840Y757916D02*
Y763524D01*
X749808Y757916D02*
Y763524D01*
X747776Y757916D02*
Y763524D01*
X745744Y757916D02*
Y763524D01*
X743712Y757916D02*
Y763524D01*
X741680Y757916D02*
Y763524D01*
X739648Y757916D02*
Y763524D01*
X737616Y757916D02*
Y763524D01*
X735603Y758854D02*
X736541Y757916D01*
X1024128Y689610D02*
Y731794D01*
X1022096Y689610D02*
Y731794D01*
X1020064Y689610D02*
Y731794D01*
X1018032Y689610D02*
Y731794D01*
X1016000Y689610D02*
Y731794D01*
X1013968Y689610D02*
Y731794D01*
X1011936Y689610D02*
Y731794D01*
X1009904Y689610D02*
Y731794D01*
X1007872Y689610D02*
Y731794D01*
X1005840Y689610D02*
Y731794D01*
X1003808Y689610D02*
Y731794D01*
X1001776Y689610D02*
Y731794D01*
X999744Y689610D02*
Y731794D01*
X997712Y689610D02*
Y731794D01*
X995680Y689610D02*
Y731794D01*
X993648Y689610D02*
Y731794D01*
X991616Y689610D02*
Y731794D01*
X989584Y689610D02*
Y731794D01*
X987552Y689610D02*
Y731794D01*
X985520Y689610D02*
Y731794D01*
X983488Y689610D02*
Y731794D01*
X981456Y689610D02*
Y731794D01*
X979424Y689610D02*
Y731794D01*
X977392Y689610D02*
Y731794D01*
X975360Y689610D02*
Y731794D01*
X973328Y689610D02*
Y731794D01*
X971296Y689610D02*
Y731794D01*
X969264Y689610D02*
Y731794D01*
X967232Y689610D02*
Y731794D01*
X965200Y689610D02*
Y731794D01*
X963168Y689610D02*
Y731794D01*
X961136Y689610D02*
Y731794D01*
X959104Y689610D02*
Y731794D01*
X957072Y689610D02*
Y731794D01*
X955040Y689610D02*
Y731794D01*
X953008Y689610D02*
Y731794D01*
X950976Y689610D02*
Y731794D01*
X948944Y689610D02*
Y731794D01*
X946912Y689610D02*
Y731794D01*
X944880Y689610D02*
Y731794D01*
X942848Y689610D02*
Y731794D01*
X940816Y689610D02*
Y731794D01*
X938784Y689610D02*
Y731794D01*
X936752Y689610D02*
Y731794D01*
X934720Y689610D02*
Y731794D01*
X932688Y689610D02*
Y731794D01*
X930656Y689610D02*
Y731794D01*
X928624Y689610D02*
Y731794D01*
X926592Y689610D02*
Y731794D01*
X924560Y689610D02*
Y731794D01*
X922528Y689610D02*
Y731794D01*
X920496Y689610D02*
Y731794D01*
X918464Y689610D02*
Y731794D01*
X916432Y689610D02*
Y731794D01*
X914400Y689610D02*
Y731794D01*
X912368Y689610D02*
Y731794D01*
X910336Y689610D02*
Y731794D01*
X908304Y689610D02*
Y731794D01*
X906272Y689610D02*
Y731794D01*
X904240Y689610D02*
Y731794D01*
X902208Y689610D02*
Y731794D01*
X900176Y689610D02*
Y731794D01*
X898144Y689610D02*
Y731794D01*
X896112Y689610D02*
Y731794D01*
X894080Y689610D02*
Y731794D01*
X892048Y689610D02*
Y731794D01*
X890016Y689610D02*
Y731794D01*
X887984Y689610D02*
Y731794D01*
X885952Y689610D02*
Y731794D01*
X883920Y689610D02*
Y731794D01*
X881888Y689610D02*
Y731794D01*
X879856Y689610D02*
Y731794D01*
X877824Y689610D02*
Y731794D01*
X875792Y689610D02*
Y731794D01*
X873760Y689610D02*
Y731794D01*
X871728Y689610D02*
Y731794D01*
X869696Y689610D02*
Y731794D01*
X867664Y689610D02*
Y731794D01*
X865632Y689610D02*
Y731794D01*
X863600Y689610D02*
Y731794D01*
X861568Y689610D02*
Y731794D01*
X859536Y689610D02*
Y731794D01*
X857504Y689610D02*
Y731794D01*
X855472Y689610D02*
Y731794D01*
X853440Y689610D02*
Y731794D01*
X851408Y689610D02*
Y731794D01*
X849376Y689610D02*
Y731794D01*
X847344Y689610D02*
Y731794D01*
X845312Y689610D02*
Y731794D01*
X843280Y689610D02*
Y731794D01*
X841248Y689610D02*
Y731794D01*
X839216Y689610D02*
Y731794D01*
X837184Y689610D02*
Y731794D01*
X835152Y689610D02*
Y731794D01*
X833120Y689610D02*
Y731794D01*
X831088Y689610D02*
Y731794D01*
X829056Y689610D02*
Y731794D01*
X827024Y689610D02*
Y731794D01*
X824992Y689610D02*
Y731794D01*
X405130Y729488D02*
X1673860D01*
X405130Y727456D02*
X1673860D01*
X467360Y731794D02*
X825500D01*
X822960Y689610D02*
Y731794D01*
X820928Y689610D02*
Y731794D01*
X818896Y689610D02*
Y731794D01*
X816864Y689610D02*
Y731794D01*
X405130Y725424D02*
X1673860D01*
X405130Y723392D02*
X1673860D01*
X405130Y721360D02*
X1673860D01*
X405130Y719328D02*
X1673860D01*
X405130Y717296D02*
X1673860D01*
X405130Y715264D02*
X1673860D01*
X405130Y713232D02*
X1673860D01*
X405130Y711200D02*
X1673860D01*
X405130Y709168D02*
X1673860D01*
X405130Y707136D02*
X1673860D01*
X405130Y705104D02*
X1673860D01*
X405130Y703072D02*
X1673860D01*
X405130Y701040D02*
X1673860D01*
X405130Y699008D02*
X1673860D01*
X405130Y696976D02*
X1673860D01*
X405130Y694944D02*
X1673860D01*
X405130Y692912D02*
X1673860D01*
X405130Y690880D02*
X1673860D01*
X814832Y689610D02*
Y731794D01*
X812800Y689610D02*
Y731794D01*
X810768Y689610D02*
Y731794D01*
X808736Y689610D02*
Y731794D01*
X806704Y689610D02*
Y731794D01*
X804672Y689610D02*
Y731794D01*
X802640Y689610D02*
Y731794D01*
X800608Y689610D02*
Y731794D01*
X798576Y689610D02*
Y731794D01*
X796544Y689610D02*
Y731794D01*
X794512Y689610D02*
Y731794D01*
X792480Y689610D02*
Y731794D01*
X790448Y689610D02*
Y731794D01*
X788416Y689610D02*
Y731794D01*
X786384Y689610D02*
Y731794D01*
X784352Y689610D02*
Y731794D01*
X782320Y689610D02*
Y731794D01*
X780288Y689610D02*
Y731794D01*
X778256Y689610D02*
Y731794D01*
X776224Y689610D02*
Y731794D01*
X774192Y689610D02*
Y731794D01*
X772160Y689610D02*
Y731794D01*
X770128Y689610D02*
Y731794D01*
X768096Y689610D02*
Y731794D01*
X766064Y689610D02*
Y731794D01*
X764032Y689610D02*
Y731794D01*
X762000Y689610D02*
Y731794D01*
X759968Y689610D02*
Y731794D01*
X757936Y689610D02*
Y731794D01*
X755904Y689610D02*
Y731794D01*
X753872Y689610D02*
Y731794D01*
X751840Y689610D02*
Y731794D01*
X749808Y689610D02*
Y731794D01*
X747776Y689610D02*
Y731794D01*
X745744Y689610D02*
Y731794D01*
X743712Y689610D02*
Y731794D01*
X741680Y689610D02*
Y731794D01*
X739648Y689610D02*
Y731794D01*
X737616Y689610D02*
Y731794D01*
X735584Y689610D02*
Y731794D01*
X733552Y689610D02*
Y731794D01*
X731520Y689610D02*
Y731794D01*
X729488Y689610D02*
Y731794D01*
X727456Y689610D02*
Y731794D01*
X725424Y689610D02*
Y731794D01*
X723392Y689610D02*
Y731794D01*
X721360Y689610D02*
Y731794D01*
X719328Y689610D02*
Y731794D01*
X405130Y689610D02*
X1673860D01*
X717296D02*
Y731794D01*
X715264Y689610D02*
Y731794D01*
X713232Y689610D02*
Y731794D01*
X711200Y689610D02*
Y731794D01*
X709168Y689610D02*
Y731794D01*
X707136Y689610D02*
Y731794D01*
X705104Y689610D02*
Y731794D01*
X703072Y689610D02*
Y731794D01*
X701040Y689610D02*
Y731794D01*
X699008Y689610D02*
Y731794D01*
X696976Y689610D02*
Y731794D01*
X694944Y689610D02*
Y731794D01*
X692912Y689610D02*
Y731794D01*
X690880Y689610D02*
Y731794D01*
X688848Y689610D02*
Y731794D01*
X686816Y689610D02*
Y731794D01*
X684784Y689610D02*
Y731794D01*
X682752Y689610D02*
Y731794D01*
X680720Y689610D02*
Y731794D01*
X678688Y689610D02*
Y731794D01*
X676656Y689610D02*
Y731794D01*
X674624Y689610D02*
Y731794D01*
X672592Y689610D02*
Y731794D01*
X670560Y689610D02*
Y731794D01*
X668528Y689610D02*
Y731794D01*
X652272Y812546D02*
Y862584D01*
X650240Y812546D02*
Y862584D01*
X648208Y812546D02*
Y862584D01*
X646176Y812546D02*
Y862584D01*
X644144Y812546D02*
Y862584D01*
X642112Y812546D02*
Y862584D01*
X640080Y812546D02*
Y862584D01*
X638048Y812546D02*
Y862584D01*
X636016Y812546D02*
Y862584D01*
X633984Y812546D02*
Y862584D01*
X631952Y812546D02*
Y862584D01*
X629920Y812546D02*
Y862584D01*
X627888Y812546D02*
Y861003D01*
X660400Y812546D02*
Y825232D01*
X662432Y812546D02*
Y821328D01*
X658368Y812546D02*
Y842522D01*
X654304Y812546D02*
Y851546D01*
X656336Y812546D02*
Y845345D01*
X625856Y812546D02*
Y858971D01*
X623824Y812546D02*
Y856939D01*
X621792Y812546D02*
Y854907D01*
X619760Y812546D02*
Y852875D01*
X617728Y812546D02*
Y850843D01*
X615696Y812546D02*
Y848811D01*
X613664Y812546D02*
Y846779D01*
X611632Y812546D02*
Y822406D01*
X609600Y812546D02*
Y819855D01*
X607568Y812546D02*
Y817823D01*
X605536Y812543D02*
Y815791D01*
X601388Y811642D02*
X609883Y820137D01*
X603504Y812310D02*
Y813759D01*
X541401Y810768D02*
X542720D01*
X542544Y809614D02*
Y819211D01*
X541401Y808736D02*
X542466D01*
X541401Y806704D02*
X542466D01*
X544576Y798686D02*
Y799625D01*
X581660Y796544D02*
X585159D01*
X575166D02*
X581660D01*
X575166D02*
X581660D01*
X541401Y802640D02*
X543242D01*
X541401Y800608D02*
X544060D01*
X541401Y804672D02*
X542720D01*
X542544Y798686D02*
Y805826D01*
X542434Y798686D02*
X545153D01*
X541401Y798576D02*
X542434D01*
X666496Y772541D02*
Y790194D01*
X664464Y772541D02*
Y790194D01*
X662432Y772541D02*
Y790194D01*
X660400Y772541D02*
Y790194D01*
X658368Y772541D02*
Y790194D01*
X656336Y772541D02*
Y790194D01*
X654304Y772541D02*
Y790194D01*
X652272Y772541D02*
Y790194D01*
X650240Y772541D02*
Y790194D01*
X648208Y772541D02*
Y790194D01*
X646176Y772541D02*
Y790194D01*
X644144Y772541D02*
Y790194D01*
X642112Y772541D02*
Y790194D01*
X640080Y772541D02*
Y790194D01*
X638048Y772541D02*
Y790194D01*
X636016Y772541D02*
Y790194D01*
X633984Y772541D02*
Y790194D01*
X631952Y772541D02*
Y790194D01*
X629920Y772541D02*
Y790194D01*
X627888Y772365D02*
Y790194D01*
X625856Y771820D02*
Y790194D01*
X623824Y770846D02*
Y790194D01*
X621792Y769299D02*
Y790194D01*
X619760Y767273D02*
Y790194D01*
X617728Y766191D02*
Y790194D01*
X580841Y792226D02*
X586062Y797448D01*
X583184Y794569D02*
Y796648D01*
X581152Y792537D02*
Y796544D01*
X579120Y792226D02*
Y796544D01*
X577088Y792226D02*
Y796544D01*
X575166Y792226D02*
Y796544D01*
X541401D02*
X542434D01*
X575166Y794512D02*
X583127D01*
X541401D02*
X542434D01*
Y767129D02*
Y798686D01*
X575166Y792480D02*
X581095D01*
X541401Y768162D02*
Y818068D01*
X615696Y766191D02*
Y790194D01*
X613664Y766191D02*
Y790194D01*
X611632Y766191D02*
Y790194D01*
X609600Y766191D02*
Y789375D01*
X607568Y766191D02*
Y787343D01*
X605536Y766191D02*
Y785311D01*
X575166Y792226D02*
X580841D01*
X593373Y773147D02*
X610419Y790194D01*
X541401Y792480D02*
X542434D01*
X603504Y766191D02*
Y783279D01*
X601472Y766191D02*
Y781247D01*
X599440Y766191D02*
Y779215D01*
X516096Y798576D02*
X517779D01*
X514890Y796544D02*
X517779D01*
X513468Y794512D02*
X517779D01*
X511793Y792480D02*
X517779D01*
X541401Y790448D02*
X542434D01*
X541401Y788416D02*
X542434D01*
X541401Y786384D02*
X542434D01*
X509806Y790448D02*
X517779D01*
X456926D02*
X465554D01*
X456926Y792480D02*
X463567D01*
X507414Y788416D02*
X517779D01*
X456926D02*
X467946D01*
X504444Y786384D02*
X517779D01*
X541401Y784352D02*
X542434D01*
X500502D02*
X517779D01*
X541401Y782320D02*
X542434D01*
X541401Y780288D02*
X542434D01*
X541401Y778256D02*
X542434D01*
X456926Y784352D02*
X474858D01*
X493965Y782320D02*
X517779D01*
X456926Y786384D02*
X470916D01*
X456926Y780288D02*
X517779D01*
X456926Y778256D02*
X517779D01*
X456926Y782320D02*
X481395D01*
X456926Y800608D02*
X458246D01*
X456926Y798576D02*
X459264D01*
X405130Y810768D02*
X439694D01*
X405130Y808736D02*
X439694D01*
X456926Y793750D02*
Y803983D01*
Y796544D02*
X460470D01*
X439694Y793750D02*
Y863600D01*
X405130Y806704D02*
X439694D01*
X405130Y804672D02*
X439694D01*
X405130Y802640D02*
X439694D01*
X405130Y800608D02*
X439694D01*
X405130Y798576D02*
X439694D01*
X405130Y796544D02*
X439694D01*
X456926Y794512D02*
X461892D01*
X405130D02*
X439694D01*
X405130Y792480D02*
X439694D01*
X456926Y775970D02*
Y793750D01*
X405130Y790448D02*
X439694D01*
Y775970D02*
Y793750D01*
X405130Y788416D02*
X439694D01*
X405130Y786384D02*
X439694D01*
X405130Y784352D02*
X439694D01*
X405130Y782320D02*
X439694D01*
X405130Y780288D02*
X439694D01*
X405130Y778256D02*
X439694D01*
X517779Y763270D02*
Y802170D01*
X516128Y749026D02*
Y798634D01*
X514096Y749026D02*
Y795368D01*
X512064Y749026D02*
Y792787D01*
X510032Y749026D02*
Y790662D01*
X508000Y749026D02*
Y788878D01*
X505968Y749026D02*
Y787366D01*
X503936Y749026D02*
Y786083D01*
X501904Y749026D02*
Y784997D01*
X499872Y749026D02*
Y784088D01*
X471424Y749026D02*
Y786083D01*
X473456Y749026D02*
Y784997D01*
X469392Y749026D02*
Y787366D01*
X497840Y749026D02*
Y783340D01*
X495808Y749026D02*
Y782741D01*
X493776Y749026D02*
Y782283D01*
X491744Y749026D02*
Y781960D01*
X489712Y749026D02*
Y781768D01*
X487680Y749026D02*
Y781704D01*
X483616Y749026D02*
Y781960D01*
X485648Y749026D02*
Y781768D01*
X481584Y749026D02*
Y782283D01*
X479552Y749026D02*
Y782741D01*
X477520Y749026D02*
Y783340D01*
X475488Y749026D02*
Y784088D01*
X438912Y689610D02*
Y914400D01*
X436880Y689610D02*
Y914400D01*
X434848Y689610D02*
Y914400D01*
X432816Y689610D02*
Y914400D01*
X430784Y689610D02*
Y914400D01*
X428752Y689610D02*
Y914400D01*
X426720Y689610D02*
Y914400D01*
X424688Y689610D02*
Y914400D01*
X422656Y689610D02*
Y914400D01*
X420624Y689610D02*
Y914400D01*
X418592Y689610D02*
Y914400D01*
X416560Y689610D02*
Y914400D01*
X459232Y750162D02*
Y798634D01*
X461264Y749150D02*
Y795368D01*
X457200Y752903D02*
Y803183D01*
X465328Y749026D02*
Y790662D01*
X467360Y749026D02*
Y788878D01*
X463296Y749026D02*
Y792787D01*
X414528Y689610D02*
Y914400D01*
X412496Y689610D02*
Y914400D01*
X410464Y689610D02*
Y914400D01*
X408432Y689610D02*
Y914400D01*
X406400Y689610D02*
Y914400D01*
X405130Y689610D02*
Y914400D01*
X666496Y689610D02*
Y731794D01*
X664464Y689610D02*
Y731794D01*
X662432Y689610D02*
Y731794D01*
X660400Y689610D02*
Y731794D01*
X658368Y689610D02*
Y731794D01*
X656336Y689610D02*
Y731794D01*
X654304Y689610D02*
Y731794D01*
X629920Y772541D02*
X667004D01*
X592243Y772160D02*
X626944D01*
X587839Y770128D02*
X622766D01*
X652272Y689610D02*
Y731794D01*
X650240Y689610D02*
Y731794D01*
X648208Y689610D02*
Y731794D01*
X646176Y689610D02*
Y731794D01*
X644144Y689610D02*
Y731794D01*
X642112Y689610D02*
Y731794D01*
X640080Y689610D02*
Y731794D01*
X638048Y689610D02*
Y731794D01*
X636016Y689610D02*
Y731794D01*
X633984Y689610D02*
Y731794D01*
X631952Y689610D02*
Y731794D01*
X629920Y689610D02*
Y731794D01*
X627888Y689610D02*
Y731794D01*
X597408Y766191D02*
Y777183D01*
X595376Y766191D02*
Y775151D01*
X593344Y766191D02*
Y773119D01*
X591312Y766191D02*
Y771523D01*
X589280Y766191D02*
Y770544D01*
X587248Y766191D02*
Y770016D01*
X541401Y776224D02*
X542434D01*
X541401Y774192D02*
X542434D01*
X541401Y772160D02*
X542434D01*
X575166Y769874D02*
X585470D01*
X585216Y766191D02*
Y769874D01*
X583184Y766191D02*
Y769874D01*
X618678Y766191D02*
X621568Y769082D01*
X581152Y766191D02*
Y769874D01*
X579120Y766191D02*
Y769874D01*
X577088Y766191D02*
Y769874D01*
X575166Y766191D02*
Y769874D01*
X541401Y770128D02*
X542434D01*
X575166Y768096D02*
X620583D01*
X541467D02*
X542434D01*
Y767129D02*
X543372Y766191D01*
X575166D02*
X618678D01*
X541401Y768162D02*
X542434Y767129D01*
X625856Y689610D02*
Y731794D01*
X623824Y689610D02*
Y731794D01*
X621792Y689610D02*
Y731794D01*
X619760Y689610D02*
Y731794D01*
X617728Y689610D02*
Y731794D01*
X615696Y689610D02*
Y731794D01*
X613664Y689610D02*
Y731794D01*
X611632Y689610D02*
Y731794D01*
X609600Y689610D02*
Y731794D01*
X607568Y689610D02*
Y731794D01*
X605536Y689610D02*
Y731794D01*
X603504Y689610D02*
Y731794D01*
X601472Y689610D02*
Y731794D01*
X599440Y689610D02*
Y731794D01*
X597408Y689610D02*
Y731794D01*
X595376Y689610D02*
Y731794D01*
X593344Y689610D02*
Y731794D01*
X591312Y689610D02*
Y731794D01*
X589280Y689610D02*
Y731794D01*
X587248Y689610D02*
Y731794D01*
X585216Y689610D02*
Y731794D01*
X583184Y689610D02*
Y731794D01*
X581152Y689610D02*
Y731794D01*
X579120Y689610D02*
Y731794D01*
X577088Y689610D02*
Y731794D01*
X575056Y689610D02*
Y731794D01*
X573024Y689610D02*
Y731794D01*
X570992Y689610D02*
Y731794D01*
X568960Y689610D02*
Y731794D01*
X566928Y689610D02*
Y731794D01*
X564896Y689610D02*
Y731794D01*
X562864Y689610D02*
Y731794D01*
X560832Y689610D02*
Y731794D01*
X558800Y689610D02*
Y731794D01*
X556768Y689610D02*
Y731794D01*
X554736Y689610D02*
Y731794D01*
X552704Y689610D02*
Y731794D01*
X550672Y689610D02*
Y731794D01*
X548640Y689610D02*
Y731794D01*
X546608Y689610D02*
Y731794D01*
X544576Y689610D02*
Y731794D01*
X542544Y689610D02*
Y731794D01*
X540512Y689610D02*
Y731794D01*
X538480Y689610D02*
Y731794D01*
X536448Y689610D02*
Y731794D01*
X534416Y689610D02*
Y731794D01*
X532384Y689610D02*
Y731794D01*
X530352Y689610D02*
Y731794D01*
X528320Y689610D02*
Y731794D01*
X456926Y776224D02*
X517779D01*
X456926Y774192D02*
X517779D01*
X456926Y772160D02*
X517779D01*
X456926Y770128D02*
X517779D01*
X518160Y749026D02*
Y760294D01*
X456926Y768096D02*
X517779D01*
X456926Y766064D02*
X517779D01*
X456926Y764032D02*
X517779D01*
X456926Y762000D02*
X517848D01*
X456926Y757936D02*
X519052D01*
X456926Y759968D02*
X518250D01*
X524256Y749026D02*
Y751901D01*
X526288Y749026D02*
Y749869D01*
X522224Y749026D02*
Y753933D01*
X521238Y754918D02*
X527131Y749026D01*
X467360D02*
X527131D01*
X520192D02*
Y756116D01*
X456931Y753872D02*
X522285D01*
X457715Y751840D02*
X524317D01*
X456886Y755904D02*
X520357D01*
X459751Y749808D02*
X526349D01*
X461796Y749026D02*
X467360D01*
X456926Y772160D02*
Y775970D01*
X405130Y776224D02*
X439694D01*
X405130Y774192D02*
X439694D01*
Y772160D02*
Y775970D01*
X456926Y757508D02*
Y772160D01*
X439694Y757603D02*
Y772160D01*
X405130Y772160D02*
X439694D01*
X405130Y770128D02*
X439694D01*
X405130Y768096D02*
X439694D01*
X405130Y766064D02*
X439694D01*
X405130Y764032D02*
X439694D01*
X405130Y762000D02*
X439694D01*
X405130Y759968D02*
X439694D01*
X405130Y757936D02*
X439694D01*
X405130Y755904D02*
X439567D01*
X405130Y753872D02*
X439578D01*
X405130Y751840D02*
X439767D01*
X405130Y749808D02*
X440138D01*
X405130Y745744D02*
X441468D01*
X405130Y747776D02*
X440700D01*
X405130Y741680D02*
X443729D01*
X405130Y739648D02*
X445315D01*
X405130Y743712D02*
X442466D01*
X526288Y689610D02*
Y731794D01*
X524256Y689610D02*
Y731794D01*
X522224Y689610D02*
Y731794D01*
X520192Y689610D02*
Y731794D01*
X518160Y689610D02*
Y731794D01*
X516128Y689610D02*
Y731794D01*
X514096Y689610D02*
Y731794D01*
X512064Y689610D02*
Y731794D01*
X510032Y689610D02*
Y731794D01*
X508000Y689610D02*
Y731794D01*
X505968Y689610D02*
Y731794D01*
X503936Y689610D02*
Y731794D01*
X501904Y689610D02*
Y731794D01*
X499872Y689610D02*
Y731794D01*
X497840Y689610D02*
Y731794D01*
X495808Y689610D02*
Y731794D01*
X493776Y689610D02*
Y731794D01*
X491744Y689610D02*
Y731794D01*
X489712Y689610D02*
Y731794D01*
X487680Y689610D02*
Y731794D01*
X485648Y689610D02*
Y731794D01*
X483616Y689610D02*
Y731794D01*
X481584Y689610D02*
Y731794D01*
X479552Y689610D02*
Y731794D01*
X477520Y689610D02*
Y731794D01*
X453136Y689610D02*
Y733795D01*
X457200Y689610D02*
Y732360D01*
X451104Y689610D02*
Y734855D01*
X447040Y689610D02*
Y737872D01*
X449072Y689610D02*
Y736193D01*
X445008Y689610D02*
Y740007D01*
X405130Y735584D02*
X449940D01*
X405130Y733552D02*
X453682D01*
X405130Y737616D02*
X447321D01*
X442976Y689610D02*
Y742835D01*
X440944Y689610D02*
Y747066D01*
X475488Y689610D02*
Y731794D01*
X473456Y689610D02*
Y731794D01*
X471424Y689610D02*
Y731794D01*
X469392Y689610D02*
Y731794D01*
X467360Y689610D02*
Y731794D01*
X465328Y689610D02*
Y731794D01*
X461598D02*
X467360D01*
X463296Y689610D02*
Y731794D01*
X461264Y689610D02*
Y731778D01*
X459232Y689610D02*
Y731942D01*
X455168Y689610D02*
Y732972D01*
D11*
X1193800Y862280D02*
D03*
Y843280D02*
D03*
X1214120Y862280D02*
D03*
Y843280D02*
D03*
D12*
X822300Y858520D02*
D03*
X803300D02*
D03*
X844600D02*
D03*
X863600D02*
D03*
D13*
X977900Y784860D02*
Y815340D01*
Y782320D02*
Y784860D01*
X695960Y853440D02*
Y858520D01*
Y836930D02*
Y853440D01*
X670560D02*
Y858520D01*
Y828040D02*
Y853440D01*
X746760Y852170D02*
X770890D01*
X745490D02*
X746760D01*
X937260Y835660D02*
X985520D01*
X833120D02*
X937260D01*
X787400D02*
X833120D01*
X1085850Y805180D02*
X1113790Y777240D01*
X1524000D01*
X1508760Y817880D02*
X1524000Y802640D01*
X1172210Y817880D02*
X1508760D01*
X1172210D02*
Y854710D01*
X1003300Y817880D02*
X1170940D01*
X1078230Y783590D02*
X1079500Y784860D01*
X721360Y758190D02*
X732175Y747375D01*
X721360Y758190D02*
Y760730D01*
X802640Y859180D02*
X803300Y858520D01*
X802640Y859180D02*
Y871220D01*
X807720Y876300D01*
X1022350D02*
X1031240Y867410D01*
X1172210Y854710D02*
X1179780Y862280D01*
X1193800D01*
X670560Y828040D02*
X684530Y814070D01*
X866140D01*
X985520Y835660D02*
X1003300Y817880D01*
X773430Y849630D02*
X787400Y835660D01*
X695960Y836930D02*
X708660Y824230D01*
X906780Y811530D02*
X937260D01*
X901700Y806450D02*
X906780Y811530D01*
X901700Y784860D02*
Y806450D01*
X952500Y797560D02*
X956310Y801370D01*
X952500Y784860D02*
Y797560D01*
X994410Y805180D02*
X1085850D01*
X1054100Y784860D02*
X1055370Y783590D01*
Y772160D02*
Y783590D01*
X1050290Y767080D02*
X1055370Y772160D01*
X887730Y767080D02*
X1050290D01*
X880110Y774700D02*
X887730Y767080D01*
X880110Y774700D02*
Y800100D01*
X866140Y814070D02*
X880110Y800100D01*
X969835Y823405D02*
X977900Y815340D01*
X708660Y824230D02*
X969010D01*
X952500Y784860D02*
X953770Y786130D01*
X1079500Y861060D02*
X1080770Y862330D01*
X1078230Y753110D02*
Y783590D01*
X1538585Y747375D02*
X1548130Y756920D01*
Y805180D01*
X732175Y747375D02*
X1072495D01*
X1538585D01*
X721360Y834390D02*
Y836930D01*
Y853440D01*
X807720Y876300D02*
X863600D01*
X1022350D01*
X1072495Y747375D02*
X1078230Y753110D01*
X1524635Y828675D02*
X1548130Y805180D01*
X1524000Y829310D02*
X1524635Y828675D01*
X1031240Y861060D02*
Y867410D01*
X1028700Y861060D02*
X1031240D01*
X1054100D01*
X1079500D01*
X863600Y858520D02*
Y876300D01*
D14*
X833120Y858520D02*
X844600D01*
X822300D02*
X833120D01*
Y835660D02*
Y858520D01*
X1478280Y876300D02*
X1524000Y830580D01*
X1170940Y817880D02*
X1172210D01*
X850900Y801370D02*
X861060Y791210D01*
X605790Y801370D02*
X850900D01*
X585470Y781050D02*
X605790Y801370D01*
X561340Y781050D02*
X585470D01*
X726440Y873760D02*
X746760Y853440D01*
X624840Y873760D02*
X726440D01*
X601980Y850900D02*
X624840Y873760D01*
X601980Y828040D02*
Y850900D01*
X581660Y807720D02*
X601980Y828040D01*
X561340Y807720D02*
X581660D01*
X1079500Y861060D02*
X1094740Y876300D01*
X1079500Y784860D02*
X1080770D01*
X1193800Y843280D02*
X1214120D01*
X861060Y781050D02*
Y791210D01*
X1524000Y828040D02*
Y829310D01*
Y830580D01*
X1214120Y862280D02*
Y876300D01*
X1094740D02*
X1214120D01*
X1478280D01*
D15*
X557530Y831850D02*
X558800Y833120D01*
X538480Y831850D02*
X557530D01*
X529590Y822960D02*
X538480Y831850D01*
X529590Y763270D02*
Y822960D01*
Y763270D02*
X538480Y754380D01*
X623570D01*
X629920Y760730D01*
X721360D01*
D16*
X679450Y788666D02*
X683682D01*
X681566D01*
Y775970D01*
X679450D01*
X683682D01*
X711190Y786550D02*
X709074Y788666D01*
X704842D01*
X702726Y786550D01*
Y784434D01*
X704842Y782318D01*
X709074D01*
X711190Y780202D01*
Y778086D01*
X709074Y775970D01*
X704842D01*
X702726Y778086D01*
X728118Y782318D02*
X736581D01*
X753509D02*
X761973D01*
X757741Y786550D02*
Y778086D01*
D17*
X558800Y833120D02*
D03*
Y807720D02*
D03*
X1524000Y828040D02*
D03*
Y802640D02*
D03*
X670560Y853440D02*
D03*
X695960D02*
D03*
X721360D02*
D03*
X1079500Y784860D02*
D03*
X1054100D02*
D03*
X1028700D02*
D03*
X1003300D02*
D03*
X977900D02*
D03*
X952500D02*
D03*
X927100D02*
D03*
X901700D02*
D03*
X1079500Y861060D02*
D03*
X1054100D02*
D03*
X1028700D02*
D03*
X1003300D02*
D03*
X977900D02*
D03*
X952500D02*
D03*
X927100D02*
D03*
D18*
X558800Y782320D02*
D03*
X1524000Y777240D02*
D03*
X746760Y853440D02*
D03*
X901700Y861060D02*
D03*
D19*
X1583690Y817880D02*
D03*
X487680Y814070D02*
D03*
D20*
X721360Y760730D02*
D03*
Y836930D02*
D03*
X861060Y781050D02*
D03*
X937260Y811530D02*
D03*
Y838200D02*
D03*
X991870Y805180D02*
D03*
X963930D02*
D03*
M02*
