M71
M48
T1F00S00C0.9000
T2F00S00C3.0000
T3F00S00C0.7112
%
T01
X01524Y0077724
X010795Y0078486
X010541
X010287
X010033
X009779
X009525
X009271
X009017
X005588Y0078232
Y0080772
Y0083312
X0067056Y0085344
X0069596
X0072136
X0074676
X009017Y0086106
X009271
X009525
X009779
X010033
X010287
X010541
X010795
X01524Y0082804
Y0080264
T02
X0048768Y0081407
X0158369Y0081788
T03
X0086106Y0078105
X0072136Y0076073
Y0083693
X0093726Y008382
Y0081153
X0096393Y0080518
X0099187
M30
