%FSLAX44Y44*%
%MOMM*%
G71*
G01*
G75*
%ADD10C,0.2032*%
%ADD11R,1.5000X1.3000*%
%ADD12R,1.3000X1.5000*%
%ADD13C,0.6350*%
%ADD14C,0.7620*%
%ADD15C,0.8890*%
%ADD16C,0.5080*%
%ADD17C,1.8000*%
%ADD18R,1.8000X1.8000*%
%ADD19C,5.0000*%
%ADD20C,1.4000*%
%ADD21C,0.2540*%
%ADD22C,0.2500*%
%ADD23C,0.1693*%
D10*
X553720Y828040D02*
Y838200D01*
X563880D01*
Y828040D01*
X553720D01*
Y802640D02*
Y812800D01*
X563880D01*
Y802640D01*
X553720D01*
Y777240D02*
Y787400D01*
X563880D01*
Y777240D01*
X553720D01*
X1518920Y822960D02*
Y833120D01*
X1529080D01*
Y822960D01*
X1518920D01*
Y797560D02*
Y807720D01*
X1529080D01*
Y797560D01*
X1518920D01*
Y772160D02*
Y782320D01*
X1529080D01*
Y772160D01*
X1518920D01*
X665480Y848360D02*
Y858520D01*
X675640D01*
Y848360D01*
X665480D01*
X690880D02*
Y858520D01*
X701040D01*
Y848360D01*
X690880D01*
X716280D02*
Y858520D01*
X726440D01*
Y848360D01*
X716280D01*
X741680D02*
Y858520D01*
X751840D01*
Y848360D01*
X741680D01*
D23*
X1588770Y817880D02*
X1588188Y820241D01*
X1586576Y822061D01*
X1584302Y822923D01*
X1581889Y822630D01*
X1579888Y821249D01*
X1578758Y819096D01*
Y816664D01*
X1579888Y814511D01*
X1581889Y813130D01*
X1584302Y812837D01*
X1586576Y813699D01*
X1588188Y815519D01*
X1588770Y817880D01*
X492760Y814070D02*
X492178Y816431D01*
X490566Y818251D01*
X488292Y819113D01*
X485879Y818820D01*
X483878Y817439D01*
X482748Y815286D01*
Y812854D01*
X483878Y810701D01*
X485879Y809320D01*
X488292Y809027D01*
X490566Y809889D01*
X492178Y811709D01*
X492760Y814070D01*
X1074420Y779780D02*
Y789940D01*
X1084580D01*
Y779780D01*
X1074420D01*
X1049020D02*
Y789940D01*
X1059180D01*
Y779780D01*
X1049020D01*
X1023620D02*
Y789940D01*
X1033780D01*
Y779780D01*
X1023620D01*
X998220D02*
Y789940D01*
X1008380D01*
Y779780D01*
X998220D01*
X972820D02*
Y789940D01*
X982980D01*
Y779780D01*
X972820D01*
X947420D02*
Y789940D01*
X957580D01*
Y779780D01*
X947420D01*
X922020D02*
Y789940D01*
X932180D01*
Y779780D01*
X922020D01*
X896620D02*
Y789940D01*
X906780D01*
Y779780D01*
X896620D01*
X1074420Y855980D02*
Y866140D01*
X1084580D01*
Y855980D01*
X1074420D01*
X1049020D02*
Y866140D01*
X1059180D01*
Y855980D01*
X1049020D01*
X1023620D02*
Y866140D01*
X1033780D01*
Y855980D01*
X1023620D01*
X998220D02*
Y866140D01*
X1008380D01*
Y855980D01*
X998220D01*
X972820D02*
Y866140D01*
X982980D01*
Y855980D01*
X972820D01*
X947420D02*
Y866140D01*
X957580D01*
Y855980D01*
X947420D01*
X922020D02*
Y866140D01*
X932180D01*
Y855980D01*
X922020D01*
X896620D02*
Y866140D01*
X906780D01*
Y855980D01*
X896620D01*
X721360Y755650D02*
X716280Y765810D01*
X726440D01*
X721360Y755650D01*
Y831850D02*
X716280Y842010D01*
X726440D01*
X721360Y831850D01*
X861060Y775970D02*
X855980Y786130D01*
X866140D01*
X861060Y775970D01*
X937260Y806450D02*
X932180Y816610D01*
X942340D01*
X937260Y806450D01*
Y833120D02*
X932180Y843280D01*
X942340D01*
X937260Y833120D01*
X991870Y800100D02*
X986790Y810260D01*
X996950D01*
X991870Y800100D01*
X963930D02*
X958850Y810260D01*
X969010D01*
X963930Y800100D01*
M02*
