%FSLAX44Y44*%
%MOMM*%
G71*
G01*
G75*
%ADD10R,0.6000X2.2000*%
%ADD11R,0.6000X2.2000*%
%ADD12R,1.1430X1.1430*%
%ADD13C,0.7620*%
%ADD14C,0.5080*%
%ADD15C,0.3810*%
%ADD16C,0.2540*%
%ADD17C,3.0480*%
%ADD18C,1.7780*%
%ADD19C,3.0000*%
%ADD20O,1.3970X2.0320*%
%ADD21R,1.5000X1.5000*%
%ADD22C,1.0160*%
%ADD23C,1.5000*%
%ADD24O,2.0000X1.6000*%
%ADD25C,1.2000*%
%ADD26C,0.1693*%
D16*
X930910Y1201420D02*
Y1211580D01*
X941070D01*
Y1201420D01*
X930910D01*
X1412240Y1182370D02*
Y1192530D01*
X1422400D01*
Y1182370D01*
X1412240D01*
D26*
X1422400Y1104900D02*
X1421818Y1107261D01*
X1420206Y1109081D01*
X1417932Y1109943D01*
X1415519Y1109650D01*
X1413518Y1108269D01*
X1412388Y1106116D01*
Y1103684D01*
X1413518Y1101531D01*
X1415519Y1100150D01*
X1417932Y1099857D01*
X1420206Y1100719D01*
X1421818Y1102539D01*
X1422400Y1104900D01*
Y1079500D02*
X1421818Y1081861D01*
X1420206Y1083681D01*
X1417932Y1084543D01*
X1415519Y1084250D01*
X1413518Y1082869D01*
X1412388Y1080716D01*
Y1078284D01*
X1413518Y1076131D01*
X1415519Y1074750D01*
X1417932Y1074457D01*
X1420206Y1075319D01*
X1421818Y1077139D01*
X1422400Y1079500D01*
Y1054100D02*
X1421818Y1056461D01*
X1420206Y1058281D01*
X1417932Y1059143D01*
X1415519Y1058850D01*
X1413518Y1057469D01*
X1412388Y1055316D01*
Y1052884D01*
X1413518Y1050731D01*
X1415519Y1049350D01*
X1417932Y1049057D01*
X1420206Y1049919D01*
X1421818Y1051739D01*
X1422400Y1054100D01*
Y1028700D02*
X1421818Y1031061D01*
X1420206Y1032881D01*
X1417932Y1033743D01*
X1415519Y1033450D01*
X1413518Y1032069D01*
X1412388Y1029916D01*
Y1027484D01*
X1413518Y1025331D01*
X1415519Y1023950D01*
X1417932Y1023657D01*
X1420206Y1024519D01*
X1421818Y1026339D01*
X1422400Y1028700D01*
Y1003300D02*
X1421818Y1005661D01*
X1420206Y1007481D01*
X1417932Y1008343D01*
X1415519Y1008050D01*
X1413518Y1006669D01*
X1412388Y1004516D01*
Y1002084D01*
X1413518Y999931D01*
X1415519Y998550D01*
X1417932Y998257D01*
X1420206Y999119D01*
X1421818Y1000939D01*
X1422400Y1003300D01*
Y977900D02*
X1421818Y980261D01*
X1420206Y982081D01*
X1417932Y982943D01*
X1415519Y982650D01*
X1413518Y981269D01*
X1412388Y979116D01*
Y976684D01*
X1413518Y974531D01*
X1415519Y973150D01*
X1417932Y972857D01*
X1420206Y973719D01*
X1421818Y975539D01*
X1422400Y977900D01*
Y952500D02*
X1421818Y954861D01*
X1420206Y956681D01*
X1417932Y957543D01*
X1415519Y957250D01*
X1413518Y955869D01*
X1412388Y953716D01*
Y951284D01*
X1413518Y949131D01*
X1415519Y947750D01*
X1417932Y947457D01*
X1420206Y948319D01*
X1421818Y950139D01*
X1422400Y952500D01*
Y927100D02*
X1421818Y929461D01*
X1420206Y931281D01*
X1417932Y932143D01*
X1415519Y931850D01*
X1413518Y930469D01*
X1412388Y928316D01*
Y925884D01*
X1413518Y923731D01*
X1415519Y922350D01*
X1417932Y922057D01*
X1420206Y922919D01*
X1421818Y924739D01*
X1422400Y927100D01*
Y889000D02*
X1421818Y891361D01*
X1420206Y893181D01*
X1417932Y894043D01*
X1415519Y893750D01*
X1413518Y892369D01*
X1412388Y890216D01*
Y887784D01*
X1413518Y885631D01*
X1415519Y884250D01*
X1417932Y883957D01*
X1420206Y884819D01*
X1421818Y886639D01*
X1422400Y889000D01*
Y863600D02*
X1421818Y865961D01*
X1420206Y867781D01*
X1417932Y868643D01*
X1415519Y868350D01*
X1413518Y866969D01*
X1412388Y864816D01*
Y862384D01*
X1413518Y860231D01*
X1415519Y858850D01*
X1417932Y858557D01*
X1420206Y859419D01*
X1421818Y861239D01*
X1422400Y863600D01*
Y838200D02*
X1421818Y840561D01*
X1420206Y842381D01*
X1417932Y843243D01*
X1415519Y842950D01*
X1413518Y841569D01*
X1412388Y839416D01*
Y836984D01*
X1413518Y834831D01*
X1415519Y833450D01*
X1417932Y833157D01*
X1420206Y834019D01*
X1421818Y835839D01*
X1422400Y838200D01*
Y812800D02*
X1421818Y815161D01*
X1420206Y816981D01*
X1417932Y817843D01*
X1415519Y817550D01*
X1413518Y816169D01*
X1412388Y814016D01*
Y811584D01*
X1413518Y809431D01*
X1415519Y808050D01*
X1417932Y807757D01*
X1420206Y808619D01*
X1421818Y810439D01*
X1422400Y812800D01*
Y787400D02*
X1421818Y789761D01*
X1420206Y791581D01*
X1417932Y792443D01*
X1415519Y792150D01*
X1413518Y790769D01*
X1412388Y788616D01*
Y786184D01*
X1413518Y784031D01*
X1415519Y782650D01*
X1417932Y782357D01*
X1420206Y783219D01*
X1421818Y785039D01*
X1422400Y787400D01*
Y762000D02*
X1421818Y764361D01*
X1420206Y766181D01*
X1417932Y767043D01*
X1415519Y766750D01*
X1413518Y765369D01*
X1412388Y763216D01*
Y760784D01*
X1413518Y758631D01*
X1415519Y757250D01*
X1417932Y756957D01*
X1420206Y757819D01*
X1421818Y759639D01*
X1422400Y762000D01*
Y736600D02*
X1421818Y738961D01*
X1420206Y740781D01*
X1417932Y741643D01*
X1415519Y741350D01*
X1413518Y739969D01*
X1412388Y737816D01*
Y735384D01*
X1413518Y733231D01*
X1415519Y731850D01*
X1417932Y731557D01*
X1420206Y732419D01*
X1421818Y734239D01*
X1422400Y736600D01*
Y711200D02*
X1421818Y713561D01*
X1420206Y715381D01*
X1417932Y716243D01*
X1415519Y715950D01*
X1413518Y714569D01*
X1412388Y712416D01*
Y709984D01*
X1413518Y707831D01*
X1415519Y706450D01*
X1417932Y706157D01*
X1420206Y707019D01*
X1421818Y708839D01*
X1422400Y711200D01*
Y660400D02*
X1421818Y662761D01*
X1420206Y664581D01*
X1417932Y665443D01*
X1415519Y665150D01*
X1413518Y663769D01*
X1412388Y661616D01*
Y659184D01*
X1413518Y657031D01*
X1415519Y655650D01*
X1417932Y655357D01*
X1420206Y656219D01*
X1421818Y658039D01*
X1422400Y660400D01*
Y635000D02*
X1421818Y637361D01*
X1420206Y639181D01*
X1417932Y640043D01*
X1415519Y639750D01*
X1413518Y638369D01*
X1412388Y636216D01*
Y633784D01*
X1413518Y631631D01*
X1415519Y630250D01*
X1417932Y629957D01*
X1420206Y630819D01*
X1421818Y632639D01*
X1422400Y635000D01*
Y609600D02*
X1421818Y611961D01*
X1420206Y613781D01*
X1417932Y614643D01*
X1415519Y614350D01*
X1413518Y612969D01*
X1412388Y610816D01*
Y608384D01*
X1413518Y606231D01*
X1415519Y604850D01*
X1417932Y604557D01*
X1420206Y605419D01*
X1421818Y607239D01*
X1422400Y609600D01*
Y584200D02*
X1421818Y586561D01*
X1420206Y588381D01*
X1417932Y589243D01*
X1415519Y588950D01*
X1413518Y587569D01*
X1412388Y585416D01*
Y582984D01*
X1413518Y580831D01*
X1415519Y579450D01*
X1417932Y579157D01*
X1420206Y580019D01*
X1421818Y581839D01*
X1422400Y584200D01*
Y558800D02*
X1421818Y561161D01*
X1420206Y562981D01*
X1417932Y563843D01*
X1415519Y563550D01*
X1413518Y562169D01*
X1412388Y560016D01*
Y557584D01*
X1413518Y555431D01*
X1415519Y554050D01*
X1417932Y553757D01*
X1420206Y554619D01*
X1421818Y556439D01*
X1422400Y558800D01*
Y533400D02*
X1421818Y535761D01*
X1420206Y537581D01*
X1417932Y538443D01*
X1415519Y538150D01*
X1413518Y536769D01*
X1412388Y534616D01*
Y532184D01*
X1413518Y530031D01*
X1415519Y528650D01*
X1417932Y528357D01*
X1420206Y529219D01*
X1421818Y531039D01*
X1422400Y533400D01*
Y508000D02*
X1421818Y510361D01*
X1420206Y512181D01*
X1417932Y513043D01*
X1415519Y512750D01*
X1413518Y511369D01*
X1412388Y509216D01*
Y506784D01*
X1413518Y504631D01*
X1415519Y503250D01*
X1417932Y502957D01*
X1420206Y503819D01*
X1421818Y505639D01*
X1422400Y508000D01*
Y482600D02*
X1421818Y484961D01*
X1420206Y486781D01*
X1417932Y487643D01*
X1415519Y487350D01*
X1413518Y485969D01*
X1412388Y483816D01*
Y481384D01*
X1413518Y479231D01*
X1415519Y477850D01*
X1417932Y477557D01*
X1420206Y478419D01*
X1421818Y480239D01*
X1422400Y482600D01*
Y381000D02*
X1421818Y383361D01*
X1420206Y385181D01*
X1417932Y386043D01*
X1415519Y385750D01*
X1413518Y384369D01*
X1412388Y382216D01*
Y379784D01*
X1413518Y377631D01*
X1415519Y376250D01*
X1417932Y375957D01*
X1420206Y376819D01*
X1421818Y378639D01*
X1422400Y381000D01*
X1397000D02*
X1396418Y383361D01*
X1394806Y385181D01*
X1392532Y386043D01*
X1390119Y385750D01*
X1388118Y384369D01*
X1386988Y382216D01*
Y379784D01*
X1388118Y377631D01*
X1390119Y376250D01*
X1392532Y375957D01*
X1394806Y376819D01*
X1396418Y378639D01*
X1397000Y381000D01*
X1371600D02*
X1371018Y383361D01*
X1369406Y385181D01*
X1367132Y386043D01*
X1364719Y385750D01*
X1362718Y384369D01*
X1361588Y382216D01*
Y379784D01*
X1362718Y377631D01*
X1364719Y376250D01*
X1367132Y375957D01*
X1369406Y376819D01*
X1371018Y378639D01*
X1371600Y381000D01*
X1346200D02*
X1345618Y383361D01*
X1344006Y385181D01*
X1341732Y386043D01*
X1339319Y385750D01*
X1337318Y384369D01*
X1336188Y382216D01*
Y379784D01*
X1337318Y377631D01*
X1339319Y376250D01*
X1341732Y375957D01*
X1344006Y376819D01*
X1345618Y378639D01*
X1346200Y381000D01*
X1320800D02*
X1320218Y383361D01*
X1318606Y385181D01*
X1316332Y386043D01*
X1313919Y385750D01*
X1311918Y384369D01*
X1310788Y382216D01*
Y379784D01*
X1311918Y377631D01*
X1313919Y376250D01*
X1316332Y375957D01*
X1318606Y376819D01*
X1320218Y378639D01*
X1320800Y381000D01*
X1295400D02*
X1294818Y383361D01*
X1293206Y385181D01*
X1290932Y386043D01*
X1288519Y385750D01*
X1286518Y384369D01*
X1285388Y382216D01*
Y379784D01*
X1286518Y377631D01*
X1288519Y376250D01*
X1290932Y375957D01*
X1293206Y376819D01*
X1294818Y378639D01*
X1295400Y381000D01*
X1270000D02*
X1269418Y383361D01*
X1267806Y385181D01*
X1265532Y386043D01*
X1263119Y385750D01*
X1261118Y384369D01*
X1259988Y382216D01*
Y379784D01*
X1261118Y377631D01*
X1263119Y376250D01*
X1265532Y375957D01*
X1267806Y376819D01*
X1269418Y378639D01*
X1270000Y381000D01*
X1244600D02*
X1244018Y383361D01*
X1242406Y385181D01*
X1240132Y386043D01*
X1237719Y385750D01*
X1235718Y384369D01*
X1234588Y382216D01*
Y379784D01*
X1235718Y377631D01*
X1237719Y376250D01*
X1240132Y375957D01*
X1242406Y376819D01*
X1244018Y378639D01*
X1244600Y381000D01*
X1219200D02*
X1218618Y383361D01*
X1217006Y385181D01*
X1214732Y386043D01*
X1212319Y385750D01*
X1210318Y384369D01*
X1209188Y382216D01*
Y379784D01*
X1210318Y377631D01*
X1212319Y376250D01*
X1214732Y375957D01*
X1217006Y376819D01*
X1218618Y378639D01*
X1219200Y381000D01*
X1193800D02*
X1193218Y383361D01*
X1191606Y385181D01*
X1189332Y386043D01*
X1186919Y385750D01*
X1184918Y384369D01*
X1183788Y382216D01*
Y379784D01*
X1184918Y377631D01*
X1186919Y376250D01*
X1189332Y375957D01*
X1191606Y376819D01*
X1193218Y378639D01*
X1193800Y381000D01*
X1168400D02*
X1167818Y383361D01*
X1166206Y385181D01*
X1163932Y386043D01*
X1161519Y385750D01*
X1159518Y384369D01*
X1158388Y382216D01*
Y379784D01*
X1159518Y377631D01*
X1161519Y376250D01*
X1163932Y375957D01*
X1166206Y376819D01*
X1167818Y378639D01*
X1168400Y381000D01*
X1143000D02*
X1142418Y383361D01*
X1140806Y385181D01*
X1138532Y386043D01*
X1136119Y385750D01*
X1134118Y384369D01*
X1132988Y382216D01*
Y379784D01*
X1134118Y377631D01*
X1136119Y376250D01*
X1138532Y375957D01*
X1140806Y376819D01*
X1142418Y378639D01*
X1143000Y381000D01*
X1117600D02*
X1117018Y383361D01*
X1115406Y385181D01*
X1113132Y386043D01*
X1110719Y385750D01*
X1108718Y384369D01*
X1107588Y382216D01*
Y379784D01*
X1108718Y377631D01*
X1110719Y376250D01*
X1113132Y375957D01*
X1115406Y376819D01*
X1117018Y378639D01*
X1117600Y381000D01*
X1092200D02*
X1091618Y383361D01*
X1090006Y385181D01*
X1087732Y386043D01*
X1085319Y385750D01*
X1083318Y384369D01*
X1082188Y382216D01*
Y379784D01*
X1083318Y377631D01*
X1085319Y376250D01*
X1087732Y375957D01*
X1090006Y376819D01*
X1091618Y378639D01*
X1092200Y381000D01*
X1066800D02*
X1066218Y383361D01*
X1064606Y385181D01*
X1062332Y386043D01*
X1059919Y385750D01*
X1057918Y384369D01*
X1056788Y382216D01*
Y379784D01*
X1057918Y377631D01*
X1059919Y376250D01*
X1062332Y375957D01*
X1064606Y376819D01*
X1066218Y378639D01*
X1066800Y381000D01*
X1041400D02*
X1040818Y383361D01*
X1039206Y385181D01*
X1036932Y386043D01*
X1034519Y385750D01*
X1032518Y384369D01*
X1031388Y382216D01*
Y379784D01*
X1032518Y377631D01*
X1034519Y376250D01*
X1036932Y375957D01*
X1039206Y376819D01*
X1040818Y378639D01*
X1041400Y381000D01*
X1016000D02*
X1015418Y383361D01*
X1013806Y385181D01*
X1011532Y386043D01*
X1009119Y385750D01*
X1007118Y384369D01*
X1005988Y382216D01*
Y379784D01*
X1007118Y377631D01*
X1009119Y376250D01*
X1011532Y375957D01*
X1013806Y376819D01*
X1015418Y378639D01*
X1016000Y381000D01*
X990600D02*
X990018Y383361D01*
X988406Y385181D01*
X986132Y386043D01*
X983719Y385750D01*
X981718Y384369D01*
X980588Y382216D01*
Y379784D01*
X981718Y377631D01*
X983719Y376250D01*
X986132Y375957D01*
X988406Y376819D01*
X990018Y378639D01*
X990600Y381000D01*
X939800Y431800D02*
X939218Y434161D01*
X937606Y435981D01*
X935332Y436843D01*
X932919Y436550D01*
X930918Y435169D01*
X929788Y433016D01*
Y430584D01*
X930918Y428431D01*
X932919Y427050D01*
X935332Y426757D01*
X937606Y427619D01*
X939218Y429439D01*
X939800Y431800D01*
Y457200D02*
X939218Y459561D01*
X937606Y461381D01*
X935332Y462243D01*
X932919Y461950D01*
X930918Y460569D01*
X929788Y458416D01*
Y455984D01*
X930918Y453831D01*
X932919Y452450D01*
X935332Y452157D01*
X937606Y453019D01*
X939218Y454839D01*
X939800Y457200D01*
Y482600D02*
X939218Y484961D01*
X937606Y486781D01*
X935332Y487643D01*
X932919Y487350D01*
X930918Y485969D01*
X929788Y483816D01*
Y481384D01*
X930918Y479231D01*
X932919Y477850D01*
X935332Y477557D01*
X937606Y478419D01*
X939218Y480239D01*
X939800Y482600D01*
Y508000D02*
X939218Y510361D01*
X937606Y512181D01*
X935332Y513043D01*
X932919Y512750D01*
X930918Y511369D01*
X929788Y509216D01*
Y506784D01*
X930918Y504631D01*
X932919Y503250D01*
X935332Y502957D01*
X937606Y503819D01*
X939218Y505639D01*
X939800Y508000D01*
Y533400D02*
X939218Y535761D01*
X937606Y537581D01*
X935332Y538443D01*
X932919Y538150D01*
X930918Y536769D01*
X929788Y534616D01*
Y532184D01*
X930918Y530031D01*
X932919Y528650D01*
X935332Y528357D01*
X937606Y529219D01*
X939218Y531039D01*
X939800Y533400D01*
Y558800D02*
X939218Y561161D01*
X937606Y562981D01*
X935332Y563843D01*
X932919Y563550D01*
X930918Y562169D01*
X929788Y560016D01*
Y557584D01*
X930918Y555431D01*
X932919Y554050D01*
X935332Y553757D01*
X937606Y554619D01*
X939218Y556439D01*
X939800Y558800D01*
Y584200D02*
X939218Y586561D01*
X937606Y588381D01*
X935332Y589243D01*
X932919Y588950D01*
X930918Y587569D01*
X929788Y585416D01*
Y582984D01*
X930918Y580831D01*
X932919Y579450D01*
X935332Y579157D01*
X937606Y580019D01*
X939218Y581839D01*
X939800Y584200D01*
Y609600D02*
X939218Y611961D01*
X937606Y613781D01*
X935332Y614643D01*
X932919Y614350D01*
X930918Y612969D01*
X929788Y610816D01*
Y608384D01*
X930918Y606231D01*
X932919Y604850D01*
X935332Y604557D01*
X937606Y605419D01*
X939218Y607239D01*
X939800Y609600D01*
Y685800D02*
X939218Y688161D01*
X937606Y689981D01*
X935332Y690843D01*
X932919Y690550D01*
X930918Y689169D01*
X929788Y687016D01*
Y684584D01*
X930918Y682431D01*
X932919Y681050D01*
X935332Y680757D01*
X937606Y681619D01*
X939218Y683439D01*
X939800Y685800D01*
Y711200D02*
X939218Y713561D01*
X937606Y715381D01*
X935332Y716243D01*
X932919Y715950D01*
X930918Y714569D01*
X929788Y712416D01*
Y709984D01*
X930918Y707831D01*
X932919Y706450D01*
X935332Y706157D01*
X937606Y707019D01*
X939218Y708839D01*
X939800Y711200D01*
Y736600D02*
X939218Y738961D01*
X937606Y740781D01*
X935332Y741643D01*
X932919Y741350D01*
X930918Y739969D01*
X929788Y737816D01*
Y735384D01*
X930918Y733231D01*
X932919Y731850D01*
X935332Y731557D01*
X937606Y732419D01*
X939218Y734239D01*
X939800Y736600D01*
Y762000D02*
X939218Y764361D01*
X937606Y766181D01*
X935332Y767043D01*
X932919Y766750D01*
X930918Y765369D01*
X929788Y763216D01*
Y760784D01*
X930918Y758631D01*
X932919Y757250D01*
X935332Y756957D01*
X937606Y757819D01*
X939218Y759639D01*
X939800Y762000D01*
Y787400D02*
X939218Y789761D01*
X937606Y791581D01*
X935332Y792443D01*
X932919Y792150D01*
X930918Y790769D01*
X929788Y788616D01*
Y786184D01*
X930918Y784031D01*
X932919Y782650D01*
X935332Y782357D01*
X937606Y783219D01*
X939218Y785039D01*
X939800Y787400D01*
Y812800D02*
X939218Y815161D01*
X937606Y816981D01*
X935332Y817843D01*
X932919Y817550D01*
X930918Y816169D01*
X929788Y814016D01*
Y811584D01*
X930918Y809431D01*
X932919Y808050D01*
X935332Y807757D01*
X937606Y808619D01*
X939218Y810439D01*
X939800Y812800D01*
Y838200D02*
X939218Y840561D01*
X937606Y842381D01*
X935332Y843243D01*
X932919Y842950D01*
X930918Y841569D01*
X929788Y839416D01*
Y836984D01*
X930918Y834831D01*
X932919Y833450D01*
X935332Y833157D01*
X937606Y834019D01*
X939218Y835839D01*
X939800Y838200D01*
Y889000D02*
X939218Y891361D01*
X937606Y893181D01*
X935332Y894043D01*
X932919Y893750D01*
X930918Y892369D01*
X929788Y890216D01*
Y887784D01*
X930918Y885631D01*
X932919Y884250D01*
X935332Y883957D01*
X937606Y884819D01*
X939218Y886639D01*
X939800Y889000D01*
Y914400D02*
X939218Y916761D01*
X937606Y918581D01*
X935332Y919443D01*
X932919Y919150D01*
X930918Y917769D01*
X929788Y915616D01*
Y913184D01*
X930918Y911031D01*
X932919Y909650D01*
X935332Y909357D01*
X937606Y910219D01*
X939218Y912039D01*
X939800Y914400D01*
Y939800D02*
X939218Y942161D01*
X937606Y943981D01*
X935332Y944843D01*
X932919Y944550D01*
X930918Y943169D01*
X929788Y941016D01*
Y938584D01*
X930918Y936431D01*
X932919Y935050D01*
X935332Y934757D01*
X937606Y935619D01*
X939218Y937439D01*
X939800Y939800D01*
Y965200D02*
X939218Y967561D01*
X937606Y969381D01*
X935332Y970243D01*
X932919Y969950D01*
X930918Y968569D01*
X929788Y966416D01*
Y963984D01*
X930918Y961831D01*
X932919Y960450D01*
X935332Y960157D01*
X937606Y961019D01*
X939218Y962839D01*
X939800Y965200D01*
Y990600D02*
X939218Y992961D01*
X937606Y994781D01*
X935332Y995643D01*
X932919Y995350D01*
X930918Y993969D01*
X929788Y991816D01*
Y989384D01*
X930918Y987231D01*
X932919Y985850D01*
X935332Y985557D01*
X937606Y986419D01*
X939218Y988239D01*
X939800Y990600D01*
Y1016000D02*
X939218Y1018361D01*
X937606Y1020181D01*
X935332Y1021043D01*
X932919Y1020750D01*
X930918Y1019369D01*
X929788Y1017216D01*
Y1014784D01*
X930918Y1012631D01*
X932919Y1011250D01*
X935332Y1010957D01*
X937606Y1011819D01*
X939218Y1013639D01*
X939800Y1016000D01*
Y1041400D02*
X939218Y1043761D01*
X937606Y1045581D01*
X935332Y1046443D01*
X932919Y1046150D01*
X930918Y1044769D01*
X929788Y1042616D01*
Y1040184D01*
X930918Y1038031D01*
X932919Y1036650D01*
X935332Y1036357D01*
X937606Y1037219D01*
X939218Y1039039D01*
X939800Y1041400D01*
Y1066800D02*
X939218Y1069161D01*
X937606Y1070981D01*
X935332Y1071843D01*
X932919Y1071550D01*
X930918Y1070169D01*
X929788Y1068016D01*
Y1065584D01*
X930918Y1063431D01*
X932919Y1062050D01*
X935332Y1061757D01*
X937606Y1062619D01*
X939218Y1064439D01*
X939800Y1066800D01*
X1412240Y414020D02*
Y424180D01*
X1422400D01*
Y414020D01*
X1412240D01*
X928370Y375920D02*
Y386080D01*
X938530D01*
Y375920D01*
X928370D01*
X1316101Y1193800D02*
X1311021Y1203960D01*
X1321181D01*
X1316101Y1193800D01*
X1264539D02*
X1259459Y1203960D01*
X1269619D01*
X1264539Y1193800D01*
X1087120Y670560D02*
X1086538Y672921D01*
X1084926Y674741D01*
X1082652Y675603D01*
X1080239Y675310D01*
X1078238Y673929D01*
X1077108Y671776D01*
Y669344D01*
X1078238Y667191D01*
X1080239Y665810D01*
X1082652Y665517D01*
X1084926Y666379D01*
X1086538Y668199D01*
X1087120Y670560D01*
X1112520D02*
X1111938Y672921D01*
X1110326Y674741D01*
X1108052Y675603D01*
X1105639Y675310D01*
X1103638Y673929D01*
X1102508Y671776D01*
Y669344D01*
X1103638Y667191D01*
X1105639Y665810D01*
X1108052Y665517D01*
X1110326Y666379D01*
X1111938Y668199D01*
X1112520Y670560D01*
X1137920D02*
X1137338Y672921D01*
X1135726Y674741D01*
X1133452Y675603D01*
X1131039Y675310D01*
X1129038Y673929D01*
X1127908Y671776D01*
Y669344D01*
X1129038Y667191D01*
X1131039Y665810D01*
X1133452Y665517D01*
X1135726Y666379D01*
X1137338Y668199D01*
X1137920Y670560D01*
X1163320D02*
X1162738Y672921D01*
X1161126Y674741D01*
X1158852Y675603D01*
X1156439Y675310D01*
X1154438Y673929D01*
X1153308Y671776D01*
Y669344D01*
X1154438Y667191D01*
X1156439Y665810D01*
X1158852Y665517D01*
X1161126Y666379D01*
X1162738Y668199D01*
X1163320Y670560D01*
X1112520Y736600D02*
X1111938Y738961D01*
X1110326Y740781D01*
X1108052Y741643D01*
X1105639Y741350D01*
X1103638Y739969D01*
X1102508Y737816D01*
Y735384D01*
X1103638Y733231D01*
X1105639Y731850D01*
X1108052Y731557D01*
X1110326Y732419D01*
X1111938Y734239D01*
X1112520Y736600D01*
Y762000D02*
X1111938Y764361D01*
X1110326Y766181D01*
X1108052Y767043D01*
X1105639Y766750D01*
X1103638Y765369D01*
X1102508Y763216D01*
Y760784D01*
X1103638Y758631D01*
X1105639Y757250D01*
X1108052Y756957D01*
X1110326Y757819D01*
X1111938Y759639D01*
X1112520Y762000D01*
X1243330Y478790D02*
X1242748Y481151D01*
X1241136Y482971D01*
X1238862Y483833D01*
X1236449Y483540D01*
X1234448Y482159D01*
X1233318Y480006D01*
Y477574D01*
X1234448Y475421D01*
X1236449Y474040D01*
X1238862Y473747D01*
X1241136Y474609D01*
X1242748Y476429D01*
X1243330Y478790D01*
X1217930D02*
X1217348Y481151D01*
X1215736Y482971D01*
X1213462Y483833D01*
X1211049Y483540D01*
X1209048Y482159D01*
X1207918Y480006D01*
Y477574D01*
X1209048Y475421D01*
X1211049Y474040D01*
X1213462Y473747D01*
X1215736Y474609D01*
X1217348Y476429D01*
X1217930Y478790D01*
X1243330Y504190D02*
X1242748Y506551D01*
X1241136Y508371D01*
X1238862Y509233D01*
X1236449Y508940D01*
X1234448Y507559D01*
X1233318Y505406D01*
Y502974D01*
X1234448Y500821D01*
X1236449Y499440D01*
X1238862Y499147D01*
X1241136Y500009D01*
X1242748Y501829D01*
X1243330Y504190D01*
X1217930D02*
X1217348Y506551D01*
X1215736Y508371D01*
X1213462Y509233D01*
X1211049Y508940D01*
X1209048Y507559D01*
X1207918Y505406D01*
Y502974D01*
X1209048Y500821D01*
X1211049Y499440D01*
X1213462Y499147D01*
X1215736Y500009D01*
X1217348Y501829D01*
X1217930Y504190D01*
X1243330Y529590D02*
X1242748Y531951D01*
X1241136Y533771D01*
X1238862Y534633D01*
X1236449Y534340D01*
X1234448Y532959D01*
X1233318Y530806D01*
Y528374D01*
X1234448Y526221D01*
X1236449Y524840D01*
X1238862Y524547D01*
X1241136Y525409D01*
X1242748Y527229D01*
X1243330Y529590D01*
X1217930D02*
X1217348Y531951D01*
X1215736Y533771D01*
X1213462Y534633D01*
X1211049Y534340D01*
X1209048Y532959D01*
X1207918Y530806D01*
Y528374D01*
X1209048Y526221D01*
X1211049Y524840D01*
X1213462Y524547D01*
X1215736Y525409D01*
X1217348Y527229D01*
X1217930Y529590D01*
X1360170Y478790D02*
X1359588Y481151D01*
X1357976Y482971D01*
X1355702Y483833D01*
X1353289Y483540D01*
X1351288Y482159D01*
X1350158Y480006D01*
Y477574D01*
X1351288Y475421D01*
X1353289Y474040D01*
X1355702Y473747D01*
X1357976Y474609D01*
X1359588Y476429D01*
X1360170Y478790D01*
X1334770D02*
X1334188Y481151D01*
X1332576Y482971D01*
X1330302Y483833D01*
X1327889Y483540D01*
X1325888Y482159D01*
X1324758Y480006D01*
Y477574D01*
X1325888Y475421D01*
X1327889Y474040D01*
X1330302Y473747D01*
X1332576Y474609D01*
X1334188Y476429D01*
X1334770Y478790D01*
X1360170Y504190D02*
X1359588Y506551D01*
X1357976Y508371D01*
X1355702Y509233D01*
X1353289Y508940D01*
X1351288Y507559D01*
X1350158Y505406D01*
Y502974D01*
X1351288Y500821D01*
X1353289Y499440D01*
X1355702Y499147D01*
X1357976Y500009D01*
X1359588Y501829D01*
X1360170Y504190D01*
X1334770D02*
X1334188Y506551D01*
X1332576Y508371D01*
X1330302Y509233D01*
X1327889Y508940D01*
X1325888Y507559D01*
X1324758Y505406D01*
Y502974D01*
X1325888Y500821D01*
X1327889Y499440D01*
X1330302Y499147D01*
X1332576Y500009D01*
X1334188Y501829D01*
X1334770Y504190D01*
X1360170Y529590D02*
X1359588Y531951D01*
X1357976Y533771D01*
X1355702Y534633D01*
X1353289Y534340D01*
X1351288Y532959D01*
X1350158Y530806D01*
Y528374D01*
X1351288Y526221D01*
X1353289Y524840D01*
X1355702Y524547D01*
X1357976Y525409D01*
X1359588Y527229D01*
X1360170Y529590D01*
X1334770D02*
X1334188Y531951D01*
X1332576Y533771D01*
X1330302Y534633D01*
X1327889Y534340D01*
X1325888Y532959D01*
X1324758Y530806D01*
Y528374D01*
X1325888Y526221D01*
X1327889Y524840D01*
X1330302Y524547D01*
X1332576Y525409D01*
X1334188Y527229D01*
X1334770Y529590D01*
X1126490Y478790D02*
X1125908Y481151D01*
X1124296Y482971D01*
X1122022Y483833D01*
X1119609Y483540D01*
X1117608Y482159D01*
X1116478Y480006D01*
Y477574D01*
X1117608Y475421D01*
X1119609Y474040D01*
X1122022Y473747D01*
X1124296Y474609D01*
X1125908Y476429D01*
X1126490Y478790D01*
X1101090D02*
X1100508Y481151D01*
X1098896Y482971D01*
X1096622Y483833D01*
X1094209Y483540D01*
X1092208Y482159D01*
X1091078Y480006D01*
Y477574D01*
X1092208Y475421D01*
X1094209Y474040D01*
X1096622Y473747D01*
X1098896Y474609D01*
X1100508Y476429D01*
X1101090Y478790D01*
X1126490Y504190D02*
X1125908Y506551D01*
X1124296Y508371D01*
X1122022Y509233D01*
X1119609Y508940D01*
X1117608Y507559D01*
X1116478Y505406D01*
Y502974D01*
X1117608Y500821D01*
X1119609Y499440D01*
X1122022Y499147D01*
X1124296Y500009D01*
X1125908Y501829D01*
X1126490Y504190D01*
X1101090D02*
X1100508Y506551D01*
X1098896Y508371D01*
X1096622Y509233D01*
X1094209Y508940D01*
X1092208Y507559D01*
X1091078Y505406D01*
Y502974D01*
X1092208Y500821D01*
X1094209Y499440D01*
X1096622Y499147D01*
X1098896Y500009D01*
X1100508Y501829D01*
X1101090Y504190D01*
X1126490Y529590D02*
X1125908Y531951D01*
X1124296Y533771D01*
X1122022Y534633D01*
X1119609Y534340D01*
X1117608Y532959D01*
X1116478Y530806D01*
Y528374D01*
X1117608Y526221D01*
X1119609Y524840D01*
X1122022Y524547D01*
X1124296Y525409D01*
X1125908Y527229D01*
X1126490Y529590D01*
X1101090D02*
X1100508Y531951D01*
X1098896Y533771D01*
X1096622Y534633D01*
X1094209Y534340D01*
X1092208Y532959D01*
X1091078Y530806D01*
Y528374D01*
X1092208Y526221D01*
X1094209Y524840D01*
X1096622Y524547D01*
X1098896Y525409D01*
X1100508Y527229D01*
X1101090Y529590D01*
X1022350Y792480D02*
X1021768Y794841D01*
X1020156Y796661D01*
X1017882Y797523D01*
X1015469Y797230D01*
X1013468Y795849D01*
X1012338Y793696D01*
Y791264D01*
X1013468Y789111D01*
X1015469Y787730D01*
X1017882Y787437D01*
X1020156Y788299D01*
X1021768Y790119D01*
X1022350Y792480D01*
Y767080D02*
X1021768Y769441D01*
X1020156Y771261D01*
X1017882Y772123D01*
X1015469Y771830D01*
X1013468Y770449D01*
X1012338Y768296D01*
Y765864D01*
X1013468Y763711D01*
X1015469Y762330D01*
X1017882Y762037D01*
X1020156Y762899D01*
X1021768Y764719D01*
X1022350Y767080D01*
Y741680D02*
X1021768Y744041D01*
X1020156Y745861D01*
X1017882Y746723D01*
X1015469Y746430D01*
X1013468Y745049D01*
X1012338Y742896D01*
Y740464D01*
X1013468Y738311D01*
X1015469Y736930D01*
X1017882Y736637D01*
X1020156Y737499D01*
X1021768Y739319D01*
X1022350Y741680D01*
Y716280D02*
X1021768Y718641D01*
X1020156Y720461D01*
X1017882Y721323D01*
X1015469Y721030D01*
X1013468Y719649D01*
X1012338Y717496D01*
Y715064D01*
X1013468Y712911D01*
X1015469Y711530D01*
X1017882Y711237D01*
X1020156Y712099D01*
X1021768Y713919D01*
X1022350Y716280D01*
X994410Y792480D02*
X993828Y794841D01*
X992216Y796661D01*
X989942Y797523D01*
X987529Y797230D01*
X985528Y795849D01*
X984398Y793696D01*
Y791264D01*
X985528Y789111D01*
X987529Y787730D01*
X989942Y787437D01*
X992216Y788299D01*
X993828Y790119D01*
X994410Y792480D01*
Y767080D02*
X993828Y769441D01*
X992216Y771261D01*
X989942Y772123D01*
X987529Y771830D01*
X985528Y770449D01*
X984398Y768296D01*
Y765864D01*
X985528Y763711D01*
X987529Y762330D01*
X989942Y762037D01*
X992216Y762899D01*
X993828Y764719D01*
X994410Y767080D01*
Y741680D02*
X993828Y744041D01*
X992216Y745861D01*
X989942Y746723D01*
X987529Y746430D01*
X985528Y745049D01*
X984398Y742896D01*
Y740464D01*
X985528Y738311D01*
X987529Y736930D01*
X989942Y736637D01*
X992216Y737499D01*
X993828Y739319D01*
X994410Y741680D01*
Y716280D02*
X993828Y718641D01*
X992216Y720461D01*
X989942Y721323D01*
X987529Y721030D01*
X985528Y719649D01*
X984398Y717496D01*
Y715064D01*
X985528Y712911D01*
X987529Y711530D01*
X989942Y711237D01*
X992216Y712099D01*
X993828Y713919D01*
X994410Y716280D01*
X1107059Y1193800D02*
X1101979Y1203960D01*
X1112139D01*
X1107059Y1193800D01*
X1158621D02*
X1153541Y1203960D01*
X1163701D01*
X1158621Y1193800D01*
X1184910Y842010D02*
X1184328Y844371D01*
X1182716Y846191D01*
X1180442Y847053D01*
X1178029Y846760D01*
X1176028Y845379D01*
X1174898Y843226D01*
Y840794D01*
X1176028Y838641D01*
X1178029Y837260D01*
X1180442Y836967D01*
X1182716Y837829D01*
X1184328Y839649D01*
X1184910Y842010D01*
X1159510D02*
X1158928Y844371D01*
X1157316Y846191D01*
X1155042Y847053D01*
X1152629Y846760D01*
X1150628Y845379D01*
X1149498Y843226D01*
Y840794D01*
X1150628Y838641D01*
X1152629Y837260D01*
X1155042Y836967D01*
X1157316Y837829D01*
X1158928Y839649D01*
X1159510Y842010D01*
X1134110D02*
X1133528Y844371D01*
X1131916Y846191D01*
X1129642Y847053D01*
X1127229Y846760D01*
X1125228Y845379D01*
X1124098Y843226D01*
Y840794D01*
X1125228Y838641D01*
X1127229Y837260D01*
X1129642Y836967D01*
X1131916Y837829D01*
X1133528Y839649D01*
X1134110Y842010D01*
X1184910Y867410D02*
X1184328Y869771D01*
X1182716Y871591D01*
X1180442Y872453D01*
X1178029Y872160D01*
X1176028Y870779D01*
X1174898Y868626D01*
Y866194D01*
X1176028Y864041D01*
X1178029Y862660D01*
X1180442Y862367D01*
X1182716Y863229D01*
X1184328Y865049D01*
X1184910Y867410D01*
X1159510D02*
X1158928Y869771D01*
X1157316Y871591D01*
X1155042Y872453D01*
X1152629Y872160D01*
X1150628Y870779D01*
X1149498Y868626D01*
Y866194D01*
X1150628Y864041D01*
X1152629Y862660D01*
X1155042Y862367D01*
X1157316Y863229D01*
X1158928Y865049D01*
X1159510Y867410D01*
X1134110D02*
X1133528Y869771D01*
X1131916Y871591D01*
X1129642Y872453D01*
X1127229Y872160D01*
X1125228Y870779D01*
X1124098Y868626D01*
Y866194D01*
X1125228Y864041D01*
X1127229Y862660D01*
X1129642Y862367D01*
X1131916Y863229D01*
X1133528Y865049D01*
X1134110Y867410D01*
X1184910Y892810D02*
X1184328Y895171D01*
X1182716Y896991D01*
X1180442Y897853D01*
X1178029Y897560D01*
X1176028Y896179D01*
X1174898Y894026D01*
Y891594D01*
X1176028Y889441D01*
X1178029Y888060D01*
X1180442Y887767D01*
X1182716Y888629D01*
X1184328Y890449D01*
X1184910Y892810D01*
X1159510D02*
X1158928Y895171D01*
X1157316Y896991D01*
X1155042Y897853D01*
X1152629Y897560D01*
X1150628Y896179D01*
X1149498Y894026D01*
Y891594D01*
X1150628Y889441D01*
X1152629Y888060D01*
X1155042Y887767D01*
X1157316Y888629D01*
X1158928Y890449D01*
X1159510Y892810D01*
X1134110D02*
X1133528Y895171D01*
X1131916Y896991D01*
X1129642Y897853D01*
X1127229Y897560D01*
X1125228Y896179D01*
X1124098Y894026D01*
Y891594D01*
X1125228Y889441D01*
X1127229Y888060D01*
X1129642Y887767D01*
X1131916Y888629D01*
X1133528Y890449D01*
X1134110Y892810D01*
X1184910Y918210D02*
X1184328Y920571D01*
X1182716Y922391D01*
X1180442Y923253D01*
X1178029Y922960D01*
X1176028Y921579D01*
X1174898Y919426D01*
Y916994D01*
X1176028Y914841D01*
X1178029Y913460D01*
X1180442Y913167D01*
X1182716Y914029D01*
X1184328Y915849D01*
X1184910Y918210D01*
X1159510D02*
X1158928Y920571D01*
X1157316Y922391D01*
X1155042Y923253D01*
X1152629Y922960D01*
X1150628Y921579D01*
X1149498Y919426D01*
Y916994D01*
X1150628Y914841D01*
X1152629Y913460D01*
X1155042Y913167D01*
X1157316Y914029D01*
X1158928Y915849D01*
X1159510Y918210D01*
X1134110D02*
X1133528Y920571D01*
X1131916Y922391D01*
X1129642Y923253D01*
X1127229Y922960D01*
X1125228Y921579D01*
X1124098Y919426D01*
Y916994D01*
X1125228Y914841D01*
X1127229Y913460D01*
X1129642Y913167D01*
X1131916Y914029D01*
X1133528Y915849D01*
X1134110Y918210D01*
X1023620Y958850D02*
X1023038Y961211D01*
X1021426Y963031D01*
X1019152Y963893D01*
X1016739Y963600D01*
X1014738Y962219D01*
X1013608Y960066D01*
Y957634D01*
X1014738Y955481D01*
X1016739Y954100D01*
X1019152Y953807D01*
X1021426Y954669D01*
X1023038Y956489D01*
X1023620Y958850D01*
Y933450D02*
X1023038Y935811D01*
X1021426Y937631D01*
X1019152Y938493D01*
X1016739Y938200D01*
X1014738Y936819D01*
X1013608Y934666D01*
Y932234D01*
X1014738Y930081D01*
X1016739Y928700D01*
X1019152Y928407D01*
X1021426Y929269D01*
X1023038Y931089D01*
X1023620Y933450D01*
Y908050D02*
X1023038Y910411D01*
X1021426Y912231D01*
X1019152Y913093D01*
X1016739Y912800D01*
X1014738Y911419D01*
X1013608Y909266D01*
Y906834D01*
X1014738Y904681D01*
X1016739Y903300D01*
X1019152Y903007D01*
X1021426Y903869D01*
X1023038Y905689D01*
X1023620Y908050D01*
Y882650D02*
X1023038Y885011D01*
X1021426Y886831D01*
X1019152Y887693D01*
X1016739Y887400D01*
X1014738Y886019D01*
X1013608Y883866D01*
Y881434D01*
X1014738Y879281D01*
X1016739Y877900D01*
X1019152Y877607D01*
X1021426Y878469D01*
X1023038Y880289D01*
X1023620Y882650D01*
X1049020Y958850D02*
X1048438Y961211D01*
X1046826Y963031D01*
X1044552Y963893D01*
X1042139Y963600D01*
X1040138Y962219D01*
X1039008Y960066D01*
Y957634D01*
X1040138Y955481D01*
X1042139Y954100D01*
X1044552Y953807D01*
X1046826Y954669D01*
X1048438Y956489D01*
X1049020Y958850D01*
Y933450D02*
X1048438Y935811D01*
X1046826Y937631D01*
X1044552Y938493D01*
X1042139Y938200D01*
X1040138Y936819D01*
X1039008Y934666D01*
Y932234D01*
X1040138Y930081D01*
X1042139Y928700D01*
X1044552Y928407D01*
X1046826Y929269D01*
X1048438Y931089D01*
X1049020Y933450D01*
Y908050D02*
X1048438Y910411D01*
X1046826Y912231D01*
X1044552Y913093D01*
X1042139Y912800D01*
X1040138Y911419D01*
X1039008Y909266D01*
Y906834D01*
X1040138Y904681D01*
X1042139Y903300D01*
X1044552Y903007D01*
X1046826Y903869D01*
X1048438Y905689D01*
X1049020Y908050D01*
Y882650D02*
X1048438Y885011D01*
X1046826Y886831D01*
X1044552Y887693D01*
X1042139Y887400D01*
X1040138Y886019D01*
X1039008Y883866D01*
Y881434D01*
X1040138Y879281D01*
X1042139Y877900D01*
X1044552Y877607D01*
X1046826Y878469D01*
X1048438Y880289D01*
X1049020Y882650D01*
X998220Y958850D02*
X997638Y961211D01*
X996026Y963031D01*
X993752Y963893D01*
X991339Y963600D01*
X989338Y962219D01*
X988208Y960066D01*
Y957634D01*
X989338Y955481D01*
X991339Y954100D01*
X993752Y953807D01*
X996026Y954669D01*
X997638Y956489D01*
X998220Y958850D01*
Y933450D02*
X997638Y935811D01*
X996026Y937631D01*
X993752Y938493D01*
X991339Y938200D01*
X989338Y936819D01*
X988208Y934666D01*
Y932234D01*
X989338Y930081D01*
X991339Y928700D01*
X993752Y928407D01*
X996026Y929269D01*
X997638Y931089D01*
X998220Y933450D01*
Y908050D02*
X997638Y910411D01*
X996026Y912231D01*
X993752Y913093D01*
X991339Y912800D01*
X989338Y911419D01*
X988208Y909266D01*
Y906834D01*
X989338Y904681D01*
X991339Y903300D01*
X993752Y903007D01*
X996026Y903869D01*
X997638Y905689D01*
X998220Y908050D01*
Y882650D02*
X997638Y885011D01*
X996026Y886831D01*
X993752Y887693D01*
X991339Y887400D01*
X989338Y886019D01*
X988208Y883866D01*
Y881434D01*
X989338Y879281D01*
X991339Y877900D01*
X993752Y877607D01*
X996026Y878469D01*
X997638Y880289D01*
X998220Y882650D01*
X939800Y660400D02*
X939218Y662761D01*
X937606Y664581D01*
X935332Y665443D01*
X932919Y665150D01*
X930918Y663769D01*
X929788Y661616D01*
Y659184D01*
X930918Y657031D01*
X932919Y655650D01*
X935332Y655357D01*
X937606Y656219D01*
X939218Y658039D01*
X939800Y660400D01*
X1334770Y453390D02*
X1334188Y455751D01*
X1332576Y457571D01*
X1330302Y458433D01*
X1327889Y458140D01*
X1325888Y456759D01*
X1324758Y454606D01*
Y452174D01*
X1325888Y450021D01*
X1327889Y448640D01*
X1330302Y448347D01*
X1332576Y449209D01*
X1334188Y451029D01*
X1334770Y453390D01*
X1360170D02*
X1359588Y455751D01*
X1357976Y457571D01*
X1355702Y458433D01*
X1353289Y458140D01*
X1351288Y456759D01*
X1350158Y454606D01*
Y452174D01*
X1351288Y450021D01*
X1353289Y448640D01*
X1355702Y448347D01*
X1357976Y449209D01*
X1359588Y451029D01*
X1360170Y453390D01*
X1334770Y427990D02*
X1334188Y430351D01*
X1332576Y432171D01*
X1330302Y433033D01*
X1327889Y432740D01*
X1325888Y431359D01*
X1324758Y429206D01*
Y426774D01*
X1325888Y424621D01*
X1327889Y423240D01*
X1330302Y422947D01*
X1332576Y423809D01*
X1334188Y425629D01*
X1334770Y427990D01*
X1360170D02*
X1359588Y430351D01*
X1357976Y432171D01*
X1355702Y433033D01*
X1353289Y432740D01*
X1351288Y431359D01*
X1350158Y429206D01*
Y426774D01*
X1351288Y424621D01*
X1353289Y423240D01*
X1355702Y422947D01*
X1357976Y423809D01*
X1359588Y425629D01*
X1360170Y427990D01*
X1217930Y453390D02*
X1217348Y455751D01*
X1215736Y457571D01*
X1213462Y458433D01*
X1211049Y458140D01*
X1209048Y456759D01*
X1207918Y454606D01*
Y452174D01*
X1209048Y450021D01*
X1211049Y448640D01*
X1213462Y448347D01*
X1215736Y449209D01*
X1217348Y451029D01*
X1217930Y453390D01*
X1243330D02*
X1242748Y455751D01*
X1241136Y457571D01*
X1238862Y458433D01*
X1236449Y458140D01*
X1234448Y456759D01*
X1233318Y454606D01*
Y452174D01*
X1234448Y450021D01*
X1236449Y448640D01*
X1238862Y448347D01*
X1241136Y449209D01*
X1242748Y451029D01*
X1243330Y453390D01*
X1217930Y427990D02*
X1217348Y430351D01*
X1215736Y432171D01*
X1213462Y433033D01*
X1211049Y432740D01*
X1209048Y431359D01*
X1207918Y429206D01*
Y426774D01*
X1209048Y424621D01*
X1211049Y423240D01*
X1213462Y422947D01*
X1215736Y423809D01*
X1217348Y425629D01*
X1217930Y427990D01*
X1243330D02*
X1242748Y430351D01*
X1241136Y432171D01*
X1238862Y433033D01*
X1236449Y432740D01*
X1234448Y431359D01*
X1233318Y429206D01*
Y426774D01*
X1234448Y424621D01*
X1236449Y423240D01*
X1238862Y422947D01*
X1241136Y423809D01*
X1242748Y425629D01*
X1243330Y427990D01*
X1101090Y453390D02*
X1100508Y455751D01*
X1098896Y457571D01*
X1096622Y458433D01*
X1094209Y458140D01*
X1092208Y456759D01*
X1091078Y454606D01*
Y452174D01*
X1092208Y450021D01*
X1094209Y448640D01*
X1096622Y448347D01*
X1098896Y449209D01*
X1100508Y451029D01*
X1101090Y453390D01*
X1126490D02*
X1125908Y455751D01*
X1124296Y457571D01*
X1122022Y458433D01*
X1119609Y458140D01*
X1117608Y456759D01*
X1116478Y454606D01*
Y452174D01*
X1117608Y450021D01*
X1119609Y448640D01*
X1122022Y448347D01*
X1124296Y449209D01*
X1125908Y451029D01*
X1126490Y453390D01*
X1101090Y427990D02*
X1100508Y430351D01*
X1098896Y432171D01*
X1096622Y433033D01*
X1094209Y432740D01*
X1092208Y431359D01*
X1091078Y429206D01*
Y426774D01*
X1092208Y424621D01*
X1094209Y423240D01*
X1096622Y422947D01*
X1098896Y423809D01*
X1100508Y425629D01*
X1101090Y427990D01*
X1126490D02*
X1125908Y430351D01*
X1124296Y432171D01*
X1122022Y433033D01*
X1119609Y432740D01*
X1117608Y431359D01*
X1116478Y429206D01*
Y426774D01*
X1117608Y424621D01*
X1119609Y423240D01*
X1122022Y422947D01*
X1124296Y423809D01*
X1125908Y425629D01*
X1126490Y427990D01*
X989584Y530098D02*
X989002Y532459D01*
X987390Y534279D01*
X985116Y535141D01*
X982703Y534848D01*
X980702Y533467D01*
X979572Y531314D01*
Y528882D01*
X980702Y526729D01*
X982703Y525348D01*
X985116Y525055D01*
X987390Y525917D01*
X989002Y527737D01*
X989584Y530098D01*
X1014984D02*
X1014402Y532459D01*
X1012790Y534279D01*
X1010516Y535141D01*
X1008103Y534848D01*
X1006102Y533467D01*
X1004972Y531314D01*
Y528882D01*
X1006102Y526729D01*
X1008103Y525348D01*
X1010516Y525055D01*
X1012790Y525917D01*
X1014402Y527737D01*
X1014984Y530098D01*
X989584Y504698D02*
X989002Y507059D01*
X987390Y508879D01*
X985116Y509741D01*
X982703Y509448D01*
X980702Y508067D01*
X979572Y505914D01*
Y503482D01*
X980702Y501329D01*
X982703Y499948D01*
X985116Y499655D01*
X987390Y500517D01*
X989002Y502337D01*
X989584Y504698D01*
X1014984D02*
X1014402Y507059D01*
X1012790Y508879D01*
X1010516Y509741D01*
X1008103Y509448D01*
X1006102Y508067D01*
X1004972Y505914D01*
Y503482D01*
X1006102Y501329D01*
X1008103Y499948D01*
X1010516Y499655D01*
X1012790Y500517D01*
X1014402Y502337D01*
X1014984Y504698D01*
X989584Y479298D02*
X989002Y481659D01*
X987390Y483479D01*
X985116Y484341D01*
X982703Y484048D01*
X980702Y482667D01*
X979572Y480514D01*
Y478082D01*
X980702Y475929D01*
X982703Y474548D01*
X985116Y474255D01*
X987390Y475117D01*
X989002Y476937D01*
X989584Y479298D01*
X1014984D02*
X1014402Y481659D01*
X1012790Y483479D01*
X1010516Y484341D01*
X1008103Y484048D01*
X1006102Y482667D01*
X1004972Y480514D01*
Y478082D01*
X1006102Y475929D01*
X1008103Y474548D01*
X1010516Y474255D01*
X1012790Y475117D01*
X1014402Y476937D01*
X1014984Y479298D01*
X989584Y453898D02*
X989002Y456259D01*
X987390Y458079D01*
X985116Y458941D01*
X982703Y458648D01*
X980702Y457267D01*
X979572Y455114D01*
Y452682D01*
X980702Y450529D01*
X982703Y449148D01*
X985116Y448855D01*
X987390Y449717D01*
X989002Y451537D01*
X989584Y453898D01*
X1014984D02*
X1014402Y456259D01*
X1012790Y458079D01*
X1010516Y458941D01*
X1008103Y458648D01*
X1006102Y457267D01*
X1004972Y455114D01*
Y452682D01*
X1006102Y450529D01*
X1008103Y449148D01*
X1010516Y448855D01*
X1012790Y449717D01*
X1014402Y451537D01*
X1014984Y453898D01*
X989584Y428498D02*
X989002Y430859D01*
X987390Y432679D01*
X985116Y433541D01*
X982703Y433248D01*
X980702Y431867D01*
X979572Y429714D01*
Y427282D01*
X980702Y425129D01*
X982703Y423748D01*
X985116Y423455D01*
X987390Y424317D01*
X989002Y426137D01*
X989584Y428498D01*
X1014984D02*
X1014402Y430859D01*
X1012790Y432679D01*
X1010516Y433541D01*
X1008103Y433248D01*
X1006102Y431867D01*
X1004972Y429714D01*
Y427282D01*
X1006102Y425129D01*
X1008103Y423748D01*
X1010516Y423455D01*
X1012790Y424317D01*
X1014402Y426137D01*
X1014984Y428498D01*
X1325880Y1071880D02*
X1328420Y1074420D01*
X1330960D01*
X1328420Y1076960D01*
X1330960Y1079500D01*
X1328420D01*
X1325880Y1082040D01*
X1323340Y1079500D01*
X1320800D01*
X1323340Y1076960D01*
X1320800Y1074420D01*
X1323340D01*
X1325880Y1071880D01*
X1261110D02*
X1263650Y1074420D01*
X1266190D01*
X1263650Y1076960D01*
X1266190Y1079500D01*
X1263650D01*
X1261110Y1082040D01*
X1258570Y1079500D01*
X1256030D01*
X1258570Y1076960D01*
X1256030Y1074420D01*
X1258570D01*
X1261110Y1071880D01*
X1300480Y927100D02*
X1303020Y929640D01*
X1305560D01*
X1303020Y932180D01*
X1305560Y934720D01*
X1303020D01*
X1300480Y937260D01*
X1297940Y934720D01*
X1295400D01*
X1297940Y932180D01*
X1295400Y929640D01*
X1297940D01*
X1300480Y927100D01*
X1283970Y928370D02*
X1286510Y930910D01*
X1289050D01*
X1286510Y933450D01*
X1289050Y935990D01*
X1286510D01*
X1283970Y938530D01*
X1281430Y935990D01*
X1278890D01*
X1281430Y933450D01*
X1278890Y930910D01*
X1281430D01*
X1283970Y928370D01*
X1266190D02*
X1268730Y930910D01*
X1271270D01*
X1268730Y933450D01*
X1271270Y935990D01*
X1268730D01*
X1266190Y938530D01*
X1263650Y935990D01*
X1261110D01*
X1263650Y933450D01*
X1261110Y930910D01*
X1263650D01*
X1266190Y928370D01*
X1249680D02*
X1252220Y930910D01*
X1254760D01*
X1252220Y933450D01*
X1254760Y935990D01*
X1252220D01*
X1249680Y938530D01*
X1247140Y935990D01*
X1244600D01*
X1247140Y933450D01*
X1244600Y930910D01*
X1247140D01*
X1249680Y928370D01*
X1233170D02*
X1235710Y930910D01*
X1238250D01*
X1235710Y933450D01*
X1238250Y935990D01*
X1235710D01*
X1233170Y938530D01*
X1230630Y935990D01*
X1228090D01*
X1230630Y933450D01*
X1228090Y930910D01*
X1230630D01*
X1233170Y928370D01*
X1216660D02*
X1219200Y930910D01*
X1221740D01*
X1219200Y933450D01*
X1221740Y935990D01*
X1219200D01*
X1216660Y938530D01*
X1214120Y935990D01*
X1211580D01*
X1214120Y933450D01*
X1211580Y930910D01*
X1214120D01*
X1216660Y928370D01*
X1329690Y858266D02*
X1332230Y860806D01*
X1334770D01*
X1332230Y863346D01*
X1334770Y865886D01*
X1332230D01*
X1329690Y868426D01*
X1327150Y865886D01*
X1324610D01*
X1327150Y863346D01*
X1324610Y860806D01*
X1327150D01*
X1329690Y858266D01*
X1313180Y882904D02*
X1315720Y885444D01*
X1318260D01*
X1315720Y887984D01*
X1318260Y890524D01*
X1315720D01*
X1313180Y893064D01*
X1310640Y890524D01*
X1308100D01*
X1310640Y887984D01*
X1308100Y885444D01*
X1310640D01*
X1313180Y882904D01*
X1071118Y548894D02*
X1073658Y551434D01*
X1076198D01*
X1073658Y553974D01*
X1076198Y556514D01*
X1073658D01*
X1071118Y559054D01*
X1068578Y556514D01*
X1066038D01*
X1068578Y553974D01*
X1066038Y551434D01*
X1068578D01*
X1071118Y548894D01*
X1135634Y549402D02*
X1138174Y551942D01*
X1140714D01*
X1138174Y554482D01*
X1140714Y557022D01*
X1138174D01*
X1135634Y559562D01*
X1133094Y557022D01*
X1130554D01*
X1133094Y554482D01*
X1130554Y551942D01*
X1133094D01*
X1135634Y549402D01*
X1195070D02*
X1197610Y551942D01*
X1200150D01*
X1197610Y554482D01*
X1200150Y557022D01*
X1197610D01*
X1195070Y559562D01*
X1192530Y557022D01*
X1189990D01*
X1192530Y554482D01*
X1189990Y551942D01*
X1192530D01*
X1195070Y549402D01*
X1268730Y549656D02*
X1271270Y552196D01*
X1273810D01*
X1271270Y554736D01*
X1273810Y557276D01*
X1271270D01*
X1268730Y559816D01*
X1266190Y557276D01*
X1263650D01*
X1266190Y554736D01*
X1263650Y552196D01*
X1266190D01*
X1268730Y549656D01*
X1308608D02*
X1311148Y552196D01*
X1313688D01*
X1311148Y554736D01*
X1313688Y557276D01*
X1311148D01*
X1308608Y559816D01*
X1306068Y557276D01*
X1303528D01*
X1306068Y554736D01*
X1303528Y552196D01*
X1306068D01*
X1308608Y549656D01*
X1061720Y826262D02*
X1064260Y828802D01*
X1066800D01*
X1064260Y831342D01*
X1066800Y833882D01*
X1064260D01*
X1061720Y836422D01*
X1059180Y833882D01*
X1056640D01*
X1059180Y831342D01*
X1056640Y828802D01*
X1059180D01*
X1061720Y826262D01*
M02*
