%FSLAX44Y44*%
%MOMM*%
G71*
G01*
G75*
%ADD10R,0.6000X2.2000*%
%ADD11R,0.6000X2.2000*%
%ADD12R,1.1430X1.1430*%
%ADD13C,0.7620*%
%ADD14C,0.5080*%
%ADD15C,0.3810*%
%ADD16C,0.2540*%
%ADD17C,3.0480*%
%ADD18C,1.7780*%
%ADD19C,3.0000*%
%ADD20O,1.3970X2.0320*%
%ADD21R,1.5000X1.5000*%
%ADD22C,1.0160*%
%ADD23C,1.5000*%
%ADD24O,2.0000X1.6000*%
%ADD25C,1.2000*%
D10*
X1221740Y1026160D02*
D03*
X1234440D02*
D03*
X1247140D02*
D03*
X1209040Y1078160D02*
D03*
X1221740D02*
D03*
X1234440D02*
D03*
X1247140D02*
D03*
X1147318Y1076382D02*
D03*
X1134618D02*
D03*
X1121918D02*
D03*
X1109218D02*
D03*
X1147318Y1024382D02*
D03*
X1134618D02*
D03*
X1121918D02*
D03*
D11*
X1209040Y1026160D02*
D03*
X1109218Y1024382D02*
D03*
D12*
X1341120Y1092200D02*
D03*
X1363980D02*
D03*
X1221740Y1117600D02*
D03*
X1244600D02*
D03*
X1310640Y1061720D02*
D03*
X1287780D02*
D03*
X1056640Y1036320D02*
D03*
Y1059180D02*
D03*
X1310640Y1092200D02*
D03*
X1287780D02*
D03*
X1061720Y762000D02*
D03*
Y739140D02*
D03*
X1341120Y1061720D02*
D03*
X1363980D02*
D03*
X1132840Y1117600D02*
D03*
X1109980D02*
D03*
D13*
X1107059Y1198880D02*
X1109980Y1195959D01*
X1121918Y1068070D02*
Y1098042D01*
X1109980Y1109980D02*
X1121918Y1098042D01*
X1109980Y1109980D02*
Y1195959D01*
X1158621Y1189101D02*
Y1198880D01*
X1234440D02*
X1264539D01*
X1221740Y1186180D02*
X1234440Y1198880D01*
X1221740Y1070610D02*
Y1186180D01*
X1316101Y1181481D02*
Y1198880D01*
X1303020Y1168400D02*
X1316101Y1181481D01*
X1252220Y1168400D02*
X1303020D01*
X1244600Y1160780D02*
X1252220Y1168400D01*
X1234440Y1106170D02*
X1244600Y1116330D01*
X1234440Y1070610D02*
Y1106170D01*
X1146810Y1050290D02*
X1147318Y1050798D01*
X1134618Y1024382D02*
Y1049782D01*
X1109218Y1068070D02*
Y1090422D01*
X1098550Y1101090D02*
X1109218Y1090422D01*
X1056640Y1059180D02*
Y1096010D01*
Y1013460D02*
Y1036320D01*
X1043940Y1000760D02*
X1056640Y1013460D01*
X993140Y1211580D02*
X1005840Y1224280D01*
X1344930D02*
X1353820Y1215390D01*
Y1154430D02*
Y1215390D01*
X1337310Y1137920D02*
X1353820Y1154430D01*
X1303020Y1137920D02*
X1337310D01*
X1287780Y1122680D02*
X1303020Y1137920D01*
X1192530Y1112520D02*
X1209040Y1096010D01*
X1363980Y1061720D02*
Y1092200D01*
X1341120Y1045210D02*
Y1061720D01*
X1338580Y1042670D02*
X1341120Y1045210D01*
X1294130Y1042670D02*
X1338580D01*
X1287780Y1049020D02*
X1294130Y1042670D01*
X1056640Y1096010D02*
X1061720Y1101090D01*
X995680D02*
X1098550D01*
X1239520Y1055370D02*
X1247140Y1062990D01*
X1147318Y1055370D02*
X1239520D01*
X1224280Y1026160D02*
X1230630D01*
X1234440Y1029970D02*
Y1041400D01*
X1238250Y1045210D01*
X1289050D01*
X1287780Y1049020D02*
Y1055370D01*
X1244600Y1116330D02*
Y1160780D01*
X1230630Y1026160D02*
X1234440Y1029970D01*
X1134618Y1068070D02*
Y1165098D01*
X1135380Y1165860D02*
X1158621Y1189101D01*
X1147318Y1055370D02*
Y1084580D01*
X1247140Y1062990D02*
Y1085850D01*
X1404620Y1079500D02*
X1417320D01*
X1390650Y1093470D02*
X1404620Y1079500D01*
X1390650Y1093470D02*
Y1108710D01*
X1384300Y1115060D02*
X1390650Y1108710D01*
X1315720Y1115060D02*
X1384300D01*
X1310640Y1109980D02*
X1315720Y1115060D01*
X1247140Y1076960D02*
X1261110D01*
X1325880D02*
Y1092200D01*
X1310640Y1061720D02*
Y1109980D01*
Y1092200D02*
X1341120D01*
X1071118Y553974D02*
X1071626Y554482D01*
X1268476D02*
X1268730Y554736D01*
X1308608D02*
X1337056D01*
X1354836Y536956D01*
X1122172Y530352D02*
Y554482D01*
X1239266Y530606D02*
Y554482D01*
X1071626D02*
X1135634D01*
X1195070D02*
X1268476D01*
X1009904Y530098D02*
Y605790D01*
X1027938Y623824D01*
X1190498D01*
X1203706Y637032D01*
Y802386D01*
X1189990Y816102D02*
X1203706Y802386D01*
X1169162Y816102D02*
X1189990D01*
X1154176Y831088D02*
X1169162Y816102D01*
X1154176Y831088D02*
Y839978D01*
X1076706Y1036320D02*
X1090676Y1050290D01*
X1056640Y1036320D02*
X1076706D01*
X1121410Y1024382D02*
Y1050290D01*
X1090676D02*
X1146810D01*
X1061720Y739140D02*
X1106424D01*
X1107440Y670560D02*
Y736600D01*
X1129030Y743712D02*
Y842010D01*
X1121918Y736600D02*
X1129030Y743712D01*
X1107440Y736600D02*
X1121918D01*
X993140Y856234D02*
X1002792Y846582D01*
X1027176D01*
X1043940Y829818D01*
Y685800D02*
Y829818D01*
Y685800D02*
X1059180Y670560D01*
X1082040D01*
X934720Y990600D02*
X993140D01*
X1192530Y1112520D02*
Y1224280D01*
X993140Y856234D02*
Y1211580D01*
X1005840Y1224280D02*
X1344930D01*
X1209040Y1070610D02*
Y1096010D01*
X1287780Y1061720D02*
Y1122680D01*
X1043940Y853948D02*
X1053338Y844550D01*
X1129030D01*
X1043940Y853948D02*
Y1000760D01*
D14*
X1134618Y1165098D02*
X1142601Y1173081D01*
X1247140Y1007110D02*
Y1026160D01*
Y1007110D02*
X1266190Y988060D01*
X1356360D01*
X1386840Y957580D01*
X1209040Y988060D02*
Y1026160D01*
Y988060D02*
X1223010Y974090D01*
X1346200D01*
X1372870Y947420D01*
X1332230Y961390D02*
X1358900Y934720D01*
Y613410D02*
Y934720D01*
Y613410D02*
X1414780Y557530D01*
X1386840Y640080D02*
X1417320Y609600D01*
X1386840Y640080D02*
Y957580D01*
X1372870Y628650D02*
X1417320Y584200D01*
X1372870Y628650D02*
Y947420D01*
X1147318Y978662D02*
X1164590Y961390D01*
X1147318Y978662D02*
Y1024382D01*
X1164590Y961390D02*
X1332230D01*
X1109218Y971042D02*
Y1024382D01*
Y971042D02*
X1130300Y949960D01*
X1318260D01*
X1344930Y923290D01*
Y605790D02*
Y923290D01*
Y605790D02*
X1417320Y533400D01*
X1296924Y441960D02*
Y932434D01*
X1282954Y427990D02*
X1296924Y441960D01*
X1238250Y427990D02*
X1282954D01*
X1266190Y574040D02*
Y933450D01*
X1257300Y565150D02*
X1266190Y574040D01*
X1187450Y565150D02*
X1257300D01*
X1170940Y548640D02*
X1187450Y565150D01*
X1170940Y439420D02*
Y548640D01*
X1158240Y426720D02*
X1170940Y439420D01*
X1122680Y426720D02*
X1158240D01*
X1121410Y427990D02*
X1122680Y426720D01*
X1249680Y591820D02*
Y933450D01*
X1238250Y580390D02*
X1249680Y591820D01*
X1149350Y440690D02*
X1159510Y450850D01*
X1098550Y430530D02*
X1108710Y440690D01*
X1214120Y430530D02*
X1224280Y440690D01*
X1270000D02*
X1281430Y452120D01*
Y933450D01*
X1233170Y608330D02*
Y933450D01*
X1217930Y593090D02*
X1233170Y608330D01*
X1040638Y428498D02*
X1052830Y440690D01*
X1009904Y428498D02*
X1040638D01*
X1052830Y576580D02*
X1069340Y593090D01*
X1052830Y440690D02*
Y576580D01*
X1069340Y593090D02*
X1217930D01*
X1159510Y567690D02*
X1172210Y580390D01*
X1159510Y450850D02*
Y567690D01*
X1172210Y580390D02*
X1238250D01*
X1216660Y621030D02*
Y930910D01*
X1205230Y609600D02*
X1216660Y621030D01*
X1056640Y609600D02*
X1205230D01*
X1038860Y591820D02*
X1056640Y609600D01*
X984504Y428498D02*
X997458Y441452D01*
X1038860Y451866D02*
Y591820D01*
X1028446Y441452D02*
X1038860Y451866D01*
X1329436Y602234D02*
Y861060D01*
X1394714Y437134D02*
Y536956D01*
X1385570Y427990D02*
X1394714Y437134D01*
X1355090Y427990D02*
X1385570D01*
X1329690D02*
X1342390Y440690D01*
X1376680D02*
X1383284Y447294D01*
Y535686D01*
X1353312Y565658D02*
X1383284Y535686D01*
X1324864Y565658D02*
X1353312D01*
X1313180Y577342D02*
X1324864Y565658D01*
X1313180Y577342D02*
Y887984D01*
X1329436Y602234D02*
X1394714Y536956D01*
X1296924Y932434D02*
X1299210Y934720D01*
X1087120Y381000D02*
Y396748D01*
X1081786Y402082D02*
X1087120Y396748D01*
X969264Y402082D02*
X1081786D01*
X961390Y409956D02*
X969264Y402082D01*
X961390Y409956D02*
Y474472D01*
X966216Y479298D01*
X984504D01*
X1188720Y381000D02*
Y401828D01*
X1180846Y409702D02*
X1188720Y401828D01*
X1075182Y409702D02*
X1180846D01*
X1067054Y417830D02*
X1075182Y409702D01*
X1067054Y417830D02*
Y470916D01*
X1074928Y478790D01*
X1096010D01*
X1290320Y381000D02*
Y397256D01*
X1280922Y406654D02*
X1290320Y397256D01*
X1202182Y406654D02*
X1280922D01*
X1190498Y418338D02*
X1202182Y406654D01*
X1190498Y418338D02*
Y462534D01*
X1210564Y482600D01*
X1391920Y381000D02*
Y392176D01*
X1377696Y406400D02*
X1391920Y392176D01*
X1315466Y406400D02*
X1377696D01*
X1308100Y413766D02*
X1315466Y406400D01*
X1308100Y413766D02*
Y470916D01*
X1315974Y478790D01*
X1329690D01*
X1103884Y762000D02*
X1105408Y763524D01*
X1061720Y762000D02*
X1103884D01*
X1061720Y759714D02*
Y831342D01*
X1216660Y930910D02*
X1219200Y933450D01*
D15*
X1108710Y440690D02*
X1149350D01*
X1224280D02*
X1270000D01*
X997458Y441452D02*
X1028446D01*
X1342390Y440690D02*
X1376680D01*
D16*
X955947Y654047D02*
Y638810D01*
X956672Y654047D02*
Y638810D01*
X953770Y654047D02*
X962477D01*
X964653Y653321D01*
X965379Y652596D01*
X966105Y651144D01*
Y649693D01*
X965379Y648242D01*
X964653Y647517D01*
X962477Y646791D01*
Y654047D02*
X963928Y653321D01*
X964653Y652596D01*
X965379Y651144D01*
Y649693D01*
X964653Y648242D01*
X963928Y647517D01*
X962477Y646791D01*
X956672D02*
X962477D01*
X964653Y646066D01*
X965379Y645340D01*
X966105Y643889D01*
Y641712D01*
X965379Y640261D01*
X964653Y639536D01*
X962477Y638810D01*
X953770D01*
X962477Y646791D02*
X963928Y646066D01*
X964653Y645340D01*
X965379Y643889D01*
Y641712D01*
X964653Y640261D01*
X963928Y639536D01*
X962477Y638810D01*
X969587Y654047D02*
X974666Y646066D01*
Y638810D01*
X970313Y654047D02*
X975392Y646066D01*
Y638810D01*
X980471Y654047D02*
X975392Y646066D01*
X968136Y654047D02*
X972489D01*
X977568D02*
X981922D01*
X972489Y638810D02*
X977568D01*
X984534Y648968D02*
X983808Y648242D01*
X984534Y647517D01*
X985259Y648242D01*
X984534Y648968D01*
Y640261D02*
X983808Y639536D01*
X984534Y638810D01*
X985259Y639536D01*
X984534Y640261D01*
X998537Y651870D02*
X999262Y649693D01*
Y654047D01*
X998537Y651870D01*
X997086Y653321D01*
X994909Y654047D01*
X993458D01*
X991281Y653321D01*
X989830Y651870D01*
X989105Y650419D01*
X988379Y648242D01*
Y644614D01*
X989105Y642438D01*
X989830Y640987D01*
X991281Y639536D01*
X993458Y638810D01*
X994909D01*
X997086Y639536D01*
X998537Y640987D01*
X999262Y642438D01*
X993458Y654047D02*
X992007Y653321D01*
X990556Y651870D01*
X989830Y650419D01*
X989105Y648242D01*
Y644614D01*
X989830Y642438D01*
X990556Y640987D01*
X992007Y639536D01*
X993458Y638810D01*
X1017329Y654047D02*
Y638810D01*
X1018055Y654047D02*
Y638810D01*
X1015152Y654047D02*
X1020231D01*
X1015152Y638810D02*
X1026036D01*
Y643163D01*
X1025310Y638810D01*
X952500Y621935D02*
X953951Y622660D01*
X956128Y624837D01*
Y609600D01*
X955402Y624111D02*
Y609600D01*
X952500D02*
X959030D01*
X965270Y624837D02*
X963093Y624111D01*
X962368Y622660D01*
Y620483D01*
X963093Y619032D01*
X965270Y618307D01*
X968172D01*
X970349Y619032D01*
X971074Y620483D01*
Y622660D01*
X970349Y624111D01*
X968172Y624837D01*
X965270D01*
X963819Y624111D01*
X963093Y622660D01*
Y620483D01*
X963819Y619032D01*
X965270Y618307D01*
X968172D02*
X969623Y619032D01*
X970349Y620483D01*
Y622660D01*
X969623Y624111D01*
X968172Y624837D01*
X965270Y618307D02*
X963093Y617581D01*
X962368Y616856D01*
X961642Y615405D01*
Y612502D01*
X962368Y611051D01*
X963093Y610326D01*
X965270Y609600D01*
X968172D01*
X970349Y610326D01*
X971074Y611051D01*
X971800Y612502D01*
Y615405D01*
X971074Y616856D01*
X970349Y617581D01*
X968172Y618307D01*
X965270D02*
X963819Y617581D01*
X963093Y616856D01*
X962368Y615405D01*
Y612502D01*
X963093Y611051D01*
X963819Y610326D01*
X965270Y609600D01*
X968172D02*
X969623Y610326D01*
X970349Y611051D01*
X971074Y612502D01*
Y615405D01*
X970349Y616856D01*
X969623Y617581D01*
X968172Y618307D01*
X974775Y621935D02*
X975500Y621209D01*
X974775Y620483D01*
X974049Y621209D01*
Y621935D01*
X974775Y623386D01*
X975500Y624111D01*
X977677Y624837D01*
X980579D01*
X982756Y624111D01*
X983481Y623386D01*
X984207Y621935D01*
Y620483D01*
X983481Y619032D01*
X981305Y617581D01*
X977677Y616130D01*
X976226Y615405D01*
X974775Y613953D01*
X974049Y611777D01*
Y609600D01*
X980579Y624837D02*
X982030Y624111D01*
X982756Y623386D01*
X983481Y621935D01*
Y620483D01*
X982756Y619032D01*
X980579Y617581D01*
X977677Y616130D01*
X974049Y611051D02*
X974775Y611777D01*
X976226D01*
X979854Y610326D01*
X982030D01*
X983481Y611051D01*
X984207Y611777D01*
Y613228D01*
X976226Y611777D02*
X979854Y609600D01*
X982756D01*
X983481Y610326D01*
X984207Y611777D01*
X987182Y621935D02*
X987907Y621209D01*
X987182Y620483D01*
X986456Y621209D01*
Y621935D01*
X987182Y623386D01*
X987907Y624111D01*
X990084Y624837D01*
X992986D01*
X995163Y624111D01*
X995888Y622660D01*
Y620483D01*
X995163Y619032D01*
X992986Y618307D01*
X990809D01*
X992986Y624837D02*
X994437Y624111D01*
X995163Y622660D01*
Y620483D01*
X994437Y619032D01*
X992986Y618307D01*
X994437Y617581D01*
X995888Y616130D01*
X996614Y614679D01*
Y612502D01*
X995888Y611051D01*
X995163Y610326D01*
X992986Y609600D01*
X990084D01*
X987907Y610326D01*
X987182Y611051D01*
X986456Y612502D01*
Y613228D01*
X987182Y613953D01*
X987907Y613228D01*
X987182Y612502D01*
X995163Y616856D02*
X995888Y614679D01*
Y612502D01*
X995163Y611051D01*
X994437Y610326D01*
X992986Y609600D01*
D17*
X935990Y1206500D02*
D03*
X1417320Y1187450D02*
D03*
Y419100D02*
D03*
X933450Y381000D02*
D03*
D18*
X1417320Y1104900D02*
D03*
Y1079500D02*
D03*
Y1054100D02*
D03*
Y1028700D02*
D03*
Y1003300D02*
D03*
Y977900D02*
D03*
Y952500D02*
D03*
Y927100D02*
D03*
Y889000D02*
D03*
Y863600D02*
D03*
Y838200D02*
D03*
Y812800D02*
D03*
Y787400D02*
D03*
Y762000D02*
D03*
Y736600D02*
D03*
Y711200D02*
D03*
Y660400D02*
D03*
Y635000D02*
D03*
Y609600D02*
D03*
Y584200D02*
D03*
Y558800D02*
D03*
Y533400D02*
D03*
Y508000D02*
D03*
Y482600D02*
D03*
Y381000D02*
D03*
X1391920D02*
D03*
X1366520D02*
D03*
X1341120D02*
D03*
X1315720D02*
D03*
X1290320D02*
D03*
X1264920D02*
D03*
X1239520D02*
D03*
X1214120D02*
D03*
X1188720D02*
D03*
X1163320D02*
D03*
X1137920D02*
D03*
X1112520D02*
D03*
X1087120D02*
D03*
X1061720D02*
D03*
X1036320D02*
D03*
X1010920D02*
D03*
X985520D02*
D03*
X934720Y431800D02*
D03*
Y457200D02*
D03*
Y482600D02*
D03*
Y508000D02*
D03*
Y533400D02*
D03*
Y558800D02*
D03*
Y584200D02*
D03*
Y609600D02*
D03*
Y685800D02*
D03*
Y711200D02*
D03*
Y736600D02*
D03*
Y762000D02*
D03*
Y787400D02*
D03*
Y812800D02*
D03*
Y838200D02*
D03*
Y889000D02*
D03*
Y914400D02*
D03*
Y939800D02*
D03*
Y965200D02*
D03*
Y990600D02*
D03*
Y1016000D02*
D03*
Y1041400D02*
D03*
Y1066800D02*
D03*
X1132840Y670560D02*
D03*
X1107440Y762000D02*
D03*
X1238250Y478790D02*
D03*
X1212850D02*
D03*
X1238250Y529590D02*
D03*
X1355090Y478790D02*
D03*
X1329690D02*
D03*
X1355090Y529590D02*
D03*
X1121410Y478790D02*
D03*
X1096010D02*
D03*
X1121410Y529590D02*
D03*
X934720Y660400D02*
D03*
X1329690Y453390D02*
D03*
Y427990D02*
D03*
X1212850Y453390D02*
D03*
Y427990D02*
D03*
X1096010Y453390D02*
D03*
Y427990D02*
D03*
X1009904Y530098D02*
D03*
X984504Y479298D02*
D03*
X1009904D02*
D03*
X984504Y453898D02*
D03*
Y428498D02*
D03*
D19*
X1316101Y1198880D02*
D03*
X1264539D02*
D03*
X1107059D02*
D03*
X1158621D02*
D03*
D20*
X1082040Y670560D02*
D03*
X1107440D02*
D03*
D21*
X1158240D02*
D03*
X1107440Y736600D02*
D03*
X1212850Y529590D02*
D03*
X1329690D02*
D03*
X1096010D02*
D03*
X1017270Y792480D02*
D03*
X989330D02*
D03*
X1129030Y842010D02*
D03*
Y867410D02*
D03*
Y892810D02*
D03*
Y918210D02*
D03*
X1018540Y958850D02*
D03*
X1043940D02*
D03*
X993140D02*
D03*
X984504Y530098D02*
D03*
D22*
X1238250Y504190D02*
D03*
X1212850D02*
D03*
X1355090D02*
D03*
X1329690D02*
D03*
X1121410D02*
D03*
X1096010D02*
D03*
X984504Y504698D02*
D03*
X1009904D02*
D03*
D23*
X1017270Y767080D02*
D03*
Y741680D02*
D03*
Y716280D02*
D03*
X989330Y767080D02*
D03*
Y741680D02*
D03*
Y716280D02*
D03*
X1179830Y842010D02*
D03*
X1154430D02*
D03*
X1179830Y867410D02*
D03*
X1154430D02*
D03*
X1179830Y892810D02*
D03*
X1154430D02*
D03*
X1179830Y918210D02*
D03*
X1154430D02*
D03*
X1018540Y933450D02*
D03*
Y908050D02*
D03*
Y882650D02*
D03*
X1043940Y933450D02*
D03*
Y908050D02*
D03*
Y882650D02*
D03*
X993140Y933450D02*
D03*
Y908050D02*
D03*
Y882650D02*
D03*
D24*
X1355090Y453390D02*
D03*
Y427990D02*
D03*
X1238250Y453390D02*
D03*
Y427990D02*
D03*
X1121410Y453390D02*
D03*
Y427990D02*
D03*
X1009904Y453898D02*
D03*
Y428498D02*
D03*
D25*
X1325880Y1076960D02*
D03*
X1261110D02*
D03*
X1300480Y932180D02*
D03*
X1283970Y933450D02*
D03*
X1266190D02*
D03*
X1249680D02*
D03*
X1233170D02*
D03*
X1216660D02*
D03*
X1329690Y863346D02*
D03*
X1313180Y887984D02*
D03*
X1071118Y553974D02*
D03*
X1135634Y554482D02*
D03*
X1195070D02*
D03*
X1268730Y554736D02*
D03*
X1308608D02*
D03*
X1061720Y831342D02*
D03*
M02*
