%FSLAX44Y44*%
%MOMM*%
G71*
G01*
G75*
%ADD10R,0.6000X2.2000*%
%ADD11R,0.6000X2.2000*%
%ADD12R,1.1430X1.1430*%
%ADD13C,0.7620*%
%ADD14C,0.5080*%
%ADD15C,0.3810*%
%ADD16C,0.2540*%
%ADD17C,3.0480*%
%ADD18C,1.7780*%
%ADD19C,3.0000*%
%ADD20O,1.3970X2.0320*%
%ADD21R,1.5000X1.5000*%
%ADD22C,1.0160*%
%ADD23C,1.5000*%
%ADD24O,2.0000X1.6000*%
%ADD25C,1.2000*%
%ADD26C,0.1693*%
D26*
X920750Y1206500D02*
X951230D01*
X935990Y1191260D02*
Y1221740D01*
X1402080Y1187450D02*
X1432560D01*
X1417320Y1172210D02*
Y1202690D01*
X1412820Y1104900D02*
X1421820D01*
X1417320Y1100400D02*
Y1109400D01*
X1412820Y1079500D02*
X1421820D01*
X1417320Y1075000D02*
Y1084000D01*
X1412820Y1054100D02*
X1421820D01*
X1417320Y1049600D02*
Y1058600D01*
X1412820Y1028700D02*
X1421820D01*
X1417320Y1024200D02*
Y1033200D01*
X1412820Y1003300D02*
X1421820D01*
X1417320Y998800D02*
Y1007800D01*
X1412820Y977900D02*
X1421820D01*
X1417320Y973400D02*
Y982400D01*
X1412820Y952500D02*
X1421820D01*
X1417320Y948000D02*
Y957000D01*
X1412820Y927100D02*
X1421820D01*
X1417320Y922600D02*
Y931600D01*
X1412820Y889000D02*
X1421820D01*
X1417320Y884500D02*
Y893500D01*
X1412820Y863600D02*
X1421820D01*
X1417320Y859100D02*
Y868100D01*
X1412820Y838200D02*
X1421820D01*
X1417320Y833700D02*
Y842700D01*
X1412820Y812800D02*
X1421820D01*
X1417320Y808300D02*
Y817300D01*
X1412820Y787400D02*
X1421820D01*
X1417320Y782900D02*
Y791900D01*
X1412820Y762000D02*
X1421820D01*
X1417320Y757500D02*
Y766500D01*
X1412820Y736600D02*
X1421820D01*
X1417320Y732100D02*
Y741100D01*
X1412820Y711200D02*
X1421820D01*
X1417320Y706700D02*
Y715700D01*
X1412820Y660400D02*
X1421820D01*
X1417320Y655900D02*
Y664900D01*
X1412820Y635000D02*
X1421820D01*
X1417320Y630500D02*
Y639500D01*
X1412820Y609600D02*
X1421820D01*
X1417320Y605100D02*
Y614100D01*
X1412820Y584200D02*
X1421820D01*
X1417320Y579700D02*
Y588700D01*
X1412820Y558800D02*
X1421820D01*
X1417320Y554300D02*
Y563300D01*
X1412820Y533400D02*
X1421820D01*
X1417320Y528900D02*
Y537900D01*
X1412820Y508000D02*
X1421820D01*
X1417320Y503500D02*
Y512500D01*
X1412820Y482600D02*
X1421820D01*
X1417320Y478100D02*
Y487100D01*
X1412820Y381000D02*
X1421820D01*
X1417320Y376500D02*
Y385500D01*
X1387420Y381000D02*
X1396420D01*
X1391920Y376500D02*
Y385500D01*
X1362020Y381000D02*
X1371020D01*
X1366520Y376500D02*
Y385500D01*
X1336620Y381000D02*
X1345620D01*
X1341120Y376500D02*
Y385500D01*
X1311220Y381000D02*
X1320220D01*
X1315720Y376500D02*
Y385500D01*
X1285820Y381000D02*
X1294820D01*
X1290320Y376500D02*
Y385500D01*
X1260420Y381000D02*
X1269420D01*
X1264920Y376500D02*
Y385500D01*
X1235020Y381000D02*
X1244020D01*
X1239520Y376500D02*
Y385500D01*
X1209620Y381000D02*
X1218620D01*
X1214120Y376500D02*
Y385500D01*
X1184220Y381000D02*
X1193220D01*
X1188720Y376500D02*
Y385500D01*
X1158820Y381000D02*
X1167820D01*
X1163320Y376500D02*
Y385500D01*
X1133420Y381000D02*
X1142420D01*
X1137920Y376500D02*
Y385500D01*
X1108020Y381000D02*
X1117020D01*
X1112520Y376500D02*
Y385500D01*
X1082620Y381000D02*
X1091620D01*
X1087120Y376500D02*
Y385500D01*
X1057220Y381000D02*
X1066220D01*
X1061720Y376500D02*
Y385500D01*
X1031820Y381000D02*
X1040820D01*
X1036320Y376500D02*
Y385500D01*
X1006420Y381000D02*
X1015420D01*
X1010920Y376500D02*
Y385500D01*
X981020Y381000D02*
X990020D01*
X985520Y376500D02*
Y385500D01*
X930220Y431800D02*
X939220D01*
X934720Y427300D02*
Y436300D01*
X930220Y457200D02*
X939220D01*
X934720Y452700D02*
Y461700D01*
X930220Y482600D02*
X939220D01*
X934720Y478100D02*
Y487100D01*
X930220Y508000D02*
X939220D01*
X934720Y503500D02*
Y512500D01*
X930220Y533400D02*
X939220D01*
X934720Y528900D02*
Y537900D01*
X930220Y558800D02*
X939220D01*
X934720Y554300D02*
Y563300D01*
X930220Y584200D02*
X939220D01*
X934720Y579700D02*
Y588700D01*
X930220Y609600D02*
X939220D01*
X934720Y605100D02*
Y614100D01*
X930220Y685800D02*
X939220D01*
X934720Y681300D02*
Y690300D01*
X930220Y711200D02*
X939220D01*
X934720Y706700D02*
Y715700D01*
X930220Y736600D02*
X939220D01*
X934720Y732100D02*
Y741100D01*
X930220Y762000D02*
X939220D01*
X934720Y757500D02*
Y766500D01*
X930220Y787400D02*
X939220D01*
X934720Y782900D02*
Y791900D01*
X930220Y812800D02*
X939220D01*
X934720Y808300D02*
Y817300D01*
X930220Y838200D02*
X939220D01*
X934720Y833700D02*
Y842700D01*
X930220Y889000D02*
X939220D01*
X934720Y884500D02*
Y893500D01*
X930220Y914400D02*
X939220D01*
X934720Y909900D02*
Y918900D01*
X930220Y939800D02*
X939220D01*
X934720Y935300D02*
Y944300D01*
X930220Y965200D02*
X939220D01*
X934720Y960700D02*
Y969700D01*
X930220Y990600D02*
X939220D01*
X934720Y986100D02*
Y995100D01*
X930220Y1016000D02*
X939220D01*
X934720Y1011500D02*
Y1020500D01*
X930220Y1041400D02*
X939220D01*
X934720Y1036900D02*
Y1045900D01*
X930220Y1066800D02*
X939220D01*
X934720Y1062300D02*
Y1071300D01*
X1402080Y419100D02*
X1432560D01*
X1417320Y403860D02*
Y434340D01*
X918210Y381000D02*
X948690D01*
X933450Y365760D02*
Y396240D01*
X1308601Y1198880D02*
X1323601D01*
X1316101Y1191380D02*
Y1206380D01*
X1257039Y1198880D02*
X1272039D01*
X1264539Y1191380D02*
Y1206380D01*
X1077540Y670560D02*
X1086540D01*
X1082040Y666060D02*
Y675060D01*
X1102940Y670560D02*
X1111940D01*
X1107440Y666060D02*
Y675060D01*
X1128340Y670560D02*
X1137340D01*
X1132840Y666060D02*
Y675060D01*
X1153740Y670560D02*
X1162740D01*
X1158240Y666060D02*
Y675060D01*
X1102940Y736600D02*
X1111940D01*
X1107440Y732100D02*
Y741100D01*
X1102940Y762000D02*
X1111940D01*
X1107440Y757500D02*
Y766500D01*
X1233750Y478790D02*
X1242750D01*
X1238250Y474290D02*
Y483290D01*
X1208350Y478790D02*
X1217350D01*
X1212850Y474290D02*
Y483290D01*
X1233750Y504190D02*
X1242750D01*
X1238250Y499690D02*
Y508690D01*
X1208350Y504190D02*
X1217350D01*
X1212850Y499690D02*
Y508690D01*
X1233750Y529590D02*
X1242750D01*
X1238250Y525090D02*
Y534090D01*
X1208350Y529590D02*
X1217350D01*
X1212850Y525090D02*
Y534090D01*
X1350590Y478790D02*
X1359590D01*
X1355090Y474290D02*
Y483290D01*
X1325190Y478790D02*
X1334190D01*
X1329690Y474290D02*
Y483290D01*
X1350590Y504190D02*
X1359590D01*
X1355090Y499690D02*
Y508690D01*
X1325190Y504190D02*
X1334190D01*
X1329690Y499690D02*
Y508690D01*
X1350590Y529590D02*
X1359590D01*
X1355090Y525090D02*
Y534090D01*
X1325190Y529590D02*
X1334190D01*
X1329690Y525090D02*
Y534090D01*
X1116910Y478790D02*
X1125910D01*
X1121410Y474290D02*
Y483290D01*
X1091510Y478790D02*
X1100510D01*
X1096010Y474290D02*
Y483290D01*
X1116910Y504190D02*
X1125910D01*
X1121410Y499690D02*
Y508690D01*
X1091510Y504190D02*
X1100510D01*
X1096010Y499690D02*
Y508690D01*
X1116910Y529590D02*
X1125910D01*
X1121410Y525090D02*
Y534090D01*
X1091510Y529590D02*
X1100510D01*
X1096010Y525090D02*
Y534090D01*
X1012770Y792480D02*
X1021770D01*
X1017270Y787980D02*
Y796980D01*
X1012770Y767080D02*
X1021770D01*
X1017270Y762580D02*
Y771580D01*
X1012770Y741680D02*
X1021770D01*
X1017270Y737180D02*
Y746180D01*
X1012770Y716280D02*
X1021770D01*
X1017270Y711780D02*
Y720780D01*
X984830Y792480D02*
X993830D01*
X989330Y787980D02*
Y796980D01*
X984830Y767080D02*
X993830D01*
X989330Y762580D02*
Y771580D01*
X984830Y741680D02*
X993830D01*
X989330Y737180D02*
Y746180D01*
X984830Y716280D02*
X993830D01*
X989330Y711780D02*
Y720780D01*
X1099559Y1198880D02*
X1114559D01*
X1107059Y1191380D02*
Y1206380D01*
X1151121Y1198880D02*
X1166121D01*
X1158621Y1191380D02*
Y1206380D01*
X1175330Y842010D02*
X1184330D01*
X1179830Y837510D02*
Y846510D01*
X1149930Y842010D02*
X1158930D01*
X1154430Y837510D02*
Y846510D01*
X1124530Y842010D02*
X1133530D01*
X1129030Y837510D02*
Y846510D01*
X1175330Y867410D02*
X1184330D01*
X1179830Y862910D02*
Y871910D01*
X1149930Y867410D02*
X1158930D01*
X1154430Y862910D02*
Y871910D01*
X1124530Y867410D02*
X1133530D01*
X1129030Y862910D02*
Y871910D01*
X1175330Y892810D02*
X1184330D01*
X1179830Y888310D02*
Y897310D01*
X1149930Y892810D02*
X1158930D01*
X1154430Y888310D02*
Y897310D01*
X1124530Y892810D02*
X1133530D01*
X1129030Y888310D02*
Y897310D01*
X1175330Y918210D02*
X1184330D01*
X1179830Y913710D02*
Y922710D01*
X1149930Y918210D02*
X1158930D01*
X1154430Y913710D02*
Y922710D01*
X1124530Y918210D02*
X1133530D01*
X1129030Y913710D02*
Y922710D01*
X1014040Y958850D02*
X1023040D01*
X1018540Y954350D02*
Y963350D01*
X1014040Y933450D02*
X1023040D01*
X1018540Y928950D02*
Y937950D01*
X1014040Y908050D02*
X1023040D01*
X1018540Y903550D02*
Y912550D01*
X1014040Y882650D02*
X1023040D01*
X1018540Y878150D02*
Y887150D01*
X1039440Y958850D02*
X1048440D01*
X1043940Y954350D02*
Y963350D01*
X1039440Y933450D02*
X1048440D01*
X1043940Y928950D02*
Y937950D01*
X1039440Y908050D02*
X1048440D01*
X1043940Y903550D02*
Y912550D01*
X1039440Y882650D02*
X1048440D01*
X1043940Y878150D02*
Y887150D01*
X988640Y958850D02*
X997640D01*
X993140Y954350D02*
Y963350D01*
X988640Y933450D02*
X997640D01*
X993140Y928950D02*
Y937950D01*
X988640Y908050D02*
X997640D01*
X993140Y903550D02*
Y912550D01*
X988640Y882650D02*
X997640D01*
X993140Y878150D02*
Y887150D01*
X930220Y660400D02*
X939220D01*
X934720Y655900D02*
Y664900D01*
X1325190Y453390D02*
X1334190D01*
X1329690Y448890D02*
Y457890D01*
X1350590Y453390D02*
X1359590D01*
X1355090Y448890D02*
Y457890D01*
X1325190Y427990D02*
X1334190D01*
X1329690Y423490D02*
Y432490D01*
X1350590Y427990D02*
X1359590D01*
X1355090Y423490D02*
Y432490D01*
X1208350Y453390D02*
X1217350D01*
X1212850Y448890D02*
Y457890D01*
X1233750Y453390D02*
X1242750D01*
X1238250Y448890D02*
Y457890D01*
X1208350Y427990D02*
X1217350D01*
X1212850Y423490D02*
Y432490D01*
X1233750Y427990D02*
X1242750D01*
X1238250Y423490D02*
Y432490D01*
X1091510Y453390D02*
X1100510D01*
X1096010Y448890D02*
Y457890D01*
X1116910Y453390D02*
X1125910D01*
X1121410Y448890D02*
Y457890D01*
X1091510Y427990D02*
X1100510D01*
X1096010Y423490D02*
Y432490D01*
X1116910Y427990D02*
X1125910D01*
X1121410Y423490D02*
Y432490D01*
X980004Y530098D02*
X989004D01*
X984504Y525598D02*
Y534598D01*
X1005404Y530098D02*
X1014404D01*
X1009904Y525598D02*
Y534598D01*
X980004Y504698D02*
X989004D01*
X984504Y500198D02*
Y509198D01*
X1005404Y504698D02*
X1014404D01*
X1009904Y500198D02*
Y509198D01*
X980004Y479298D02*
X989004D01*
X984504Y474798D02*
Y483798D01*
X1005404Y479298D02*
X1014404D01*
X1009904Y474798D02*
Y483798D01*
X980004Y453898D02*
X989004D01*
X984504Y449398D02*
Y458398D01*
X1005404Y453898D02*
X1014404D01*
X1009904Y449398D02*
Y458398D01*
X980004Y428498D02*
X989004D01*
X984504Y423998D02*
Y432998D01*
X1005404Y428498D02*
X1014404D01*
X1009904Y423998D02*
Y432998D01*
X1323880Y1076960D02*
X1327880D01*
X1325880Y1074960D02*
Y1078960D01*
X1259110Y1076960D02*
X1263110D01*
X1261110Y1074960D02*
Y1078960D01*
X1298480Y932180D02*
X1302480D01*
X1300480Y930180D02*
Y934180D01*
X1281970Y933450D02*
X1285970D01*
X1283970Y931450D02*
Y935450D01*
X1264190Y933450D02*
X1268190D01*
X1266190Y931450D02*
Y935450D01*
X1247680Y933450D02*
X1251680D01*
X1249680Y931450D02*
Y935450D01*
X1231170Y933450D02*
X1235170D01*
X1233170Y931450D02*
Y935450D01*
X1214660Y933450D02*
X1218660D01*
X1216660Y931450D02*
Y935450D01*
X1327690Y863346D02*
X1331690D01*
X1329690Y861346D02*
Y865346D01*
X1311180Y887984D02*
X1315180D01*
X1313180Y885984D02*
Y889984D01*
X1069118Y553974D02*
X1073118D01*
X1071118Y551974D02*
Y555974D01*
X1133634Y554482D02*
X1137634D01*
X1135634Y552482D02*
Y556482D01*
X1193070Y554482D02*
X1197070D01*
X1195070Y552482D02*
Y556482D01*
X1266730Y554736D02*
X1270730D01*
X1268730Y552736D02*
Y556736D01*
X1306608Y554736D02*
X1310608D01*
X1308608Y552736D02*
Y556736D01*
X1059720Y831342D02*
X1063720D01*
X1061720Y829342D02*
Y833342D01*
M02*
