%FSLAX44Y44*%
%MOMM*%
G71*
G01*
G75*
G04 Layer_Physical_Order=2*
G04 Layer_Color=16711680*
%ADD10C,0.2032*%
%ADD11R,1.1430X1.1430*%
%ADD12R,1.1430X1.1430*%
%ADD13R,0.6000X2.2000*%
%ADD14R,0.6000X2.2000*%
%ADD15C,0.5080*%
%ADD16R,1.5000X1.5000*%
%ADD17C,1.7780*%
%ADD18O,1.5240X1.0160*%
%ADD19O,1.5000X1.0160*%
%ADD20C,1.5000*%
%ADD21R,1.5000X1.5000*%
%ADD22O,1.3970X2.0320*%
%ADD23C,3.0000*%
%ADD24C,3.0480*%
%ADD25C,1.6510*%
D10*
X1431544Y1117187D02*
X1429720Y1119025D01*
X1427661Y1120595D01*
X1425406Y1121868D01*
X1422998Y1122818D01*
X1420481Y1123428D01*
X1417905Y1123687D01*
X1415317Y1123589D01*
X1412768Y1123136D01*
X1410305Y1122338D01*
X1407975Y1121208D01*
X1405822Y1119769D01*
X1403888Y1118048D01*
X1402208Y1116077D01*
X1400815Y1113894D01*
X1399736Y1111540D01*
X1398990Y1109061D01*
X1398592Y1106502D01*
X1398550Y1103913D01*
X1398864Y1101343D01*
X1399528Y1098840D01*
X1400529Y1096452D01*
X1401850Y1094225D01*
X1403464Y1092200D01*
X1403235Y914654D02*
X1404984Y912918D01*
X1406945Y911427D01*
X1409085Y910204D01*
X1411366Y909272D01*
X1413749Y908646D01*
X1416193Y908338D01*
X1418657Y908352D01*
X1421098Y908688D01*
X1423474Y909340D01*
X1425745Y910298D01*
X1427870Y911544D01*
X1429814Y913058D01*
X1431544Y914813D01*
Y901287D02*
X1429814Y903042D01*
X1427870Y904556D01*
X1425745Y905802D01*
X1423474Y906760D01*
X1421098Y907412D01*
X1418657Y907748D01*
X1416193Y907762D01*
X1413749Y907454D01*
X1411366Y906828D01*
X1409085Y905896D01*
X1406945Y904673D01*
X1404984Y903182D01*
X1403235Y901446D01*
X1403464Y1092200D02*
X1401892Y1090236D01*
X1400596Y1088080D01*
X1399601Y1085770D01*
X1398922Y1083348D01*
X1398573Y1080856D01*
X1398560Y1078341D01*
X1431544Y1208186D02*
X1429380Y1209515D01*
X1427093Y1210619D01*
X1424707Y1211487D01*
X1422245Y1212109D01*
X1419733Y1212480D01*
X1417196Y1212596D01*
X1414661Y1212455D01*
X1412153Y1212059D01*
X1409697Y1211413D01*
X1407319Y1210522D01*
X1405043Y1209396D01*
X1402893Y1208046D01*
X1400889Y1206486D01*
X1399053Y1204731D01*
X1397404Y1202801D01*
X1395957Y1200714D01*
X1394728Y1198492D01*
X1393730Y1196157D01*
X1392972Y1193734D01*
X1392462Y1191246D01*
X1392206Y1188720D01*
Y1186180D01*
X1392462Y1183654D01*
X1392972Y1181166D01*
X1393730Y1178743D01*
X1394728Y1176408D01*
X1395957Y1174186D01*
X1397404Y1172099D01*
X1399053Y1170169D01*
X1400889Y1168415D01*
X1402893Y1166854D01*
X1405043Y1165505D01*
X1407319Y1164378D01*
X1409697Y1163487D01*
X1412153Y1162841D01*
X1414661Y1162445D01*
X1417196Y1162304D01*
X1419733Y1162420D01*
X1422245Y1162791D01*
X1424707Y1163413D01*
X1427093Y1164281D01*
X1429380Y1165385D01*
X1431544Y1166713D01*
X1431544Y1208186D02*
X1429380Y1209515D01*
X1427093Y1210619D01*
X1424707Y1211487D01*
X1422245Y1212109D01*
X1419733Y1212480D01*
X1417196Y1212596D01*
X1414661Y1212455D01*
X1412153Y1212059D01*
X1409697Y1211413D01*
X1407319Y1210522D01*
X1405043Y1209396D01*
X1402893Y1208046D01*
X1400889Y1206486D01*
X1399053Y1204731D01*
X1397404Y1202801D01*
X1395957Y1200714D01*
X1394728Y1198492D01*
X1393730Y1196157D01*
X1392972Y1193734D01*
X1392462Y1191246D01*
X1392206Y1188720D01*
Y1186180D01*
X1392462Y1183654D01*
X1392972Y1181166D01*
X1393730Y1178743D01*
X1394728Y1176408D01*
X1395957Y1174186D01*
X1397404Y1172099D01*
X1399053Y1170169D01*
X1400889Y1168415D01*
X1402893Y1166854D01*
X1405043Y1165505D01*
X1407319Y1164378D01*
X1409697Y1163487D01*
X1412153Y1162841D01*
X1414661Y1162445D01*
X1417196Y1162304D01*
X1419733Y1162420D01*
X1422245Y1162791D01*
X1424707Y1163413D01*
X1427093Y1164281D01*
X1429380Y1165385D01*
X1431544Y1166713D01*
X1336429Y1223264D02*
X1333962Y1222617D01*
X1331574Y1221722D01*
X1329290Y1220587D01*
X1327134Y1219225D01*
X1325129Y1217649D01*
X1323296Y1215876D01*
X1321653Y1213926D01*
X1320219Y1211817D01*
X1319007Y1209573D01*
X1318032Y1207217D01*
X1317302Y1204773D01*
X1316826Y1202268D01*
X1316609Y1199727D01*
X1316653Y1197177D01*
X1316958Y1194645D01*
X1317520Y1192157D01*
X1318333Y1189740D01*
X1319389Y1187419D01*
X1320677Y1185218D01*
X1322183Y1183160D01*
X1323892Y1181267D01*
X1325785Y1179558D01*
X1327843Y1178053D01*
X1330045Y1176765D01*
X1332366Y1175710D01*
X1334783Y1174897D01*
X1337271Y1174336D01*
X1339803Y1174032D01*
X1342353Y1173989D01*
X1344894Y1174206D01*
X1347399Y1174682D01*
X1349843Y1175413D01*
X1352199Y1176389D01*
X1354443Y1177600D01*
X1356551Y1179035D01*
X1358501Y1180678D01*
X1360273Y1182512D01*
X1361849Y1184518D01*
X1363211Y1186674D01*
X1364345Y1188958D01*
X1365240Y1191346D01*
X1365886Y1193813D01*
X1366276Y1196333D01*
X1366407Y1198880D01*
X1366270Y1201492D01*
X1365859Y1204074D01*
X1365180Y1206600D01*
X1364240Y1209041D01*
X1363049Y1211369D01*
X1361621Y1213560D01*
X1359971Y1215589D01*
X1358117Y1217433D01*
X1356080Y1219073D01*
X1353882Y1220491D01*
X1351548Y1221670D01*
X1349102Y1222598D01*
X1346573Y1223264D01*
X1376781Y1056563D02*
X1375229Y1054675D01*
X1374075Y1052521D01*
X1373364Y1050182D01*
X1373124Y1047750D01*
X1376769Y1056551D02*
X1375222Y1054665D01*
X1374071Y1052513D01*
X1373363Y1050178D01*
X1373124Y1047750D01*
X1403464Y876300D02*
X1401882Y874321D01*
X1400580Y872148D01*
X1399583Y869819D01*
X1398907Y867377D01*
X1398567Y864867D01*
Y862333D01*
X1398907Y859823D01*
X1399583Y857381D01*
X1400580Y855052D01*
X1401882Y852879D01*
X1403464Y850900D01*
X1401882Y848921D01*
X1400580Y846748D01*
X1399583Y844419D01*
X1398907Y841977D01*
X1398567Y839467D01*
Y836933D01*
X1398907Y834423D01*
X1399583Y831981D01*
X1400580Y829652D01*
X1401882Y827479D01*
X1403464Y825500D01*
X1389303Y839369D02*
X1387415Y840921D01*
X1385261Y842075D01*
X1382922Y842786D01*
X1380490Y843026D01*
X1389291Y839381D02*
X1387405Y840928D01*
X1385253Y842079D01*
X1382918Y842787D01*
X1380490Y843026D01*
X1363726Y816610D02*
X1363654Y818134D01*
X1403464Y774700D02*
X1401717Y772480D01*
X1399617Y770789D01*
X1401717Y772480D02*
X1399629Y770801D01*
X1394537Y778611D02*
X1396401Y777075D01*
X1398526Y775927D01*
X1400833Y775211D01*
X1403235Y774955D01*
X1394549Y778599D02*
X1396411Y777068D01*
X1398534Y775924D01*
X1400837Y775210D01*
X1403235Y774955D01*
X1398594Y734985D02*
X1398966Y732549D01*
X1399653Y730183D01*
X1400644Y727928D01*
X1401922Y725821D01*
X1403464Y723900D01*
X1391920Y733044D02*
X1394254Y733265D01*
X1396505Y733919D01*
X1398593Y734985D01*
X1403464Y723900D02*
X1401913Y721967D01*
X1400631Y719846D01*
X1399638Y717575D01*
X1398953Y715193D01*
X1398587Y712742D01*
X1398547Y710264D01*
X1398834Y707802D01*
X1399441Y705400D01*
X1400360Y703098D01*
X1401573Y700937D01*
X1403060Y698954D01*
X1404795Y697185D01*
X1406748Y695659D01*
X1408885Y694403D01*
X1411168Y693439D01*
X1391920Y733044D02*
X1394254Y733265D01*
X1396505Y733919D01*
X1398593Y734985D01*
X1382014Y796290D02*
X1382253Y793862D01*
X1382961Y791527D01*
X1384111Y789375D01*
X1385659Y787489D01*
X1382014Y796290D02*
X1382254Y793858D01*
X1382965Y791519D01*
X1384119Y789365D01*
X1385671Y787477D01*
X1359916Y806153D02*
X1361544Y808475D01*
X1362744Y811045D01*
X1363479Y813785D01*
X1363726Y816610D01*
X1356259Y774777D02*
X1357811Y776665D01*
X1358965Y778819D01*
X1359676Y781158D01*
X1359916Y783590D01*
X1356271Y774789D02*
X1357818Y776675D01*
X1358969Y778827D01*
X1359677Y781162D01*
X1359916Y783590D01*
X1314845Y1198880D02*
X1314708Y1201492D01*
X1314297Y1204074D01*
X1313618Y1206600D01*
X1312678Y1209041D01*
X1311487Y1211369D01*
X1310059Y1213560D01*
X1308409Y1215589D01*
X1306555Y1217433D01*
X1304518Y1219073D01*
X1302320Y1220491D01*
X1299986Y1221670D01*
X1297540Y1222598D01*
X1295011Y1223264D01*
X1284867D02*
X1282400Y1222617D01*
X1280012Y1221722D01*
X1277728Y1220587D01*
X1275572Y1219225D01*
X1273567Y1217649D01*
X1271734Y1215876D01*
X1270091Y1213926D01*
X1268657Y1211817D01*
X1267445Y1209573D01*
X1266470Y1207217D01*
X1265740Y1204773D01*
X1265265Y1202268D01*
X1265047Y1199727D01*
X1265091Y1197177D01*
X1265396Y1194645D01*
X1265957Y1192157D01*
X1266771Y1189740D01*
X1267827Y1187419D01*
X1269115Y1185218D01*
X1270621Y1183160D01*
X1272330Y1181267D01*
X1274223Y1179558D01*
X1276281Y1178053D01*
X1278483Y1176765D01*
X1280804Y1175710D01*
X1283221Y1174897D01*
X1285709Y1174336D01*
X1288241Y1174032D01*
X1290791Y1173989D01*
X1293332Y1174206D01*
X1295837Y1174682D01*
X1298281Y1175413D01*
X1300637Y1176389D01*
X1302881Y1177600D01*
X1304989Y1179035D01*
X1306939Y1180678D01*
X1308712Y1182512D01*
X1310287Y1184518D01*
X1311649Y1186674D01*
X1312783Y1188958D01*
X1313678Y1191346D01*
X1314324Y1193813D01*
X1314714Y1196333D01*
X1314845Y1198880D01*
X1339046Y843026D02*
X1341043Y844651D01*
X1339046Y843026D02*
X1341031Y844639D01*
X1331286Y818134D02*
X1331248Y815560D01*
X1331617Y813012D01*
X1332384Y810554D01*
X1333529Y808249D01*
X1335024Y806153D01*
X1332119Y785840D02*
X1329603Y785827D01*
X1327112Y785478D01*
X1324690Y784799D01*
X1322380Y783804D01*
X1320224Y782508D01*
X1318260Y780936D01*
X1316337Y782479D01*
X1314230Y783757D01*
X1311973Y784748D01*
X1309605Y785435D01*
X1307168Y785807D01*
X1304704Y785856D01*
X1302254Y785583D01*
X1299861Y784991D01*
X1297566Y784091D01*
X1349756Y767080D02*
X1349720Y768239D01*
X1347382Y757936D02*
X1348408Y760090D01*
X1349153Y762356D01*
X1349605Y764699D01*
X1349756Y767080D01*
X1308177Y736701D02*
X1310065Y735149D01*
X1312219Y733995D01*
X1314558Y733284D01*
X1316990Y733044D01*
X1308189Y736689D02*
X1310075Y735142D01*
X1312227Y733991D01*
X1314562Y733283D01*
X1316990Y733044D01*
X1267206Y816358D02*
X1269428Y815338D01*
X1271778Y814663D01*
X1274203Y814348D01*
X1276647Y814400D01*
X1279056Y814818D01*
X1281375Y815593D01*
X1283552Y816706D01*
X1285537Y818134D01*
X1431544Y672687D02*
X1430085Y674197D01*
X1428466Y675535D01*
X1379220Y688086D02*
X1376792Y687847D01*
X1374457Y687139D01*
X1372305Y685988D01*
X1370419Y684441D01*
X1379220Y688086D02*
X1376788Y687846D01*
X1374449Y687135D01*
X1372295Y685981D01*
X1370407Y684429D01*
X1398733Y663194D02*
X1398528Y660812D01*
X1398628Y658423D01*
X1399031Y656066D01*
X1399729Y653779D01*
X1400712Y651599D01*
X1401963Y649562D01*
X1403464Y647700D01*
X1401882Y645721D01*
X1400580Y643548D01*
X1399583Y641219D01*
X1398907Y638777D01*
X1398567Y636267D01*
Y633733D01*
X1398907Y631223D01*
X1399583Y628781D01*
X1400580Y626452D01*
X1401882Y624279D01*
X1403464Y622300D01*
X1401882Y620321D01*
X1400580Y618148D01*
X1399583Y615819D01*
X1398907Y613377D01*
X1398567Y610867D01*
Y608333D01*
X1398907Y605823D01*
X1399583Y603381D01*
X1400580Y601052D01*
X1401882Y598879D01*
X1403464Y596900D01*
X1333874Y687571D02*
X1331610Y688461D01*
X1329251Y689051D01*
X1326835Y689332D01*
X1324403Y689298D01*
X1321996Y688950D01*
X1319654Y688295D01*
X1317416Y687342D01*
X1315320Y686109D01*
X1313400Y684615D01*
X1313400Y656505D02*
X1315320Y655011D01*
X1317416Y653778D01*
X1319654Y652825D01*
X1321996Y652170D01*
X1324403Y651822D01*
X1326835Y651788D01*
X1329251Y652069D01*
X1331610Y652659D01*
X1333874Y653549D01*
X1403464Y495300D02*
X1401850Y493275D01*
X1400529Y491048D01*
X1399528Y488660D01*
X1398864Y486157D01*
X1398550Y483587D01*
X1398592Y480998D01*
X1398990Y478439D01*
X1399736Y475960D01*
X1400815Y473606D01*
X1402208Y471423D01*
X1403888Y469452D01*
X1405822Y467731D01*
X1407975Y466292D01*
X1410305Y465162D01*
X1412768Y464364D01*
X1415317Y463911D01*
X1417905Y463813D01*
X1420481Y464072D01*
X1422998Y464682D01*
X1425406Y465632D01*
X1427661Y466905D01*
X1429720Y468475D01*
X1431544Y470313D01*
X1403464Y596900D02*
X1401882Y594921D01*
X1400580Y592748D01*
X1399583Y590419D01*
X1398907Y587977D01*
X1398567Y585467D01*
Y582933D01*
X1398907Y580423D01*
X1399583Y577981D01*
X1400580Y575652D01*
X1401882Y573479D01*
X1403464Y571500D01*
X1401882Y569521D01*
X1400580Y567348D01*
X1399583Y565019D01*
X1398907Y562577D01*
X1398567Y560067D01*
Y557533D01*
X1398907Y555023D01*
X1399583Y552581D01*
X1400580Y550252D01*
X1401882Y548079D01*
X1403464Y546100D01*
X1401882Y544121D01*
X1400580Y541948D01*
X1399583Y539619D01*
X1398907Y537177D01*
X1398567Y534667D01*
Y532133D01*
X1398907Y529623D01*
X1399583Y527181D01*
X1400580Y524852D01*
X1401882Y522679D01*
X1403464Y520700D01*
X1401882Y518721D01*
X1400580Y516548D01*
X1399583Y514219D01*
X1398907Y511777D01*
X1398567Y509267D01*
Y506733D01*
X1398907Y504223D01*
X1399583Y501781D01*
X1400580Y499452D01*
X1401882Y497279D01*
X1403464Y495300D01*
X1428113Y396388D02*
X1429868Y397308D01*
X1431544Y398364D01*
X1428113Y396388D02*
X1429868Y397308D01*
X1431544Y398364D01*
Y439836D02*
X1429403Y441153D01*
X1427142Y442248D01*
X1424782Y443113D01*
X1422348Y443738D01*
X1419864Y444117D01*
X1417355Y444246D01*
X1414845Y444124D01*
X1412359Y443752D01*
X1409924Y443134D01*
X1407562Y442275D01*
X1405298Y441186D01*
X1403153Y439875D01*
X1401150Y438358D01*
X1399309Y436648D01*
X1397647Y434762D01*
X1396183Y432721D01*
X1394928Y430543D01*
X1393898Y428251D01*
X1393102Y425868D01*
X1392547Y423417D01*
X1392240Y420923D01*
X1392184Y418410D01*
X1392378Y415905D01*
X1392821Y413431D01*
X1393509Y411015D01*
X1394435Y408678D01*
X1395590Y406446D01*
X1396961Y404341D01*
X1398536Y402382D01*
X1400298Y400591D01*
X1402231Y398984D01*
X1404314Y397579D01*
X1406527Y396388D01*
X1431544Y439836D02*
X1429403Y441153D01*
X1427142Y442248D01*
X1424782Y443113D01*
X1422348Y443738D01*
X1419864Y444117D01*
X1417355Y444246D01*
X1414845Y444124D01*
X1412359Y443752D01*
X1409924Y443134D01*
X1407562Y442275D01*
X1405298Y441186D01*
X1403153Y439875D01*
X1401150Y438358D01*
X1399309Y436648D01*
X1397647Y434762D01*
X1396183Y432721D01*
X1394928Y430543D01*
X1393898Y428251D01*
X1393102Y425868D01*
X1392547Y423417D01*
X1392240Y420923D01*
X1392184Y418410D01*
X1392378Y415905D01*
X1392821Y413431D01*
X1393509Y411015D01*
X1394435Y408678D01*
X1395590Y406446D01*
X1396961Y404341D01*
X1398536Y402382D01*
X1400298Y400591D01*
X1402231Y398984D01*
X1404314Y397579D01*
X1406527Y396388D01*
X1406527Y396388D02*
X1404620Y394856D01*
X1429607Y366776D02*
X1431544Y368713D01*
Y393287D02*
X1429924Y394943D01*
X1428113Y396388D01*
X1404620Y394856D02*
X1402641Y396438D01*
X1400468Y397740D01*
X1398139Y398737D01*
X1395697Y399413D01*
X1393187Y399753D01*
X1390653D01*
X1388143Y399413D01*
X1385701Y398737D01*
X1383372Y397740D01*
X1381199Y396438D01*
X1379220Y394856D01*
X1377241Y396438D01*
X1375068Y397740D01*
X1372739Y398737D01*
X1370297Y399413D01*
X1367787Y399753D01*
X1365253D01*
X1362743Y399413D01*
X1360301Y398737D01*
X1357972Y397740D01*
X1355799Y396438D01*
X1353820Y394856D01*
X1330871Y511899D02*
X1332419Y513785D01*
X1333569Y515937D01*
X1334277Y518272D01*
X1334516Y520700D01*
X1330859Y511887D02*
X1332411Y513775D01*
X1333565Y515929D01*
X1334276Y518268D01*
X1334516Y520700D01*
X1314565Y500634D02*
X1316967Y500891D01*
X1319274Y501607D01*
X1321399Y502755D01*
X1323263Y504291D01*
X1314565Y500634D02*
X1316963Y500890D01*
X1319266Y501604D01*
X1321389Y502748D01*
X1323251Y504279D01*
X1353820Y394856D02*
X1351841Y396438D01*
X1349668Y397740D01*
X1347339Y398737D01*
X1344897Y399413D01*
X1342387Y399753D01*
X1339853D01*
X1337343Y399413D01*
X1334901Y398737D01*
X1332572Y397740D01*
X1330399Y396438D01*
X1328420Y394856D01*
X1287780Y473824D02*
X1289776Y472229D01*
X1291971Y470920D01*
X1294323Y469921D01*
X1296788Y469250D01*
X1299321Y468920D01*
X1301876Y468936D01*
X1304406Y469299D01*
X1306862Y470001D01*
X1309201Y471030D01*
X1311378Y472366D01*
X1313355Y473986D01*
X1315093Y475858D01*
X1316561Y477949D01*
X1317732Y480220D01*
X1318585Y482629D01*
X1319102Y485131D01*
X1319276Y487680D01*
Y487680D02*
X1319070Y490459D01*
X1318454Y493176D01*
X1317444Y495773D01*
X1316062Y498192D01*
X1314336Y500380D01*
X1328420Y394856D02*
X1326441Y396438D01*
X1324268Y397740D01*
X1321939Y398737D01*
X1319497Y399413D01*
X1316987Y399753D01*
X1314453D01*
X1311943Y399413D01*
X1309501Y398737D01*
X1307172Y397740D01*
X1304999Y396438D01*
X1303020Y394856D01*
X1309108Y652864D02*
X1311407Y654504D01*
X1313400Y656505D01*
Y684615D02*
X1311644Y686411D01*
X1309641Y687926D01*
X1307435Y689128D01*
X1305076Y689989D01*
X1302614Y690491D01*
X1300106Y690622D01*
X1312926Y643890D02*
X1312686Y646322D01*
X1311975Y648661D01*
X1310821Y650815D01*
X1309269Y652703D01*
X1312926Y643890D02*
X1312687Y646318D01*
X1311979Y648653D01*
X1310829Y650805D01*
X1309281Y652691D01*
X1267206Y652442D02*
X1269482Y651449D01*
X1271878Y650800D01*
X1274344Y650510D01*
X1276826Y650584D01*
X1278859Y647909D01*
X1275214Y690626D02*
X1272450Y690420D01*
X1269756Y689765D01*
X1267206Y688678D01*
X1276826Y650584D02*
X1278871Y647897D01*
X1186554Y687571D02*
X1183747Y688626D01*
X1227836Y589280D02*
X1227679Y591702D01*
X1227212Y594083D01*
X1226442Y596384D01*
X1225382Y598567D01*
X1224049Y600595D01*
X1222466Y602434D01*
X1220660Y604054D01*
X1218659Y605428D01*
X1221386Y575107D02*
X1223272Y577002D01*
X1224870Y579146D01*
X1226148Y581494D01*
X1227079Y584000D01*
X1227646Y586613D01*
X1227836Y589280D01*
X1220284Y551767D02*
X1222068Y553294D01*
X1223591Y555082D01*
X1224817Y557085D01*
X1225714Y559255D01*
X1226262Y561539D01*
X1226446Y563880D01*
X1226232Y566406D01*
X1225594Y568860D01*
X1224553Y571171D01*
X1223137Y573274D01*
X1221386Y575107D01*
X1260237Y501549D02*
X1261224Y500380D01*
X1256107Y504291D02*
X1258034Y502712D01*
X1260237Y501549D01*
X1261224Y500380D02*
X1259664Y498433D01*
X1258376Y496297D01*
X1257382Y494010D01*
X1256700Y491610D01*
X1256341Y489142D01*
X1256312Y486647D01*
X1256614Y484171D01*
X1257242Y481757D01*
X1258183Y479447D01*
X1259422Y477282D01*
X1260937Y475300D01*
X1262700Y473537D01*
X1264682Y472022D01*
X1266847Y470783D01*
X1269157Y469842D01*
X1271571Y469214D01*
X1274047Y468912D01*
X1276542Y468941D01*
X1279010Y469300D01*
X1281409Y469982D01*
X1283697Y470976D01*
X1285833Y472264D01*
X1287780Y473824D01*
X1243732Y517471D02*
X1245959Y514439D01*
X1243732Y517471D02*
X1245971Y514427D01*
X1256119Y504279D02*
X1258041Y502708D01*
X1260237Y501549D01*
X1303020Y394856D02*
X1301041Y396438D01*
X1298868Y397740D01*
X1296539Y398737D01*
X1294097Y399413D01*
X1291587Y399753D01*
X1289053D01*
X1286543Y399413D01*
X1284101Y398737D01*
X1281772Y397740D01*
X1279599Y396438D01*
X1277620Y394856D01*
X1275641Y396438D01*
X1273468Y397740D01*
X1271139Y398737D01*
X1268697Y399413D01*
X1266187Y399753D01*
X1263653D01*
X1261143Y399413D01*
X1258701Y398737D01*
X1256372Y397740D01*
X1254199Y396438D01*
X1252220Y394856D01*
X1226104Y535045D02*
X1226446Y538480D01*
X1196340Y552976D02*
X1197796Y551767D01*
X1197330Y551359D02*
X1195986Y552653D01*
X1226446Y538480D02*
X1226264Y540991D01*
X1225722Y543449D01*
X1224830Y545803D01*
X1223609Y548004D01*
X1222083Y550006D01*
X1220284Y551767D01*
X1222629Y500666D02*
X1224823Y501022D01*
X1226918Y501763D01*
X1228849Y502864D01*
X1230553Y504291D01*
X1222629Y500666D02*
X1225530Y501225D01*
X1228218Y502453D01*
X1230541Y504279D01*
X1227836Y487680D02*
X1227684Y490063D01*
X1227232Y492407D01*
X1226486Y494675D01*
X1225458Y496831D01*
X1224166Y498838D01*
X1222629Y500666D01*
X1196340Y473824D02*
X1198336Y472229D01*
X1200531Y470920D01*
X1202883Y469921D01*
X1205348Y469250D01*
X1207881Y468920D01*
X1210436Y468936D01*
X1212965Y469299D01*
X1215422Y470001D01*
X1217761Y471030D01*
X1219938Y472366D01*
X1221915Y473986D01*
X1223653Y475858D01*
X1225121Y477949D01*
X1226292Y480220D01*
X1227145Y482629D01*
X1227662Y485131D01*
X1227836Y487680D01*
X1252220Y394856D02*
X1250241Y396438D01*
X1248068Y397740D01*
X1245739Y398737D01*
X1243297Y399413D01*
X1240787Y399753D01*
X1238253D01*
X1235743Y399413D01*
X1233301Y398737D01*
X1230972Y397740D01*
X1228799Y396438D01*
X1226820Y394856D01*
X1224841Y396438D01*
X1222668Y397740D01*
X1220339Y398737D01*
X1217897Y399413D01*
X1215387Y399753D01*
X1212853D01*
X1210343Y399413D01*
X1207901Y398737D01*
X1205572Y397740D01*
X1203399Y396438D01*
X1201420Y394856D01*
X1199441Y396438D01*
X1197268Y397740D01*
X1194939Y398737D01*
X1192497Y399413D01*
X1189987Y399753D01*
X1187453D01*
X1184943Y399413D01*
X1182501Y398737D01*
X1180172Y397740D01*
X1177999Y396438D01*
X1176020Y394856D01*
X1163409Y885101D02*
X1161861Y883215D01*
X1160711Y881063D01*
X1160003Y878728D01*
X1159764Y876300D01*
X1163421Y885113D02*
X1161869Y883225D01*
X1160715Y881071D01*
X1160004Y878732D01*
X1159764Y876300D01*
X1161796Y662059D02*
X1163147Y659802D01*
X1164800Y657756D01*
X1166722Y655960D01*
X1168877Y654450D01*
X1171221Y653256D01*
X1173708Y652401D01*
X1176291Y651901D01*
X1178919Y651767D01*
X1181539Y652001D01*
X1184101Y652599D01*
X1186554Y653549D01*
X961136Y1206500D02*
X961000Y1209117D01*
X960591Y1211705D01*
X959916Y1214237D01*
X958981Y1216684D01*
X957797Y1219022D01*
X956375Y1221223D01*
X954733Y1223264D01*
X961136Y1206500D02*
X961000Y1209117D01*
X960591Y1211705D01*
X959916Y1214237D01*
X958981Y1216684D01*
X957797Y1219022D01*
X956375Y1221223D01*
X954733Y1223264D01*
X920496Y1186694D02*
X922584Y1185226D01*
X924810Y1183976D01*
X927152Y1182958D01*
X929585Y1182183D01*
X932084Y1181659D01*
X934622Y1181391D01*
X937176Y1181382D01*
X939716Y1181632D01*
X942219Y1182138D01*
X944657Y1182895D01*
X947006Y1183895D01*
X949241Y1185129D01*
X951340Y1186583D01*
X953281Y1188242D01*
X955043Y1190089D01*
X956609Y1192106D01*
X957962Y1194271D01*
X959089Y1196562D01*
X959977Y1198955D01*
X960619Y1201427D01*
X961006Y1203950D01*
X961136Y1206500D01*
X920496Y1186694D02*
X922584Y1185226D01*
X924810Y1183976D01*
X927152Y1182958D01*
X929585Y1182183D01*
X932084Y1181659D01*
X934622Y1181391D01*
X937176Y1181382D01*
X939716Y1181632D01*
X942219Y1182138D01*
X944657Y1182895D01*
X947006Y1183895D01*
X949241Y1185129D01*
X951340Y1186583D01*
X953281Y1188242D01*
X955043Y1190089D01*
X956609Y1192106D01*
X957962Y1194271D01*
X959089Y1196562D01*
X959977Y1198955D01*
X960619Y1201427D01*
X961006Y1203950D01*
X961136Y1206500D01*
X948576Y1054100D02*
X950302Y1056288D01*
X951684Y1058707D01*
X952694Y1061304D01*
X953309Y1064021D01*
X953516Y1066800D01*
X953345Y1069329D01*
X952835Y1071812D01*
X951997Y1074203D01*
X950843Y1076461D01*
X949397Y1078542D01*
X947684Y1080410D01*
X945735Y1082030D01*
X943586Y1083374D01*
X941275Y1084416D01*
X938845Y1085138D01*
X936341Y1085526D01*
X933806Y1085574D01*
X931289Y1085280D01*
X928834Y1084650D01*
X926486Y1083696D01*
X924287Y1082435D01*
X922278Y1080889D01*
X920496Y1079087D01*
X948576Y1028700D02*
X950302Y1030888D01*
X951684Y1033307D01*
X952694Y1035904D01*
X953309Y1038621D01*
X953516Y1041400D01*
X953309Y1044179D01*
X952694Y1046896D01*
X951684Y1049493D01*
X950302Y1051912D01*
X948576Y1054100D01*
Y952500D02*
X950302Y954688D01*
X951684Y957107D01*
X952694Y959704D01*
X953309Y962421D01*
X953516Y965200D01*
X953309Y967979D01*
X952694Y970696D01*
X951684Y973293D01*
X950302Y975712D01*
X948576Y977900D01*
X953516Y1016000D02*
X953309Y1018779D01*
X952694Y1021496D01*
X951684Y1024093D01*
X950302Y1026512D01*
X948576Y1028700D01*
Y1003300D02*
X950302Y1005488D01*
X951684Y1007907D01*
X952694Y1010504D01*
X953309Y1013221D01*
X953516Y1016000D01*
Y990600D02*
X953309Y993379D01*
X952694Y996096D01*
X951684Y998693D01*
X950302Y1001112D01*
X948576Y1003300D01*
Y977900D02*
X950302Y980088D01*
X951684Y982507D01*
X952694Y985104D01*
X953309Y987821D01*
X953516Y990600D01*
X1101191Y699693D02*
X1099639Y697805D01*
X1098485Y695651D01*
X1097774Y693312D01*
X1097534Y690880D01*
X1101179Y699681D02*
X1099632Y697795D01*
X1098481Y695643D01*
X1097773Y693308D01*
X1097534Y690880D01*
X1064260Y641096D02*
X1061832Y640857D01*
X1059497Y640149D01*
X1057345Y638998D01*
X1055459Y637451D01*
X1064260Y641096D02*
X1061828Y640856D01*
X1059489Y640145D01*
X1057335Y638991D01*
X1055447Y637439D01*
X953516Y914400D02*
X953309Y917179D01*
X952694Y919896D01*
X951684Y922493D01*
X950302Y924912D01*
X948576Y927100D01*
Y901700D02*
X950302Y903888D01*
X951684Y906307D01*
X952694Y908904D01*
X953309Y911621D01*
X953516Y914400D01*
Y889000D02*
X953309Y891779D01*
X952694Y894496D01*
X951684Y897093D01*
X950302Y899512D01*
X948576Y901700D01*
X920496Y876713D02*
X922278Y874911D01*
X924287Y873365D01*
X926486Y872104D01*
X928834Y871150D01*
X931289Y870520D01*
X933806Y870226D01*
X936341Y870274D01*
X938845Y870662D01*
X941275Y871384D01*
X943586Y872426D01*
X945735Y873770D01*
X947684Y875390D01*
X949397Y877258D01*
X950843Y879339D01*
X951997Y881597D01*
X952835Y883988D01*
X953345Y886471D01*
X953516Y889000D01*
X948576Y825500D02*
X950302Y827688D01*
X951684Y830107D01*
X952694Y832704D01*
X953309Y835421D01*
X953516Y838200D01*
Y812800D02*
X953309Y815579D01*
X952694Y818296D01*
X951684Y820893D01*
X950302Y823312D01*
X948576Y825500D01*
X953516Y838200D02*
X953345Y840729D01*
X952835Y843212D01*
X951997Y845603D01*
X950843Y847861D01*
X949397Y849942D01*
X947684Y851810D01*
X945735Y853430D01*
X943586Y854774D01*
X941275Y855816D01*
X938845Y856538D01*
X936341Y856926D01*
X933806Y856974D01*
X931289Y856680D01*
X928834Y856050D01*
X926486Y855096D01*
X924287Y853835D01*
X922278Y852289D01*
X920496Y850487D01*
X948576Y800100D02*
X950302Y802288D01*
X951684Y804707D01*
X952694Y807304D01*
X953309Y810021D01*
X953516Y812800D01*
X948576Y774700D02*
X950302Y776888D01*
X951684Y779307D01*
X952694Y781904D01*
X953309Y784621D01*
X953516Y787400D01*
X953309Y790179D01*
X952694Y792896D01*
X951684Y795493D01*
X950302Y797912D01*
X948576Y800100D01*
X953516Y736600D02*
X953309Y739379D01*
X952694Y742096D01*
X951684Y744693D01*
X950302Y747112D01*
X948576Y749300D01*
Y723900D02*
X950302Y726088D01*
X951684Y728507D01*
X952694Y731104D01*
X953309Y733821D01*
X953516Y736600D01*
X948576Y749300D02*
X950302Y751488D01*
X951684Y753907D01*
X952694Y756504D01*
X953309Y759221D01*
X953516Y762000D01*
Y711200D02*
X953309Y713979D01*
X952694Y716696D01*
X951684Y719293D01*
X950302Y721712D01*
X948576Y723900D01*
Y698500D02*
X950302Y700688D01*
X951684Y703107D01*
X952694Y705704D01*
X953309Y708421D01*
X953516Y711200D01*
Y762000D02*
X953309Y764779D01*
X952694Y767496D01*
X951684Y770093D01*
X950302Y772512D01*
X948576Y774700D01*
Y673100D02*
X950302Y675288D01*
X951684Y677707D01*
X952694Y680304D01*
X953309Y683021D01*
X953516Y685800D01*
X953309Y688579D01*
X952694Y691296D01*
X951684Y693893D01*
X950302Y696312D01*
X948576Y698500D01*
X953516Y660400D02*
X953309Y663179D01*
X952694Y665896D01*
X951684Y668493D01*
X950302Y670912D01*
X948576Y673100D01*
X920496Y648113D02*
X922278Y646311D01*
X924287Y644765D01*
X926486Y643504D01*
X928834Y642550D01*
X931289Y641920D01*
X933806Y641626D01*
X936341Y641674D01*
X938845Y642062D01*
X941275Y642784D01*
X943586Y643826D01*
X945735Y645170D01*
X947684Y646790D01*
X949397Y648658D01*
X950843Y650739D01*
X951997Y652997D01*
X952835Y655388D01*
X953345Y657871D01*
X953516Y660400D01*
X1177290Y625856D02*
X1174862Y625617D01*
X1172527Y624909D01*
X1170375Y623759D01*
X1168489Y622211D01*
X1177290Y625856D02*
X1174858Y625616D01*
X1172519Y624905D01*
X1170365Y623751D01*
X1168477Y622199D01*
X1136396Y589280D02*
X1136238Y591711D01*
X1135767Y594100D01*
X1134992Y596409D01*
X1133924Y598598D01*
X1132582Y600630D01*
X1129946Y575107D02*
X1131832Y577002D01*
X1133430Y579146D01*
X1134708Y581494D01*
X1135639Y584000D01*
X1136206Y586613D01*
X1136396Y589280D01*
X1150613Y517062D02*
X1151750Y514983D01*
X1153261Y513157D01*
X1150613Y517062D02*
X1151746Y514990D01*
X1153249Y513169D01*
X1135006Y563880D02*
X1134792Y566406D01*
X1134154Y568860D01*
X1133113Y571171D01*
X1131696Y573274D01*
X1129946Y575107D01*
Y552653D02*
X1131696Y554486D01*
X1133113Y556589D01*
X1134154Y558900D01*
X1134792Y561354D01*
X1135006Y563880D01*
X1039876Y589280D02*
X1039725Y591661D01*
X1039273Y594004D01*
X1038528Y596270D01*
X1037502Y598424D01*
X1033426Y575107D02*
X1035312Y577002D01*
X1036910Y579146D01*
X1038188Y581494D01*
X1039119Y584000D01*
X1039686Y586613D01*
X1039876Y589280D01*
X1032324Y551767D02*
X1034108Y553294D01*
X1035631Y555082D01*
X1036857Y557085D01*
X1037755Y559255D01*
X1038302Y561539D01*
X1038486Y563880D01*
X1038272Y566406D01*
X1037634Y568860D01*
X1036593Y571171D01*
X1035176Y573274D01*
X1033426Y575107D01*
X1136396Y538480D02*
X1136206Y541147D01*
X1135639Y543760D01*
X1134708Y546266D01*
X1133430Y548614D01*
X1131832Y550758D01*
X1129946Y552653D01*
X1059434Y520700D02*
X1059673Y518272D01*
X1060381Y515937D01*
X1061532Y513785D01*
X1063079Y511899D01*
X1059434Y520700D02*
X1059674Y518268D01*
X1060385Y515929D01*
X1061539Y513775D01*
X1063091Y511887D01*
X1038486Y538480D02*
X1038304Y540991D01*
X1037762Y543449D01*
X1036870Y545803D01*
X1035649Y548004D01*
X1034123Y550006D01*
X1032324Y551767D01*
X1162127Y504291D02*
X1164290Y502560D01*
X1166782Y501349D01*
X1169480Y500720D01*
X1162139Y504279D02*
X1164299Y502554D01*
X1166787Y501347D01*
X1169480Y500720D01*
X1169784Y500380D02*
X1168224Y498433D01*
X1166936Y496297D01*
X1165942Y494010D01*
X1165259Y491610D01*
X1164901Y489142D01*
X1164872Y486647D01*
X1165174Y484171D01*
X1165802Y481757D01*
X1166743Y479447D01*
X1167982Y477282D01*
X1169497Y475300D01*
X1171260Y473537D01*
X1173242Y472022D01*
X1175407Y470783D01*
X1177717Y469842D01*
X1180131Y469214D01*
X1182607Y468912D01*
X1185102Y468941D01*
X1187570Y469300D01*
X1189969Y469982D01*
X1192257Y470976D01*
X1194393Y472264D01*
X1196340Y473824D01*
X1131993Y500992D02*
X1134134Y501729D01*
X1136105Y502841D01*
X1137843Y504291D01*
X1131993Y500992D02*
X1134128Y501726D01*
X1136096Y502834D01*
X1137831Y504279D01*
X1131456Y500380D02*
X1131993Y500992D01*
X1136396Y487680D02*
X1136189Y490459D01*
X1135574Y493176D01*
X1134564Y495773D01*
X1133182Y498192D01*
X1131456Y500380D01*
X1104900Y473824D02*
X1106897Y472229D01*
X1109091Y470920D01*
X1111442Y469921D01*
X1113908Y469250D01*
X1116441Y468920D01*
X1118996Y468936D01*
X1121525Y469299D01*
X1123982Y470001D01*
X1126321Y471030D01*
X1128498Y472366D01*
X1130475Y473986D01*
X1132213Y475858D01*
X1133681Y477949D01*
X1134852Y480220D01*
X1135705Y482629D01*
X1136222Y485131D01*
X1136396Y487680D01*
X1176020Y394856D02*
X1174041Y396438D01*
X1171868Y397740D01*
X1169539Y398737D01*
X1167097Y399413D01*
X1164587Y399753D01*
X1162053D01*
X1159543Y399413D01*
X1157101Y398737D01*
X1154772Y397740D01*
X1152599Y396438D01*
X1150620Y394856D01*
X1148641Y396438D01*
X1146468Y397740D01*
X1144139Y398737D01*
X1141697Y399413D01*
X1139187Y399753D01*
X1136653D01*
X1134143Y399413D01*
X1131701Y398737D01*
X1129372Y397740D01*
X1127199Y396438D01*
X1125220Y394856D01*
X1123241Y396438D01*
X1121068Y397740D01*
X1118739Y398737D01*
X1116297Y399413D01*
X1113787Y399753D01*
X1111253D01*
X1108743Y399413D01*
X1106301Y398737D01*
X1103972Y397740D01*
X1101799Y396438D01*
X1099820Y394856D01*
X1070687Y504291D02*
X1072850Y502560D01*
X1075342Y501349D01*
X1078039Y500720D01*
X1070699Y504279D02*
X1072859Y502554D01*
X1075347Y501347D01*
X1078039Y500720D01*
X1078344Y500380D02*
X1076784Y498433D01*
X1075496Y496297D01*
X1074502Y494010D01*
X1073820Y491610D01*
X1073461Y489142D01*
X1073432Y486647D01*
X1073734Y484171D01*
X1074362Y481757D01*
X1075303Y479447D01*
X1076542Y477282D01*
X1078057Y475300D01*
X1079820Y473537D01*
X1081802Y472022D01*
X1083967Y470783D01*
X1086277Y469842D01*
X1088691Y469214D01*
X1091168Y468912D01*
X1093662Y468941D01*
X1096130Y469300D01*
X1098530Y469982D01*
X1100817Y470976D01*
X1102953Y472264D01*
X1104900Y473824D01*
X1035473Y500992D02*
X1037614Y501729D01*
X1039585Y502841D01*
X1041323Y504291D01*
X1035473Y500992D02*
X1037608Y501726D01*
X1039576Y502834D01*
X1041311Y504279D01*
X1039876Y487680D02*
X1039669Y490459D01*
X1039054Y493176D01*
X1038044Y495773D01*
X1036662Y498192D01*
X1034936Y500380D01*
X1008380Y473824D02*
X1010377Y472229D01*
X1012571Y470920D01*
X1014922Y469921D01*
X1017388Y469250D01*
X1019921Y468920D01*
X1022476Y468936D01*
X1025005Y469299D01*
X1027462Y470001D01*
X1029801Y471030D01*
X1031978Y472366D01*
X1033955Y473986D01*
X1035693Y475858D01*
X1037161Y477949D01*
X1038332Y480220D01*
X1039185Y482629D01*
X1039702Y485131D01*
X1039876Y487680D01*
X1099820Y394856D02*
X1097841Y396438D01*
X1095668Y397740D01*
X1093339Y398737D01*
X1090897Y399413D01*
X1088387Y399753D01*
X1085853D01*
X1083343Y399413D01*
X1080901Y398737D01*
X1078572Y397740D01*
X1076399Y396438D01*
X1074420Y394856D01*
X1072441Y396438D01*
X1070268Y397740D01*
X1067939Y398737D01*
X1065497Y399413D01*
X1062987Y399753D01*
X1060453D01*
X1057943Y399413D01*
X1055501Y398737D01*
X1053172Y397740D01*
X1050999Y396438D01*
X1049020Y394856D01*
X1047041Y396438D01*
X1044868Y397740D01*
X1042539Y398737D01*
X1040097Y399413D01*
X1037587Y399753D01*
X1035053D01*
X1032543Y399413D01*
X1030101Y398737D01*
X1027772Y397740D01*
X1025599Y396438D01*
X1023620Y394856D01*
X985520Y623316D02*
X983092Y623077D01*
X980757Y622369D01*
X978605Y621218D01*
X976719Y619671D01*
X985520Y623316D02*
X983088Y623076D01*
X980749Y622365D01*
X978595Y621211D01*
X976707Y619659D01*
X980186Y556345D02*
X981577Y554347D01*
X983274Y552600D01*
X1008440Y552920D02*
X1009836Y551767D01*
X1009370Y551359D02*
X1008086Y552600D01*
X1038379Y536550D02*
X1038486Y538480D01*
X983274Y552600D02*
X981622Y550956D01*
X980186Y549121D01*
X958951Y601903D02*
X957399Y600015D01*
X956245Y597861D01*
X955534Y595522D01*
X955294Y593090D01*
X958939Y601891D02*
X957392Y600005D01*
X956241Y597853D01*
X955533Y595518D01*
X955294Y593090D01*
Y530860D02*
X955533Y528432D01*
X956241Y526097D01*
X957392Y523945D01*
X958939Y522059D01*
X955294Y530860D02*
X955534Y528428D01*
X956245Y526089D01*
X957399Y523935D01*
X958951Y522047D01*
X948576Y596900D02*
X950302Y599088D01*
X951684Y601507D01*
X952694Y604104D01*
X953309Y606821D01*
X953516Y609600D01*
X953345Y612129D01*
X952835Y614612D01*
X951997Y617004D01*
X950843Y619261D01*
X949397Y621342D01*
X947684Y623210D01*
X945735Y624830D01*
X943586Y626174D01*
X941275Y627216D01*
X938845Y627938D01*
X936341Y628326D01*
X933806Y628374D01*
X931289Y628080D01*
X928834Y627450D01*
X926486Y626496D01*
X924287Y625235D01*
X922278Y623689D01*
X920496Y621887D01*
X953516Y584200D02*
X953309Y586979D01*
X952694Y589696D01*
X951684Y592293D01*
X950302Y594712D01*
X948576Y596900D01*
Y571500D02*
X950302Y573688D01*
X951684Y576107D01*
X952694Y578704D01*
X953309Y581421D01*
X953516Y584200D01*
Y558800D02*
X953309Y561579D01*
X952694Y564296D01*
X951684Y566893D01*
X950302Y569312D01*
X948576Y571500D01*
Y546100D02*
X950302Y548288D01*
X951684Y550707D01*
X952694Y553304D01*
X953309Y556021D01*
X953516Y558800D01*
Y533400D02*
X953309Y536179D01*
X952694Y538896D01*
X951684Y541493D01*
X950302Y543912D01*
X948576Y546100D01*
Y520700D02*
X950302Y522888D01*
X951684Y525307D01*
X952694Y527904D01*
X953309Y530621D01*
X953516Y533400D01*
X1034936Y500380D02*
X1035473Y500992D01*
X981824Y500380D02*
X980264Y498433D01*
X978976Y496297D01*
X977982Y494010D01*
X977299Y491610D01*
X976941Y489142D01*
X976912Y486647D01*
X977214Y484171D01*
X977842Y481757D01*
X978783Y479447D01*
X980022Y477282D01*
X981537Y475300D01*
X983300Y473537D01*
X985282Y472022D01*
X987447Y470783D01*
X989757Y469842D01*
X992171Y469214D01*
X994648Y468912D01*
X997142Y468941D01*
X999610Y469300D01*
X1002010Y469982D01*
X1004297Y470976D01*
X1006433Y472264D01*
X1008380Y473824D01*
X980837Y501549D02*
X981824Y500380D01*
X976707Y504291D02*
X978634Y502712D01*
X980837Y501549D01*
X976719Y504279D02*
X978641Y502708D01*
X980837Y501549D01*
X1023620Y394856D02*
X1021641Y396438D01*
X1019468Y397740D01*
X1017139Y398737D01*
X1014697Y399413D01*
X1012187Y399753D01*
X1009653D01*
X1007143Y399413D01*
X1004701Y398737D01*
X1002372Y397740D01*
X1000199Y396438D01*
X998220Y394856D01*
X996195Y396470D01*
X993968Y397791D01*
X991580Y398792D01*
X989077Y399456D01*
X986507Y399770D01*
X983918Y399728D01*
X981359Y399330D01*
X978880Y398584D01*
X976526Y397505D01*
X974343Y396112D01*
X972372Y394432D01*
X970651Y392498D01*
X969212Y390345D01*
X968082Y388015D01*
X967284Y385552D01*
X966831Y383003D01*
X966733Y380415D01*
X966992Y377839D01*
X967602Y375322D01*
X968552Y372914D01*
X969825Y370658D01*
X971395Y368600D01*
X973233Y366776D01*
X948576Y495300D02*
X950302Y497488D01*
X951684Y499907D01*
X952694Y502504D01*
X953309Y505221D01*
X953516Y508000D01*
X953309Y510779D01*
X952694Y513496D01*
X951684Y516093D01*
X950302Y518512D01*
X948576Y520700D01*
X953516Y482600D02*
X953309Y485379D01*
X952694Y488096D01*
X951684Y490693D01*
X950302Y493112D01*
X948576Y495300D01*
Y469900D02*
X950302Y472088D01*
X951684Y474507D01*
X952694Y477104D01*
X953309Y479821D01*
X953516Y482600D01*
Y457200D02*
X953309Y459979D01*
X952694Y462696D01*
X951684Y465293D01*
X950302Y467712D01*
X948576Y469900D01*
Y444500D02*
X950302Y446688D01*
X951684Y449107D01*
X952694Y451704D01*
X953309Y454421D01*
X953516Y457200D01*
X920496Y419513D02*
X922278Y417711D01*
X924287Y416165D01*
X926486Y414904D01*
X928834Y413950D01*
X931289Y413320D01*
X933806Y413026D01*
X936341Y413074D01*
X938845Y413462D01*
X941275Y414184D01*
X943586Y415226D01*
X945735Y416570D01*
X947684Y418190D01*
X949397Y420058D01*
X950843Y422139D01*
X951997Y424397D01*
X952835Y426788D01*
X953345Y429271D01*
X953516Y431800D01*
X953309Y434579D01*
X952694Y437296D01*
X951684Y439893D01*
X950302Y442312D01*
X948576Y444500D01*
X954186Y366776D02*
X955505Y368922D01*
X956603Y371189D01*
X957468Y373554D01*
X958093Y375994D01*
X958470Y378484D01*
X958596Y381000D01*
X954186Y366776D02*
X955505Y368922D01*
X956603Y371189D01*
X957468Y373554D01*
X958093Y375994D01*
X958470Y378484D01*
X958596Y381000D01*
Y381000D02*
X958469Y383525D01*
X958089Y386024D01*
X957460Y388472D01*
X956589Y390845D01*
X955483Y393119D01*
X954155Y395270D01*
X952618Y397276D01*
X950887Y399118D01*
X948980Y400778D01*
X946916Y402237D01*
X944715Y403481D01*
X942401Y404499D01*
X939997Y405279D01*
X937526Y405813D01*
X935014Y406097D01*
X932486Y406128D01*
X929968Y405904D01*
X927486Y405428D01*
X925063Y404706D01*
X922725Y403744D01*
X920496Y402553D01*
X958596Y381000D02*
X958469Y383525D01*
X958089Y386024D01*
X957460Y388472D01*
X956589Y390845D01*
X955483Y393119D01*
X954155Y395270D01*
X952618Y397276D01*
X950887Y399118D01*
X948980Y400778D01*
X946916Y402237D01*
X944715Y403481D01*
X942401Y404499D01*
X939997Y405279D01*
X937526Y405813D01*
X935014Y406097D01*
X932486Y406128D01*
X929968Y405904D01*
X927486Y405428D01*
X925063Y404706D01*
X922725Y403744D01*
X920496Y402553D01*
X1431544Y1208186D02*
Y1223264D01*
X1430212Y1209040D02*
X1431544D01*
X1430528Y1208848D02*
Y1223264D01*
X1431544Y1117187D02*
Y1166714D01*
X1430528Y1118273D02*
Y1166052D01*
X1424432Y1211569D02*
Y1223264D01*
X1425941Y1211072D02*
X1431544D01*
X1422400Y1212077D02*
Y1223264D01*
X1428496Y1209976D02*
Y1223264D01*
X1426464Y1210874D02*
Y1223264D01*
X1427223Y1164336D02*
X1431544D01*
X1425820Y1121664D02*
X1431544D01*
X1426464Y1121322D02*
Y1164025D01*
X1428993Y1119632D02*
X1431544D01*
X1428496Y1120013D02*
Y1164924D01*
X1417320Y1162304D02*
X1431544D01*
X1417320Y1123696D02*
X1431544D01*
X1420368Y1123447D02*
Y1162489D01*
X1424432Y1122299D02*
Y1163331D01*
X1422400Y1122997D02*
Y1162822D01*
X1418336Y1212576D02*
Y1223264D01*
X1420368Y1212411D02*
Y1223264D01*
X1416304Y1212576D02*
Y1223264D01*
X1414272Y1212411D02*
Y1223264D01*
X1412240Y1212077D02*
Y1223264D01*
X1408176Y1210874D02*
Y1223264D01*
X1410208Y1211569D02*
Y1223264D01*
X1404112Y1208848D02*
Y1223264D01*
X1402080Y1207452D02*
Y1223264D01*
X1400048Y1205726D02*
Y1223264D01*
X1416304Y1123669D02*
Y1162325D01*
X1418336Y1123669D02*
Y1162325D01*
X1414272Y1123447D02*
Y1162489D01*
X1412240Y1122997D02*
Y1162822D01*
X1410208Y1122299D02*
Y1163331D01*
X1406144Y1209976D02*
Y1223264D01*
X1408176Y1121322D02*
Y1164025D01*
X1406144Y1120013D02*
Y1164924D01*
X1404112Y1118273D02*
Y1166052D01*
X1402080Y1115901D02*
Y1167448D01*
X1431544Y1066387D02*
Y1067213D01*
Y1040987D02*
Y1041813D01*
Y1091787D02*
Y1092613D01*
Y990187D02*
Y991013D01*
Y1015587D02*
Y1016413D01*
Y964787D02*
Y965613D01*
Y939387D02*
Y940213D01*
Y901287D02*
Y914813D01*
X1430528Y902373D02*
Y913727D01*
X1428993Y912368D02*
X1431544D01*
X1428496Y904112D02*
Y911988D01*
X1431544Y875887D02*
Y876713D01*
X1430693Y902208D02*
X1431544D01*
X1417320Y908304D02*
X1431544D01*
X1424734Y906272D02*
X1431544D01*
X1425820Y910336D02*
X1431544D01*
X1428322Y904240D02*
X1431544D01*
X1402080Y1090501D02*
Y1093898D01*
X1406144Y904112D02*
Y911988D01*
X1400048Y1086914D02*
Y1097486D01*
X1404112Y902373D02*
Y913727D01*
X1402080Y901446D02*
Y914654D01*
X1400048Y1112314D02*
Y1169174D01*
X1398016Y1077797D02*
Y1171336D01*
X1400048Y901446D02*
Y914654D01*
X1398016Y901446D02*
Y914654D01*
X1422400Y907096D02*
Y909004D01*
X1420368Y907547D02*
Y908553D01*
X1414272Y907547D02*
Y908553D01*
X1426464Y905422D02*
Y910678D01*
X1424432Y906398D02*
Y909702D01*
X1412240Y907096D02*
Y909004D01*
X1410208Y906398D02*
Y909702D01*
X1408176Y905422D02*
Y910678D01*
X1402080Y874602D02*
Y876554D01*
X1360370Y1215136D02*
X1431544D01*
X1361946Y1213104D02*
X1431544D01*
X1398016Y1203565D02*
Y1223264D01*
X1395984Y1200758D02*
Y1223264D01*
X1346573D02*
X1431544D01*
X1352487Y1221232D02*
X1431544D01*
X1346573Y1223264D02*
X1431544D01*
X1358408Y1217168D02*
X1431544D01*
X1355903Y1219200D02*
X1431544D01*
X1366073Y1202944D02*
X1397514D01*
X1366324Y1200912D02*
X1396081D01*
X1366407Y1198880D02*
X1394922D01*
X1395984Y1075765D02*
Y1174142D01*
X1363219Y1211072D02*
X1408699D01*
X1364241Y1209040D02*
X1404428D01*
X1365043Y1207008D02*
X1401515D01*
X1365649Y1204976D02*
X1399288D01*
X1346573Y1174496D02*
X1395767D01*
X1393952Y1196738D02*
Y1223264D01*
X1366324Y1196848D02*
X1393996D01*
X1365504Y1205526D02*
Y1223264D01*
X1366073Y1194816D02*
X1393277D01*
X1365649Y1192784D02*
X1392746D01*
X1361440Y1213805D02*
Y1223264D01*
X1363472Y1210610D02*
Y1223264D01*
X1359408Y1216190D02*
Y1223264D01*
X1365043Y1190752D02*
X1392392D01*
X1364241Y1188720D02*
X1392206D01*
X1363219Y1186688D02*
X1392186D01*
X1393952Y1073733D02*
Y1178163D01*
X1361946Y1184656D02*
X1392330D01*
X1358408Y1180592D02*
X1393127D01*
X1360370Y1182624D02*
X1392641D01*
X1352487Y1176528D02*
X1394670D01*
X1355903Y1178560D02*
X1393798D01*
X1396821Y914400D02*
X1403464D01*
X1394789Y912368D02*
X1405647D01*
X1397075Y914654D02*
X1403235D01*
X1395984Y901446D02*
Y913563D01*
X1393952Y901446D02*
Y911531D01*
X1389888Y1069669D02*
Y1223264D01*
X1391920Y1071701D02*
Y1223264D01*
X1387856Y1067637D02*
Y1223264D01*
X1376781Y1056563D02*
X1398560Y1078341D01*
X1383867Y901446D02*
X1397075Y914654D01*
X1392757Y910336D02*
X1408819D01*
X1390725Y908304D02*
X1417320D01*
X1391920Y901446D02*
Y909499D01*
Y836751D02*
Y876554D01*
X1389888Y901446D02*
Y907467D01*
X1388693Y906272D02*
X1409906D01*
X1386661Y904240D02*
X1406319D01*
X1384629Y902208D02*
X1403947D01*
X1383867Y901446D02*
X1403235D01*
X1387856D02*
Y905435D01*
X1383792Y1063573D02*
Y1223264D01*
X1385824Y1065605D02*
Y1223264D01*
X1381760Y1061541D02*
Y1223264D01*
X1379728Y1059509D02*
Y1223264D01*
X1377696Y1057477D02*
Y1223264D01*
X1373632Y1051270D02*
Y1223264D01*
X1375664Y1055285D02*
Y1223264D01*
X1371600Y1027251D02*
Y1223264D01*
X1369568Y1025219D02*
Y1223264D01*
X1367536Y1023187D02*
Y1223264D01*
X1373124Y1028775D02*
Y1047750D01*
X1385824Y901446D02*
Y903403D01*
X1365504Y1021155D02*
Y1192234D01*
X1363472Y1019123D02*
Y1187150D01*
X1361440Y1017091D02*
Y1183955D01*
X1296595Y952246D02*
X1373124Y1028775D01*
X1359408Y1015059D02*
Y1181570D01*
X1372945Y876554D02*
X1403235D01*
X1400048Y871014D02*
Y876554D01*
X1402080Y849202D02*
Y852598D01*
X1400048Y845614D02*
Y856186D01*
X1372183Y875792D02*
X1403015D01*
X1370151Y873760D02*
X1401507D01*
X1368119Y871728D02*
X1400372D01*
X1366087Y869696D02*
X1399540D01*
X1364055Y867664D02*
X1398969D01*
X1397583Y831088D02*
X1399922D01*
X1399615Y829056D02*
X1400898D01*
X1395551Y833120D02*
X1399223D01*
X1400048Y828623D02*
Y830786D01*
X1386901Y841248D02*
X1398773D01*
X1389455Y839216D02*
X1398551D01*
X1391487Y837184D02*
X1398551D01*
X1389303Y839369D02*
X1403249Y825423D01*
X1393519Y835152D02*
X1398773D01*
X1389888Y838783D02*
Y876554D01*
X1393952Y834719D02*
Y876554D01*
X1387856Y840612D02*
Y876554D01*
X1398016Y830655D02*
Y876554D01*
X1395984Y832687D02*
Y876554D01*
X1379728Y843026D02*
Y876554D01*
X1381760Y842961D02*
Y876554D01*
X1375664Y843026D02*
Y876554D01*
X1385824Y841825D02*
Y876554D01*
X1383792Y842580D02*
Y876554D01*
X1373632Y843026D02*
Y876554D01*
X1377696Y843026D02*
Y876554D01*
X1371600Y843026D02*
Y875209D01*
X1369568Y843026D02*
Y873177D01*
X1367536Y843026D02*
Y871145D01*
X1365504Y843026D02*
Y869113D01*
X1363724Y816864D02*
X1376605D01*
X1402080Y773001D02*
Y775019D01*
X1400048Y771200D02*
Y775400D01*
X1385671Y787477D02*
X1394537Y778611D01*
X1398016Y769187D02*
Y776155D01*
X1395984Y767155D02*
Y777368D01*
X1402080Y722202D02*
Y725599D01*
X1400048Y718614D02*
Y729186D01*
X1410208Y692479D02*
Y693801D01*
X1408176Y690447D02*
Y694778D01*
X1386765Y757936D02*
X1399617Y770789D01*
X1395439Y733552D02*
X1398773D01*
X1375335Y818134D02*
X1382014Y811455D01*
X1377696Y757936D02*
Y815773D01*
X1375664Y757936D02*
Y817805D01*
X1381760Y757936D02*
Y811709D01*
X1379728Y757936D02*
Y813741D01*
X1367536Y757936D02*
Y818134D01*
X1369568Y757936D02*
Y818134D01*
X1365504Y757936D02*
Y818134D01*
X1373632Y757936D02*
Y818134D01*
X1371600Y757936D02*
Y818134D01*
X1391920Y763091D02*
Y781229D01*
X1393952Y765123D02*
Y779197D01*
X1389888Y761059D02*
Y783261D01*
X1387856Y759027D02*
Y785293D01*
X1385824Y757936D02*
Y787325D01*
X1382014Y796290D02*
Y811455D01*
X1383792Y757936D02*
Y789879D01*
X1362023Y865632D02*
X1398634D01*
X1357959Y861568D02*
X1398634D01*
X1359991Y863600D02*
X1398524D01*
X1353895Y857504D02*
X1399540D01*
X1355927Y859536D02*
X1398969D01*
X1349831Y853440D02*
X1401507D01*
X1347799Y851408D02*
X1403015D01*
X1351863Y855472D02*
X1400372D01*
X1345767Y849376D02*
X1402207D01*
X1343735Y847344D02*
X1400898D01*
X1359916Y792480D02*
X1382612D01*
X1359916Y790448D02*
X1383470D01*
X1359916Y794512D02*
X1382142D01*
X1359916Y784352D02*
X1388797D01*
X1359916Y788416D02*
X1384821D01*
X1341703Y845312D02*
X1399922D01*
X1339419Y843280D02*
X1399223D01*
X1359916Y786384D02*
X1386765D01*
X1359470Y780288D02*
X1392861D01*
X1359851Y782320D02*
X1390829D01*
X1363472Y843026D02*
Y867081D01*
X1363654Y818134D02*
X1375335D01*
X1361440Y843026D02*
Y865049D01*
X1363273Y812800D02*
X1380669D01*
X1363629Y814832D02*
X1378637D01*
X1341043Y844651D02*
X1372945Y876554D01*
X1359408Y843026D02*
Y863017D01*
X1357376Y843026D02*
Y860985D01*
X1339046Y843026D02*
X1380490D01*
X1361692Y808736D02*
X1382014D01*
X1360359Y806704D02*
X1382014D01*
X1362640Y810768D02*
X1382014D01*
X1359916Y804672D02*
X1382014D01*
X1359916Y783590D02*
Y806153D01*
Y800608D02*
X1382014D01*
X1359916Y802640D02*
X1382014D01*
X1359916Y796544D02*
X1382014D01*
X1359916Y798576D02*
X1382014D01*
X1355673Y774192D02*
X1403015D01*
X1353641Y772160D02*
X1401241D01*
X1300106Y731520D02*
X1399223D01*
X1300106Y727456D02*
X1400898D01*
X1300106Y729488D02*
X1399922D01*
X1300106Y725424D02*
X1402207D01*
X1300106Y723392D02*
X1403015D01*
X1300106Y721360D02*
X1401507D01*
X1300106Y719328D02*
X1400372D01*
X1300106Y717296D02*
X1399540D01*
X1300106Y696976D02*
X1405033D01*
X1300106Y694944D02*
X1407884D01*
X1300106Y699008D02*
X1403015D01*
X1300106Y692912D02*
X1410641D01*
X1300106Y690880D02*
X1408609D01*
X1300106Y707136D02*
X1398969D01*
X1300106Y705104D02*
X1399540D01*
X1300106Y715264D02*
X1398969D01*
X1300106Y701040D02*
X1401507D01*
X1300106Y703072D02*
X1400372D01*
X1358715Y778256D02*
X1394907D01*
X1357502Y776224D02*
X1397873D01*
X1363472Y757936D02*
Y813748D01*
X1361440Y757936D02*
Y808298D01*
X1359408Y757936D02*
Y780070D01*
X1351609Y770128D02*
X1398957D01*
X1349729Y768096D02*
X1396925D01*
X1349729Y766064D02*
X1394893D01*
X1349507Y764032D02*
X1392861D01*
X1349057Y762000D02*
X1390829D01*
X1348358Y759968D02*
X1388797D01*
X1347382Y757936D02*
X1386765D01*
X1347382D02*
X1386765D01*
X1300106Y713232D02*
X1398634D01*
X1316990Y733044D02*
X1391920D01*
X1300106Y709168D02*
X1398634D01*
X1300106Y711200D02*
X1398524D01*
X1351280Y1221786D02*
Y1223264D01*
X1353312Y1220807D02*
Y1223264D01*
X1332992Y1222287D02*
Y1223264D01*
X1357376Y1218071D02*
Y1223264D01*
X1355344Y1219585D02*
Y1223264D01*
X1295011D02*
X1336429D01*
X1295011D02*
X1336429D01*
X1330960Y1221445D02*
Y1223264D01*
X1328928Y1220379D02*
Y1223264D01*
X1322832Y1215366D02*
Y1223264D01*
X1324864Y1217414D02*
Y1223264D01*
X1326896Y1219054D02*
Y1223264D01*
X1320800Y1212728D02*
Y1223264D01*
X1311657Y1211072D02*
X1319783D01*
X1318768Y1209054D02*
Y1223264D01*
X1300925Y1221232D02*
X1330515D01*
X1304341Y1219200D02*
X1327099D01*
X1306846Y1217168D02*
X1324594D01*
X1308808Y1215136D02*
X1322632D01*
X1310384Y1213104D02*
X1321056D01*
X1310640Y1212728D02*
Y1223264D01*
X1312672Y1209054D02*
Y1223264D01*
X1308608Y1215366D02*
Y1223264D01*
X1316736Y1201526D02*
Y1223264D01*
X1314704Y1201526D02*
Y1223264D01*
X1300480Y1221445D02*
Y1223264D01*
X1302512Y1220379D02*
Y1223264D01*
X1298448Y1222287D02*
Y1223264D01*
X1306576Y1217414D02*
Y1223264D01*
X1314511Y1202944D02*
X1316929D01*
X1314762Y1200912D02*
X1316678D01*
X1314845Y1198880D02*
X1316595D01*
X1314511Y1194816D02*
X1316929D01*
X1314762Y1196848D02*
X1316678D01*
X1312679Y1209040D02*
X1318761D01*
X1313481Y1207008D02*
X1317959D01*
X1304544Y1219054D02*
Y1223264D01*
X1314087Y1192784D02*
X1317353D01*
X1314087Y1204976D02*
X1317353D01*
X1357376Y1013027D02*
Y1179689D01*
X1355344Y1010995D02*
Y1178175D01*
X1353312Y1008963D02*
Y1176953D01*
X1330960Y986611D02*
Y1176315D01*
X1328928Y984579D02*
Y1177381D01*
X1304341Y1178560D02*
X1327099D01*
X1300925Y1176528D02*
X1330515D01*
X1306846Y1180592D02*
X1324594D01*
X1326896Y982547D02*
Y1178706D01*
X1324864Y980515D02*
Y1180346D01*
X1351280Y1006931D02*
Y1175974D01*
X1349248Y1004899D02*
Y1175210D01*
X1347216Y1002867D02*
Y1174639D01*
X1345184Y1000835D02*
Y1174248D01*
X1343152Y998803D02*
Y1174029D01*
X1339088Y994739D02*
Y1174091D01*
X1341120Y996771D02*
Y1173977D01*
X1337056Y992707D02*
Y1174374D01*
X1335024Y990675D02*
Y1174831D01*
X1332992Y988643D02*
Y1175473D01*
X1318768Y974419D02*
Y1188706D01*
X1320800Y976451D02*
Y1185032D01*
X1313481Y1190752D02*
X1317959D01*
X1316736Y972387D02*
Y1196234D01*
X1314704Y970355D02*
Y1196234D01*
X1311657Y1186688D02*
X1319783D01*
X1310384Y1184656D02*
X1321056D01*
X1312679Y1188720D02*
X1318761D01*
X1312672Y968323D02*
Y1188706D01*
X1310640Y966291D02*
Y1185032D01*
X1308808Y1182624D02*
X1322632D01*
X1322832Y978483D02*
Y1182394D01*
X1308608Y964259D02*
Y1182394D01*
X1306576Y962227D02*
Y1180346D01*
X1304544Y960195D02*
Y1178706D01*
X1302512Y958163D02*
Y1177381D01*
X1300480Y956131D02*
Y1176315D01*
X1298448Y954099D02*
Y1175473D01*
X1296416Y952246D02*
Y1174831D01*
X1278128Y1220807D02*
Y1223264D01*
X1280160Y1221786D02*
Y1223264D01*
X1276096Y1219585D02*
Y1223264D01*
Y952246D02*
Y1178175D01*
X1274064Y1218071D02*
Y1223264D01*
X1272032Y1216190D02*
Y1223264D01*
X1270000Y1213805D02*
Y1223264D01*
X1274064Y952246D02*
Y1179689D01*
X1272032Y952246D02*
Y1181570D01*
X1295011Y1174496D02*
X1336429D01*
X1294384Y952246D02*
Y1174374D01*
X1292352Y952246D02*
Y1174091D01*
X1290320Y952246D02*
Y1173977D01*
X1288288Y952246D02*
Y1174029D01*
X1280160Y952246D02*
Y1175974D01*
X1282192Y952246D02*
Y1175210D01*
X1278128Y952246D02*
Y1176953D01*
X1286256Y952246D02*
Y1174248D01*
X1284224Y952246D02*
Y1174639D01*
X1265936Y1205526D02*
Y1223264D01*
X1267968Y1210610D02*
Y1223264D01*
X1263904Y952246D02*
Y1223264D01*
X1261872Y952246D02*
Y1223264D01*
X1259840Y952246D02*
Y1223264D01*
X1243584Y952246D02*
Y1223264D01*
X1253744Y952246D02*
Y1223264D01*
X1241552Y952246D02*
Y1223264D01*
X1257808Y952246D02*
Y1223264D01*
X1255776Y952246D02*
Y1223264D01*
X1251712Y952246D02*
Y1223264D01*
X1265936Y952246D02*
Y1192234D01*
X1249680Y952246D02*
Y1223264D01*
X1270000Y952246D02*
Y1183955D01*
X1267968Y952246D02*
Y1187150D01*
X1239520Y952246D02*
Y1223264D01*
X1237488Y952246D02*
Y1223264D01*
X1247648Y952246D02*
Y1223264D01*
X1245616Y952246D02*
Y1223264D01*
X1209040Y952246D02*
Y1223264D01*
X1211072Y952246D02*
Y1223264D01*
X1207008Y952246D02*
Y1223264D01*
X1215136Y952246D02*
Y1223264D01*
X1213104Y952246D02*
Y1223264D01*
X1198880Y952246D02*
Y1223264D01*
X1200912Y952246D02*
Y1223264D01*
X1196848Y952246D02*
Y1223264D01*
X1204976Y952246D02*
Y1223264D01*
X1202944Y952246D02*
Y1223264D01*
X1229360Y952246D02*
Y1223264D01*
X1231392Y952246D02*
Y1223264D01*
X1227328Y952246D02*
Y1223264D01*
X1235456Y952246D02*
Y1223264D01*
X1233424Y952246D02*
Y1223264D01*
X1219200Y952246D02*
Y1223264D01*
X1221232Y952246D02*
Y1223264D01*
X1217168Y952246D02*
Y1223264D01*
X1225296Y952246D02*
Y1223264D01*
X1223264Y952246D02*
Y1223264D01*
X1188720Y952246D02*
Y1223264D01*
X1190752Y952246D02*
Y1223264D01*
X1186688Y952246D02*
Y1223264D01*
X1194816Y952246D02*
Y1223264D01*
X1192784Y952246D02*
Y1223264D01*
X1176528Y952246D02*
Y1223264D01*
X1180592Y952246D02*
Y1223264D01*
X1174496Y952246D02*
Y1223264D01*
X1184656Y952246D02*
Y1223264D01*
X1182624Y952246D02*
Y1223264D01*
X1190752Y912443D02*
Y927354D01*
X1194816Y916507D02*
Y927354D01*
X1184656Y906347D02*
Y927354D01*
X1182624Y904315D02*
Y927354D01*
X1180592Y902283D02*
Y927354D01*
X1178560Y952246D02*
Y1223264D01*
X1172464Y952246D02*
Y1223264D01*
X1178560Y900251D02*
Y927354D01*
X1172464Y894155D02*
Y927354D01*
X1351280Y843026D02*
Y854889D01*
X1349248Y843026D02*
Y852857D01*
X1347216Y843026D02*
Y850825D01*
X1355344Y843026D02*
Y858953D01*
X1353312Y843026D02*
Y856921D01*
X1341120Y843026D02*
Y844729D01*
X1345184Y843026D02*
Y848793D01*
X1343152Y843026D02*
Y846761D01*
X1335024Y788745D02*
Y806153D01*
Y788745D02*
Y806153D01*
X1332119Y785840D02*
X1335024Y788745D01*
X1332992Y786713D02*
Y809218D01*
X1285537Y818134D02*
X1331286D01*
X1279112Y814832D02*
X1331311D01*
X1283805Y816864D02*
X1331216D01*
X1330960Y785876D02*
Y818134D01*
X1328928Y785766D02*
Y818134D01*
X1308608Y785627D02*
Y818134D01*
X1326896Y785431D02*
Y818134D01*
X1306576Y785848D02*
Y818134D01*
X1324864Y784860D02*
Y818134D01*
X1310640Y785176D02*
Y818134D01*
X1302512Y785627D02*
Y818134D01*
X1304544Y785848D02*
Y818134D01*
X1300480Y785176D02*
Y818134D01*
X1296416Y784486D02*
Y818134D01*
X1294384Y784486D02*
Y818134D01*
X1286256Y784486D02*
Y818134D01*
X1288288Y784486D02*
Y818134D01*
X1284224Y784486D02*
Y817140D01*
X1292352Y784486D02*
Y818134D01*
X1290320Y784486D02*
Y818134D01*
X1278128Y784486D02*
Y814612D01*
X1276096Y784486D02*
Y814356D01*
X1274064Y784486D02*
Y814356D01*
X1282192Y784486D02*
Y815962D01*
X1280160Y784486D02*
Y815138D01*
X1322832Y784028D02*
Y818134D01*
X1349720Y768239D02*
X1356259Y774777D01*
X1320800Y782893D02*
Y818134D01*
X1357376Y757936D02*
Y776055D01*
X1355344Y757936D02*
Y773863D01*
X1312974Y784352D02*
X1323546D01*
X1316561Y782320D02*
X1319958D01*
X1318768Y781385D02*
Y818134D01*
X1353312Y757936D02*
Y771831D01*
X1351280Y757936D02*
Y769799D01*
X1349248Y757936D02*
Y762740D01*
X1324864Y689329D02*
Y733044D01*
X1326896Y689329D02*
Y733044D01*
X1328928Y689107D02*
Y733044D01*
X1322832Y689107D02*
Y733044D01*
X1314704Y783502D02*
Y818134D01*
X1316736Y782193D02*
Y818134D01*
X1312672Y784479D02*
Y818134D01*
X1300106Y743712D02*
X1301167D01*
X1300480Y690626D02*
Y744399D01*
X1298448Y784479D02*
Y818134D01*
X1300106Y744773D02*
X1308177Y736701D01*
X1275214Y690626D02*
Y749674D01*
X1300106Y690622D02*
Y744773D01*
X1274064Y690595D02*
Y749674D01*
X1300106Y741680D02*
X1303199D01*
X1302512Y690503D02*
Y742367D01*
X1306576Y689488D02*
Y738303D01*
X1304544Y690130D02*
Y740335D01*
X1300106Y737616D02*
X1307263D01*
X1300106Y739648D02*
X1305231D01*
X1300106Y733552D02*
X1313470D01*
X1300106Y735584D02*
X1309455D01*
X1267206Y802640D02*
X1335024D01*
X1267206Y800608D02*
X1335024D01*
X1267206Y804672D02*
X1335024D01*
X1267206Y796544D02*
X1335024D01*
X1267206Y798576D02*
X1335024D01*
X1267206Y812800D02*
X1331667D01*
X1267206Y810768D02*
X1332300D01*
X1267206Y806704D02*
X1334581D01*
X1267206Y808736D02*
X1333248D01*
X1267206Y784486D02*
X1297566D01*
X1267206Y739648D02*
X1275214D01*
X1267206Y737616D02*
X1275214D01*
X1267206Y733552D02*
X1275214D01*
X1267206Y735584D02*
X1275214D01*
X1267206Y792480D02*
X1335024D01*
X1267206Y790448D02*
X1335024D01*
X1267206Y794512D02*
X1335024D01*
X1267206Y788416D02*
X1334695D01*
X1267206Y786384D02*
X1332663D01*
X1200912Y922603D02*
Y927354D01*
X1202944Y924635D02*
Y927354D01*
X1198880Y920571D02*
Y927354D01*
X1267206Y784486D02*
Y816358D01*
X1196848Y918539D02*
Y927354D01*
X1188720Y910411D02*
Y927354D01*
X1192784Y914475D02*
Y927354D01*
X1186688Y908379D02*
Y927354D01*
X1176528Y898219D02*
Y927354D01*
X1174496Y896187D02*
Y927354D01*
X1267206Y814832D02*
X1271048D01*
X1272032Y784486D02*
Y814612D01*
X1270000Y784486D02*
Y815138D01*
X1267206Y749674D02*
X1275214D01*
X1267968Y784486D02*
Y815962D01*
X1267206Y745744D02*
X1275214D01*
X1267206Y747776D02*
X1275214D01*
X1267206Y741680D02*
X1275214D01*
X1267206Y743712D02*
X1275214D01*
X1267206Y719328D02*
X1275214D01*
X1267206Y717296D02*
X1275214D01*
X1267206Y721360D02*
X1275214D01*
X1267206Y713232D02*
X1275214D01*
X1267206Y715264D02*
X1275214D01*
X1267206Y729488D02*
X1275214D01*
X1267206Y727456D02*
X1275214D01*
X1267206Y731520D02*
X1275214D01*
X1267206Y723392D02*
X1275214D01*
X1267206Y725424D02*
X1275214D01*
X1267206Y699008D02*
X1275214D01*
X1267206Y696976D02*
X1275214D01*
X1267206Y701040D02*
X1275214D01*
X1267206Y690880D02*
X1275214D01*
X1267206Y692912D02*
X1275214D01*
X1267206Y709168D02*
X1275214D01*
X1267206Y707136D02*
X1275214D01*
X1267206Y711200D02*
X1275214D01*
X1267206Y703072D02*
X1275214D01*
X1267206Y705104D02*
X1275214D01*
X1272032Y690349D02*
Y749674D01*
X1212417Y717296D02*
X1215644D01*
X1214449Y719328D02*
X1215644D01*
X1270000Y689844D02*
Y749674D01*
X1267968Y689056D02*
Y749674D01*
X1208353Y713232D02*
X1215644D01*
X1206321Y711200D02*
X1215644D01*
X1210385Y715264D02*
X1215644D01*
X1202257Y707136D02*
X1215644D01*
X1204289Y709168D02*
X1215644D01*
X1198193Y703072D02*
X1215644D01*
X1196161Y701040D02*
X1215644D01*
X1200225Y705104D02*
X1215644D01*
X1267206Y694944D02*
X1275214D01*
X1194129Y699008D02*
X1215644D01*
X1190065Y694944D02*
X1215644D01*
X1192097Y696976D02*
X1215644D01*
X1186001Y690880D02*
X1215644D01*
X1188033Y692912D02*
X1215644D01*
X1406144Y688415D02*
Y696087D01*
X1405815Y688086D02*
X1411168Y693439D01*
X1404112Y688086D02*
Y697827D01*
X1402080Y688086D02*
Y700199D01*
X1400048Y688086D02*
Y703786D01*
X1393952Y688086D02*
Y733211D01*
X1391920Y688086D02*
Y733044D01*
X1389888Y688086D02*
Y733044D01*
X1398016Y688086D02*
Y734639D01*
X1395984Y688086D02*
Y733726D01*
X1428466Y675535D02*
X1431544Y678613D01*
X1429607Y674624D02*
X1431544D01*
X1429587Y676656D02*
X1431544D01*
Y672687D02*
Y678613D01*
X1430528Y673773D02*
Y677597D01*
X1379220Y688086D02*
X1405815D01*
X1384375Y663194D02*
X1398733D01*
X1383613Y662432D02*
X1398634D01*
X1381581Y660400D02*
X1398524D01*
X1383792Y688086D02*
Y733044D01*
X1385824Y688086D02*
Y733044D01*
X1381760Y688086D02*
Y733044D01*
X1379728Y688086D02*
Y733044D01*
X1377696Y687992D02*
Y733044D01*
X1365504Y687966D02*
Y733044D01*
X1375664Y687567D02*
Y733044D01*
X1363472Y687966D02*
Y733044D01*
X1373632Y686761D02*
Y733044D01*
X1371600Y685481D02*
Y733044D01*
X1387856Y688086D02*
Y733044D01*
X1368686Y682707D02*
X1370407Y684429D01*
X1369568Y683589D02*
Y733044D01*
X1367536Y687966D02*
Y733044D01*
X1368686Y686816D02*
X1373743D01*
X1361440Y687966D02*
Y733044D01*
X1368686Y684784D02*
X1370777D01*
X1368686Y682707D02*
Y687966D01*
X1431544Y647287D02*
Y648113D01*
X1379549Y658368D02*
X1398634D01*
X1402080Y646002D02*
Y649398D01*
X1400048Y642414D02*
Y652986D01*
X1375485Y654304D02*
X1399540D01*
X1373453Y652272D02*
X1400372D01*
X1377517Y656336D02*
X1398969D01*
X1369389Y648208D02*
X1403015D01*
X1371421Y650240D02*
X1401507D01*
X1431544Y621887D02*
Y622713D01*
X1402080Y620602D02*
Y623998D01*
X1400048Y591614D02*
Y602186D01*
Y617014D02*
Y627586D01*
X1367357Y646176D02*
X1402207D01*
X1365325Y644144D02*
X1400898D01*
X1363293Y642112D02*
X1399922D01*
X1361261Y640080D02*
X1399223D01*
X1395984Y432408D02*
Y663194D01*
X1398016Y435215D02*
Y663194D01*
X1393952Y428387D02*
Y663194D01*
X1391920Y399796D02*
Y663194D01*
X1389888Y399686D02*
Y663194D01*
X1385824Y398780D02*
Y663194D01*
X1387856Y399351D02*
Y663194D01*
X1383792Y397948D02*
Y662611D01*
X1381760Y396813D02*
Y660579D01*
X1379728Y395305D02*
Y658547D01*
X1373632Y398399D02*
Y652451D01*
X1371600Y399096D02*
Y650419D01*
X1369568Y399547D02*
Y648387D01*
X1377696Y396113D02*
Y656515D01*
X1375664Y397422D02*
Y654483D01*
X1367536Y399768D02*
Y646355D01*
X1365504Y399768D02*
Y644323D01*
X1363472Y399547D02*
Y642291D01*
X1361440Y399096D02*
Y640259D01*
X1353312Y687966D02*
Y733044D01*
X1355344Y687966D02*
Y733044D01*
X1351280Y687966D02*
Y733044D01*
X1359408Y687966D02*
Y733044D01*
X1357376Y687966D02*
Y733044D01*
X1343152Y687966D02*
Y733044D01*
X1345184Y687966D02*
Y733044D01*
X1337056Y687966D02*
Y733044D01*
X1349248Y687966D02*
Y733044D01*
X1347216Y687966D02*
Y733044D01*
X1339088Y687966D02*
Y733044D01*
X1341120Y687966D02*
Y733044D01*
X1335024Y687966D02*
Y733044D01*
X1359229Y638048D02*
X1398773D01*
X1337056Y651077D02*
Y653154D01*
X1330220Y688848D02*
X1406577D01*
X1333874Y687966D02*
X1368686D01*
X1333874Y653154D02*
X1339133D01*
X1330220Y652272D02*
X1338251D01*
X1311184Y650240D02*
X1336219D01*
X1332992Y687959D02*
Y733044D01*
X1335024Y649045D02*
Y653154D01*
X1330960Y688656D02*
Y733044D01*
X1332992Y647013D02*
Y653161D01*
X1330960Y644981D02*
Y652464D01*
X1308023Y688848D02*
X1321540D01*
X1320800Y688656D02*
Y733044D01*
X1309680Y652272D02*
X1321540D01*
X1328928Y642949D02*
Y652013D01*
X1312926Y642112D02*
X1328091D01*
X1326896Y640917D02*
Y651792D01*
X1324864Y638885D02*
Y651792D01*
X1312926Y638048D02*
X1324027D01*
X1312153Y648208D02*
X1334187D01*
X1312714Y646176D02*
X1332155D01*
X1312923Y644144D02*
X1330123D01*
X1312926Y640080D02*
X1326059D01*
X1355165Y633984D02*
X1398551D01*
X1353133Y631952D02*
X1398773D01*
X1357197Y636016D02*
X1398551D01*
X1351101Y629920D02*
X1399223D01*
X1359408Y398399D02*
Y638227D01*
X1347037Y625856D02*
X1400898D01*
X1345005Y623824D02*
X1402207D01*
X1349069Y627888D02*
X1399922D01*
X1342973Y621792D02*
X1403015D01*
X1334516Y613335D02*
X1384375Y663194D01*
X1340941Y619760D02*
X1401507D01*
X1338909Y617728D02*
X1400372D01*
X1336877Y615696D02*
X1399540D01*
X1334845Y613664D02*
X1398969D01*
X1334516Y611632D02*
X1398634D01*
X1334516Y607568D02*
X1398634D01*
X1334516Y605536D02*
X1398969D01*
X1334516Y609600D02*
X1398524D01*
X1334516Y601472D02*
X1400372D01*
X1334516Y603504D02*
X1399540D01*
X1357376Y397422D02*
Y636195D01*
X1351280Y396813D02*
Y630099D01*
X1322832Y636853D02*
Y652013D01*
X1355344Y396113D02*
Y634163D01*
X1353312Y395305D02*
Y632131D01*
X1320800Y634821D02*
Y652464D01*
X1312926Y636016D02*
X1321995D01*
X1312926Y633984D02*
X1319963D01*
X1313281Y627303D02*
X1339133Y653154D01*
X1318768Y632789D02*
Y653161D01*
X1345184Y399351D02*
Y624003D01*
X1343152Y399686D02*
Y621971D01*
X1341120Y399796D02*
Y619939D01*
X1349248Y397948D02*
Y628067D01*
X1347216Y398780D02*
Y626035D01*
X1339088Y399686D02*
Y617907D01*
X1334516Y520700D02*
Y613335D01*
X1337056Y399351D02*
Y615875D01*
X1335024Y398780D02*
Y613843D01*
X1431544Y571087D02*
Y571913D01*
Y545687D02*
Y546513D01*
Y596487D02*
Y597313D01*
Y494887D02*
Y495713D01*
Y520287D02*
Y521113D01*
X1428322Y467360D02*
X1431544D01*
X1430693Y469392D02*
X1431544D01*
X1426464Y442524D02*
Y466178D01*
X1408176Y442524D02*
Y466178D01*
X1424734Y465328D02*
X1431544D01*
X1422400Y443727D02*
Y464504D01*
X1420368Y444061D02*
Y464053D01*
X1425210Y442976D02*
X1431544D01*
X1424432Y443219D02*
Y465201D01*
X1416304Y444226D02*
Y463831D01*
X1418336Y444226D02*
Y463831D01*
X1414272Y444061D02*
Y464053D01*
X1412240Y443727D02*
Y464504D01*
X1410208Y443219D02*
Y465201D01*
X1402080Y595201D02*
Y598599D01*
Y569801D02*
Y573199D01*
X1400048Y540814D02*
Y551386D01*
Y566214D02*
Y576786D01*
X1334516Y599440D02*
X1401507D01*
X1334516Y550672D02*
X1400372D01*
X1334516Y552704D02*
X1399540D01*
X1334516Y548640D02*
X1401507D01*
X1402080Y544402D02*
Y547799D01*
Y519002D02*
Y522398D01*
X1400048Y515414D02*
Y525986D01*
X1406144Y441626D02*
Y467487D01*
X1402080Y493601D02*
Y496998D01*
X1334516Y546608D02*
X1403015D01*
X1334516Y522224D02*
X1402207D01*
X1400048Y490014D02*
Y500586D01*
X1431544Y439836D02*
Y470313D01*
X1429776Y440944D02*
X1431544D01*
X1430528Y440498D02*
Y469227D01*
X1431544Y393287D02*
Y398364D01*
X1430528Y394373D02*
Y397702D01*
X1428496Y441626D02*
Y467487D01*
X1431544Y366776D02*
Y368713D01*
X1430693Y367792D02*
X1431544D01*
X1430693Y394208D02*
X1431544D01*
X1429607Y366776D02*
X1431544D01*
X1430528D02*
Y367627D01*
X1428322Y396240D02*
X1431544D01*
X1402921D02*
X1406319D01*
X1402080Y439102D02*
Y471599D01*
X1404112Y440498D02*
Y469227D01*
X1400048Y437376D02*
Y475186D01*
X1402080Y396813D02*
Y399098D01*
X1400048Y397948D02*
Y400824D01*
X1395984Y399351D02*
Y405792D01*
X1398016Y398780D02*
Y402985D01*
X1393952Y399686D02*
Y409813D01*
X1399334Y398272D02*
X1403230D01*
X1404112Y395305D02*
Y397702D01*
X1377522Y396240D02*
X1380918D01*
X1404207Y366776D02*
X1405033D01*
X1378807D02*
X1379633D01*
X1373934Y398272D02*
X1384506D01*
X1348534D02*
X1359106D01*
X1352121Y396240D02*
X1355518D01*
X1353407Y366776D02*
X1354233D01*
X1334516Y573024D02*
X1402207D01*
X1334516Y570992D02*
X1403015D01*
X1334516Y575056D02*
X1400898D01*
X1334516Y568960D02*
X1401507D01*
X1334516Y566928D02*
X1400372D01*
X1334516Y597408D02*
X1403015D01*
X1334516Y595376D02*
X1402207D01*
X1334516Y593344D02*
X1400898D01*
X1334516Y577088D02*
X1399922D01*
X1334516Y591312D02*
X1399922D01*
X1334516Y544576D02*
X1402207D01*
X1334516Y542544D02*
X1400898D01*
X1334516Y564896D02*
X1399540D01*
X1334516Y526288D02*
X1399922D01*
X1334516Y540512D02*
X1399922D01*
X1334506Y520192D02*
X1403015D01*
X1334254Y518160D02*
X1401507D01*
X1334516Y524256D02*
X1400898D01*
X1333646Y516128D02*
X1400372D01*
X1332619Y514096D02*
X1399540D01*
X1334516Y579120D02*
X1399223D01*
X1334516Y562864D02*
X1398969D01*
X1334516Y560832D02*
X1398634D01*
X1334516Y556768D02*
X1398634D01*
X1334516Y558800D02*
X1398524D01*
X1334516Y589280D02*
X1399223D01*
X1334516Y587248D02*
X1398773D01*
X1334516Y585216D02*
X1398551D01*
X1334516Y581152D02*
X1398773D01*
X1334516Y583184D02*
X1398551D01*
X1334516Y554736D02*
X1398969D01*
X1334516Y538480D02*
X1399223D01*
X1334516Y536448D02*
X1398773D01*
X1334516Y532384D02*
X1398551D01*
X1334516Y534416D02*
X1398551D01*
X1334516Y528320D02*
X1399223D01*
X1334516Y530352D02*
X1398773D01*
X1331032Y512064D02*
X1398969D01*
X1324939Y505968D02*
X1398634D01*
X1322893Y503936D02*
X1398969D01*
X1329003Y510032D02*
X1398634D01*
X1319166Y489712D02*
X1399922D01*
X1319927Y501904D02*
X1399540D01*
X1316293Y497840D02*
X1401507D01*
X1317428Y495808D02*
X1403015D01*
X1314785Y499872D02*
X1400372D01*
X1318260Y493776D02*
X1402207D01*
X1318831Y491744D02*
X1400898D01*
X1319276Y487680D02*
X1399223D01*
X1319166Y485648D02*
X1398773D01*
X1318831Y483616D02*
X1398551D01*
X1317428Y479552D02*
X1398773D01*
X1318260Y481584D02*
X1398551D01*
X1314785Y475488D02*
X1399922D01*
X1312767Y473456D02*
X1400898D01*
X1316293Y477520D02*
X1399223D01*
X1304820Y469392D02*
X1403947D01*
X1309916Y471424D02*
X1402207D01*
X1326971Y508000D02*
X1398524D01*
X1332992Y397948D02*
Y514732D01*
X1330960Y396813D02*
Y511990D01*
X1328928Y395305D02*
Y509957D01*
X1323263Y504291D02*
X1330859Y511887D01*
X1326896Y396113D02*
Y507925D01*
X1324864Y397422D02*
Y505893D01*
X1323134Y398272D02*
X1333706D01*
X1326721Y396240D02*
X1330119D01*
X1322832Y398399D02*
Y503880D01*
X1328007Y366776D02*
X1328833D01*
X1320800Y399096D02*
Y502376D01*
X1316736Y686982D02*
Y733047D01*
X1318768Y687959D02*
Y733044D01*
X1314704Y685673D02*
Y733256D01*
X1312672Y646392D02*
Y655695D01*
Y685425D02*
Y733817D01*
X1310640Y687229D02*
Y734786D01*
X1311166Y686816D02*
X1316444D01*
X1308608Y688542D02*
Y736290D01*
X1316736Y630757D02*
Y654138D01*
X1312926Y629920D02*
X1315899D01*
X1314704Y628725D02*
Y655447D01*
X1312926Y627888D02*
X1313867D01*
X1312926Y626933D02*
Y643890D01*
X1311166Y654304D02*
X1316444D01*
X1310640Y651079D02*
Y653891D01*
X1312926Y631952D02*
X1317931D01*
X1278871Y647897D02*
X1288034Y638735D01*
X1267206Y650240D02*
X1277028D01*
X1267206Y648208D02*
X1278570D01*
X1267206Y688678D02*
Y749674D01*
Y644144D02*
X1282625D01*
X1267206Y646176D02*
X1280593D01*
X1267206Y629920D02*
X1288034D01*
X1267206Y627888D02*
X1288034D01*
X1267206Y631952D02*
X1288034D01*
X1267206Y623824D02*
X1288034D01*
X1267206Y625856D02*
X1288034D01*
X1267206Y640080D02*
X1286689D01*
X1267206Y638048D02*
X1288034D01*
X1267206Y642112D02*
X1284657D01*
X1267206Y633984D02*
X1288034D01*
X1267206Y636016D02*
X1288034D01*
X1280160Y606686D02*
Y646609D01*
X1282192Y606686D02*
Y644577D01*
X1278128Y606686D02*
Y648707D01*
X1286256Y606686D02*
Y640513D01*
X1284224Y606686D02*
Y642545D01*
X1270000Y606686D02*
Y651276D01*
X1272032Y606686D02*
Y650771D01*
X1267968Y606686D02*
Y652064D01*
X1276096Y606686D02*
Y650525D01*
X1274064Y606686D02*
Y650525D01*
X1267206Y619760D02*
X1288034D01*
X1267206Y617728D02*
X1288034D01*
X1267206Y621792D02*
X1288034D01*
Y606686D02*
Y638735D01*
X1267206Y615696D02*
X1288034D01*
X1267206Y611632D02*
X1288034D01*
X1267206Y609600D02*
X1288034D01*
X1267206Y613664D02*
X1288034D01*
X1267206Y606686D02*
X1288034D01*
X1267206Y607568D02*
X1288034D01*
X1267206Y606686D02*
Y652442D01*
X1228927Y615696D02*
X1230884D01*
X1227836Y589280D02*
X1230884D01*
Y539825D02*
Y617653D01*
X1229360Y538301D02*
Y616129D01*
X1226895Y613664D02*
X1230884D01*
X1226820Y595376D02*
X1230884D01*
X1227328Y593620D02*
Y614097D01*
X1227726Y591312D02*
X1230884D01*
X1227391Y593344D02*
X1230884D01*
X1227391Y585216D02*
X1230884D01*
X1226820Y583184D02*
X1230884D01*
X1227726Y587248D02*
X1230884D01*
X1226412Y564896D02*
X1230884D01*
X1227328Y536269D02*
Y584940D01*
X1226133Y566928D02*
X1230884D01*
X1225988Y581152D02*
X1230884D01*
X1226133Y560832D02*
X1230884D01*
X1226412Y562864D02*
X1230884D01*
X1213104Y687966D02*
Y717983D01*
X1211072Y687966D02*
Y715951D01*
X1209040Y687966D02*
Y713919D01*
X1215644Y687966D02*
Y720523D01*
X1215136Y687966D02*
Y720015D01*
X1183747Y688626D02*
X1215644Y720523D01*
X1183969Y688848D02*
X1215644D01*
X1207008Y687966D02*
Y711887D01*
X1186554Y687966D02*
X1215644D01*
X1204976D02*
Y709855D01*
X1215136Y637107D02*
Y653154D01*
X1215644Y637615D02*
Y653154D01*
X1213104Y635075D02*
Y653154D01*
X1211072Y633043D02*
Y653154D01*
X1209040Y631011D02*
Y653154D01*
X1186554D02*
X1215644D01*
X1182900Y652272D02*
X1215644D01*
X1207008Y628979D02*
Y653154D01*
X1204976Y626947D02*
Y653154D01*
X1177290Y625856D02*
X1203885D01*
X1198880Y687966D02*
Y703759D01*
X1196848Y687966D02*
Y701727D01*
X1194816Y687966D02*
Y699695D01*
X1202944Y687966D02*
Y707823D01*
X1200912Y687966D02*
Y705791D01*
X1188720Y687966D02*
Y693599D01*
X1186688Y687966D02*
Y691567D01*
X1184656Y688340D02*
Y689535D01*
X1192784Y687966D02*
Y697663D01*
X1190752Y687966D02*
Y695631D01*
X1186688Y625856D02*
Y653154D01*
X1188720Y625856D02*
Y653154D01*
X1194816Y625856D02*
Y653154D01*
X1192784Y625856D02*
Y653154D01*
X1177290Y625856D02*
X1203885D01*
X1178560D02*
Y651764D01*
X1182624Y625856D02*
Y652209D01*
X1180592Y625856D02*
Y651874D01*
X1222831Y609600D02*
X1230884D01*
X1223345Y601472D02*
X1230884D01*
X1224863Y611632D02*
X1230884D01*
X1225988Y597408D02*
X1230884D01*
X1224853Y599440D02*
X1230884D01*
X1218659Y605428D02*
X1230884Y617653D01*
X1218767Y605536D02*
X1230884D01*
X1220799Y607568D02*
X1230884D01*
X1221327Y603504D02*
X1230884D01*
X1224651Y570992D02*
X1230884D01*
X1225559Y568960D02*
X1230884D01*
X1224853Y579120D02*
X1230884D01*
X1224651Y556768D02*
X1230884D01*
X1225559Y558800D02*
X1230884D01*
X1223345Y577088D02*
X1230884D01*
X1221444Y575056D02*
X1230884D01*
X1223333Y554736D02*
X1230884D01*
X1223333Y573024D02*
X1230884D01*
X1200912Y625856D02*
Y653154D01*
X1202944Y625856D02*
Y653154D01*
X1198880Y625856D02*
Y653154D01*
X1225296Y598716D02*
Y612065D01*
X1203885Y625856D02*
X1215644Y637615D01*
X1190752Y625856D02*
Y653154D01*
X1196848Y625856D02*
Y653154D01*
X1184656Y625856D02*
Y652780D01*
X1176528Y625833D02*
Y651874D01*
X1174496Y625538D02*
Y652209D01*
X1225296Y569637D02*
Y579844D01*
X1223264Y573113D02*
Y576993D01*
Y601567D02*
Y610033D01*
X1225296Y544702D02*
Y558123D01*
X1223264Y548512D02*
Y554647D01*
X1221232Y603585D02*
Y608001D01*
X1219200Y605093D02*
Y605969D01*
X1318768Y492020D02*
Y501407D01*
X1316736Y497116D02*
Y500846D01*
Y399768D02*
Y478244D01*
X1318768Y399547D02*
Y483340D01*
X1314704Y399768D02*
Y475393D01*
X1287367Y473456D02*
X1288193D01*
X1261872Y399547D02*
Y474307D01*
X1290320Y399796D02*
Y471867D01*
X1292352Y399686D02*
Y470732D01*
X1288288Y399686D02*
Y473375D01*
X1312672Y399547D02*
Y473375D01*
X1286256Y399351D02*
Y472567D01*
X1284516Y471424D02*
X1291044D01*
X1279420Y469392D02*
X1296140D01*
X1263904Y399768D02*
Y472567D01*
X1267968Y399547D02*
Y470281D01*
X1265936Y399768D02*
Y471258D01*
X1242389Y516128D02*
X1244546D01*
X1245971Y514427D02*
X1256107Y504291D01*
X1243584Y399351D02*
Y517323D01*
X1240357Y514096D02*
X1246303D01*
X1238325Y512064D02*
X1248335D01*
X1230553Y504291D02*
X1243732Y517471D01*
X1241552Y399686D02*
Y515291D01*
X1239520Y399796D02*
Y513259D01*
X1259840Y498681D02*
Y501718D01*
X1236293Y510032D02*
X1250367D01*
X1257808Y495094D02*
Y502866D01*
X1237488Y399686D02*
Y511227D01*
X1232229Y505968D02*
X1254431D01*
X1230183Y503936D02*
X1256477D01*
X1234261Y508000D02*
X1252399D01*
X1227836Y487680D02*
X1256284D01*
X1235456Y399351D02*
Y509195D01*
X1310640Y399096D02*
Y471867D01*
X1308608Y398399D02*
Y470732D01*
X1296416Y398780D02*
Y469329D01*
X1306576Y397422D02*
Y469900D01*
X1304544Y396113D02*
Y469329D01*
X1284224Y398780D02*
Y471258D01*
X1294384Y399351D02*
Y469900D01*
X1282192Y397948D02*
Y470281D01*
X1280160Y396813D02*
Y469584D01*
X1278128Y395305D02*
Y469133D01*
X1300480Y396813D02*
Y468884D01*
X1301322Y396240D02*
X1304718D01*
X1298448Y397948D02*
Y468994D01*
X1302607Y366776D02*
X1303433D01*
X1302512Y395305D02*
Y468994D01*
X1272334Y398272D02*
X1282906D01*
X1297734D02*
X1308306D01*
X1275921Y396240D02*
X1279318D01*
X1277207Y366776D02*
X1278033D01*
X1255776Y397422D02*
Y504623D01*
X1257808Y398399D02*
Y480266D01*
X1249680Y396813D02*
Y510719D01*
X1253744Y396113D02*
Y506655D01*
X1251712Y395305D02*
Y508687D01*
X1245616Y398780D02*
Y514797D01*
X1247648Y397948D02*
Y512751D01*
X1233424Y398780D02*
Y507163D01*
X1231392Y397948D02*
Y505131D01*
X1229360Y396813D02*
Y503239D01*
X1270000Y399096D02*
Y469584D01*
X1272032Y398399D02*
Y469133D01*
X1259840Y399096D02*
Y476679D01*
X1276096Y396113D02*
Y468912D01*
X1274064Y397422D02*
Y468912D01*
X1246934Y398272D02*
X1257506D01*
X1250521Y396240D02*
X1253919D01*
X1251807Y366776D02*
X1252633D01*
X1226104Y535045D02*
X1230884Y539825D01*
X1227217Y501904D02*
X1259443D01*
X1226327Y540512D02*
X1230884D01*
X1226820Y493776D02*
X1257300D01*
X1227391Y491744D02*
X1256729D01*
X1225965Y542544D02*
X1230884D01*
X1223345Y499872D02*
X1260775D01*
X1221463Y550672D02*
X1230884D01*
X1224853Y497840D02*
X1259267D01*
X1225988Y495808D02*
X1258132D01*
X1227726Y485648D02*
X1256394D01*
X1227391Y483616D02*
X1256729D01*
X1227726Y489712D02*
X1256394D01*
X1225988Y479552D02*
X1258132D01*
X1226820Y481584D02*
X1257300D01*
X1223345Y475488D02*
X1260775D01*
X1221327Y473456D02*
X1262793D01*
X1224853Y477520D02*
X1259267D01*
X1213380Y469392D02*
X1270740D01*
X1218476Y471424D02*
X1265644D01*
X1224432Y546608D02*
X1230884D01*
X1225344Y544576D02*
X1230884D01*
X1223173Y548640D02*
X1230884D01*
X1226446Y538480D02*
X1229539D01*
X1221444Y552704D02*
X1230884D01*
X1221232Y550903D02*
Y552518D01*
X1226327Y536448D02*
X1227507D01*
X1227328Y492020D02*
Y501959D01*
X1225296Y497116D02*
Y501153D01*
X1195927Y473456D02*
X1196753D01*
X1187980Y469392D02*
X1204700D01*
X1193076Y471424D02*
X1199604D01*
X1223264Y397422D02*
Y475393D01*
X1221232Y398399D02*
Y473375D01*
X1219200Y399096D02*
Y471867D01*
X1227328Y395305D02*
Y483340D01*
X1225296Y396113D02*
Y478244D01*
X1215136Y399768D02*
Y469900D01*
X1213104Y399768D02*
Y469329D01*
X1217168Y399547D02*
Y470732D01*
X1204976Y397422D02*
Y469329D01*
X1221534Y398272D02*
X1232106D01*
X1225122Y396240D02*
X1228519D01*
X1211072Y399547D02*
Y468994D01*
X1226407Y366776D02*
X1227233D01*
X1207008Y398399D02*
Y468994D01*
X1209040Y399096D02*
Y468884D01*
X1196134Y398272D02*
X1206706D01*
X1199722Y396240D02*
X1203119D01*
X1196848Y397948D02*
Y473375D01*
X1198880Y396813D02*
Y471867D01*
X1194816Y398780D02*
Y472567D01*
X1202944Y396113D02*
Y469900D01*
X1200912Y395305D02*
Y470732D01*
X1192784Y399351D02*
Y471258D01*
X1190752Y399686D02*
Y470281D01*
X1188720Y399796D02*
Y469584D01*
X1176528Y395305D02*
Y470281D01*
X1174496Y396113D02*
Y471258D01*
X1186688Y399686D02*
Y469133D01*
X1184656Y399351D02*
Y468912D01*
X1182624Y398780D02*
Y468912D01*
X1201007Y366776D02*
X1201833D01*
X1180592Y397948D02*
Y469133D01*
X1178560Y396813D02*
Y469584D01*
X1174322Y396240D02*
X1177719D01*
X1175607Y366776D02*
X1176433D01*
X953406Y1068832D02*
X1389051D01*
X953516Y1066800D02*
X1387019D01*
X953406Y1064768D02*
X1384987D01*
X953071Y1062736D02*
X1382955D01*
X953267Y1044448D02*
X1373124D01*
X952500Y1072896D02*
X1393115D01*
X953071Y1070864D02*
X1391083D01*
X952500Y1060704D02*
X1380923D01*
X952119Y1048512D02*
X1373147D01*
X952816Y1046480D02*
X1373124D01*
X953488Y1042416D02*
X1373124D01*
X953488Y1040384D02*
X1373124D01*
X953406Y1018032D02*
X1362381D01*
X953516Y1016000D02*
X1360349D01*
X953406Y1013968D02*
X1358317D01*
X952816Y1036320D02*
X1373124D01*
X952119Y1034288D02*
X1373124D01*
X953267Y1038352D02*
X1373124D01*
X952500Y1022096D02*
X1366445D01*
X953071Y1020064D02*
X1364413D01*
X959606Y1215136D02*
X1271070D01*
X960253Y1213104D02*
X1269494D01*
X960717Y1211072D02*
X1268221D01*
X961007Y1209040D02*
X1267199D01*
X961131Y1207008D02*
X1266397D01*
X954733Y1223264D02*
X1284867D01*
X954733D02*
X1284867D01*
X956369Y1221232D02*
X1278953D01*
X957693Y1219200D02*
X1275537D01*
X958761Y1217168D02*
X1273032D01*
X961090Y1204976D02*
X1265791D01*
X960883Y1202944D02*
X1265367D01*
X960507Y1200912D02*
X1265116D01*
X959210Y1196848D02*
X1265116D01*
X959954Y1198880D02*
X1265033D01*
X957066Y1192784D02*
X1265791D01*
X955594Y1190752D02*
X1266397D01*
X958257Y1194816D02*
X1265367D01*
X953071Y1011936D02*
X1356285D01*
X953772Y1188720D02*
X1267199D01*
X1164336Y952246D02*
Y1223264D01*
X1166368Y952246D02*
Y1223264D01*
X1162304Y952246D02*
Y1223264D01*
X1170432Y952246D02*
Y1223264D01*
X1168400Y952246D02*
Y1223264D01*
X952500Y1009904D02*
X1354253D01*
X952816Y995680D02*
X1340029D01*
X953267Y993648D02*
X1337997D01*
X1160272Y952246D02*
Y1223264D01*
X1158240Y952246D02*
Y1223264D01*
X953488Y991616D02*
X1335965D01*
X953488Y989584D02*
X1333933D01*
X953406Y967232D02*
X1311581D01*
X953516Y965200D02*
X1309549D01*
X953406Y963168D02*
X1307517D01*
X953267Y987552D02*
X1331901D01*
X952816Y985520D02*
X1329869D01*
X952500Y971296D02*
X1315645D01*
X953071Y969264D02*
X1313613D01*
X953071Y961136D02*
X1305485D01*
X1131824Y952246D02*
Y1223264D01*
X1133856Y952246D02*
Y1223264D01*
X1129792Y952246D02*
Y1223264D01*
X1137920Y952246D02*
Y1223264D01*
X1135888Y952246D02*
Y1223264D01*
X1121664Y952246D02*
Y1223264D01*
X1123696Y952246D02*
Y1223264D01*
X1119632Y952246D02*
Y1223264D01*
X1127760Y952246D02*
Y1223264D01*
X1125728Y952246D02*
Y1223264D01*
X1150112Y952246D02*
Y1223264D01*
X1152144Y952246D02*
Y1223264D01*
X1148080Y952246D02*
Y1223264D01*
X1156208Y952246D02*
Y1223264D01*
X1154176Y952246D02*
Y1223264D01*
X1141984Y952246D02*
Y1223264D01*
X1139952Y952246D02*
Y1223264D01*
X1146048Y952246D02*
Y1223264D01*
X1144016Y952246D02*
Y1223264D01*
X920496Y1150112D02*
X1431544D01*
X920496Y1148080D02*
X1431544D01*
X920496Y1152144D02*
X1431544D01*
X920496Y1144016D02*
X1431544D01*
X920496Y1146048D02*
X1431544D01*
X920496Y1160272D02*
X1431544D01*
X920496Y1158240D02*
X1431544D01*
X920496Y1162304D02*
X1417320D01*
X920496Y1154176D02*
X1431544D01*
X920496Y1156208D02*
X1431544D01*
X920496Y1129792D02*
X1431544D01*
X920496Y1127760D02*
X1431544D01*
X920496Y1131824D02*
X1431544D01*
X920496Y1125728D02*
X1431544D01*
X920496Y1123696D02*
X1417320D01*
X920496Y1139952D02*
X1431544D01*
X920496Y1137920D02*
X1431544D01*
X920496Y1141984D02*
X1431544D01*
X920496Y1133856D02*
X1431544D01*
X920496Y1135888D02*
X1431544D01*
X948446Y1184656D02*
X1269494D01*
X943880Y1182624D02*
X1271070D01*
X951476Y1186688D02*
X1268221D01*
X920496Y1178560D02*
X1275537D01*
X920496Y1180592D02*
X1273032D01*
X920496Y1174496D02*
X1284867D01*
X920496Y1172464D02*
X1397127D01*
X920496Y1176528D02*
X1278953D01*
X920496Y1168400D02*
X1400906D01*
X920496Y1170432D02*
X1398808D01*
X920496Y1117600D02*
X1403464D01*
X920496Y1115568D02*
X1401845D01*
X920496Y1113536D02*
X1400625D01*
X920496Y1111504D02*
X1399722D01*
X920496Y1109472D02*
X1399088D01*
X920496Y1164336D02*
X1407417D01*
X920496Y1166368D02*
X1403613D01*
X920496Y1121664D02*
X1408819D01*
X920496Y1119632D02*
X1405647D01*
X920496Y1095248D02*
X1401192D01*
X920496Y1093216D02*
X1402597D01*
X920496Y1097280D02*
X1400138D01*
X920496Y1091184D02*
X1402597D01*
X920496Y1089152D02*
X1401192D01*
X920496Y1107440D02*
X1398696D01*
X920496Y1103376D02*
X1398586D01*
X920496Y1105408D02*
X1398531D01*
X920496Y1099312D02*
X1399374D01*
X920496Y1101344D02*
X1398863D01*
X949025Y1078992D02*
X1398531D01*
X950533Y1076960D02*
X1397179D01*
X951668Y1074928D02*
X1395147D01*
X951668Y1058672D02*
X1378891D01*
X950533Y1056640D02*
X1376859D01*
X920496Y1087120D02*
X1400138D01*
X939060Y1085088D02*
X1399374D01*
X944156Y1083056D02*
X1398863D01*
X947007Y1081024D02*
X1398586D01*
X949025Y1054608D02*
X1375184D01*
X951142Y1050544D02*
X1373442D01*
X951142Y1032256D02*
X1373124D01*
X950533Y1026160D02*
X1370509D01*
X951668Y1024128D02*
X1368477D01*
X951668Y1007872D02*
X1352221D01*
X949833Y1052576D02*
X1374098D01*
X949833Y1030224D02*
X1373124D01*
X949025Y1028192D02*
X1372541D01*
X950533Y1005840D02*
X1350189D01*
X949025Y1003808D02*
X1348157D01*
X951142Y999744D02*
X1344093D01*
X952119Y997712D02*
X1342061D01*
X952119Y983488D02*
X1327837D01*
X951142Y981456D02*
X1325805D01*
X951668Y973328D02*
X1317677D01*
X949833Y1001776D02*
X1346125D01*
X949833Y979424D02*
X1323773D01*
X949025Y977392D02*
X1321741D01*
X950533Y975360D02*
X1319709D01*
X1168400Y890091D02*
Y927354D01*
X1170432Y892123D02*
Y927354D01*
X1166368Y888059D02*
Y927354D01*
X1163421Y885113D02*
X1205663Y927354D01*
X1164336Y886027D02*
Y927354D01*
X953071Y918464D02*
X1196773D01*
X953406Y916432D02*
X1194741D01*
X953516Y914400D02*
X1192709D01*
X1162304Y883835D02*
Y927354D01*
X1160272Y879819D02*
Y927354D01*
X953488Y890016D02*
X1168325D01*
X953488Y887984D02*
X1166293D01*
X953488Y839216D02*
X1159764D01*
X953406Y912368D02*
X1190677D01*
X953071Y910336D02*
X1188645D01*
X953267Y892048D02*
X1170357D01*
X953267Y885952D02*
X1164261D01*
X953267Y841248D02*
X1159764D01*
Y758265D02*
Y876300D01*
X953516Y812800D02*
X1159764D01*
X1158240Y756741D02*
Y927354D01*
X1156208Y754709D02*
Y927354D01*
X1154176Y752677D02*
Y927354D01*
X953267Y835152D02*
X1159764D01*
X953071Y816864D02*
X1159764D01*
X953488Y837184D02*
X1159764D01*
X953406Y810768D02*
X1159764D01*
X953406Y814832D02*
X1159764D01*
X953488Y786384D02*
X1159764D01*
X953406Y764032D02*
X1159764D01*
X953488Y788416D02*
X1159764D01*
X953406Y759968D02*
X1159764D01*
X953516Y762000D02*
X1159764D01*
X953267Y790448D02*
X1159764D01*
X953267Y784352D02*
X1159764D01*
X953071Y808736D02*
X1159764D01*
X953071Y766064D02*
X1159764D01*
X953071Y757936D02*
X1159435D01*
X1161796Y658368D02*
X1164255D01*
X1161796Y656336D02*
X1166273D01*
X1161796Y660400D02*
X1162747D01*
X1161796Y650240D02*
X1215644D01*
X1152144Y750645D02*
Y927354D01*
X1101191Y699693D02*
X1159764Y758265D01*
X1150112Y748613D02*
Y927354D01*
X1161796Y652272D02*
X1174220D01*
X1161796Y654304D02*
X1169124D01*
X1161796Y638048D02*
X1215644D01*
X1161796Y636016D02*
X1214045D01*
X1161796Y633984D02*
X1212013D01*
X1161796Y631952D02*
X1209981D01*
X1161796Y629920D02*
X1207949D01*
X1161796Y646176D02*
X1215644D01*
X1161796Y644144D02*
X1215644D01*
X1161796Y648208D02*
X1215644D01*
X1161796Y640080D02*
X1215644D01*
X1161796Y642112D02*
X1215644D01*
X1146048Y744549D02*
Y927354D01*
X1148080Y746581D02*
Y927354D01*
X1144016Y742517D02*
Y927354D01*
X1141984Y740485D02*
Y927354D01*
X1139952Y738453D02*
Y927354D01*
X1135888Y734389D02*
Y927354D01*
X1137920Y736421D02*
Y927354D01*
X1133856Y732357D02*
Y927354D01*
X1127760Y726261D02*
Y927354D01*
X1125728Y724229D02*
Y927354D01*
X1129792Y728293D02*
Y927354D01*
X1131824Y730325D02*
Y927354D01*
X1123696Y722197D02*
Y927354D01*
X1121664Y720165D02*
Y927354D01*
X1119632Y718133D02*
Y927354D01*
X953267Y739648D02*
X1141147D01*
X953488Y737616D02*
X1139115D01*
X953488Y735584D02*
X1137083D01*
X953267Y733552D02*
X1135051D01*
X952500Y959104D02*
X1303453D01*
X951668Y957072D02*
X1301421D01*
X950533Y924560D02*
X1202869D01*
X951668Y922528D02*
X1200837D01*
X952500Y920496D02*
X1198805D01*
X950533Y955040D02*
X1299389D01*
X949025Y953008D02*
X1297357D01*
X948805Y952246D02*
X1296595D01*
X948805Y927354D02*
X1205663D01*
X949025Y926592D02*
X1204901D01*
X952500Y908304D02*
X1186613D01*
X952119Y896112D02*
X1174421D01*
X952816Y894080D02*
X1172389D01*
X952816Y883920D02*
X1162369D01*
X952119Y881888D02*
X1161089D01*
X951668Y906272D02*
X1184581D01*
X950533Y904240D02*
X1182549D01*
X949025Y902208D02*
X1180517D01*
X949833Y900176D02*
X1178485D01*
X951142Y898144D02*
X1176453D01*
X951142Y879856D02*
X1160283D01*
X949833Y877824D02*
X1159858D01*
X948093Y875792D02*
X1159764D01*
X942134Y871728D02*
X1159764D01*
X945722Y873760D02*
X1159764D01*
X920496Y867664D02*
X1159764D01*
X920496Y865632D02*
X1159764D01*
X920496Y869696D02*
X1159764D01*
X920496Y861568D02*
X1159764D01*
X920496Y863600D02*
X1159764D01*
X949833Y849376D02*
X1159764D01*
X951142Y847344D02*
X1159764D01*
X948093Y851408D02*
X1159764D01*
X952816Y843280D02*
X1159764D01*
X952119Y845312D02*
X1159764D01*
X920496Y857504D02*
X1159764D01*
X920496Y859536D02*
X1159764D01*
X945722Y853440D02*
X1159764D01*
X942134Y855472D02*
X1159764D01*
X952119Y831088D02*
X1159764D01*
X952500Y818896D02*
X1159764D01*
X952816Y833120D02*
X1159764D01*
X951668Y804672D02*
X1159764D01*
X952500Y806704D02*
X1159764D01*
X949833Y827024D02*
X1159764D01*
X949025Y824992D02*
X1159764D01*
X951142Y829056D02*
X1159764D01*
X951668Y820928D02*
X1159764D01*
X950533Y822960D02*
X1159764D01*
X952119Y794512D02*
X1159764D01*
X952816Y792480D02*
X1159764D01*
X951142Y796544D02*
X1159764D01*
X952119Y780288D02*
X1159764D01*
X952816Y782320D02*
X1159764D01*
X949025Y800608D02*
X1159764D01*
X949833Y798576D02*
X1159764D01*
X950533Y802640D02*
X1159764D01*
X949833Y776224D02*
X1159764D01*
X951142Y778256D02*
X1159764D01*
X951668Y770128D02*
X1159764D01*
X952500Y768096D02*
X1159764D01*
X952500Y755904D02*
X1157403D01*
X951668Y753872D02*
X1155371D01*
X951142Y745744D02*
X1147243D01*
X949025Y774192D02*
X1159764D01*
X950533Y772160D02*
X1159764D01*
X950533Y751840D02*
X1153339D01*
X949025Y749808D02*
X1151307D01*
X949833Y747776D02*
X1149275D01*
X952119Y743712D02*
X1145211D01*
X952816Y741680D02*
X1143179D01*
X952816Y731520D02*
X1133019D01*
X952119Y729488D02*
X1130987D01*
X951668Y719328D02*
X1120827D01*
X951142Y727456D02*
X1128955D01*
X949833Y725424D02*
X1126923D01*
X949025Y723392D02*
X1124891D01*
X950533Y721360D02*
X1122859D01*
X1091184Y952246D02*
Y1223264D01*
X1093216Y952246D02*
Y1223264D01*
X1089152Y952246D02*
Y1223264D01*
X1097280Y952246D02*
Y1223264D01*
X1095248Y952246D02*
Y1223264D01*
X1081024Y952246D02*
Y1223264D01*
X1083056Y952246D02*
Y1223264D01*
X1078992Y952246D02*
Y1223264D01*
X1087120Y952246D02*
Y1223264D01*
X1085088Y952246D02*
Y1223264D01*
X1111504Y952246D02*
Y1223264D01*
X1113536Y952246D02*
Y1223264D01*
X1109472Y952246D02*
Y1223264D01*
X1117600Y952246D02*
Y1223264D01*
X1115568Y952246D02*
Y1223264D01*
X1101344Y952246D02*
Y1223264D01*
X1103376Y952246D02*
Y1223264D01*
X1099312Y952246D02*
Y1223264D01*
X1107440Y952246D02*
Y1223264D01*
X1105408Y952246D02*
Y1223264D01*
X1026160Y952246D02*
Y1223264D01*
X1052576Y952246D02*
Y1223264D01*
X1024128Y952246D02*
Y1223264D01*
X1056640Y952246D02*
Y1223264D01*
X1054608Y952246D02*
Y1223264D01*
X1013968Y952246D02*
Y1223264D01*
X1016000Y952246D02*
Y1223264D01*
X995680Y952246D02*
Y1223264D01*
X1020064Y952246D02*
Y1223264D01*
X1018032Y952246D02*
Y1223264D01*
X1070864Y952246D02*
Y1223264D01*
X1072896Y952246D02*
Y1223264D01*
X1068832Y952246D02*
Y1223264D01*
X1076960Y952246D02*
Y1223264D01*
X1074928Y952246D02*
Y1223264D01*
X1060704Y952246D02*
Y1223264D01*
X1062736Y952246D02*
Y1223264D01*
X1058672Y952246D02*
Y1223264D01*
X1066800Y952246D02*
Y1223264D01*
X1064768Y952246D02*
Y1223264D01*
X1115568Y714069D02*
Y927354D01*
X1117600Y716101D02*
Y927354D01*
X1109472Y707973D02*
Y927354D01*
X1107440Y705941D02*
Y927354D01*
X1103376Y701877D02*
Y927354D01*
X1046480Y952246D02*
Y1223264D01*
X1048512Y952246D02*
Y1223264D01*
X1044448Y952246D02*
Y1223264D01*
X1101344Y699845D02*
Y927354D01*
X1050544Y952246D02*
Y1223264D01*
X1111504Y710005D02*
Y927354D01*
X1113536Y712037D02*
Y927354D01*
X1099312Y697291D02*
Y927354D01*
X1097280Y643711D02*
Y927354D01*
X1095248Y641679D02*
Y927354D01*
X1052576Y634567D02*
Y927354D01*
X1093216Y641096D02*
Y927354D01*
X1050544Y632535D02*
Y927354D01*
X1048512Y630503D02*
Y927354D01*
X1046480Y628471D02*
Y927354D01*
X1005840Y952246D02*
Y1223264D01*
X1007872Y952246D02*
Y1223264D01*
X1003808Y952246D02*
Y1223264D01*
X1011936Y952246D02*
Y1223264D01*
X1009904Y952246D02*
Y1223264D01*
X993648Y952246D02*
Y1223264D01*
X997712Y952246D02*
Y1223264D01*
X991616Y952246D02*
Y1223264D01*
X1001776Y952246D02*
Y1223264D01*
X999744Y952246D02*
Y1223264D01*
X1036320Y952246D02*
Y1223264D01*
X1038352Y952246D02*
Y1223264D01*
X1034288Y952246D02*
Y1223264D01*
X1042416Y952246D02*
Y1223264D01*
X1040384Y952246D02*
Y1223264D01*
X1028192Y952246D02*
Y1223264D01*
X1022096Y952246D02*
Y1223264D01*
X1032256Y952246D02*
Y1223264D01*
X1030224Y952246D02*
Y1223264D01*
X959104Y1216403D02*
Y1223264D01*
X961136Y1206500D02*
Y1223264D01*
X957072Y1220207D02*
Y1223264D01*
X948944Y1079087D02*
Y1184947D01*
X953008Y1071140D02*
Y1187988D01*
X950976Y1076236D02*
Y1186307D01*
Y1050836D02*
Y1057364D01*
X948944Y1053687D02*
Y1054513D01*
X953008Y1045740D02*
Y1062460D01*
X948944Y1028287D02*
Y1029113D01*
X946912Y1081105D02*
Y1183850D01*
X944880Y1082613D02*
Y1182978D01*
X942848Y1083748D02*
Y1182307D01*
X930656Y1085151D02*
Y1181926D01*
X928624Y1084580D02*
Y1182457D01*
X926592Y1083748D02*
Y1183176D01*
X924560Y1082613D02*
Y1184102D01*
X920496Y1184656D02*
X923534D01*
X920496Y1182624D02*
X928100D01*
X922528Y1081105D02*
Y1185261D01*
X920496Y1079087D02*
Y1186694D01*
Y1079087D02*
Y1186694D01*
X934720Y1085596D02*
Y1181386D01*
X936752Y1085486D02*
Y1181366D01*
X932688Y1085486D02*
Y1181572D01*
X940816Y1084580D02*
Y1181821D01*
X938784Y1085151D02*
Y1181510D01*
X920496Y1085088D02*
X930380D01*
X920496Y1083056D02*
X925284D01*
X920496Y1081024D02*
X922433D01*
X920496Y1053687D02*
Y1054513D01*
X983488Y952246D02*
Y1223264D01*
X985520Y952246D02*
Y1223264D01*
X981456Y952246D02*
Y1223264D01*
X989584Y952246D02*
Y1223264D01*
X987552Y952246D02*
Y1223264D01*
X973328Y952246D02*
Y1223264D01*
X975360Y952246D02*
Y1223264D01*
X971296Y952246D02*
Y1223264D01*
X979424Y952246D02*
Y1223264D01*
X977392Y952246D02*
Y1223264D01*
X963168Y952246D02*
Y1223264D01*
X965200Y952246D02*
Y1223264D01*
X961136Y952246D02*
Y1206500D01*
X969264Y952246D02*
Y1223264D01*
X967232Y952246D02*
Y1223264D01*
X955040Y952246D02*
Y1190086D01*
X959104Y952246D02*
Y1196597D01*
X957072Y952246D02*
Y1192793D01*
X953008Y1020340D02*
Y1037060D01*
X950976Y1025436D02*
Y1031964D01*
X948944Y1002887D02*
Y1003713D01*
X953008Y994940D02*
Y1011660D01*
X950976Y1000036D02*
Y1006564D01*
X920496Y1028287D02*
Y1029113D01*
Y1002887D02*
Y1003713D01*
X953008Y969540D02*
Y986260D01*
X950976Y974636D02*
Y981164D01*
X948944Y977487D02*
Y978313D01*
X953008Y952246D02*
Y960860D01*
X950976Y952246D02*
Y955764D01*
X920496Y977487D02*
Y978313D01*
Y926687D02*
Y927513D01*
Y952087D02*
Y952913D01*
X953071Y715264D02*
X1116763D01*
X953406Y713232D02*
X1114731D01*
X953516Y711200D02*
X1112699D01*
X953406Y709168D02*
X1110667D01*
X1105408Y703909D02*
Y927354D01*
X952500Y717296D02*
X1118795D01*
X953071Y707136D02*
X1108635D01*
X952500Y705104D02*
X1106603D01*
X951668Y703072D02*
X1104571D01*
X950533Y701040D02*
X1102539D01*
X953267Y688848D02*
X1097534D01*
X953267Y682752D02*
X1097534D01*
X953488Y684784D02*
X1097534D01*
X949833Y696976D02*
X1099129D01*
X951142Y694944D02*
X1098216D01*
X952119Y692912D02*
X1097701D01*
X952119Y678688D02*
X1097534D01*
X952816Y680720D02*
X1097534D01*
X953008Y893340D02*
Y910060D01*
Y842540D02*
Y884660D01*
Y918740D02*
Y927354D01*
Y791740D02*
Y808460D01*
Y817140D02*
Y833860D01*
X950976Y898436D02*
Y904964D01*
Y847636D02*
Y879564D01*
Y923836D02*
Y927354D01*
Y796836D02*
Y803364D01*
Y822236D02*
Y828764D01*
X953008Y740940D02*
Y757660D01*
Y715540D02*
Y732260D01*
Y766340D02*
Y783060D01*
X953488Y686816D02*
X1097534D01*
X953008Y690140D02*
Y706860D01*
X950976Y746036D02*
Y752564D01*
Y720636D02*
Y727164D01*
Y771436D02*
Y777964D01*
X952816Y690880D02*
X1097534D01*
X950976Y695236D02*
Y701764D01*
X1091184Y641096D02*
Y927354D01*
X1097534Y643965D02*
Y690880D01*
X1089152Y641096D02*
Y927354D01*
X1087120Y641096D02*
Y927354D01*
X1085088Y641096D02*
Y927354D01*
X949833Y674624D02*
X1097534D01*
X950533Y670560D02*
X1097534D01*
X951142Y676656D02*
X1097534D01*
X952500Y666496D02*
X1097534D01*
X951668Y668528D02*
X1097534D01*
X953516Y660400D02*
X1097534D01*
X953406Y658368D02*
X1097534D01*
X953406Y662432D02*
X1097534D01*
X1094665Y641096D02*
X1097534Y643965D01*
X1064260Y641096D02*
X1094665D01*
X953071Y656336D02*
X1097534D01*
X952500Y654304D02*
X1097534D01*
X953071Y664464D02*
X1097534D01*
X950533Y650240D02*
X1097534D01*
X951668Y652272D02*
X1097534D01*
X1076960Y641096D02*
Y927354D01*
X1078992Y641096D02*
Y927354D01*
X1074928Y641096D02*
Y927354D01*
X1083056Y641096D02*
Y927354D01*
X1081024Y641096D02*
Y927354D01*
X1066800Y641096D02*
Y927354D01*
X1068832Y641096D02*
Y927354D01*
X1064768Y641096D02*
Y927354D01*
X1072896Y641096D02*
Y927354D01*
X1070864Y641096D02*
Y927354D01*
X1060704Y640577D02*
Y927354D01*
X1062736Y641002D02*
Y927354D01*
X1058672Y639771D02*
Y927354D01*
X1056640Y638491D02*
Y927354D01*
X953008Y664740D02*
Y681460D01*
X950976Y669836D02*
Y676364D01*
X1054608Y636599D02*
Y927354D01*
X948944Y901287D02*
Y902113D01*
Y850487D02*
Y876713D01*
X942848Y855148D02*
Y872052D01*
X940816Y855980D02*
Y871220D01*
X946912Y852505D02*
Y874695D01*
X944880Y854013D02*
Y873187D01*
X948944Y825087D02*
Y825913D01*
Y774287D02*
Y775113D01*
Y799687D02*
Y800513D01*
X938784Y856551D02*
Y870649D01*
X926592Y855148D02*
Y872052D01*
X928624Y855980D02*
Y871220D01*
X924560Y854013D02*
Y873187D01*
X922528Y852505D02*
Y874695D01*
X920496Y850487D02*
Y876713D01*
Y875792D02*
X921347D01*
X920496Y873760D02*
X923718D01*
X920496Y901287D02*
Y902113D01*
Y871728D02*
X927306D01*
X920496Y850487D02*
Y876713D01*
X936752Y856886D02*
Y870314D01*
X934720Y856996D02*
Y870204D01*
X932688Y856886D02*
Y870314D01*
X930656Y856551D02*
Y870649D01*
X920496Y855472D02*
X927306D01*
X920496Y853440D02*
X923718D01*
X920496Y851408D02*
X921347D01*
X920496Y799687D02*
Y800513D01*
Y825087D02*
Y825913D01*
X949025Y699008D02*
X1100555D01*
X949025Y672592D02*
X1097534D01*
X947007Y646176D02*
X1097534D01*
X944156Y644144D02*
X1097534D01*
X949025Y648208D02*
X1097534D01*
X939060Y642112D02*
X1095681D01*
X920496Y640080D02*
X1059335D01*
X920496Y638048D02*
X1056100D01*
X920496Y636016D02*
X1054025D01*
X920496Y633984D02*
X1051993D01*
X920496Y631952D02*
X1049961D01*
X920496Y629920D02*
X1047929D01*
X948944Y723487D02*
Y724313D01*
Y698087D02*
Y698913D01*
Y748887D02*
Y749713D01*
Y672687D02*
Y673513D01*
X920496Y748887D02*
Y749713D01*
Y723487D02*
Y724313D01*
Y774287D02*
Y775113D01*
Y672687D02*
Y673513D01*
Y698087D02*
Y698913D01*
X936752Y628286D02*
Y641714D01*
X934720Y628396D02*
Y641604D01*
X932688Y628286D02*
Y641714D01*
X938784Y627951D02*
Y642049D01*
X930656Y627951D02*
Y642049D01*
X920496Y644144D02*
X925284D01*
X920496Y646176D02*
X922433D01*
X920496Y642112D02*
X930380D01*
X1172464Y624882D02*
Y652780D01*
X1170432Y623796D02*
Y653612D01*
X1168400Y622121D02*
Y654747D01*
X1166368Y620089D02*
Y656255D01*
X1161796Y627888D02*
X1205917D01*
X1164336Y618057D02*
Y658273D01*
X1162304Y616025D02*
Y661124D01*
X1161796Y615517D02*
Y662059D01*
Y625856D02*
X1177290D01*
X1161796Y623824D02*
X1170474D01*
X1161796Y621792D02*
X1168071D01*
X1161796Y615517D02*
X1168477Y622199D01*
X1161796Y619760D02*
X1166039D01*
X1161796Y617728D02*
X1164007D01*
X1135455Y603504D02*
X1136904D01*
X1133423Y601472D02*
X1136904D01*
X1133413Y599440D02*
X1136904D01*
X1132582Y600630D02*
X1136904Y604953D01*
X1135380Y595376D02*
X1136904D01*
X1135951Y593344D02*
X1136904D01*
X1135888Y593620D02*
Y603937D01*
X1135380Y583184D02*
X1136904D01*
X1135951Y585216D02*
X1136904D01*
X1134548Y597408D02*
X1136904D01*
X1133856Y598716D02*
Y601905D01*
X1134548Y581152D02*
X1136904D01*
X1133413Y579120D02*
X1136904D01*
X1134119Y568960D02*
X1136904D01*
X1133856Y569637D02*
Y579844D01*
X1134971Y564896D02*
X1136904D01*
X1134693Y566928D02*
X1136904D01*
X1131905Y577088D02*
X1136904D01*
X1130004Y575056D02*
X1136904D01*
X1131824Y573113D02*
Y576993D01*
X1133211Y570992D02*
X1136904D01*
X1131893Y573024D02*
X1136904D01*
X1153261Y513157D02*
X1162127Y504291D01*
X1152144Y396113D02*
Y514435D01*
X1150112Y395305D02*
Y516561D01*
X1149679Y516128D02*
X1151060D01*
X1147647Y514096D02*
X1152411D01*
X1137843Y504291D02*
X1150613Y517062D01*
X1148080Y396813D02*
Y514529D01*
X1146048Y397948D02*
Y512497D01*
X1158240Y399096D02*
Y508179D01*
X1160272Y399547D02*
Y506147D01*
X1145615Y512064D02*
X1154355D01*
X1156208Y398399D02*
Y510211D01*
X1154176Y397422D02*
Y512243D01*
X1141551Y508000D02*
X1158419D01*
X1139519Y505968D02*
X1160451D01*
X1143583Y510032D02*
X1156387D01*
X1144016Y398780D02*
Y510465D01*
X1141984Y399351D02*
Y508433D01*
X1134693Y560832D02*
X1136904D01*
X1134119Y558800D02*
X1136904D01*
X1134971Y562864D02*
X1136904D01*
Y538555D02*
Y604953D01*
X1135888Y542820D02*
Y584940D01*
X1133211Y556768D02*
X1136904D01*
X1131893Y554736D02*
X1136904D01*
X1133856Y547916D02*
Y558123D01*
X1135380Y544576D02*
X1136904D01*
X1135951Y542544D02*
X1136904D01*
X1134548Y546608D02*
X1136904D01*
X1139952Y399686D02*
Y506401D01*
X1137920Y399796D02*
Y504369D01*
X1130004Y552704D02*
X1136904D01*
X1131824Y550767D02*
Y554647D01*
X1133413Y548640D02*
X1136904D01*
X1131905Y550672D02*
X1136904D01*
X1041325Y623316D02*
X1055447Y637439D01*
X1039431Y593344D02*
X1046734D01*
X1039766Y591312D02*
X1046734D01*
X1039766Y587248D02*
X1046734D01*
X1039876Y589280D02*
X1046734D01*
X1038860Y595376D02*
X1046734D01*
X1039431Y585216D02*
X1046734D01*
X1038028Y597408D02*
X1046734D01*
X1038028Y581152D02*
X1046734D01*
X1038860Y583184D02*
X1046734D01*
X1036691Y570992D02*
X1046734D01*
X1037599Y558800D02*
X1046734D01*
X1036893Y579120D02*
X1046734D01*
X1036472Y546608D02*
X1046734D01*
X1036691Y556768D02*
X1046734D01*
X1033484Y575056D02*
X1046734D01*
X1035373Y573024D02*
X1046734D01*
X1035385Y577088D02*
X1046734D01*
X1033484Y552704D02*
X1046734D01*
X1035373Y554736D02*
X1046734D01*
X1042416Y624407D02*
Y927354D01*
X1044448Y626439D02*
Y927354D01*
X1040384Y623316D02*
Y927354D01*
X1037502Y598424D02*
X1046480D01*
X939060Y627888D02*
X1045897D01*
X944156Y625856D02*
X1043865D01*
X947007Y623824D02*
X1041833D01*
X985520Y623316D02*
X1041325D01*
X1038173Y566928D02*
X1046734D01*
X1038452Y564896D02*
X1046734D01*
X1037599Y568960D02*
X1046734D01*
X1038173Y560832D02*
X1046734D01*
X1038452Y562864D02*
X1046734D01*
X1035213Y548640D02*
X1046734D01*
X1033503Y550672D02*
X1046734D01*
X1059434Y520700D02*
Y522403D01*
X1060704Y399768D02*
Y515223D01*
X1055191Y518160D02*
X1059696D01*
X1053159Y516128D02*
X1060304D01*
X1057223Y520192D02*
X1059444D01*
X1041323Y504291D02*
X1059434Y522403D01*
X1058672Y399547D02*
Y521641D01*
X1063091Y511887D02*
X1070687Y504291D01*
X1064768Y399547D02*
Y510211D01*
X1062736Y399768D02*
Y512257D01*
X1068832Y398399D02*
Y506147D01*
X1066800Y399096D02*
Y508179D01*
X1049095Y512064D02*
X1062918D01*
X1047063Y510032D02*
X1064947D01*
X1051127Y514096D02*
X1061331D01*
X1042999Y505968D02*
X1069011D01*
X1045031Y508000D02*
X1066979D01*
X1046734Y544905D02*
Y598427D01*
X1046480Y544651D02*
Y598424D01*
X1044448Y542619D02*
Y598424D01*
X1042416Y540587D02*
Y598424D01*
X1040384Y538555D02*
Y598424D01*
X1037384Y544576D02*
X1046405D01*
X1038005Y542544D02*
X1044373D01*
X1038367Y540512D02*
X1042341D01*
X1038379Y536550D02*
X1046734Y544905D01*
X1056640Y399096D02*
Y519609D01*
X1054608Y398399D02*
Y517577D01*
X1052576Y397422D02*
Y515545D01*
X1050544Y396113D02*
Y513513D01*
X1048512Y395305D02*
Y511481D01*
X1042416Y398780D02*
Y505385D01*
X1038486Y538480D02*
X1040309D01*
X1046480Y396813D02*
Y509449D01*
X1044448Y397948D02*
Y507417D01*
X1168400Y498681D02*
Y500896D01*
X1166368Y495094D02*
Y501504D01*
X1131905Y499872D02*
X1169335D01*
X1133413Y497840D02*
X1167827D01*
X1134507Y501904D02*
X1165463D01*
X1134548Y495808D02*
X1166692D01*
X1135380Y493776D02*
X1165860D01*
X1135951Y491744D02*
X1165289D01*
X1135951Y483616D02*
X1165289D01*
X1136286Y489712D02*
X1164954D01*
X1134548Y479552D02*
X1166692D01*
X1135380Y481584D02*
X1165860D01*
X1131905Y475488D02*
X1169335D01*
X1129887Y473456D02*
X1171353D01*
X1133413Y477520D02*
X1167827D01*
X1121940Y469392D02*
X1179300D01*
X1127036Y471424D02*
X1174204D01*
X1137473Y503936D02*
X1162497D01*
X1135888Y492020D02*
Y502694D01*
X1133856Y497116D02*
Y501608D01*
X1164336Y399768D02*
Y502531D01*
X1162304Y399768D02*
Y504118D01*
X1131824Y499967D02*
Y500793D01*
X1136396Y487680D02*
X1164844D01*
X1136286Y485648D02*
X1164954D01*
X1111504Y399768D02*
Y469900D01*
X1135888Y399686D02*
Y483340D01*
X1113536Y399768D02*
Y469329D01*
X1101636Y471424D02*
X1108164D01*
X1096540Y469392D02*
X1113260D01*
X1104487Y473456D02*
X1105313D01*
X1087120Y399796D02*
Y469584D01*
X1166368Y399547D02*
Y480266D01*
X1168400Y399096D02*
Y476679D01*
X1133856Y399351D02*
Y478244D01*
X1172464Y397422D02*
Y472567D01*
X1170432Y398399D02*
Y474307D01*
X1131824Y398780D02*
Y475393D01*
X1129792Y397948D02*
Y473375D01*
X1127760Y396813D02*
Y471867D01*
X1125728Y395305D02*
Y470732D01*
X1123696Y396113D02*
Y469900D01*
X1145334Y398272D02*
X1155906D01*
X1170734D02*
X1181306D01*
X1148922Y396240D02*
X1152318D01*
X1150207Y366776D02*
X1151033D01*
X1119934Y398272D02*
X1130506D01*
X1123521Y396240D02*
X1126918D01*
X1124807Y366776D02*
X1125633D01*
X1107440Y399096D02*
Y471867D01*
X1109472Y399547D02*
Y470732D01*
X1105408Y398399D02*
Y473375D01*
X1121664Y397422D02*
Y469329D01*
X1103376Y397422D02*
Y472567D01*
X1097280Y396813D02*
Y469584D01*
X1095248Y397948D02*
Y469133D01*
X1085088Y399686D02*
Y470281D01*
X1101344Y396113D02*
Y471258D01*
X1099312Y395305D02*
Y470281D01*
X1119632Y398399D02*
Y468994D01*
X1117600Y399096D02*
Y468884D01*
X1115568Y399547D02*
Y468994D01*
X1098121Y396240D02*
X1101518D01*
X1099407Y366776D02*
X1100233D01*
X1091184Y399351D02*
Y468912D01*
X1089152Y399686D02*
Y469133D01*
X1094534Y398272D02*
X1105106D01*
X1093216Y398780D02*
Y468912D01*
X1035385Y499872D02*
X1077895D01*
X1035385Y475488D02*
X1077895D01*
X1030516Y471424D02*
X1082764D01*
X1025420Y469392D02*
X1087860D01*
X1033367Y473456D02*
X1079913D01*
X951668Y465328D02*
X1409906D01*
X950533Y467360D02*
X1406319D01*
X953406Y459232D02*
X1431544D01*
X953516Y457200D02*
X1431544D01*
X953071Y461264D02*
X1431544D01*
X953071Y453136D02*
X1431544D01*
X953406Y455168D02*
X1431544D01*
X952500Y451104D02*
X1431544D01*
X951668Y449072D02*
X1431544D01*
X952500Y463296D02*
X1431544D01*
X949025Y445008D02*
X1431544D01*
X950533Y447040D02*
X1431544D01*
X1076960Y498681D02*
Y500896D01*
X1038028Y495808D02*
X1075252D01*
X1040953Y503936D02*
X1071057D01*
X1074928Y495094D02*
Y501504D01*
X1038860Y493776D02*
X1074420D01*
X1037987Y501904D02*
X1074023D01*
X1036893Y497840D02*
X1076387D01*
X1039431Y491744D02*
X1073849D01*
X1039766Y489712D02*
X1073514D01*
X1039876Y487680D02*
X1073404D01*
X1039431Y483616D02*
X1073849D01*
X1039766Y485648D02*
X1073514D01*
X1038028Y479552D02*
X1075252D01*
X1038860Y481584D02*
X1074420D01*
X1036893Y477520D02*
X1076387D01*
X952816Y436880D02*
X1399538D01*
X953267Y434848D02*
X1397716D01*
X953488Y432816D02*
X1396244D01*
X953488Y430784D02*
X1395053D01*
X953267Y428752D02*
X1394100D01*
X949833Y442976D02*
X1409430D01*
X951142Y440944D02*
X1404864D01*
X952119Y438912D02*
X1401834D01*
X952816Y426720D02*
X1393356D01*
X952119Y424688D02*
X1392803D01*
X951142Y422656D02*
X1392427D01*
X942738Y404368D02*
X1396941D01*
X945722Y416560D02*
X1392303D01*
X949565Y400304D02*
X1400616D01*
X946758Y402336D02*
X1398577D01*
X920496Y412496D02*
X1393057D01*
X920496Y410464D02*
X1393703D01*
X942134Y414528D02*
X1392593D01*
X920496Y406400D02*
X1395617D01*
X920496Y408432D02*
X1394549D01*
X1081024Y398780D02*
Y472567D01*
X1083056Y399351D02*
Y471258D01*
X1078992Y397948D02*
Y474307D01*
X1076960Y396813D02*
Y476679D01*
X1074928Y395305D02*
Y480266D01*
X949833Y420624D02*
X1392220D01*
X948093Y418592D02*
X1392179D01*
X1040384Y399351D02*
Y503441D01*
X1072896Y396113D02*
Y502531D01*
X1070864Y397422D02*
Y504118D01*
X1069134Y398272D02*
X1079706D01*
X1072721Y396240D02*
X1076118D01*
X1074007Y366776D02*
X1074833D01*
X1043734Y398272D02*
X1054306D01*
X1047321Y396240D02*
X1050719D01*
X1048607Y366776D02*
X1049433D01*
X1011936Y623316D02*
Y927354D01*
X1013968Y623316D02*
Y927354D01*
X1009904Y623316D02*
Y927354D01*
X1018032Y623316D02*
Y927354D01*
X1016000Y623316D02*
Y927354D01*
X1001776Y623316D02*
Y927354D01*
X1003808Y623316D02*
Y927354D01*
X999744Y623316D02*
Y927354D01*
X1007872Y623316D02*
Y927354D01*
X1005840Y623316D02*
Y927354D01*
X1032256Y623316D02*
Y927354D01*
X1034288Y623316D02*
Y927354D01*
X1030224Y623316D02*
Y927354D01*
X1038352Y623316D02*
Y927354D01*
X1036320Y623316D02*
Y927354D01*
X1022096Y623316D02*
Y927354D01*
X1024128Y623316D02*
Y927354D01*
X1020064Y623316D02*
Y927354D01*
X1028192Y623316D02*
Y927354D01*
X1026160Y623316D02*
Y927354D01*
X991616Y623316D02*
Y927354D01*
X993648Y623316D02*
Y927354D01*
X989584Y623316D02*
Y927354D01*
X997712Y623316D02*
Y927354D01*
X995680Y623316D02*
Y927354D01*
X985520Y623316D02*
Y927354D01*
X987552Y623316D02*
Y927354D01*
X983488Y623149D02*
Y927354D01*
X981456Y622634D02*
Y927354D01*
X971296Y614247D02*
Y927354D01*
X979424Y621721D02*
Y927354D01*
X977392Y620295D02*
Y927354D01*
X975360Y618311D02*
Y927354D01*
X969264Y612215D02*
Y927354D01*
X973328Y616279D02*
Y927354D01*
X953406Y611632D02*
X968681D01*
X967232Y610183D02*
Y927354D01*
X953516Y609600D02*
X966649D01*
X1038352Y596694D02*
Y598424D01*
Y565880D02*
Y581866D01*
X1036320Y571641D02*
Y578279D01*
X1038352Y540636D02*
Y561880D01*
X1036320Y546889D02*
Y556119D01*
X958951Y601903D02*
X976707Y619659D01*
X1034288Y574282D02*
Y575907D01*
X965200Y608151D02*
Y927354D01*
X980186Y549121D02*
Y556345D01*
X981456Y550767D02*
Y554496D01*
X1034288Y549817D02*
Y553478D01*
X980186Y552704D02*
X983156D01*
X980186Y550672D02*
X981375D01*
X980186Y554736D02*
X981267D01*
X958951Y522047D02*
X976707Y504291D01*
X961136Y604087D02*
Y927354D01*
X963168Y606119D02*
Y927354D01*
X959104Y602055D02*
Y927354D01*
X957072Y599501D02*
Y927354D01*
X955294Y530860D02*
Y593090D01*
X953406Y607568D02*
X964617D01*
X953488Y585216D02*
X955294D01*
X955040Y393892D02*
Y927354D01*
X953516Y558800D02*
X955294D01*
X953488Y583184D02*
X955294D01*
X957072Y389621D02*
Y524449D01*
X953406Y556768D02*
X955294D01*
X953406Y560832D02*
X955294D01*
X953488Y532384D02*
X955294D01*
X953488Y534416D02*
X955294D01*
X952500Y615696D02*
X972745D01*
X953071Y613664D02*
X970713D01*
X953008Y613940D02*
Y656060D01*
X953071Y605536D02*
X962585D01*
X952500Y603504D02*
X960553D01*
X949025Y621792D02*
X979552D01*
X950533Y619760D02*
X976810D01*
X951668Y617728D02*
X974777D01*
X951668Y601472D02*
X958540D01*
X952119Y591312D02*
X955294D01*
X952816Y589280D02*
X955294D01*
X953267Y581152D02*
X955294D01*
X953267Y587248D02*
X955294D01*
X950533Y599440D02*
X957036D01*
X949025Y597408D02*
X956067D01*
X949833Y595376D02*
X955506D01*
X951142Y593344D02*
X955297D01*
X946912Y623905D02*
Y646095D01*
X944880Y625413D02*
Y644587D01*
X942848Y626548D02*
Y643452D01*
X950976Y619036D02*
Y650964D01*
X948944Y621887D02*
Y648113D01*
X924560Y625413D02*
Y644587D01*
X926592Y626548D02*
Y643452D01*
X922528Y623905D02*
Y646095D01*
X920496Y621887D02*
Y648113D01*
Y621887D02*
Y648113D01*
X940816Y627380D02*
Y642620D01*
X948944Y596487D02*
Y597313D01*
X928624Y627380D02*
Y642620D01*
X953008Y588540D02*
Y605260D01*
X950976Y593636D02*
Y600164D01*
X920496Y627888D02*
X930380D01*
X920496Y625856D02*
X925284D01*
X920496Y623824D02*
X922433D01*
X920496Y596487D02*
Y597313D01*
X952119Y577088D02*
X955294D01*
X952500Y564896D02*
X955294D01*
X952816Y579120D02*
X955294D01*
X953071Y554736D02*
X955294D01*
X953071Y562864D02*
X955294D01*
X949833Y573024D02*
X955294D01*
X949025Y570992D02*
X955294D01*
X951142Y575056D02*
X955294D01*
X951668Y566928D02*
X955294D01*
X950533Y568960D02*
X955294D01*
X951668Y550672D02*
X955294D01*
X953267Y530352D02*
X955304D01*
X952500Y552704D02*
X955294D01*
X952119Y526288D02*
X956164D01*
X952816Y528320D02*
X955556D01*
X949025Y546608D02*
X955294D01*
X949833Y544576D02*
X955294D01*
X950533Y548640D02*
X955294D01*
X949833Y522224D02*
X958778D01*
X951142Y524256D02*
X957191D01*
X953008Y563140D02*
Y579860D01*
X950976Y568236D02*
Y574764D01*
X948944Y571087D02*
Y571913D01*
X953008Y537740D02*
Y554460D01*
X950976Y542836D02*
Y549364D01*
X920496Y571087D02*
Y571913D01*
X948944Y545687D02*
Y546513D01*
X952119Y540512D02*
X955294D01*
X952816Y538480D02*
X955294D01*
X951142Y542544D02*
X955294D01*
X953267Y536448D02*
X955294D01*
X953008Y512340D02*
Y529060D01*
X920496Y545687D02*
Y546513D01*
X950976Y517436D02*
Y523964D01*
X1038352Y495094D02*
Y502090D01*
X1036320Y498681D02*
Y501231D01*
X1038352Y399686D02*
Y480266D01*
X1036320Y399796D02*
Y476679D01*
X1007967Y473456D02*
X1008793D01*
X1009904Y399768D02*
Y472567D01*
X1034288Y399686D02*
Y474307D01*
X1032256Y399351D02*
Y472567D01*
X1030224Y398780D02*
Y471258D01*
X1018334Y398272D02*
X1028906D01*
X1018032Y398399D02*
Y469133D01*
X1028192Y397948D02*
Y470281D01*
X1020064Y397422D02*
Y468912D01*
X1011936Y399768D02*
Y471258D01*
X1000020Y469392D02*
X1016740D01*
X1005116Y471424D02*
X1011644D01*
X1016000Y399096D02*
Y469584D01*
X1013968Y399547D02*
Y470281D01*
X981456Y499967D02*
Y500793D01*
X979424Y497116D02*
Y502229D01*
X1007872Y399547D02*
Y473375D01*
X981456Y399351D02*
Y475393D01*
X977392Y492020D02*
Y503655D01*
X979424Y398780D02*
Y478244D01*
X977392Y397948D02*
Y483340D01*
X1005840Y399096D02*
Y471867D01*
X1003808Y398399D02*
Y470732D01*
X992934Y398272D02*
X1003506D01*
X1001776Y397422D02*
Y469900D01*
X993648Y397948D02*
Y468994D01*
X985520Y399796D02*
Y471867D01*
X987552Y399686D02*
Y470732D01*
X983488Y399686D02*
Y473375D01*
X991616Y398780D02*
Y469329D01*
X989584Y399351D02*
Y469900D01*
X1026160Y396813D02*
Y469584D01*
X1022096Y396113D02*
Y468912D01*
X999744Y396113D02*
Y469329D01*
X1024128Y395305D02*
Y469133D01*
X997712Y395305D02*
Y468994D01*
X995680Y396813D02*
Y468884D01*
X975360Y396813D02*
Y505639D01*
X973328Y395305D02*
Y507671D01*
X971296Y393287D02*
Y509703D01*
X1021921Y396240D02*
X1025319D01*
X1023207Y366776D02*
X1024033D01*
X996522Y396240D02*
X999919D01*
X997807Y366776D02*
X998633D01*
X971296D02*
Y368713D01*
X955976Y369824D02*
X970407D01*
X954848Y367792D02*
X972147D01*
X955976Y392176D02*
X970407D01*
X969264Y366776D02*
Y371564D01*
X967232Y385340D02*
Y513767D01*
X969264Y390436D02*
Y511735D01*
X965200Y366776D02*
Y515799D01*
X963168Y366776D02*
Y517831D01*
X961136Y366776D02*
Y519863D01*
X956874Y390144D02*
X969098D01*
X957569Y388112D02*
X968121D01*
X958077Y386080D02*
X967423D01*
X958411Y384048D02*
X966973D01*
X959104Y366776D02*
Y521895D01*
X958576Y379984D02*
X966751D01*
X958411Y377952D02*
X966973D01*
X958576Y382016D02*
X966751D01*
X958077Y375920D02*
X967423D01*
X967232Y366776D02*
Y376660D01*
X956874Y371856D02*
X969098D01*
X957569Y373888D02*
X968121D01*
X957072Y366776D02*
Y372379D01*
X955040Y366776D02*
Y368108D01*
X953406Y505968D02*
X975031D01*
X953071Y503936D02*
X977077D01*
X953516Y508000D02*
X972999D01*
X952500Y501904D02*
X980043D01*
X952119Y489712D02*
X976994D01*
X951668Y499872D02*
X981375D01*
X950533Y497840D02*
X979867D01*
X949025Y495808D02*
X978732D01*
X949833Y493776D02*
X977900D01*
X951142Y491744D02*
X977329D01*
X953267Y485648D02*
X976994D01*
X953488Y483616D02*
X977329D01*
X952816Y487680D02*
X976884D01*
X953267Y479552D02*
X978732D01*
X953488Y481584D02*
X977900D01*
X952119Y475488D02*
X981375D01*
X951142Y473456D02*
X983393D01*
X952816Y477520D02*
X979867D01*
X949025Y469392D02*
X991340D01*
X949833Y471424D02*
X986244D01*
X951668Y516128D02*
X964871D01*
X952500Y514096D02*
X966903D01*
X950533Y518160D02*
X962839D01*
X953406Y510032D02*
X970967D01*
X953071Y512064D02*
X968935D01*
X948944Y520287D02*
Y521113D01*
X949025Y520192D02*
X960807D01*
X920496Y520287D02*
Y521113D01*
X953008Y486940D02*
Y503660D01*
X950976Y492036D02*
Y498564D01*
X948944Y494887D02*
Y495713D01*
X950976Y466636D02*
Y473164D01*
X948944Y469487D02*
Y470313D01*
X920496Y494887D02*
Y495713D01*
Y469487D02*
Y470313D01*
X953008Y461540D02*
Y478260D01*
Y436140D02*
Y452860D01*
X950976Y441236D02*
Y447764D01*
X953008Y396805D02*
Y427460D01*
X950976Y399032D02*
Y422364D01*
X948944Y444087D02*
Y444913D01*
X953452Y396240D02*
X974519D01*
X954848Y394208D02*
X972147D01*
X954186Y366776D02*
X973233D01*
X948944Y400806D02*
Y419513D01*
X951726Y398272D02*
X978106D01*
X946912Y402239D02*
Y417495D01*
X926592Y405193D02*
Y414852D01*
X942848Y404324D02*
Y414852D01*
X924560Y404522D02*
Y415987D01*
X944880Y403398D02*
Y415987D01*
X922528Y403650D02*
Y417495D01*
X920496Y418592D02*
X921347D01*
X920496Y416560D02*
X923718D01*
X920496Y444087D02*
Y444913D01*
Y402553D02*
Y419513D01*
Y402553D02*
Y419513D01*
X936752Y405928D02*
Y413114D01*
X934720Y406114D02*
Y413004D01*
X932688Y406134D02*
Y413114D01*
X940816Y405043D02*
Y414020D01*
X938784Y405574D02*
Y413449D01*
X930656Y405990D02*
Y413449D01*
X920496Y414528D02*
X927306D01*
X928624Y405679D02*
Y414020D01*
X920496Y404368D02*
X924163D01*
D15*
X1280160Y767080D02*
X1287660Y759580D01*
X1403350Y787400D02*
X1417320D01*
X1394460Y796290D02*
X1403350Y787400D01*
X1394460Y796290D02*
Y816610D01*
X1380490Y830580D02*
X1394460Y816610D01*
X1275080Y830580D02*
X1380490D01*
X1408430Y762000D02*
X1417320D01*
X1391920Y745490D02*
X1408430Y762000D01*
X1316990Y745490D02*
X1391920D01*
X1305560Y756920D02*
X1316990Y745490D01*
X1305560Y756920D02*
Y767080D01*
X1412240Y1054100D02*
X1417320D01*
X1395730Y1037590D02*
X1412240Y1054100D01*
X1395730Y1019810D02*
Y1037590D01*
X1333500Y957580D02*
X1395730Y1019810D01*
X1333500Y947420D02*
Y957580D01*
X1309370Y923290D02*
X1333500Y947420D01*
X1343660Y955040D02*
X1417320Y1028700D01*
X1343660Y943610D02*
Y955040D01*
X1311910Y911860D02*
X1343660Y943610D01*
X1021080Y513080D02*
X1032510D01*
X1313180Y899160D02*
X1417320Y1003300D01*
X1071880Y520700D02*
X1079500Y513080D01*
X1092200D01*
X1409700Y977900D02*
X1417320D01*
X1320800Y889000D02*
X1409700Y977900D01*
X1117600Y513080D02*
X1129030D01*
X1399540Y952500D02*
X1417320D01*
X1324610Y877570D02*
X1399540Y952500D01*
X1162050Y521970D02*
X1170940Y513080D01*
X1183640D01*
X1391920Y927100D02*
X1417320D01*
X1330960Y866140D02*
X1391920Y927100D01*
X1209040Y513080D02*
X1221740D01*
X1254760Y843280D02*
X1264920Y853440D01*
X1254760Y523240D02*
Y843280D01*
Y523240D02*
X1264920Y513080D01*
X1275080D01*
X1287660Y656710D02*
Y759580D01*
Y656710D02*
X1300480Y643890D01*
Y589280D02*
Y643890D01*
X1367790Y889000D02*
X1417320D01*
X1264920Y853440D02*
X1332230D01*
X1367790Y889000D01*
X1347470Y783590D02*
Y816610D01*
X1330960Y767080D02*
X1347470Y783590D01*
X1259840Y866140D02*
X1330960D01*
X1243330Y849630D02*
X1259840Y866140D01*
X1243330Y534670D02*
Y849630D01*
X1221740Y513080D02*
X1243330Y534670D01*
X1252220Y877570D02*
X1324610D01*
X1228090Y853440D02*
X1252220Y877570D01*
X1228090Y632460D02*
Y853440D01*
X1209040Y613410D02*
X1228090Y632460D01*
X1177290Y613410D02*
X1209040D01*
X1162050Y521970D02*
Y598170D01*
X1177290Y613410D01*
X1244600Y889000D02*
X1320800D01*
X1149350Y533400D02*
Y671830D01*
X1129030Y513080D02*
X1149350Y533400D01*
X1211580Y855980D02*
X1244600Y889000D01*
X1235710Y899160D02*
X1313180D01*
X1195070Y858520D02*
X1235710Y899160D01*
X1195070Y735330D02*
Y858520D01*
X1135380Y675640D02*
X1195070Y735330D01*
X1135380Y621030D02*
Y675640D01*
X1122680Y608330D02*
X1135380Y621030D01*
X1085850Y608330D02*
X1122680D01*
X1071880Y520700D02*
Y594360D01*
X1085850Y608330D01*
X1149350Y671830D02*
X1211580Y734060D01*
Y855980D01*
X1228090Y911860D02*
X1311910D01*
X1182370Y742950D02*
Y866140D01*
X1122680Y683260D02*
X1182370Y742950D01*
X1122680Y631190D02*
Y683260D01*
X1074420Y617220D02*
X1108710D01*
X1059180Y601980D02*
X1074420Y617220D01*
X1059180Y539750D02*
Y601980D01*
X1032510Y513080D02*
X1059180Y539750D01*
X1108710Y617220D02*
X1122680Y631190D01*
X1182370Y866140D02*
X1228090Y911860D01*
X1219200Y923290D02*
X1309370D01*
X1172210Y753110D02*
Y876300D01*
X1109980Y690880D02*
X1172210Y753110D01*
X1109980Y638810D02*
Y690880D01*
X1099820Y628650D02*
X1109980Y638810D01*
X1064260Y628650D02*
X1099820D01*
X1046480Y610870D02*
X1064260Y628650D01*
X985520Y610870D02*
X1046480D01*
X967740Y593090D02*
X985520Y610870D01*
X1172210Y876300D02*
X1219200Y923290D01*
X967740Y530860D02*
Y593090D01*
Y530860D02*
X985520Y513080D01*
X995680D01*
X922020Y382270D02*
X923290Y381000D01*
X934720Y914400D02*
Y939800D01*
X1301750D01*
X1385570Y1023620D01*
Y1047750D01*
X1417320Y1079500D01*
X1300480Y513080D02*
X1314450D01*
X1322070Y520700D01*
Y618490D01*
X1379220Y675640D01*
X1410970D01*
X1433830Y698500D01*
Y847090D01*
X1417320Y863600D02*
X1433830Y847090D01*
D16*
X995680Y589280D02*
D03*
X1092200D02*
D03*
X1275080D02*
D03*
X1183640D02*
D03*
D17*
X1021080D02*
D03*
X995680Y538480D02*
D03*
Y513080D02*
D03*
X1021080D02*
D03*
X995680Y487680D02*
D03*
X1021080D02*
D03*
X1117600Y589280D02*
D03*
X1092200Y538480D02*
D03*
X1117600D02*
D03*
X1092200Y513080D02*
D03*
X1117600D02*
D03*
X1092200Y487680D02*
D03*
X1117600D02*
D03*
X1300480Y589280D02*
D03*
X1275080Y538480D02*
D03*
X1300480D02*
D03*
X1275080Y513080D02*
D03*
X1300480D02*
D03*
X1275080Y487680D02*
D03*
X1300480D02*
D03*
X1209040Y589280D02*
D03*
X1183640Y538480D02*
D03*
Y513080D02*
D03*
Y487680D02*
D03*
X1209040D02*
D03*
X1330960Y767080D02*
D03*
X1305560D02*
D03*
X1178560Y670560D02*
D03*
X1325880D02*
D03*
X934720Y1066800D02*
D03*
Y1041400D02*
D03*
Y1016000D02*
D03*
Y990600D02*
D03*
Y965200D02*
D03*
Y939800D02*
D03*
Y914400D02*
D03*
Y889000D02*
D03*
Y838200D02*
D03*
Y812800D02*
D03*
Y787400D02*
D03*
Y762000D02*
D03*
Y736600D02*
D03*
Y711200D02*
D03*
Y685800D02*
D03*
Y660400D02*
D03*
Y609600D02*
D03*
Y584200D02*
D03*
Y558800D02*
D03*
Y533400D02*
D03*
Y508000D02*
D03*
Y482600D02*
D03*
Y457200D02*
D03*
Y431800D02*
D03*
X985520Y381000D02*
D03*
X1010920D02*
D03*
X1036320D02*
D03*
X1061720D02*
D03*
X1087120D02*
D03*
X1112520D02*
D03*
X1137920D02*
D03*
X1163320D02*
D03*
X1188720D02*
D03*
X1214120D02*
D03*
X1239520D02*
D03*
X1264920D02*
D03*
X1290320D02*
D03*
X1315720D02*
D03*
X1341120D02*
D03*
X1366520D02*
D03*
X1391920D02*
D03*
X1417320D02*
D03*
Y482600D02*
D03*
Y508000D02*
D03*
Y533400D02*
D03*
Y558800D02*
D03*
Y584200D02*
D03*
Y609600D02*
D03*
Y635000D02*
D03*
Y660400D02*
D03*
Y711200D02*
D03*
Y736600D02*
D03*
Y762000D02*
D03*
Y787400D02*
D03*
Y812800D02*
D03*
Y838200D02*
D03*
Y863600D02*
D03*
Y889000D02*
D03*
Y927100D02*
D03*
Y952500D02*
D03*
Y977900D02*
D03*
Y1003300D02*
D03*
Y1028700D02*
D03*
Y1054100D02*
D03*
Y1079500D02*
D03*
Y1104900D02*
D03*
D18*
X995680Y563880D02*
D03*
D19*
X1021080D02*
D03*
X1092200D02*
D03*
X1117600D02*
D03*
X1275080D02*
D03*
X1300480D02*
D03*
X1183640D02*
D03*
X1209040D02*
D03*
D20*
X1021080Y538480D02*
D03*
X1209040D02*
D03*
Y513080D02*
D03*
D21*
X1280160Y767080D02*
D03*
X1203960Y670560D02*
D03*
X1351280D02*
D03*
D22*
X1300480D02*
D03*
X1275080D02*
D03*
D23*
X1289939Y1198880D02*
D03*
X1341501D02*
D03*
D24*
X933450Y381000D02*
D03*
X1417320Y419100D02*
D03*
Y1187450D02*
D03*
X935990Y1206500D02*
D03*
D25*
X1275080Y830580D02*
D03*
X1347470Y816610D02*
D03*
M02*
