M48
;Layer_Color=9474304
;FILE_FORMAT=4:4
METRIC,LZ
;TYPE=PLATED
T1F00S00C0.7112
T2F00S00C0.9000
T3F00S00C1.5000
T4F00S00C3.0480
%
T01
X0127508Y0083058
X0134747Y0081661
T02
X0098552Y00381
X0101092
X0103632
X0106172
X0108712
X0111252
X0113792
X0116332
X0118872
X0121412
X0123952
X0126492
X0129032
X0131572
X0134112
X0136652
X0139192
X0141732
Y004826
Y00508
Y005334
Y005588
Y005842
Y006096
Y00635
Y006604
Y007112
Y007366
Y00762
Y007874
X0133096Y0076708
X0130556
X0128016
X0127508Y0067056
X0130048
X0132588
X0135128
X0130048Y0058928
X0127508
Y0056388
X0130048
Y0053848
X0127508
Y0051308
X0130048
Y0048768
X0127508
X0120904
Y0051308
Y0053848
Y0056388
Y0058928
X0120396Y0067056
X0117856
X0118364Y0058928
Y0056388
Y0053848
Y0051308
Y0048768
X011176
Y0051308
Y0053848
Y0056388
Y0058928
X010922
Y0056388
Y0053848
Y0051308
Y0048768
X0102108
Y0051308
Y0053848
Y0056388
Y0058928
X0099568
Y0056388
Y0053848
Y0051308
Y0048768
X0093472Y004826
Y00508
Y005334
Y005588
Y005842
Y006096
Y006604
Y006858
Y007112
Y007366
Y00762
Y007874
Y004572
Y004318
Y008128
Y008382
Y00889
Y009144
Y009398
Y009652
Y009906
Y01016
Y010414
Y010668
X0141732Y010541
Y010287
Y010033
Y009779
Y009525
Y009271
Y00889
Y008636
Y008382
Y008128
Y010795
Y011049
T03
X01289939Y0119888
X01341501
T04
X0093345Y00381
X0141732Y004191
Y0118745
X0093599Y012065
M30
