M48
;Layer_Color=9474304
;FILE_FORMAT=4:4
METRIC,LZ
;TYPE=PLATED
T1F00S00C0.7112
T2F00S00C0.7620
T3F00S00C1.0160
T4F00S00C1.1430
T5F00S00C1.2000
%
T01
X01227074Y00437388
X0122682Y00490728
Y00518414
X01379474Y00511048
X0137922Y00462534
X01378712Y00437388
X0126111Y0066675
X0120015Y0066548
X0107315Y0070993
X0105029Y0069977
X0102235Y0069469
X00921512Y00680974
X00945642Y0075438
X0089408Y0075565
X0082296
Y0073025
Y0070485
Y0067945
X00813308Y00517906
X0086741Y00533146
X0089281
Y00503682
X00867537Y00502031
X0086741Y00436118
X0091821Y00422402
X0094361Y00462788
Y00531368
X0104521Y00531114
X01087882Y00421894
X01176274Y00436118
Y00505714
X0109855Y0079248
X00771144Y0047625
X0098425Y0085471
X0112395Y0080645
X0114935Y0082169
X01266952Y00829818
X0133985Y0083185
X0133858Y0085725
X01322578Y00927862
X0125222Y0100203
X0122682Y0100076
T02
X01098296Y0055245
T03
X01327658Y00576072
T04
X0122682Y0040259
X0127762
X0132842
X0137922
Y0054737
X0132842
X0127762
X0122682
X0120015Y0073025
X0136525
Y0070485
Y0067945
Y0075565
Y0078105
X0117475Y0073025
X0114935
X0112395
X0109855
X0107315
X0104775
X0102235
X0101219Y0066675
X0103759
Y0064008
Y0061595
X0101219
Y0063881
X0098679
Y0061595
X0096139
X0093599
X0091059
X0088519
X0085979
Y0064135
X0088519
X0091059
X0093599
X0098679Y0066675
X0106934
X0109474
X0112014
Y0064008
Y0061595
X0114554
X0109474
Y0063881
X0106934
Y0061595
X0107061Y0055245
X0104521
X0101981
X0099441
X0096901
X0094361
X0091821
X0089281
X0086741
X0084201
X0081661
X0079375Y0067945
Y0070485
Y0073025
Y0075565
X0084455
X0086995
Y0078105
X0089535
X0092075
X0094615
X0097155
X0084455
Y0073025
X0086995
X0084455Y0070485
Y0067945
X0084201Y0040005
X0086741
X0089281
X0091821
X0094361
X0096901
X0099441
X0101981
X0104521
X0107061
X0112522Y0040259
X0117602
Y0054737
X0112522
X0081661Y0040005
X0079121
Y0042545
Y0045085
Y0047625
Y0055245
X0084455Y0080645
X0086995
Y0083185
Y0085725
Y0088265
Y0090805
Y0093345
Y0095885
X0089535
Y0093345
Y0090805
Y0088265
Y0085725
Y0083185
Y0080645
X0084455Y0083185
Y0085725
Y0088265
Y0090805
Y0093345
Y0095885
X0106426Y010287
X0108966
X0111506
X0114046
X0117602
X0111506Y010033
X0108966
X0120142Y010287
X0122682
X0125222
X0127762
X0130302
X0135001Y010795
X0137541
X0140081
X0136525Y0095885
Y0093345
Y0090805
Y0088265
Y0085725
Y0083185
Y0080645
X0131445
Y0083185
Y0085725
X0125222Y009779
X0122682
T05
X012065Y0061341
X012573
X0132715
X0137795
M30
