%FSLAX44Y44*%
%MOMM*%
G71*
G01*
G75*
G04 Layer_Physical_Order=2*
G04 Layer_Color=16711680*
%ADD10R,2.2000X0.6000*%
%ADD11R,2.2000X0.6000*%
%ADD12R,1.5000X1.3000*%
%ADD13C,1.2700*%
%ADD14C,0.5080*%
%ADD15C,1.0160*%
%ADD16C,2.0320*%
%ADD17C,2.5400*%
%ADD18R,1.5000X2.0320*%
%ADD19O,1.5000X2.0320*%
%ADD20O,2.0000X4.5000*%
%ADD21O,2.0000X4.0000*%
%ADD22O,4.0000X2.0000*%
%ADD23C,1.5000*%
%ADD24C,1.5000*%
%ADD25C,1.7780*%
%ADD26R,1.3000X1.5000*%
%ADD27R,0.5000X1.0000*%
%ADD28C,1.5240*%
G36*
X934115Y-59615D02*
X-123115D01*
Y427615D01*
X564115D01*
Y346500D01*
X564411Y345013D01*
X565253Y343753D01*
X566513Y342911D01*
X568000Y342615D01*
X753000D01*
X754487Y342911D01*
X755747Y343753D01*
X756589Y345013D01*
X756885Y346500D01*
D01*
D01*
D01*
D01*
D01*
X756885D01*
D01*
D01*
D01*
D01*
Y346500D01*
X756885D01*
D01*
Y346500D01*
D01*
D01*
D01*
D01*
D01*
D01*
D01*
D01*
D01*
D01*
D01*
D01*
Y346500D01*
D01*
X756885D01*
D01*
D01*
D01*
D01*
X756885Y346500D01*
Y427615D01*
X934115D01*
Y-59615D01*
D02*
G37*
%LPC*%
G36*
X314927Y111760D02*
X307340D01*
Y101848D01*
X307421Y101858D01*
X309863Y102870D01*
X311961Y104479D01*
X313570Y106577D01*
X314582Y109019D01*
X314927Y111640D01*
Y111760D01*
D02*
G37*
G36*
X457526Y312680D02*
X454543Y312287D01*
X451762Y311136D01*
X449374Y309303D01*
X447542Y306916D01*
X446391Y304135D01*
X445998Y301152D01*
X446391Y298168D01*
X447542Y295387D01*
X449374Y293000D01*
X451762Y291168D01*
X452347Y290925D01*
Y255754D01*
X451340Y255448D01*
X448692Y254033D01*
X446371Y252129D01*
X444467Y249808D01*
X443052Y247160D01*
X442180Y244288D01*
X441886Y241300D01*
X442180Y238312D01*
X443052Y235440D01*
X444467Y232792D01*
X446371Y230471D01*
X448692Y228567D01*
X451340Y227152D01*
X454212Y226280D01*
X457200Y225986D01*
X460188Y226280D01*
X463060Y227152D01*
X465708Y228567D01*
X468028Y230471D01*
X469933Y232792D01*
X471348Y235440D01*
X472220Y238312D01*
X472514Y241300D01*
X472220Y244288D01*
X471348Y247160D01*
X469933Y249808D01*
X468028Y252129D01*
X465708Y254033D01*
X463060Y255448D01*
X462706Y255556D01*
Y290925D01*
X463291Y291168D01*
X465678Y293000D01*
X467510Y295387D01*
X468662Y298168D01*
X469055Y301152D01*
X468662Y304135D01*
X467510Y306916D01*
X465678Y309303D01*
X463291Y311136D01*
X460510Y312287D01*
X457526Y312680D01*
D02*
G37*
G36*
X717800Y126148D02*
X710340D01*
Y117385D01*
X705260D01*
Y126148D01*
X697800D01*
X694526Y125717D01*
X691476Y124454D01*
X688856Y122444D01*
X686846Y119824D01*
X685583Y116774D01*
X685486Y116040D01*
X694914D01*
X694211Y114987D01*
X693915Y113500D01*
X694211Y112013D01*
X694914Y110960D01*
X685486D01*
X685583Y110226D01*
X686846Y107176D01*
X688856Y104556D01*
X691476Y102546D01*
X694526Y101283D01*
X697800Y100852D01*
X705260D01*
Y109615D01*
X710340D01*
Y100852D01*
X717800D01*
X721074Y101283D01*
X724124Y102546D01*
X726744Y104556D01*
X728754Y107176D01*
X730017Y110226D01*
X730114Y110960D01*
X720686D01*
X721389Y112013D01*
X721685Y113500D01*
X721389Y114987D01*
X720686Y116040D01*
X730114D01*
X730017Y116774D01*
X728754Y119824D01*
X726744Y122444D01*
X724124Y124454D01*
X721074Y125717D01*
X717800Y126148D01*
D02*
G37*
G36*
X254000Y127087D02*
X251379Y126742D01*
X248937Y125730D01*
X246839Y124121D01*
X245230Y122023D01*
X244218Y119581D01*
X243873Y116960D01*
Y111640D01*
X244218Y109019D01*
X245230Y106577D01*
X246839Y104479D01*
X248937Y102870D01*
X251379Y101858D01*
X254000Y101513D01*
X256621Y101858D01*
X259063Y102870D01*
X261161Y104479D01*
X262770Y106577D01*
X263782Y109019D01*
X264127Y111640D01*
Y116960D01*
X263782Y119581D01*
X262770Y122023D01*
X261161Y124121D01*
X259063Y125730D01*
X256621Y126742D01*
X254000Y127087D01*
D02*
G37*
G36*
X-15360Y127000D02*
X-35440D01*
Y101600D01*
X-15360D01*
Y127000D01*
D02*
G37*
G36*
X302260Y111760D02*
X294673D01*
Y111640D01*
X295018Y109019D01*
X296030Y106577D01*
X297639Y104479D01*
X299737Y102870D01*
X302179Y101858D01*
X302260Y101848D01*
Y111760D01*
D02*
G37*
G36*
X561340Y256364D02*
Y243840D01*
X573864D01*
X573820Y244288D01*
X572948Y247160D01*
X571533Y249808D01*
X569628Y252129D01*
X567308Y254033D01*
X564660Y255448D01*
X561788Y256320D01*
X561340Y256364D01*
D02*
G37*
G36*
X279400Y279487D02*
X276779Y279142D01*
X274337Y278130D01*
X272239Y276521D01*
X270630Y274423D01*
X269618Y271981D01*
X269273Y269360D01*
Y264040D01*
X269618Y261419D01*
X270630Y258977D01*
X272239Y256879D01*
X274337Y255270D01*
X276779Y254258D01*
X279400Y253913D01*
X282021Y254258D01*
X284463Y255270D01*
X286561Y256879D01*
X288170Y258977D01*
X289182Y261419D01*
X289527Y264040D01*
Y269360D01*
X289182Y271981D01*
X288170Y274423D01*
X286561Y276521D01*
X284463Y278130D01*
X282021Y279142D01*
X279400Y279487D01*
D02*
G37*
G36*
X310723Y378814D02*
X307739Y378421D01*
X304959Y377270D01*
X302571Y375438D01*
X300739Y373050D01*
X299587Y370269D01*
X299194Y367285D01*
X299587Y364302D01*
X300005Y363294D01*
X299620Y361362D01*
Y278041D01*
X297639Y276521D01*
X296030Y274423D01*
X295018Y271981D01*
X294673Y269360D01*
Y264040D01*
X295018Y261419D01*
X296030Y258977D01*
X297639Y256879D01*
X299737Y255270D01*
X302179Y254258D01*
X304800Y253913D01*
X307421Y254258D01*
X309863Y255270D01*
X311961Y256879D01*
X313570Y258977D01*
X314582Y261419D01*
X314927Y264040D01*
Y269360D01*
X314582Y271981D01*
X313570Y274423D01*
X311961Y276521D01*
X309979Y278041D01*
Y355105D01*
X310723Y355757D01*
X313707Y356150D01*
X316487Y357301D01*
X318875Y359133D01*
X320707Y361521D01*
X321859Y364302D01*
X322252Y367285D01*
X321859Y370269D01*
X320707Y373050D01*
X318875Y375438D01*
X316487Y377270D01*
X313707Y378421D01*
X310723Y378814D01*
D02*
G37*
G36*
X556260Y256364D02*
X555812Y256320D01*
X552940Y255448D01*
X550292Y254033D01*
X547971Y252129D01*
X546067Y249808D01*
X544652Y247160D01*
X543781Y244288D01*
X543736Y243840D01*
X556260D01*
Y256364D01*
D02*
G37*
G36*
X463717Y336802D02*
X460733Y336409D01*
X457953Y335257D01*
X455565Y333425D01*
X453733Y331037D01*
X452581Y328257D01*
X452188Y325273D01*
X452581Y322289D01*
X453733Y319509D01*
X455565Y317121D01*
X457953Y315289D01*
X460733Y314137D01*
X463717Y313745D01*
X466701Y314137D01*
X467286Y314380D01*
X502821Y278845D01*
Y255655D01*
X502140Y255448D01*
X499492Y254033D01*
X497172Y252129D01*
X495267Y249808D01*
X493852Y247160D01*
X492980Y244288D01*
X492686Y241300D01*
X492980Y238312D01*
X493852Y235440D01*
X495267Y232792D01*
X497172Y230471D01*
X499492Y228567D01*
X502140Y227152D01*
X505012Y226280D01*
X508000Y225986D01*
X510988Y226280D01*
X513860Y227152D01*
X516508Y228567D01*
X518829Y230471D01*
X520733Y232792D01*
X522148Y235440D01*
X523019Y238312D01*
X523314Y241300D01*
X523019Y244288D01*
X522148Y247160D01*
X520733Y249808D01*
X518829Y252129D01*
X516508Y254033D01*
X513860Y255448D01*
X513180Y255655D01*
Y280990D01*
X512785Y282972D01*
X511662Y284653D01*
X511662Y284653D01*
X511662D01*
D01*
X511662Y284653D01*
Y284653D01*
X474611Y321704D01*
X474853Y322289D01*
X475246Y325273D01*
X474853Y328257D01*
X473701Y331037D01*
X471869Y333425D01*
X469482Y335257D01*
X466701Y336409D01*
X463717Y336802D01*
D02*
G37*
G36*
X556260Y238760D02*
X543736D01*
X543781Y238312D01*
X544652Y235440D01*
X546067Y232792D01*
X547971Y230471D01*
X550292Y228567D01*
X552940Y227152D01*
X555812Y226280D01*
X556260Y226236D01*
Y238760D01*
D02*
G37*
G36*
X573864D02*
X561340D01*
Y226236D01*
X561788Y226280D01*
X564660Y227152D01*
X567308Y228567D01*
X569628Y230471D01*
X571533Y232792D01*
X572948Y235440D01*
X573820Y238312D01*
X573864Y238760D01*
D02*
G37*
G36*
X534627Y60960D02*
X527040D01*
Y51048D01*
X527121Y51058D01*
X529563Y52070D01*
X531661Y53679D01*
X533270Y55777D01*
X534282Y58219D01*
X534627Y60840D01*
Y60960D01*
D02*
G37*
G36*
X527040Y75952D02*
Y66040D01*
X534627D01*
Y66160D01*
X534282Y68781D01*
X533270Y71223D01*
X531661Y73321D01*
X529563Y74930D01*
X527121Y75942D01*
X527040Y75952D01*
D02*
G37*
G36*
X740340Y85814D02*
Y76386D01*
X739287Y77089D01*
X737800Y77385D01*
X736313Y77089D01*
X735260Y76386D01*
Y85814D01*
X734526Y85717D01*
X731476Y84454D01*
X728856Y82444D01*
X726846Y79824D01*
X725583Y76774D01*
X725152Y73500D01*
Y66040D01*
X733915D01*
Y60960D01*
X725152D01*
Y53500D01*
X725583Y50226D01*
X726846Y47176D01*
X728856Y44556D01*
X731476Y42546D01*
X734526Y41283D01*
X735260Y41186D01*
Y50614D01*
X736313Y49911D01*
X737800Y49615D01*
X739287Y49911D01*
X740340Y50614D01*
Y41186D01*
X741074Y41283D01*
X744124Y42546D01*
X746744Y44556D01*
X748754Y47176D01*
X750017Y50226D01*
X750448Y53500D01*
Y60960D01*
X741685D01*
Y66040D01*
X750448D01*
Y73500D01*
X750017Y76774D01*
X748754Y79824D01*
X746744Y82444D01*
X744124Y84454D01*
X741074Y85717D01*
X740340Y85814D01*
D02*
G37*
G36*
X-102000Y-20875D02*
X-105438Y-21214D01*
X-108745Y-22217D01*
X-111792Y-23846D01*
X-114463Y-26037D01*
X-116655Y-28708D01*
X-118283Y-31755D01*
X-119286Y-35062D01*
X-119625Y-38500D01*
X-119286Y-41938D01*
X-118283Y-45245D01*
X-116655Y-48292D01*
X-114463Y-50963D01*
X-111792Y-53155D01*
X-108745Y-54783D01*
X-105438Y-55786D01*
X-102000Y-56125D01*
X-98562Y-55786D01*
X-95255Y-54783D01*
X-92208Y-53155D01*
X-89537Y-50963D01*
X-87346Y-48292D01*
X-85717Y-45245D01*
X-84714Y-41938D01*
X-84375Y-38500D01*
X-84714Y-35062D01*
X-85717Y-31755D01*
X-87346Y-28708D01*
X-89537Y-26037D01*
X-92208Y-23846D01*
X-95255Y-22217D01*
X-98562Y-21214D01*
X-102000Y-20875D01*
D02*
G37*
G36*
X913000D02*
X909562Y-21214D01*
X906255Y-22217D01*
X903208Y-23846D01*
X900537Y-26037D01*
X898345Y-28708D01*
X896717Y-31755D01*
X895714Y-35062D01*
X895375Y-38500D01*
X895714Y-41938D01*
X896717Y-45245D01*
X898345Y-48292D01*
X900537Y-50963D01*
X903208Y-53155D01*
X906255Y-54783D01*
X909562Y-55786D01*
X913000Y-56125D01*
X916439Y-55786D01*
X919745Y-54783D01*
X922792Y-53155D01*
X925463Y-50963D01*
X927654Y-48292D01*
X929283Y-45245D01*
X930286Y-41938D01*
X930625Y-38500D01*
X930286Y-35062D01*
X929283Y-31755D01*
X927654Y-28708D01*
X925463Y-26037D01*
X922792Y-23846D01*
X919745Y-22217D01*
X916439Y-21214D01*
X913000Y-20875D01*
D02*
G37*
G36*
X51580Y11176D02*
X42926D01*
Y2522D01*
X43370Y2580D01*
X46150Y3732D01*
X48538Y5564D01*
X50370Y7952D01*
X51522Y10732D01*
X51580Y11176D01*
D02*
G37*
G36*
X521960Y91430D02*
X513306D01*
X513364Y90986D01*
X514516Y88206D01*
X516348Y85818D01*
X518736Y83986D01*
X521516Y82834D01*
X521960Y82776D01*
Y91430D01*
D02*
G37*
G36*
X177800Y127087D02*
X175179Y126742D01*
X172737Y125730D01*
X170639Y124121D01*
X169030Y122023D01*
X168018Y119581D01*
X167673Y116960D01*
Y111640D01*
X168018Y109019D01*
X169030Y106577D01*
X170639Y104479D01*
X172737Y102870D01*
X175179Y101858D01*
X177800Y101513D01*
X180421Y101858D01*
X182863Y102870D01*
X184961Y104479D01*
X186570Y106577D01*
X187582Y109019D01*
X187927Y111640D01*
Y116960D01*
X187582Y119581D01*
X186570Y122023D01*
X184961Y124121D01*
X182863Y125730D01*
X180421Y126742D01*
X177800Y127087D01*
D02*
G37*
G36*
X203200D02*
X200579Y126742D01*
X198137Y125730D01*
X196039Y124121D01*
X194430Y122023D01*
X193418Y119581D01*
X193073Y116960D01*
Y111640D01*
X193418Y109019D01*
X194430Y106577D01*
X196039Y104479D01*
X198137Y102870D01*
X200579Y101858D01*
X203200Y101513D01*
X205821Y101858D01*
X208263Y102870D01*
X210361Y104479D01*
X211970Y106577D01*
X212982Y109019D01*
X213327Y111640D01*
Y116960D01*
X212982Y119581D01*
X211970Y122023D01*
X210361Y124121D01*
X208263Y125730D01*
X205821Y126742D01*
X203200Y127087D01*
D02*
G37*
G36*
X228600D02*
X225979Y126742D01*
X223537Y125730D01*
X221439Y124121D01*
X219830Y122023D01*
X218818Y119581D01*
X218473Y116960D01*
Y111640D01*
X218818Y109019D01*
X219830Y106577D01*
X221439Y104479D01*
X223537Y102870D01*
X225979Y101858D01*
X228600Y101513D01*
X231221Y101858D01*
X233663Y102870D01*
X235761Y104479D01*
X237370Y106577D01*
X238382Y109019D01*
X238727Y111640D01*
Y116960D01*
X238382Y119581D01*
X237370Y122023D01*
X235761Y124121D01*
X233663Y125730D01*
X231221Y126742D01*
X228600Y127087D01*
D02*
G37*
G36*
X535694Y91430D02*
X527040D01*
Y82776D01*
X527484Y82834D01*
X530264Y83986D01*
X532652Y85818D01*
X534484Y88206D01*
X535636Y90986D01*
X535694Y91430D01*
D02*
G37*
G36*
X521960Y105164D02*
X521516Y105106D01*
X518736Y103954D01*
X516348Y102122D01*
X514516Y99734D01*
X513364Y96954D01*
X513306Y96510D01*
X521960D01*
Y105164D01*
D02*
G37*
G36*
X527040D02*
Y96510D01*
X535694D01*
X535636Y96954D01*
X534484Y99734D01*
X532652Y102122D01*
X530264Y103954D01*
X527484Y105106D01*
X527040Y105164D01*
D02*
G37*
G36*
X83127Y378960D02*
X75540D01*
Y369048D01*
X75621Y369058D01*
X78063Y370070D01*
X80161Y371679D01*
X81770Y373777D01*
X82782Y376219D01*
X83127Y378840D01*
Y378960D01*
D02*
G37*
G36*
X70460Y393952D02*
X70379Y393942D01*
X67937Y392930D01*
X65839Y391321D01*
X64230Y389223D01*
X63218Y386781D01*
X62873Y384160D01*
Y384040D01*
X70460D01*
Y393952D01*
D02*
G37*
G36*
X241897Y417929D02*
X105812D01*
X103830Y417535D01*
X102150Y416413D01*
X94738Y409000D01*
X93615Y407320D01*
X93221Y405338D01*
Y392841D01*
X91239Y391321D01*
X89630Y389223D01*
X88618Y386781D01*
X88273Y384160D01*
Y378840D01*
X88618Y376219D01*
X89630Y373777D01*
X91239Y371679D01*
X93221Y370159D01*
Y354920D01*
X59951Y321651D01*
X58828Y319970D01*
X58434Y317988D01*
Y277593D01*
X57295Y277031D01*
X55923Y278084D01*
X55585Y279782D01*
X55135Y280455D01*
X54462Y281462D01*
X54462Y281462D01*
X21140Y314785D01*
Y330200D01*
X1060D01*
Y325716D01*
X144Y325337D01*
X-143Y325240D01*
X-1739Y327321D01*
X-3837Y328930D01*
X-6279Y329942D01*
X-6360Y329952D01*
Y317498D01*
Y305048D01*
X-6279Y305058D01*
X-3837Y306070D01*
X-1739Y307679D01*
X-143Y309760D01*
X144Y309663D01*
X1060Y309284D01*
Y304800D01*
X16475D01*
X43708Y277567D01*
X43639Y276521D01*
X42030Y274423D01*
X41018Y271981D01*
X40673Y269360D01*
Y264040D01*
X40690Y263915D01*
X35353Y258578D01*
X34297Y259284D01*
X35182Y261419D01*
X35527Y264040D01*
Y269360D01*
X35182Y271981D01*
X34170Y274423D01*
X32561Y276521D01*
X30463Y278130D01*
X28021Y279142D01*
X26596Y279329D01*
X4762Y301162D01*
X3082Y302285D01*
X1100Y302680D01*
X-16755D01*
X-21740Y307665D01*
X-21739Y307679D01*
X-20130Y309777D01*
X-19535Y311213D01*
X-18265D01*
X-17670Y309777D01*
X-16061Y307679D01*
X-13963Y306070D01*
X-11521Y305058D01*
X-11440Y305048D01*
Y317498D01*
Y329952D01*
X-11521Y329942D01*
X-13963Y328930D01*
X-16061Y327321D01*
X-17670Y325223D01*
X-18265Y323787D01*
X-19535D01*
X-20130Y325223D01*
X-21739Y327321D01*
X-23837Y328930D01*
X-26279Y329942D01*
X-28900Y330287D01*
X-31521Y329942D01*
X-33963Y328930D01*
X-36061Y327321D01*
X-37670Y325223D01*
X-38265Y323787D01*
X-39535D01*
X-40130Y325223D01*
X-41739Y327321D01*
X-43837Y328930D01*
X-46279Y329942D01*
X-48900Y330287D01*
X-51521Y329942D01*
X-53963Y328930D01*
X-56061Y327321D01*
X-57670Y325223D01*
X-58265Y323787D01*
X-59535D01*
X-60130Y325223D01*
X-61739Y327321D01*
X-63837Y328930D01*
X-66279Y329942D01*
X-66360Y329952D01*
Y317498D01*
Y305048D01*
X-66279Y305058D01*
X-63837Y306070D01*
X-61739Y307679D01*
X-60130Y309777D01*
X-59535Y311213D01*
X-58265D01*
X-57670Y309777D01*
X-56061Y307679D01*
X-54079Y306159D01*
X-54079Y306159D01*
X-54080Y305351D01*
X-54079Y305351D01*
X-54079D01*
X-53685Y303369D01*
X-52562Y301689D01*
X-35317Y284443D01*
X-33637Y283321D01*
X-31655Y282926D01*
X-15015D01*
X-7790Y275701D01*
X-8770Y274423D01*
X-9782Y271981D01*
X-10127Y269360D01*
Y264040D01*
X-10110Y263915D01*
X-15447Y258578D01*
X-16503Y259284D01*
X-15618Y261419D01*
X-15273Y264040D01*
Y269360D01*
X-15618Y271981D01*
X-16630Y274423D01*
X-18239Y276521D01*
X-20337Y278130D01*
X-22779Y279142D01*
X-25400Y279487D01*
X-28021Y279142D01*
X-30463Y278130D01*
X-32561Y276521D01*
X-34170Y274423D01*
X-35182Y271981D01*
X-35195Y271880D01*
X-63284D01*
X-83721Y292316D01*
Y306159D01*
X-81739Y307679D01*
X-80130Y309777D01*
X-79535Y311213D01*
X-78265D01*
X-77670Y309777D01*
X-76061Y307679D01*
X-73963Y306070D01*
X-71521Y305058D01*
X-71440Y305048D01*
Y317498D01*
Y329952D01*
X-71521Y329942D01*
X-73963Y328930D01*
X-76061Y327321D01*
X-77670Y325223D01*
X-78265Y323787D01*
X-79535D01*
X-80130Y325223D01*
X-81739Y327321D01*
X-83837Y328930D01*
X-86279Y329942D01*
X-88900Y330287D01*
X-91521Y329942D01*
X-93963Y328930D01*
X-96061Y327321D01*
X-97670Y325223D01*
X-98682Y322781D01*
X-99027Y320160D01*
Y314840D01*
X-98682Y312219D01*
X-97670Y309777D01*
X-96061Y307679D01*
X-94080Y306159D01*
Y290170D01*
X-94080Y290170D01*
X-94080D01*
X-93685Y288188D01*
X-92563Y286508D01*
X-69092Y263037D01*
D01*
X-69092Y263037D01*
X-69092Y263037D01*
D01*
D01*
D01*
X-69092Y263037D01*
Y263037D01*
X-67412Y261915D01*
X-65430Y261521D01*
X-35195D01*
X-35182Y261419D01*
X-34170Y258977D01*
X-32561Y256879D01*
X-30580Y255359D01*
Y224367D01*
X-30440Y223665D01*
Y216827D01*
X5040D01*
Y223665D01*
X5179Y224367D01*
Y232818D01*
X22097D01*
X24080Y233212D01*
X25760Y234335D01*
Y234335D01*
X25760D01*
D01*
D01*
D01*
D01*
D01*
D01*
X25760D01*
D01*
X25760D01*
Y234335D01*
D01*
D01*
D01*
D01*
Y234335D01*
D01*
D01*
D01*
D01*
D01*
D01*
Y234335D01*
D01*
D01*
X25760D01*
D01*
D01*
D01*
X46414Y254989D01*
X48179Y254258D01*
X50800Y253913D01*
X53421Y254258D01*
X55863Y255270D01*
X57295Y256369D01*
X58434Y255807D01*
Y234611D01*
X28038Y204216D01*
X26983Y204921D01*
X27138Y205296D01*
X27531Y208280D01*
X27138Y211264D01*
X25986Y214044D01*
X24154Y216432D01*
X21766Y218264D01*
X18986Y219416D01*
X16002Y219809D01*
X13018Y219416D01*
X10238Y218264D01*
X7850Y216432D01*
X6243Y214337D01*
X5040Y214745D01*
Y214973D01*
X-30440D01*
Y208135D01*
X-30580Y207433D01*
X-30440Y206732D01*
Y199893D01*
X5040D01*
Y201815D01*
X6243Y202223D01*
X7850Y200128D01*
X10238Y198296D01*
X13018Y197144D01*
X16002Y196751D01*
X18986Y197144D01*
X19361Y197299D01*
X20066Y196243D01*
X-3663Y172515D01*
X-4785Y170835D01*
X-5179Y168852D01*
Y125641D01*
X-7161Y124121D01*
X-8770Y122023D01*
X-9782Y119581D01*
X-10127Y116960D01*
Y111640D01*
X-9782Y109019D01*
X-8770Y106577D01*
X-7161Y104479D01*
X-5063Y102870D01*
X-2621Y101858D01*
X0Y101513D01*
X2621Y101858D01*
X5063Y102870D01*
X6381Y103882D01*
X7520Y103320D01*
Y96125D01*
X1665Y90269D01*
X-19050D01*
X-19050Y90269D01*
X-21032Y89875D01*
X-22713Y88752D01*
X-59542Y51922D01*
X-60665Y50242D01*
X-61059Y48260D01*
Y-12700D01*
X-61059Y-12700D01*
X-61059D01*
X-60665Y-14682D01*
X-59542Y-16363D01*
X-30333Y-45573D01*
X-28652Y-46695D01*
X-26670Y-47090D01*
X-26670Y-47090D01*
X12700D01*
X14682Y-46695D01*
X16362Y-45573D01*
Y-45573D01*
X16363D01*
D01*
D01*
D01*
D01*
D01*
D01*
X16363D01*
D01*
X16363D01*
Y-45573D01*
D01*
D01*
D01*
D01*
Y-45573D01*
D01*
D01*
D01*
D01*
D01*
D01*
Y-45573D01*
D01*
D01*
X16363D01*
D01*
D01*
D01*
X23663Y-38273D01*
X24785Y-36592D01*
X25180Y-34610D01*
D01*
D01*
D01*
D01*
D01*
X25180D01*
D01*
D01*
D01*
D01*
Y-34610D01*
X25180D01*
D01*
Y-34610D01*
D01*
D01*
D01*
D01*
D01*
D01*
D01*
D01*
D01*
D01*
D01*
D01*
Y-34610D01*
D01*
X25180D01*
D01*
D01*
D01*
D01*
X25180Y-34610D01*
Y-24041D01*
X27161Y-22521D01*
X28770Y-20423D01*
X29365Y-18987D01*
X30635D01*
X31230Y-20423D01*
X32839Y-22521D01*
X34937Y-24130D01*
X37379Y-25142D01*
X37460Y-25152D01*
Y-12702D01*
Y-248D01*
X37379Y-258D01*
X34937Y-1270D01*
X32839Y-2879D01*
X31230Y-4977D01*
X30635Y-6413D01*
X29365D01*
X28770Y-4977D01*
X27161Y-2879D01*
X25063Y-1270D01*
X22621Y-258D01*
X20000Y87D01*
X17379Y-258D01*
X14937Y-1270D01*
X12839Y-2879D01*
X11243Y-4960D01*
X10956Y-4863D01*
X10040Y-4484D01*
Y0D01*
X5179D01*
Y3930D01*
X16050D01*
Y3930D01*
X16050D01*
X16050Y3930D01*
X16970D01*
Y3930D01*
X23470D01*
Y13973D01*
X28550D01*
Y3930D01*
X34364D01*
X34622Y3732D01*
X37402Y2580D01*
X37846Y2522D01*
Y13719D01*
X40384D01*
Y16256D01*
X51580D01*
X51522Y16700D01*
X50370Y19480D01*
X48538Y21868D01*
X48280Y22066D01*
X48688Y23268D01*
X54820D01*
Y-1359D01*
X52839Y-2879D01*
X51230Y-4977D01*
X50635Y-6413D01*
X49365D01*
X48770Y-4977D01*
X47161Y-2879D01*
X45063Y-1270D01*
X42621Y-258D01*
X42540Y-248D01*
Y-12702D01*
Y-25152D01*
X42621Y-25142D01*
X45063Y-24130D01*
X47161Y-22521D01*
X48770Y-20423D01*
X49365Y-18987D01*
X50635D01*
X51230Y-20423D01*
X52839Y-22521D01*
X54937Y-24130D01*
X57379Y-25142D01*
X60000Y-25487D01*
X62621Y-25142D01*
X65063Y-24130D01*
X67161Y-22521D01*
X68770Y-20423D01*
X69365Y-18987D01*
X70635D01*
X71230Y-20423D01*
X72839Y-22521D01*
X74820Y-24041D01*
Y-25400D01*
X74820Y-25400D01*
X74820D01*
X75215Y-27382D01*
X76337Y-29062D01*
X86488Y-39213D01*
X88168Y-40335D01*
X90150Y-40729D01*
X246390D01*
X248372Y-40335D01*
X250052Y-39213D01*
Y-39213D01*
X250053D01*
D01*
D01*
D01*
D01*
D01*
D01*
X250053D01*
D01*
X250053D01*
Y-39213D01*
D01*
D01*
D01*
D01*
Y-39213D01*
D01*
D01*
D01*
D01*
D01*
D01*
Y-39212D01*
D01*
D01*
X250053D01*
D01*
D01*
D01*
X261472Y-27792D01*
X262595Y-26112D01*
X262990Y-24130D01*
D01*
D01*
D01*
D01*
D01*
X262990D01*
D01*
D01*
D01*
D01*
Y-24130D01*
X262990D01*
D01*
Y-24130D01*
D01*
D01*
D01*
D01*
D01*
D01*
D01*
D01*
D01*
D01*
D01*
D01*
Y-24130D01*
D01*
X262990D01*
D01*
D01*
D01*
D01*
X262990Y-24130D01*
Y62230D01*
X262595Y64212D01*
X261472Y65892D01*
X261472Y65893D01*
D01*
X261472D01*
D01*
D01*
X261472Y65893D01*
X261472Y65893D01*
X261472D01*
D01*
D01*
X261472Y65893D01*
X242423Y84943D01*
X242437Y84991D01*
X262890D01*
X264872Y85385D01*
X266552Y86508D01*
Y86508D01*
X266553D01*
D01*
D01*
D01*
D01*
D01*
D01*
X266553D01*
D01*
X266553D01*
Y86508D01*
D01*
D01*
D01*
D01*
Y86508D01*
D01*
D01*
D01*
D01*
D01*
D01*
Y86508D01*
D01*
D01*
X266553D01*
D01*
D01*
D01*
D01*
X281886Y101841D01*
X282021Y101858D01*
X284463Y102870D01*
X286561Y104479D01*
X288170Y106577D01*
X289182Y109019D01*
X289527Y111640D01*
Y116960D01*
X289182Y119581D01*
X288170Y122023D01*
X286561Y124121D01*
X284580Y125641D01*
Y161793D01*
X291154D01*
Y148257D01*
X291154Y148257D01*
X291154D01*
X291548Y146274D01*
X292671Y144594D01*
X299620Y137645D01*
Y125641D01*
X297639Y124121D01*
X296030Y122023D01*
X295018Y119581D01*
X294673Y116960D01*
Y116840D01*
X314927D01*
Y116960D01*
X314582Y119581D01*
X313570Y122023D01*
X311961Y124121D01*
X309979Y125641D01*
Y139790D01*
X309876Y140313D01*
X310996Y140912D01*
X325020Y126887D01*
Y125641D01*
X323039Y124121D01*
X321430Y122023D01*
X320418Y119581D01*
X320073Y116960D01*
Y115219D01*
X319952Y114300D01*
Y77555D01*
X319952Y77555D01*
X320302Y74903D01*
X321325Y72431D01*
X322954Y70309D01*
X400509Y-7246D01*
X402631Y-8875D01*
X405103Y-9898D01*
X407755Y-10248D01*
X407755Y-10248D01*
X561460D01*
Y-12700D01*
X581540D01*
Y-8216D01*
X582456Y-7837D01*
X582743Y-7740D01*
X584339Y-9821D01*
X586437Y-11430D01*
X588879Y-12442D01*
X591500Y-12787D01*
X594121Y-12442D01*
X596563Y-11430D01*
X598104Y-10248D01*
X654739D01*
X654740Y-10248D01*
X657392Y-9898D01*
X659864Y-8875D01*
X661986Y-7246D01*
X683046Y13814D01*
X683046Y13814D01*
X684675Y15936D01*
X685698Y18408D01*
X685698D01*
D01*
D01*
D01*
D01*
X685698D01*
D01*
D01*
D01*
D01*
Y18408D01*
X685699D01*
D01*
Y18408D01*
D01*
D01*
D01*
D01*
D01*
D01*
D01*
D01*
D01*
D01*
D01*
D01*
Y18408D01*
D01*
X685698D01*
D01*
D01*
D01*
D01*
X685698Y18408D01*
X686048Y21060D01*
X686048Y21061D01*
Y39570D01*
X685698Y42222D01*
X685408Y42923D01*
X686754Y44676D01*
X688017Y47726D01*
X688448Y51000D01*
Y76000D01*
X688017Y79274D01*
X686754Y82324D01*
X684744Y84944D01*
X682124Y86954D01*
X679074Y88217D01*
X675800Y88648D01*
X672526Y88217D01*
X669476Y86954D01*
X666856Y84944D01*
X664846Y82324D01*
X663583Y79274D01*
X663152Y76000D01*
Y51000D01*
X663583Y47726D01*
X664846Y44676D01*
X666192Y42923D01*
X665901Y42222D01*
X665552Y39570D01*
Y25305D01*
X650495Y10248D01*
X598104D01*
X596563Y11430D01*
X594121Y12442D01*
X591500Y12787D01*
X588879Y12442D01*
X586437Y11430D01*
X584339Y9821D01*
X582743Y7740D01*
X582456Y7837D01*
X581540Y8216D01*
Y12700D01*
X561460D01*
Y10248D01*
X412000D01*
X340448Y81800D01*
Y114300D01*
X340327Y115219D01*
Y116960D01*
X339982Y119581D01*
X338970Y122023D01*
X337361Y124121D01*
X335379Y125641D01*
Y129032D01*
X335379Y129032D01*
X334985Y131014D01*
X333862Y132695D01*
X333862Y132695D01*
X309979Y156578D01*
Y169333D01*
X309840Y170035D01*
Y176873D01*
X298873D01*
Y169331D01*
X293793D01*
Y176873D01*
X274360D01*
Y170035D01*
X274221Y169333D01*
Y125641D01*
X272239Y124121D01*
X270630Y122023D01*
X269618Y119581D01*
X269273Y116960D01*
Y111640D01*
X269618Y109019D01*
X270630Y106577D01*
X271213Y105817D01*
X260745Y95350D01*
X149465D01*
X144880Y99935D01*
Y103320D01*
X146019Y103882D01*
X147337Y102870D01*
X149779Y101858D01*
X152400Y101513D01*
X155021Y101858D01*
X157463Y102870D01*
X159561Y104479D01*
X161170Y106577D01*
X162182Y109019D01*
X162527Y111640D01*
Y116960D01*
X162182Y119581D01*
X161170Y122023D01*
X159561Y124121D01*
X157579Y125641D01*
Y157875D01*
X174231Y174526D01*
X174816Y174284D01*
X177800Y173891D01*
X180784Y174284D01*
X183564Y175436D01*
X185952Y177268D01*
X187784Y179656D01*
X188936Y182436D01*
X189329Y185420D01*
X188936Y188404D01*
X187784Y191184D01*
X185952Y193572D01*
X183564Y195404D01*
X180784Y196556D01*
X177800Y196949D01*
X174816Y196556D01*
X172036Y195404D01*
X169648Y193572D01*
X167816Y191184D01*
X166664Y188404D01*
X166271Y185420D01*
X166664Y182436D01*
X166906Y181851D01*
X148737Y163682D01*
X147615Y162002D01*
X147220Y160020D01*
Y125641D01*
X146019Y124719D01*
X144880Y125280D01*
Y129540D01*
X144485Y131522D01*
X143363Y133202D01*
X137013Y139552D01*
X135948Y140264D01*
X135596Y142938D01*
X134444Y145718D01*
X132612Y148106D01*
X130224Y149938D01*
X127444Y151090D01*
X124460Y151483D01*
X121476Y151090D01*
X118696Y149938D01*
X116308Y148106D01*
X114476Y145718D01*
X113324Y142938D01*
X112931Y139954D01*
X113324Y136970D01*
X113641Y136206D01*
X110638Y133202D01*
X109515Y131522D01*
X109121Y129540D01*
Y125280D01*
X107981Y124719D01*
X106779Y125641D01*
Y138430D01*
X106385Y140412D01*
X105262Y142093D01*
X88752Y158603D01*
X87072Y159725D01*
X85090Y160119D01*
X25400D01*
X23418Y159725D01*
X21737Y158603D01*
X9038Y145903D01*
X7915Y144222D01*
X7520Y142240D01*
Y125280D01*
X6381Y124719D01*
X5179Y125641D01*
Y166707D01*
X67276Y228803D01*
X67276Y228803D01*
X67949Y229811D01*
X68399Y230484D01*
X68793Y232466D01*
Y255633D01*
X69932Y256194D01*
X71020Y255359D01*
Y248950D01*
X71020Y248950D01*
X71020D01*
X71415Y246968D01*
X72537Y245287D01*
X85005Y232820D01*
D01*
X85005Y232820D01*
X85005Y232820D01*
D01*
D01*
D01*
X85005Y232820D01*
Y232820D01*
X86685Y231697D01*
X88668Y231303D01*
X127519D01*
X129501Y231697D01*
X131182Y232820D01*
X143349Y244988D01*
X144472Y246668D01*
X144866Y248650D01*
Y255730D01*
X146005Y256292D01*
X147337Y255270D01*
X149779Y254258D01*
X152400Y253913D01*
X155021Y254258D01*
X157463Y255270D01*
X159561Y256879D01*
X161170Y258977D01*
X162182Y261419D01*
X162527Y264040D01*
Y269360D01*
X162182Y271981D01*
X161170Y274423D01*
X159561Y276521D01*
X157579Y278041D01*
Y310531D01*
X190972Y343924D01*
X192094Y345604D01*
X192489Y347586D01*
Y370513D01*
X193628Y371074D01*
X194820Y370159D01*
Y344600D01*
X174137Y323917D01*
X173015Y322237D01*
X172621Y320254D01*
Y278041D01*
X170639Y276521D01*
X169030Y274423D01*
X168018Y271981D01*
X167673Y269360D01*
Y264040D01*
X168018Y261419D01*
X169030Y258977D01*
X170639Y256879D01*
X172737Y255270D01*
X175179Y254258D01*
X177800Y253913D01*
X180421Y254258D01*
X182863Y255270D01*
X184151Y256258D01*
X185290Y255696D01*
Y235195D01*
X185290Y235195D01*
X185290D01*
X185684Y233213D01*
X186807Y231533D01*
X205785Y212554D01*
X207465Y211432D01*
X209448Y211037D01*
X274221D01*
Y186267D01*
X274360Y185565D01*
Y178727D01*
X309840D01*
Y181087D01*
X317609D01*
X317676Y180926D01*
X319508Y178538D01*
X321896Y176706D01*
X324676Y175554D01*
X327660Y175161D01*
X330644Y175554D01*
X333424Y176706D01*
X335812Y178538D01*
X337644Y180926D01*
X338796Y183706D01*
X339189Y186690D01*
X338796Y189674D01*
X337644Y192454D01*
X335812Y194842D01*
X333424Y196674D01*
X330644Y197826D01*
X327660Y198219D01*
X328448Y199007D01*
X358605D01*
X408652Y148959D01*
Y52404D01*
X408652Y52404D01*
X408652D01*
X409047Y50422D01*
X410170Y48741D01*
X437775Y21136D01*
X437775Y21136D01*
X437775Y21136D01*
X437775Y21136D01*
Y21136D01*
X439456Y20013D01*
X441438Y19619D01*
X491198D01*
X493180Y20013D01*
X494861Y21136D01*
X508162Y34437D01*
X508162Y34437D01*
X509285Y36118D01*
D01*
D01*
D01*
Y36118D01*
X509285D01*
D01*
D01*
D01*
D01*
X509285D01*
D01*
D01*
D01*
D01*
Y36118D01*
X509285D01*
D01*
Y36118D01*
D01*
D01*
D01*
D01*
D01*
D01*
D01*
D01*
D01*
D01*
D01*
D01*
Y36118D01*
D01*
X509285D01*
D01*
D01*
D01*
D01*
X509285Y36118D01*
X509679Y38100D01*
X509679Y38100D01*
Y52159D01*
X511661Y53679D01*
X513270Y55777D01*
X513865Y57213D01*
X515135D01*
X515730Y55777D01*
X517339Y53679D01*
X519437Y52070D01*
X521879Y51058D01*
X521960Y51048D01*
Y63498D01*
Y75952D01*
X521879Y75942D01*
X519437Y74930D01*
X517339Y73321D01*
X515730Y71223D01*
X515135Y69787D01*
X513865D01*
X513270Y71223D01*
X511661Y73321D01*
X509679Y74841D01*
Y103110D01*
X509285Y105092D01*
X508162Y106773D01*
X508162Y106773D01*
D01*
D01*
D01*
D01*
X508162Y106773D01*
D01*
D01*
X508162D01*
X379041Y235894D01*
X377360Y237017D01*
X375378Y237411D01*
X213881D01*
X208379Y242913D01*
Y255359D01*
X210361Y256879D01*
X211970Y258977D01*
X212982Y261419D01*
X213327Y264040D01*
Y269360D01*
X212982Y271981D01*
X211970Y274423D01*
X210361Y276521D01*
X208263Y278130D01*
X205821Y279142D01*
X203200Y279487D01*
X200579Y279142D01*
X198137Y278130D01*
X196788Y277095D01*
X195649Y277657D01*
Y283559D01*
X197607Y285518D01*
X219256D01*
X223421Y281354D01*
Y278041D01*
X221439Y276521D01*
X219830Y274423D01*
X218818Y271981D01*
X218473Y269360D01*
Y264040D01*
X218818Y261419D01*
X219830Y258977D01*
X221439Y256879D01*
X223537Y255270D01*
X225979Y254258D01*
X228600Y253913D01*
X231221Y254258D01*
X233663Y255270D01*
X235761Y256879D01*
X237370Y258977D01*
X238382Y261419D01*
X238727Y264040D01*
Y269360D01*
X238382Y271981D01*
X237370Y274423D01*
X235761Y276521D01*
X233780Y278041D01*
Y283499D01*
X233385Y285481D01*
X232262Y287162D01*
X225064Y294360D01*
X223384Y295482D01*
X221402Y295877D01*
X195462D01*
X195462Y295877D01*
X193479Y295482D01*
X191799Y294360D01*
X186807Y289367D01*
X185684Y287687D01*
X185290Y285705D01*
Y277704D01*
X184151Y277142D01*
X182980Y278041D01*
Y318109D01*
X203662Y338792D01*
X204785Y340472D01*
X205180Y342454D01*
Y370159D01*
X207161Y371679D01*
X208770Y373777D01*
X209782Y376219D01*
X210127Y378840D01*
Y384160D01*
X209782Y386781D01*
X208770Y389223D01*
X207161Y391321D01*
X205063Y392930D01*
X202621Y393942D01*
X200000Y394287D01*
X197379Y393942D01*
X195056Y392979D01*
X194350Y394035D01*
X198995Y398680D01*
X218019D01*
X220221Y396479D01*
Y392841D01*
X218239Y391321D01*
X216630Y389223D01*
X215618Y386781D01*
X215273Y384160D01*
Y378840D01*
X215618Y376219D01*
X216630Y373777D01*
X218239Y371679D01*
X220337Y370070D01*
X222779Y369058D01*
X225400Y368713D01*
X228021Y369058D01*
X230463Y370070D01*
X232561Y371679D01*
X234170Y373777D01*
X235182Y376219D01*
X235527Y378840D01*
Y384160D01*
X235182Y386781D01*
X234170Y389223D01*
X232561Y391321D01*
X230579Y392841D01*
Y398624D01*
X230185Y400606D01*
X229062Y402287D01*
X223827Y407523D01*
X223841Y407570D01*
X239752D01*
X245620Y401702D01*
Y394200D01*
X240760D01*
Y368800D01*
X256175D01*
X266987Y357988D01*
X266479Y356763D01*
X266043Y353447D01*
X266479Y350132D01*
X267759Y347043D01*
X269795Y344390D01*
X272448Y342354D01*
X275537Y341074D01*
X278853Y340638D01*
X282168Y341074D01*
X285257Y342354D01*
X287910Y344390D01*
X289946Y347043D01*
X291226Y350132D01*
X291662Y353447D01*
X291226Y356763D01*
X289946Y359852D01*
X287910Y362505D01*
X285257Y364541D01*
X282168Y365821D01*
X278853Y366257D01*
X275537Y365821D01*
X274312Y365313D01*
X260840Y378785D01*
Y394200D01*
X255979D01*
Y403847D01*
X255979Y403847D01*
Y403847D01*
X255980D01*
X255979Y403847D01*
D01*
D01*
D01*
D01*
X255979Y403847D01*
D01*
X255585Y405829D01*
X254463Y407510D01*
X245560Y416413D01*
X243879Y417535D01*
X241897Y417929D01*
D02*
G37*
G36*
X-102000Y369148D02*
X-105274Y368717D01*
X-108324Y367454D01*
X-110944Y365444D01*
X-112954Y362824D01*
X-114217Y359774D01*
X-114648Y356500D01*
X-114217Y353226D01*
X-112954Y350176D01*
X-110944Y347556D01*
X-108324Y345546D01*
X-105274Y344283D01*
X-102000Y343852D01*
X-98726Y344283D01*
X-95676Y345546D01*
X-93056Y347556D01*
X-91046Y350176D01*
X-89783Y353226D01*
X-89352Y356500D01*
X-89783Y359774D01*
X-91046Y362824D01*
X-93056Y365444D01*
X-95676Y367454D01*
X-98726Y368717D01*
X-102000Y369148D01*
D02*
G37*
G36*
X913000D02*
X909726Y368717D01*
X906676Y367454D01*
X904056Y365444D01*
X902046Y362824D01*
X900783Y359774D01*
X900352Y356500D01*
X900783Y353226D01*
X902046Y350176D01*
X904056Y347556D01*
X906676Y345546D01*
X909726Y344283D01*
X913000Y343852D01*
X916274Y344283D01*
X919324Y345546D01*
X921944Y347556D01*
X923954Y350176D01*
X925217Y353226D01*
X925648Y356500D01*
X925217Y359774D01*
X923954Y362824D01*
X921944Y365444D01*
X919324Y367454D01*
X916274Y368717D01*
X913000Y369148D01*
D02*
G37*
G36*
X70460Y378960D02*
X62873D01*
Y378840D01*
X63218Y376219D01*
X64230Y373777D01*
X65839Y371679D01*
X67937Y370070D01*
X70379Y369058D01*
X70460Y369048D01*
Y378960D01*
D02*
G37*
G36*
X354330Y412525D02*
Y402590D01*
X364265D01*
X364163Y403365D01*
X362883Y406455D01*
X360848Y409108D01*
X358195Y411143D01*
X355105Y412423D01*
X354330Y412525D01*
D02*
G37*
G36*
X349250D02*
X348475Y412423D01*
X345385Y411143D01*
X342732Y409108D01*
X340697Y406455D01*
X339417Y403365D01*
X339315Y402590D01*
X349250D01*
Y412525D01*
D02*
G37*
G36*
X364265Y397510D02*
X354330D01*
Y387575D01*
X355105Y387677D01*
X358195Y388957D01*
X360848Y390992D01*
X362883Y393645D01*
X364163Y396735D01*
X364265Y397510D01*
D02*
G37*
G36*
X-102000Y424125D02*
X-105438Y423786D01*
X-108745Y422783D01*
X-111792Y421155D01*
X-114463Y418963D01*
X-116655Y416292D01*
X-118283Y413245D01*
X-119286Y409938D01*
X-119625Y406500D01*
X-119286Y403062D01*
X-118283Y399755D01*
X-116655Y396708D01*
X-114463Y394037D01*
X-111792Y391846D01*
X-108745Y390217D01*
X-105438Y389214D01*
X-102000Y388875D01*
X-98562Y389214D01*
X-95255Y390217D01*
X-92208Y391846D01*
X-89537Y394037D01*
X-87346Y396708D01*
X-85717Y399755D01*
X-84714Y403062D01*
X-84375Y406500D01*
X-84714Y409938D01*
X-85717Y413245D01*
X-87346Y416292D01*
X-89537Y418963D01*
X-92208Y421155D01*
X-95255Y422783D01*
X-98562Y423786D01*
X-102000Y424125D01*
D02*
G37*
G36*
X913000D02*
X909562Y423786D01*
X906255Y422783D01*
X903208Y421155D01*
X900537Y418963D01*
X898345Y416292D01*
X896717Y413245D01*
X895714Y409938D01*
X895375Y406500D01*
X895714Y403062D01*
X896717Y399755D01*
X898345Y396708D01*
X900537Y394037D01*
X903208Y391846D01*
X906255Y390217D01*
X909562Y389214D01*
X913000Y388875D01*
X916439Y389214D01*
X919745Y390217D01*
X922792Y391846D01*
X925463Y394037D01*
X927654Y396708D01*
X929283Y399755D01*
X930286Y403062D01*
X930625Y406500D01*
X930286Y409938D01*
X929283Y413245D01*
X927654Y416292D01*
X925463Y418963D01*
X922792Y421155D01*
X919745Y422783D01*
X916439Y423786D01*
X913000Y424125D01*
D02*
G37*
G36*
X75540Y393952D02*
Y384040D01*
X83127D01*
Y384160D01*
X82782Y386781D01*
X81770Y389223D01*
X80161Y391321D01*
X78063Y392930D01*
X75621Y393942D01*
X75540Y393952D01*
D02*
G37*
G36*
X349250Y397510D02*
X339315D01*
X339417Y396735D01*
X340697Y393645D01*
X342732Y390992D01*
X345385Y388957D01*
X348475Y387677D01*
X349250Y387575D01*
Y397510D01*
D02*
G37*
G36*
X256540Y279152D02*
Y269240D01*
X264127D01*
Y269360D01*
X263782Y271981D01*
X262770Y274423D01*
X261161Y276521D01*
X259063Y278130D01*
X256621Y279142D01*
X256540Y279152D01*
D02*
G37*
G36*
X421269Y303018D02*
X412615D01*
X412673Y302574D01*
X413825Y299794D01*
X415657Y297406D01*
X418045Y295574D01*
X420825Y294422D01*
X421269Y294364D01*
Y303018D01*
D02*
G37*
G36*
X435003D02*
X426349D01*
Y294364D01*
X426793Y294422D01*
X429574Y295574D01*
X431961Y297406D01*
X433793Y299794D01*
X434945Y302574D01*
X435003Y303018D01*
D02*
G37*
G36*
X251460Y279152D02*
X251379Y279142D01*
X248937Y278130D01*
X246839Y276521D01*
X245230Y274423D01*
X244218Y271981D01*
X243873Y269360D01*
Y269240D01*
X251460D01*
Y279152D01*
D02*
G37*
G36*
X330200Y311322D02*
X327216Y310929D01*
X324436Y309777D01*
X322048Y307945D01*
X320216Y305557D01*
X319064Y302777D01*
X318671Y299793D01*
X319064Y296809D01*
X320216Y294029D01*
X322048Y291641D01*
X324436Y289809D01*
X325020Y289567D01*
Y279400D01*
X320160D01*
Y254000D01*
X340240D01*
Y279400D01*
X335379D01*
Y289567D01*
X335964Y289809D01*
X338352Y291641D01*
X340184Y294029D01*
X341336Y296809D01*
X341729Y299793D01*
X341336Y302777D01*
X340184Y305557D01*
X338352Y307945D01*
X335964Y309777D01*
X333184Y310929D01*
X330200Y311322D01*
D02*
G37*
G36*
X251460Y264160D02*
X243873D01*
Y264040D01*
X244218Y261419D01*
X245230Y258977D01*
X246839Y256879D01*
X248937Y255270D01*
X251379Y254258D01*
X251460Y254248D01*
Y264160D01*
D02*
G37*
G36*
X264127D02*
X256540D01*
Y254248D01*
X256621Y254258D01*
X259063Y255270D01*
X261161Y256879D01*
X262770Y258977D01*
X263782Y261419D01*
X264127Y264040D01*
Y264160D01*
D02*
G37*
G36*
X256182Y317710D02*
Y309056D01*
X264836D01*
X264777Y309500D01*
X263626Y312281D01*
X261794Y314668D01*
X259406Y316500D01*
X256625Y317652D01*
X256182Y317710D01*
D02*
G37*
G36*
X426349Y316752D02*
Y308098D01*
X435003D01*
X434945Y308542D01*
X433793Y311322D01*
X431961Y313710D01*
X429574Y315542D01*
X426793Y316694D01*
X426349Y316752D01*
D02*
G37*
G36*
X251102Y317710D02*
X250658Y317652D01*
X247877Y316500D01*
X245490Y314668D01*
X243657Y312281D01*
X242506Y309500D01*
X242447Y309056D01*
X251102D01*
Y317710D01*
D02*
G37*
G36*
Y303976D02*
X242447D01*
X242506Y303532D01*
X243657Y300752D01*
X245490Y298364D01*
X247877Y296532D01*
X250658Y295380D01*
X251102Y295322D01*
Y303976D01*
D02*
G37*
G36*
X264836D02*
X256182D01*
Y295322D01*
X256625Y295380D01*
X259406Y296532D01*
X261794Y298364D01*
X263626Y300752D01*
X264777Y303532D01*
X264836Y303976D01*
D02*
G37*
G36*
X421269Y316752D02*
X420825Y316694D01*
X418045Y315542D01*
X415657Y313710D01*
X413825Y311322D01*
X412673Y308542D01*
X412615Y308098D01*
X421269D01*
Y316752D01*
D02*
G37*
%LPD*%
G36*
X439320Y140544D02*
Y76200D01*
X434460D01*
Y50800D01*
X454540D01*
Y55284D01*
X455456Y55663D01*
X455743Y55760D01*
X457339Y53679D01*
X459437Y52070D01*
X461879Y51058D01*
X461960Y51048D01*
Y63502D01*
X467040D01*
Y51048D01*
X467121Y51058D01*
X469563Y52070D01*
X471661Y53679D01*
X473270Y55777D01*
X473865Y57213D01*
X475135D01*
X475730Y55777D01*
X477339Y53679D01*
X479437Y52070D01*
X481879Y51058D01*
X484500Y50713D01*
X487121Y51058D01*
X489563Y52070D01*
X491661Y53679D01*
X493270Y55777D01*
X493865Y57213D01*
X495135D01*
X495730Y55777D01*
X497339Y53679D01*
X499320Y52159D01*
Y40245D01*
X489053Y29978D01*
X443583D01*
X419012Y54549D01*
Y151104D01*
X418617Y153087D01*
X417495Y154767D01*
X417495Y154767D01*
X417495D01*
D01*
X417495Y154767D01*
Y154767D01*
X364413Y207849D01*
X362732Y208972D01*
X360750Y209366D01*
X291000D01*
X289018Y208972D01*
X287337Y207849D01*
X285753Y206264D01*
X284580Y206750D01*
Y211037D01*
X368827D01*
X439320Y140544D01*
D02*
G37*
G36*
X58320Y103320D02*
Y87235D01*
X56337Y85253D01*
X55215Y83572D01*
X54820Y81590D01*
Y62141D01*
X52839Y60621D01*
X51230Y58523D01*
X50635Y57087D01*
X49365D01*
X48770Y58523D01*
X47161Y60621D01*
X45063Y62230D01*
X42621Y63242D01*
X42540Y63252D01*
Y50798D01*
Y38348D01*
X42621Y38358D01*
X45063Y39370D01*
X47161Y40979D01*
X48770Y43077D01*
X49365Y44513D01*
X50635D01*
X51230Y43077D01*
X52839Y40979D01*
X54820Y39459D01*
Y34205D01*
X54243Y33628D01*
X5179D01*
Y38100D01*
X10040D01*
Y42584D01*
X10956Y42963D01*
X11243Y43060D01*
X12839Y40979D01*
X14937Y39370D01*
X17379Y38358D01*
X20000Y38013D01*
X22621Y38358D01*
X25063Y39370D01*
X27161Y40979D01*
X28770Y43077D01*
X29365Y44513D01*
X30635D01*
X31230Y43077D01*
X32839Y40979D01*
X34937Y39370D01*
X37379Y38358D01*
X37460Y38348D01*
Y50798D01*
Y63252D01*
X37379Y63242D01*
X34937Y62230D01*
X32839Y60621D01*
X31230Y58523D01*
X30635Y57087D01*
X29365D01*
X28770Y58523D01*
X27161Y60621D01*
X25180Y62141D01*
Y77545D01*
X32734Y85099D01*
X33688Y84261D01*
X33688Y84261D01*
X33688D01*
X31926Y81964D01*
X30774Y79184D01*
X30716Y78740D01*
X39370D01*
Y87394D01*
X38926Y87336D01*
X36146Y86184D01*
X33849Y84422D01*
X33011Y85376D01*
X49340Y101706D01*
X50800Y101513D01*
X53421Y101858D01*
X55863Y102870D01*
X57181Y103882D01*
X58320Y103320D01*
D02*
G37*
G36*
X121820Y102959D02*
Y90170D01*
X121820Y90170D01*
X121820D01*
X122215Y88188D01*
X123337Y86508D01*
X132227Y77618D01*
X133908Y76495D01*
X135890Y76101D01*
X236615D01*
X252631Y60085D01*
Y-21985D01*
X244245Y-30371D01*
X92295D01*
X86305Y-24380D01*
X86388Y-23113D01*
X87161Y-22521D01*
X88770Y-20423D01*
X89365Y-18987D01*
X90635D01*
X91230Y-20423D01*
X92839Y-22521D01*
X94937Y-24130D01*
X97379Y-25142D01*
X97460Y-25152D01*
Y-12702D01*
Y-248D01*
X97379Y-258D01*
X94937Y-1270D01*
X92839Y-2879D01*
X91230Y-4977D01*
X90635Y-6413D01*
X89365D01*
X88770Y-4977D01*
X87161Y-2879D01*
X85063Y-1270D01*
X82621Y-258D01*
X80000Y87D01*
X77379Y-258D01*
X74937Y-1270D01*
X72839Y-2879D01*
X71230Y-4977D01*
X70635Y-6413D01*
X69365D01*
X68770Y-4977D01*
X67161Y-2879D01*
X65180Y-1359D01*
Y39459D01*
X67161Y40979D01*
X68770Y43077D01*
X69365Y44513D01*
X70635D01*
X71230Y43077D01*
X72839Y40979D01*
X74937Y39370D01*
X77379Y38358D01*
X80000Y38013D01*
X82621Y38358D01*
X85063Y39370D01*
X87161Y40979D01*
X88770Y43077D01*
X89365Y44513D01*
X90635D01*
X91230Y43077D01*
X92839Y40979D01*
X94937Y39370D01*
X97379Y38358D01*
X97460Y38348D01*
Y50798D01*
Y63252D01*
X97379Y63242D01*
X94937Y62230D01*
X92839Y60621D01*
X91230Y58523D01*
X90635Y57087D01*
X89365D01*
X88770Y58523D01*
X87161Y60621D01*
X85180Y62141D01*
Y91256D01*
X86353Y91742D01*
X91587Y86508D01*
X93268Y85385D01*
X95250Y84991D01*
X107950D01*
X109932Y85385D01*
X111613Y86508D01*
X117963Y92858D01*
X119085Y94538D01*
X119480Y96520D01*
Y103320D01*
X120619Y103882D01*
X121820Y102959D01*
D02*
G37*
G36*
X198020Y255359D02*
Y240768D01*
X198415Y238785D01*
X199538Y237105D01*
X208073Y228570D01*
X208073Y228570D01*
X209081Y227896D01*
X209753Y227447D01*
X211736Y227052D01*
X373233D01*
X499320Y100965D01*
Y74841D01*
X497339Y73321D01*
X495730Y71223D01*
X495135Y69787D01*
X493865D01*
X493270Y71223D01*
X491661Y73321D01*
X489563Y74930D01*
X487121Y75942D01*
X484500Y76287D01*
X481879Y75942D01*
X479437Y74930D01*
X477339Y73321D01*
X475730Y71223D01*
X475135Y69787D01*
X473865D01*
X473270Y71223D01*
X472186Y72636D01*
Y83880D01*
X472652Y84238D01*
X474484Y86626D01*
X475636Y89406D01*
X475694Y89850D01*
X453306D01*
X453364Y89406D01*
X454516Y86626D01*
X456348Y84238D01*
X456814Y83880D01*
Y72636D01*
X455743Y71240D01*
X455456Y71337D01*
X454540Y71716D01*
Y76200D01*
X449679D01*
Y142690D01*
X449285Y144672D01*
X448162Y146352D01*
X448162Y146352D01*
X448162D01*
D01*
X448162Y146352D01*
Y146352D01*
X374635Y219879D01*
X372955Y221002D01*
X370973Y221396D01*
X211593D01*
X195649Y237341D01*
Y255743D01*
X196788Y256305D01*
X198020Y255359D01*
D02*
G37*
%LPC*%
G36*
X96012Y24910D02*
X95568Y24852D01*
X92788Y23700D01*
X90400Y21868D01*
X88568Y19480D01*
X87416Y16700D01*
X87358Y16256D01*
X96012D01*
Y24910D01*
D02*
G37*
G36*
X220000Y87D02*
X217379Y-258D01*
X214937Y-1270D01*
X212839Y-2879D01*
X211230Y-4977D01*
X210635Y-6413D01*
X209365D01*
X208770Y-4977D01*
X207161Y-2879D01*
X205063Y-1270D01*
X202621Y-258D01*
X200000Y87D01*
X197379Y-258D01*
X194937Y-1270D01*
X192839Y-2879D01*
X191230Y-4977D01*
X190635Y-6413D01*
X189365D01*
X188770Y-4977D01*
X187161Y-2879D01*
X185063Y-1270D01*
X182621Y-258D01*
X180000Y87D01*
X177379Y-258D01*
X174937Y-1270D01*
X172839Y-2879D01*
X171230Y-4977D01*
X170635Y-6413D01*
X169365D01*
X168770Y-4977D01*
X167161Y-2879D01*
X165063Y-1270D01*
X162621Y-258D01*
X160000Y87D01*
X157379Y-258D01*
X154937Y-1270D01*
X152839Y-2879D01*
X151230Y-4977D01*
X150635Y-6413D01*
X149365D01*
X148770Y-4977D01*
X147161Y-2879D01*
X145063Y-1270D01*
X142621Y-258D01*
X140000Y87D01*
X137379Y-258D01*
X134937Y-1270D01*
X132839Y-2879D01*
X131230Y-4977D01*
X130635Y-6413D01*
X129365D01*
X128770Y-4977D01*
X127161Y-2879D01*
X125063Y-1270D01*
X122621Y-258D01*
X120000Y87D01*
X117379Y-258D01*
X114937Y-1270D01*
X112839Y-2879D01*
X111230Y-4977D01*
X110635Y-6413D01*
X109365D01*
X108770Y-4977D01*
X107161Y-2879D01*
X105063Y-1270D01*
X102621Y-258D01*
X102540Y-248D01*
Y-12702D01*
Y-25152D01*
X102621Y-25142D01*
X105063Y-24130D01*
X107161Y-22521D01*
X108770Y-20423D01*
X109365Y-18987D01*
X110635D01*
X111230Y-20423D01*
X112839Y-22521D01*
X114937Y-24130D01*
X117379Y-25142D01*
X120000Y-25487D01*
X122621Y-25142D01*
X125063Y-24130D01*
X127161Y-22521D01*
X128770Y-20423D01*
X129365Y-18987D01*
X130635D01*
X131230Y-20423D01*
X132839Y-22521D01*
X134937Y-24130D01*
X137379Y-25142D01*
X140000Y-25487D01*
X142621Y-25142D01*
X145063Y-24130D01*
X147161Y-22521D01*
X148770Y-20423D01*
X149365Y-18987D01*
X150635D01*
X151230Y-20423D01*
X152839Y-22521D01*
X154937Y-24130D01*
X157379Y-25142D01*
X160000Y-25487D01*
X162621Y-25142D01*
X165063Y-24130D01*
X167161Y-22521D01*
X168770Y-20423D01*
X169365Y-18987D01*
X170635D01*
X171230Y-20423D01*
X172839Y-22521D01*
X174937Y-24130D01*
X177379Y-25142D01*
X180000Y-25487D01*
X182621Y-25142D01*
X185063Y-24130D01*
X187161Y-22521D01*
X188770Y-20423D01*
X189365Y-18987D01*
X190635D01*
X191230Y-20423D01*
X192839Y-22521D01*
X194937Y-24130D01*
X197379Y-25142D01*
X200000Y-25487D01*
X202621Y-25142D01*
X205063Y-24130D01*
X207161Y-22521D01*
X208770Y-20423D01*
X209365Y-18987D01*
X210635D01*
X211230Y-20423D01*
X212839Y-22521D01*
X214937Y-24130D01*
X217379Y-25142D01*
X220000Y-25487D01*
X222621Y-25142D01*
X225063Y-24130D01*
X227161Y-22521D01*
X228770Y-20423D01*
X229782Y-17981D01*
X230127Y-15360D01*
Y-10040D01*
X229782Y-7419D01*
X228770Y-4977D01*
X227161Y-2879D01*
X225063Y-1270D01*
X222621Y-258D01*
X220000Y87D01*
D02*
G37*
G36*
X96012Y11176D02*
X87358D01*
X87416Y10732D01*
X88568Y7952D01*
X90400Y5564D01*
X92788Y3732D01*
X95568Y2580D01*
X96012Y2522D01*
Y11176D01*
D02*
G37*
G36*
X109746D02*
X101092D01*
Y2522D01*
X101536Y2580D01*
X104316Y3732D01*
X106704Y5564D01*
X108536Y7952D01*
X109688Y10732D01*
X109746Y11176D01*
D02*
G37*
G36*
X44450Y87394D02*
Y78740D01*
X53104D01*
X53046Y79184D01*
X51894Y81964D01*
X50062Y84352D01*
X47674Y86184D01*
X44894Y87336D01*
X44450Y87394D01*
D02*
G37*
G36*
X461960Y103584D02*
X461516Y103526D01*
X458736Y102374D01*
X456348Y100542D01*
X454516Y98154D01*
X453364Y95374D01*
X453306Y94930D01*
X461960D01*
Y103584D01*
D02*
G37*
G36*
X467040D02*
Y94930D01*
X475694D01*
X475636Y95374D01*
X474484Y98154D01*
X472652Y100542D01*
X470264Y102374D01*
X467484Y103526D01*
X467040Y103584D01*
D02*
G37*
G36*
X53104Y73660D02*
X44450D01*
Y65006D01*
X44894Y65064D01*
X47674Y66216D01*
X50062Y68048D01*
X51894Y70436D01*
X53046Y73216D01*
X53104Y73660D01*
D02*
G37*
G36*
X101092Y24910D02*
Y16256D01*
X109746D01*
X109688Y16700D01*
X108536Y19480D01*
X106704Y21868D01*
X104316Y23700D01*
X101536Y24852D01*
X101092Y24910D01*
D02*
G37*
G36*
X220000Y63587D02*
X217379Y63242D01*
X214937Y62230D01*
X212839Y60621D01*
X211230Y58523D01*
X210635Y57087D01*
X209365D01*
X208770Y58523D01*
X207161Y60621D01*
X205063Y62230D01*
X202621Y63242D01*
X200000Y63587D01*
X197379Y63242D01*
X194937Y62230D01*
X192839Y60621D01*
X191230Y58523D01*
X190635Y57087D01*
X189365D01*
X188770Y58523D01*
X187161Y60621D01*
X185063Y62230D01*
X182621Y63242D01*
X180000Y63587D01*
X177379Y63242D01*
X174937Y62230D01*
X172839Y60621D01*
X171230Y58523D01*
X170635Y57087D01*
X169365D01*
X168770Y58523D01*
X167161Y60621D01*
X165063Y62230D01*
X162621Y63242D01*
X160000Y63587D01*
X157379Y63242D01*
X154937Y62230D01*
X152839Y60621D01*
X151230Y58523D01*
X150635Y57087D01*
X149365D01*
X148770Y58523D01*
X147161Y60621D01*
X145063Y62230D01*
X142621Y63242D01*
X140000Y63587D01*
X137379Y63242D01*
X134937Y62230D01*
X132839Y60621D01*
X131230Y58523D01*
X130635Y57087D01*
X129365D01*
X128770Y58523D01*
X127161Y60621D01*
X125063Y62230D01*
X122621Y63242D01*
X120000Y63587D01*
X117379Y63242D01*
X114937Y62230D01*
X112839Y60621D01*
X111230Y58523D01*
X110635Y57087D01*
X109365D01*
X108770Y58523D01*
X107161Y60621D01*
X105063Y62230D01*
X102621Y63242D01*
X102540Y63252D01*
Y50798D01*
Y38348D01*
X102621Y38358D01*
X105063Y39370D01*
X107161Y40979D01*
X108770Y43077D01*
X109365Y44513D01*
X110635D01*
X111230Y43077D01*
X112839Y40979D01*
X114937Y39370D01*
X117379Y38358D01*
X120000Y38013D01*
X122621Y38358D01*
X125063Y39370D01*
X127161Y40979D01*
X128770Y43077D01*
X129365Y44513D01*
X130635D01*
X131230Y43077D01*
X132839Y40979D01*
X134937Y39370D01*
X137379Y38358D01*
X140000Y38013D01*
X142621Y38358D01*
X145063Y39370D01*
X147161Y40979D01*
X148770Y43077D01*
X149365Y44513D01*
X150635D01*
X151230Y43077D01*
X152839Y40979D01*
X154937Y39370D01*
X157379Y38358D01*
X160000Y38013D01*
X162621Y38358D01*
X165063Y39370D01*
X167161Y40979D01*
X168770Y43077D01*
X169365Y44513D01*
X170635D01*
X171230Y43077D01*
X172839Y40979D01*
X174937Y39370D01*
X177379Y38358D01*
X180000Y38013D01*
X182621Y38358D01*
X185063Y39370D01*
X187161Y40979D01*
X188770Y43077D01*
X189365Y44513D01*
X190635D01*
X191230Y43077D01*
X192839Y40979D01*
X194937Y39370D01*
X197379Y38358D01*
X200000Y38013D01*
X202621Y38358D01*
X205063Y39370D01*
X207161Y40979D01*
X208770Y43077D01*
X209365Y44513D01*
X210635D01*
X211230Y43077D01*
X212839Y40979D01*
X214937Y39370D01*
X217379Y38358D01*
X220000Y38013D01*
X222621Y38358D01*
X225063Y39370D01*
X227161Y40979D01*
X228770Y43077D01*
X229782Y45519D01*
X230127Y48140D01*
Y53460D01*
X229782Y56081D01*
X228770Y58523D01*
X227161Y60621D01*
X225063Y62230D01*
X222621Y63242D01*
X220000Y63587D01*
D02*
G37*
G36*
X39370Y73660D02*
X30716D01*
X30774Y73216D01*
X31926Y70436D01*
X33758Y68048D01*
X36146Y66216D01*
X38926Y65064D01*
X39370Y65006D01*
Y73660D01*
D02*
G37*
%LPD*%
D14*
X-25400Y207433D02*
X12785D01*
X279400Y106680D02*
Y169333D01*
X88900Y96520D02*
Y130810D01*
X60000Y-12700D02*
Y81590D01*
X88900Y96520D02*
X95250Y90170D01*
X56388Y28448D02*
X60000Y32060D01*
X262890Y90170D02*
X279400Y106680D01*
X147320Y90170D02*
X262890D01*
X139700Y97790D02*
X147320Y90170D01*
X139700Y97790D02*
Y129540D01*
X133350Y135890D02*
X139700Y129540D01*
X120650Y135890D02*
X133350D01*
X114300Y129540D02*
X120650Y135890D01*
X114300Y96520D02*
Y129540D01*
X107950Y90170D02*
X114300Y96520D01*
X95250Y90170D02*
X107950D01*
X83820Y135890D02*
X88900Y130810D01*
X69850Y135890D02*
X83820D01*
X63500Y129540D02*
X69850Y135890D01*
X63500Y85090D02*
Y129540D01*
X60000Y81590D02*
X63500Y85090D01*
X0Y-12700D02*
Y50800D01*
X90150Y-35550D02*
X246390D01*
X80000Y-25400D02*
X90150Y-35550D01*
X80000Y-25400D02*
Y-12700D01*
X296333Y186267D02*
X327237D01*
X152400Y160020D02*
X177800Y185420D01*
X152400Y114300D02*
Y160020D01*
X127000Y90170D02*
Y114300D01*
Y90170D02*
X135890Y81280D01*
X238760D01*
X257810Y62230D01*
Y-24130D02*
Y62230D01*
X246390Y-35550D02*
X257810Y-24130D01*
X101600Y114300D02*
Y138430D01*
X85090Y154940D02*
X101600Y138430D01*
X25400Y154940D02*
X85090D01*
X12700Y142240D02*
X25400Y154940D01*
X12700Y93980D02*
Y142240D01*
X3810Y85090D02*
X12700Y93980D01*
X-19050Y85090D02*
X3810D01*
X-55880Y48260D02*
X-19050Y85090D01*
X-55880Y-12700D02*
Y48260D01*
Y-12700D02*
X-26670Y-41910D01*
X12700D01*
X20000Y-34610D01*
Y-12700D01*
X0Y28448D02*
X56388D01*
X76200Y114300D02*
X80000Y110500D01*
Y50800D02*
Y110500D01*
X50800Y110490D02*
Y114300D01*
X20000Y79690D02*
X50800Y110490D01*
X20000Y50800D02*
Y79690D01*
X504500Y38100D02*
Y103110D01*
X441438Y24798D02*
X491198D01*
X504500Y38100D01*
X50800Y266700D02*
Y277800D01*
X11100Y317500D02*
X50800Y277800D01*
X25400Y266700D02*
Y273200D01*
X1100Y297500D02*
X25400Y273200D01*
X-18900Y297500D02*
X1100D01*
X-28900Y307500D02*
X-18900Y297500D01*
X-28900Y307500D02*
Y317500D01*
X413832Y52404D02*
X441438Y24798D01*
X413832Y52404D02*
Y151104D01*
X360750Y204186D02*
X413832Y151104D01*
X291000Y204186D02*
X360750D01*
X287867Y201053D02*
X291000Y204186D01*
X287867Y186267D02*
Y201053D01*
X209448Y216217D02*
X370973D01*
X279400Y186267D02*
Y215362D01*
Y169333D02*
X287867D01*
X330200Y114300D02*
Y129032D01*
X304800Y154432D02*
X330200Y129032D01*
X304800Y154432D02*
Y169333D01*
Y114300D02*
Y139790D01*
X296333Y148257D02*
X304800Y139790D01*
X296333Y148257D02*
Y169333D01*
X228600Y266700D02*
Y283499D01*
X22097Y237997D02*
X50800Y266700D01*
X2684Y237997D02*
X22097D01*
X0Y235313D02*
X2684Y237997D01*
X0Y224367D02*
Y235313D01*
X6661Y247673D02*
X24024Y265037D01*
X-3678Y247673D02*
X6661D01*
X-8467Y242884D02*
X-3678Y247673D01*
X-8467Y224367D02*
Y242884D01*
X-16933Y249767D02*
X0Y266700D01*
X-16933Y224367D02*
Y249767D01*
X-25400Y224367D02*
Y266700D01*
X0D02*
Y275236D01*
X211736Y232232D02*
X375378D01*
X203200Y240768D02*
X211736Y232232D01*
X203200Y240768D02*
Y266700D01*
X444500Y63500D02*
Y142690D01*
X370973Y216217D02*
X444500Y142690D01*
X190469Y235195D02*
X209448Y216217D01*
X190469Y235195D02*
Y285705D01*
X195462Y290697D01*
X221402D01*
X228600Y283499D01*
X375378Y232232D02*
X504500Y103110D01*
X-48900Y305351D02*
Y317500D01*
Y305351D02*
X-31655Y288106D01*
X-12870D01*
X0Y275236D01*
X-88900Y290170D02*
Y317500D01*
Y290170D02*
X-65430Y266700D01*
X-25400D01*
X457526Y241626D02*
Y301152D01*
X463717Y325273D02*
X508000Y280990D01*
Y241300D02*
Y280990D01*
X330200Y266700D02*
Y299793D01*
X304800Y361362D02*
X310723Y367285D01*
X304800Y266700D02*
Y361362D01*
X98400Y352775D02*
Y405338D01*
X250800Y381500D02*
X278853Y353447D01*
X250800Y381500D02*
X250800D01*
X250800D02*
Y403847D01*
X241897Y412750D02*
X250800Y403847D01*
X105812Y412750D02*
X241897D01*
X98400Y405338D02*
X105812Y412750D01*
X63614Y317988D02*
X98400Y352775D01*
X63614Y232466D02*
Y317988D01*
X0Y168852D02*
X63614Y232466D01*
X0Y114300D02*
Y168852D01*
X225400Y381500D02*
Y398624D01*
X220164Y403860D02*
X225400Y398624D01*
X196850Y403860D02*
X220164D01*
X187309Y394319D02*
X196850Y403860D01*
X187309Y347586D02*
Y394319D01*
X152400Y312677D02*
X187309Y347586D01*
X152400Y266700D02*
Y312677D01*
X200000Y342454D02*
Y381500D01*
X177800Y320254D02*
X200000Y342454D01*
X177800Y266700D02*
Y320254D01*
X174600Y356356D02*
Y381500D01*
X139687Y321443D02*
X174600Y356356D01*
X139687Y248650D02*
Y321443D01*
X127519Y236482D02*
X139687Y248650D01*
X88668Y236482D02*
X127519D01*
X76200Y248950D02*
X88668Y236482D01*
X76200Y248950D02*
Y266700D01*
X101600Y335100D02*
X111080Y344580D01*
X149200Y381500D02*
Y389342D01*
X134977Y403565D02*
X149200Y389342D01*
X117656Y403565D02*
X134977D01*
X111080Y396989D02*
X117656Y403565D01*
X111080Y344580D02*
Y396989D01*
X101600Y266700D02*
Y335100D01*
X123800Y330700D02*
Y381500D01*
Y330700D02*
X127000Y327500D01*
Y266700D02*
Y327500D01*
D15*
X464500Y63500D02*
Y92390D01*
D16*
X351790Y400050D02*
D03*
X278853Y353447D02*
D03*
D17*
X508000Y241300D02*
D03*
X457200D02*
D03*
X558800D02*
D03*
D18*
X571500Y0D02*
D03*
X-25400Y114300D02*
D03*
X330200Y266700D02*
D03*
X0Y-12700D02*
D03*
Y50800D02*
D03*
X444500Y63500D02*
D03*
X11100Y317500D02*
D03*
X250800Y381500D02*
D03*
D19*
X591500Y0D02*
D03*
X330200Y114300D02*
D03*
X304800D02*
D03*
X279400D02*
D03*
X254000D02*
D03*
X228600D02*
D03*
X203200D02*
D03*
X177800D02*
D03*
X152400D02*
D03*
X127000D02*
D03*
X101600D02*
D03*
X76200D02*
D03*
X50800D02*
D03*
X25400D02*
D03*
X0D02*
D03*
X-25400Y266700D02*
D03*
X0D02*
D03*
X25400D02*
D03*
X50800D02*
D03*
X76200D02*
D03*
X101600D02*
D03*
X127000D02*
D03*
X152400D02*
D03*
X177800D02*
D03*
X203200D02*
D03*
X228600D02*
D03*
X254000D02*
D03*
X279400D02*
D03*
X304800D02*
D03*
X220000Y-12700D02*
D03*
X200000D02*
D03*
X180000D02*
D03*
X160000D02*
D03*
X140000D02*
D03*
X120000D02*
D03*
X100000D02*
D03*
X80000D02*
D03*
X60000D02*
D03*
X40000D02*
D03*
X20000D02*
D03*
X220000Y50800D02*
D03*
X200000D02*
D03*
X180000D02*
D03*
X160000D02*
D03*
X140000D02*
D03*
X120000D02*
D03*
X100000D02*
D03*
X80000D02*
D03*
X60000D02*
D03*
X40000D02*
D03*
X20000D02*
D03*
X524500Y63500D02*
D03*
X504500D02*
D03*
X484500D02*
D03*
X464500D02*
D03*
X-8900Y317500D02*
D03*
X-28900D02*
D03*
X-48900D02*
D03*
X-68900D02*
D03*
X-88900D02*
D03*
X225400Y381500D02*
D03*
X200000D02*
D03*
X174600D02*
D03*
X149200D02*
D03*
X123800D02*
D03*
X98400D02*
D03*
X73000D02*
D03*
D20*
X675800Y63500D02*
D03*
D21*
X737800D02*
D03*
D22*
X707800Y113500D02*
D03*
D23*
X675800Y51000D02*
D03*
Y76000D02*
D03*
D24*
X737800Y73500D02*
D03*
Y53500D02*
D03*
X697800Y113500D02*
D03*
X717800D02*
D03*
D25*
X98552Y13716D02*
D03*
X40386D02*
D03*
X124460Y139954D02*
D03*
X16002Y208280D02*
D03*
X41910Y76200D02*
D03*
X524500Y93970D02*
D03*
X464500Y92390D02*
D03*
X327660Y186690D02*
D03*
X177800Y185420D02*
D03*
X253642Y306516D02*
D03*
X423809Y305558D02*
D03*
X457526Y301152D02*
D03*
X463717Y325273D02*
D03*
X330200Y299793D02*
D03*
X310723Y367285D02*
D03*
D26*
X7010Y13970D02*
D03*
X26010D02*
D03*
D27*
X287867Y186267D02*
D03*
X279400D02*
D03*
X287867Y169333D02*
D03*
X279400D02*
D03*
X296333Y186267D02*
D03*
Y169333D02*
D03*
X304800Y186267D02*
D03*
Y169333D02*
D03*
X0Y207433D02*
D03*
Y224367D02*
D03*
X-8467Y207433D02*
D03*
Y224367D02*
D03*
X-16933Y207433D02*
D03*
Y224367D02*
D03*
X-25400Y207433D02*
D03*
Y224367D02*
D03*
D28*
X675800Y21060D02*
Y39570D01*
X654740Y0D02*
X675800Y21060D01*
X591500Y0D02*
X654740D01*
X407755D02*
X571500D01*
X330200Y77555D02*
X407755Y0D01*
X330200Y77555D02*
Y114300D01*
M02*
