%FSLAX44Y44*%
%MOMM*%
G71*
G01*
G75*
G04 Layer_Physical_Order=1*
G04 Layer_Color=255*
%ADD10R,2.2000X0.6000*%
%ADD11R,2.2000X0.6000*%
%ADD12R,1.5000X1.3000*%
%ADD13C,1.2700*%
%ADD14C,0.5080*%
%ADD15C,1.0160*%
%ADD16C,2.0320*%
%ADD17C,2.5400*%
%ADD18R,1.5000X2.0320*%
%ADD19O,1.5000X2.0320*%
%ADD20O,2.0000X4.5000*%
%ADD21O,2.0000X4.0000*%
%ADD22O,4.0000X2.0000*%
%ADD23C,1.5000*%
%ADD24C,1.5000*%
%ADD25C,1.7780*%
D10*
X342300Y361950D02*
D03*
D11*
X394300Y323850D02*
D03*
Y336550D02*
D03*
Y349250D02*
D03*
Y361950D02*
D03*
X342300Y323850D02*
D03*
Y336550D02*
D03*
Y349250D02*
D03*
D12*
X431800Y352400D02*
D03*
Y333400D02*
D03*
X279400Y327000D02*
D03*
Y308000D02*
D03*
X419100Y384200D02*
D03*
Y403200D02*
D03*
D13*
X40640Y-12060D02*
Y76200D01*
X40386Y13716D02*
X98552D01*
X631952Y230124D02*
Y306299D01*
X682736Y230124D01*
Y306299D01*
X758911D02*
X733519D01*
X746215D01*
Y242820D01*
X733519Y230124D01*
X720823D01*
X708127Y242820D01*
X784303Y306299D02*
X809695D01*
X796999D01*
Y230124D01*
X784303D01*
X809695D01*
X847782Y306299D02*
X898566D01*
X873174D01*
Y230124D01*
D14*
X56134Y208280D02*
X124460Y139954D01*
X16002Y208280D02*
X56134D01*
X354940Y403200D02*
X419100D01*
X177800Y185420D02*
X326390D01*
X255286Y308000D02*
X279400D01*
X405517Y323850D02*
X423809Y305558D01*
X394300Y323850D02*
X405517D01*
X431484Y352170D02*
X473964D01*
X457526Y301152D02*
X466919D01*
X485277Y319510D01*
Y340856D01*
X473964Y352170D02*
X485277Y340856D01*
X455590Y333400D02*
X463717Y325273D01*
X431800Y333400D02*
X455590D01*
X250800Y381500D02*
X279023Y353276D01*
X279023Y327377D02*
Y353276D01*
X283050Y349250D01*
X376088Y361950D02*
X409314D01*
X283050Y349250D02*
X363388D01*
X419002Y371638D02*
Y383988D01*
X409314Y361950D02*
X419002Y371638D01*
X394300Y336550D02*
X430355D01*
X394300Y349250D02*
X431448D01*
X330200Y299793D02*
Y322931D01*
X331119Y323850D01*
X342300D01*
X315416Y361950D02*
X342300D01*
X363388Y349250D02*
X376088Y361950D01*
X342300Y336550D02*
Y349250D01*
X796290Y-18296D02*
Y-43688D01*
X813218D01*
X821682Y-18296D02*
Y-22528D01*
X830146Y-30992D01*
X838610Y-22528D01*
Y-18296D01*
X830146Y-30992D02*
Y-43688D01*
X847074Y-18296D02*
X864001D01*
Y-22528D01*
X847074Y-39456D01*
Y-43688D01*
X864001D01*
D15*
X464500Y92390D02*
X522920D01*
D16*
X351790Y400050D02*
D03*
X278853Y353447D02*
D03*
D17*
X508000Y241300D02*
D03*
X457200D02*
D03*
X558800D02*
D03*
D18*
X571500Y0D02*
D03*
X-25400Y114300D02*
D03*
X330200Y266700D02*
D03*
X0Y-12700D02*
D03*
Y50800D02*
D03*
X444500Y63500D02*
D03*
X11100Y317500D02*
D03*
X250800Y381500D02*
D03*
D19*
X591500Y0D02*
D03*
X330200Y114300D02*
D03*
X304800D02*
D03*
X279400D02*
D03*
X254000D02*
D03*
X228600D02*
D03*
X203200D02*
D03*
X177800D02*
D03*
X152400D02*
D03*
X127000D02*
D03*
X101600D02*
D03*
X76200D02*
D03*
X50800D02*
D03*
X25400D02*
D03*
X0D02*
D03*
X-25400Y266700D02*
D03*
X0D02*
D03*
X25400D02*
D03*
X50800D02*
D03*
X76200D02*
D03*
X101600D02*
D03*
X127000D02*
D03*
X152400D02*
D03*
X177800D02*
D03*
X203200D02*
D03*
X228600D02*
D03*
X254000D02*
D03*
X279400D02*
D03*
X304800D02*
D03*
X220000Y-12700D02*
D03*
X200000D02*
D03*
X180000D02*
D03*
X160000D02*
D03*
X140000D02*
D03*
X120000D02*
D03*
X100000D02*
D03*
X80000D02*
D03*
X60000D02*
D03*
X40000D02*
D03*
X20000D02*
D03*
X220000Y50800D02*
D03*
X200000D02*
D03*
X180000D02*
D03*
X160000D02*
D03*
X140000D02*
D03*
X120000D02*
D03*
X100000D02*
D03*
X80000D02*
D03*
X60000D02*
D03*
X40000D02*
D03*
X20000D02*
D03*
X524500Y63500D02*
D03*
X504500D02*
D03*
X484500D02*
D03*
X464500D02*
D03*
X-8900Y317500D02*
D03*
X-28900D02*
D03*
X-48900D02*
D03*
X-68900D02*
D03*
X-88900D02*
D03*
X225400Y381500D02*
D03*
X200000D02*
D03*
X174600D02*
D03*
X149200D02*
D03*
X123800D02*
D03*
X98400D02*
D03*
X73000D02*
D03*
D20*
X675800Y63500D02*
D03*
D21*
X737800D02*
D03*
D22*
X707800Y113500D02*
D03*
D23*
X675800Y51000D02*
D03*
Y76000D02*
D03*
D24*
X737800Y73500D02*
D03*
Y53500D02*
D03*
X697800Y113500D02*
D03*
X717800D02*
D03*
D25*
X98552Y13716D02*
D03*
X40386D02*
D03*
X124460Y139954D02*
D03*
X16002Y208280D02*
D03*
X41910Y76200D02*
D03*
X524500Y93970D02*
D03*
X464500Y92390D02*
D03*
X327660Y186690D02*
D03*
X177800Y185420D02*
D03*
X253642Y306516D02*
D03*
X423809Y305558D02*
D03*
X457526Y301152D02*
D03*
X463717Y325273D02*
D03*
X330200Y299793D02*
D03*
X310723Y367285D02*
D03*
M02*
