M48
;Layer_Color=9474304
;FILE_FORMAT=4:4
METRIC,LZ
;TYPE=PLATED
T1F00S00C0.6000
T2F00S00C0.7620
T3F00S00C0.9000
T4F00S00C1.0000
T5F00S00C1.2192
T6F00S00C2.0000
T7F00S00C3.0000
;TYPE=NON_PLATED
T8F00S00C0.9000
%
T01
X005245Y0009397
X004645Y0009239
X0032766Y0018669
X001778Y0018542
X0012446Y00139954
X00098552Y00013716
X00040386
X0004191Y000762
X00016002Y0020828
X00253642Y00306516
X003302Y00299793
X00310723Y00367285
X00423809Y00305558
X00457526Y00301152
X00463717Y00325273
T02
X00278853Y00353447
X0035179Y0040005
T03
X004845Y000635
X005045
X005245
X005715Y0
X004645Y000635
X004445
X003302Y001143
X003048
X002794
X00254
X002286
X002032
X001778
X001524
X00127
X001016
X001Y000508
X0012
X0014
X0016
X0018
X002
X0022
Y-000127
X002
X0018
X0016
X0014
X0012
X001
X0008
X0006
X0004
X0002
X0
Y000508
X0002
X0004
X0006
X0008
X000762Y001143
X000508
X000254
X0
X-000254
Y002667
X0
X000254
X000508
X000762
X000111Y003175
X-000089
X-000289
X-000489
X-000689
X-000889
X00073Y003815
X000984
X001238
X001492
X001746
X002
X002254
X002508
X00254Y002667
X002286
X002032
X001778
X001524
X00127
X001016
X002794
X003048
X003302
T04
X006758Y00051
Y00076
X006978Y001135
X007178
X007378Y000735
Y000535
T05
X004572Y002413
X00508
X005588
T06
X-00102Y003565
X00913
T07
X00913Y-000385
X-00102
Y004065
X00913
T08
X005915Y0
M30
