M48
;Layer_Color=9474304
;FILE_FORMAT=4:4
METRIC,LZ
;TYPE=PLATED
T1F00S00C0.7112
T2F00S00C0.9000
T3F00S00C1.0000
T4F00S00C1.0160
T5F00S00C2.9997
T6F00S00C3.0000
%
T01
X00264287Y-0003048
X00556133Y-00036068
X00779145Y-00025146
X00810133Y-00035814
X00826389Y-00020574
X00909701Y-00051054
X00934847Y-00033274
X00919861Y00086868
X00996315
X01032129Y00021844
X00824611Y00009906
X00834517Y0007493
X00837057Y00094234
X00851281Y00112014
Y00164338
X00723265Y00229616
X00685165Y00113284
X00569849Y00113792
X00596773Y00141224
X00544957Y00156972
X00487807Y00265176
X00486537Y-00002794
X00580009Y-0000127
X00727329Y00031496
X00838073Y00357886
X00444627Y00016256
X0014192Y00100519
X00031877Y00161488
X0Y00421005
X00153289Y00614172
X00556387Y00555498
X00617855Y00559308
X00646811Y00531876
X00646303Y00475234
X00671449
X00696595Y00458724
X00721487Y00472694
X00773049Y00454406
X00818007Y00606298
X00867029
X00694055Y00636778
X00642588Y00632105
X00617855Y0063119
X00592455Y00648462
X00566547Y00663448
X00555625Y00742188
X00688467Y00769112
X00536321Y00463042
X00516255Y00460248
X00493395
X00922909Y00605536
X00967613Y00570738
X01108583
X00931545Y0070104
X00407797Y00783082
X00375285Y00845566
T02
X00462407Y-00023622
X00487807
X00513207
X00538607
X00574167
X00599567
X00624967
X00650367
X00675767
X00701167
X00726567
X00751967
X00884047Y-00003302
Y00022098
X00909447
Y-00003302
X00934847
Y00022098
X00960247
Y-00003302
X00985647
Y00022098
X01072007Y00042418
Y00067818
Y00093218
Y00118618
X00884047Y00113538
Y00088138
Y00138938
Y00164338
X00939927Y00194818
Y00220218
Y00245618
Y00271018
X00198247
Y00245618
Y00220218
Y00194818
Y00296418
Y00321818
Y00347218
Y00372618
X00076327
Y00347218
Y00321818
Y00296418
Y00271018
Y00245618
Y00220218
Y00194818
X00000127
Y00220218
Y00245618
Y00271018
Y00296418
Y00321818
Y00347218
Y00372618
X00040132Y00114808
Y00089408
Y00064008
Y00038608
X00198247Y00398018
X00567055Y00580898
X00592455
X00617855
X00643255
X00668655
X00694055
X00719455
X00744855
X00770255
X00795655
Y00606298
X00770255
X00744855
X00719455
X00694055
X00668655
X00643255
X00617855
X00592455
X00567055
X00982021Y00739648
X01007421
X01032821
X01058221
Y0077232
X01032821
X01007421
X00982021
Y008028
X01007421
X01032821
X01058221
T03
X00050673Y0063119
Y0068072
Y0075311
X00279527Y00748538
X00311277
Y00697738
X00279527
Y00799338
X00311277
X00050673Y0080264
T04
X00493649Y00039878
X00519049
X00544449
X00569849
X00595249
X00620649
X00646049
X00671449
X00620649Y00065278
X00595249
X00569849
X00544449
X00519049
X00773049Y00169418
X00798449
Y00194818
Y00220218
Y00245618
Y00271018
Y00296418
Y00321818
X00773049
Y00296418
X00418719
Y00271018
Y00245618
Y00220218
Y00194818
Y00118618
X00417449Y00065278
X00442849Y00039878
X00468249
X00418719Y00321818
Y00347218
Y00372618
X00417449Y00400558
Y00425958
X00442849
X00468249
X00442849Y00400558
X0030988Y00697738
X00305816
X00300482
X0029591
X00291084
X0028829
X0028321
X00283337Y00748538
X00288798
X0029464
X00300736
X00305562
X00308864
X00493649Y00425958
Y00400558
X00519049
X00620649Y00425958
X00646049
Y00400558
X00671449
Y00425958
X00696849
Y00400558
X00722249
Y00425958
X00747649
Y00400558
X00773049Y00425958
X00798449
X0030607Y00799338
X0030226
X00294894
X00287782
X0028194
T05
X0015Y00031
T06
X01135126Y00004064
X0Y0
X01137285Y00412496
X01137412Y00856488
X-00000889
M30
