%FSLAX44Y44*%
%MOMM*%
G71*
G01*
G75*
G04 Layer_Physical_Order=2*
G04 Layer_Color=16711680*
%ADD10R,2.1500X3.5000*%
%ADD11R,2.1500X1.1000*%
%ADD12R,2.1500X1.1000*%
%ADD13R,3.0000X3.5000*%
%ADD14R,1.6510X1.6510*%
%ADD15R,5.0000X4.0000*%
%ADD16C,1.0160*%
%ADD17C,0.8890*%
%ADD18C,1.2700*%
%ADD19C,0.7620*%
%ADD20C,1.5240*%
%ADD21C,0.5080*%
%ADD22C,2.4892*%
%ADD23C,5.0038*%
%ADD24R,1.5000X1.5000*%
%ADD25C,1.5000*%
%ADD26R,1.5000X1.5000*%
%ADD27C,1.5240*%
%ADD28C,2.5000*%
%ADD29C,1.5000*%
%ADD30R,1.5000X1.5000*%
%ADD31C,1.2700*%
%ADD32R,1.5000X2.0000*%
%ADD33R,1.6510X1.6510*%
%ADD34R,1.2000X4.0000*%
%ADD35R,5.5000X1.5000*%
%ADD36R,3.0000X5.0000*%
%ADD37R,9.9240X11.0700*%
%ADD38R,1.2000X3.0000*%
%ADD39C,2.5400*%
%ADD40C,2.0320*%
D16*
X407100Y782385D02*
Y824295D01*
X56769Y398018D02*
X359283D01*
X513461Y-44704D02*
Y-22098D01*
X509905Y-48260D02*
X513461Y-44704D01*
X240665Y-30480D02*
X386461D01*
X242570D02*
Y13716D01*
X139700Y77978D02*
X178308D01*
X391033Y766318D02*
X407100Y782385D01*
X178308Y77978D02*
X242570Y13716D01*
X127Y55499D02*
Y372618D01*
X101854Y40132D02*
X139700Y77978D01*
X41656Y40132D02*
X101854D01*
X40132Y38608D02*
X41656Y40132D01*
X17018Y38608D02*
X40132D01*
X132269Y100519D02*
X141920D01*
X95758Y64008D02*
X132269Y100519D01*
X40132Y64008D02*
X95758D01*
X543687Y-23622D02*
X556133Y-36068D01*
X538607Y-23622D02*
X543687D01*
X31877Y161488D02*
Y373126D01*
X56769Y398018D01*
X931545Y701040D02*
X957707Y674878D01*
X990219D01*
X726567Y-23622D02*
Y26670D01*
X922147Y606298D02*
X922909Y605536D01*
X867029Y606298D02*
X922147D01*
X795655D02*
X818007D01*
X777621Y-23622D02*
X779145Y-25146D01*
X751967Y-23622D02*
X777621D01*
X836549Y357886D02*
X966089D01*
X1108837Y215138D01*
Y101346D02*
Y215138D01*
X1100709Y93218D02*
X1108837Y101346D01*
X1072007Y93218D02*
X1100709D01*
X1072007Y118618D02*
Y208280D01*
X983869Y296418D02*
X1072007Y208280D01*
X798449Y296418D02*
X983869D01*
X19685Y753110D02*
X50673D01*
X8001Y741426D02*
X19685Y753110D01*
X8001Y642620D02*
Y741426D01*
Y642620D02*
X19431Y631190D01*
X108839Y632206D02*
X153289Y676656D01*
X279527Y697738D02*
X311277D01*
X279527D02*
X284607Y692658D01*
Y484378D02*
Y692658D01*
X335407Y428498D02*
Y484378D01*
X19431Y631190D02*
X107823D01*
X798449Y169418D02*
X812419D01*
X842899Y138938D01*
X884047D01*
X851281Y164338D02*
X884047D01*
X773049Y148082D02*
Y169418D01*
Y148082D02*
X809117Y112014D01*
X851281D01*
X359283Y398018D02*
X391033Y429768D01*
Y766318D01*
X1053719Y651510D02*
Y676148D01*
Y651510D02*
X1058037Y647192D01*
X990219Y643636D02*
Y674878D01*
X986917Y640334D02*
X990219Y643636D01*
X986917Y626618D02*
Y640334D01*
X1012317Y674878D02*
Y696214D01*
X1022731Y706628D01*
X1064895D01*
X1075817Y695706D01*
Y676148D02*
Y695706D01*
X1058037Y626618D02*
Y647192D01*
X407100Y824295D02*
X428879Y846074D01*
X773049D01*
X815053Y804070D01*
X861371D01*
X555625Y713740D02*
Y742188D01*
Y713740D02*
X566935Y702430D01*
X798449Y271018D02*
X939927D01*
X798449Y245618D02*
X939927D01*
X798449Y220218D02*
X939927D01*
X798449Y194818D02*
X939927D01*
X646049Y39878D02*
X647065D01*
X646049Y38100D02*
Y39878D01*
X386461Y-30480D02*
X404241Y-48260D01*
X509905D01*
X127Y55499D02*
X17018Y38608D01*
X566935Y702430D02*
X876561D01*
D17*
X513207Y-44958D02*
X521343Y-53094D01*
X417957Y119634D02*
X460121D01*
X810133Y-35814D02*
X810221Y-27092D01*
X825881Y8382D02*
X837565Y-3302D01*
X884047D01*
X567055Y606298D02*
Y659638D01*
X722495Y-53094D02*
X751967Y-23622D01*
X521343Y-53094D02*
X722495D01*
X693293Y113284D02*
X826389Y-20574D01*
X685165Y113284D02*
X693293D01*
X773049Y250952D02*
Y298196D01*
X751713Y229616D02*
X773049Y250952D01*
X723265Y229616D02*
X751713D01*
X934847Y-33274D02*
Y-3302D01*
X620649Y65278D02*
X719708D01*
X810221Y-27092D01*
X569849Y65278D02*
Y113792D01*
X909447Y-34544D02*
X909701Y-51054D01*
X909447Y-34544D02*
Y-3302D01*
X544449Y65278D02*
X544957Y65786D01*
Y156972D01*
X460121Y119634D02*
X516255Y175768D01*
X837057Y94234D02*
X872109Y59182D01*
X908431D01*
X934847Y32766D01*
Y22098D02*
Y32766D01*
X834517Y74930D02*
X864235Y45212D01*
X894969D01*
X909447Y30734D01*
Y22098D02*
Y30734D01*
X596519Y66548D02*
Y141224D01*
X851027Y22098D02*
X884047D01*
X697357Y175768D02*
X851027Y22098D01*
X516255Y175768D02*
X697357D01*
X884047Y-6858D02*
Y-3302D01*
D18*
X142113Y845566D02*
X376555D01*
X14605Y802640D02*
X99187D01*
X142113Y845566D01*
X982021Y802800D02*
X1058221D01*
X1076579Y67818D02*
X1099947Y44450D01*
X967613Y405130D02*
X1128522Y244221D01*
X1059815Y570738D02*
X1108583D01*
X941959Y653796D02*
X967613Y628142D01*
X925195Y653796D02*
X941959D01*
X982021Y739648D02*
X1058221D01*
X996315Y86868D02*
X1016127Y67056D01*
X985647Y-3302D02*
X1067943D01*
X1099947Y28702D02*
Y44450D01*
X282265Y747466D02*
X283337Y748538D01*
X315087D01*
X-15367Y772668D02*
X14605Y802640D01*
X-15367Y562102D02*
Y772668D01*
Y562102D02*
X48641Y498094D01*
X179705D01*
X249301Y428498D01*
X284607D01*
X50673Y680720D02*
Y694436D01*
X103703Y747466D01*
X282265D01*
X861371Y804070D02*
X980751D01*
X982021Y802800D01*
X981513Y739140D02*
X982021Y739648D01*
X1012317Y647192D02*
Y674878D01*
Y647192D02*
X1016127Y643382D01*
Y626618D02*
Y643382D01*
X1075817Y668782D02*
Y676148D01*
Y668782D02*
X1087247Y657352D01*
Y626618D02*
Y657352D01*
X986917Y592328D02*
Y626618D01*
Y592328D02*
X1005967Y573278D01*
X1056259Y569468D02*
X1058037Y571246D01*
X860171Y739140D02*
X981513D01*
X1058037Y572516D02*
X1059815Y570738D01*
X1058037Y571246D02*
Y628396D01*
X1067943Y-3302D02*
X1099947Y28702D01*
X1128522Y85725D02*
Y244221D01*
X1109853Y67056D02*
X1128522Y85725D01*
X864489Y714502D02*
Y739140D01*
X883285Y86868D02*
X919861D01*
X1016127Y67056D02*
X1109853D01*
X967613Y405130D02*
Y628142D01*
X864489Y714502D02*
X925195Y653796D01*
D19*
X696849Y381000D02*
Y400558D01*
X656463Y340614D02*
X696849Y381000D01*
X656463Y339344D02*
Y340614D01*
X426085Y16256D02*
X444627D01*
X417449Y24892D02*
X426085Y16256D01*
X457073Y-18288D02*
X462407Y-23622D01*
X656971Y205740D02*
X773049Y321818D01*
X487001Y205740D02*
X656971D01*
X435947Y154686D02*
X487001Y205740D01*
X798449Y321818D02*
Y337820D01*
X789813Y346456D02*
X798449Y337820D01*
X757301Y346456D02*
X789813D01*
X637417Y226572D02*
X757301Y346456D01*
X486795Y226572D02*
X637417D01*
X429387Y169164D02*
X486795Y226572D01*
X493649Y400558D02*
Y401320D01*
X582549Y322580D02*
X665353D01*
X722503Y379730D01*
X601599Y387096D02*
X614553Y374142D01*
X635889D01*
X646049Y384302D01*
Y400558D01*
X605155Y354076D02*
X647319D01*
X671449Y378206D01*
Y400558D01*
X597027Y339344D02*
X656463D01*
X795655Y580898D02*
X798449Y578104D01*
Y425958D02*
Y578104D01*
X770255Y489204D02*
Y580898D01*
X747649Y466598D02*
X770255Y489204D01*
X747649Y425958D02*
Y466598D01*
X744855Y529590D02*
Y580898D01*
X706247Y490982D02*
X744855Y529590D01*
X633857Y490982D02*
X706247D01*
X620649Y477774D02*
X633857Y490982D01*
X620649Y425958D02*
Y477774D01*
X719455Y534670D02*
Y580898D01*
X687451Y502666D02*
X719455Y534670D01*
X623951Y502666D02*
X687451D01*
X601599Y480314D02*
X623951Y502666D01*
X601599Y387096D02*
Y480314D01*
X694055Y538226D02*
Y580898D01*
X670941Y515112D02*
X694055Y538226D01*
X584581Y484886D02*
X614807Y515112D01*
X584581Y374650D02*
Y484886D01*
Y374650D02*
X605155Y354076D01*
X614807Y515112D02*
X670941D01*
X643255Y558038D02*
Y580898D01*
X570865Y365506D02*
Y510794D01*
Y365506D02*
X597027Y339344D01*
X592455Y556260D02*
Y580898D01*
X557403Y521208D02*
X592455Y556260D01*
X557403Y347726D02*
Y521208D01*
Y347726D02*
X582549Y322580D01*
X722503Y379730D02*
Y402082D01*
X770255Y606298D02*
Y624840D01*
X779907Y634492D01*
X825881D01*
X835279Y625094D01*
Y419862D02*
Y625094D01*
X815975Y400558D02*
X835279Y419862D01*
X747649Y400558D02*
X815975D01*
X744855Y606298D02*
Y627126D01*
X766953Y649224D01*
X830199D01*
X852551Y626872D01*
Y415798D02*
Y626872D01*
X807339Y370586D02*
X852551Y415798D01*
X742823Y370586D02*
X807339D01*
X676529Y304292D02*
X742823Y370586D01*
X555879Y304292D02*
X676529D01*
X519049Y341122D02*
X555879Y304292D01*
X519049Y341122D02*
Y400558D01*
X719455Y606298D02*
Y637794D01*
X667544Y689705D02*
X719455Y637794D01*
X532098Y689705D02*
X667544D01*
X472821Y630428D02*
X532098Y689705D01*
X472821Y454152D02*
Y630428D01*
X468249Y449580D02*
X472821Y454152D01*
X468249Y425958D02*
Y449580D01*
X668655Y606298D02*
Y659638D01*
X650621Y677672D02*
X668655Y659638D01*
X549021Y677672D02*
X650621D01*
X536321Y664972D02*
X549021Y677672D01*
X536321Y463042D02*
Y664972D01*
X419227Y195326D02*
X487807Y265176D01*
X418719Y194818D02*
X419227Y195326D01*
X721487Y426720D02*
Y472694D01*
X694055Y606298D02*
Y636778D01*
X773049Y425958D02*
Y454406D01*
X642588Y606965D02*
Y632105D01*
Y606965D02*
X643255Y606298D01*
X647319Y427228D02*
Y475234D01*
X646811Y531876D02*
X655447D01*
X668655Y545084D01*
Y580898D01*
X619379Y534162D02*
X643255Y558038D01*
X671449Y425958D02*
Y474980D01*
X617855Y558038D02*
Y580898D01*
X570865Y510794D02*
X594233Y534162D01*
X619379D01*
X567055Y566166D02*
Y580898D01*
X556387Y555498D02*
X567055Y566166D01*
X696849Y425958D02*
Y458470D01*
X493649Y425958D02*
Y459994D01*
X592455Y606298D02*
Y648462D01*
X617855Y606298D02*
Y631190D01*
X516255Y424434D02*
Y460248D01*
X493649Y401828D02*
X516255Y424434D01*
X76327Y372618D02*
X418719D01*
X76327Y347218D02*
X418719D01*
X75819Y321818D02*
X418719D01*
X76327Y296418D02*
X418719D01*
X76327Y271018D02*
X418719D01*
X76327Y245618D02*
X418719D01*
X76327Y220218D02*
X418719D01*
X76327Y194818D02*
X198247D01*
X646049Y39878D02*
X647573D01*
X620649D02*
X623189D01*
X595249D02*
X598805D01*
X569849D02*
X572135D01*
X519049Y31496D02*
Y39878D01*
Y31496D02*
X574167Y-23622D01*
X519049Y65278D02*
Y85852D01*
X504063Y100838D02*
X519049Y85852D01*
X410845Y100838D02*
X504063D01*
X390779Y80772D02*
X410845Y100838D01*
X486537Y-24384D02*
Y-2794D01*
X544449Y32004D02*
Y39878D01*
Y32004D02*
X580009Y-1270D01*
X390779Y-3302D02*
X405765Y-18288D01*
X457073D01*
X390779Y-3302D02*
Y80772D01*
X569849Y36576D02*
Y39878D01*
Y36576D02*
X599567Y6858D01*
Y-23622D02*
Y6858D01*
X595249Y36068D02*
Y39878D01*
Y36068D02*
X624967Y6350D01*
Y-23622D02*
Y6350D01*
X620649Y37084D02*
Y39878D01*
Y37084D02*
X650367Y7366D01*
Y-23622D02*
Y7366D01*
X620395Y41148D02*
X621919D01*
X646049Y38100D02*
X675767Y8382D01*
Y-23622D02*
Y8382D01*
X671449Y39878D02*
X672973D01*
X701167Y11684D01*
Y-23622D02*
Y11684D01*
X417449Y24892D02*
Y65278D01*
X94234Y114808D02*
X148590Y169164D01*
X429387D01*
X95504Y89408D02*
X160782Y154686D01*
X40132Y89408D02*
X95504D01*
X160782Y154686D02*
X435947D01*
X40132Y114808D02*
X94234D01*
D20*
X982021Y772320D02*
X1120107D01*
X1084359D02*
X1095121Y783082D01*
X1081499Y772320D02*
X1093089Y760730D01*
X1070483Y464566D02*
X1072261Y466344D01*
X690245Y770890D02*
X980591D01*
X985647Y22098D02*
X1051687D01*
X985647D02*
Y52832D01*
X924941Y113538D02*
X985647Y52832D01*
X884047Y113538D02*
X924941D01*
X1051687Y22098D02*
X1072007Y42418D01*
X0Y372745D02*
Y421005D01*
X153289Y676656D02*
X157099Y680466D01*
X153289Y614172D02*
Y676656D01*
X980591Y770890D02*
X982021Y772320D01*
X1095121Y783082D02*
Y814578D01*
X1073879Y835820D02*
X1095121Y814578D01*
X861371Y835820D02*
X1073879D01*
X1093089Y693420D02*
Y760730D01*
X1075817Y676148D02*
X1093089Y693420D01*
X688467Y769112D02*
X690245Y770890D01*
X1064641Y455168D02*
X1070483Y449326D01*
D21*
X519049Y60706D02*
Y65278D01*
D22*
X306070Y799338D02*
D03*
X302260D02*
D03*
X294894D02*
D03*
X287782D02*
D03*
X281940D02*
D03*
X308864Y748538D02*
D03*
X305562D02*
D03*
X300736D02*
D03*
X294640D02*
D03*
X288798D02*
D03*
X283337D02*
D03*
X309880Y697738D02*
D03*
X305816D02*
D03*
X300482D02*
D03*
X295910D02*
D03*
X291084D02*
D03*
X288290D02*
D03*
X283210D02*
D03*
D23*
X150000Y31000D02*
D03*
X1137285Y412496D02*
D03*
X-889Y856488D02*
D03*
X1137412D02*
D03*
X1135126Y4064D02*
D03*
X0Y0D02*
D03*
D24*
X982021Y802800D02*
D03*
X751967Y-23622D02*
D03*
X982021Y772320D02*
D03*
Y739648D02*
D03*
X462407Y-23622D02*
D03*
X795655Y606298D02*
D03*
X985647Y22098D02*
D03*
D25*
X1007421Y802800D02*
D03*
X1032821D02*
D03*
X1058221D02*
D03*
X574167Y-23622D02*
D03*
X599567D02*
D03*
X624967D02*
D03*
X650367D02*
D03*
X675767D02*
D03*
X701167D02*
D03*
X726567D02*
D03*
X939927Y245618D02*
D03*
Y220218D02*
D03*
Y194818D02*
D03*
X884047Y113538D02*
D03*
Y138938D02*
D03*
Y164338D02*
D03*
X40132Y64008D02*
D03*
X1072007Y67818D02*
D03*
Y42418D02*
D03*
X50673Y631190D02*
D03*
Y680720D02*
D03*
X1007421Y772320D02*
D03*
X1032821D02*
D03*
X1058221D02*
D03*
X1007421Y739648D02*
D03*
X1032821D02*
D03*
X1058221D02*
D03*
X198247Y372618D02*
D03*
Y194818D02*
D03*
Y220218D02*
D03*
Y245618D02*
D03*
Y271018D02*
D03*
Y296418D02*
D03*
Y321818D02*
D03*
Y347218D02*
D03*
X50673Y753110D02*
D03*
Y802640D02*
D03*
X487807Y-23622D02*
D03*
X513207D02*
D03*
X538607D02*
D03*
X40132Y114808D02*
D03*
Y89408D02*
D03*
X1072007Y93218D02*
D03*
X795655Y580898D02*
D03*
X770255Y606298D02*
D03*
Y580898D02*
D03*
X744855Y606298D02*
D03*
Y580898D02*
D03*
X719455Y606298D02*
D03*
Y580898D02*
D03*
X694055Y606298D02*
D03*
Y580898D02*
D03*
X668655Y606298D02*
D03*
Y580898D02*
D03*
X643255Y606298D02*
D03*
Y580898D02*
D03*
X617855Y606298D02*
D03*
Y580898D02*
D03*
X592455Y606298D02*
D03*
Y580898D02*
D03*
X567055Y606298D02*
D03*
Y580898D02*
D03*
X884047Y-3302D02*
D03*
Y22098D02*
D03*
X909447Y-3302D02*
D03*
Y22098D02*
D03*
X934847Y-3302D02*
D03*
Y22098D02*
D03*
X960247Y-3302D02*
D03*
Y22098D02*
D03*
X985647Y-3302D02*
D03*
D26*
X939927Y271018D02*
D03*
X884047Y88138D02*
D03*
X40132Y38608D02*
D03*
X198247Y398018D02*
D03*
X1072007Y118618D02*
D03*
D27*
X418719D02*
D03*
Y194818D02*
D03*
Y220218D02*
D03*
Y245618D02*
D03*
Y271018D02*
D03*
Y296418D02*
D03*
Y321818D02*
D03*
Y347218D02*
D03*
Y372618D02*
D03*
X798449Y169418D02*
D03*
X773049D02*
D03*
X798449Y194818D02*
D03*
Y220218D02*
D03*
Y245618D02*
D03*
Y271018D02*
D03*
X468249Y425958D02*
D03*
X493649Y400558D02*
D03*
Y425958D02*
D03*
X519049Y400558D02*
D03*
X620649Y425958D02*
D03*
X646049Y400558D02*
D03*
Y425958D02*
D03*
X671449Y400558D02*
D03*
Y425958D02*
D03*
X696849Y400558D02*
D03*
Y425958D02*
D03*
X722249Y400558D02*
D03*
Y425958D02*
D03*
X747649Y400558D02*
D03*
Y425958D02*
D03*
X773049D02*
D03*
X798449D02*
D03*
X417449Y65278D02*
D03*
X442849Y39878D02*
D03*
X468249D02*
D03*
X493649D02*
D03*
X569849D02*
D03*
X595249D02*
D03*
X620649D02*
D03*
X646049D02*
D03*
X671449D02*
D03*
X544449Y65278D02*
D03*
X417449Y400558D02*
D03*
Y425958D02*
D03*
X442849Y400558D02*
D03*
Y425958D02*
D03*
X569849Y65278D02*
D03*
X595249D02*
D03*
X544449Y39878D02*
D03*
X519049Y65278D02*
D03*
X798449Y321818D02*
D03*
X773049D02*
D03*
X798449Y296418D02*
D03*
X773049D02*
D03*
X519049Y39878D02*
D03*
X620649Y65278D02*
D03*
D28*
X279527Y697738D02*
D03*
X311277D02*
D03*
X279527Y748538D02*
D03*
X311277D02*
D03*
X279527Y799338D02*
D03*
X311277D02*
D03*
D29*
X76327Y194818D02*
D03*
Y220218D02*
D03*
Y245618D02*
D03*
Y271018D02*
D03*
Y296418D02*
D03*
Y321818D02*
D03*
Y347218D02*
D03*
Y372618D02*
D03*
X127Y347218D02*
D03*
Y321818D02*
D03*
Y296418D02*
D03*
Y271018D02*
D03*
Y245618D02*
D03*
Y220218D02*
D03*
Y194818D02*
D03*
D30*
Y372618D02*
D03*
D31*
X556133Y-36068D02*
D03*
X31877Y161488D02*
D03*
X824611Y9906D02*
D03*
X931545Y701040D02*
D03*
X375285Y845566D02*
D03*
X141920Y100519D02*
D03*
X1108583Y570738D02*
D03*
X566547Y663448D02*
D03*
X922909Y605536D02*
D03*
X867029Y606298D02*
D03*
X967613Y570738D02*
D03*
X818007Y606298D02*
D03*
X264287Y-30480D02*
D03*
X779145Y-25146D02*
D03*
X727329Y31496D02*
D03*
X685165Y113284D02*
D03*
X826389Y-20574D02*
D03*
X934847Y-33274D02*
D03*
X919861Y86868D02*
D03*
X996315D02*
D03*
X1032129Y21844D02*
D03*
X723265Y229616D02*
D03*
X838073Y357886D02*
D03*
X569849Y113792D02*
D03*
X909701Y-51054D02*
D03*
X810133Y-35814D02*
D03*
X544957Y156972D02*
D03*
X596773Y141224D02*
D03*
X837057Y94234D02*
D03*
X834517Y74930D02*
D03*
X536321Y463042D02*
D03*
X487807Y265176D02*
D03*
X646811Y531876D02*
D03*
X646303Y475234D02*
D03*
X721487Y472694D02*
D03*
X694055Y636778D02*
D03*
X773049Y454406D02*
D03*
X642588Y632105D02*
D03*
X617855Y559308D02*
D03*
X671449Y475234D02*
D03*
X556387Y555498D02*
D03*
X696595Y458724D02*
D03*
X592455Y648462D02*
D03*
X493395Y460248D02*
D03*
X617855Y631190D02*
D03*
X516255Y460248D02*
D03*
X0Y421005D02*
D03*
X153289Y614172D02*
D03*
X851281Y164338D02*
D03*
Y112014D02*
D03*
X407797Y783082D02*
D03*
X688467Y769112D02*
D03*
X555625Y742188D02*
D03*
X486537Y-2794D02*
D03*
X580009Y-1270D02*
D03*
X444627Y16256D02*
D03*
D32*
X986917Y626618D02*
D03*
X1016127D02*
D03*
X1087247D02*
D03*
X1058037D02*
D03*
D33*
X860171Y739140D02*
D03*
Y770890D02*
D03*
X861371Y804070D02*
D03*
Y835820D02*
D03*
D34*
X284607Y484378D02*
D03*
X335407D02*
D03*
Y428498D02*
D03*
X284607D02*
D03*
D35*
X157099Y747466D02*
D03*
Y680466D02*
D03*
D36*
X1056767Y573278D02*
D03*
X1005967D02*
D03*
D37*
X1030367Y465328D02*
D03*
D38*
X990219Y674878D02*
D03*
X1012317D02*
D03*
X1053719Y676148D02*
D03*
X1075817D02*
D03*
D39*
X279527Y799338D02*
X311277D01*
X1034796Y467614D02*
X1139825D01*
Y752602D01*
D40*
X1120107Y772320D02*
X1139825Y752602D01*
M02*
