%FSLAX44Y44*%
%MOMM*%
G71*
G01*
G75*
G04 Layer_Color=16711935*
%ADD10R,2.1500X3.5000*%
%ADD11R,2.1500X1.1000*%
%ADD12R,2.1500X1.1000*%
%ADD13R,3.0000X3.5000*%
%ADD14R,1.6510X1.6510*%
%ADD15R,5.0000X4.0000*%
%ADD16C,1.0160*%
%ADD17C,0.8890*%
%ADD18C,1.2700*%
%ADD19C,0.7620*%
%ADD20C,1.5240*%
%ADD21C,0.5080*%
%ADD22C,2.4892*%
%ADD23C,5.0038*%
%ADD24R,1.5000X1.5000*%
%ADD25C,1.5000*%
%ADD26R,1.5000X1.5000*%
%ADD27C,1.5240*%
%ADD28C,2.5000*%
%ADD29C,1.5000*%
%ADD30R,1.5000X1.5000*%
%ADD31C,1.2700*%
%ADD32R,1.5000X2.0000*%
%ADD33R,1.6510X1.6510*%
%ADD34R,1.2000X4.0000*%
%ADD35R,5.5000X1.5000*%
%ADD36R,3.0000X5.0000*%
%ADD37R,9.9240X11.0700*%
%ADD38R,1.2000X3.0000*%
%ADD39C,2.5400*%
%ADD40C,2.0320*%
%ADD41C,0.2540*%
D41*
X1156103Y-62750D02*
X1158581Y-62506D01*
X1160963Y-61783D01*
X1163159Y-60610D01*
X1165083Y-59030D01*
X1166663Y-57106D01*
X1167836Y-54910D01*
X1168559Y-52528D01*
X1168803Y-50050D01*
X1168802Y874570D02*
X1168558Y877048D01*
X1167836Y879430D01*
X1166662Y881626D01*
X1165083Y883550D01*
X1163158Y885130D01*
X1160963Y886303D01*
X1158580Y887026D01*
X1156102Y887270D01*
X-31197Y-49900D02*
X-30953Y-52378D01*
X-30230Y-54760D01*
X-29057Y-56956D01*
X-27477Y-58880D01*
X-25553Y-60460D01*
X-23357Y-61633D01*
X-20975Y-62356D01*
X-18497Y-62600D01*
X-18347Y887210D02*
X-20825Y886966D01*
X-23207Y886243D01*
X-25403Y885070D01*
X-27327Y883490D01*
X-28907Y881566D01*
X-30080Y879370D01*
X-30803Y876988D01*
X-31047Y874510D01*
X-18497Y-62750D02*
X1155745D01*
X1013803D02*
X1103803D01*
X1168803Y-52750D02*
Y866278D01*
X-18457Y887250D02*
X1155491D01*
X-31197Y-50050D02*
Y874510D01*
X1168802Y866277D02*
Y874570D01*
M02*
