%FSLAX44Y44*%
%MOMM*%
G71*
G01*
G75*
G04 Layer_Physical_Order=2*
G04 Layer_Color=16711680*
%ADD10C,0.2540*%
%ADD11C,1.2700*%
%ADD12C,0.7620*%
%ADD13C,2.0320*%
%ADD14C,2.1590*%
%ADD15R,2.1590X2.1590*%
%ADD16C,3.0000*%
%ADD17R,2.1590X2.1590*%
%ADD18C,1.2700*%
%ADD19C,2.0320*%
D10*
X1340485Y848360D02*
X1340245Y851217D01*
X1339532Y853995D01*
X1338367Y856615D01*
X1334858Y835660D02*
X1336507Y837379D01*
X1337901Y839309D01*
X1339015Y841415D01*
X1339827Y843654D01*
X1340320Y845984D01*
X1340485Y848360D01*
X1308313Y856615D02*
X1307257Y854301D01*
X1306555Y851856D01*
X1306223Y849334D01*
X1306267Y846791D01*
X1306687Y844282D01*
X1307474Y841863D01*
X1308610Y839587D01*
X1310070Y837504D01*
X1311822Y835660D01*
X1278255Y943610D02*
X1278062Y946177D01*
X1277486Y948687D01*
X1276541Y951082D01*
X1275248Y953308D01*
X1273637Y955316D01*
X1271742Y957060D01*
X1269609Y958501D01*
X1267283Y959605D01*
X1264818Y960349D01*
X1262270Y960716D01*
X1259695Y960696D01*
X1257152Y960292D01*
X1254699Y959511D01*
X1252390Y958372D01*
X1250278Y956900D01*
X1248410Y955128D01*
X1273810Y932092D02*
X1275363Y934081D01*
X1276608Y936277D01*
X1277516Y938631D01*
X1278069Y941093D01*
X1278255Y943610D01*
X1248410Y955128D02*
X1246524Y956914D01*
X1244390Y958396D01*
X1242056Y959537D01*
X1239577Y960313D01*
X1237009Y960706D01*
X1234411D01*
X1231843Y960313D01*
X1229364Y959537D01*
X1227030Y958396D01*
X1224896Y956914D01*
X1223010Y955128D01*
X1278255Y842010D02*
X1278090Y844386D01*
X1277597Y846716D01*
X1276785Y848955D01*
X1275671Y851061D01*
X1274277Y852991D01*
X1272628Y854710D01*
X1273602Y909955D02*
X1275009Y911839D01*
X1276133Y913904D01*
X1276954Y916107D01*
X1277453Y918405D01*
X1277620Y920750D01*
X1277462Y923031D01*
X1276989Y925269D01*
X1276213Y927420D01*
X1275146Y929443D01*
X1273810Y931299D01*
X1278255Y867410D02*
X1278015Y870267D01*
X1277302Y873045D01*
X1276137Y875665D01*
X1272628Y854710D02*
X1274277Y856429D01*
X1275671Y858359D01*
X1276785Y860465D01*
X1277597Y862704D01*
X1278090Y865034D01*
X1278255Y867410D01*
X1248410Y855892D02*
X1249592Y854710D01*
X1248410Y853528D01*
X1247228Y854710D02*
X1248410Y855892D01*
X1224192Y854710D02*
X1222454Y852883D01*
X1221002Y850820D01*
X1219869Y848568D01*
X1219078Y846173D01*
X1218647Y843688D01*
X1218586Y841166D01*
X1218895Y838663D01*
X1219568Y836233D01*
X1220590Y833927D01*
X1221939Y831796D01*
X1223587Y829887D01*
X1225496Y828239D01*
X1227627Y826890D01*
X1229933Y825868D01*
X1232363Y825195D01*
X1234866Y824886D01*
X1237388Y824947D01*
X1239873Y825378D01*
X1242268Y826169D01*
X1244520Y827302D01*
X1246583Y828754D01*
X1248410Y830492D01*
Y853528D02*
X1247228Y854710D01*
X1340485Y822960D02*
X1340320Y825336D01*
X1339827Y827666D01*
X1339015Y829905D01*
X1337901Y832011D01*
X1336507Y833941D01*
X1334858Y835660D01*
X1340290Y820379D02*
X1340485Y822960D01*
X1311822Y835660D02*
X1310036Y833774D01*
X1308554Y831640D01*
X1307413Y829306D01*
X1306637Y826827D01*
X1306244Y824259D01*
Y821661D01*
X1306637Y819093D01*
X1307413Y816614D01*
X1308554Y814280D01*
X1310036Y812146D01*
X1311822Y810260D01*
X1363980Y792480D02*
X1363634Y795110D01*
X1362619Y797560D01*
X1361004Y799664D01*
X1363980Y792480D02*
X1363634Y795110D01*
X1362619Y797560D01*
X1361004Y799664D01*
X1311822Y810260D02*
X1310036Y808374D01*
X1308554Y806240D01*
X1307413Y803906D01*
X1306637Y801427D01*
X1306244Y798859D01*
Y796261D01*
X1306637Y793693D01*
X1307413Y791214D01*
X1308554Y788880D01*
X1310036Y786746D01*
X1311822Y784860D01*
X1289685Y734268D02*
X1291760Y732741D01*
X1294047Y731555D01*
X1296491Y730739D01*
X1299032Y730314D01*
X1301608Y730289D01*
X1309759Y784860D02*
X1307611Y786373D01*
X1305249Y787526D01*
X1302735Y788289D01*
X1300131Y788644D01*
X1297504Y788582D01*
X1294920Y788103D01*
X1292445Y787221D01*
X1290141Y785956D01*
X1288067Y784343D01*
X1286276Y782421D01*
X1248410Y830492D02*
X1250278Y828720D01*
X1252390Y827248D01*
X1254699Y826109D01*
X1257152Y825328D01*
X1259695Y824923D01*
X1262270Y824904D01*
X1264818Y825271D01*
X1267283Y826015D01*
X1269609Y827120D01*
X1271742Y828560D01*
X1273637Y830304D01*
X1275248Y832312D01*
X1276541Y834538D01*
X1277486Y836933D01*
X1278062Y839443D01*
X1278255Y842010D01*
X1284058Y759460D02*
X1286276Y761899D01*
X1287706Y760318D01*
X1289328Y758934D01*
X1286892Y756139D02*
X1285581Y757890D01*
X1284058Y759460D01*
X1286276Y782421D02*
X1284649Y784297D01*
X1282769Y785919D01*
X1280674Y787253D01*
X1278409Y788269D01*
X1276020Y788948D01*
X1273558Y789275D01*
X1271075Y789242D01*
X1268623Y788851D01*
X1266253Y788111D01*
X1264015Y787035D01*
X1261955Y785648D01*
X1260118Y783977D01*
X1258541Y782058D01*
X1257258Y779932D01*
X1256295Y777643D01*
X1255674Y775239D01*
X1255406Y772770D01*
X1255497Y770289D01*
X1255947Y767847D01*
X1256744Y765495D01*
X1257872Y763283D01*
X1259308Y761257D01*
X1261022Y759460D01*
X1259270Y757616D01*
X1257810Y755533D01*
X1256674Y753257D01*
X1255887Y750838D01*
X1255467Y748329D01*
X1255423Y745786D01*
X1255755Y743264D01*
X1256457Y740819D01*
X1257513Y738505D01*
X1289328Y758934D02*
X1286892Y756139D01*
X1223010Y955128D02*
X1221124Y956914D01*
X1218990Y958396D01*
X1216656Y959537D01*
X1214177Y960313D01*
X1211609Y960706D01*
X1209011D01*
X1206443Y960313D01*
X1203964Y959537D01*
X1201630Y958396D01*
X1199496Y956914D01*
X1197610Y955128D01*
X1172210D02*
X1170324Y956914D01*
X1168190Y958396D01*
X1165856Y959537D01*
X1163377Y960313D01*
X1160809Y960706D01*
X1158211D01*
X1155643Y960313D01*
X1153164Y959537D01*
X1150830Y958396D01*
X1148696Y956914D01*
X1146810Y955128D01*
X1197610D02*
X1195724Y956914D01*
X1193590Y958396D01*
X1191256Y959537D01*
X1188777Y960313D01*
X1186209Y960706D01*
X1183611D01*
X1181043Y960313D01*
X1178564Y959537D01*
X1176230Y958396D01*
X1174096Y956914D01*
X1172210Y955128D01*
Y931299D02*
X1170723Y929195D01*
X1169582Y926886D01*
X1168814Y924426D01*
X1168439Y921878D01*
X1168464Y919302D01*
X1168889Y916761D01*
X1169705Y914317D01*
X1170891Y912030D01*
X1172418Y909955D01*
X1146810Y932092D02*
X1148696Y930306D01*
X1150830Y928824D01*
X1153164Y927683D01*
X1155643Y926907D01*
X1158211Y926514D01*
X1160809D01*
X1163377Y926907D01*
X1165856Y927683D01*
X1168190Y928824D01*
X1170324Y930306D01*
X1172210Y932092D01*
X1085850Y955128D02*
X1083964Y956914D01*
X1081830Y958396D01*
X1079496Y959537D01*
X1077017Y960313D01*
X1074449Y960706D01*
X1071851D01*
X1069283Y960313D01*
X1066804Y959537D01*
X1064470Y958396D01*
X1062336Y956914D01*
X1060450Y955128D01*
X1133612Y926472D02*
X1136074Y926578D01*
X1138496Y927036D01*
X1140827Y927836D01*
X1143019Y928962D01*
X1145027Y930390D01*
X1146810Y932092D01*
Y955128D02*
X1144959Y956886D01*
X1142867Y958350D01*
X1140581Y959487D01*
X1138151Y960272D01*
X1135632Y960687D01*
X1133080Y960724D01*
X1130549Y960381D01*
X1128098Y959667D01*
X1125781Y958596D01*
X1123648Y957193D01*
X1121747Y955488D01*
X1120120Y953521D01*
X1118803Y951333D01*
X1117826Y948975D01*
X1117210Y946497D01*
X1116969Y943955D01*
X1117107Y941406D01*
X1117623Y938905D01*
X1137920Y916940D02*
X1137635Y919615D01*
X1136793Y922170D01*
X1135432Y924491D01*
X1133612Y926472D01*
X1115500Y941029D02*
X1115695Y943610D01*
X1085850Y906692D02*
X1087240Y908441D01*
X1088390Y910356D01*
X1115695Y943610D02*
X1115502Y946177D01*
X1114926Y948687D01*
X1113981Y951082D01*
X1112688Y953308D01*
X1111077Y955316D01*
X1109183Y957060D01*
X1107048Y958501D01*
X1104723Y959605D01*
X1102258Y960349D01*
X1099710Y960716D01*
X1097135Y960696D01*
X1094592Y960292D01*
X1092139Y959511D01*
X1089830Y958372D01*
X1087718Y956900D01*
X1085850Y955128D01*
X1060450Y932092D02*
X1061632Y930910D01*
X1059268D02*
X1060450Y932092D01*
X1061632Y930910D02*
X1060450Y929728D01*
X1059268Y930910D01*
X1083310Y882336D02*
X1085377Y884256D01*
X1087087Y886499D01*
X1088390Y889000D01*
Y901700D02*
X1087277Y903895D01*
X1085850Y905899D01*
X1220683Y875665D02*
X1219627Y873351D01*
X1218925Y870906D01*
X1218593Y868384D01*
X1218637Y865841D01*
X1219057Y863332D01*
X1219844Y860913D01*
X1220980Y858637D01*
X1222440Y856554D01*
X1224192Y854710D01*
X1134187Y815236D02*
X1135772Y817162D01*
X1136950Y819361D01*
X1137675Y821748D01*
X1137920Y824230D01*
X1134200Y815250D02*
X1135780Y817174D01*
X1136953Y819370D01*
X1137676Y821752D01*
X1137920Y824230D01*
X1206590Y763360D02*
X1204666Y764940D01*
X1202470Y766113D01*
X1200088Y766836D01*
X1197610Y767080D01*
X1206604Y763347D02*
X1204678Y764932D01*
X1202479Y766110D01*
X1200092Y766835D01*
X1197610Y767080D01*
X1101090Y825500D02*
X1103605Y825693D01*
X1106062Y826266D01*
X1108402Y827207D01*
X1110572Y828494D01*
X1112520Y830096D01*
X1090295Y829518D02*
X1092179Y828111D01*
X1094244Y826986D01*
X1096447Y826166D01*
X1098745Y825667D01*
X1101090Y825500D01*
X1062990Y877570D02*
X1061638Y875314D01*
X1060780Y872828D01*
X1060453Y870219D01*
X1060670Y867598D01*
X1061422Y865078D01*
X1062676Y862767D01*
X1064380Y860764D01*
X1066460Y859155D01*
X1060450Y884801D02*
X1062990Y882336D01*
X1085850Y869950D02*
X1085559Y872653D01*
X1084699Y875233D01*
X1083310Y877570D01*
X1079840Y859155D02*
X1081881Y860727D01*
X1083562Y862679D01*
X1084816Y864930D01*
X1085589Y867387D01*
X1085850Y869950D01*
X1113790Y800100D02*
X1116272Y800345D01*
X1118659Y801070D01*
X1120857Y802248D01*
X1122784Y803833D01*
X1113790Y800100D02*
X1116268Y800344D01*
X1118650Y801067D01*
X1120846Y802240D01*
X1122770Y803820D01*
X1361004Y577771D02*
X1362619Y579875D01*
X1363634Y582325D01*
X1363980Y584955D01*
X1361004Y577771D02*
X1362619Y579875D01*
X1363634Y582325D01*
X1363980Y584955D01*
X1350311Y568348D02*
X1352229Y569316D01*
X1353899Y570666D01*
X1350311Y568348D02*
X1352229Y569316D01*
X1353899Y570666D01*
X1196340Y635000D02*
X1198677Y633611D01*
X1201257Y632751D01*
X1203960Y632460D01*
X1196340Y635000D02*
X1198677Y633611D01*
X1201257Y632751D01*
X1203960Y632460D01*
X1196597Y577850D02*
X1196340Y575311D01*
X1196596Y572771D01*
X1197355Y570335D01*
X1198586Y568099D01*
X1200239Y566154D01*
X1202247Y564579D01*
X1204530Y563438D01*
X1206995Y562776D01*
X1209543Y562620D01*
X1212070Y562977D01*
X1214475Y563832D01*
X1216660Y565150D01*
X1334650Y556895D02*
X1337280Y557241D01*
X1339730Y558256D01*
X1341834Y559871D01*
X1334650Y556895D02*
X1337280Y557241D01*
X1339730Y558256D01*
X1341834Y559871D01*
X1304846D02*
X1306950Y558256D01*
X1309400Y557241D01*
X1312030Y556895D01*
X1304846Y559871D02*
X1306950Y558256D01*
X1309400Y557241D01*
X1312030Y556895D01*
X1331990Y529590D02*
X1331840Y532115D01*
X1331393Y534605D01*
X1330654Y537024D01*
X1329634Y539339D01*
X1328348Y541517D01*
X1326813Y543528D01*
X1325051Y545343D01*
X1323087Y546937D01*
X1320948Y548287D01*
X1318664Y549375D01*
X1316268Y550185D01*
X1313792Y550706D01*
X1311273Y550931D01*
X1308744Y550856D01*
X1306242Y550482D01*
X1303802Y549815D01*
X1301458Y548865D01*
X1299243Y547644D01*
X1297188Y546169D01*
X1295321Y544461D01*
X1293670Y542545D01*
X1292257Y540447D01*
X1291102Y538197D01*
X1290221Y535825D01*
X1289627Y533367D01*
X1289328Y530855D01*
Y528325D01*
X1289627Y525813D01*
X1290221Y523355D01*
X1291102Y520983D01*
X1292257Y518733D01*
X1293670Y516635D01*
X1295321Y514719D01*
X1297188Y513011D01*
X1299243Y511536D01*
X1301458Y510315D01*
X1303802Y509365D01*
X1306242Y508698D01*
X1308744Y508324D01*
X1311273Y508249D01*
X1313792Y508474D01*
X1316268Y508995D01*
X1318664Y509805D01*
X1320948Y510893D01*
X1323087Y512243D01*
X1325051Y513837D01*
X1326813Y515652D01*
X1328348Y517663D01*
X1329634Y519841D01*
X1330654Y522156D01*
X1331393Y524575D01*
X1331840Y527065D01*
X1331990Y529590D01*
X1281190Y529590D02*
X1281040Y532115D01*
X1280593Y534605D01*
X1279854Y537024D01*
X1278834Y539339D01*
X1277548Y541517D01*
X1276013Y543528D01*
X1274251Y545343D01*
X1272287Y546937D01*
X1270148Y548287D01*
X1267864Y549375D01*
X1265468Y550185D01*
X1262992Y550706D01*
X1260473Y550931D01*
X1257944Y550856D01*
X1255442Y550482D01*
X1253002Y549815D01*
X1250658Y548865D01*
X1248443Y547644D01*
X1246388Y546169D01*
X1244521Y544461D01*
X1242870Y542545D01*
X1241457Y540447D01*
X1240302Y538197D01*
X1239421Y535825D01*
X1238827Y533367D01*
X1238528Y530855D01*
Y528325D01*
X1238827Y525813D01*
X1239421Y523355D01*
X1240302Y520983D01*
X1241457Y518733D01*
X1242870Y516635D01*
X1244521Y514719D01*
X1246388Y513011D01*
X1248443Y511536D01*
X1250658Y510315D01*
X1253002Y509365D01*
X1255442Y508698D01*
X1257944Y508324D01*
X1260473Y508249D01*
X1262992Y508474D01*
X1265468Y508995D01*
X1267864Y509805D01*
X1270148Y510893D01*
X1272287Y512243D01*
X1274251Y513837D01*
X1276013Y515652D01*
X1277548Y517663D01*
X1278834Y519841D01*
X1279854Y522156D01*
X1280593Y524575D01*
X1281040Y527065D01*
X1281190Y529590D01*
X1230390Y529590D02*
X1230240Y532115D01*
X1229793Y534605D01*
X1229054Y537024D01*
X1228034Y539339D01*
X1226748Y541517D01*
X1225213Y543528D01*
X1223451Y545343D01*
X1221487Y546937D01*
X1219348Y548287D01*
X1217064Y549375D01*
X1214668Y550185D01*
X1212192Y550706D01*
X1209673Y550931D01*
X1207144Y550856D01*
X1204642Y550482D01*
X1202202Y549815D01*
X1199858Y548865D01*
X1197643Y547644D01*
X1195588Y546169D01*
X1193721Y544461D01*
X1192070Y542545D01*
X1190657Y540447D01*
X1189502Y538197D01*
X1188621Y535825D01*
X1188027Y533367D01*
X1187728Y530855D01*
Y528325D01*
X1188027Y525813D01*
X1188621Y523355D01*
X1189502Y520983D01*
X1190657Y518733D01*
X1192070Y516635D01*
X1193721Y514719D01*
X1195588Y513011D01*
X1197643Y511536D01*
X1199858Y510315D01*
X1202202Y509365D01*
X1204642Y508698D01*
X1207144Y508324D01*
X1209673Y508249D01*
X1212192Y508474D01*
X1214668Y508995D01*
X1217064Y509805D01*
X1219348Y510893D01*
X1221487Y512243D01*
X1223451Y513837D01*
X1225213Y515652D01*
X1226748Y517663D01*
X1228034Y519841D01*
X1229054Y522156D01*
X1229793Y524575D01*
X1230240Y527065D01*
X1230390Y529590D01*
X1123770Y685800D02*
X1122216Y683869D01*
X1121067Y681672D01*
X1120366Y679294D01*
X1120140Y676825D01*
X1120399Y674360D01*
X1121131Y671991D01*
X1122310Y669810D01*
X1123890Y667900D01*
X1125811Y666333D01*
X1127999Y665169D01*
X1130373Y664452D01*
X1132840Y664210D01*
X1123770Y685800D02*
X1122216Y683869D01*
X1121067Y681672D01*
X1120366Y679294D01*
X1120140Y676825D01*
X1120399Y674360D01*
X1121131Y671991D01*
X1122310Y669810D01*
X1123890Y667900D01*
X1125811Y666333D01*
X1127999Y665169D01*
X1130373Y664452D01*
X1132840Y664210D01*
X1156268Y662191D02*
X1153848Y661733D01*
X1151519Y660933D01*
X1149328Y659807D01*
X1147321Y658379D01*
X1145540Y656678D01*
X1143654Y658464D01*
X1141520Y659946D01*
X1139186Y661087D01*
X1136707Y661863D01*
X1134139Y662256D01*
X1131541D01*
X1128973Y661863D01*
X1126494Y661087D01*
X1124160Y659946D01*
X1122026Y658464D01*
X1120140Y656678D01*
X1145540Y633642D02*
X1147426Y631856D01*
X1149560Y630374D01*
X1151894Y629233D01*
X1154373Y628457D01*
X1156941Y628064D01*
X1159539D01*
X1162107Y628457D01*
X1164586Y629233D01*
X1166920Y630374D01*
X1169054Y631856D01*
X1170940Y633642D01*
X1167234Y617297D02*
X1165310Y618881D01*
X1163113Y620058D01*
X1160729Y620784D01*
X1158249Y621030D01*
X1155769Y620787D01*
X1153384Y620065D01*
X1151186Y618891D01*
X1149260Y617310D01*
X1147679Y615384D01*
X1146505Y613186D01*
X1145783Y610801D01*
X1145540Y608321D01*
X1145786Y605841D01*
X1146512Y603457D01*
X1147690Y601260D01*
X1149273Y599336D01*
X1167220Y617310D02*
X1165296Y618890D01*
X1163100Y620063D01*
X1160718Y620786D01*
X1158240Y621030D01*
X1155762Y620786D01*
X1153380Y620063D01*
X1151184Y618890D01*
X1149260Y617310D01*
X1147680Y615386D01*
X1146507Y613190D01*
X1145784Y610808D01*
X1145540Y608330D01*
X1145784Y605852D01*
X1146507Y603470D01*
X1147680Y601274D01*
X1149260Y599350D01*
X1120140Y633642D02*
X1122026Y631856D01*
X1124160Y630374D01*
X1126494Y629233D01*
X1128973Y628457D01*
X1131541Y628064D01*
X1134139D01*
X1136707Y628457D01*
X1139186Y629233D01*
X1141520Y630374D01*
X1143654Y631856D01*
X1145540Y633642D01*
X1094791Y699641D02*
X1094740Y698500D01*
X1094791Y699641D02*
X1094740Y698500D01*
X1069340Y680720D02*
X1069584Y678242D01*
X1070307Y675860D01*
X1071480Y673664D01*
X1073060Y671740D01*
X1074984Y670160D01*
X1077180Y668987D01*
X1079562Y668264D01*
X1082040Y668020D01*
X1084518Y668264D01*
X1086900Y668987D01*
X1089096Y670160D01*
X1091020Y671740D01*
X1092600Y673664D01*
X1093773Y675860D01*
X1094496Y678242D01*
X1094740Y680720D01*
Y679450D02*
X1094984Y676972D01*
X1095707Y674590D01*
X1096880Y672394D01*
X1098460Y670470D01*
X1100384Y668890D01*
X1102580Y667717D01*
X1104962Y666994D01*
X1107440Y666750D01*
X1109918Y666994D01*
X1112300Y667717D01*
X1114496Y668890D01*
X1116420Y670470D01*
X1118000Y672394D01*
X1119173Y674590D01*
X1119896Y676972D01*
X1120140Y679450D01*
X1069340Y680720D02*
X1069584Y678242D01*
X1070307Y675860D01*
X1071480Y673664D01*
X1073060Y671740D01*
X1074984Y670160D01*
X1077180Y668987D01*
X1079562Y668264D01*
X1082040Y668020D01*
X1084518Y668264D01*
X1086900Y668987D01*
X1089096Y670160D01*
X1091020Y671740D01*
X1092600Y673664D01*
X1093773Y675860D01*
X1094496Y678242D01*
X1094740Y680720D01*
Y679450D02*
X1094984Y676972D01*
X1095707Y674590D01*
X1096880Y672394D01*
X1098460Y670470D01*
X1100384Y668890D01*
X1102580Y667717D01*
X1104962Y666994D01*
X1107440Y666750D01*
X1109918Y666994D01*
X1112300Y667717D01*
X1114496Y668890D01*
X1116420Y670470D01*
X1118000Y672394D01*
X1119173Y674590D01*
X1119896Y676972D01*
X1120140Y679450D01*
X1071449Y711858D02*
X1070292Y709675D01*
X1069580Y707309D01*
X1069340Y704850D01*
X1071449Y711858D02*
X1070292Y709675D01*
X1069580Y707309D01*
X1069340Y704850D01*
X1120140Y656678D02*
X1118254Y658464D01*
X1116120Y659946D01*
X1113786Y661087D01*
X1111307Y661863D01*
X1108739Y662256D01*
X1106141D01*
X1103573Y661863D01*
X1101094Y661087D01*
X1098760Y659946D01*
X1096626Y658464D01*
X1094740Y656678D01*
Y633642D02*
X1096626Y631856D01*
X1098760Y630374D01*
X1101094Y629233D01*
X1103573Y628457D01*
X1106141Y628064D01*
X1108739D01*
X1111307Y628457D01*
X1113786Y629233D01*
X1116120Y630374D01*
X1118254Y631856D01*
X1120140Y633642D01*
X1069340Y633642D02*
X1071226Y631856D01*
X1073360Y630374D01*
X1075694Y629233D01*
X1078173Y628457D01*
X1080741Y628064D01*
X1083339D01*
X1085907Y628457D01*
X1088386Y629233D01*
X1090720Y630374D01*
X1092854Y631856D01*
X1094740Y633642D01*
X1094740Y656678D02*
X1092854Y658464D01*
X1090720Y659946D01*
X1088386Y661087D01*
X1085907Y661863D01*
X1083339Y662256D01*
X1080741D01*
X1078173Y661863D01*
X1075694Y661087D01*
X1073360Y659946D01*
X1071226Y658464D01*
X1069340Y656678D01*
X1126362Y612666D02*
X1125749Y615144D01*
X1124653Y617448D01*
X1123119Y619488D01*
X1121207Y621179D01*
X1118996Y622454D01*
X1116575Y623261D01*
X1114042Y623568D01*
X1111498Y623361D01*
X1109046Y622651D01*
X1106787Y621465D01*
X1104810Y619850D01*
X1103195Y617873D01*
X1102009Y615614D01*
X1101299Y613162D01*
X1101093Y610619D01*
X1101399Y608085D01*
X1102206Y605664D01*
X1103481Y603453D01*
X1105172Y601541D01*
X1107212Y600007D01*
X1109516Y598911D01*
X1111994Y598298D01*
X1170940Y619760D02*
X1171208Y617165D01*
X1172000Y614680D01*
X1170940Y619760D02*
X1171208Y617165D01*
X1172000Y614680D01*
X1171197Y589280D02*
X1170940Y586789D01*
X1171177Y584296D01*
X1171899Y581898D01*
X1173078Y579688D01*
X1174667Y577753D01*
X1176605Y576167D01*
X1178816Y574992D01*
X1181215Y574274D01*
X1183708Y574040D01*
X1186199Y574300D01*
X1188590Y575045D01*
X1190789Y576243D01*
X1192710Y577850D01*
X1155610Y593000D02*
X1157534Y591420D01*
X1159730Y590247D01*
X1162112Y589524D01*
X1164590Y589280D01*
X1155596Y593013D02*
X1157523Y591428D01*
X1159721Y590250D01*
X1162108Y589525D01*
X1164590Y589280D01*
X1150620Y561340D02*
X1152009Y563677D01*
X1152869Y566257D01*
X1153160Y568960D01*
X1148236Y548451D02*
X1149536Y550424D01*
X1150345Y552644D01*
X1150620Y554990D01*
X1148236Y548451D02*
X1149536Y550424D01*
X1150345Y552644D01*
X1150620Y554990D01*
X1179590Y529590D02*
X1179434Y532169D01*
X1178967Y534710D01*
X1178197Y537176D01*
X1177134Y539531D01*
X1175795Y541741D01*
X1174199Y543772D01*
X1172369Y545596D01*
X1170332Y547185D01*
X1168118Y548517D01*
X1165760Y549572D01*
X1163291Y550334D01*
X1160749Y550792D01*
X1158169Y550940D01*
X1155591Y550775D01*
X1153051Y550300D01*
X1150588Y549522D01*
X1148236Y548451D01*
X1146175Y511976D02*
X1148382Y510652D01*
X1150733Y509603D01*
X1153193Y508845D01*
X1155726Y508389D01*
X1158295Y508240D01*
X1160864Y508402D01*
X1163395Y508872D01*
X1165851Y509643D01*
X1168196Y510703D01*
X1170396Y512039D01*
X1172420Y513629D01*
X1174238Y515452D01*
X1175823Y517479D01*
X1177152Y519683D01*
X1178207Y522031D01*
X1178972Y524489D01*
X1179435Y527021D01*
X1179590Y529590D01*
X1132840Y601980D02*
X1132494Y604610D01*
X1131479Y607060D01*
X1129864Y609164D01*
X1153160Y568960D02*
X1152904Y571499D01*
X1152145Y573936D01*
X1150914Y576172D01*
X1149261Y578116D01*
X1147252Y579691D01*
X1144969Y580832D01*
X1142505Y581494D01*
X1139957Y581650D01*
X1137430Y581293D01*
X1135025Y580438D01*
X1132840Y579120D01*
Y601980D02*
X1132494Y604610D01*
X1131479Y607060D01*
X1129864Y609164D01*
X1095375Y581660D02*
X1095182Y584227D01*
X1094606Y586737D01*
X1093661Y589132D01*
X1092368Y591358D01*
X1090757Y593366D01*
X1088863Y595110D01*
X1086729Y596550D01*
X1084403Y597655D01*
X1081938Y598399D01*
X1079390Y598766D01*
X1076815Y598746D01*
X1074272Y598342D01*
X1071819Y597561D01*
X1069510Y596422D01*
X1067398Y594950D01*
X1065530Y593178D01*
X1112520Y545520D02*
X1110178Y546705D01*
X1107682Y547519D01*
X1105092Y547943D01*
X1102467Y547966D01*
X1099869Y547587D01*
X1097360Y546817D01*
X1094997Y545673D01*
X1092837Y544182D01*
X1090930Y542378D01*
X1088491Y567924D02*
X1090487Y569672D01*
X1092189Y571706D01*
X1093558Y573978D01*
X1094559Y576434D01*
X1095170Y579015D01*
X1095375Y581660D01*
X1094740Y554990D02*
X1094555Y557458D01*
X1094002Y559870D01*
X1093096Y562173D01*
X1091855Y564314D01*
X1090309Y566245D01*
X1088491Y567924D01*
X1065530Y570142D02*
X1067969Y567924D01*
X1062209Y567308D02*
X1063960Y568619D01*
X1065530Y570142D01*
X1067969Y567924D02*
X1066388Y566494D01*
X1065004Y564872D01*
X1090930Y544441D02*
X1092266Y546297D01*
X1093333Y548320D01*
X1094109Y550471D01*
X1094582Y552709D01*
X1094740Y554990D01*
X1065004Y564872D02*
X1062209Y567308D01*
X1060450Y955128D02*
X1058564Y956914D01*
X1056430Y958396D01*
X1054096Y959537D01*
X1051617Y960313D01*
X1049049Y960706D01*
X1046451D01*
X1043883Y960313D01*
X1041404Y959537D01*
X1039070Y958396D01*
X1036936Y956914D01*
X1035050Y955128D01*
X1033282Y956818D01*
X1031291Y958239D01*
X1029118Y959363D01*
X1026807Y960166D01*
X1024405Y960631D01*
X1021962Y960751D01*
X1019527Y960521D01*
X1017149Y959947D01*
X1014877Y959041D01*
X1012757Y957820D01*
X1010832Y956310D01*
X1011664Y930203D02*
X1014236Y928507D01*
X1017070Y927298D01*
X1007110Y956310D02*
X1004632Y956066D01*
X1002250Y955343D01*
X1000054Y954170D01*
X998130Y952590D01*
X1007110Y956310D02*
X1004628Y956065D01*
X1002241Y955340D01*
X1000042Y954162D01*
X998116Y952577D01*
X1032510Y910356D02*
X1033660Y908441D01*
X1035050Y906692D01*
Y905899D02*
X1033623Y903895D01*
X1032510Y901700D01*
X1015166Y925394D02*
X1013551Y923290D01*
X1012536Y920840D01*
X1012190Y918210D01*
X1015166Y925394D02*
X1013551Y923290D01*
X1012536Y920840D01*
X1012190Y918210D01*
X1057910Y882336D02*
X1060450Y884801D01*
X1054934Y869116D02*
X1056549Y871220D01*
X1057564Y873670D01*
X1057910Y876300D01*
X1054934Y869116D02*
X1056549Y871220D01*
X1057564Y873670D01*
X1057910Y876300D01*
X1012190Y901700D02*
X1011077Y903895D01*
X1009650Y905899D01*
X1006011Y881549D02*
X1006436Y879525D01*
X1007110Y877570D01*
X987983Y942444D02*
X986398Y940518D01*
X985220Y938319D01*
X984495Y935932D01*
X984250Y933450D01*
X987970Y942430D02*
X986390Y940506D01*
X985217Y938310D01*
X984494Y935928D01*
X984250Y933450D01*
Y905899D02*
X982748Y903769D01*
X981600Y901429D01*
X980834Y898937D01*
X980471Y896356D01*
X980518Y893749D01*
X980975Y891183D01*
X981830Y888721D01*
X983061Y886423D01*
X984640Y884349D01*
X986525Y882548D01*
X988669Y881067D01*
X991021Y879941D01*
X993520Y879200D01*
X996104Y878862D01*
X998710Y878934D01*
X1001272Y879416D01*
X1003726Y880295D01*
X1006011Y881549D01*
X979380Y877570D02*
X978152Y879762D01*
X976517Y881669D01*
X974539Y883217D01*
X972295Y884345D01*
X969873Y885010D01*
X967367Y885184D01*
X964876Y884863D01*
X962497Y884057D01*
X960323Y882799D01*
X958439Y881137D01*
X956919Y879138D01*
X955822Y876878D01*
X955192Y874446D01*
X955052Y871938D01*
X955409Y869452D01*
X956248Y867085D01*
X957536Y864928D01*
X959224Y863068D01*
X961245Y861576D01*
X963520Y860511D01*
X965960Y859915D01*
X1044241Y858792D02*
X1046044Y860226D01*
X1044241Y858792D02*
X1046044Y860226D01*
X1038860Y857250D02*
X1040027Y857317D01*
X1058299Y825500D02*
X1056106Y827039D01*
X1056005Y857037D02*
X1053800Y858052D01*
X1051474Y858746D01*
X1049073Y859104D01*
X1046646Y859119D01*
X1044241Y858792D01*
X1038860Y857250D02*
X1040027Y857317D01*
Y857317D02*
X1037364Y855651D01*
X1035050Y853528D01*
Y830492D02*
X1037081Y828589D01*
X1039394Y827039D01*
X1035050Y853528D02*
X1032794Y855607D01*
X1030204Y857250D01*
X1014495D02*
X1011906Y855607D01*
X1009650Y853528D01*
X965960Y859915D02*
X968001Y858465D01*
X970335Y857559D01*
X972820Y857250D01*
X989096D02*
X986964Y855947D01*
X985045Y854348D01*
X983379Y852487D01*
X982000Y850404D01*
X980939Y848142D01*
X980218Y845751D01*
X979852Y843279D01*
X979849Y840782D01*
X980209Y838310D01*
X980925Y835916D01*
X981980Y833652D01*
X983354Y831566D01*
X985015Y829701D01*
X986931Y828097D01*
X989059Y826789D01*
X991354Y825804D01*
X993769Y825163D01*
X996251Y824879D01*
X998747Y824959D01*
X1001206Y825402D01*
X1003574Y826196D01*
X1005802Y827327D01*
X1007841Y828769D01*
X1009650Y830492D01*
X1009650Y853528D02*
X1007394Y855607D01*
X1004805Y857250D01*
X1060450Y767080D02*
X1057972Y766836D01*
X1055590Y766113D01*
X1053394Y764940D01*
X1051470Y763360D01*
X1039394Y827039D02*
X1037266Y825554D01*
X1035397Y823754D01*
X1033833Y821683D01*
X1032613Y819393D01*
X1031767Y816939D01*
X1031316Y814384D01*
X1031271Y811789D01*
X1031633Y809220D01*
X1032393Y806739D01*
X1033532Y804407D01*
X1035023Y802283D01*
X1036828Y800419D01*
X1038903Y798860D01*
X1041196Y797646D01*
X1043652Y796807D01*
X1046208Y796362D01*
X1048803Y796324D01*
X1051372Y796692D01*
X1053851Y797458D01*
X1056179Y798604D01*
X1058299Y800100D01*
X1060450Y767080D02*
X1057968Y766835D01*
X1055581Y766110D01*
X1053382Y764932D01*
X1051456Y763347D01*
X1046049Y722018D02*
X1044892Y719835D01*
X1044180Y717469D01*
X1043940Y715010D01*
X1046049Y722018D02*
X1044892Y719835D01*
X1044180Y717469D01*
X1043940Y715010D01*
X1009650Y830492D02*
X1011536Y828706D01*
X1013670Y827224D01*
X1016004Y826083D01*
X1018483Y825307D01*
X1021051Y824914D01*
X1023649D01*
X1026217Y825307D01*
X1028696Y826083D01*
X1031030Y827224D01*
X1033164Y828706D01*
X1035050Y830492D01*
X1022273Y734164D02*
X1020688Y732237D01*
X1019510Y730039D01*
X1018785Y727652D01*
X1018540Y725170D01*
X1022260Y734150D02*
X1020680Y732226D01*
X1019507Y730030D01*
X1018784Y727648D01*
X1018540Y725170D01*
X965960Y859915D02*
X968001Y858465D01*
X970335Y857559D01*
X972820Y857250D01*
X946785Y695960D02*
X946592Y698527D01*
X946016Y701037D01*
X945071Y703432D01*
X943778Y705658D01*
X942167Y707666D01*
X940273Y709410D01*
X938139Y710851D01*
X935813Y711955D01*
X933348Y712699D01*
X930800Y713066D01*
X928225Y713046D01*
X925682Y712642D01*
X923229Y711861D01*
X920920Y710722D01*
X918808Y709250D01*
X916940Y707478D01*
X941158Y683260D02*
X942807Y684979D01*
X944202Y686909D01*
X945315Y689015D01*
X946126Y691254D01*
X946620Y693584D01*
X946785Y695960D01*
X864958Y861060D02*
X866607Y862779D01*
X868001Y864709D01*
X869115Y866815D01*
X869927Y869054D01*
X870420Y871384D01*
X870585Y873760D01*
X864958Y835660D02*
X866607Y837379D01*
X868001Y839309D01*
X869115Y841415D01*
X869927Y843654D01*
X870420Y845984D01*
X870585Y848360D01*
X870420Y850736D01*
X869927Y853066D01*
X869115Y855305D01*
X868001Y857411D01*
X866607Y859341D01*
X864958Y861060D01*
X870585Y873760D02*
X870386Y876367D01*
X869792Y878913D01*
X868819Y881340D01*
X867487Y883590D01*
X865829Y885611D01*
X863883Y887357D01*
X861694Y888787D01*
X859314Y889867D01*
X856796Y890573D01*
X854201Y890888D01*
X851588Y890805D01*
X849017Y890325D01*
X846550Y889460D01*
X844243Y888230D01*
X842150Y886663D01*
X840319Y884796D01*
X840319D02*
X838515Y886522D01*
X836471Y887955D01*
X834234Y889064D01*
X831855Y889823D01*
X829390Y890215D01*
X826893Y890230D01*
X824423Y889869D01*
X822035Y889139D01*
X819785Y888058D01*
X840319Y862724D02*
X841922Y861060D01*
X840319Y859396D01*
X840319Y837324D02*
X841922Y835660D01*
X838589Y861060D02*
X840319Y862724D01*
X838589Y835660D02*
X840319Y837324D01*
Y859396D02*
X838589Y861060D01*
X870585Y822960D02*
X870420Y825336D01*
X869927Y827666D01*
X869115Y829905D01*
X868001Y832011D01*
X866607Y833941D01*
X864958Y835660D01*
Y810260D02*
X866607Y811979D01*
X868001Y813909D01*
X869115Y816015D01*
X869927Y818254D01*
X870420Y820584D01*
X870585Y822960D01*
X841922Y835660D02*
X840319Y833996D01*
X838589Y835660D01*
X840319Y811924D02*
X841922Y810260D01*
X838589D02*
X840319Y811924D01*
X787613Y856615D02*
X786557Y854301D01*
X785855Y851856D01*
X785523Y849334D01*
X785567Y846791D01*
X785987Y844282D01*
X786774Y841863D01*
X787910Y839587D01*
X789370Y837504D01*
X791122Y835660D01*
X789336Y833774D01*
X787854Y831640D01*
X786713Y829306D01*
X785937Y826827D01*
X785544Y824259D01*
Y821661D01*
X785937Y819093D01*
X786713Y816614D01*
X787854Y814280D01*
X789336Y812146D01*
X791122Y810260D01*
X870585Y797560D02*
X870420Y799936D01*
X869927Y802266D01*
X869115Y804505D01*
X868001Y806611D01*
X866607Y808541D01*
X864958Y810260D01*
Y784860D02*
X866607Y786579D01*
X868001Y788509D01*
X869115Y790615D01*
X869927Y792854D01*
X870420Y795184D01*
X870585Y797560D01*
Y772160D02*
X870420Y774536D01*
X869927Y776866D01*
X869115Y779105D01*
X868001Y781211D01*
X866607Y783141D01*
X864958Y784860D01*
X841922Y810260D02*
X840319Y808596D01*
X840319Y786524D02*
X841922Y784860D01*
X840319Y783196D01*
X864958Y759460D02*
X866607Y761179D01*
X868001Y763109D01*
X869115Y765215D01*
X869927Y767454D01*
X870420Y769784D01*
X870585Y772160D01*
Y746760D02*
X870420Y749136D01*
X869927Y751466D01*
X869115Y753705D01*
X868001Y755811D01*
X866607Y757741D01*
X864958Y759460D01*
X841922D02*
X840319Y757796D01*
X864958Y734060D02*
X866607Y735779D01*
X868001Y737709D01*
X869115Y739815D01*
X869927Y742054D01*
X870420Y744384D01*
X870585Y746760D01*
X840319Y761124D02*
X841922Y759460D01*
X840319Y735724D02*
X841922Y734060D01*
X840319Y808596D02*
X838589Y810260D01*
Y784860D02*
X840319Y786524D01*
X838589Y759460D02*
X840319Y761124D01*
Y783196D02*
X838589Y784860D01*
X840319Y757796D02*
X838589Y759460D01*
X841922Y734060D02*
X840319Y732396D01*
X838589Y734060D02*
X840319Y735724D01*
X916940Y684442D02*
X918122Y683260D01*
X870585Y721360D02*
X870420Y723736D01*
X869927Y726066D01*
X869115Y728305D01*
X868001Y730411D01*
X866607Y732341D01*
X864958Y734060D01*
X868467Y713105D02*
X869632Y715725D01*
X870345Y718503D01*
X870585Y721360D01*
X916940Y707478D02*
X915096Y709230D01*
X913013Y710690D01*
X910737Y711826D01*
X908318Y712613D01*
X905809Y713033D01*
X903266Y713077D01*
X900744Y712745D01*
X898299Y712043D01*
X895985Y710987D01*
X915758Y683260D02*
X916940Y684442D01*
Y682078D02*
X915758Y683260D01*
X918122D02*
X916940Y682078D01*
X861695Y678960D02*
X860354Y680271D01*
X861695Y678960D02*
X860354Y680271D01*
X861695Y680933D01*
X840319Y710324D02*
X841922Y708660D01*
X840319Y732396D02*
X838589Y734060D01*
X840319Y684924D02*
X842484Y682773D01*
X844995Y681039D01*
X841922Y708660D02*
X840319Y706996D01*
X838589Y708660D02*
X840319Y710324D01*
X838589Y683260D02*
X840319Y684924D01*
Y706996D02*
X838589Y708660D01*
X844995Y681039D02*
X842411Y678687D01*
X817491Y683260D02*
X815761Y681596D01*
X791122Y810260D02*
X789336Y808374D01*
X787854Y806240D01*
X786713Y803906D01*
X785937Y801427D01*
X785544Y798859D01*
Y796261D01*
X785937Y793693D01*
X786713Y791214D01*
X787854Y788880D01*
X789336Y786746D01*
X791122Y784860D01*
X791122Y784860D02*
X789336Y782974D01*
X787854Y780840D01*
X786713Y778506D01*
X785937Y776027D01*
X785544Y773459D01*
Y770861D01*
X785937Y768293D01*
X786713Y765814D01*
X787854Y763480D01*
X789336Y761346D01*
X791122Y759460D01*
X791122Y759460D02*
X789336Y757574D01*
X787854Y755440D01*
X786713Y753106D01*
X785937Y750627D01*
X785544Y748059D01*
Y745461D01*
X785937Y742893D01*
X786713Y740414D01*
X787854Y738080D01*
X789336Y735946D01*
X791122Y734060D01*
X791122Y734060D02*
X789336Y732174D01*
X787854Y730040D01*
X786713Y727706D01*
X785937Y725227D01*
X785544Y722659D01*
Y720061D01*
X785937Y717493D01*
X786713Y715014D01*
X787854Y712680D01*
X789336Y710546D01*
X791122Y708660D01*
X791122Y708660D02*
X789336Y706774D01*
X787854Y704640D01*
X786713Y702306D01*
X785937Y699827D01*
X785544Y697259D01*
Y694661D01*
X785937Y692093D01*
X786713Y689614D01*
X787854Y687280D01*
X789336Y685146D01*
X791122Y683260D01*
X815761Y681596D02*
X814158Y683260D01*
X1043940D02*
X1044184Y680782D01*
X1044907Y678400D01*
X1046080Y676204D01*
X1047660Y674280D01*
X1049584Y672700D01*
X1051780Y671527D01*
X1054162Y670804D01*
X1056640Y670560D01*
X1059118Y670804D01*
X1061500Y671527D01*
X1063696Y672700D01*
X1065620Y674280D01*
X1067200Y676204D01*
X1068373Y678400D01*
X1069096Y680782D01*
X1069340Y683260D01*
X1043940D02*
X1044184Y680782D01*
X1044907Y678400D01*
X1046080Y676204D01*
X1047660Y674280D01*
X1049584Y672700D01*
X1051780Y671527D01*
X1054162Y670804D01*
X1056640Y670560D01*
X1059118Y670804D01*
X1061500Y671527D01*
X1063696Y672700D01*
X1065620Y674280D01*
X1067200Y676204D01*
X1068373Y678400D01*
X1069096Y680782D01*
X1069340Y683260D01*
X1018540Y684530D02*
X1018784Y682052D01*
X1019507Y679670D01*
X1020680Y677474D01*
X1022260Y675550D01*
X1024184Y673970D01*
X1026380Y672797D01*
X1028762Y672074D01*
X1031240Y671830D01*
X1033718Y672074D01*
X1036100Y672797D01*
X1038296Y673970D01*
X1040220Y675550D01*
X1041800Y677474D01*
X1042973Y679670D01*
X1043696Y682052D01*
X1043940Y684530D01*
X1018540D02*
X1018784Y682052D01*
X1019507Y679670D01*
X1020680Y677474D01*
X1022260Y675550D01*
X1024184Y673970D01*
X1026380Y672797D01*
X1028762Y672074D01*
X1031240Y671830D01*
X1033718Y672074D01*
X1036100Y672797D01*
X1038296Y673970D01*
X1040220Y675550D01*
X1041800Y677474D01*
X1042973Y679670D01*
X1043696Y682052D01*
X1043940Y684530D01*
X1069340Y656678D02*
X1067454Y658464D01*
X1065320Y659946D01*
X1062986Y661087D01*
X1060507Y661863D01*
X1057939Y662256D01*
X1055341D01*
X1052773Y661863D01*
X1050294Y661087D01*
X1047960Y659946D01*
X1045826Y658464D01*
X1043940Y656678D01*
Y633642D02*
X1045826Y631856D01*
X1047960Y630374D01*
X1050294Y629233D01*
X1052773Y628457D01*
X1055341Y628064D01*
X1057939D01*
X1060507Y628457D01*
X1062986Y629233D01*
X1065320Y630374D01*
X1067454Y631856D01*
X1069340Y633642D01*
X1043940Y656678D02*
X1042054Y658464D01*
X1039920Y659946D01*
X1037586Y661087D01*
X1035107Y661863D01*
X1032539Y662256D01*
X1029941D01*
X1027373Y661863D01*
X1024894Y661087D01*
X1022560Y659946D01*
X1020426Y658464D01*
X1018540Y656678D01*
Y633642D02*
X1020426Y631856D01*
X1022560Y630374D01*
X1024894Y629233D01*
X1027373Y628457D01*
X1029941Y628064D01*
X1032539D01*
X1035107Y628457D01*
X1037586Y629233D01*
X1039920Y630374D01*
X1042054Y631856D01*
X1043940Y633642D01*
X1018540Y656678D02*
X1016654Y658464D01*
X1014520Y659946D01*
X1012186Y661087D01*
X1009707Y661863D01*
X1007139Y662256D01*
X1004541D01*
X1001973Y661863D01*
X999494Y661087D01*
X997160Y659946D01*
X995026Y658464D01*
X993140Y656678D01*
Y633642D02*
X995026Y631856D01*
X997160Y630374D01*
X999494Y629233D01*
X1001973Y628457D01*
X1004541Y628064D01*
X1007139D01*
X1009707Y628457D01*
X1012186Y629233D01*
X1014520Y630374D01*
X1016654Y631856D01*
X1018540Y633642D01*
X941158Y657860D02*
X942807Y659579D01*
X944202Y661509D01*
X945315Y663615D01*
X946126Y665854D01*
X946620Y668184D01*
X946785Y670560D01*
Y645160D02*
X946620Y647536D01*
X946126Y649866D01*
X945315Y652105D01*
X944202Y654211D01*
X942807Y656141D01*
X941158Y657860D01*
X946785Y670560D02*
X946620Y672936D01*
X946126Y675266D01*
X945315Y677505D01*
X944202Y679611D01*
X942807Y681541D01*
X941158Y683260D01*
X916940Y659042D02*
X918122Y657860D01*
X915758D02*
X916940Y659042D01*
X918122Y657860D02*
X916940Y656678D01*
X915758Y657860D01*
X993140Y656678D02*
X991272Y658450D01*
X989160Y659922D01*
X986851Y661061D01*
X984398Y661842D01*
X981855Y662246D01*
X979280Y662266D01*
X976732Y661899D01*
X974267Y661155D01*
X971942Y660051D01*
X969808Y658610D01*
X967913Y656866D01*
X966302Y654858D01*
X965009Y652632D01*
X964064Y650237D01*
X963488Y647727D01*
X963295Y645160D01*
X963488Y642593D01*
X964064Y640083D01*
X965009Y637688D01*
X966302Y635462D01*
X967913Y633454D01*
X969808Y631710D01*
X971942Y630270D01*
X974267Y629165D01*
X976732Y628421D01*
X979280Y628054D01*
X981855Y628074D01*
X984398Y628478D01*
X986851Y629259D01*
X989160Y630398D01*
X991272Y631870D01*
X993140Y633642D01*
X916940Y633642D02*
X918808Y631870D01*
X920920Y630398D01*
X923229Y629259D01*
X925682Y628478D01*
X928225Y628074D01*
X930800Y628054D01*
X933348Y628421D01*
X935813Y629165D01*
X938139Y630270D01*
X940272Y631710D01*
X942167Y633454D01*
X943778Y635462D01*
X945071Y637688D01*
X946016Y640083D01*
X946592Y642593D01*
X946785Y645160D01*
X895985Y630133D02*
X898299Y629077D01*
X900744Y628375D01*
X903266Y628043D01*
X905809Y628087D01*
X908318Y628507D01*
X910737Y629294D01*
X913013Y630430D01*
X915096Y631890D01*
X916940Y633642D01*
X1065530Y593178D02*
X1063686Y594930D01*
X1061603Y596390D01*
X1059327Y597526D01*
X1056908Y598313D01*
X1054399Y598733D01*
X1051856Y598777D01*
X1049334Y598445D01*
X1046889Y597743D01*
X1044575Y596687D01*
X1010285Y590640D02*
X1008861Y592625D01*
X1007169Y594386D01*
X1005244Y595890D01*
X1003124Y597104D01*
X1000854Y598006D01*
X998479Y598575D01*
X996046Y598801D01*
X993607Y598679D01*
X991209Y598212D01*
X988903Y597408D01*
X986733Y596286D01*
X984746Y594866D01*
X982980Y593178D01*
X1005941Y567924D02*
X1007585Y569322D01*
X1009041Y570916D01*
X1010285Y572680D01*
X982980Y593178D02*
X981136Y594930D01*
X979053Y596390D01*
X976777Y597526D01*
X974358Y598313D01*
X971849Y598733D01*
X969306Y598777D01*
X966784Y598445D01*
X964339Y597743D01*
X962025Y596687D01*
X982980Y570142D02*
X985419Y567924D01*
X983838Y566494D01*
X982454Y564872D01*
X979659Y567308D02*
X981410Y568619D01*
X982980Y570142D01*
X982454Y564872D02*
X979659Y567308D01*
X1014938Y564515D02*
X1013622Y562771D01*
X1012548Y560869D01*
X1011734Y558842D01*
X1011376Y549868D02*
X1012147Y547473D01*
X1013274Y545223D01*
X1014730Y543171D01*
X1011734Y558842D02*
X1010876Y561444D01*
X1009599Y563869D01*
X1007939Y566049D01*
X1005941Y567924D01*
X1008380Y544441D02*
X1010135Y547013D01*
X1011376Y549868D01*
X1014730Y542378D02*
X1012922Y539996D01*
X1011555Y537336D01*
Y524384D02*
X1012770Y521970D01*
X1011555Y537336D02*
X1010188Y539996D01*
X1008380Y542378D01*
X1010340Y521970D02*
X1011555Y524384D01*
X932388Y564515D02*
X930861Y562440D01*
X929675Y560153D01*
X928859Y557709D01*
X928434Y555168D01*
X928409Y552592D01*
X928784Y550044D01*
X929552Y547584D01*
X930694Y545275D01*
X932180Y543171D01*
X891540Y622300D02*
X891196Y625237D01*
X890182Y628015D01*
X891540Y622300D02*
X891196Y625237D01*
X890182Y628015D01*
X867498D02*
X866484Y625237D01*
X866140Y622300D01*
X867498Y628015D02*
X866484Y625237D01*
X866140Y622300D01*
X906780Y577850D02*
X906536Y580328D01*
X905813Y582710D01*
X904640Y584906D01*
X903060Y586830D01*
X906780Y577850D02*
X906535Y580332D01*
X905810Y582719D01*
X904632Y584917D01*
X903047Y586844D01*
X905598Y543560D02*
X907247Y545279D01*
X908642Y547209D01*
X909755Y549315D01*
X910566Y551554D01*
X911060Y553884D01*
X911225Y556260D01*
X911039Y558777D01*
X910486Y561239D01*
X909577Y563593D01*
X908333Y565789D01*
X906780Y567778D01*
X932180Y542378D02*
X930294Y544164D01*
X928160Y545646D01*
X925826Y546787D01*
X923347Y547563D01*
X920779Y547956D01*
X918181D01*
X915613Y547563D01*
X913134Y546787D01*
X910800Y545646D01*
X908666Y544164D01*
X906780Y542378D01*
X905598Y543560D01*
X881380Y544742D02*
X882562Y543560D01*
X884700Y516508D02*
X886888Y515297D01*
X889228Y514416D01*
X891673Y513885D01*
X894168Y513715D01*
X896661Y513910D01*
X880198Y543560D02*
X881380Y544742D01*
X882562Y543560D02*
X881380Y542378D01*
X880198Y543560D01*
X842411Y678687D02*
X840708Y681148D01*
X838589Y683260D01*
X844995Y681039D02*
X842411Y678687D01*
X838589Y657860D02*
X839470Y658646D01*
X815761Y659524D02*
X817491Y657860D01*
X839470Y657074D02*
X838589Y657860D01*
X814158D02*
X815761Y659524D01*
Y656196D02*
X814158Y657860D01*
X817491D02*
X815761Y656196D01*
X814158Y632460D02*
X815761Y634124D01*
X817680Y632305D01*
X819865Y630816D01*
X822260Y629695D01*
X824803Y628970D01*
X827429Y628661D01*
X830071Y628775D01*
X832661Y629310D01*
X835132Y630251D01*
X837421Y631574D01*
X839470Y633246D01*
X781050Y683260D02*
X778417Y682984D01*
X775898Y682168D01*
X773603Y680847D01*
X771631Y679079D01*
X770070Y676941D01*
X768985Y674526D01*
X781050Y683260D02*
X778417Y682984D01*
X775898Y682168D01*
X773603Y680847D01*
X771631Y679079D01*
X770070Y676941D01*
X768985Y674526D01*
X839470Y614680D02*
X839714Y612202D01*
X840437Y609820D01*
X841610Y607624D01*
X843190Y605700D01*
X839470Y614680D02*
X839715Y612198D01*
X840440Y609811D01*
X841618Y607612D01*
X843203Y605686D01*
X814158Y607060D02*
X815807Y608779D01*
X817202Y610709D01*
X818315Y612815D01*
X819127Y615054D01*
X819620Y617384D01*
X819785Y619760D01*
X819620Y622136D01*
X819127Y624466D01*
X818315Y626705D01*
X817202Y628811D01*
X815807Y630741D01*
X814158Y632460D01*
X819785Y594360D02*
X819620Y596736D01*
X819127Y599066D01*
X818315Y601305D01*
X817202Y603411D01*
X815807Y605341D01*
X814158Y607060D01*
X768985Y666594D02*
X770070Y664179D01*
X771631Y662041D01*
X773603Y660273D01*
X775898Y658952D01*
X778417Y658136D01*
X781050Y657860D01*
X768985Y666594D02*
X770070Y664179D01*
X771631Y662041D01*
X773603Y660273D01*
X775898Y658952D01*
X778417Y658136D01*
X781050Y657860D01*
X778651Y657631D01*
X776339Y656954D01*
X774196Y655852D01*
X772300Y654364D01*
X770719Y652546D01*
X769510Y650462D01*
X768716Y648186D01*
X781050Y657860D02*
X778651Y657631D01*
X776339Y656954D01*
X774196Y655852D01*
X772300Y654364D01*
X770719Y652546D01*
X769510Y650462D01*
X768716Y648186D01*
X768004Y650876D01*
X766867Y653415D01*
X768716Y642134D02*
X769510Y639859D01*
X770719Y637774D01*
X772300Y635956D01*
X774196Y634468D01*
X776339Y633366D01*
X778651Y632689D01*
X781050Y632460D01*
X768716Y642134D02*
X769510Y639859D01*
X770719Y637774D01*
X772300Y635956D01*
X774196Y634468D01*
X776339Y633366D01*
X778651Y632689D01*
X781050Y632460D01*
X763358D02*
X765279Y634513D01*
X766838Y636853D01*
X767994Y639416D01*
X768716Y642134D01*
X781050Y632460D02*
X778651Y632231D01*
X776339Y631554D01*
X774196Y630452D01*
X772300Y628964D01*
X770719Y627146D01*
X769510Y625061D01*
X768716Y622786D01*
X781050Y632460D02*
X778651Y632231D01*
X776339Y631554D01*
X774196Y630452D01*
X772300Y628964D01*
X770719Y627146D01*
X769510Y625061D01*
X768716Y622786D01*
X736813Y653415D02*
X735757Y651101D01*
X735055Y648656D01*
X734723Y646134D01*
X734767Y643591D01*
X735187Y641082D01*
X735974Y638663D01*
X737110Y636387D01*
X738570Y634304D01*
X740322Y632460D01*
X763358Y607060D02*
X765279Y609113D01*
X766838Y611453D01*
X767994Y614016D01*
X768716Y616734D01*
Y622786D02*
X767994Y625504D01*
X766838Y628067D01*
X765279Y630407D01*
X763358Y632460D01*
X768716Y616734D02*
X769510Y614459D01*
X770719Y612374D01*
X772300Y610556D01*
X774196Y609068D01*
X776339Y607966D01*
X778651Y607289D01*
X781050Y607060D01*
X768716Y616734D02*
X769510Y614459D01*
X770719Y612374D01*
X772300Y610556D01*
X774196Y609068D01*
X776339Y607966D01*
X778651Y607289D01*
X781050Y607060D01*
X740322D02*
X738596Y605248D01*
X737152Y603204D01*
X736021Y600972D01*
X735227Y598599D01*
X734787Y596135D01*
X734710Y593634D01*
X734999Y591148D01*
X735646Y588731D01*
X736637Y586433D01*
X737953Y584305D01*
X739565Y582390D01*
X741438Y580731D01*
X743533Y579362D01*
X745805Y578312D01*
X748205Y577605D01*
X750683Y577254D01*
X753185Y577268D01*
X755659Y577646D01*
X758052Y578380D01*
X760312Y579454D01*
X762391Y580846D01*
X764246Y582526D01*
X765837Y584458D01*
X767129Y586601D01*
X768095Y588909D01*
X768716Y591334D01*
Y597386D02*
X767994Y600104D01*
X766838Y602667D01*
X765279Y605007D01*
X763358Y607060D01*
X740322Y632460D02*
X738536Y630574D01*
X737054Y628440D01*
X735913Y626106D01*
X735137Y623627D01*
X734744Y621059D01*
Y618461D01*
X735137Y615893D01*
X735913Y613414D01*
X737054Y611080D01*
X738536Y608946D01*
X740322Y607060D01*
X855980Y544742D02*
X857162Y543560D01*
X847090Y591235D02*
X844501Y591761D01*
X841860Y591740D01*
X839279Y591173D01*
X836872Y590085D01*
X834742Y588522D01*
X832982Y586552D01*
X831667Y584261D01*
X830855Y581747D01*
X830580Y579120D01*
X847090Y591235D02*
X844501Y591761D01*
X841860Y591740D01*
X839279Y591173D01*
X836872Y590085D01*
X834742Y588522D01*
X832982Y586552D01*
X831667Y584261D01*
X830855Y581747D01*
X830580Y579120D01*
X857162Y543560D02*
X855980Y542378D01*
X830580Y581660D02*
X830320Y584219D01*
X829549Y586673D01*
X828299Y588922D01*
X826622Y590872D01*
X824586Y592445D01*
X822275Y593575D01*
X819784Y594216D01*
X830580Y581660D02*
X830320Y584219D01*
X829549Y586673D01*
X828299Y588922D01*
X826622Y590872D01*
X824586Y592445D01*
X822275Y593575D01*
X819784Y594216D01*
X791122Y581660D02*
X793114Y580105D01*
X795314Y578859D01*
X797672Y577951D01*
X800139Y577398D01*
X802660Y577215D01*
X805180Y577404D01*
Y567778D02*
X803627Y565789D01*
X802383Y563593D01*
X801474Y561239D01*
X800921Y558777D01*
X800735Y556260D01*
X800921Y553743D01*
X801474Y551281D01*
X802383Y548927D01*
X803627Y546731D01*
X805180Y544742D01*
X858586Y517001D02*
X859095Y514791D01*
X860081Y512748D01*
X861496Y510976D01*
X858586Y517001D02*
X859095Y514791D01*
X860081Y512748D01*
X861496Y510976D01*
X855980Y519342D02*
X858586Y517001D01*
X830580Y519342D02*
X832466Y517556D01*
X834600Y516074D01*
X836934Y514933D01*
X839413Y514157D01*
X841981Y513764D01*
X844579D01*
X847147Y514157D01*
X849626Y514933D01*
X851960Y516074D01*
X854094Y517556D01*
X855980Y519342D01*
X805180Y542378D02*
X803605Y540356D01*
X802349Y538123D01*
X801440Y535727D01*
X800899Y533222D01*
X800736Y530665D01*
X800957Y528112D01*
X801555Y525620D01*
X802518Y523246D01*
X803825Y521041D01*
X805445Y519056D01*
X807343Y517335D01*
X809477Y515915D01*
X811798Y514830D01*
X814255Y514103D01*
X816793Y513750D01*
X819356Y513779D01*
X821885Y514189D01*
X824325Y514972D01*
X826621Y516110D01*
X828721Y517578D01*
X830580Y519342D01*
X781050Y607060D02*
X778651Y606831D01*
X776339Y606154D01*
X774196Y605052D01*
X772300Y603564D01*
X770719Y601746D01*
X769510Y599661D01*
X768716Y597386D01*
Y591334D02*
X769510Y589058D01*
X770719Y586974D01*
X772300Y585156D01*
X774196Y583669D01*
X776339Y582566D01*
X778651Y581889D01*
X781050Y581660D01*
Y607060D02*
X778651Y606831D01*
X776339Y606154D01*
X774196Y605052D01*
X772300Y603564D01*
X770719Y601746D01*
X769510Y599661D01*
X768716Y597386D01*
Y591334D02*
X769510Y589058D01*
X770719Y586974D01*
X772300Y585156D01*
X774196Y583669D01*
X776339Y582566D01*
X778651Y581889D01*
X781050Y581660D01*
X1278255Y906780D02*
X1364869D01*
X1278255Y904240D02*
X1364869D01*
X1278255Y909320D02*
X1364869D01*
X1278255Y896620D02*
X1364869D01*
X1338580Y890905D02*
Y974217D01*
X1278208Y942340D02*
X1364869D01*
X1278255Y901700D02*
X1364869D01*
X1278208Y944880D02*
X1364869D01*
X1278255Y894080D02*
X1364869D01*
X1278255Y899160D02*
X1364869D01*
X1340485Y878840D02*
X1364869D01*
X1340485Y876300D02*
X1364869D01*
X1340485Y881380D02*
X1364869D01*
X1340485Y871220D02*
X1364869D01*
X1340485Y873760D02*
X1364869D01*
X1278255Y891540D02*
X1364869D01*
X1340485Y889000D02*
X1364869D01*
X1306195Y890905D02*
X1340485D01*
Y883920D02*
X1364869D01*
X1340485Y886460D02*
X1364869D01*
X1328420Y890905D02*
Y974217D01*
X1330960Y890905D02*
Y974217D01*
X1325880Y890905D02*
Y974217D01*
X1336040Y890905D02*
Y974217D01*
X1333500Y890905D02*
Y974217D01*
X1315720Y890905D02*
Y974217D01*
X1318260Y890905D02*
Y974217D01*
X1313180Y890905D02*
Y974217D01*
X1323340Y890905D02*
Y974217D01*
X1320800Y890905D02*
Y974217D01*
X1308100Y890905D02*
Y974217D01*
X1310640Y890905D02*
Y974217D01*
X1278255Y889000D02*
X1306195D01*
X1278255Y886460D02*
X1306195D01*
X1278255Y875665D02*
Y909955D01*
Y881380D02*
X1306195D01*
X1278255Y883920D02*
X1306195D01*
X1278255Y876300D02*
X1306195D01*
X1278255Y878840D02*
X1306195D01*
X1356360Y804308D02*
Y974217D01*
X1358900Y801768D02*
Y974217D01*
X1353820Y806848D02*
Y974217D01*
X1363980Y792480D02*
Y974217D01*
X1361440Y799200D02*
Y974217D01*
X1343660Y817008D02*
Y974217D01*
X1346200Y814468D02*
Y974217D01*
X1341120Y819548D02*
Y974217D01*
X1351280Y809388D02*
Y974217D01*
X1348740Y811928D02*
Y974217D01*
X1340485Y866140D02*
X1364869D01*
X1340485Y863600D02*
X1364869D01*
X1340485Y868680D02*
X1364869D01*
X1340485Y858520D02*
X1364869D01*
X1340485Y861060D02*
X1364869D01*
X1339715Y853440D02*
X1364869D01*
X1340296Y850900D02*
X1364869D01*
X1338699Y855980D02*
X1364869D01*
X1340485Y848360D02*
X1364869D01*
X1300480Y788621D02*
Y974217D01*
X1303020Y788224D02*
Y974217D01*
X1297940Y788621D02*
Y974217D01*
X1305560Y787400D02*
Y974217D01*
X1295400Y788224D02*
Y974217D01*
X1290320Y786072D02*
Y974217D01*
X1292860Y787400D02*
Y974217D01*
X1280160Y787519D02*
Y974217D01*
X1285240Y783678D02*
Y974217D01*
X1282700Y785970D02*
Y974217D01*
X1340485Y856615D02*
Y890905D01*
X1338367Y856615D02*
X1340485D01*
X1306195D02*
X1308313D01*
X1306195D02*
Y890905D01*
X1278208Y866140D02*
X1306195D01*
X1278208Y868680D02*
X1306195D01*
X1287780Y784074D02*
Y974217D01*
X1270000Y958270D02*
Y974217D01*
X1272540Y956389D02*
Y974217D01*
X1267460Y959536D02*
Y974217D01*
X1277620Y948233D02*
Y974217D01*
X1275080Y953549D02*
Y974217D01*
X1262380Y960708D02*
Y974217D01*
X1264920Y960326D02*
Y974217D01*
X1259840Y960708D02*
Y974217D01*
X1265733Y960120D02*
X1364869D01*
X1277826Y947420D02*
X1364869D01*
X1277826Y939800D02*
X1364869D01*
X1277036Y949960D02*
X1364869D01*
X1275770Y934720D02*
X1364869D01*
X1277036Y937260D02*
X1364869D01*
X1273889Y955040D02*
X1364869D01*
X1275770Y952500D02*
X1364869D01*
X1271049Y957580D02*
X1364869D01*
X1273889Y932180D02*
X1364869D01*
X1254760Y959536D02*
Y974217D01*
X1257300Y960326D02*
Y974217D01*
X1252220Y958270D02*
Y974217D01*
X1249680Y956389D02*
Y974217D01*
X1247140Y956389D02*
Y974217D01*
X1239520Y960326D02*
Y974217D01*
X1242060Y959536D02*
Y974217D01*
X1229360Y959536D02*
Y974217D01*
X1244600Y958270D02*
Y974217D01*
X1226820Y958270D02*
Y974217D01*
X1234440Y960708D02*
Y974217D01*
X1236980Y960708D02*
Y974217D01*
X1231900Y960326D02*
Y974217D01*
X1240333Y960120D02*
X1256487D01*
X1245649Y957580D02*
X1251171D01*
X1214933Y960120D02*
X1231087D01*
X1220249Y957580D02*
X1225771D01*
X1224280Y956389D02*
Y974217D01*
X1277174Y924560D02*
X1364869D01*
X1277571Y922020D02*
X1364869D01*
X1276350Y927100D02*
X1364869D01*
X1277174Y916940D02*
X1364869D01*
X1277571Y919480D02*
X1364869D01*
X1276350Y914400D02*
X1364869D01*
X1275022Y911860D02*
X1364869D01*
X1275022Y929640D02*
X1364869D01*
X1276137Y875665D02*
X1278255D01*
X1273602Y909955D02*
X1278255D01*
X1277826Y871220D02*
X1306195D01*
X1277826Y863600D02*
X1306195D01*
X1277036Y873760D02*
X1306195D01*
X1277036Y848360D02*
X1306195D01*
X1277036Y861060D02*
X1306195D01*
X1273889Y855980D02*
X1307981D01*
X1273889Y853440D02*
X1306965D01*
X1275770Y858520D02*
X1306195D01*
X1275770Y850900D02*
X1306384D01*
X1277620Y920750D02*
Y938987D01*
Y909955D02*
Y920750D01*
X1275080Y929549D02*
Y933671D01*
X1277620Y872033D02*
Y875665D01*
X1275080Y909955D02*
Y911951D01*
X1248410Y931299D02*
Y932092D01*
X1273810Y931299D02*
Y932092D01*
X1248410Y931299D02*
Y932092D01*
X1277620Y846633D02*
Y862787D01*
X1275080Y851949D02*
Y857471D01*
X1339715Y843280D02*
X1364869D01*
X1339715Y828040D02*
X1364869D01*
X1340296Y845820D02*
X1364869D01*
X1340485Y822960D02*
X1364869D01*
X1340296Y825500D02*
X1364869D01*
X1337150Y838200D02*
X1364869D01*
X1334858Y835660D02*
X1364869D01*
X1338699Y840740D02*
X1364869D01*
X1338699Y830580D02*
X1364869D01*
X1337150Y833120D02*
X1364869D01*
X1358028Y802640D02*
X1364869D01*
X1360568Y800100D02*
X1364869D01*
X1352948Y807720D02*
X1364869D01*
X1363657Y795020D02*
X1364869D01*
X1362619Y797560D02*
X1364869D01*
X1342788Y817880D02*
X1364869D01*
X1345328Y815340D02*
X1364869D01*
X1340296Y820420D02*
X1364869D01*
X1350408Y810260D02*
X1364869D01*
X1347868Y812800D02*
X1364869D01*
X1338580Y830815D02*
Y840506D01*
X1336040Y834478D02*
Y836842D01*
X1340290Y820379D02*
X1361004Y799664D01*
X1310640Y834478D02*
Y836842D01*
X1308100Y830815D02*
Y840506D01*
X1310640Y809078D02*
Y811442D01*
X1308100Y805415D02*
Y815106D01*
X1363980Y792480D02*
X1364869D01*
X1363980Y787400D02*
X1364869D01*
X1363980Y789940D02*
X1364869D01*
X1355488Y805180D02*
X1364869D01*
X1305560Y787400D02*
X1309530D01*
X1309759Y784860D02*
X1311822D01*
X1308100Y786072D02*
Y789706D01*
X1363980Y769620D02*
X1364869D01*
X1363980Y767080D02*
X1364869D01*
X1363980Y772160D02*
X1364869D01*
X1363980Y762000D02*
X1364869D01*
X1363980Y764540D02*
X1364869D01*
X1363980Y782320D02*
X1364869D01*
X1363980Y779780D02*
X1364869D01*
X1363980Y784860D02*
X1364869D01*
X1363980Y774700D02*
X1364869D01*
X1363980Y777240D02*
X1364869D01*
X1363980Y744220D02*
X1364869D01*
X1363980Y731520D02*
X1364869D01*
X1363980Y746760D02*
X1364869D01*
X1363980Y723900D02*
X1364869D01*
X1363980Y728980D02*
X1364869D01*
X1363980Y756920D02*
X1364869D01*
X1363980Y754380D02*
X1364869D01*
X1363980Y759460D02*
X1364869D01*
X1363980Y749300D02*
X1364869D01*
X1363980Y751840D02*
X1364869D01*
X1311029Y759460D02*
X1311822D01*
X1363980Y741680D02*
X1364869D01*
X1311029Y759460D02*
X1311822D01*
X1363980Y736600D02*
X1364869D01*
X1363980Y739140D02*
X1364869D01*
X1309759Y784860D02*
X1311822D01*
X1310640D02*
Y786042D01*
X1311029Y734060D02*
X1311822D01*
X1311029D02*
X1311822D01*
X1363980D02*
X1364869D01*
X1300480Y729161D02*
Y730250D01*
X1363980Y726440D02*
X1364869D01*
X1297940Y726620D02*
Y730446D01*
X1289685Y728980D02*
X1300300D01*
X1289685Y726440D02*
X1297760D01*
X1295400Y724081D02*
Y731051D01*
X1289685Y723900D02*
X1295220D01*
X1278208Y843280D02*
X1306965D01*
X1278208Y840740D02*
X1307981D01*
X1277826Y845820D02*
X1306384D01*
X1277036Y835660D02*
X1311822D01*
X1277826Y838200D02*
X1309530D01*
X1275770Y833120D02*
X1309530D01*
X1273889Y830580D02*
X1307981D01*
X1271049Y828040D02*
X1306965D01*
X1265733Y825500D02*
X1306384D01*
X1137856Y822960D02*
X1306195D01*
X1136218Y817880D02*
X1306965D01*
X1134290Y815340D02*
X1307981D01*
X1137335Y820420D02*
X1306384D01*
X1131750Y812800D02*
X1309530D01*
X1129211Y810260D02*
X1311822D01*
X1126671Y807720D02*
X1309530D01*
X1124130Y805180D02*
X1307981D01*
X1121410Y802640D02*
X1306965D01*
X1113790Y800100D02*
X1306384D01*
X1275080Y789116D02*
Y832071D01*
X1272540Y789305D02*
Y829231D01*
X1270000Y789116D02*
Y827350D01*
X1277620Y788535D02*
Y837387D01*
X1267460Y788535D02*
Y826084D01*
X1245649Y828040D02*
X1251171D01*
X1240333Y825500D02*
X1256487D01*
X1137920Y828040D02*
X1225771D01*
X1137920Y825500D02*
X1231087D01*
X1264920Y787519D02*
Y825294D01*
X1280394Y787400D02*
X1292860D01*
X1262380Y785970D02*
Y824912D01*
X1284058Y784860D02*
X1288661D01*
X1259840Y783678D02*
Y824912D01*
X1257300Y780014D02*
Y825294D01*
X1197610Y767080D02*
X1256165D01*
X1207951Y762000D02*
X1258730D01*
X1205230Y764540D02*
X1257181D01*
X1285240Y758278D02*
Y760642D01*
X1287780Y757309D02*
Y760246D01*
X1284058Y759460D02*
X1288661D01*
X1259840Y758278D02*
Y760642D01*
X1257300Y754614D02*
Y764305D01*
X1286350Y756920D02*
X1287466D01*
X1230810Y739140D02*
X1257181D01*
X1289685Y731520D02*
X1294130D01*
X1255395Y738505D02*
X1257513D01*
X1210490Y759460D02*
X1261022D01*
X1213030Y756920D02*
X1258730D01*
X1215571Y754380D02*
X1257181D01*
X1218111Y751840D02*
X1256165D01*
X1239520Y730431D02*
Y825294D01*
X1236980Y732971D02*
Y824912D01*
X1234440Y735510D02*
Y824912D01*
X1244600Y725350D02*
Y827350D01*
X1242060Y727890D02*
Y826084D01*
X1226820Y743130D02*
Y827350D01*
X1220650Y749300D02*
X1255584D01*
X1224280Y745670D02*
Y829231D01*
X1231900Y738051D02*
Y825294D01*
X1229360Y740591D02*
Y826084D01*
X1238430Y731520D02*
X1255395D01*
X1240971Y728980D02*
X1255395D01*
X1235891Y734060D02*
X1255395D01*
X1246050Y723900D02*
X1255395D01*
X1243511Y726440D02*
X1255395D01*
X1225731Y744220D02*
X1255584D01*
X1223191Y746760D02*
X1255395D01*
X1228270Y741680D02*
X1256165D01*
X1233351Y736600D02*
X1255395D01*
X1214120Y960326D02*
Y974217D01*
X1216660Y959536D02*
Y974217D01*
X1211580Y960708D02*
Y974217D01*
X1221740Y956389D02*
Y974217D01*
X1219200Y958270D02*
Y974217D01*
X1206500Y960326D02*
Y974217D01*
X1209040Y960708D02*
Y974217D01*
X1188720Y960326D02*
Y974217D01*
X1203960Y959536D02*
Y974217D01*
X1201420Y958270D02*
Y974217D01*
X1193800Y958270D02*
Y974217D01*
X1194849Y957580D02*
X1200371D01*
X1191260Y959536D02*
Y974217D01*
X1198880Y956389D02*
Y974217D01*
X1196340Y956389D02*
Y974217D01*
X1183640Y960708D02*
Y974217D01*
X1186180Y960708D02*
Y974217D01*
X1181100Y960326D02*
Y974217D01*
X1189533Y960120D02*
X1205687D01*
X1164133D02*
X1180287D01*
X1176020Y958270D02*
Y974217D01*
X1178560Y959536D02*
Y974217D01*
X1168400Y958270D02*
Y974217D01*
X1173480Y956389D02*
Y974217D01*
X1170940Y956389D02*
Y974217D01*
X1160780Y960708D02*
Y974217D01*
X1163320Y960326D02*
Y974217D01*
X1158240Y960708D02*
Y974217D01*
X1165860Y959536D02*
Y974217D01*
X1143000Y958270D02*
Y974217D01*
X1153160Y959536D02*
Y974217D01*
X1155700Y960326D02*
Y974217D01*
X1150620Y958270D02*
Y974217D01*
X1169449Y957580D02*
X1174971D01*
X1145540Y956389D02*
Y974217D01*
X1138733Y960120D02*
X1154887D01*
X1137920Y960326D02*
Y974217D01*
X1144049Y957580D02*
X1149571D01*
X1140460Y959536D02*
Y974217D01*
X1223010Y931299D02*
Y932092D01*
Y931299D02*
Y932092D01*
X1197610Y931299D02*
Y932092D01*
Y931299D02*
Y932092D01*
X1172210Y931299D02*
Y932092D01*
X1170940Y929549D02*
Y930831D01*
X1169449Y929640D02*
X1170998D01*
X1168400Y920750D02*
Y928950D01*
X1170940Y909955D02*
Y911951D01*
X1168400Y909955D02*
Y920750D01*
X1164133Y927100D02*
X1169670D01*
X1167765Y909955D02*
X1172418D01*
X1137920Y899160D02*
X1167765D01*
X1137920Y891540D02*
X1167765D01*
X1137920Y896620D02*
X1167765D01*
X1148080Y767080D02*
Y930831D01*
X1150620Y767080D02*
Y928950D01*
X1148080Y956389D02*
Y974217D01*
X1165860Y767080D02*
Y927684D01*
X1153160Y767080D02*
Y927684D01*
X1144049Y929640D02*
X1149571D01*
X1138733Y927100D02*
X1154887D01*
X1145540Y767080D02*
Y930831D01*
X1143000Y767080D02*
Y928950D01*
X1140460Y767080D02*
Y927684D01*
X1163320Y767080D02*
Y926894D01*
X1167765Y875665D02*
Y909955D01*
X1160780Y767080D02*
Y926512D01*
X1158240Y767080D02*
Y926512D01*
X1155700Y767080D02*
Y926894D01*
X1137920Y909320D02*
X1167765D01*
X1137920Y916940D02*
Y926894D01*
Y886460D02*
X1167765D01*
X1137920Y767080D02*
Y916940D01*
X1132840Y960708D02*
Y974217D01*
X1135380Y960708D02*
Y974217D01*
X1130300Y960326D02*
Y974217D01*
X1127760Y959536D02*
Y974217D01*
X1125220Y958270D02*
Y974217D01*
X1109980Y956389D02*
Y974217D01*
X1122680Y956389D02*
Y974217D01*
X1107440Y958270D02*
Y974217D01*
X1120140Y953549D02*
Y974217D01*
X1117600Y948233D02*
Y974217D01*
X1111329Y955040D02*
X1121331D01*
X1113210Y952500D02*
X1119450D01*
X1112520Y953549D02*
Y974217D01*
X1114476Y949960D02*
X1118184D01*
X1115060Y948233D02*
Y974217D01*
X1102360Y960326D02*
Y974217D01*
X1103173Y960120D02*
X1129487D01*
X1099820Y960708D02*
Y974217D01*
X1108489Y957580D02*
X1124171D01*
X1104900Y959536D02*
Y974217D01*
X1094740Y960326D02*
Y974217D01*
X1097280Y960708D02*
Y974217D01*
X1092200Y959536D02*
Y974217D01*
X1089660Y958270D02*
Y974217D01*
X1087120Y956389D02*
Y974217D01*
X1079500Y959536D02*
Y974217D01*
X1082040Y958270D02*
Y974217D01*
X1066800Y959536D02*
Y974217D01*
X1084580Y956389D02*
Y974217D01*
X1059180Y956389D02*
Y974217D01*
X1074420Y960708D02*
Y974217D01*
X1076960Y960326D02*
Y974217D01*
X1071880Y960708D02*
Y974217D01*
X1077773Y960120D02*
X1093927D01*
X1083089Y957580D02*
X1088611D01*
X1069340Y960326D02*
Y974217D01*
X1064260Y958270D02*
Y974217D01*
X1061720Y956389D02*
Y974217D01*
X1135380Y924560D02*
X1168846D01*
X1135380D02*
Y926512D01*
X1137663Y919480D02*
X1168449D01*
X1136860Y922020D02*
X1168449D01*
X1115266Y947420D02*
X1117394D01*
X1115648Y942340D02*
X1117012D01*
X1115500Y941029D02*
X1117623Y938905D01*
X1137920Y904240D02*
X1167765D01*
X1137920Y901700D02*
X1167765D01*
X1137920Y906780D02*
X1167765D01*
X1137920Y889000D02*
X1167765D01*
X1137920Y894080D02*
X1167765D01*
X1137920Y914400D02*
X1169670D01*
X1137920Y916940D02*
X1168846D01*
X1137920Y911860D02*
X1170998D01*
X1137920Y824230D02*
Y916940D01*
X1115648Y944880D02*
X1117012D01*
X1088390Y901700D02*
Y910356D01*
X1087120Y904149D02*
Y908271D01*
X1085929Y906780D02*
X1088390D01*
X1087062Y904240D02*
X1088390D01*
X1085850Y905899D02*
Y906692D01*
X1088390Y859155D02*
Y889000D01*
X1087120Y859155D02*
Y886551D01*
X1060450Y905899D02*
Y906692D01*
Y905899D02*
Y906692D01*
X1218565Y875665D02*
X1220683D01*
X1218565D02*
X1220683D01*
X1219200Y872033D02*
Y875665D01*
Y846633D02*
Y862787D01*
X1137920Y873760D02*
X1219784D01*
X1137920Y871220D02*
X1218994D01*
X1137920Y863600D02*
X1218994D01*
X1137920Y858520D02*
X1221050D01*
X1137920Y861060D02*
X1219784D01*
X1137920Y855980D02*
X1222931D01*
X1137920Y853440D02*
X1222931D01*
X1221740Y851949D02*
Y857471D01*
X1137920Y850900D02*
X1221050D01*
X1137920Y848360D02*
X1219784D01*
X1137920Y838200D02*
X1218994D01*
X1137920Y835660D02*
X1219784D01*
X1137920Y845820D02*
X1218994D01*
X1137920Y830580D02*
X1222931D01*
X1137920Y833120D02*
X1221050D01*
X1193165Y875665D02*
X1202055D01*
X1218565D01*
X1193165D02*
X1202055D01*
X1196340Y767080D02*
Y875665D01*
X1193800Y767080D02*
Y875665D01*
X1137920Y881380D02*
X1167765D01*
X1137920Y878840D02*
X1167765D01*
X1137920Y883920D02*
X1167765D01*
Y875665D02*
X1193165D01*
X1137920Y876300D02*
X1167765D01*
X1137920Y868680D02*
X1218612D01*
X1137920Y866140D02*
X1218612D01*
X1191260Y767080D02*
Y875665D01*
X1188720Y767080D02*
Y875665D01*
X1168400Y767080D02*
Y875665D01*
X1137920Y840740D02*
X1218612D01*
X1137920Y843280D02*
X1218612D01*
X1214120Y755831D02*
Y875665D01*
X1216660Y753290D02*
Y875665D01*
X1211580Y758371D02*
Y875665D01*
X1221740Y748211D02*
Y832071D01*
X1219200Y750751D02*
Y837387D01*
X1201420Y766495D02*
Y875665D01*
X1203960Y765378D02*
Y875665D01*
X1198880Y767016D02*
Y875665D01*
X1209040Y760910D02*
Y875665D01*
X1206500Y763450D02*
Y875665D01*
X1202870Y728980D02*
X1205050D01*
X1205411Y726440D02*
X1207589D01*
X1203960Y727890D02*
Y730070D01*
X1207951Y723900D02*
X1210129D01*
X1206500Y725350D02*
Y727530D01*
X1197791Y734060D02*
X1199969D01*
X1200331Y731520D02*
X1202510D01*
X1201420Y730431D02*
Y732609D01*
X1178560Y767080D02*
Y875665D01*
X1181100Y767080D02*
Y875665D01*
X1176020Y767080D02*
Y875665D01*
X1186180Y767080D02*
Y875665D01*
X1183640Y767080D02*
Y875665D01*
X1135380Y767080D02*
Y816610D01*
X1132840Y767080D02*
Y813889D01*
X1130300Y767080D02*
Y811349D01*
X1173480Y767080D02*
Y875665D01*
X1170940Y767080D02*
Y875665D01*
X1192710Y739140D02*
X1194890D01*
X1195250Y736600D02*
X1197430D01*
X1193800Y738051D02*
Y740229D01*
X1198880Y732971D02*
Y735150D01*
X1196340Y735510D02*
Y737690D01*
X1190171Y741680D02*
X1192349D01*
X1127760Y767080D02*
Y808810D01*
X1190171Y741680D02*
X1192349D01*
X1191260Y740591D02*
Y741680D01*
X1085265Y873760D02*
X1088390D01*
X1085786Y871220D02*
X1088390D01*
X1087062Y886460D02*
X1088390D01*
X1085265Y866140D02*
X1088390D01*
X1085786Y868680D02*
X1088390D01*
X1083310Y881380D02*
X1088390D01*
X1083310Y878840D02*
X1088390D01*
X1085064Y883920D02*
X1088390D01*
X1084148Y863600D02*
X1088390D01*
X1084148Y876300D02*
X1088390D01*
X1109980Y826951D02*
Y828098D01*
X1109889Y828040D02*
X1111069D01*
X1101090Y825500D02*
X1108530D01*
X1094740D02*
Y826770D01*
X1090295Y825500D02*
X1101090D01*
X1090295Y828040D02*
X1092291D01*
X1090295Y825500D02*
X1101090D01*
X1090295D02*
Y829518D01*
X1084580Y875486D02*
Y883436D01*
X1083310Y877570D02*
Y882336D01*
X1062990Y877570D02*
Y882336D01*
X1061720Y875486D02*
Y883436D01*
X1057910Y878840D02*
X1062990D01*
X1059664Y883920D02*
X1061236D01*
X1059180Y859155D02*
Y883436D01*
X1057910Y876300D02*
Y882336D01*
X1082220Y861060D02*
X1088390D01*
X1084580Y859155D02*
Y864414D01*
X1082040Y859155D02*
Y860880D01*
X1057910Y876300D02*
X1062151D01*
X1061720Y859155D02*
Y864414D01*
X1079840Y859155D02*
X1088390D01*
X1064260D02*
Y860880D01*
X1122784Y803833D02*
X1134187Y815236D01*
X1125220Y767080D02*
Y806270D01*
X1122680Y767080D02*
Y803730D01*
X1120140Y767080D02*
Y801802D01*
X1117600Y767080D02*
Y800685D01*
X1108530Y825500D02*
X1112520Y829491D01*
X1101090Y825500D02*
X1108530D01*
X1107440D02*
Y826770D01*
Y767080D02*
Y800100D01*
X1109980Y767080D02*
Y800100D01*
X1104900Y767080D02*
Y800100D01*
X1115060Y767080D02*
Y800164D01*
X1112520Y767080D02*
Y800100D01*
X1058299D02*
X1113790D01*
X1058299D02*
X1113790D01*
X1060450Y767080D02*
X1197610D01*
X1060450D02*
X1197610D01*
X1094740D02*
Y800100D01*
X1097280Y767080D02*
Y800100D01*
X1092200Y825500D02*
Y828098D01*
X1102360Y767080D02*
Y800100D01*
X1099820Y767080D02*
Y800100D01*
X1084580Y767080D02*
Y800100D01*
X1087120Y767080D02*
Y800100D01*
X1082040Y767080D02*
Y800100D01*
X1092200Y767080D02*
Y800100D01*
X1089660Y767080D02*
Y800100D01*
X1071880Y767080D02*
Y800100D01*
X1074420Y767080D02*
Y800100D01*
X1069340Y767080D02*
Y800100D01*
X1079500Y767080D02*
Y800100D01*
X1076960Y767080D02*
Y800100D01*
X1066800Y767080D02*
Y800100D01*
X1064260Y767080D02*
Y800100D01*
X1061720Y767080D02*
Y800100D01*
X1059180Y767016D02*
Y800100D01*
X1363980Y657860D02*
X1364869D01*
X1363980Y655320D02*
X1364869D01*
X1363980Y660400D02*
X1364869D01*
X1363980Y650240D02*
X1364869D01*
X1363980Y652780D02*
X1364869D01*
X1363980Y670560D02*
X1364869D01*
X1363980Y668020D02*
X1364869D01*
X1363980Y673100D02*
X1364869D01*
X1363980Y662940D02*
X1364869D01*
X1363980Y665480D02*
X1364869D01*
X1363980Y632460D02*
X1364869D01*
X1363980Y629920D02*
X1364869D01*
X1363980Y635000D02*
X1364869D01*
X1363980Y624840D02*
X1364869D01*
X1363980Y627380D02*
X1364869D01*
X1363980Y645160D02*
X1364869D01*
X1363980Y642620D02*
X1364869D01*
X1363980Y647700D02*
X1364869D01*
X1363980Y637540D02*
X1364869D01*
X1363980Y640080D02*
X1364869D01*
X1363980Y706120D02*
X1364869D01*
X1363980Y703580D02*
X1364869D01*
X1363980Y708660D02*
X1364869D01*
X1363980Y698500D02*
X1364869D01*
X1363980Y701040D02*
X1364869D01*
X1363980Y718820D02*
X1364869D01*
X1363980Y716280D02*
X1364869D01*
X1363980Y721360D02*
X1364869D01*
X1363980Y711200D02*
X1364869D01*
X1363980Y713740D02*
X1364869D01*
X1363980Y683260D02*
X1364869D01*
X1363980Y680720D02*
X1364869D01*
X1363980Y685800D02*
X1364869D01*
X1363980Y675640D02*
X1364869D01*
X1363980Y678180D02*
X1364869D01*
X1363980Y693420D02*
X1364869D01*
X1363980Y695960D02*
X1364869D01*
X1363980Y688340D02*
X1364869D01*
X1363980Y690880D02*
X1364869D01*
X1363980Y619760D02*
X1364869D01*
X1363980Y617220D02*
X1364869D01*
X1363980Y622300D02*
X1364869D01*
Y501015D02*
Y974217D01*
X1363980Y614680D02*
X1364869D01*
X1363980Y601980D02*
X1364869D01*
X1363980Y596900D02*
X1364869D01*
X1363980Y612140D02*
X1364869D01*
X1363980Y591820D02*
X1364869D01*
X1363980Y594360D02*
X1364869D01*
X1363980Y586740D02*
X1364869D01*
X1363952Y584200D02*
X1364869D01*
X1363980Y589280D02*
X1364869D01*
X1362137Y579120D02*
X1364869D01*
X1363431Y581660D02*
X1364869D01*
X1357274Y574040D02*
X1364869D01*
X1354733Y571500D02*
X1364869D01*
X1359814Y576580D02*
X1364869D01*
X1348383Y566420D02*
X1364869D01*
X1351634Y568960D02*
X1364869D01*
X1363980Y607060D02*
X1364869D01*
X1363980Y604520D02*
X1364869D01*
X1363980Y609600D02*
X1364869D01*
X1363980Y501015D02*
Y792480D01*
Y584955D02*
Y792480D01*
Y599440D02*
X1364869D01*
X1361440Y501015D02*
Y578235D01*
X1353899Y570666D02*
X1361004Y577771D01*
X1353820Y501015D02*
Y570587D01*
X1351280Y501015D02*
Y568773D01*
X1358900Y501015D02*
Y575667D01*
X1356360Y501015D02*
Y573126D01*
X1341834Y559871D02*
X1350311Y568348D01*
X1348740Y501015D02*
Y566777D01*
X1299566Y565150D02*
X1304846Y559871D01*
X1289685Y718365D02*
Y734268D01*
X1290320Y719000D02*
Y733746D01*
X1252220Y717730D02*
Y827350D01*
X1255395Y714556D02*
Y738505D01*
X1254760Y715191D02*
Y826084D01*
X1249680Y720270D02*
Y829231D01*
X1206604Y763347D02*
X1255395Y714556D01*
X1247140Y722811D02*
Y829231D01*
X1192349Y741680D02*
X1235529Y698500D01*
X1190171Y741680D02*
X1233351Y698500D01*
X1292860Y721541D02*
Y732114D01*
X1289685Y721360D02*
X1292679D01*
X1251131Y718820D02*
X1255395D01*
X1289685Y718365D02*
X1301608Y730289D01*
X1253671Y716280D02*
X1255395D01*
X1248590Y721360D02*
X1255395D01*
X1234440Y698500D02*
Y699589D01*
X1230810Y701040D02*
X1232990D01*
X1233351Y698500D02*
X1235529D01*
X1233351D02*
X1235529D01*
X1215571Y716280D02*
X1217749D01*
X1218111Y713740D02*
X1220290D01*
X1216660Y715191D02*
Y717370D01*
X1221740Y710110D02*
Y712290D01*
X1219200Y712651D02*
Y714829D01*
X1211580Y720270D02*
Y722449D01*
X1210490Y721360D02*
X1212670D01*
X1209040Y722811D02*
Y724989D01*
X1213030Y718820D02*
X1215210D01*
X1214120Y717730D02*
Y719910D01*
X1225731Y706120D02*
X1227909D01*
X1228270Y703580D02*
X1230450D01*
X1226820Y705031D02*
Y707209D01*
X1231900Y699950D02*
Y702130D01*
X1229360Y702490D02*
Y704669D01*
X1223191Y708660D02*
X1225369D01*
X1220650Y711200D02*
X1222830D01*
X1224280Y707570D02*
Y709750D01*
X1196340Y632460D02*
X1203960D01*
X1295400Y544542D02*
Y565150D01*
X1297940Y546752D02*
Y565150D01*
X1259840Y550940D02*
Y565150D01*
X1292860Y541409D02*
Y565150D01*
X1290320Y536141D02*
Y565150D01*
X1203960Y632460D02*
X1311822D01*
X1203960D02*
X1311822D01*
X1216660Y565150D02*
X1299566D01*
X1257300Y550788D02*
Y565150D01*
X1254760Y550327D02*
Y565150D01*
X1249680Y548368D02*
Y565150D01*
X1252220Y549534D02*
Y565150D01*
X1247140Y546752D02*
Y565150D01*
X1244600Y544542D02*
Y565150D01*
X1242060Y541409D02*
Y565150D01*
X1239520Y536141D02*
Y565150D01*
X1236980Y501015D02*
Y565150D01*
X1234440Y501015D02*
Y565150D01*
X1231900Y501015D02*
Y565150D01*
X1196340Y632460D02*
Y635000D01*
Y632460D02*
X1203960D01*
X1198880D02*
Y633520D01*
X1192710Y577850D02*
X1196597D01*
X1191260Y576580D02*
X1196404D01*
X1183640Y574040D02*
X1196404D01*
X1152903Y571500D02*
X1196925D01*
X1221740Y546752D02*
Y565150D01*
X1224280Y544542D02*
Y565150D01*
X1219200Y548368D02*
Y565150D01*
X1229360Y536141D02*
Y565150D01*
X1226820Y541409D02*
Y565150D01*
X1152903Y566420D02*
X1199970D01*
X1153160Y568960D02*
X1198042D01*
X1216660Y549534D02*
Y565150D01*
X1198880Y548368D02*
Y567690D01*
X1343304Y561340D02*
X1364869D01*
X1340573Y558800D02*
X1364869D01*
X1345844Y563880D02*
X1364869D01*
X1323340Y546752D02*
Y556895D01*
X1312030D02*
X1334650D01*
X1320800Y548368D02*
Y556895D01*
X1330960Y536141D02*
Y556895D01*
X1325880Y544542D02*
Y556895D01*
X1331024Y535940D02*
X1364869D01*
X1331647Y533400D02*
X1364869D01*
X1330051Y538480D02*
X1364869D01*
X1331952Y528320D02*
X1364869D01*
X1331952Y530860D02*
X1364869D01*
X1324177Y546100D02*
X1364869D01*
X1326785Y543560D02*
X1364869D01*
X1320280Y548640D02*
X1364869D01*
X1328673Y541020D02*
X1364869D01*
X1328420Y541409D02*
Y556895D01*
X1310640Y550940D02*
Y556991D01*
X1308100Y550788D02*
Y557686D01*
X1315720Y550327D02*
Y556895D01*
X1305560Y550327D02*
Y559221D01*
X1303020Y549534D02*
Y561697D01*
X1300480Y548368D02*
Y564236D01*
X1280160Y536141D02*
Y565150D01*
X1277620Y541409D02*
Y565150D01*
X1313180Y550788D02*
Y556895D01*
X1318260Y549534D02*
Y556895D01*
X1281152Y530860D02*
X1289328D01*
X1280847Y525780D02*
X1289633D01*
X1281152Y528320D02*
X1289328D01*
X1277873Y541020D02*
X1292607D01*
X1279251Y538480D02*
X1291229D01*
X1280224Y535940D02*
X1290256D01*
X1280847Y533400D02*
X1289633D01*
X1341120Y501015D02*
Y559221D01*
X1338580Y501015D02*
Y557686D01*
X1336040Y501015D02*
Y556991D01*
X1346200Y501015D02*
Y564236D01*
X1343660Y501015D02*
Y561697D01*
X1331647Y525780D02*
X1364869D01*
X1331024Y523240D02*
X1364869D01*
X1333500Y501015D02*
Y556895D01*
X1330960Y501015D02*
Y523039D01*
X1328673Y518160D02*
X1364869D01*
X1326785Y515620D02*
X1364869D01*
X1330051Y520700D02*
X1364869D01*
X1328420Y501015D02*
Y517771D01*
X1325880Y501015D02*
Y514638D01*
X1324177Y513080D02*
X1364869D01*
X1320280Y510540D02*
X1364869D01*
X1323340Y501015D02*
Y512428D01*
X1320800Y501015D02*
Y510812D01*
X1318260Y501015D02*
Y509646D01*
X1285240Y501015D02*
Y565150D01*
X1287780Y501015D02*
Y565150D01*
X1282700Y501015D02*
Y565150D01*
X1292860Y501015D02*
Y517771D01*
X1290320Y501015D02*
Y523039D01*
X1279251Y520700D02*
X1291229D01*
X1277873Y518160D02*
X1292607D01*
X1280224Y523240D02*
X1290256D01*
X1280160Y501015D02*
Y523039D01*
X1277620Y501015D02*
Y517771D01*
X1308100Y501015D02*
Y508392D01*
X1310640Y501015D02*
Y508240D01*
X1305560Y501015D02*
Y508853D01*
X1315720Y501015D02*
Y508853D01*
X1313180Y501015D02*
Y508392D01*
X1297940Y501015D02*
Y512428D01*
X1295400Y501015D02*
Y514638D01*
X1303020Y501015D02*
Y509646D01*
X1300480Y501015D02*
Y510812D01*
X1267460Y549534D02*
Y565150D01*
X1270000Y548368D02*
Y565150D01*
X1264920Y550327D02*
Y565150D01*
X1275080Y544542D02*
Y565150D01*
X1272540Y546752D02*
Y565150D01*
X1150620Y561340D02*
X1303376D01*
X1150620Y558800D02*
X1306107D01*
X1214576Y563880D02*
X1300836D01*
X1150620Y556260D02*
X1364869D01*
X1262380Y550788D02*
Y565150D01*
X1269480Y548640D02*
X1301001D01*
X1273377Y546100D02*
X1297103D01*
X1275985Y543560D02*
X1294495D01*
X1273377Y513080D02*
X1297103D01*
X1275985Y515620D02*
X1294495D01*
X1150540Y553720D02*
X1364869D01*
X1149879Y551180D02*
X1364869D01*
X1218680Y548640D02*
X1250201D01*
X1222577Y546100D02*
X1246303D01*
X1225185Y515620D02*
X1243695D01*
X1214120Y550327D02*
Y563670D01*
X1211580Y550788D02*
Y562867D01*
X1209040Y550940D02*
Y562610D01*
X1225185Y543560D02*
X1243695D01*
X1227073Y541020D02*
X1241807D01*
X1203960Y550327D02*
Y563670D01*
X1206500Y550788D02*
Y562867D01*
X1152100Y563880D02*
X1203504D01*
X1201420Y549534D02*
Y565150D01*
X1167879Y548640D02*
X1199400D01*
X1229424Y535940D02*
X1239456D01*
X1230047Y533400D02*
X1238833D01*
X1230352Y530860D02*
X1238528D01*
X1230047Y525780D02*
X1238833D01*
X1230352Y528320D02*
X1238528D01*
X1228451Y538480D02*
X1240429D01*
X1229424Y523240D02*
X1239456D01*
X1227073Y518160D02*
X1241807D01*
X1228451Y520700D02*
X1240429D01*
X1275080Y501015D02*
Y514638D01*
X1269480Y510540D02*
X1301001D01*
X1272540Y501015D02*
Y512428D01*
X1270000Y501015D02*
Y510812D01*
X1267460Y501015D02*
Y509646D01*
X1218680Y510540D02*
X1250201D01*
X1247140Y501015D02*
Y512428D01*
X1252220Y501015D02*
Y509646D01*
X1249680Y501015D02*
Y510812D01*
X1257300Y501015D02*
Y508392D01*
X1259840Y501015D02*
Y508240D01*
X1254760Y501015D02*
Y508853D01*
X1264920Y501015D02*
Y508853D01*
X1262380Y501015D02*
Y508392D01*
X1146175Y505460D02*
X1364869D01*
X1146175Y508000D02*
X1364869D01*
X1146175Y501015D02*
X1364869D01*
X1146175Y502920D02*
X1364869D01*
X1229360Y501015D02*
Y523039D01*
X1239520Y501015D02*
Y523039D01*
X1226820Y501015D02*
Y517771D01*
X1244600Y501015D02*
Y514638D01*
X1242060Y501015D02*
Y517771D01*
X1222577Y513080D02*
X1246303D01*
X1224280Y501015D02*
Y514638D01*
X1221740Y501015D02*
Y512428D01*
X1219200Y501015D02*
Y510812D01*
X1211580Y501015D02*
Y508392D01*
X1209040Y501015D02*
Y508240D01*
X1206500Y501015D02*
Y508392D01*
X1216660Y501015D02*
Y509646D01*
X1214120Y501015D02*
Y508853D01*
X1167879Y510540D02*
X1199400D01*
X1198880Y501015D02*
Y510812D01*
X1203960Y501015D02*
Y508853D01*
X1201420Y501015D02*
Y509646D01*
X1132840Y664210D02*
X1154249D01*
X1156268Y662191D01*
X1153160Y661535D02*
Y664210D01*
X1150620Y660519D02*
Y664210D01*
X1148080Y658970D02*
Y664210D01*
X1130300Y662116D02*
Y664467D01*
X1127760Y661535D02*
Y665270D01*
X1125220Y660519D02*
Y666750D01*
X1140695Y660400D02*
X1150386D01*
X1144358Y657860D02*
X1146722D01*
X1143000Y658970D02*
Y664210D01*
X1145540Y656678D02*
Y664210D01*
X1135380Y662116D02*
Y664210D01*
X1137920Y661535D02*
Y664210D01*
X1132840Y662305D02*
Y664210D01*
X1140460Y660519D02*
Y664210D01*
X1120140Y685800D02*
X1123770D01*
X1120140D02*
X1123770D01*
X1122680Y684530D02*
Y685800D01*
X1120140Y676910D02*
Y685800D01*
Y679450D02*
Y685800D01*
Y683260D02*
X1121842D01*
X1116510Y670560D02*
X1121842D01*
X1118438Y673100D02*
X1120725D01*
X1120140Y656678D02*
Y676910D01*
X1117600Y658970D02*
Y671830D01*
X1112976Y668020D02*
X1123770D01*
X1115294Y660400D02*
X1124986D01*
X1115060Y660519D02*
Y669290D01*
X1122680Y658970D02*
Y669290D01*
X1118958Y657860D02*
X1121322D01*
X1109980Y662116D02*
Y667007D01*
X1107440Y662305D02*
Y666750D01*
X1112520Y661535D02*
Y667810D01*
X1104900Y662116D02*
Y667007D01*
X1196340Y632460D02*
Y635000D01*
X1169758Y632460D02*
X1170940D01*
Y619760D02*
Y633642D01*
Y619760D02*
Y633642D01*
X1168400Y616130D02*
Y631350D01*
X1140695Y629920D02*
X1150386D01*
X1166095D02*
X1170940D01*
X1144358Y632460D02*
X1146722D01*
X1148080Y615950D02*
Y631350D01*
X1160780Y620773D02*
Y628204D01*
X1158240Y621030D02*
Y628015D01*
X1155700Y620773D02*
Y628204D01*
X1165860Y618490D02*
Y629801D01*
X1163320Y619970D02*
Y628785D01*
X1153160Y619970D02*
Y628785D01*
X1119326Y622300D02*
X1170940D01*
X1150620Y618490D02*
Y629801D01*
X1145540Y608330D02*
Y633642D01*
X1125220Y616406D02*
Y629801D01*
X1122680Y619940D02*
Y631350D01*
X1143000Y581403D02*
Y631350D01*
X1140460Y581660D02*
Y629801D01*
X1115294Y629920D02*
X1124986D01*
X1118958Y632460D02*
X1121322D01*
X1120140Y621869D02*
Y633642D01*
X1117600Y622985D02*
Y631350D01*
X1130300Y608700D02*
Y628204D01*
X1132840Y601980D02*
Y628015D01*
X1127760Y611268D02*
Y628785D01*
X1137920Y581403D02*
Y628785D01*
X1135380Y580600D02*
Y628204D01*
X1115060Y623506D02*
Y629801D01*
X1112520Y623506D02*
Y628785D01*
X1109980Y622985D02*
Y628204D01*
X1107440Y621869D02*
Y628015D01*
X1094740Y698500D02*
Y699589D01*
Y679450D02*
Y698500D01*
Y680720D02*
Y698500D01*
Y679450D02*
Y680720D01*
Y698500D01*
X1092200Y673100D02*
X1096441D01*
X1093680Y675640D02*
X1095325D01*
X1102360Y661535D02*
Y667810D01*
X1099820Y660519D02*
Y669290D01*
X1089660Y670560D02*
X1098370D01*
X1082040Y668020D02*
X1101904D01*
X1084580Y662116D02*
Y668277D01*
X1089660Y660519D02*
Y670560D01*
X1087120Y661535D02*
Y669080D01*
X1069340Y709750D02*
X1071449Y711858D01*
X1069340Y704850D02*
Y709750D01*
Y704850D02*
Y709750D01*
Y683260D02*
Y704850D01*
Y680720D02*
Y683260D01*
Y704850D01*
X1068280Y678180D02*
X1069597D01*
X1069340Y680720D02*
Y704850D01*
X1079500Y662116D02*
Y668277D01*
X1082040Y662305D02*
Y668020D01*
X1066800Y675640D02*
X1070400D01*
X1076960Y661535D02*
Y669080D01*
X1074420Y660519D02*
Y670560D01*
X1064260Y673100D02*
X1071880D01*
X1059180Y662116D02*
Y670817D01*
X1064260Y660519D02*
Y673100D01*
X1061720Y661535D02*
Y671620D01*
X1097280Y658970D02*
Y671830D01*
X1094740Y656678D02*
Y679450D01*
Y586283D02*
Y633642D01*
X1089894Y660400D02*
X1099585D01*
X1093558Y657860D02*
X1095922D01*
X1092200Y658970D02*
Y673100D01*
X1104900Y619940D02*
Y628204D01*
X1102360Y616406D02*
Y628785D01*
X1099820Y547576D02*
Y629801D01*
X1097280Y546786D02*
Y631350D01*
X1089894Y629920D02*
X1099585D01*
X1093558Y632460D02*
X1095922D01*
X1092200Y591599D02*
Y631350D01*
X1089660Y594439D02*
Y629801D01*
X1071880Y658970D02*
Y673100D01*
X1068158Y657860D02*
X1070522D01*
X1069340Y656678D02*
Y680720D01*
X1071880Y597586D02*
Y631350D01*
X1069340Y596320D02*
Y633642D01*
X1064494Y660400D02*
X1074185D01*
X1068158Y632460D02*
X1070522D01*
X1066800Y658970D02*
Y675640D01*
X1064494Y629920D02*
X1074185D01*
X1066800Y594439D02*
Y631350D01*
X1079500Y598758D02*
Y628204D01*
X1082040Y598376D02*
Y628015D01*
X1076960Y598758D02*
Y628785D01*
X1087120Y596320D02*
Y628785D01*
X1084580Y597586D02*
Y628204D01*
X1074420Y598376D02*
Y629801D01*
X1059180Y597586D02*
Y628204D01*
X1064260Y594439D02*
Y629801D01*
X1061720Y596320D02*
Y628785D01*
X1170940Y614680D02*
Y619760D01*
Y586740D02*
Y589280D01*
X1167310Y617220D02*
X1171197D01*
X1169850Y614680D02*
X1172000D01*
X1163776Y619760D02*
X1170940D01*
X1169850Y614680D02*
X1172000D01*
X1164590Y589280D02*
X1171197D01*
X1196340Y575310D02*
Y577850D01*
Y546752D02*
Y575310D01*
X1171777Y546100D02*
X1195503D01*
X1193800Y544542D02*
Y577850D01*
X1173480Y544542D02*
Y579120D01*
X1148080D02*
X1173480D01*
X1150620Y576580D02*
X1176020D01*
X1164590Y589280D02*
X1171197D01*
X1152100Y574040D02*
X1183640D01*
X1170940Y546752D02*
Y586740D01*
X1167234Y617297D02*
X1169850Y614680D01*
X1158240Y550940D02*
Y590981D01*
X1160780Y550788D02*
Y589865D01*
X1155700Y550788D02*
Y592910D01*
X1149273Y599336D02*
X1155596Y593013D01*
X1148080Y579120D02*
Y600710D01*
X1153160Y568960D02*
Y595449D01*
X1150620Y576580D02*
Y597990D01*
X1163320Y550327D02*
Y589344D01*
X1153160Y550327D02*
Y568960D01*
X1150620Y554990D02*
Y561340D01*
X1168400Y548368D02*
Y589280D01*
X1165860Y549534D02*
Y589280D01*
X1150620Y549534D02*
Y561340D01*
X1191260Y541409D02*
Y576580D01*
X1188720Y536141D02*
Y575100D01*
X1179552Y530860D02*
X1187728D01*
X1179552Y528320D02*
X1187728D01*
X1186180Y501015D02*
Y574297D01*
X1174385Y543560D02*
X1192895D01*
X1176273Y541020D02*
X1191007D01*
X1177651Y538480D02*
X1189629D01*
X1178624Y535940D02*
X1188656D01*
X1179247Y533400D02*
X1188033D01*
X1188720Y501015D02*
Y523039D01*
X1191260Y501015D02*
Y517771D01*
X1179247Y525780D02*
X1188033D01*
X1196340Y501015D02*
Y512428D01*
X1193800Y501015D02*
Y514638D01*
X1177651Y520700D02*
X1189629D01*
X1176273Y518160D02*
X1191007D01*
X1178624Y523240D02*
X1188656D01*
X1171777Y513080D02*
X1195503D01*
X1174385Y515620D02*
X1192895D01*
X1178560Y536141D02*
Y575100D01*
Y501015D02*
Y523039D01*
X1176020Y541409D02*
Y576580D01*
X1183640Y501015D02*
Y574040D01*
X1181100Y501015D02*
Y574297D01*
X1176020Y501015D02*
Y517771D01*
X1173480Y501015D02*
Y514638D01*
X1170940Y501015D02*
Y512428D01*
X1163320Y501015D02*
Y508853D01*
X1160780Y501015D02*
Y508392D01*
X1158240Y501015D02*
Y508240D01*
X1168400Y501015D02*
Y510812D01*
X1165860Y501015D02*
Y509646D01*
X1150620Y501015D02*
Y509646D01*
X1148080Y501015D02*
Y510812D01*
X1155700Y501015D02*
Y508392D01*
X1153160Y501015D02*
Y508853D01*
X1132517Y604520D02*
X1146125D01*
X1132840Y601980D02*
X1147242D01*
X1131479Y607060D02*
X1145604D01*
X1145540Y580600D02*
Y608330D01*
X1122860Y619760D02*
X1152704D01*
X1124789Y617220D02*
X1149170D01*
X1125905Y614680D02*
X1147242D01*
X1126888Y612140D02*
X1146125D01*
X1129428Y609600D02*
X1145604D01*
X1132840Y596900D02*
X1151710D01*
X1132840Y594360D02*
X1154249D01*
X1132840Y599440D02*
X1149170D01*
X1140460Y581660D02*
X1172000D01*
X1132840Y591820D02*
X1156970D01*
X1132840Y586740D02*
X1170940D01*
X1132840Y584200D02*
X1171197D01*
X1132840Y589280D02*
X1164590D01*
X1132840Y581660D02*
X1140460D01*
X1126362Y612666D02*
X1129864Y609164D01*
X1092040Y591820D02*
X1112520D01*
X1132840Y579120D02*
Y601980D01*
Y579120D02*
Y601980D01*
X1086085Y596900D02*
X1112520D01*
X1089748Y594360D02*
X1112520D01*
X1060685Y596900D02*
X1070376D01*
X1064348Y594360D02*
X1066712D01*
X1095186Y584200D02*
X1112520D01*
X1095375Y581660D02*
X1112520D01*
X1094605Y586740D02*
X1112520D01*
X1094605Y576580D02*
X1112520D01*
X1095186Y579120D02*
X1112520D01*
X1093589Y574040D02*
X1112520D01*
X1093589Y589280D02*
X1112520D01*
X1092040Y571500D02*
X1112520D01*
X1064348Y568960D02*
X1066712D01*
X1104900Y547958D02*
Y601800D01*
X1107440Y547576D02*
Y599871D01*
X1102360Y547958D02*
Y605334D01*
X1112520Y545520D02*
Y597772D01*
X1109980Y546786D02*
Y598755D01*
X1090144Y566420D02*
X1112520D01*
X1092142Y563880D02*
X1112520D01*
X1089748Y568960D02*
X1112520D01*
X1094294Y558800D02*
X1112520D01*
X1093470Y561340D02*
X1112520D01*
X1094691Y553720D02*
X1112520D01*
X1111485Y546100D02*
X1112520D01*
X1094691Y556260D02*
X1112520D01*
X1146175Y510540D02*
X1148600D01*
X1146175Y501015D02*
Y511976D01*
X1093470Y548640D02*
X1112520D01*
X1094294Y551180D02*
X1112520D01*
X1092142Y546100D02*
X1095776D01*
X1092200Y563789D02*
Y571721D01*
X1089660Y566904D02*
Y568881D01*
X1094740Y554990D02*
Y577037D01*
X1066800Y566904D02*
Y568881D01*
X1064260Y565634D02*
Y568881D01*
X1094740Y545520D02*
Y554990D01*
X1092200Y543639D02*
Y546191D01*
X1090930Y543560D02*
X1092112D01*
X1090930Y542378D02*
Y544441D01*
X1063379Y566420D02*
X1066316D01*
X1065530Y542378D02*
Y543171D01*
Y542378D02*
Y543171D01*
X1049020Y960708D02*
Y974217D01*
X1051560Y960326D02*
Y974217D01*
X1046480Y960708D02*
Y974217D01*
X1056640Y958270D02*
Y974217D01*
X1054100Y959536D02*
Y974217D01*
X1041400Y959536D02*
Y974217D01*
X1043940Y960326D02*
Y974217D01*
X1028700Y959536D02*
Y974217D01*
X1038860Y958270D02*
Y974217D01*
X1031240Y958270D02*
Y974217D01*
X1052373Y960120D02*
X1068527D01*
X1057689Y957580D02*
X1063211D01*
X1036320Y956389D02*
Y974217D01*
X1033780Y956389D02*
Y974217D01*
X1026160Y960326D02*
Y974217D01*
X1026973Y960120D02*
X1043127D01*
X1023620Y960708D02*
Y974217D01*
X1032289Y957580D02*
X1037811D01*
X1018540Y960326D02*
Y974217D01*
X1021080Y960708D02*
Y974217D01*
X1016000Y959536D02*
Y974217D01*
X1013460Y958270D02*
Y974217D01*
X1010920Y956389D02*
Y974217D01*
X1005840Y956246D02*
Y974217D01*
X1008380Y956310D02*
Y974217D01*
X1003300Y955725D02*
Y974217D01*
X1000760Y954609D02*
Y974217D01*
X998220Y952680D02*
Y974217D01*
X1011100Y929640D02*
X1012411D01*
X1009650Y928189D02*
X1011664Y930203D01*
X1015166Y925394D02*
X1017070Y927298D01*
X1016000Y926228D02*
Y927684D01*
X1007110Y956310D02*
X1010832D01*
X1009650Y927100D02*
X1016872D01*
X1035050Y905899D02*
Y906692D01*
X1033780Y904149D02*
Y908271D01*
X1032510Y901700D02*
Y910356D01*
X1009650Y924560D02*
X1014419D01*
X1013460Y923129D02*
Y928950D01*
X1032510Y906780D02*
X1034971D01*
X1057910Y881380D02*
X1062990D01*
X1057587Y873760D02*
X1061035D01*
X1056549Y871220D02*
X1060514D01*
X1056640Y859155D02*
Y871381D01*
X1032510Y904240D02*
X1033838D01*
X1054498Y868680D02*
X1060514D01*
X1046044Y860226D02*
X1054934Y869116D01*
X1009650Y922020D02*
X1012931D01*
X1009650Y919480D02*
X1012270D01*
X1009650Y905899D02*
Y928189D01*
X1012190Y901700D02*
Y918210D01*
X1010920Y904149D02*
Y929460D01*
X1009650Y914400D02*
X1012190D01*
X1009650Y911860D02*
X1012190D01*
X1009650Y916940D02*
X1012190D01*
X1009650Y906780D02*
X1012190D01*
X1009650Y909320D02*
X1012190D01*
X1010862Y904240D02*
X1012190D01*
X1005840Y877570D02*
Y881438D01*
X1003300Y877570D02*
Y880110D01*
X996950Y878840D02*
X1006641D01*
X1000760Y877570D02*
Y879286D01*
X998220Y877570D02*
Y878889D01*
X995680Y877570D02*
Y878889D01*
Y950141D02*
Y974217D01*
X803402D02*
X1364869D01*
X993140Y947600D02*
Y974217D01*
X990600Y945061D02*
Y974217D01*
X988060Y942521D02*
Y974217D01*
X730123Y970280D02*
X1364869D01*
X730123Y967740D02*
X1364869D01*
X730123Y972820D02*
X1364869D01*
X730123Y962660D02*
X1364869D01*
X730123Y965200D02*
X1364869D01*
X730123Y960120D02*
X1017727D01*
X730123Y955040D02*
X1001574D01*
X987983Y942444D02*
X998116Y952577D01*
X730123Y957580D02*
X1012411D01*
X730123Y952500D02*
X998039D01*
X730123Y949960D02*
X995499D01*
X730123Y947420D02*
X992960D01*
X730123Y944880D02*
X990419D01*
X730123Y942340D02*
X987880D01*
X730123Y939800D02*
X985952D01*
X985520Y938986D02*
Y974217D01*
X984250Y905899D02*
Y933450D01*
X982980Y904149D02*
Y974217D01*
X730123Y937260D02*
X984835D01*
X730123Y934720D02*
X984314D01*
X730123Y932180D02*
X984250D01*
X730123Y927100D02*
X984250D01*
X730123Y929640D02*
X984250D01*
X730123Y911860D02*
X984250D01*
X730123Y909320D02*
X984250D01*
X730123Y914400D02*
X984250D01*
X730123Y906780D02*
X984250D01*
X730123Y904240D02*
X983038D01*
X730123Y922020D02*
X984250D01*
X730123Y924560D02*
X984250D01*
X730123Y916940D02*
X984250D01*
X730123Y919480D02*
X984250D01*
X861294Y889000D02*
X981710D01*
X980440Y895350D02*
Y974217D01*
X982980Y877570D02*
Y886551D01*
X980440Y877570D02*
Y895350D01*
X730123Y901700D02*
X981710D01*
X730123Y899160D02*
X980886D01*
X730123Y896620D02*
X980489D01*
X730123Y891540D02*
X980886D01*
X730123Y894080D02*
X980489D01*
X988060Y877570D02*
Y881438D01*
X979380Y877570D02*
X1007110D01*
X985520D02*
Y883436D01*
X993140Y877570D02*
Y879286D01*
X990600Y877570D02*
Y880110D01*
X973276Y883920D02*
X985036D01*
X864958Y886460D02*
X983038D01*
X978738Y878840D02*
X996950D01*
X976810Y881380D02*
X988151D01*
X970280Y884933D02*
Y974217D01*
X972820Y884130D02*
Y974217D01*
X967740Y885190D02*
Y974217D01*
X977900Y880110D02*
Y974217D01*
X975360Y882650D02*
Y974217D01*
X962660Y884130D02*
Y974217D01*
X965200Y884933D02*
Y974217D01*
X960120Y882650D02*
Y974217D01*
X957580Y880110D02*
Y974217D01*
X955040Y872490D02*
Y974217D01*
X870396Y876300D02*
X955625D01*
X870585Y873760D02*
X955104D01*
X870396Y871220D02*
X955104D01*
X944880Y703814D02*
Y974217D01*
X867250Y883920D02*
X962204D01*
X868799Y881380D02*
X958670D01*
X869815Y878840D02*
X956741D01*
X869815Y868680D02*
X955625D01*
X1051958Y866140D02*
X1061035D01*
X1049418Y863600D02*
X1062151D01*
X1051560Y858726D02*
Y865742D01*
X1056005Y857037D02*
Y859155D01*
X1054100Y857936D02*
Y868282D01*
X1049020Y859108D02*
Y863202D01*
X1046878Y861060D02*
X1064080D01*
X1046480Y859108D02*
Y860662D01*
X1056005Y859155D02*
X1066460D01*
X1052373Y858520D02*
X1056005D01*
X1030204Y857250D02*
X1038860D01*
X1032289Y855980D02*
X1037811D01*
X1033780Y854789D02*
Y857250D01*
X1036320Y854789D02*
Y857250D01*
X1010920Y854789D02*
Y857250D01*
X985520Y854789D02*
Y857250D01*
X1004805D02*
X1014495D01*
X982980Y851949D02*
Y857250D01*
X1006889Y855980D02*
X1012411D01*
X1032289Y828040D02*
X1037811D01*
X1008380Y854789D02*
Y857250D01*
X1026973Y825500D02*
X1037201D01*
X1006889Y828040D02*
X1012411D01*
X972820Y857250D02*
X989096D01*
X1001573Y825500D02*
X1017727D01*
X980440Y846633D02*
Y857250D01*
X1056640Y766495D02*
Y798888D01*
X1054100Y797560D02*
X1306195D01*
X1054100Y765378D02*
Y797560D01*
X1051560Y763450D02*
Y796736D01*
X1049020Y760910D02*
Y796339D01*
X1046480Y758371D02*
Y796339D01*
X1043940Y755831D02*
Y796736D01*
Y719910D02*
X1046049Y722018D01*
X1043940Y715010D02*
Y719910D01*
Y715010D02*
Y719910D01*
X1022273Y734164D02*
X1051456Y763347D01*
X1043940Y684530D02*
Y715010D01*
Y684530D02*
Y715010D01*
X1043355Y680720D02*
X1044197D01*
X1043940Y683260D02*
Y715010D01*
X1033780Y821599D02*
Y829231D01*
X1036320Y824714D02*
Y829231D01*
X1031240Y812800D02*
Y827350D01*
Y743130D02*
Y812800D01*
X1028700Y740591D02*
Y826084D01*
X1026160Y738051D02*
Y825294D01*
X1023620Y735510D02*
Y824912D01*
X1021080Y732790D02*
Y824912D01*
X1018540Y725170D02*
Y825294D01*
X1038860Y750751D02*
Y798888D01*
X1041400Y753290D02*
Y797560D01*
X1036320Y748211D02*
Y800886D01*
X1043940Y683260D02*
Y684530D01*
X1033780Y745670D02*
Y804001D01*
X1018540Y684530D02*
Y725170D01*
Y684530D02*
Y725170D01*
X870585Y822960D02*
X1034736D01*
X870396Y820420D02*
X1033104D01*
X869815Y817880D02*
X1032041D01*
X870585Y797560D02*
X1041400D01*
X870396Y800100D02*
X1037201D01*
X864958Y810260D02*
X1031436D01*
X867250Y807720D02*
X1032041D01*
X868799Y815340D02*
X1031436D01*
X869815Y802640D02*
X1034736D01*
X868799Y805180D02*
X1033104D01*
X870396Y795020D02*
X1306384D01*
X869815Y792480D02*
X1306965D01*
X869815Y777240D02*
X1256165D01*
X870396Y774700D02*
X1255584D01*
X870585Y772160D02*
X1255395D01*
X868799Y789940D02*
X1307981D01*
X867250Y787400D02*
X1264686D01*
X864958Y784860D02*
X1261022D01*
X867250Y782320D02*
X1258730D01*
X868799Y779780D02*
X1257181D01*
X869815Y853440D02*
X984171D01*
X870396Y850900D02*
X982290D01*
X870585Y848360D02*
X981024D01*
X870396Y845820D02*
X980234D01*
X867250Y863600D02*
X958670D01*
X864958Y861060D02*
X962204D01*
X868799Y866140D02*
X956741D01*
X868799Y855980D02*
X987011D01*
X867250Y858520D02*
X967901D01*
X868799Y840740D02*
X979852D01*
X868799Y830580D02*
X984171D01*
X869815Y843280D02*
X979852D01*
X870396Y825500D02*
X992327D01*
X869815Y828040D02*
X987011D01*
X864958Y835660D02*
X981024D01*
X867250Y838200D02*
X980234D01*
X867250Y812800D02*
X1031240D01*
X867250Y833120D02*
X982290D01*
X870396Y769620D02*
X1255584D01*
X869815Y767080D02*
X1060450D01*
X869815Y751840D02*
X1039949D01*
X870396Y749300D02*
X1037410D01*
X870585Y746760D02*
X1034870D01*
X868799Y764540D02*
X1052830D01*
X867250Y762000D02*
X1050109D01*
X864958Y759460D02*
X1047570D01*
X867250Y756920D02*
X1045030D01*
X868799Y754380D02*
X1042489D01*
X870396Y744220D02*
X1032329D01*
X869815Y741680D02*
X1029790D01*
X868799Y739140D02*
X1027250D01*
X943450Y680720D02*
X1019125D01*
X869815Y726440D02*
X1018604D01*
X867250Y736600D02*
X1024709D01*
X864958Y734060D02*
X1022170D01*
X867250Y731520D02*
X1020241D01*
X868799Y728980D02*
X1019125D01*
X941158Y708660D02*
X1018540D01*
X943450Y706120D02*
X1018540D01*
X937495Y711200D02*
X1018540D01*
X944999Y703580D02*
X1018540D01*
X870585Y721360D02*
X1018540D01*
X870396Y718820D02*
X1018540D01*
X870396Y723900D02*
X1018540D01*
X868799Y713740D02*
X1018540D01*
X869815Y716280D02*
X1018540D01*
X946596Y698500D02*
X1018540D01*
X946785Y695960D02*
X1018540D01*
X946015Y701040D02*
X1018540D01*
X946015Y690880D02*
X1018540D01*
X946596Y693420D02*
X1018540D01*
X943450Y685800D02*
X1018540D01*
X944999Y688340D02*
X1018540D01*
X941158Y683260D02*
X1018604D01*
X861060Y889119D02*
Y974217D01*
X863600Y887570D02*
Y974217D01*
X858520Y890135D02*
Y974217D01*
X868680Y881615D02*
Y974217D01*
X866140Y885278D02*
Y974217D01*
X853440Y890905D02*
Y974217D01*
X855980Y890716D02*
Y974217D01*
X850900Y890716D02*
Y974217D01*
X845820Y889119D02*
Y974217D01*
X843280Y887570D02*
Y974217D01*
X868680Y856215D02*
Y865906D01*
X866140Y859878D02*
Y862242D01*
Y834478D02*
Y836842D01*
X848360Y890135D02*
Y974217D01*
X834390Y889000D02*
X845585D01*
X838589Y886460D02*
X841922D01*
X833120Y889469D02*
Y974217D01*
X835660Y888406D02*
Y974217D01*
X830580Y890073D02*
Y974217D01*
X840740Y885278D02*
Y974217D01*
X838200Y886774D02*
Y974217D01*
X825500Y890073D02*
Y974217D01*
X828040Y890270D02*
Y974217D01*
X822960Y889469D02*
Y974217D01*
X820420Y888406D02*
Y974217D01*
X840740Y859878D02*
Y862242D01*
X838589Y835660D02*
X841922D01*
X838589Y861060D02*
X841922D01*
X909320Y712335D02*
Y974217D01*
X911860Y711319D02*
Y974217D01*
X906780Y712916D02*
Y974217D01*
X916940Y707478D02*
Y974217D01*
X914400Y709770D02*
Y974217D01*
X901700Y712916D02*
Y974217D01*
X904240Y713105D02*
Y974217D01*
X894080Y713105D02*
Y974217D01*
X899160Y712335D02*
Y974217D01*
X896620Y711319D02*
Y974217D01*
X934720Y712335D02*
Y974217D01*
X937260Y711319D02*
Y974217D01*
X932180Y712916D02*
Y974217D01*
X942340Y707478D02*
Y974217D01*
X939800Y709770D02*
Y974217D01*
X927100Y712916D02*
Y974217D01*
X929640Y713105D02*
Y974217D01*
X924560Y712335D02*
Y974217D01*
X922020Y711319D02*
Y974217D01*
X919480Y709770D02*
Y974217D01*
X883920Y713105D02*
Y974217D01*
X886460Y713105D02*
Y974217D01*
X881380Y713105D02*
Y974217D01*
X891540Y713105D02*
Y974217D01*
X889000Y713105D02*
Y974217D01*
X871220Y713105D02*
Y974217D01*
X873760Y713105D02*
Y974217D01*
X868680Y830815D02*
Y840506D01*
X878840Y713105D02*
Y974217D01*
X876300Y713105D02*
Y974217D01*
X840740Y834478D02*
Y836842D01*
X868680Y805415D02*
Y815106D01*
X866140Y809078D02*
Y811442D01*
X810260Y890905D02*
Y974217D01*
X812800Y890905D02*
Y974217D01*
X807720Y890905D02*
Y974217D01*
X817880Y890905D02*
Y974217D01*
X815340Y890905D02*
Y974217D01*
X800100Y890905D02*
Y974217D01*
X730123D02*
X803402D01*
X789940Y890905D02*
Y974217D01*
X805180Y890905D02*
Y974217D01*
X802640Y890905D02*
Y974217D01*
X795020Y890905D02*
Y974217D01*
X797560Y890905D02*
Y974217D01*
X792480Y890905D02*
Y974217D01*
X819785Y889000D02*
X821690D01*
X819785Y888058D02*
Y890905D01*
X785495D02*
X819785D01*
X785495Y856615D02*
X787613D01*
X787400Y890905D02*
Y974217D01*
X730123Y840740D02*
X787281D01*
X730123Y855980D02*
X787281D01*
X730123Y886460D02*
X785495D01*
X730123Y883920D02*
X785495D01*
X730123Y889000D02*
X785495D01*
Y856615D02*
Y890905D01*
X730123Y881380D02*
X785495D01*
X730123Y876300D02*
X785495D01*
X730123Y873760D02*
X785495D01*
X730123Y878840D02*
X785495D01*
X730123Y868680D02*
X785495D01*
X730123Y871220D02*
X785495D01*
X730123Y853440D02*
X786265D01*
X730123Y850900D02*
X785684D01*
X730123Y848360D02*
X785495D01*
X730123Y843280D02*
X786265D01*
X730123Y845820D02*
X785684D01*
X730123Y863600D02*
X785495D01*
X730123Y866140D02*
X785495D01*
X730123Y858520D02*
X785495D01*
X730123Y861060D02*
X785495D01*
X814158Y835660D02*
X817491D01*
X814158D02*
X817491D01*
X789940Y834478D02*
Y836842D01*
X787400Y830815D02*
Y840506D01*
X730123Y838200D02*
X788830D01*
X730123Y835660D02*
X791122D01*
X730123Y833120D02*
X788830D01*
X730123Y830580D02*
X787281D01*
X730123Y828040D02*
X786265D01*
X730123Y825500D02*
X785684D01*
X730123Y822960D02*
X785495D01*
X789940Y809078D02*
Y811442D01*
X787400Y805415D02*
Y815106D01*
X730123Y817880D02*
X786265D01*
X730123Y820420D02*
X785684D01*
X730123Y812800D02*
X788830D01*
X730123Y815340D02*
X787281D01*
X751840Y687705D02*
Y974217D01*
X754380Y687705D02*
Y974217D01*
X749300Y687705D02*
Y974217D01*
X759460Y687705D02*
Y974217D01*
X756920Y687705D02*
Y974217D01*
X739140Y687705D02*
Y974217D01*
X741680Y687705D02*
Y974217D01*
X736600Y687705D02*
Y974217D01*
X746760Y687705D02*
Y974217D01*
X744220Y687705D02*
Y974217D01*
X782320Y683260D02*
Y974217D01*
X784860Y683260D02*
Y974217D01*
X779780Y683196D02*
Y974217D01*
X777240Y682675D02*
Y974217D01*
X774700Y681559D02*
Y974217D01*
X764540Y687705D02*
Y974217D01*
X762000Y687705D02*
Y974217D01*
X772160Y679630D02*
Y974217D01*
X767080Y687705D02*
Y974217D01*
X866140Y783678D02*
Y786042D01*
X868680Y780014D02*
Y789706D01*
X838589Y810260D02*
X841922D01*
X838589Y784860D02*
X841922D01*
X868680Y754614D02*
Y764305D01*
X866140Y758278D02*
Y760642D01*
Y732878D02*
Y735242D01*
X838589Y734060D02*
X841922D01*
X840740Y809078D02*
Y811442D01*
Y783678D02*
Y786042D01*
X814158Y810260D02*
X817491D01*
X814158Y784860D02*
X817491D01*
X814158Y810260D02*
X817491D01*
X814158Y784860D02*
X817491D01*
X840740Y758278D02*
Y760642D01*
X838589Y759460D02*
X841922D01*
X840740Y732878D02*
Y735242D01*
X814158Y759460D02*
X817491D01*
X814158D02*
X817491D01*
X814158Y734060D02*
X817491D01*
X912094Y711200D02*
X921786D01*
X915758Y708660D02*
X918122D01*
X895985Y710987D02*
Y713105D01*
X916940Y682078D02*
Y684442D01*
X868680Y729214D02*
Y738905D01*
X868467Y713105D02*
X895985D01*
X915758Y683260D02*
X918122D01*
X942340Y682078D02*
Y684442D01*
X861695Y678960D02*
Y680933D01*
Y678960D02*
Y680933D01*
X840740Y707478D02*
Y709842D01*
X838589Y708660D02*
X841922D01*
X814158D02*
X817491D01*
X843280Y679630D02*
Y682150D01*
X841054Y680720D02*
X844550D01*
X840740Y681109D02*
Y684442D01*
X861060Y679630D02*
Y680601D01*
X838589Y683260D02*
X841922D01*
X814158D02*
X817491D01*
X815340Y682078D02*
Y683260D01*
X789940Y783678D02*
Y786042D01*
X730123Y807720D02*
X788830D01*
X787400Y780014D02*
Y789706D01*
X730123Y810260D02*
X791122D01*
X730123Y787400D02*
X788830D01*
X730123Y805180D02*
X787281D01*
X730123Y784860D02*
X791122D01*
X730123Y782320D02*
X788830D01*
X787400Y754614D02*
Y764305D01*
X789940Y758278D02*
Y760642D01*
X730123Y779780D02*
X787281D01*
X814158Y734060D02*
X817491D01*
X730123Y762000D02*
X788830D01*
X730123Y759460D02*
X791122D01*
X730123Y756920D02*
X788830D01*
X730123Y734060D02*
X791122D01*
X730123Y736600D02*
X788830D01*
X730123Y789940D02*
X787281D01*
X730123Y777240D02*
X786265D01*
X730123Y774700D02*
X785684D01*
X730123Y769620D02*
X785684D01*
X730123Y772160D02*
X785495D01*
X730123Y802640D02*
X786265D01*
X730123Y800100D02*
X785684D01*
X730123Y797560D02*
X785495D01*
X730123Y792480D02*
X786265D01*
X730123Y795020D02*
X785684D01*
X730123Y749300D02*
X785684D01*
X730123Y744220D02*
X785684D01*
X730123Y746760D02*
X785495D01*
X730123Y739140D02*
X787281D01*
X730123Y741680D02*
X786265D01*
X730123Y764540D02*
X787281D01*
X730123Y767080D02*
X786265D01*
X730123Y754380D02*
X787281D01*
X730123Y751840D02*
X786265D01*
X789940Y732878D02*
Y735242D01*
X814158Y708660D02*
X817491D01*
X787400Y729214D02*
Y738905D01*
X789940Y707478D02*
Y709842D01*
X787400Y703814D02*
Y713505D01*
X730123Y711200D02*
X788830D01*
X730123Y731520D02*
X788830D01*
X730123Y708660D02*
X791122D01*
X789940Y683260D02*
Y684442D01*
X781050Y683260D02*
X791122D01*
X787400D02*
Y688105D01*
X814158Y683260D02*
X817491D01*
X730123Y706120D02*
X788830D01*
X730123Y703580D02*
X787281D01*
X781050Y683260D02*
X791122D01*
X768985Y685800D02*
X788830D01*
X730123Y716280D02*
X786265D01*
X730123Y713740D02*
X787281D01*
X730123Y701040D02*
X786265D01*
X730123Y698500D02*
X785684D01*
X730123Y695960D02*
X785495D01*
X730123Y728980D02*
X787281D01*
X730123Y726440D02*
X786265D01*
X730123Y723900D02*
X785684D01*
X730123Y718820D02*
X785684D01*
X730123Y721360D02*
X785495D01*
X730123Y693420D02*
X785684D01*
X730123Y688340D02*
X787281D01*
X734695Y687705D02*
X768985D01*
Y683260D02*
X781050D01*
X768985Y680720D02*
X773430D01*
X730123Y690880D02*
X786265D01*
X730123Y685800D02*
X734695D01*
X730123Y680720D02*
X734695D01*
X730123Y683260D02*
X734695D01*
X1042238Y678180D02*
X1045000D01*
X1049020Y660519D02*
Y673100D01*
X1046480Y658970D02*
Y675640D01*
X1040310D02*
X1046480D01*
X1041400Y658970D02*
Y676910D01*
X1038860Y660519D02*
Y674370D01*
X1056640Y662305D02*
Y670560D01*
X1074420D01*
X1054100Y662116D02*
Y670817D01*
X1051560Y661535D02*
Y671620D01*
X1042758Y657860D02*
X1045122D01*
X1036776Y673100D02*
X1049020D01*
X1033780Y662116D02*
Y672087D01*
X1031240Y662305D02*
Y671830D01*
X1039094Y660400D02*
X1048785D01*
X1036320Y661535D02*
Y672890D01*
X1008380Y662116D02*
Y829231D01*
X1010920Y661535D02*
Y829231D01*
X1005840Y662305D02*
Y827350D01*
X1016000Y658970D02*
Y826084D01*
X1013460Y660519D02*
Y827350D01*
X1003300Y662116D02*
Y826084D01*
X1000760Y661535D02*
Y825294D01*
X985520Y661535D02*
Y829231D01*
X990600Y658970D02*
Y826084D01*
X988060Y660519D02*
Y827350D01*
X1026160Y661535D02*
Y672890D01*
X1028700Y662116D02*
Y672087D01*
X1023620Y660519D02*
Y674370D01*
X1021080Y658970D02*
Y676910D01*
X1017358Y657860D02*
X1019722D01*
X1013695Y660400D02*
X1023385D01*
X998220Y660519D02*
Y824912D01*
X988295Y660400D02*
X997986D01*
X995680Y658970D02*
Y824912D01*
X1043940Y656678D02*
Y683260D01*
X1046480Y597586D02*
Y631350D01*
X1043940Y598805D02*
Y633642D01*
X1042758Y632460D02*
X1045122D01*
X1041400Y598805D02*
Y631350D01*
X1021080Y598805D02*
Y631350D01*
X1039094Y629920D02*
X1048785D01*
X1051560Y598758D02*
Y628785D01*
X1038860Y598805D02*
Y629801D01*
X1054100Y598758D02*
Y628204D01*
X1049020Y598376D02*
Y629801D01*
X1023620Y598805D02*
Y629801D01*
X1026160Y598805D02*
Y628785D01*
X1013695Y629920D02*
X1023385D01*
X1036320Y598805D02*
Y628785D01*
X1033780Y598805D02*
Y628204D01*
X1017358Y632460D02*
X1019722D01*
X1018540Y656678D02*
Y684530D01*
Y598805D02*
Y633642D01*
X1016000Y598805D02*
Y631350D01*
X991958Y657860D02*
X994322D01*
X991958Y632460D02*
X994322D01*
X993140Y656678D02*
Y825294D01*
Y598616D02*
Y633642D01*
X1013460Y598805D02*
Y629801D01*
X1010920Y598805D02*
Y628785D01*
X998220Y598616D02*
Y629801D01*
X1003300Y597019D02*
Y628204D01*
X1000760Y598035D02*
Y628785D01*
X988295Y629920D02*
X997986D01*
X995680Y598805D02*
Y631350D01*
X990600Y598035D02*
Y631350D01*
X988060Y597019D02*
Y629801D01*
X980440Y662305D02*
Y837387D01*
X982980Y662116D02*
Y832071D01*
X977900Y662116D02*
Y857250D01*
X975360Y661535D02*
Y857250D01*
X972820Y660519D02*
Y857250D01*
X944999Y678180D02*
X1020241D01*
X946015Y675640D02*
X1022170D01*
X970280Y658970D02*
Y857573D01*
X967740Y656678D02*
Y858611D01*
X965200Y653015D02*
Y860047D01*
X946785Y670560D02*
X1056640D01*
X946596Y668020D02*
X1082040D01*
X946596Y673100D02*
X1025704D01*
X944999Y662940D02*
X1155519D01*
X946015Y665480D02*
X1127304D01*
X943450Y660400D02*
X972586D01*
X941158Y657860D02*
X968922D01*
X943450Y655320D02*
X966630D01*
X943450Y635000D02*
X966630D01*
X944999Y652780D02*
X965081D01*
X944880Y678415D02*
Y688105D01*
X942340Y656678D02*
Y659042D01*
X944880Y653015D02*
Y662706D01*
X915758Y657860D02*
X918122D01*
X916940Y656678D02*
Y659042D01*
X946015Y650240D02*
X964065D01*
X946596Y647700D02*
X963484D01*
X946785Y645160D02*
X963295D01*
X946015Y640080D02*
X964065D01*
X946596Y642620D02*
X963484D01*
X944999Y637540D02*
X965081D01*
X915758Y632460D02*
X918122D01*
X960120Y598805D02*
Y862330D01*
X957580Y598805D02*
Y864870D01*
X965200Y598035D02*
Y637305D01*
X962660Y597019D02*
Y860850D01*
X947420Y598805D02*
Y974217D01*
X949960Y598805D02*
Y974217D01*
X955040Y598805D02*
Y872490D01*
X952500Y598805D02*
Y974217D01*
X975360Y598035D02*
Y628785D01*
X977900Y597019D02*
Y628204D01*
X972820Y598616D02*
Y629801D01*
X985520Y595470D02*
Y628785D01*
X982980Y593178D02*
Y628204D01*
X937495Y629920D02*
X972586D01*
X941158Y632460D02*
X968922D01*
X970280Y598805D02*
Y631350D01*
X967740Y598616D02*
Y633642D01*
X944880Y598805D02*
Y637305D01*
X942340Y598805D02*
Y633642D01*
X939800Y598805D02*
Y631350D01*
X937260Y598805D02*
Y629801D01*
X919480Y548005D02*
Y631350D01*
X912094Y629920D02*
X921786D01*
X895985Y628015D02*
Y630133D01*
X916940Y547816D02*
Y633642D01*
X914400Y547235D02*
Y631350D01*
X934720Y598805D02*
Y628785D01*
X932180Y598805D02*
Y628204D01*
X922020Y547816D02*
Y629801D01*
X924560Y547235D02*
Y628785D01*
X911860Y546219D02*
Y629801D01*
X899160Y590731D02*
Y628785D01*
X896620Y593270D02*
Y629801D01*
X909320Y564114D02*
Y628785D01*
X901700Y588190D02*
Y628204D01*
X1031240Y598805D02*
Y628015D01*
X1056640Y598376D02*
Y628015D01*
X1028700Y598805D02*
Y628204D01*
X1044575Y596687D02*
Y598805D01*
X1010285D02*
X1044575D01*
X1003534Y596900D02*
X1010285D01*
X1008380Y593178D02*
Y628204D01*
X1010285Y590640D02*
Y598805D01*
Y564515D02*
Y572680D01*
Y564515D02*
X1014938D01*
X1009490Y591820D02*
X1010285D01*
X1009592Y563880D02*
X1014416D01*
X1013460Y562519D02*
Y564515D01*
X1009490Y571500D02*
X1010285D01*
X1007198Y568960D02*
X1010285D01*
X1007198Y594360D02*
X1010285D01*
X1007594Y566420D02*
X1010285D01*
X1005840Y595470D02*
Y628015D01*
X978135Y596900D02*
X987825D01*
X980440Y595470D02*
Y628015D01*
X1008380Y565539D02*
Y570142D01*
X981798Y594360D02*
X984162D01*
X927735Y598805D02*
X962025D01*
Y596687D02*
Y598805D01*
X929640D02*
Y628015D01*
X927735Y564515D02*
Y598805D01*
X981798Y568960D02*
X984162D01*
X980829Y566420D02*
X983766D01*
X982980Y565539D02*
Y570142D01*
X980440Y566734D02*
Y567850D01*
X927735Y564515D02*
X932388D01*
X1010920Y561340D02*
X1012784D01*
X1014730Y542378D02*
Y543171D01*
X1013460Y540799D02*
Y544921D01*
X1009592Y546100D02*
X1012784D01*
X1010920Y548640D02*
X1011721D01*
X1008380Y543560D02*
X1014416D01*
X1040130Y542378D02*
Y543171D01*
Y542378D02*
Y543171D01*
X1011039Y538480D02*
X1012071D01*
X1009490Y541020D02*
X1013620D01*
X1011039Y523240D02*
X1012071D01*
X1010340Y521970D02*
X1012770D01*
X929640Y560070D02*
Y564515D01*
X1010920Y561340D02*
Y564515D01*
X929640Y544670D02*
Y547370D01*
X1010920Y538714D02*
Y548640D01*
X1008380Y542378D02*
Y544441D01*
X911225Y556260D02*
X928567D01*
X911036Y553720D02*
X928370D01*
X927100Y546219D02*
Y628204D01*
X927335Y546100D02*
X930234D01*
X982980Y542378D02*
Y543171D01*
Y542378D02*
Y543171D01*
X957580Y542378D02*
Y543171D01*
X1010920Y521970D02*
Y523005D01*
X1008380Y542378D02*
Y544441D01*
X932180Y542378D02*
Y543171D01*
X930998Y543560D02*
X931866D01*
X957580Y542378D02*
Y543171D01*
X932180Y542378D02*
Y543171D01*
X891540Y614680D02*
X1101675D01*
X891540Y612140D02*
X1101154D01*
X891540Y609600D02*
X1101154D01*
X891540Y604520D02*
X1102792D01*
X891540Y607060D02*
X1101675D01*
X890480Y627380D02*
X1170940D01*
X891283Y624840D02*
X1170940D01*
X891540Y622300D02*
X1108254D01*
X891540Y619760D02*
X1104720D01*
X891540Y617220D02*
X1102792D01*
X906716Y579120D02*
X927735D01*
X906780Y576580D02*
X927735D01*
X906195Y581660D02*
X927735D01*
X906780Y571500D02*
X927735D01*
X906780Y574040D02*
X927735D01*
X891540Y601980D02*
X1104720D01*
X891540Y599440D02*
X1108254D01*
X900611Y589280D02*
X927735D01*
X905079Y584200D02*
X927735D01*
X903150Y586740D02*
X927735D01*
X891540Y622300D02*
Y628015D01*
X894080Y595811D02*
Y628015D01*
X906780Y577850D02*
Y628204D01*
X904240Y585470D02*
Y628015D01*
X890182D02*
X895985D01*
X864870D02*
X867498D01*
X895530Y594360D02*
X927735D01*
X898071Y591820D02*
X927735D01*
X892990Y596900D02*
X927735D01*
X891540Y598350D02*
Y622300D01*
X864870Y627380D02*
X867200D01*
X891540Y598350D02*
X903047Y586844D01*
X891540Y598350D02*
Y622300D01*
X909439Y563880D02*
X931866D01*
X910455Y561340D02*
X930234D01*
X907890Y566420D02*
X927735D01*
X911036Y558800D02*
X929171D01*
X910455Y551180D02*
X928567D01*
X906780Y567778D02*
Y577850D01*
Y568960D02*
X927735D01*
X906780Y567778D02*
Y577850D01*
X909439Y548640D02*
X929171D01*
X907890Y546100D02*
X911626D01*
X909320Y544670D02*
Y548405D01*
X906780Y542378D02*
Y544742D01*
X905598Y543560D02*
X907962D01*
X896661Y513910D02*
X899397Y511175D01*
X890033D02*
X899397D01*
X881380Y567778D02*
Y572589D01*
Y542378D02*
Y544742D01*
X884700Y516508D02*
X890033Y511175D01*
X881380Y567778D02*
Y572589D01*
X880198Y543560D02*
X882562D01*
X891540Y511175D02*
Y513904D01*
X888128Y513080D02*
X897492D01*
X889000Y512208D02*
Y514485D01*
X896620Y511175D02*
Y513904D01*
X894080Y511175D02*
Y513715D01*
X730123Y501015D02*
X871457D01*
X730123Y502920D02*
X869552D01*
X861496Y510976D02*
X871457Y501015D01*
X868680D02*
Y503792D01*
X839470Y657074D02*
Y658646D01*
X838589Y657860D02*
X839470D01*
X815340Y656678D02*
Y659042D01*
X838589Y632460D02*
X839470D01*
X834390Y629920D02*
X839470D01*
X816450D02*
X821690D01*
X817999Y627380D02*
X839470D01*
X817880Y627615D02*
Y632146D01*
X814158Y657860D02*
X817491D01*
X814158Y632460D02*
X817491D01*
X774700Y656159D02*
Y659561D01*
X777240Y657275D02*
Y658445D01*
X769620Y676096D02*
Y974217D01*
X772160Y654230D02*
Y661490D01*
X769620Y650696D02*
Y665024D01*
X768985Y662940D02*
X770890D01*
X768985Y660400D02*
X773430D01*
X768985Y653415D02*
Y666594D01*
X781050Y657860D02*
X791122D01*
X781050Y632460D02*
X791122D01*
X781050Y657860D02*
X791122D01*
X815340Y631278D02*
Y633642D01*
X781050Y632460D02*
X791122D01*
X777240Y631875D02*
Y633045D01*
X774700Y630759D02*
Y634161D01*
X772160Y628830D02*
Y636090D01*
X769620Y625296D02*
Y639624D01*
X866140Y622300D02*
Y628015D01*
X864870Y624840D02*
X866397D01*
X866140Y618671D02*
Y622300D01*
X864870Y619940D02*
X866140Y618671D01*
Y622300D01*
X819015Y624840D02*
X839470D01*
X864870Y622300D02*
X866140D01*
X819596D02*
X839470D01*
X864870Y619940D02*
Y628015D01*
X839470Y614680D02*
Y633246D01*
X865051Y619760D02*
X866140D01*
X819785D02*
X839470D01*
X840740Y591563D02*
Y609144D01*
X819015Y614680D02*
X839470D01*
X817999Y612140D02*
X839727D01*
X819596Y617220D02*
X839470D01*
X814158Y607060D02*
X842010D01*
X816450Y609600D02*
X840530D01*
X838200Y590760D02*
Y632146D01*
X835660Y589280D02*
Y630514D01*
X828040Y589280D02*
Y628650D01*
X833120Y586740D02*
Y629451D01*
X830580Y581660D02*
Y628847D01*
X820420Y594103D02*
Y630514D01*
X825500Y591820D02*
Y628847D01*
X822960Y593300D02*
Y629451D01*
X815340Y605878D02*
Y608242D01*
X781050Y607060D02*
X791122D01*
X781050D02*
X791122D01*
X817880Y602215D02*
Y611906D01*
X777240Y606475D02*
Y607645D01*
X774700Y605359D02*
Y608761D01*
X772160Y603430D02*
Y610690D01*
X769620Y599896D02*
Y614224D01*
X768985Y678180D02*
X770890D01*
X768985Y674526D02*
Y687705D01*
Y657860D02*
X781050D01*
X768985Y655320D02*
X773430D01*
X766867Y653415D02*
X768985D01*
X767199Y652780D02*
X770890D01*
X768215Y650240D02*
X769410D01*
X768215Y640080D02*
X769410D01*
X767199Y637540D02*
X770890D01*
X765650Y635000D02*
X773430D01*
X730123D02*
X738030D01*
X763358Y632460D02*
X781050D01*
X730123Y675640D02*
X734695D01*
X730123Y673100D02*
X734695D01*
X730123Y678180D02*
X734695D01*
Y653415D02*
Y687705D01*
X730123Y670560D02*
X734695D01*
X730123Y665480D02*
X734695D01*
X730123Y662940D02*
X734695D01*
X730123Y668020D02*
X734695D01*
X730123Y657860D02*
X734695D01*
X730123Y660400D02*
X734695D01*
Y653415D02*
X736813D01*
X730123Y652780D02*
X736481D01*
X730123Y655320D02*
X734695D01*
X730123Y650240D02*
X735465D01*
X730123Y647700D02*
X734884D01*
X730123Y642620D02*
X734884D01*
X730123Y645160D02*
X734695D01*
X730123Y637540D02*
X736481D01*
X730123Y640080D02*
X735465D01*
X767199Y627380D02*
X770890D01*
X768215Y624840D02*
X769410D01*
X767080Y627615D02*
Y637305D01*
X764540Y631278D02*
Y633642D01*
X765650Y629920D02*
X773430D01*
X767199Y612140D02*
X770890D01*
X768215Y614680D02*
X769410D01*
X767080Y602215D02*
Y611906D01*
X765650Y609600D02*
X773430D01*
X764540Y605878D02*
Y608242D01*
X739140Y631278D02*
Y633642D01*
X736600Y627615D02*
Y637305D01*
X734060Y501015D02*
Y974217D01*
X731520Y501015D02*
Y974217D01*
X730123Y632460D02*
X740322D01*
X730123Y629920D02*
X738030D01*
X730123Y627380D02*
X736481D01*
X730123Y624840D02*
X735465D01*
X730123Y501015D02*
Y974217D01*
Y622300D02*
X734884D01*
X730123Y617220D02*
X734884D01*
X730123Y619760D02*
X734695D01*
X739140Y605878D02*
Y608242D01*
X736600Y602215D02*
Y611906D01*
X730123Y612140D02*
X736481D01*
X730123Y614680D02*
X735465D01*
X730123Y607060D02*
X740322D01*
X730123Y609600D02*
X738030D01*
X843203Y605686D02*
X847090Y601800D01*
X843280Y591820D02*
X847090D01*
X843280D02*
Y605610D01*
X847090Y591235D02*
Y601800D01*
X845820Y591563D02*
Y603069D01*
X817999Y601980D02*
X846909D01*
X819015Y599440D02*
X847090D01*
X816450Y604520D02*
X844370D01*
X819785Y594360D02*
X847090D01*
X819596Y596900D02*
X847090D01*
X855980Y567778D02*
Y576437D01*
Y567778D02*
Y576437D01*
Y543560D02*
X857162D01*
X855980Y542378D02*
Y544742D01*
X825500Y591820D02*
X843280D01*
X855980Y542378D02*
Y544742D01*
X830323Y584200D02*
X831640D01*
X830580Y579120D02*
Y581660D01*
Y579120D02*
Y581660D01*
Y567778D02*
Y579120D01*
Y567778D02*
Y579120D01*
X828040Y589280D02*
X835660D01*
X829520Y586740D02*
X833120D01*
X805180Y567778D02*
Y577404D01*
X830580Y542378D02*
Y544742D01*
X805180Y567778D02*
Y577404D01*
X830580Y542378D02*
Y544742D01*
X805180Y542378D02*
Y544742D01*
X802640Y564114D02*
Y577215D01*
X805180Y542378D02*
Y544742D01*
X802640Y538714D02*
Y548405D01*
X858520Y501015D02*
Y517050D01*
X855980Y501015D02*
Y519342D01*
X854798Y518160D02*
X857162D01*
X851134Y515620D02*
X858843D01*
X825734D02*
X835425D01*
X853440Y501015D02*
Y517050D01*
X850900Y501015D02*
Y515501D01*
X861060Y501015D02*
Y511440D01*
X848360Y501015D02*
Y514485D01*
X866140Y501015D02*
Y506332D01*
X863600Y501015D02*
Y508872D01*
X838200Y501015D02*
Y514485D01*
X840740Y501015D02*
Y513904D01*
X835660Y501015D02*
Y515501D01*
X845820Y501015D02*
Y513904D01*
X843280Y501015D02*
Y513715D01*
X830580Y501015D02*
Y519342D01*
X829398Y518160D02*
X831762D01*
X828040Y501015D02*
Y517050D01*
X805180Y501015D02*
Y519342D01*
X802640Y501015D02*
Y523005D01*
X800100Y501015D02*
Y577404D01*
X797560Y501015D02*
Y577985D01*
X795020Y501015D02*
Y579001D01*
X792480Y501015D02*
Y580550D01*
X822960Y501015D02*
Y514485D01*
X820420Y501015D02*
Y513904D01*
X817880Y501015D02*
Y513715D01*
X833120Y501015D02*
Y517050D01*
X825500Y501015D02*
Y515501D01*
X810260Y501015D02*
Y515501D01*
X807720Y501015D02*
Y517050D01*
X815340Y501015D02*
Y513904D01*
X812800Y501015D02*
Y514485D01*
X781050Y581660D02*
X791122D01*
X781050D02*
X791122D01*
X759695Y579120D02*
X794786D01*
X730123Y576580D02*
X805180D01*
X763358Y607060D02*
X781050D01*
X730123Y571500D02*
X805180D01*
X730123Y574040D02*
X805180D01*
X730123Y553720D02*
X800924D01*
X730123Y551180D02*
X801505D01*
X730123Y556260D02*
X800735D01*
X730123Y546100D02*
X804070D01*
X730123Y548640D02*
X802521D01*
X730123Y568960D02*
X805180D01*
X730123Y566420D02*
X804070D01*
X730123Y563880D02*
X802521D01*
X730123Y561340D02*
X801505D01*
X730123Y558800D02*
X800924D01*
X765650Y604520D02*
X773430D01*
X767199Y601980D02*
X770890D01*
X730123Y604520D02*
X738030D01*
X768215Y599440D02*
X769410D01*
X730123Y601980D02*
X736481D01*
X730123Y599440D02*
X735465D01*
X730123Y596900D02*
X734884D01*
X730123Y591820D02*
X734884D01*
X730123Y594360D02*
X734695D01*
X767199Y586740D02*
X770890D01*
X765650Y584200D02*
X773430D01*
X768215Y589280D02*
X769410D01*
X763358Y581660D02*
X781050D01*
X730123Y579120D02*
X743986D01*
X730123Y586740D02*
X736481D01*
X730123Y589280D02*
X735465D01*
X730123Y581660D02*
X740322D01*
X730123Y584200D02*
X738030D01*
X730123Y543560D02*
X805180D01*
X730123Y541020D02*
X804070D01*
X784860Y501015D02*
Y581660D01*
X789940Y501015D02*
Y581660D01*
X787400Y501015D02*
Y581660D01*
X730123Y538480D02*
X802521D01*
X730123Y535940D02*
X801505D01*
X730123Y533400D02*
X800924D01*
X730123Y528320D02*
X800924D01*
X730123Y530860D02*
X800735D01*
X730123Y513080D02*
X859881D01*
X730123Y510540D02*
X861932D01*
X730123Y515620D02*
X810025D01*
X730123Y505460D02*
X867012D01*
X730123Y508000D02*
X864472D01*
X730123Y523240D02*
X802521D01*
X730123Y525780D02*
X801505D01*
X730123Y518160D02*
X806362D01*
X730123Y520700D02*
X804070D01*
X774700Y501015D02*
Y583362D01*
X777240Y501015D02*
Y582245D01*
X772160Y501015D02*
Y585290D01*
X782320Y501015D02*
Y581660D01*
X779780Y501015D02*
Y581724D01*
X739140Y501015D02*
Y582842D01*
X764540Y501015D02*
Y582842D01*
X736600Y501015D02*
Y586506D01*
X769620Y501015D02*
Y588824D01*
X767080Y501015D02*
Y586506D01*
X756920Y501015D02*
Y577985D01*
X754380Y501015D02*
Y577404D01*
X751840Y501015D02*
Y577215D01*
X762000Y501015D02*
Y580550D01*
X759460Y501015D02*
Y579001D01*
X744220Y501015D02*
Y579001D01*
X741680Y501015D02*
Y580550D01*
X749300Y501015D02*
Y577404D01*
X746760Y501015D02*
Y577985D01*
D11*
X1313281Y601980D02*
X1320901Y594360D01*
X1323340D01*
X1164590Y601980D02*
X1313281D01*
X1158240Y608330D02*
X1164590Y601980D01*
X1060450Y754380D02*
X1197610D01*
X1250950Y701040D01*
X1310640Y721360D02*
X1323340D01*
X1290320Y701040D02*
X1310640Y721360D01*
X1250950Y701040D02*
X1290320D01*
X1310741Y685800D02*
X1320901Y695960D01*
X1323340D01*
X1228090Y685800D02*
X1310741D01*
X1178560Y735330D02*
X1228090Y685800D01*
X1318260Y665480D02*
X1323340Y670560D01*
X1223010Y665480D02*
X1318260D01*
X1173480Y715010D02*
X1223010Y665480D01*
X1076960Y735330D02*
X1178560D01*
X1092200Y715010D02*
X1173480D01*
X1203960Y645160D02*
Y657860D01*
X1163320Y698500D02*
X1203960Y657860D01*
X1107440Y698500D02*
X1163320D01*
X1183640Y619760D02*
Y652780D01*
X1159510Y676910D02*
X1183640Y652780D01*
X1132840Y676910D02*
X1159510D01*
X1203960Y645160D02*
X1323340D01*
X1183640Y619760D02*
X1323340D01*
X1031240Y725170D02*
X1060450Y754380D01*
X1031240Y684530D02*
Y725170D01*
X1056640Y683260D02*
Y715010D01*
X1076960Y735330D01*
X1082040Y704850D02*
X1092200Y715010D01*
X1082040Y680720D02*
Y704850D01*
X1107440Y679450D02*
Y698500D01*
X843280Y556260D02*
Y579120D01*
X817880Y556260D02*
Y581660D01*
X852170Y614680D02*
X859790Y607060D01*
Y590587D02*
Y607060D01*
Y590587D02*
X868680Y581697D01*
Y556260D02*
Y581697D01*
X878840Y593090D02*
Y622300D01*
Y593090D02*
X894080Y577850D01*
Y556260D02*
Y577850D01*
X852170Y614680D02*
Y670560D01*
X781050Y594360D02*
X802640D01*
X781050Y619760D02*
X802640D01*
X781050Y645160D02*
X802640D01*
X781050Y670560D02*
X802640D01*
X1319530Y594360D02*
X1323340D01*
X817880Y530860D02*
Y556260D01*
X843280Y530860D02*
Y556260D01*
Y528421D02*
Y530860D01*
X1078230D02*
Y554990D01*
X1052830Y530860D02*
Y553720D01*
X1027430Y530860D02*
Y553720D01*
X995680Y530860D02*
Y554990D01*
X970280Y530860D02*
Y553720D01*
X944880Y530860D02*
Y553720D01*
X1300480Y746760D02*
X1323340D01*
X1299210Y772160D02*
X1323340D01*
X1184910Y920750D02*
Y943610D01*
X1210310Y920750D02*
Y943610D01*
X1235710Y920750D02*
Y943610D01*
X1261110Y920750D02*
Y943610D01*
X1047750Y812800D02*
X1113790D01*
X1125220Y824230D01*
Y916940D01*
X1101090Y842010D02*
Y915670D01*
X996950Y895350D02*
Y933450D01*
Y894080D02*
Y895350D01*
Y933450D02*
X1007110Y943610D01*
X1022350D01*
X1047750Y895350D02*
Y918210D01*
X1073150Y895350D02*
Y918210D01*
X802640Y873760D02*
X828040D01*
X802640Y848360D02*
X828040D01*
X802640Y822960D02*
X828040D01*
X802640Y797560D02*
X828040D01*
X802640Y772160D02*
X828040D01*
X802640Y746760D02*
X828040D01*
X802640Y721360D02*
X828040D01*
X802640Y695960D02*
X828040D01*
D12*
X1136015Y501015D02*
Y550545D01*
X1140460Y554990D01*
Y568960D01*
X1047750Y876300D02*
Y895350D01*
X1038860Y867410D02*
X1047750Y876300D01*
X972820Y867410D02*
X1038860D01*
X967740Y872490D02*
X972820Y867410D01*
X1073150Y869950D02*
Y895350D01*
X1184910Y588010D02*
X1306195D01*
X1183640Y586740D02*
X1184910Y588010D01*
X1303775Y575310D02*
X1312030Y567055D01*
X1209040Y575310D02*
X1303775D01*
X1334650Y567055D02*
X1345445Y577850D01*
X1312030Y567055D02*
X1334650D01*
X1340485Y588010D02*
X1341237D01*
X1340485Y587258D02*
Y588010D01*
X1330442Y577215D02*
X1340485Y587258D01*
X1316238Y577215D02*
X1330442D01*
X1306195Y587258D02*
X1316238Y577215D01*
X1306195Y587258D02*
Y588010D01*
X1345445Y577850D02*
X1346715D01*
X1341237Y588010D02*
X1343660Y590433D01*
X1346715Y577850D02*
X1353820Y584955D01*
Y792480D01*
X1323340Y822960D02*
X1353820Y792480D01*
X1343660Y590433D02*
Y777240D01*
X1323340Y797560D02*
X1343660Y777240D01*
X1113790Y610870D02*
X1122680Y601980D01*
Y515620D02*
Y601980D01*
X1118870Y511810D02*
X1122680Y515620D01*
X913130Y511810D02*
X1118870D01*
X894080Y530860D02*
X913130Y511810D01*
X885825Y501015D02*
X1136015D01*
X868680Y518160D02*
X885825Y501015D01*
X868680Y518160D02*
Y530860D01*
X1098550Y943610D02*
X1125220Y916940D01*
X1073150Y943610D02*
X1101090Y915670D01*
X1022350Y918210D02*
X1047750Y943610D01*
X1022350Y883920D02*
Y918210D01*
D14*
X1103630Y530860D02*
D03*
X1078230D02*
D03*
X1052830D02*
D03*
X1027430D02*
D03*
X995680D02*
D03*
X970280D02*
D03*
X944880D02*
D03*
X919480D02*
D03*
X894080D02*
D03*
X868680D02*
D03*
X843280D02*
D03*
X817880D02*
D03*
X894080Y556260D02*
D03*
X868680D02*
D03*
X843280D02*
D03*
X817880D02*
D03*
X802640Y594360D02*
D03*
Y619760D02*
D03*
Y645160D02*
D03*
Y670560D02*
D03*
Y695960D02*
D03*
Y721360D02*
D03*
Y746760D02*
D03*
Y772160D02*
D03*
Y797560D02*
D03*
Y822960D02*
D03*
Y848360D02*
D03*
X1323340Y594360D02*
D03*
Y619760D02*
D03*
Y645160D02*
D03*
Y670560D02*
D03*
Y695960D02*
D03*
Y721360D02*
D03*
Y746760D02*
D03*
Y772160D02*
D03*
Y797560D02*
D03*
Y822960D02*
D03*
Y848360D02*
D03*
X1235710Y943610D02*
D03*
X1261110D02*
D03*
X1210310D02*
D03*
X1184910D02*
D03*
X1159510D02*
D03*
X1134110D02*
D03*
X1098550D02*
D03*
X1073150D02*
D03*
X1047750D02*
D03*
X1022350D02*
D03*
X1073150Y918210D02*
D03*
X1047750D02*
D03*
X853440Y772160D02*
D03*
Y695960D02*
D03*
Y721360D02*
D03*
Y746760D02*
D03*
Y797560D02*
D03*
Y822960D02*
D03*
Y848360D02*
D03*
Y873760D02*
D03*
X1082040Y645160D02*
D03*
X1158240D02*
D03*
X1132840D02*
D03*
X1107440D02*
D03*
X1056640D02*
D03*
X1031240D02*
D03*
X1005840D02*
D03*
X980440D02*
D03*
X996950Y842010D02*
D03*
X1022350D02*
D03*
X1047750D02*
D03*
X751840Y594360D02*
D03*
Y619760D02*
D03*
Y645160D02*
D03*
X1272540Y746760D02*
D03*
Y772160D02*
D03*
X904240Y670560D02*
D03*
X929640D02*
D03*
X904240Y645160D02*
D03*
X929640D02*
D03*
X970280Y581660D02*
D03*
X995680D02*
D03*
X1261110Y867410D02*
D03*
Y842010D02*
D03*
X1235710Y867410D02*
D03*
Y842010D02*
D03*
X1052830Y581660D02*
D03*
X1078230D02*
D03*
X904240Y695960D02*
D03*
X929640D02*
D03*
D15*
X1323340Y873760D02*
D03*
X802640D02*
D03*
X751840Y670560D02*
D03*
X1272540Y721360D02*
D03*
X1261110Y892810D02*
D03*
X1235710D02*
D03*
X1210310D02*
D03*
X1184910D02*
D03*
D16*
X1209040Y529590D02*
D03*
X1158240D02*
D03*
X1310640D02*
D03*
X1259840D02*
D03*
D17*
X1073150Y842010D02*
D03*
X878840Y670560D02*
D03*
Y645160D02*
D03*
X944880Y581660D02*
D03*
X1027430D02*
D03*
X878840Y695960D02*
D03*
D18*
X1140460Y568960D02*
D03*
X967740Y872490D02*
D03*
X1073150Y869950D02*
D03*
X1209040Y575310D02*
D03*
X1183640Y586740D02*
D03*
X1113790Y610870D02*
D03*
X1031240Y684530D02*
D03*
X1056640Y683260D02*
D03*
X1082040Y680720D02*
D03*
X1107440Y679450D02*
D03*
X1158240Y608330D02*
D03*
X1132840Y676910D02*
D03*
X843280Y579120D02*
D03*
X817880Y581660D02*
D03*
X878840Y622300D02*
D03*
X852170Y670560D02*
D03*
X781050Y594360D02*
D03*
Y619760D02*
D03*
Y645160D02*
D03*
Y670560D02*
D03*
D19*
X1022350Y883920D02*
D03*
X996950Y895350D02*
D03*
X1047750D02*
D03*
X1078230Y554990D02*
D03*
X1052830Y553720D02*
D03*
X1027430D02*
D03*
X995680Y554990D02*
D03*
X970280Y553720D02*
D03*
X944880D02*
D03*
X1300480Y746760D02*
D03*
X1299210Y772160D02*
D03*
X1184910Y920750D02*
D03*
X1210310D02*
D03*
X1235710D02*
D03*
X1261110D02*
D03*
X1047750Y812800D02*
D03*
X1101090Y842010D02*
D03*
X1073150Y895350D02*
D03*
X828040Y645160D02*
D03*
Y670560D02*
D03*
Y695960D02*
D03*
Y721360D02*
D03*
Y746760D02*
D03*
Y772160D02*
D03*
Y797560D02*
D03*
Y822960D02*
D03*
Y848360D02*
D03*
Y873760D02*
D03*
M02*
