%FSLAX44Y44*%
%MOMM*%
G71*
G01*
G75*
G04 Layer_Color=16711935*
%ADD10C,0.0762*%
D10*
X900000Y1080000D02*
Y1100000D01*
Y950000D02*
Y970000D01*
Y950000D02*
X1050000D01*
X1350000Y970000D02*
X1400000D01*
X1200000Y950000D02*
X1350000D01*
X1050000Y970000D02*
X1200000D01*
X750000D02*
X900000D01*
X600000Y950000D02*
X750000D01*
X450000Y970000D02*
X600000D01*
Y950000D02*
Y970000D01*
X750000Y950000D02*
Y970000D01*
X1050000Y950000D02*
Y970000D01*
X1200000Y950000D02*
Y970000D01*
X1350000Y950000D02*
Y970000D01*
Y380000D02*
X1405000D01*
X1350000D02*
Y400000D01*
X1200000Y380000D02*
Y400000D01*
X1050000Y380000D02*
X1200000D01*
X1050000D02*
Y400000D01*
X900000Y380000D02*
Y400000D01*
X750000Y380000D02*
X900000D01*
X750000D02*
Y400000D01*
X600000Y380000D02*
Y400000D01*
X450000Y380000D02*
X600000D01*
Y400000D02*
X750000D01*
X900000D02*
X1050000D01*
X1200000Y400000D02*
X1350000D01*
X430000Y970000D02*
X450000D01*
X430000Y850000D02*
Y970000D01*
Y850000D02*
X450000D01*
X430000Y380000D02*
X450000D01*
X430000D02*
Y500000D01*
X450000D01*
X430000Y725000D02*
X450000D01*
X430000Y625000D02*
X450000D01*
X430000D02*
Y725000D01*
X1405000Y625000D02*
X1425000D01*
X1405000Y725000D02*
X1425000D01*
X1405000Y500000D02*
X1425000D01*
X1405000Y380000D02*
X1425000D01*
X1405000Y850000D02*
X1425000D01*
X1405000Y970000D02*
X1425000D01*
X1425000Y380000D02*
Y400000D01*
Y950000D02*
Y970000D01*
Y850000D02*
Y950000D01*
Y625000D02*
Y725000D01*
X1425000Y380000D02*
Y500000D01*
X1405000D02*
Y625000D01*
Y725000D02*
Y850000D01*
X1400000Y970000D02*
X1405000D01*
X1405000Y970000D01*
X450000Y725000D02*
Y850000D01*
X450000Y500000D02*
Y625000D01*
X140000Y950000D02*
Y970000D01*
X185000Y950000D02*
Y970000D01*
X225000Y950000D02*
Y970000D01*
X285000Y950000D02*
Y970000D01*
Y950000D02*
X315000D01*
X225000Y970000D02*
X285000D01*
X185000Y950000D02*
X225000D01*
X140000Y970000D02*
X185000D01*
X100000Y950000D02*
X140000D01*
X450000Y1140000D02*
Y1185000D01*
Y1225000D02*
Y1285000D01*
X1350000Y1315000D02*
X1405000D01*
X1200000Y1335000D02*
X1350000D01*
X1050000Y1315000D02*
X1200000D01*
X900000Y1335000D02*
X1050000D01*
X750000Y1315000D02*
X900000D01*
X450000D02*
X600000D01*
Y1335000D02*
X750000D01*
X900000Y1315000D02*
Y1335000D01*
X600000Y1315000D02*
Y1335000D01*
X750000Y1315000D02*
Y1335000D01*
X1050000Y1315000D02*
Y1335000D01*
X1200000Y1315000D02*
Y1335000D01*
X1350000Y1315000D02*
Y1335000D01*
X430000Y1140000D02*
X450000D01*
X430000Y1100000D02*
Y1140000D01*
Y1100000D02*
X450000D01*
X430000Y1185000D02*
X450000D01*
X430000D02*
Y1207500D01*
Y1225000D02*
X450000D01*
X430000Y1207500D02*
Y1225000D01*
Y1285000D02*
X450000D01*
X430000D02*
Y1315000D01*
X450000D01*
X1350000Y1080000D02*
Y1100000D01*
X1200000Y1080000D02*
Y1100000D01*
X750000Y1080000D02*
Y1100000D01*
X600000Y1080000D02*
Y1100000D01*
X900000Y1080000D02*
X1050000D01*
X600000D02*
X750000D01*
X450000Y1100000D02*
X600000D01*
X750000D02*
X900000D01*
X1050000Y1080000D02*
Y1100000D01*
X1200000D01*
Y1080000D02*
X1350000D01*
Y1100000D01*
X1350000Y1100000D01*
X1405000D01*
Y1315000D02*
X1425000D01*
Y1285000D02*
Y1315000D01*
X1405000Y1285000D02*
X1425000D01*
Y1207500D02*
Y1225000D01*
X1405000D02*
X1425000D01*
Y1185000D02*
Y1207500D01*
X1405000Y1185000D02*
X1425000D01*
X1405000Y1100000D02*
X1425000D01*
Y1140000D01*
X1405000D02*
X1425000D01*
X1405000Y1225000D02*
Y1285000D01*
Y1140000D02*
Y1185000D01*
X100000Y400000D02*
X140000D01*
Y380000D02*
X185000D01*
Y400000D02*
X225000D01*
Y380000D02*
X285000D01*
Y400000D02*
X315000D01*
X285000Y380000D02*
Y400000D01*
X225000Y380000D02*
Y400000D01*
X185000Y380000D02*
Y400000D01*
X140000Y380000D02*
Y400000D01*
X315000Y725000D02*
X335000D01*
X315000Y625000D02*
X335000D01*
X315000Y500000D02*
X335000D01*
Y725000D02*
Y850000D01*
X315000D02*
X335000D01*
Y500000D02*
Y625000D01*
X315000Y850000D02*
Y950000D01*
Y625000D02*
Y725000D01*
Y400000D02*
Y500000D01*
X80000D02*
Y625000D01*
X80000Y725000D02*
Y850000D01*
X100000Y625000D02*
Y725000D01*
X80000Y625000D02*
X100000D01*
X80000Y725000D02*
X100000D01*
X80000Y500000D02*
X100000D01*
Y400000D02*
Y500000D01*
X80000Y850000D02*
X100000D01*
Y950000D01*
M02*
