M48
;Layer_Color=9474304
;FILE_FORMAT=4:4
METRIC,LZ
;TYPE=PLATED
T1F00S00C1.1430
T2F00S00C1.2000
T3F00S00C1.5000
T4F00S00C2.0320
T5F00S00C2.1590
T6F00S00C2.2860
T7F00S00C3.0000
T8F00S00C4.5000
T9F00S00C5.0000
%
T01
X02589022Y01866138
X02695908Y01855264
X02557272Y01975612
X03091942Y01975866
X03146298Y02156206
X02900934Y0217932
X02911856Y02281936
X02937256
X02962656
X02880106Y0228219
X02854706
X02829306
X02803906
X02778506
X02778252Y0225679
X02803652
Y0223139
Y02206244
X02778252
Y0223139
X02778506Y02369312
X02753106Y0228219
X02752852Y0225679
Y0223139
Y02206244
X02698242Y02090674
X0251587Y02156206
X0247142Y0217932
X02632456Y02369312
X02582164Y02414524
Y02473706
X02631186Y0247904
X02737866Y02471928
X02763266
Y02497328
X02737866
Y02522728
Y02548128
Y02573528
Y02598928
Y02624328
Y02649728
Y02675128
Y02700528
X02582164Y02599182
X02450338Y0263271
X02495804Y02679446
X02436876Y0251079
X02752852Y02393696
X02829306Y02408428
X02854706
X02880106
X02911856
X02937256
X02962656
X0283591Y02472944
X02814066Y02471928
Y02497328
Y02522728
X02788666Y02497328
Y02471928
X02786888Y0260731
X02881376Y02668778
X02906776
X02932176
X02957576
Y02694178
X02932176
X02931414Y0274447
X02957068Y02763266
X03069336Y02719578
X03094736
X03120136
Y02694178
Y02668778
X03145536
Y02694178
Y02719578
X03081782Y02685796
X03054858Y02663444
X03032506Y0259207
X0309372Y02547874
X03125724Y02522728
X03156966Y02548128
Y02573528
Y02598928
X02932176Y02622296
X02885186Y02527808
X03194812Y02601214
X03254248Y02600706
Y02626106
Y02651506
X03218434Y02661412
X03254248Y02575306
X03376422Y02758186
X03401822
X03427222
X03463036
X03488436
X03513836
X03546348
X0330962Y0277876
X03132328Y02787396
X03094482Y02819654
X03069082
X03085592Y02885694
X02958084Y0284988
X02932684
X02932176Y02822448
X02906776
X02881376
X02957576
X0266446Y02794
T02
X03210708Y0201549
X03250308
X03289908
Y0205549
X03250308
X03210708
X03171108
X03131508
X03091908
X03052308
X03012708
X02973108
X02933508
X02893908
X02854308
X02814708
Y0201549
X02854308
X02893908
X02933508
X02973108
X03012708
X03052308
X03091908
X03131508
X03171108
X02775108
X02735508
X02695908
X02656308
X02616708
Y0205549
X02656308
X02695908
X02735508
X02775108
X0240792Y0218567
Y0222527
Y0226487
Y0230447
Y0234407
X0236792
Y0230447
Y0226487
Y0222527
Y0218567
Y0238367
Y0242327
Y0246287
Y0250247
Y0254207
Y0258167
Y0262127
Y0266087
Y0270047
Y0274007
X0221869Y02725166
Y02674366
Y02594102
Y02543302
X0240792Y0254207
Y0258167
Y0262127
Y0266087
Y0270047
Y0274007
Y0250247
Y0246287
Y0242327
Y0238367
X03181906Y03111124
X03221506
X03261106
Y03151124
X03221506
X03181906
X03440176Y03092704
X03490976
X03142306Y03111124
X03102706
X03063106
X03023506
X02983906
X02944306
X02904706
X02865106
X02825506
X02785906
Y03151124
X02825506
X02865106
X02904706
X02944306
X02983906
X03023506
X03063106
X03102706
X03142306
X02746306
X02706706
X02667106
X02627506
X02587906
Y03111124
X02627506
X02667106
X02706706
X02746306
X0240792Y0285887
Y0281927
Y0277967
X0236792
Y0281927
Y0285887
T03
X03599434Y023749
X03650234
X03548634
X03497834
X03447034
X03396234
X03345434
X03294634
X03576828Y0283337
Y0293243
X03526028
X03475228
X03424428
X03373628
X03322828
X03272028
X03221228
Y0283337
X03272028
X03322828
X03373628
X03424428
X03475228
X03526028
X02850896Y02913634
X02800096
X02749296
X02698496
X02647696
X02596896
X02546096
X02495296
X02751074Y03276346
X02801874
X02852674
X02903474
X02954274
X03005074
X03055874
X03106674
T04
X0284607Y02108454
X03028188Y02424938
X02800096Y02787904
X03017266Y03043174
X03098546Y0297942
X02732532Y03060954
X02510028Y03128518
X0249555Y0279146
X02797048Y0319278
X03166364Y03204972
T05
X02903728Y0184912
X02882646Y01922526
X03210052Y02108454
X02479294Y02489708
Y02584704
X02667508Y03043682
T06
X0332994Y01944116
X03139948Y023749
T07
X03301492Y026924
X03302Y02692908
X03650488Y02532888
X03650996Y02533396
X03576828Y02881376
X03526028Y02881122
X03475228Y02881376
X03424428Y02881122
X03373628Y02881376
X03322828Y02880106
X03272028
X03221228Y02879598
T08
X02882406Y02447036
T09
X02232406Y02447036
X02972054
X03622054
X0348107Y02997
X02391664
M30
