%FSLAX44Y44*%
%MOMM*%
G71*
G01*
G75*
G04 Layer_Physical_Order=1*
G04 Layer_Color=255*
%ADD10C,0.2540*%
%ADD11R,1.7780X1.7780*%
%ADD12O,2.1590X0.7620*%
%ADD13R,0.7000X1.6000*%
%ADD14C,0.7620*%
%ADD15C,1.5240*%
%ADD16C,2.1590*%
%ADD17R,2.1590X2.1590*%
%ADD18R,2.1590X2.1590*%
D10*
X1042978Y1107748D02*
X1040506Y1109400D01*
X1037590Y1109980D01*
X1054100Y1093470D02*
X1053520Y1096386D01*
X1051868Y1098858D01*
X1054100Y1093470D02*
X1053519Y1096388D01*
X1051865Y1098861D01*
X1042981Y1107745D02*
X1040508Y1109399D01*
X1037590Y1109980D01*
X953316Y1112466D02*
X954968Y1114938D01*
X955548Y1117854D01*
X953313Y1112463D02*
X954967Y1114936D01*
X955548Y1117854D01*
X905510Y1149082D02*
X907512Y1150554D01*
X909235Y1152344D01*
X910630Y1154400D01*
X911656Y1156663D01*
X912284Y1159066D01*
X912495Y1161542D01*
X919942Y1131570D02*
X917550Y1130465D01*
X915677Y1128611D01*
X914548Y1126231D01*
X914296Y1123608D01*
X914954Y1121056D01*
X911098Y1146810D02*
X908182Y1146230D01*
X905710Y1144578D01*
X911098Y1146810D02*
X908180Y1146229D01*
X905707Y1144575D01*
X943483Y1098804D02*
X942802Y1101952D01*
X935863Y1091184D02*
X938218Y1091557D01*
X940342Y1092639D01*
X942028Y1094325D01*
X943110Y1096449D01*
X943483Y1098804D01*
X964889Y1036015D02*
X967362Y1034361D01*
X970280Y1033780D01*
X956818Y1047242D02*
X957398Y1044326D01*
X959050Y1041854D01*
X964892Y1036012D02*
X967364Y1034360D01*
X970280Y1033780D01*
X956818Y1047242D02*
X957399Y1044324D01*
X959053Y1041851D01*
X914273Y1098823D02*
X914641Y1096463D01*
X915722Y1094334D01*
X917408Y1092644D01*
X919535Y1091558D01*
X921893Y1091184D01*
X1038860Y977464D02*
X1036320Y977900D01*
X1038860Y977464D02*
X1036320Y977900D01*
X1016000Y990600D02*
X1015420Y993516D01*
X1013768Y995988D01*
X1016000Y990600D02*
X1015419Y993518D01*
X1013765Y995991D01*
X1051868Y912423D02*
X1053520Y914896D01*
X1054100Y917812D01*
X1051865Y912420D02*
X1053519Y914893D01*
X1054100Y917812D01*
X1035448Y899160D02*
X1038364Y899740D01*
X1040837Y901392D01*
X1035448Y899160D02*
X1038366Y899741D01*
X1040840Y901395D01*
X1015690Y942475D02*
X1016000Y944626D01*
X977954Y1001068D02*
X975482Y1002720D01*
X972566Y1003300D01*
X977957Y1001065D02*
X975484Y1002719D01*
X972566Y1003300D01*
X990600Y1000760D02*
X991181Y997842D01*
X992835Y995369D01*
X990600Y1000760D02*
X991180Y997844D01*
X992832Y995372D01*
X942100Y1003300D02*
X940628Y1005302D01*
X938838Y1007025D01*
X936782Y1008420D01*
X934519Y1009446D01*
X932115Y1010074D01*
X929640Y1010285D01*
X927165Y1010074D01*
X924761Y1009446D01*
X922498Y1008420D01*
X920442Y1007025D01*
X918652Y1005302D01*
X917180Y1003300D01*
X936852Y982980D02*
X938880Y984369D01*
X940645Y986079D01*
X942100Y988060D01*
X917180D02*
X918634Y986079D01*
X920400Y984369D01*
X922428Y982980D01*
X903929Y990295D02*
X906402Y988641D01*
X909320Y988060D01*
X903932Y990292D02*
X906404Y988640D01*
X909320Y988060D01*
X944245Y970280D02*
X944020Y972833D01*
X943352Y975308D01*
X942262Y977627D01*
X940783Y979721D01*
X938961Y981524D01*
X936852Y982980D01*
X936852Y957580D02*
X938961Y959036D01*
X940783Y960839D01*
X942262Y962933D01*
X943352Y965252D01*
X944020Y967727D01*
X944245Y970280D01*
X922428Y982980D02*
X920400Y981591D01*
X918634Y979881D01*
X917180Y977900D01*
X942100Y952500D02*
X940645Y954481D01*
X938880Y956191D01*
X936852Y957580D01*
X917180Y962660D02*
X918634Y960679D01*
X920400Y958969D01*
X922428Y957580D01*
X920342Y956143D01*
X918536Y954367D01*
X917063Y952305D01*
X915969Y950020D01*
X915287Y947581D01*
X915036Y945060D01*
X915225Y942534D01*
X915847Y940078D01*
X916884Y937767D01*
X918305Y935670D01*
X920067Y933850D01*
X922117Y932362D01*
X924394Y931250D01*
X926828Y930548D01*
X929346Y930278D01*
X931874Y930447D01*
X934334Y931050D01*
X936654Y932069D01*
X938762Y933474D01*
X940595Y935222D01*
X942100Y937260D01*
X867105Y1183951D02*
X865451Y1181478D01*
X864870Y1178560D01*
X867102Y1183948D02*
X865450Y1181476D01*
X864870Y1178560D01*
Y1174002D02*
X863190Y1172803D01*
X861695Y1171379D01*
X912495Y1161542D02*
X912259Y1164155D01*
X911560Y1166683D01*
X910420Y1169045D01*
X908876Y1171166D01*
X906977Y1172976D01*
X904785Y1174417D01*
X902371Y1175443D01*
X899812Y1176020D01*
X895968D02*
X893345Y1175422D01*
X890876Y1174353D01*
X888645Y1172849D01*
X886728Y1170961D01*
X885190Y1168754D01*
X883801Y1170782D01*
X882091Y1172547D01*
X880110Y1174002D01*
X885190Y1154330D02*
X886579Y1152302D01*
X888289Y1150536D01*
X890270Y1149082D01*
X832485Y1168066D02*
X831031Y1166927D01*
X861695Y1151705D02*
X863532Y1150007D01*
X865631Y1148648D01*
X867932Y1147666D01*
X870366Y1147092D01*
X872863Y1146942D01*
X875349Y1147219D01*
X877750Y1147917D01*
X879998Y1149015D01*
X882025Y1150479D01*
X883773Y1152269D01*
X885190Y1154330D01*
X865124Y1144270D02*
X862206Y1143689D01*
X859733Y1142035D01*
X865124Y1144270D02*
X862208Y1143690D01*
X859736Y1142038D01*
X845693Y1131824D02*
X843087Y1131365D01*
X840795Y1130041D01*
X839094Y1128014D01*
X838189Y1125527D01*
Y1122881D01*
X839094Y1120394D01*
X840795Y1118367D01*
X843087Y1117044D01*
X845693Y1116584D01*
X859663D02*
X862584Y1117166D01*
Y1105842D02*
X859663Y1106424D01*
Y1091184D02*
X862584Y1091766D01*
X852170Y1090930D02*
X854121Y1091184D01*
X845693Y1106424D02*
X843742Y1106170D01*
X832485Y1168066D02*
X831034Y1166930D01*
X793445Y1168711D02*
X791791Y1166238D01*
X791210Y1163320D01*
X793442Y1168708D02*
X791790Y1166236D01*
X791210Y1163320D01*
X823922Y1159818D02*
X822270Y1157346D01*
X821690Y1154430D01*
X823925Y1159821D02*
X822271Y1157348D01*
X821690Y1154430D01*
X791845Y1021080D02*
X791628Y1023587D01*
X790984Y1026020D01*
X789932Y1028306D01*
X788503Y1030378D01*
X786740Y1032173D01*
X784695Y1033639D01*
X782428Y1034732D01*
X780007Y1035420D01*
X777505Y1035683D01*
X774994Y1035511D01*
X772550Y1034911D01*
X770245Y1033901D01*
X768148Y1032510D01*
X901700Y982472D02*
X901119Y985390D01*
X899465Y987863D01*
X901700Y982472D02*
X901120Y985388D01*
X899468Y987860D01*
X784452Y1008380D02*
X786561Y1009836D01*
X788383Y1011639D01*
X789862Y1013733D01*
X790952Y1016052D01*
X791620Y1018527D01*
X791845Y1021080D01*
X768148Y1009650D02*
X770028Y1008380D01*
X768148Y1007110D01*
X784452Y982980D02*
X786561Y984436D01*
X788383Y986239D01*
X789862Y988333D01*
X790952Y990652D01*
X791620Y993127D01*
X791845Y995680D01*
X791620Y998233D01*
X790952Y1000708D01*
X789862Y1003027D01*
X788383Y1005121D01*
X786561Y1006924D01*
X784452Y1008380D01*
X768148Y984250D02*
X770028Y982980D01*
X768148Y981710D01*
X791845Y970280D02*
X791620Y972833D01*
X790952Y975308D01*
X789862Y977627D01*
X788383Y979721D01*
X786561Y981524D01*
X784452Y982980D01*
X787077Y959485D02*
X788729Y961263D01*
X790064Y963290D01*
X791044Y965510D01*
X791643Y967862D01*
X791845Y970280D01*
X862584Y936608D02*
X863165Y933689D01*
X864819Y931216D01*
X894643Y901392D02*
X897116Y899740D01*
X900032Y899160D01*
X894640Y901395D02*
X897113Y899741D01*
X900032Y899160D01*
X862584Y936608D02*
X863164Y933692D01*
X864816Y931219D01*
X693012Y982980D02*
X694892Y984250D01*
X675963Y1006475D02*
X674265Y1004638D01*
X672906Y1002539D01*
X671925Y1000238D01*
X671350Y997804D01*
X671200Y995307D01*
X671478Y992821D01*
X672175Y990419D01*
X673273Y988172D01*
X674737Y986144D01*
X676527Y984397D01*
X678588Y982980D01*
X694892Y981710D02*
X693012Y982980D01*
X678588D02*
X676479Y981524D01*
X674657Y979721D01*
X673178Y977627D01*
X672088Y975308D01*
X671420Y972833D01*
X671195Y970280D01*
X671420Y967727D01*
X672088Y965252D01*
X673178Y962933D01*
X674657Y960839D01*
X676479Y959036D01*
X678588Y957580D01*
X693012D02*
X694892Y958850D01*
X694892Y956310D02*
X693012Y957580D01*
X678588D02*
X676503Y956144D01*
X674698Y954370D01*
X673226Y952310D01*
X672132Y950028D01*
X671449Y947590D01*
X671196Y945072D01*
X671383Y942548D01*
X672002Y940093D01*
X673035Y937783D01*
X674453Y935685D01*
X676210Y933864D01*
X678257Y932374D01*
X680529Y931259D01*
X682960Y930554D01*
X685476Y930279D01*
X688002Y930442D01*
X690462Y931039D01*
X692782Y932052D01*
X694892Y933450D01*
X1045909Y1202055D02*
X1062355Y1185609D01*
X1038860Y1109873D02*
Y1202055D01*
X1041400Y1108959D02*
Y1202055D01*
X1031240Y1109980D02*
Y1202055D01*
X1028700Y1109980D02*
Y1202055D01*
X1036320Y1109980D02*
Y1202055D01*
X1037590Y1109980D02*
X1062355D01*
X1033780D02*
Y1202055D01*
X996569Y1127760D02*
X1062355D01*
X996569Y1130300D02*
X1062355D01*
X996569Y1125220D02*
X1062355D01*
X1008380Y1109980D02*
Y1202055D01*
X1005840Y1109980D02*
Y1202055D01*
X1010920Y1109980D02*
Y1202055D01*
X1000760Y1109980D02*
Y1202055D01*
X998220Y1109980D02*
Y1202055D01*
X1003300Y1109980D02*
Y1202055D01*
X1023620Y1109980D02*
Y1202055D01*
X1021080Y1109980D02*
Y1202055D01*
X1026160Y1109980D02*
Y1202055D01*
X1016000Y1109980D02*
Y1202055D01*
X1013460Y1109980D02*
Y1202055D01*
X1018540Y1109980D02*
Y1202055D01*
X1051560Y1099166D02*
Y1196404D01*
X1049020Y1101706D02*
Y1198944D01*
X1054100Y1093470D02*
Y1193864D01*
X1045826Y1104900D02*
X1062355D01*
X1043286Y1107440D02*
X1062355D01*
X1042981Y1107745D02*
X1051865Y1098861D01*
X1053993Y1094740D02*
X1062355D01*
X1053079Y1097280D02*
X1062355D01*
X1050906Y1099820D02*
X1062355D01*
X1048366Y1102360D02*
X1062355D01*
X1043940Y1106786D02*
Y1202055D01*
X1046480Y1104246D02*
Y1201484D01*
X1018540Y1054354D02*
Y1094740D01*
X1016000Y1054354D02*
Y1094740D01*
X1021080Y1054354D02*
Y1094740D01*
X1010920Y1054354D02*
Y1094740D01*
X1008380Y1054354D02*
Y1094740D01*
X1013460Y1049274D02*
Y1094740D01*
X998220Y1054354D02*
Y1094740D01*
X1000760Y1054354D02*
Y1094740D01*
X954640Y1165860D02*
X1062355D01*
X952100Y1168400D02*
X1062355D01*
X957180Y1163320D02*
X1062355D01*
X947020Y1173480D02*
X1062355D01*
X944480Y1176020D02*
X1062355D01*
X949560Y1170940D02*
X1062355D01*
X969880Y1150620D02*
X1062355D01*
X967340Y1153160D02*
X1062355D01*
X972420Y1148080D02*
X1062355D01*
X962260Y1158240D02*
X1062355D01*
X959720Y1160780D02*
X1062355D01*
X964800Y1155700D02*
X1062355D01*
X926700Y1193800D02*
X1054164D01*
X924160Y1196340D02*
X1051624D01*
X929240Y1191260D02*
X1056704D01*
X919080Y1201420D02*
X1046544D01*
X918424Y1202055D02*
X1045909D01*
X921620Y1198880D02*
X1049084D01*
X939400Y1181100D02*
X1062355D01*
X936860Y1183640D02*
X1062355D01*
X941940Y1178560D02*
X1062355D01*
X931780Y1188720D02*
X1059244D01*
X934320Y1186180D02*
X1061784D01*
X996569Y1135380D02*
X1062355D01*
X996569Y1137920D02*
X1062355D01*
X996569Y1132840D02*
X1062355D01*
X977500Y1143000D02*
X1062355D01*
X974960Y1145540D02*
X1062355D01*
X996569Y1140460D02*
X1062355D01*
X996569Y1112520D02*
X1062355D01*
X996569Y1115060D02*
X1062355D01*
X996569Y1109980D02*
X1037590D01*
X996569Y1120140D02*
X1062355D01*
X996569Y1122680D02*
X1062355D01*
X996569Y1117600D02*
X1062355D01*
X995680Y1142365D02*
Y1202055D01*
X993140Y1142365D02*
Y1202055D01*
X996569Y1116965D02*
Y1142365D01*
X978135D02*
X996569D01*
X988060D02*
Y1202055D01*
X990600Y1142365D02*
Y1202055D01*
X996569Y1109980D02*
X1037590D01*
X996569D02*
Y1113155D01*
Y1087755D02*
Y1094740D01*
Y1113155D02*
Y1116965D01*
Y1113155D02*
Y1116965D01*
X1054100Y1082040D02*
X1062355D01*
X1054100Y1084580D02*
X1062355D01*
X1054100Y1079500D02*
X1062355D01*
X1054100Y1089660D02*
X1062355D01*
X1054100Y1092200D02*
X1062355D01*
X1054100Y1087120D02*
X1062355D01*
X1054100Y1066800D02*
X1062355D01*
X1054100Y1069340D02*
X1062355D01*
X1054100Y1064260D02*
X1062355D01*
X1054100Y1074420D02*
X1062355D01*
X1054100Y1076960D02*
X1062355D01*
X1054100Y1071880D02*
X1062355D01*
X1034434Y1094740D02*
X1038860Y1090314D01*
X1033780Y1054354D02*
Y1094740D01*
X1031240Y1054354D02*
Y1094740D01*
X1026160Y1054354D02*
Y1094740D01*
X1023620Y1054354D02*
Y1094740D01*
X1028700Y1054354D02*
Y1094740D01*
X1054100Y1059180D02*
X1062355D01*
X1054100Y1061720D02*
X1062355D01*
X1054100Y1056640D02*
X1062355D01*
X1038860Y1054354D02*
Y1090314D01*
X1036320Y1054354D02*
Y1092854D01*
X1038860Y1054354D02*
Y1090314D01*
X1054100Y1041400D02*
X1062355D01*
X1054100Y1043940D02*
X1062355D01*
X1054100Y1038860D02*
X1062355D01*
X1054100Y1049020D02*
X1062355D01*
X1054100Y1051560D02*
X1062355D01*
X1054100Y1046480D02*
X1062355D01*
X1054100Y1016000D02*
X1062355D01*
X1054100Y1028700D02*
X1062355D01*
X1054100Y1013460D02*
X1062355D01*
X1054100Y1033780D02*
X1062355D01*
X1054100Y1036320D02*
X1062355D01*
X1054100Y1031240D02*
X1062355D01*
X1054100Y1054100D02*
X1062355D01*
X1015238Y1028954D02*
Y1034034D01*
X1054100Y1026160D02*
X1062355D01*
X1015238Y1028954D02*
X1038860D01*
X1015238D02*
X1038860D01*
X1015238Y1023620D02*
Y1028954D01*
X1054100Y1010920D02*
X1062355D01*
X1054100Y1018540D02*
X1062355D01*
X1054100Y1008380D02*
X1062355D01*
X1054100Y1023620D02*
X1062355D01*
X1054100Y1021080D02*
X1062355D01*
X972058Y1087120D02*
X1038860D01*
X996569Y1089660D02*
X1038860D01*
X972058Y1084580D02*
X1038860D01*
X972058Y1079500D02*
X1038860D01*
X972058Y1082040D02*
X1038860D01*
X972058Y1076960D02*
X1038860D01*
X972058Y1056640D02*
X1038860D01*
X972058Y1066800D02*
X1038860D01*
X1015238Y1054354D02*
X1038860D01*
X972058Y1071880D02*
X1038860D01*
X972058Y1074420D02*
X1038860D01*
X972058Y1069340D02*
X1038860D01*
X996569Y1094740D02*
X1034434D01*
X1003300Y1054354D02*
Y1094740D01*
X1005840Y1054354D02*
Y1094740D01*
X996569Y1092200D02*
X1036974D01*
X996569Y1094740D02*
X1034434D01*
X988060Y1054354D02*
Y1087755D01*
X972058Y1059180D02*
X1038860D01*
X972058Y1061720D02*
X1038860D01*
X986028Y1054354D02*
X1011428D01*
X972058Y1087755D02*
X996569D01*
X972058Y1064260D02*
X1038860D01*
X1011428Y1051560D02*
X1015238D01*
X1011428Y1054100D02*
X1015238D01*
Y1049274D02*
Y1054354D01*
X1011428Y1034034D02*
X1015238D01*
X1011428Y1049274D02*
X1015238D01*
X1011428Y1033780D02*
X1015238D01*
X1011428Y1008380D02*
X1015238D01*
X1011428Y1023620D02*
X1015238D01*
X1011428Y1008380D02*
X1015238D01*
X1011428Y1028700D02*
X1015238D01*
X1011428Y1031240D02*
X1015238D01*
X1011428Y1026160D02*
X1015238D01*
X1011428Y1028954D02*
Y1034034D01*
Y1049274D02*
Y1054354D01*
X1013460Y1023620D02*
Y1034034D01*
X993140Y1054354D02*
Y1087755D01*
X990600Y1054354D02*
Y1087755D01*
X995680Y1054354D02*
Y1087755D01*
X1011428Y1023620D02*
X1015238D01*
X1011428D02*
Y1028954D01*
Y1005840D02*
X1015238D01*
X986028Y1028954D02*
X1011428D01*
X986028D02*
X1011428D01*
X955040Y1165460D02*
Y1202055D01*
X952500Y1168000D02*
Y1202055D01*
X957580Y1162920D02*
Y1202055D01*
X947420Y1173080D02*
Y1202055D01*
X944880Y1175620D02*
Y1202055D01*
X949960Y1170540D02*
Y1202055D01*
X970280Y1150220D02*
Y1202055D01*
X967740Y1152760D02*
Y1202055D01*
X972820Y1147680D02*
Y1202055D01*
X962660Y1157840D02*
Y1202055D01*
X960120Y1160380D02*
Y1202055D01*
X965200Y1155300D02*
Y1202055D01*
X939800Y1180700D02*
Y1202055D01*
X937260Y1183240D02*
Y1202055D01*
X942340Y1178160D02*
Y1202055D01*
X932180Y1188320D02*
Y1202055D01*
X929640Y1190860D02*
Y1202055D01*
X934720Y1185780D02*
Y1202055D01*
X929640Y1146810D02*
Y1152290D01*
X927100Y1193400D02*
Y1202055D01*
X932180Y1146810D02*
Y1149750D01*
X924560Y1146810D02*
Y1157370D01*
Y1195940D02*
Y1202055D01*
X922020Y1146810D02*
Y1159910D01*
X982980Y1142365D02*
Y1202055D01*
X980440Y1142365D02*
Y1202055D01*
X985520Y1142365D02*
Y1202055D01*
X977900Y1142600D02*
Y1202055D01*
X975360Y1145140D02*
Y1202055D01*
X955548Y1126382D02*
X956818Y1125112D01*
X955548Y1122680D02*
X956818D01*
X955548Y1125220D02*
X956710D01*
X956818Y1047242D02*
Y1125112D01*
X955544Y1117600D02*
X956818D01*
X955548Y1120140D02*
X956818D01*
X955017Y1115060D02*
X956818D01*
X955548Y1117854D02*
Y1126382D01*
X932034Y1116584D02*
X935863D01*
X927100Y1146810D02*
Y1154830D01*
X925722Y1106424D02*
X935882Y1116584D01*
X934720Y1115422D02*
Y1116584D01*
X930510Y1115060D02*
X934358D01*
X932180Y1112882D02*
Y1116584D01*
X927970Y1112520D02*
X931818D01*
X929640Y1110342D02*
Y1114190D01*
X922020Y1198480D02*
Y1202055D01*
X919480Y1201020D02*
Y1202055D01*
Y1146810D02*
Y1162450D01*
X912475Y1160780D02*
X921150D01*
X912386Y1163320D02*
X918610D01*
X916940Y1146810D02*
Y1164990D01*
X911276Y1155700D02*
X926230D01*
X912117Y1158240D02*
X923690D01*
X911098Y1146810D02*
X935120D01*
X907586Y1150620D02*
X931310D01*
X909850Y1153160D02*
X928770D01*
X905510Y1148080D02*
X933850D01*
X909070Y1170940D02*
X910990D01*
X909320Y1170634D02*
Y1172610D01*
X911860Y1165802D02*
Y1170070D01*
X906304Y1173480D02*
X908450D01*
X904240Y1174694D02*
Y1176020D01*
X906780Y1173130D02*
Y1175150D01*
X911842Y1165860D02*
X916070D01*
X911860Y1146810D02*
Y1157282D01*
X914400Y1146810D02*
Y1167530D01*
X910785Y1168400D02*
X913530D01*
X918775Y1201725D02*
X978135Y1142365D01*
X916940Y1129995D02*
Y1131570D01*
X914400Y1125589D02*
Y1131570D01*
X905910Y1176020D02*
X935120Y1146810D01*
X914254Y1131570D02*
X919942D01*
X912984Y1130300D02*
X917321D01*
X914400Y1120502D02*
Y1122819D01*
X921874Y1106424D02*
X932034Y1116584D01*
X910444Y1127760D02*
X915154D01*
X907904Y1125220D02*
X914341D01*
X905364Y1122680D02*
X914427D01*
X909320Y1146600D02*
Y1152450D01*
X906780Y1145469D02*
Y1149954D01*
X905510Y1145540D02*
X906886D01*
X905510Y1144378D02*
Y1149082D01*
X911860Y1117962D02*
Y1129176D01*
X909320Y1115422D02*
Y1126636D01*
X906780Y1112882D02*
Y1124096D01*
X902824Y1120140D02*
X914038D01*
X904240Y1110342D02*
Y1121556D01*
X945750Y1104900D02*
X956818D01*
X948290Y1107440D02*
X956818D01*
X972820Y1049636D02*
Y1087755D01*
X943415Y1099820D02*
X956818D01*
X943210Y1102360D02*
X956818D01*
X943329Y1097280D02*
X956818D01*
X973436Y1049020D02*
X986028D01*
X972058Y1050398D02*
Y1087755D01*
X986028Y1049020D02*
Y1054354D01*
X972058Y1051560D02*
X986028D01*
X972058Y1054100D02*
X986028D01*
X972058Y1050398D02*
X973436Y1049020D01*
X950830Y1109980D02*
X956818D01*
X953370Y1112520D02*
X956818D01*
X942802Y1101952D02*
X953313Y1112463D01*
X925430Y1109980D02*
X929278D01*
X927100Y1107802D02*
Y1111650D01*
X924560Y1106424D02*
Y1109110D01*
X942309Y1094740D02*
X956818D01*
X939665Y1092200D02*
X956818D01*
X928878Y1091184D02*
X935863D01*
X922890Y1107440D02*
X926738D01*
X982980Y1049020D02*
Y1087755D01*
X980440Y1049020D02*
Y1087755D01*
X985520Y1049020D02*
Y1087755D01*
X973436Y1049020D02*
X986028D01*
X975360D02*
Y1087755D01*
X977900Y1049020D02*
Y1087755D01*
X970280Y1033780D02*
X986028D01*
X970280D02*
X986028D01*
Y1028954D02*
Y1033780D01*
X936852Y1008380D02*
X986028D01*
X940132Y1005840D02*
X986028D01*
X937260Y1008140D02*
Y1091313D01*
X934720Y1009373D02*
Y1091184D01*
X939800Y1006172D02*
Y1092280D01*
X929640Y1010285D02*
Y1091184D01*
X927100Y1010062D02*
Y1091184D01*
X924560Y1009373D02*
Y1091184D01*
X959053Y1041851D02*
X964889Y1036015D01*
X932180Y1010062D02*
Y1091184D01*
X902970Y1087120D02*
X956818D01*
X905110Y1089660D02*
X956818D01*
X902970Y1084580D02*
X956818D01*
X902970Y1079500D02*
X956818D01*
X902970Y1082040D02*
X956818D01*
X902970Y1076960D02*
X956818D01*
X902970Y1054100D02*
X956818D01*
X902970Y1056640D02*
X956818D01*
X902970Y1051560D02*
X956818D01*
X902970Y1071880D02*
X956818D01*
X902970Y1074420D02*
X956818D01*
X902970Y1059180D02*
X956818D01*
X921893Y1106424D02*
X925722D01*
X912730Y1097280D02*
X914427D01*
X907650Y1092200D02*
X918092D01*
X910190Y1094740D02*
X915447D01*
X902970Y1087520D02*
X914273Y1098823D01*
X902970Y1069340D02*
X956818D01*
X921893Y1091184D02*
X928878D01*
X902970Y1066800D02*
X956818D01*
X902970Y1064260D02*
X956818D01*
X902970Y1061720D02*
X956818D01*
X902970Y1028700D02*
X986028D01*
X902970Y1031240D02*
X986028D01*
X902970Y1026160D02*
X986028D01*
X902970Y1036320D02*
X964584D01*
X902970Y1038860D02*
X962044D01*
X902970Y1033780D02*
X970280D01*
X902970Y1013460D02*
X986028D01*
X902970Y1016000D02*
X986028D01*
X904856Y1010920D02*
X986028D01*
X902970Y1021080D02*
X986028D01*
X902970Y1023620D02*
X986028D01*
X902970Y1018540D02*
X986028D01*
X922020Y1008140D02*
Y1091184D01*
X909320Y1006456D02*
Y1093870D01*
X919480Y1006172D02*
Y1091576D01*
X904240Y1011536D02*
Y1088790D01*
X902970Y1012806D02*
Y1087520D01*
X906780Y1008996D02*
Y1091330D01*
X902970Y1041400D02*
X959504D01*
X902970Y1043940D02*
X957571D01*
X907396Y1008380D02*
X922428D01*
X902970Y1049020D02*
X956818D01*
X902970Y1046480D02*
X956856D01*
X1054100Y995680D02*
X1062355D01*
X1054100Y998220D02*
X1062355D01*
X1054100Y993140D02*
X1062355D01*
X1054100Y1003300D02*
X1062355D01*
X1054100Y1005840D02*
X1062355D01*
X1054100Y1000760D02*
X1062355D01*
X1054100Y980440D02*
X1062355D01*
X1054100Y982980D02*
X1062355D01*
X1054100Y977900D02*
X1062355D01*
X1054100Y988060D02*
X1062355D01*
X1054100Y990600D02*
X1062355D01*
X1054100Y985520D02*
X1062355D01*
X1033780Y977900D02*
Y1003554D01*
X1031240Y977900D02*
Y1003554D01*
X1036320Y977900D02*
Y1003554D01*
X1026160Y977900D02*
Y1003554D01*
X1025850Y977900D02*
Y981836D01*
X1028700Y977900D02*
Y1003554D01*
X1036320Y977900D02*
X1038860D01*
X1025850Y980440D02*
X1038860D01*
X1025850Y977900D02*
X1036320D01*
X1025850D02*
X1036320D01*
X1062355Y903541D02*
Y1185609D01*
X1061720Y902906D02*
Y1186244D01*
X1059180Y900366D02*
Y1188784D01*
X1054100Y975360D02*
X1062355D01*
X1054100Y917812D02*
Y1093470D01*
X1056640Y897826D02*
Y1191324D01*
X1054100Y962660D02*
X1062355D01*
X1054100Y965200D02*
X1062355D01*
X1054100Y960120D02*
X1062355D01*
X1054100Y970280D02*
X1062355D01*
X1054100Y972820D02*
X1062355D01*
X1054100Y967740D02*
X1062355D01*
X1038860Y977464D02*
Y1003554D01*
Y977464D02*
Y1003554D01*
X1054100Y895286D02*
Y1093470D01*
X1028700Y925176D02*
Y962660D01*
Y925176D02*
Y962660D01*
X1026160Y924560D02*
Y962660D01*
X1025850D02*
X1028700D01*
X1025850D02*
X1028700D01*
X1025850Y958216D02*
Y962660D01*
Y960120D02*
X1028700D01*
X1023620Y924560D02*
Y958216D01*
X1015238Y1003554D02*
X1038860D01*
X1015238D02*
Y1008380D01*
X1016000Y990600D02*
Y1003554D01*
X1008996Y1000760D02*
X1038860D01*
X1006456Y1003300D02*
X1038860D01*
X1011536Y998220D02*
X1038860D01*
X1016000Y990600D02*
X1038860D01*
X1015564Y993140D02*
X1038860D01*
X1016000Y988060D02*
X1038860D01*
X1014060Y995680D02*
X1038860D01*
X1011428Y1003554D02*
Y1008380D01*
X1010920Y998836D02*
Y1003554D01*
X1013460Y996296D02*
Y1008380D01*
X1006202Y1003554D02*
X1011428D01*
X1008380Y1001376D02*
Y1003554D01*
X1006202D02*
X1013765Y995991D01*
X992835Y995369D02*
X1000760Y987444D01*
X990962Y988060D02*
X1000144D01*
X993140Y985882D02*
Y995064D01*
X985882Y993140D02*
X995064D01*
X988422Y990600D02*
X997604D01*
X1021080Y981836D02*
Y1003554D01*
X1018540Y981836D02*
Y1003554D01*
X1023620Y981836D02*
Y1003554D01*
X1016000Y981836D02*
Y990600D01*
X993502Y985520D02*
X1000760D01*
X1016000Y981836D02*
Y990600D01*
Y958216D02*
X1025850D01*
X1018540Y924560D02*
Y958216D01*
X1021080Y924560D02*
Y958216D01*
X1016000Y982980D02*
X1038860D01*
X1016000Y985520D02*
X1038860D01*
X1016000Y981836D02*
X1025850D01*
X1000760D02*
Y987444D01*
X998220Y981836D02*
Y989984D01*
X1000760Y981836D02*
Y987444D01*
X996042Y982980D02*
X1000760D01*
X995680Y983342D02*
Y992524D01*
X977957Y1001065D02*
X997186Y981836D01*
X1000760Y952500D02*
Y958216D01*
X997186Y981836D02*
X1000760D01*
Y952500D02*
Y958216D01*
X990910D02*
X1000760D01*
X995680Y952500D02*
Y958216D01*
X1054100Y947420D02*
X1062355D01*
X1054100Y949960D02*
X1062355D01*
X1054100Y944880D02*
X1062355D01*
X1054100Y955040D02*
X1062355D01*
X1054100Y957580D02*
X1062355D01*
X1054100Y952500D02*
X1062355D01*
X1054100Y939800D02*
X1062355D01*
X1054100Y942340D02*
X1062355D01*
X1054100Y937260D02*
X1062355D01*
X1054100Y932180D02*
X1062355D01*
X1054100Y934720D02*
X1062355D01*
X1051305Y911860D02*
X1062355D01*
X1054100Y927100D02*
X1062355D01*
X1054100Y929640D02*
X1062355D01*
X1054100Y924560D02*
X1062355D01*
X1016000Y957580D02*
X1028700D01*
X1016000Y944880D02*
Y958216D01*
X1028084Y924560D02*
X1028700Y925176D01*
X1054100Y919480D02*
X1062355D01*
X1054100Y922020D02*
X1062355D01*
X1054050Y916940D02*
X1062355D01*
X1053294Y914400D02*
X1062355D01*
X1048765Y909320D02*
X1062355D01*
X1051560Y892746D02*
Y912115D01*
X1049020Y890206D02*
Y909575D01*
X1046225Y906780D02*
X1062355D01*
X1040840Y901395D02*
X1051865Y912420D01*
X1046480Y887666D02*
Y907035D01*
X1043685Y904240D02*
X1062355D01*
X1043940Y887095D02*
Y904495D01*
X1045909Y887095D02*
X1062355Y903541D01*
X1041145Y901700D02*
X1060514D01*
X1035448Y899160D02*
X1057974D01*
X1041400Y887095D02*
Y901955D01*
X1036320Y887095D02*
Y899210D01*
X1038860Y887095D02*
Y899966D01*
X1033780Y887095D02*
Y899160D01*
X1031240Y887095D02*
Y899160D01*
X1026160Y887095D02*
Y899160D01*
X1023620Y887095D02*
Y899160D01*
X1028700Y887095D02*
Y899160D01*
X1018540Y887095D02*
Y899160D01*
X1021080Y887095D02*
Y899160D01*
X1016000Y952500D02*
X1028700D01*
X1016000Y955040D02*
X1028700D01*
X1016000Y949960D02*
X1028700D01*
X1016000Y944880D02*
X1028700D01*
X1016000Y947420D02*
X1028700D01*
X1015690Y939800D02*
X1028700D01*
X1015690Y942340D02*
X1028700D01*
X1015690Y937260D02*
X1028700D01*
X936852Y932180D02*
X1028700D01*
X1015690Y934720D02*
X1028700D01*
X902316Y929640D02*
X1028700D01*
X942100Y952500D02*
X1000760D01*
X998220D02*
Y958216D01*
X1015690Y932816D02*
Y942475D01*
X940132Y955040D02*
X1000760D01*
X936852Y957580D02*
X1000760D01*
X942100Y952500D02*
X1000760D01*
X1001070Y932816D02*
X1015690D01*
X942100Y937260D02*
X1001070D01*
Y932816D02*
Y937260D01*
X942100D02*
X1001070D01*
X940132Y934720D02*
X1001070D01*
X1013460Y924560D02*
Y932816D01*
X1010920Y924560D02*
Y932816D01*
X1016000Y924560D02*
Y958216D01*
X904856Y927100D02*
X1028700D01*
X1005840Y924560D02*
Y932816D01*
X1008380Y924560D02*
Y932816D01*
X1013460Y887095D02*
Y899160D01*
X1010920Y887095D02*
Y899160D01*
X1016000Y887095D02*
Y899160D01*
X907396Y924560D02*
X1028084D01*
X907396D02*
X1028084D01*
X1008380Y887095D02*
Y899160D01*
X1003300Y924560D02*
Y932816D01*
X1000760Y924560D02*
Y937260D01*
X1005840Y887095D02*
Y899160D01*
X995680Y924560D02*
Y937260D01*
X993140Y924560D02*
Y937260D01*
X998220Y924560D02*
Y937260D01*
X1000760Y887095D02*
Y899160D01*
X998220Y887095D02*
Y899160D01*
X1003300Y887095D02*
Y899160D01*
X993140Y887095D02*
Y899160D01*
X995680Y887095D02*
Y899160D01*
X986028Y1003554D02*
X990600D01*
X986028D02*
Y1028954D01*
X990600Y1000760D02*
Y1003554D01*
X980440Y998582D02*
Y1033780D01*
X977900Y1001122D02*
Y1033780D01*
X982980Y996042D02*
Y1033780D01*
X978262Y1000760D02*
X990600D01*
Y1003554D01*
X980802Y998220D02*
X991036D01*
X972566Y1003300D02*
X990600D01*
X957580D02*
Y1043921D01*
X955040Y1003300D02*
Y1115118D01*
X960120Y1003300D02*
Y1040784D01*
X949960Y1003300D02*
Y1109110D01*
X947420Y1003300D02*
Y1106570D01*
X952500Y1003300D02*
Y1111650D01*
X972820Y1003296D02*
Y1033780D01*
X970280Y1003300D02*
Y1033780D01*
X975360Y1002769D02*
Y1033780D01*
X965200Y1003300D02*
Y1035720D01*
X962660Y1003300D02*
Y1038244D01*
X967740Y1003300D02*
Y1034216D01*
X990600Y988422D02*
Y1000760D01*
X983342Y995680D02*
X992540D01*
X985520Y993502D02*
Y1033780D01*
X988060Y990962D02*
Y1003554D01*
X985520Y952500D02*
Y971950D01*
X982980Y952500D02*
Y974490D01*
X988060Y952500D02*
Y969410D01*
X969410Y988060D02*
X990910Y966560D01*
X977900Y952500D02*
Y979570D01*
X980440Y952500D02*
Y977030D01*
X960120Y952500D02*
Y988060D01*
X957580Y952500D02*
Y988060D01*
X962660Y952500D02*
Y988060D01*
X952500Y952500D02*
Y988060D01*
X949960Y952500D02*
Y988060D01*
X955040Y952500D02*
Y988060D01*
X972820Y952500D02*
Y984650D01*
X970280Y952500D02*
Y987190D01*
X975360Y952500D02*
Y982110D01*
X965200Y952500D02*
Y988060D01*
X967740Y952500D02*
Y988060D01*
X942100Y1003300D02*
X972566D01*
X942340D02*
Y1094790D01*
X944880Y1003300D02*
Y1104030D01*
X942100Y1003300D02*
X972566D01*
X942100Y988060D02*
X969410D01*
X940132Y985520D02*
X971950D01*
X942100Y988060D02*
X969410D01*
X936852Y982980D02*
X974490D01*
X919480Y980772D02*
Y985188D01*
X912476Y1003300D02*
X917180D01*
X914400D02*
Y1097419D01*
X916940Y1003300D02*
Y1093013D01*
X909936Y1005840D02*
X919148D01*
X911860Y1003916D02*
Y1096410D01*
X902970Y1012806D02*
X912476Y1003300D01*
X909320Y988060D02*
X917180D01*
X912476Y1003300D02*
X917180D01*
X909320Y988060D02*
X917180D01*
X944880Y952500D02*
Y988060D01*
X942340Y977492D02*
Y988060D01*
X947420Y952500D02*
Y988060D01*
X940132Y980440D02*
X977030D01*
X939800Y980772D02*
Y985188D01*
X944245Y970280D02*
X987190D01*
X944022Y972820D02*
X984650D01*
X944022Y967740D02*
X989730D01*
X943333Y975360D02*
X982110D01*
X942100Y977900D02*
X979570D01*
X914400D02*
Y988060D01*
X911860Y977900D02*
Y988060D01*
X916940Y977900D02*
Y988060D01*
X906780Y977900D02*
Y988496D01*
X904240Y977900D02*
Y990000D01*
X909320Y977900D02*
Y988060D01*
X901700Y977900D02*
Y982472D01*
Y977900D02*
Y982472D01*
Y980440D02*
X919148D01*
X901700Y977900D02*
X917180D01*
X993140Y952500D02*
Y958216D01*
X990910D02*
Y966560D01*
X990600Y952500D02*
Y966870D01*
X942100Y962660D02*
X990910D01*
X943333Y965200D02*
X990910D01*
X940132Y960120D02*
X990910D01*
X985520Y924560D02*
Y937260D01*
X982980Y924560D02*
Y937260D01*
X990600Y924560D02*
Y937260D01*
X977900Y924560D02*
Y937260D01*
X975360Y924560D02*
Y937260D01*
X980440Y924560D02*
Y937260D01*
X970280Y924560D02*
Y937260D01*
X967740Y924560D02*
Y937260D01*
X972820Y924560D02*
Y937260D01*
X962660Y924560D02*
Y937260D01*
X942340Y952500D02*
Y963068D01*
X965200Y924560D02*
Y937260D01*
X952500Y924560D02*
Y937260D01*
X949960Y924560D02*
Y937260D01*
X960120Y924560D02*
Y937260D01*
X944880Y924560D02*
Y937260D01*
X942340Y924560D02*
Y937260D01*
X947420Y924560D02*
Y937260D01*
X990600Y887095D02*
Y899160D01*
X988060Y924560D02*
Y937260D01*
Y887095D02*
Y899160D01*
X982980Y887095D02*
Y899160D01*
X980440Y887095D02*
Y899160D01*
X985520Y887095D02*
Y899160D01*
X975360Y887095D02*
Y899160D01*
X972820Y887095D02*
Y899160D01*
X977900Y887095D02*
Y899160D01*
X967740Y887095D02*
Y899160D01*
X965200Y887095D02*
Y899160D01*
X970280Y887095D02*
Y899160D01*
X960120Y887095D02*
Y899160D01*
X957580Y924560D02*
Y937260D01*
X962660Y887095D02*
Y899160D01*
X957580Y887095D02*
Y899160D01*
X955040Y924560D02*
Y937260D01*
Y887095D02*
Y899160D01*
X949960Y887095D02*
Y899160D01*
X947420Y887095D02*
Y899160D01*
X952500Y887095D02*
Y899160D01*
X942340Y887095D02*
Y899160D01*
X944880Y887095D02*
Y899160D01*
X939800Y955372D02*
Y959788D01*
X919480Y955372D02*
Y959788D01*
X901700Y957580D02*
X922428D01*
X937260Y924560D02*
Y932420D01*
X934720Y924560D02*
Y931187D01*
X939800Y924560D02*
Y934388D01*
X901700Y932180D02*
X922428D01*
X922020Y924560D02*
Y932420D01*
X924560Y924560D02*
Y931187D01*
X916940Y952092D02*
Y962660D01*
X904240Y927716D02*
Y962660D01*
X906780Y925176D02*
Y962660D01*
X901700D02*
X917180D01*
X901700Y930256D02*
Y962660D01*
Y930256D02*
Y962660D01*
Y952500D02*
X917180D01*
X901700Y949960D02*
X915947D01*
X919480Y924560D02*
Y934388D01*
X901700Y960120D02*
X919148D01*
X901700Y955040D02*
X919148D01*
X934720Y887095D02*
Y899160D01*
X932180Y924560D02*
Y930498D01*
X939800Y887095D02*
Y899160D01*
X929640Y924560D02*
Y930275D01*
X927100Y924560D02*
Y930498D01*
X919480Y887095D02*
Y899160D01*
X932180Y887095D02*
Y899160D01*
X929640Y887095D02*
Y899160D01*
X937260Y887095D02*
Y899160D01*
X924560Y887095D02*
Y899160D01*
X922020Y887095D02*
Y899160D01*
X927100Y887095D02*
Y899160D01*
X916940Y924560D02*
Y937668D01*
X914400Y924560D02*
Y962660D01*
X916940Y887095D02*
Y899160D01*
X911860Y924560D02*
Y962660D01*
X909320Y924560D02*
Y962660D01*
X914400Y887095D02*
Y899160D01*
X909320Y887095D02*
Y899160D01*
X906780Y887095D02*
Y899160D01*
X911860Y887095D02*
Y899160D01*
X901700Y887095D02*
Y899160D01*
X904240Y887095D02*
Y899160D01*
X899812Y1176020D02*
X905910D01*
X891540Y1174694D02*
Y1176020D01*
X889000Y1173130D02*
Y1176020D01*
X880726D02*
X895968D01*
X880726D02*
X895968D01*
X881380Y1173130D02*
Y1176020D01*
X899812D02*
X905910D01*
X886460Y1170634D02*
Y1176020D01*
X883920Y1170634D02*
Y1176020D01*
X880904Y1173480D02*
X889476D01*
X880110Y1175404D02*
X880726Y1176020D01*
X883670Y1170940D02*
X886710D01*
X867105Y1183951D02*
X871874Y1188720D01*
X868680Y1185526D02*
Y1188720D01*
X866140Y1182772D02*
Y1188720D01*
X863600Y1173130D02*
Y1188720D01*
X880110Y1174002D02*
Y1175404D01*
X864870Y1174002D02*
Y1178560D01*
X861695Y1171379D02*
Y1176147D01*
Y1176020D02*
X864870D01*
X861695Y1173480D02*
X864076D01*
X886460Y1144270D02*
Y1152450D01*
X884450Y1153160D02*
X885930D01*
X890270Y1147426D02*
Y1149082D01*
X889000Y1146156D02*
Y1149954D01*
X887114Y1144270D02*
X890270Y1147426D01*
X878154Y1148080D02*
X890270D01*
X882186Y1150620D02*
X888194D01*
X870204Y1144270D02*
X887114D01*
X881380D02*
Y1149954D01*
X878840Y1144270D02*
Y1148390D01*
X883920Y1144270D02*
Y1152450D01*
X866140Y1144270D02*
Y1148390D01*
X861695Y1146937D02*
Y1151705D01*
X863600Y1144116D02*
Y1149954D01*
X873760Y1144270D02*
Y1146992D01*
X871220Y1144270D02*
Y1146992D01*
X876300Y1144270D02*
Y1147443D01*
X865124Y1144270D02*
X870204D01*
X868680D02*
Y1147443D01*
X858520Y1176147D02*
Y1188720D01*
X855980Y1176147D02*
Y1188720D01*
X861060Y1176147D02*
Y1188720D01*
X835006D02*
X871874D01*
X835006D02*
X871874D01*
X832466Y1186180D02*
X869334D01*
X861695Y1150620D02*
X862794D01*
X832485Y1176147D02*
X861695D01*
Y1148080D02*
X866826D01*
X829926Y1183640D02*
X866810D01*
X827386Y1181100D02*
X865306D01*
X824846Y1178560D02*
X864870D01*
X850900Y1176147D02*
Y1188720D01*
X848360Y1176147D02*
Y1188720D01*
X853440Y1176147D02*
Y1188720D01*
X843280Y1176147D02*
Y1188720D01*
X840740Y1176147D02*
Y1188720D01*
X845820Y1176147D02*
Y1188720D01*
X835660Y1176147D02*
Y1188720D01*
X833120Y1176147D02*
Y1186834D01*
X838200Y1176147D02*
Y1188720D01*
X806450Y1160164D02*
X835006Y1188720D01*
X861060Y1143096D02*
Y1146937D01*
X858520Y1140822D02*
Y1146937D01*
X836930Y1145540D02*
X888384D01*
X836930Y1146937D02*
X861695D01*
X855980Y1138282D02*
Y1146937D01*
X849522Y1131824D02*
X859733Y1142035D01*
X836930Y1143000D02*
X860912D01*
X836930Y1140460D02*
X858158D01*
X836930Y1137920D02*
X855618D01*
X853440Y1135742D02*
Y1146937D01*
X850900Y1133202D02*
Y1146937D01*
X848360Y1131824D02*
Y1146937D01*
X845820Y1131824D02*
Y1146937D01*
X840740Y1129995D02*
Y1146937D01*
X838200Y1125589D02*
Y1146937D01*
X843280Y1131432D02*
Y1146937D01*
X836930Y1106170D02*
Y1146937D01*
Y1135380D02*
X853078D01*
X836930Y1132840D02*
X850538D01*
X889000Y1127868D02*
Y1129030D01*
X886460Y1125328D02*
Y1129030D01*
X891032Y1108348D02*
X914254Y1131570D01*
X877824Y1129030D02*
X890162D01*
X877824Y1127760D02*
X888892D01*
X878027Y1116895D02*
X890162Y1129030D01*
X900284Y1117600D02*
X911498D01*
X897744Y1115060D02*
X908958D01*
X901700Y1107802D02*
Y1119016D01*
X895204Y1112520D02*
X906418D01*
X892664Y1109980D02*
X903878D01*
X891032Y1107440D02*
X901338D01*
X883920Y1122788D02*
Y1129030D01*
X881380Y1120248D02*
Y1129030D01*
X878840Y1117708D02*
Y1129030D01*
X877824Y1125220D02*
X886352D01*
X845693Y1131824D02*
X849522D01*
X877824Y1116685D02*
Y1129030D01*
Y1122680D02*
X883812D01*
X877824Y1120140D02*
X881272D01*
X877824Y1117600D02*
X878732D01*
X852678Y1116584D02*
X859663D01*
X845693D02*
X852678D01*
X899160Y1105262D02*
Y1116476D01*
X896620Y1102722D02*
Y1113936D01*
X894080Y1100182D02*
Y1111396D01*
X891540Y1097642D02*
Y1108856D01*
X862584Y1105842D02*
Y1117166D01*
X891032Y1097134D02*
X914954Y1121056D01*
X891032Y1104900D02*
X898798D01*
X891032Y1102360D02*
X896258D01*
X891032Y1097134D02*
Y1108348D01*
Y1099820D02*
X893718D01*
X858520Y1106424D02*
Y1116584D01*
X855980Y1106424D02*
Y1116584D01*
X861060Y1106295D02*
Y1116713D01*
X848360Y1106424D02*
Y1116584D01*
X845820Y1106424D02*
Y1116584D01*
X853440Y1106424D02*
Y1116584D01*
X854121Y1091184D02*
X859663D01*
X850900Y1106424D02*
Y1116584D01*
X845693Y1106424D02*
X859663D01*
X836930Y1112520D02*
X862584D01*
X836930Y1115060D02*
X862584D01*
X836930Y1109980D02*
X862584D01*
X811276Y1089660D02*
X862584D01*
X836930Y1107440D02*
X862584D01*
X811276Y1087120D02*
X862584D01*
X664845Y1074420D02*
X862584D01*
X664845Y1076960D02*
X862584D01*
X664845Y1071880D02*
X862584D01*
X664845Y1082040D02*
X862584D01*
X664845Y1084580D02*
X862584D01*
X664845Y1079500D02*
X862584D01*
X836930Y1130300D02*
X841121D01*
X836930Y1127760D02*
X838954D01*
X838200Y1106170D02*
Y1122819D01*
X836930Y1122680D02*
X838227D01*
X836930Y1125220D02*
X838141D01*
X836930Y1120140D02*
X839247D01*
X836930Y1117600D02*
X841891D01*
X840740Y1106170D02*
Y1118413D01*
X843280Y1106170D02*
Y1116976D01*
X836930Y1106170D02*
X843742D01*
X829310Y1090930D02*
X852170D01*
X787732Y1031240D02*
X862584D01*
X784452Y1033780D02*
X862584D01*
X789700Y1028700D02*
X862584D01*
X664845Y1038860D02*
X862584D01*
X664845Y1041400D02*
X862584D01*
X664845Y1036320D02*
X862584D01*
X791845Y1021080D02*
X862584D01*
X791622Y1023620D02*
X862584D01*
X791622Y1018540D02*
X862584D01*
X790933Y1016000D02*
X862584D01*
X790933Y1026160D02*
X862584D01*
X789700Y1013460D02*
X862584D01*
X664845Y1059180D02*
X862584D01*
X664845Y1061720D02*
X862584D01*
X664845Y1056640D02*
X862584D01*
X664845Y1066800D02*
X862584D01*
X664845Y1069340D02*
X862584D01*
X664845Y1064260D02*
X862584D01*
X664845Y1046480D02*
X862584D01*
X664845Y1049020D02*
X862584D01*
X664845Y1043940D02*
X862584D01*
X664845Y1054100D02*
X862584D01*
X664845Y1051560D02*
X862584D01*
X830580Y1166476D02*
Y1184294D01*
X825500Y1200766D02*
Y1202055D01*
X828040Y1163936D02*
Y1181754D01*
X822960Y1198226D02*
Y1202055D01*
X820420Y1195686D02*
Y1202055D01*
X793445Y1168711D02*
X826459Y1201725D01*
X832485Y1168066D02*
Y1176147D01*
X822306Y1176020D02*
X832485D01*
X817226Y1170940D02*
X832485D01*
X819766Y1173480D02*
X832485D01*
X814686Y1168400D02*
X832485D01*
X817880Y1193146D02*
Y1202055D01*
X815340Y1190606D02*
Y1202055D01*
X812800Y1188066D02*
Y1202055D01*
X810260Y1185526D02*
Y1202055D01*
X807720Y1182986D02*
Y1202055D01*
X805180Y1180446D02*
Y1202055D01*
X802640Y1177906D02*
Y1202055D01*
X800100Y1175366D02*
Y1202055D01*
X797560Y1172826D02*
Y1202055D01*
X795020Y1170286D02*
Y1202055D01*
X792480Y1167532D02*
Y1202055D01*
X789940Y1136650D02*
Y1202055D01*
X787400Y1136650D02*
Y1202055D01*
X784860Y1033540D02*
Y1202055D01*
X779780Y1035462D02*
Y1202055D01*
X777240Y1035685D02*
Y1202055D01*
X782320Y1034773D02*
Y1202055D01*
X825500Y1161396D02*
Y1179214D01*
X822960Y1158642D02*
Y1176674D01*
X820420Y1106170D02*
Y1174134D01*
X815340Y1106170D02*
Y1169054D01*
X817880Y1106170D02*
Y1171594D01*
X759460Y1032510D02*
Y1202055D01*
X756920Y1032510D02*
Y1202055D01*
X762000Y1032510D02*
Y1202055D01*
X751840Y1032510D02*
Y1202055D01*
X749300Y1032510D02*
Y1202055D01*
X754380Y1032510D02*
Y1202055D01*
X774700Y1035462D02*
Y1202055D01*
X772160Y1034773D02*
Y1202055D01*
X769620Y1033540D02*
Y1202055D01*
X764540Y1032510D02*
Y1202055D01*
X767080Y1032510D02*
Y1202055D01*
X687641D02*
X826810D01*
X687006Y1201420D02*
X826154D01*
X684466Y1198880D02*
X823614D01*
X681926Y1196340D02*
X821074D01*
X679386Y1193800D02*
X818534D01*
X676846Y1191260D02*
X815994D01*
X674306Y1188720D02*
X813454D01*
X671766Y1186180D02*
X810914D01*
X669226Y1183640D02*
X808374D01*
X666686Y1181100D02*
X805834D01*
X664845Y1178560D02*
X803294D01*
X664845Y1176020D02*
X800754D01*
X695960Y1035685D02*
Y1202055D01*
X693420Y1035685D02*
Y1202055D01*
X698500Y1035685D02*
Y1202055D01*
X688340Y1035685D02*
Y1202055D01*
X664845Y1179259D02*
X687641Y1202055D01*
X690880Y1035685D02*
Y1202055D01*
X664845Y1173480D02*
X798214D01*
X675640Y1035685D02*
Y1190054D01*
X678180Y1035685D02*
Y1192594D01*
X664845Y1170940D02*
X795674D01*
X664845Y1168400D02*
X793150D01*
X728980Y1032510D02*
Y1202055D01*
X726440Y1032510D02*
Y1202055D01*
X731520Y1032510D02*
Y1202055D01*
X721360Y1032510D02*
Y1202055D01*
X718820Y1032510D02*
Y1202055D01*
X723900Y1032510D02*
Y1202055D01*
X744220Y1032510D02*
Y1202055D01*
X741680Y1032510D02*
Y1202055D01*
X746760Y1032510D02*
Y1202055D01*
X736600Y1032510D02*
Y1202055D01*
X734060Y1032510D02*
Y1202055D01*
X739140Y1032510D02*
Y1202055D01*
X713740Y1032510D02*
Y1202055D01*
X711200Y1032510D02*
Y1202055D01*
X716280Y1032510D02*
Y1202055D01*
X706120Y1032510D02*
Y1202055D01*
X703580Y1032510D02*
Y1202055D01*
X708660Y1032510D02*
Y1202055D01*
X685800Y1035685D02*
Y1200214D01*
X683260Y1035685D02*
Y1197674D01*
X701040Y1032510D02*
Y1202055D01*
X673100Y1035685D02*
Y1187514D01*
X680720Y1035685D02*
Y1195134D01*
X823925Y1159821D02*
X831031Y1166927D01*
X812146Y1165860D02*
X829964D01*
X809606Y1163320D02*
X827424D01*
X807066Y1160780D02*
X824884D01*
X806450Y1148080D02*
X821690D01*
X806450Y1150620D02*
X821690D01*
X806450Y1145540D02*
X821690D01*
X806450Y1158240D02*
X822711D01*
X806450Y1155700D02*
X821797D01*
X806450Y1153160D02*
X821690D01*
X806450Y1140460D02*
X821690D01*
X807720Y1136650D02*
Y1161434D01*
X810260Y1136650D02*
Y1163974D01*
X806450Y1143000D02*
X821690D01*
X806450Y1136650D02*
Y1160164D01*
X791210Y1136650D02*
Y1163320D01*
X811276Y1132840D02*
X821690D01*
X811276Y1135380D02*
X821690D01*
X811276Y1130300D02*
X821690D01*
X806450Y1137920D02*
X821690D01*
X806450Y1136650D02*
X811276D01*
X785876D02*
X791210D01*
X811276Y1125220D02*
X821690D01*
X811276Y1127760D02*
X821690D01*
Y1106170D02*
Y1154430D01*
X811276Y1120140D02*
X821690D01*
X811276Y1122680D02*
X821690D01*
X811276Y1117600D02*
X821690D01*
X811276Y1106170D02*
X821690D01*
X811276Y1107440D02*
X821690D01*
X811276Y1090930D02*
X829310D01*
X811276Y1112520D02*
X821690D01*
X811276Y1115060D02*
X821690D01*
X811276Y1109980D02*
X821690D01*
X812800Y1106170D02*
Y1166514D01*
X811276Y1111250D02*
Y1136650D01*
Y1106170D02*
Y1111250D01*
X785876D02*
X811276D01*
X785876D02*
Y1136650D01*
Y1085850D02*
Y1111250D01*
X811276Y1085850D02*
Y1090930D01*
X787400Y1031572D02*
Y1085850D01*
X789940Y1028292D02*
Y1085850D01*
X785876Y1111250D02*
X811276D01*
X785876Y1085850D02*
X811276D01*
X664845Y1155700D02*
X791210D01*
X664845Y1158240D02*
X791210D01*
X664845Y1153160D02*
X791210D01*
X664845Y1165860D02*
X791646D01*
X664845Y1163320D02*
X791210D01*
X664845Y1160780D02*
X791210D01*
X664845Y1140460D02*
X791210D01*
X664845Y1143000D02*
X791210D01*
X664845Y1137920D02*
X791210D01*
X664845Y1148080D02*
X791210D01*
X664845Y1150620D02*
X791210D01*
X664845Y1145540D02*
X791210D01*
X664845Y1125220D02*
X785876D01*
X664845Y1127760D02*
X785876D01*
X664845Y1122680D02*
X785876D01*
X664845Y1132840D02*
X785876D01*
X664845Y1135380D02*
X785876D01*
X664845Y1130300D02*
X785876D01*
X664845Y1112520D02*
X785876D01*
X664845Y1115060D02*
X785876D01*
X664845Y1109980D02*
X785876D01*
X664845Y1120140D02*
X785876D01*
X664845Y1117600D02*
X785876D01*
X664845Y1097280D02*
X785876D01*
X664845Y1099820D02*
X785876D01*
X664845Y1094740D02*
X785876D01*
X664845Y1104900D02*
X785876D01*
X664845Y1107440D02*
X785876D01*
X664845Y1102360D02*
X785876D01*
X700405Y1033780D02*
X770028D01*
X700405Y1032510D02*
X768148D01*
X664845Y1089660D02*
X785876D01*
X664845Y1092200D02*
X785876D01*
X664845Y1087120D02*
X785876D01*
X671195Y1035685D02*
X700405D01*
X664845Y1033780D02*
X671195D01*
X700405Y1032510D02*
Y1035685D01*
X664845Y1028700D02*
X671195D01*
X664845Y1031240D02*
X671195D01*
X664845Y1026160D02*
X671195D01*
X664845Y1016000D02*
X671195D01*
X664845Y1018540D02*
X671195D01*
X664845Y1013460D02*
X671195D01*
X664845Y1023620D02*
X671195D01*
X664845Y1021080D02*
X671195D01*
X896728Y990600D02*
X903624D01*
X899160Y988168D02*
Y995064D01*
X901700Y982472D02*
Y992524D01*
X891032Y1003192D02*
X903929Y990295D01*
X894188Y993140D02*
X901084D01*
X891032Y996296D02*
X899465Y987863D01*
X901683Y982980D02*
X922428D01*
X901064Y985520D02*
X919148D01*
X901700Y977900D02*
X917180D01*
X899268Y988060D02*
X909320D01*
X894080Y993248D02*
Y1000144D01*
X891540Y995788D02*
Y1002684D01*
X896620Y990708D02*
Y997604D01*
X891032Y998220D02*
X896004D01*
X891032Y1000760D02*
X893464D01*
X891032Y996296D02*
Y1003192D01*
X891648Y995680D02*
X898544D01*
X877824Y985520D02*
X880256D01*
X878027Y987749D02*
X886460Y979316D01*
X877824Y980440D02*
X885336D01*
X877824Y982980D02*
X882796D01*
X877824Y977900D02*
X886460D01*
X878840Y938748D02*
Y986936D01*
X877824Y939764D02*
Y987959D01*
X862584Y936608D02*
Y1091766D01*
X858520Y887095D02*
Y1091184D01*
X855980Y887095D02*
Y1091184D01*
X861060Y887095D02*
Y1091313D01*
X886460Y969772D02*
Y979316D01*
X883920Y933668D02*
Y981856D01*
X886460Y931128D02*
Y979316D01*
X877824Y972820D02*
X886460D01*
X877824Y975360D02*
X886460D01*
X881380Y936208D02*
Y984396D01*
X850900Y887095D02*
Y1090930D01*
X848360Y887095D02*
Y1090930D01*
X853440Y887095D02*
Y1091037D01*
X843280Y887095D02*
Y1090930D01*
X840740Y887095D02*
Y1090930D01*
X845820Y887095D02*
Y1090930D01*
X835660Y887095D02*
Y1090930D01*
X833120Y887095D02*
Y1090930D01*
X838200Y887095D02*
Y1090930D01*
X828040Y887095D02*
Y1090930D01*
X830580Y887095D02*
Y1090930D01*
X790933Y1000760D02*
X862584D01*
X789700Y1003300D02*
X862584D01*
X791622Y998220D02*
X862584D01*
X784452Y1008380D02*
X862584D01*
X787732Y1010920D02*
X862584D01*
X787732Y1005840D02*
X862584D01*
X791622Y993140D02*
X862584D01*
X791845Y995680D02*
X862584D01*
X790933Y990600D02*
X862584D01*
X787732Y985520D02*
X862584D01*
X789700Y988060D02*
X862584D01*
X784452Y982980D02*
X862584D01*
X787400Y1006172D02*
Y1010588D01*
X789940Y1002892D02*
Y1013868D01*
X700405Y1008380D02*
X770028D01*
X693012Y982980D02*
X770028D01*
X822960Y887095D02*
Y1090930D01*
X820420Y887095D02*
Y1090930D01*
X825500Y887095D02*
Y1090930D01*
X815340Y887095D02*
Y1090930D01*
X812800Y887095D02*
Y1090930D01*
X817880Y887095D02*
Y1090930D01*
X791845Y970280D02*
X862584D01*
X791622Y972820D02*
X862584D01*
X810260Y887095D02*
Y1085850D01*
X789700Y977900D02*
X862584D01*
X787732Y980440D02*
X862584D01*
X790933Y975360D02*
X862584D01*
X805180Y887095D02*
Y1085850D01*
X802640Y887095D02*
Y1085850D01*
X807720Y887095D02*
Y1085850D01*
X797560Y887095D02*
Y1085850D01*
X795020Y887095D02*
Y1085850D01*
X800100Y887095D02*
Y1085850D01*
X789940Y977492D02*
Y988468D01*
X787400Y980772D02*
Y985188D01*
X792480Y887095D02*
Y1085850D01*
X877824Y967740D02*
X886460D01*
X877824Y970280D02*
X886460D01*
X901700Y962660D02*
X917180D01*
X877824Y955040D02*
X886460D01*
X877824Y957580D02*
X886460D01*
X877824Y952500D02*
X886460D01*
X901700Y937260D02*
X917180D01*
X901700Y939800D02*
X915947D01*
X901700Y934720D02*
X919148D01*
X901700Y947420D02*
X915258D01*
X901700Y944880D02*
X915035D01*
X901700Y942340D02*
X915258D01*
X877824Y947420D02*
X886460D01*
X877824Y949960D02*
X886460D01*
X877824Y944880D02*
X886460D01*
X877824Y962660D02*
X886460D01*
X877824Y965200D02*
X886460D01*
X877824Y960120D02*
X886460D01*
X882868Y934720D02*
X886460D01*
X880328Y937260D02*
X886460D01*
X885408Y932180D02*
X886460D01*
X877824Y939800D02*
X886460D01*
X877824Y942340D02*
X886460D01*
X901700Y930256D02*
X907396Y924560D01*
X894080Y887095D02*
Y901955D01*
X891540Y887095D02*
Y904495D01*
X864819Y931216D02*
X894640Y901395D01*
X886460Y931128D02*
Y969772D01*
X889000Y887095D02*
Y907035D01*
X900032Y899160D02*
X1035448D01*
X900032D02*
X1035448D01*
X899160Y887095D02*
Y899210D01*
X896620Y887095D02*
Y899966D01*
X877824Y939764D02*
X886460Y931128D01*
X873760Y887095D02*
Y922275D01*
X871220Y887095D02*
Y924815D01*
X866140Y887095D02*
Y929895D01*
X863600Y887095D02*
Y932806D01*
X868680Y887095D02*
Y927355D01*
X883920Y887095D02*
Y912115D01*
X881380Y887095D02*
Y914655D01*
X886460Y887095D02*
Y909575D01*
X876300Y887095D02*
Y919735D01*
X878840Y887095D02*
Y917195D01*
X791845Y955040D02*
X862584D01*
X791845Y957580D02*
X862584D01*
X791845Y952500D02*
X862584D01*
X790933Y965200D02*
X862584D01*
X791622Y967740D02*
X862584D01*
X787732Y960120D02*
X862584D01*
X791845Y932180D02*
X864002D01*
X791845Y934720D02*
X862822D01*
X664845Y927100D02*
X868935D01*
X664845Y929640D02*
X866395D01*
X664845Y924560D02*
X871475D01*
X791845Y947420D02*
X862584D01*
X791845Y949960D02*
X862584D01*
X791845Y930275D02*
Y959485D01*
X789700Y962660D02*
X862584D01*
X789940Y959485D02*
Y963068D01*
X787077Y959485D02*
X791845D01*
Y942340D02*
X862584D01*
X791845Y944880D02*
X862584D01*
X791845Y939800D02*
X862584D01*
X791845Y937260D02*
X862584D01*
X762635Y930275D02*
X791845D01*
X664845Y904240D02*
X891795D01*
X664845Y906780D02*
X889255D01*
X666686Y901700D02*
X894335D01*
X664845Y911860D02*
X884175D01*
X664845Y914400D02*
X881635D01*
X664845Y909320D02*
X886715D01*
X676846Y891540D02*
X1050354D01*
X679386Y889000D02*
X1047814D01*
X681291Y887095D02*
X1045909D01*
X671766Y896620D02*
X1055434D01*
X669226Y899160D02*
X900032D01*
X674306Y894080D02*
X1052894D01*
X782320Y887095D02*
Y930275D01*
X779780Y887095D02*
Y930275D01*
X784860Y887095D02*
Y930275D01*
X774700Y887095D02*
Y930275D01*
X772160Y887095D02*
Y930275D01*
X777240Y887095D02*
Y930275D01*
X664845Y922020D02*
X874015D01*
X787400Y887095D02*
Y930275D01*
X789940Y887095D02*
Y930275D01*
X664845Y919480D02*
X876555D01*
X664845Y916940D02*
X879095D01*
X749300Y1007110D02*
Y1009650D01*
X746760Y1007110D02*
Y1009650D01*
X751840Y1007110D02*
Y1009650D01*
X741680Y1007110D02*
Y1009650D01*
X739140Y1007110D02*
Y1009650D01*
X744220Y1007110D02*
Y1009650D01*
X764540Y1007110D02*
Y1009650D01*
X762000Y1007110D02*
Y1009650D01*
X767080Y1007110D02*
Y1009650D01*
X756920Y1007110D02*
Y1009650D01*
X754380Y1007110D02*
Y1009650D01*
X759460Y1007110D02*
Y1009650D01*
X718820Y1007110D02*
Y1009650D01*
X716280Y1007110D02*
Y1009650D01*
X721360Y1007110D02*
Y1009650D01*
X711200Y1007110D02*
Y1009650D01*
X708660Y1007110D02*
Y1009650D01*
X713740Y1007110D02*
Y1009650D01*
X734060Y1007110D02*
Y1009650D01*
X731520Y1007110D02*
Y1009650D01*
X736600Y1007110D02*
Y1009650D01*
X726440Y1007110D02*
Y1009650D01*
X723900Y1007110D02*
Y1009650D01*
X728980Y1007110D02*
Y1009650D01*
X749300Y981710D02*
Y984250D01*
X746760Y981710D02*
Y984250D01*
X751840Y981710D02*
Y984250D01*
X741680Y981710D02*
Y984250D01*
X739140Y981710D02*
Y984250D01*
X744220Y981710D02*
Y984250D01*
X764540Y981710D02*
Y984250D01*
X762000Y981710D02*
Y984250D01*
X767080Y981710D02*
Y984250D01*
X756920Y981710D02*
Y984250D01*
X754380Y981710D02*
Y984250D01*
X759460Y981710D02*
Y984250D01*
X721360Y981710D02*
Y984250D01*
X718820Y981710D02*
Y984250D01*
X723900Y981710D02*
Y984250D01*
X713740Y981710D02*
Y984250D01*
X711200Y981710D02*
Y984250D01*
X716280Y981710D02*
Y984250D01*
X734060Y981710D02*
Y984250D01*
X731520Y981710D02*
Y984250D01*
X736600Y981710D02*
Y984250D01*
X726440Y981710D02*
Y984250D01*
X728980Y981710D02*
Y984250D01*
X703580Y1007110D02*
Y1009650D01*
X701040Y1007110D02*
Y1009650D01*
X706120Y1007110D02*
Y1009650D01*
X700405D02*
X768148D01*
X700405Y1007110D02*
Y1009650D01*
Y1007110D02*
X768148D01*
X694892Y984250D02*
X768148D01*
X671195Y1006475D02*
X675963D01*
X664845Y1005840D02*
X675308D01*
X664845Y985520D02*
X675308D01*
X671195Y1006475D02*
Y1035685D01*
X664845Y1010920D02*
X671195D01*
X673100Y1002892D02*
Y1006475D01*
X664845Y1003300D02*
X673340D01*
X664845Y1008380D02*
X671195D01*
X664845Y1000760D02*
X672107D01*
X664845Y990600D02*
X672107D01*
X664845Y993140D02*
X671418D01*
X664845Y988060D02*
X673340D01*
X664845Y998220D02*
X671418D01*
X664845Y995680D02*
X671195D01*
X706120Y981710D02*
Y984250D01*
X703580Y981710D02*
Y984250D01*
X708660Y981710D02*
Y984250D01*
X701040Y981710D02*
Y984250D01*
X698500Y981710D02*
Y984250D01*
X675640Y980772D02*
Y985188D01*
X694892Y981710D02*
X768148D01*
X695960D02*
Y984250D01*
X664845Y982980D02*
X678588D01*
X664845Y980440D02*
X675308D01*
X673100Y977492D02*
Y988468D01*
X668020Y900366D02*
Y1182434D01*
X670560Y897826D02*
Y1184974D01*
X664845Y977900D02*
X673340D01*
X664845Y903541D02*
Y1179259D01*
X665480Y902906D02*
Y1179894D01*
X664845Y967740D02*
X671418D01*
X664845Y970280D02*
X671195D01*
X664845Y965200D02*
X672107D01*
X664845Y975360D02*
X672107D01*
X664845Y972820D02*
X671418D01*
X762000Y956310D02*
Y958850D01*
X759460Y956310D02*
Y958850D01*
X762635Y956310D02*
Y958850D01*
X754380Y956310D02*
Y958850D01*
X751840Y956310D02*
Y958850D01*
X756920Y956310D02*
Y958850D01*
X749300Y956310D02*
Y958850D01*
X746760Y956310D02*
Y958850D01*
X762635Y930275D02*
Y933450D01*
X741680Y956310D02*
Y958850D01*
X739140Y956310D02*
Y958850D01*
X744220Y956310D02*
Y958850D01*
X721360Y956310D02*
Y958850D01*
X718820Y956310D02*
Y958850D01*
X723900Y956310D02*
Y958850D01*
X713740Y956310D02*
Y958850D01*
X711200Y956310D02*
Y958850D01*
X716280Y956310D02*
Y958850D01*
X734060Y956310D02*
Y958850D01*
X731520Y956310D02*
Y958850D01*
X736600Y956310D02*
Y958850D01*
X726440Y956310D02*
Y958850D01*
X728980Y956310D02*
Y958850D01*
X751840Y887095D02*
Y933450D01*
X749300Y887095D02*
Y933450D01*
X754380Y887095D02*
Y933450D01*
X744220Y887095D02*
Y933450D01*
X741680Y887095D02*
Y933450D01*
X746760Y887095D02*
Y933450D01*
X767080Y887095D02*
Y930275D01*
X764540Y887095D02*
Y930275D01*
X769620Y887095D02*
Y930275D01*
X759460Y887095D02*
Y933450D01*
X756920Y887095D02*
Y933450D01*
X762000Y887095D02*
Y933450D01*
X723900Y887095D02*
Y933450D01*
X721360Y887095D02*
Y933450D01*
X726440Y887095D02*
Y933450D01*
X716280Y887095D02*
Y933450D01*
X713740Y887095D02*
Y933450D01*
X718820Y887095D02*
Y933450D01*
X736600Y887095D02*
Y933450D01*
X734060Y887095D02*
Y933450D01*
X739140Y887095D02*
Y933450D01*
X728980Y887095D02*
Y933450D01*
X731520Y887095D02*
Y933450D01*
X706120Y956310D02*
Y958850D01*
X703580Y956310D02*
Y958850D01*
X708660Y956310D02*
Y958850D01*
X694892D02*
X762635D01*
X701040Y956310D02*
Y958850D01*
X694892Y956310D02*
X762635D01*
X695960D02*
Y958850D01*
X698500Y956310D02*
Y958850D01*
X693012Y957580D02*
X762635D01*
X664845D02*
X678588D01*
X675640Y955372D02*
Y959788D01*
X664845Y962660D02*
X673340D01*
X673100Y952092D02*
Y963068D01*
X664845Y955040D02*
X675308D01*
X664845Y960120D02*
X675308D01*
X664845Y952500D02*
X673340D01*
X664845Y942340D02*
X671418D01*
X664845Y944880D02*
X671195D01*
X664845Y939800D02*
X672107D01*
X664845Y949960D02*
X672107D01*
X664845Y947420D02*
X671418D01*
X708660Y887095D02*
Y933450D01*
X706120Y887095D02*
Y933450D01*
X711200Y887095D02*
Y933450D01*
X694892D02*
X762635D01*
X703580Y887095D02*
Y933450D01*
X698500Y887095D02*
Y933450D01*
X695960Y887095D02*
Y933450D01*
X701040Y887095D02*
Y933450D01*
X693012Y932180D02*
X762635D01*
X693420Y887095D02*
Y932420D01*
X690880Y887095D02*
Y931187D01*
X675640Y892746D02*
Y934388D01*
X673100Y895286D02*
Y937668D01*
X678180Y890206D02*
Y932420D01*
X664845Y934720D02*
X675308D01*
X664845Y937260D02*
X673340D01*
X664845Y932180D02*
X678588D01*
X685800Y887095D02*
Y930275D01*
X683260Y887095D02*
Y930498D01*
X688340Y887095D02*
Y930498D01*
X680720Y887666D02*
Y931187D01*
X664845Y903541D02*
X681291Y887095D01*
D11*
X1027938Y1041654D02*
D03*
Y1016254D02*
D03*
X998728Y1041654D02*
D03*
Y1016254D02*
D03*
X798576Y1098550D02*
D03*
Y1123950D02*
D03*
D12*
X928878Y1098804D02*
D03*
Y1124204D02*
D03*
X852678Y1098804D02*
D03*
Y1124204D02*
D03*
D13*
X1018540Y970026D02*
D03*
X1008380Y944626D02*
D03*
X998220Y970026D02*
D03*
D14*
X894080Y969772D02*
X894588Y970280D01*
X929640D01*
X1018540D02*
X1036320D01*
X894080Y927100D02*
Y982472D01*
X883412Y993140D02*
X894080Y982472D01*
X883412Y993140D02*
Y1111504D01*
X911098Y1139190D01*
X935228D01*
X940054Y1134364D01*
X940071D02*
X947928Y1126507D01*
Y1117854D02*
Y1126507D01*
X940054Y1134364D02*
X940071D01*
X928878Y1098804D02*
X947928Y1117854D01*
X909066Y1183640D02*
X964438Y1128268D01*
Y1047242D02*
Y1128268D01*
Y1047242D02*
X970280Y1041400D01*
X877570Y1183640D02*
X909066D01*
X913384Y1196340D02*
X981964Y1127760D01*
X831850Y1196340D02*
X913384D01*
X870204Y936608D02*
Y1136650D01*
Y936608D02*
X900032Y906780D01*
X1027176Y1041654D02*
X1027430Y1041400D01*
X998728Y1041654D02*
X1027176D01*
X865124Y1136650D02*
X890270D01*
X981964Y1102360D02*
X1037590D01*
X981710D02*
X981964D01*
X1037590D02*
X1046480Y1093470D01*
Y917812D02*
Y1093470D01*
X1035448Y906780D02*
X1046480Y917812D01*
X900032Y906780D02*
X1035448D01*
X970280Y1041400D02*
X998220D01*
X872490Y1178560D02*
X877570Y1183640D01*
X872490Y1161542D02*
Y1178560D01*
X798830Y1163320D02*
X831850Y1196340D01*
X798830Y1123950D02*
Y1163320D01*
X909320Y995680D02*
X929640D01*
X895350Y1009650D02*
X909320Y995680D01*
X895350Y1009650D02*
Y1090676D01*
X928878Y1124204D01*
X897890Y1161542D02*
Y1162050D01*
Y1144270D02*
Y1161542D01*
X890270Y1136650D02*
X897890Y1144270D01*
X852678Y1124204D02*
X865124Y1136650D01*
X829310Y1098550D02*
Y1154430D01*
Y1098550D02*
X852170D01*
X798576D02*
X829310D01*
Y1154430D02*
X836422Y1161542D01*
X847090D01*
X1008380Y944880D02*
Y990600D01*
Y944626D02*
Y944880D01*
X998220Y1016000D02*
X1028700D01*
X929640Y944880D02*
X1008380D01*
X998220Y1000760D02*
Y1016000D01*
Y1000760D02*
X1008380Y990600D01*
X929640Y995680D02*
X972566D01*
X998220Y970026D01*
X1036320Y922020D02*
Y970280D01*
X1031240Y916940D02*
X1036320Y922020D01*
X904240Y916940D02*
X1031240D01*
X894080Y927100D02*
X904240Y916940D01*
D15*
X685800Y944880D02*
X777240D01*
X685800Y970280D02*
X777240D01*
X685800Y995680D02*
X777240D01*
X685800Y1021080D02*
X777240D01*
D16*
X929640Y995680D02*
D03*
Y970280D02*
D03*
Y944880D02*
D03*
X777240Y1021080D02*
D03*
Y995680D02*
D03*
Y970280D02*
D03*
X685800Y944880D02*
D03*
Y970280D02*
D03*
Y995680D02*
D03*
X872490Y1161542D02*
D03*
X897890D02*
D03*
D17*
X777240Y944880D02*
D03*
X685800Y1021080D02*
D03*
D18*
X847090Y1161542D02*
D03*
X981964Y1127760D02*
D03*
Y1102360D02*
D03*
M02*
